<svg width="48" height="48" viewBox="0 0 48 48" fill="none" xmlns="http://www.w3.org/2000/svg">
<path d="M10.86 43.6467L0.4185 25.5612C-0.1395 24.5952 -0.1395 23.4042 0.4185 22.4382L10.86 4.35349C11.4172 3.38824 12.4462 2.79349 13.56 2.79199H34.4528C35.5628 2.79724 36.5865 3.39199 37.1415 4.35349L47.5815 22.4382C48.1395 23.4042 48.1395 24.5952 47.5815 25.5612L37.14 43.6467C36.5828 44.612 35.5537 45.2067 34.44 45.2082H13.5525C12.4402 45.2045 11.415 44.6097 10.8578 43.6467H10.86Z" fill="#4386FA"/>
<path opacity="0.1" d="M30.5234 18.1768C30.5234 18.1768 33.4259 25.139 29.4689 29.0855C25.5119 33.032 18.3066 30.506 18.3066 30.506L32.9631 45.203H34.4511C35.5656 45.2015 36.5946 44.606 37.1511 43.6415L44.0631 31.673L30.5234 18.1768Z" fill="black"/>
<path d="M33.9507 32.4229L30.7504 29.2152C30.7156 29.1795 30.6757 29.1491 30.6319 29.1252C31.9932 27.3718 32.6347 25.1653 32.4258 22.9554C32.2169 20.7455 31.1734 18.6983 29.5077 17.231C27.842 15.7637 25.6796 14.9867 23.4609 15.0582C21.2423 15.1298 19.1344 16.0445 17.5667 17.6161C15.999 19.1876 15.0895 21.2977 15.0234 23.5165C14.9573 25.7353 15.7397 27.8959 17.211 29.5579C18.6824 31.22 20.7321 32.2585 22.9426 32.462C25.153 32.6655 27.3579 32.0185 29.1079 30.6529C29.1308 30.6942 29.1593 30.7321 29.1927 30.7654L32.4004 33.9732C32.4946 34.0673 32.6224 34.1202 32.7555 34.1202C32.8887 34.1202 33.0164 34.0673 33.1107 33.9732L33.9507 33.1332C34.0448 33.039 34.0977 32.9112 34.0977 32.7781C34.0977 32.6449 34.0448 32.5172 33.9507 32.4229ZM23.7304 30.3484C22.4324 30.3486 21.1635 29.9638 20.0842 29.2428C19.0049 28.5217 18.1636 27.4968 17.6669 26.2976C17.1701 25.0985 17.04 23.7789 17.2932 22.5058C17.5464 21.2328 18.1715 20.0634 19.0893 19.1455C20.0071 18.2277 21.1765 17.6027 22.4496 17.3495C23.7226 17.0963 25.0422 17.2263 26.2414 17.7231C27.4405 18.2199 28.4655 19.0612 29.1865 20.1405C29.9075 21.2198 30.2923 22.4887 30.2922 23.7867C30.292 25.5269 29.6006 27.1958 28.3701 28.4263C27.1395 29.6568 25.4706 30.3482 23.7304 30.3484ZM19.5357 23.4364V26.1484C19.9534 26.8857 20.5579 27.5007 21.2892 27.9297V23.4199L19.5357 23.4364ZM22.8169 21.1879V28.5169C23.3965 28.6238 23.9908 28.6238 24.5704 28.5169V21.1879H22.8169ZM27.8899 26.1424V24.5359H26.1379V27.9109C26.8681 27.4831 27.4729 26.8705 27.8914 26.1349L27.8899 26.1424Z" fill="white"/>
</svg>
