<svg xmlns="http://www.w3.org/2000/svg" width="48" height="48" viewBox="0 0 48 48" fill="none">
  <g clip-path="url(#clip0_2394_80124)">
    <path
      d="M42.5468 19.9412L22.9202 30.6922L2.06844 19.2405L1.09336 19.7479V28.0588L22.9452 40.0903L42.5718 29.3393V33.7605L22.9452 44.5116L2.06844 33.0599L1.09336 33.5672V34.9685L22.9452 47L44.872 34.9685V26.6576L43.8969 26.1502L22.9202 37.6019L3.36855 26.8508V22.5021L22.9202 33.1807L44.847 21.1492V12.959L43.7219 12.3792L22.9202 23.7584L4.41863 13.5872L22.9202 3.48845L38.1964 11.7994L39.5715 11.0987V10.084L22.9202 1L1.06836 12.9832V14.2637L22.9202 26.2952L42.5468 15.5441V19.9412Z"
      fill="#FF3621" />
  </g>
  <defs>
    <clipPath id="clip0_2394_80124">
      <rect width="48" height="48" fill="white" />
    </clipPath>
  </defs>
</svg>