<svg width="48" height="48" viewBox="0 0 48 48" fill="none" xmlns="http://www.w3.org/2000/svg">
<g clip-path="url(#clip0_639_8749)">
<mask id="mask0_639_8749" style="mask-type:luminance" maskUnits="userSpaceOnUse" x="4" y="4" width="40" height="40">
<path d="M23.9998 43.1998C34.6037 43.1998 43.1998 34.6037 43.1998 23.9998C43.1998 13.3959 34.6037 4.7998 23.9998 4.7998C13.3959 4.7998 4.7998 13.3959 4.7998 23.9998C4.7998 34.6037 13.3959 43.1998 23.9998 43.1998Z" fill="white"/>
</mask>
<g mask="url(#mask0_639_8749)">
<path d="M32.2198 15.5998H5.9998C5.3398 15.5998 4.7998 15.0598 4.7998 14.3998V5.9998C4.7998 5.3398 5.3398 4.7998 5.9998 4.7998H40.1998C40.8598 4.7998 41.3998 5.3398 41.3998 5.9998V6.4198C41.3398 11.4598 37.2598 15.5998 32.2198 15.5998Z" fill="#F0BF1A"/>
</g>
<mask id="mask1_639_8749" style="mask-type:luminance" maskUnits="userSpaceOnUse" x="4" y="4" width="40" height="40">
<path d="M23.9998 43.1998C34.6037 43.1998 43.1998 34.6037 43.1998 23.9998C43.1998 13.3959 34.6037 4.7998 23.9998 4.7998C13.3959 4.7998 4.7998 13.3959 4.7998 23.9998C4.7998 34.6037 13.3959 43.1998 23.9998 43.1998Z" fill="white"/>
</mask>
<g mask="url(#mask1_639_8749)">
<path d="M41.4599 43.1994H4.91992V32.3994H32.3399C37.3799 32.3994 41.4599 36.4794 41.4599 41.5194V43.1994Z" fill="#3EBEB0"/>
</g>
<mask id="mask2_639_8749" style="mask-type:luminance" maskUnits="userSpaceOnUse" x="4" y="4" width="40" height="40">
<path d="M23.9998 43.1998C34.6037 43.1998 43.1998 34.6037 43.1998 23.9998C43.1998 13.3959 34.6037 4.7998 23.9998 4.7998C13.3959 4.7998 4.7998 13.3959 4.7998 23.9998C4.7998 34.6037 13.3959 43.1998 23.9998 43.1998Z" fill="white"/>
</mask>
<g mask="url(#mask2_639_8749)">
<path d="M30.0599 29.3996H2.87988V18.5996H30.0599C33.0599 18.5996 35.4599 20.9996 35.4599 23.9996C35.4599 26.9996 32.9999 29.3996 30.0599 29.3996Z" fill="#07A5DE"/>
</g>
<mask id="mask3_639_8749" style="mask-type:luminance" maskUnits="userSpaceOnUse" x="4" y="4" width="40" height="40">
<path d="M23.9998 43.1998C34.6037 43.1998 43.1998 34.6037 43.1998 23.9998C43.1998 13.3959 34.6037 4.7998 23.9998 4.7998C13.3959 4.7998 4.7998 13.3959 4.7998 23.9998C4.7998 34.6037 13.3959 43.1998 23.9998 43.1998Z" fill="white"/>
</mask>
<g mask="url(#mask3_639_8749)">
<path d="M21.5998 18.5996H3.83984V29.3996H21.5998C22.0198 27.7796 22.2598 25.9796 22.2598 23.9996C22.2598 22.0196 22.0198 20.2196 21.5998 18.5996Z" fill="#231F20"/>
</g>
<path d="M14.3397 7.37988C11.0997 9.29988 8.39973 12.1799 6.71973 15.5999H20.8797C19.4397 12.2999 17.1597 9.53988 14.3397 7.37988Z" fill="#D7A229"/>
<path d="M14.9397 40.9204C17.6997 38.7004 19.9197 35.7604 21.2997 32.4004H6.71973C8.51973 36.0004 11.3997 39.0004 14.9397 40.9204Z" fill="#019B8F"/>
</g>
<defs>
<clipPath id="clip0_639_8749">
<rect width="48" height="48" fill="white"/>
</clipPath>
</defs>
</svg>
