<svg width="48" height="48" viewBox="0 0 48 48" fill="none" xmlns="http://www.w3.org/2000/svg">
<g clip-path="url(#clip0_639_8777)">
<mask id="mask0_639_8777" style="mask-type:luminance" maskUnits="userSpaceOnUse" x="0" y="0" width="48" height="48">
<path d="M47.1137 19.6364H24.75V28.9091H37.6227C36.4227 34.8 31.4046 38.1818 24.75 38.1818C16.8955 38.1818 10.5682 31.8546 10.5682 24C10.5682 16.1455 16.8955 9.81819 24.75 9.81819C28.1318 9.81819 31.1864 11.0182 33.5864 12.9818L40.5682 6C36.3137 2.29091 30.8591 0 24.75 0C11.4409 0 0.75 10.6909 0.75 24C0.75 37.3091 11.4409 48 24.75 48C36.75 48 47.6591 39.2727 47.6591 24C47.6591 22.5818 47.4409 21.0546 47.1137 19.6364Z" fill="white"/>
</mask>
<g mask="url(#mask0_639_8777)">
<path d="M-1.43164 38.182V9.81836L17.1138 24.0002L-1.43164 38.182Z" fill="#FBBC05"/>
</g>
<mask id="mask1_639_8777" style="mask-type:luminance" maskUnits="userSpaceOnUse" x="0" y="0" width="48" height="48">
<path d="M47.1137 19.6364H24.75V28.9091H37.6227C36.4227 34.8 31.4046 38.1818 24.75 38.1818C16.8955 38.1818 10.5682 31.8546 10.5682 24C10.5682 16.1455 16.8955 9.81819 24.75 9.81819C28.1318 9.81819 31.1864 11.0182 33.5864 12.9818L40.5682 6C36.3137 2.29091 30.8591 0 24.75 0C11.4409 0 0.75 10.6909 0.75 24C0.75 37.3091 11.4409 48 24.75 48C36.75 48 47.6591 39.2727 47.6591 24C47.6591 22.5818 47.4409 21.0546 47.1137 19.6364Z" fill="white"/>
</mask>
<g mask="url(#mask1_639_8777)">
<path d="M-1.43164 9.81836L17.1138 24.0002L24.7502 17.3456L50.932 13.0911V-2.18164H-1.43164V9.81836Z" fill="#EA4335"/>
</g>
<mask id="mask2_639_8777" style="mask-type:luminance" maskUnits="userSpaceOnUse" x="0" y="0" width="48" height="48">
<path d="M47.1137 19.6364H24.75V28.9091H37.6227C36.4227 34.8 31.4046 38.1818 24.75 38.1818C16.8955 38.1818 10.5682 31.8546 10.5682 24C10.5682 16.1455 16.8955 9.81819 24.75 9.81819C28.1318 9.81819 31.1864 11.0182 33.5864 12.9818L40.5682 6C36.3137 2.29091 30.8591 0 24.75 0C11.4409 0 0.75 10.6909 0.75 24C0.75 37.3091 11.4409 48 24.75 48C36.75 48 47.6591 39.2727 47.6591 24C47.6591 22.5818 47.4409 21.0546 47.1137 19.6364Z" fill="white"/>
</mask>
<g mask="url(#mask2_639_8777)">
<path d="M-1.43164 38.182L31.2956 13.0911L39.9138 14.182L50.932 -2.18164V50.182H-1.43164V38.182Z" fill="#34A853"/>
</g>
<mask id="mask3_639_8777" style="mask-type:luminance" maskUnits="userSpaceOnUse" x="0" y="0" width="48" height="48">
<path d="M47.1137 19.6364H24.75V28.9091H37.6227C36.4227 34.8 31.4046 38.1818 24.75 38.1818C16.8955 38.1818 10.5682 31.8546 10.5682 24C10.5682 16.1455 16.8955 9.81819 24.75 9.81819C28.1318 9.81819 31.1864 11.0182 33.5864 12.9818L40.5682 6C36.3137 2.29091 30.8591 0 24.75 0C11.4409 0 0.75 10.6909 0.75 24C0.75 37.3091 11.4409 48 24.75 48C36.75 48 47.6591 39.2727 47.6591 24C47.6591 22.5818 47.4409 21.0546 47.1137 19.6364Z" fill="white"/>
</mask>
<g mask="url(#mask3_639_8777)">
<path d="M50.9318 50.182L17.1136 24.0002L12.75 20.7275L50.9318 9.81836V50.182Z" fill="#4285F4"/>
</g>
</g>
<defs>
<clipPath id="clip0_639_8777">
<rect width="48" height="48" fill="white"/>
</clipPath>
</defs>
</svg>
