<svg width="48" height="48" viewBox="0 0 48 48" fill="none" xmlns="http://www.w3.org/2000/svg">
<g clip-path="url(#clip0_639_8795)">
<path d="M23.85 0.130859L25.131 2.53686C25.419 2.98086 25.731 3.37386 26.0985 3.73986C27.171 4.81236 28.1895 5.93586 29.1045 7.13886C31.275 9.98886 32.739 13.1539 33.7845 16.5769C34.4115 18.6679 34.752 20.8129 34.7775 22.9819C34.8825 29.4664 32.6595 35.0344 28.1775 39.6619C27.4455 40.3939 26.6625 41.0719 25.8225 41.6749C25.3785 41.6749 25.1685 41.3344 24.9855 41.0209C24.645 40.4464 24.4365 39.7909 24.3315 39.1384C24.174 38.3539 24.0705 37.5694 24.1215 36.7594V36.3934C24.0855 36.3154 23.694 0.315359 23.85 0.130859Z" fill="#599636"/>
<path d="M23.8503 0.050628C23.7978 -0.0543721 23.7453 0.0251279 23.6928 0.076128C23.7183 0.601128 23.5353 1.06913 23.2488 1.51613C22.9338 1.96013 22.5168 2.30063 22.0983 2.66663C19.7733 4.67963 17.9433 7.11113 16.4778 9.83063C14.5278 13.4906 13.5228 17.4131 13.2378 21.5426C13.1073 23.0321 13.7088 28.2881 14.1783 29.8046C15.4593 33.8306 17.7603 37.2041 20.7408 40.1321C21.4728 40.8371 22.2558 41.4911 23.0658 42.1196C23.3013 42.1196 23.3268 41.9096 23.3808 41.7536C23.4841 41.4198 23.5628 41.0789 23.6163 40.7336L24.1413 36.8126L23.8503 0.050628Z" fill="#6CAC48"/>
<path d="M25.1309 43.2681C25.1834 42.6681 25.4714 42.1701 25.7849 41.6736C25.4699 41.5431 25.2359 41.2836 25.0529 40.9941C24.8954 40.7331 24.7649 40.4196 24.6629 40.1316C24.2969 39.0336 24.2189 37.8816 24.1139 36.7596V36.0801C23.9834 36.1851 23.9564 37.0731 23.9564 37.2051C23.8801 38.3909 23.7227 39.5702 23.4854 40.7346C23.4074 41.2056 23.3549 41.6751 23.0654 42.0936C23.0654 42.1461 23.0654 42.1986 23.0909 42.2766C23.5619 43.6626 23.6909 45.0741 23.7704 46.5126V47.0376C23.7704 47.6646 23.7449 47.5326 24.2654 47.7426C24.4754 47.8206 24.7094 47.8476 24.9194 48.0036C25.0769 48.0036 25.1024 47.8731 25.1024 47.7681L25.0244 46.9056V44.4996C24.9989 44.0796 25.0769 43.6626 25.1294 43.2696L25.1309 43.2681Z" fill="#C2BFBF"/>
</g>
<defs>
<clipPath id="clip0_639_8795">
<rect width="48" height="48" fill="white"/>
</clipPath>
</defs>
</svg>
