<svg width="48" height="48" viewBox="0 0 48 48" fill="none" xmlns="http://www.w3.org/2000/svg">
<g clip-path="url(#clip0_639_8840)">
<path fill-rule="evenodd" clip-rule="evenodd" d="M44.2134 37.3894C41.6028 37.3167 39.5775 37.5843 37.88 38.2983C37.3912 38.4947 36.6068 38.4947 36.5425 39.1098C36.8037 39.368 36.8351 39.7904 37.0641 40.1482C37.4556 40.7975 38.1419 41.6723 38.7616 42.126L40.8506 43.6188C42.1237 44.3969 43.56 44.8514 44.8002 45.6301C45.5187 46.0846 46.2365 46.6685 46.955 47.1557C47.3208 47.4153 47.5425 47.8377 47.9998 47.9992V47.901C47.7715 47.6101 47.7057 47.1884 47.4781 46.8626L46.4977 45.9224C45.5516 44.6572 44.3758 43.5534 43.1027 42.6459C42.0579 41.9319 39.7736 40.9589 39.3492 39.7592L39.2848 39.6864C40.0018 39.6137 40.8506 39.3614 41.5369 39.1665C42.6476 38.8757 43.6588 38.9397 44.8002 38.6481L46.3682 38.1936V37.9028C45.7806 37.3189 45.3563 36.5401 44.7365 35.9889C43.072 34.5615 41.2428 33.1662 39.3492 31.9984C38.3373 31.3497 37.0312 30.9273 35.9542 30.3768C35.5613 30.1819 34.9094 30.0845 34.6811 29.7602C34.0921 29.0476 33.7665 28.106 33.3421 27.2617L30.6656 21.6169C30.0781 20.3517 29.7181 19.0865 29.001 17.9187C25.6382 12.4033 21.9813 9.06206 16.3664 5.78482C15.1591 5.10349 13.7228 4.81045 12.1958 4.45415L9.74763 4.32326C9.22448 4.09639 8.70279 3.47978 8.24549 3.18746C6.38483 2.01967 1.58575 -0.510789 0.21385 2.82389C-0.667823 4.93261 1.51989 7.00861 2.26255 8.07969C2.81863 8.82574 3.53567 9.66923 3.92858 10.5127C4.14809 11.0639 4.22126 11.6485 4.45027 12.2324C4.97196 13.6598 5.46219 15.2501 6.14777 16.5807C6.51361 17.2621 6.89774 17.9768 7.35504 18.5927C7.61625 18.9563 8.07354 19.1119 8.17086 19.6958C7.71356 20.3452 7.6821 21.3173 7.42089 22.1296C6.24508 25.7958 6.70238 30.3376 8.36695 33.0367C8.8901 33.8475 10.123 35.6326 11.7956 34.9506C13.2648 34.3667 12.937 32.5175 13.3614 30.8953C13.4602 30.5063 13.3943 30.2467 13.5897 29.9864V30.0591L14.9287 32.7517C15.9406 34.3412 17.7039 35.9962 19.1724 37.1C19.9553 37.6839 20.5758 38.6903 21.5547 39.0466V38.9484H21.4904C21.2943 38.6575 21.0001 38.5267 20.7389 38.2998C20.1514 37.7159 19.4987 37.0018 19.0414 36.3532C17.671 34.5368 16.4637 32.5248 15.386 30.4488C14.8628 29.4432 14.4055 28.3401 13.9826 27.3345C13.785 26.9447 13.785 26.3601 13.4594 26.1667C12.9692 26.8793 12.2522 27.4973 11.8915 28.3728C11.271 29.7675 11.2066 31.4872 10.9783 33.2716C10.8466 33.3043 10.9052 33.2716 10.8466 33.3443C9.80324 33.0854 9.44326 32.0136 9.05181 31.1062C8.07282 28.8026 7.90892 25.1043 8.75767 22.4437C8.98595 21.7624 9.9664 19.6209 9.57495 18.9723C9.3774 18.3557 8.7262 17.9994 8.36621 17.5122C7.94184 16.8956 7.48601 16.1175 7.19187 15.4362C6.40898 13.6183 6.01753 11.6078 5.16805 9.79066C4.77514 8.94717 4.09029 8.07096 3.53494 7.29292C2.91448 6.41671 2.23036 5.80009 1.74013 4.76246C1.57697 4.39889 1.34868 3.82154 1.60989 3.43179C1.67428 3.1722 1.80598 3.06821 2.06573 3.01004C2.4901 2.64647 3.69884 3.10748 4.12321 3.3009C5.33048 3.78809 6.34239 4.24182 7.35431 4.92243C7.8116 5.24674 8.30184 5.86336 8.88937 6.02624H9.57568C10.6205 6.2531 11.7949 6.09895 12.7731 6.38981C14.5035 6.94244 16.0701 7.75247 17.4749 8.62941C21.7508 11.322 25.2775 15.1504 27.6599 19.7256C28.0513 20.4717 28.2145 21.153 28.5745 21.9318C29.2608 23.522 30.1095 25.1436 30.7937 26.7018C31.48 28.2267 32.1326 29.7849 33.1116 31.0502C33.6018 31.7315 35.5598 32.0878 36.4408 32.4448C37.0942 32.7357 38.1053 32.9975 38.6943 33.3538C39.8036 34.0351 40.9135 34.8139 41.9576 35.5599C42.4793 35.9482 44.1124 36.7597 44.2097 37.4069L44.2134 37.3894ZM10.922 9.19658C10.4709 9.19262 10.0213 9.24713 9.58447 9.35874V9.43145H9.64885C9.91006 9.95063 10.3674 10.3077 10.6937 10.7621L11.4451 12.3197L11.5095 12.2469C11.9668 11.9226 12.1958 11.4035 12.1958 10.6254C11.9997 10.3985 11.9675 10.171 11.8044 9.94408C11.6083 9.61978 11.1839 9.4569 10.922 9.19804V9.19658Z" fill="#00678C"/>
</g>
<defs>
<clipPath id="clip0_639_8840">
<rect width="48" height="48" fill="white"/>
</clipPath>
</defs>
</svg>
