<svg width="48" height="48" viewBox="0 0 48 48" fill="none" xmlns="http://www.w3.org/2000/svg">
<g clip-path="url(#clip0_639_8816)">
<path d="M35.5928 34.9417C35.8984 32.3973 35.8065 32.0261 37.7003 32.4367L38.1822 32.4798C39.639 32.5455 41.544 32.2455 42.6822 31.7261C45.0915 30.6086 46.5203 28.7411 44.1447 29.2323C38.7259 30.3498 38.3322 28.5142 38.3322 28.5142C44.0565 20.0205 46.4509 9.23922 44.3828 6.60109C38.7503 -0.598905 28.9984 2.80609 28.8353 2.89609L28.7828 2.90547C27.714 2.68047 26.5328 2.54922 25.164 2.53047C22.7115 2.49297 20.8515 3.1736 19.4378 4.24422C19.4378 4.24422 2.0434 -2.92203 2.85153 13.2573C3.02403 16.6998 7.78278 39.3198 13.464 32.4761C15.5434 29.9748 17.5497 27.8617 17.5497 27.8617C18.5434 28.5236 19.7378 28.8611 20.9884 28.7392L21.0859 28.6567C21.057 28.9808 21.0703 29.3073 21.1253 29.628C19.6628 31.263 20.094 31.5498 17.169 32.1517C14.2103 32.7611 15.9503 33.8467 17.0828 34.1317C18.459 34.4767 21.6428 34.9642 23.7953 31.953L23.709 32.2961C24.2828 32.7555 24.2434 35.5961 24.3278 37.6248C24.4122 39.6536 24.5453 41.5492 24.9597 42.6648C25.374 43.7805 25.8597 46.6586 29.7034 45.8523C32.9153 45.1642 35.3715 44.1723 35.5965 34.9586" fill="black"/>
<path d="M35.5928 34.9417C35.8984 32.3973 35.8065 32.0261 37.7003 32.4367L38.1822 32.4798C39.639 32.5455 41.544 32.2455 42.6822 31.7261C45.0915 30.6086 46.5203 28.7411 44.1447 29.2323C38.7259 30.3498 38.3322 28.5142 38.3322 28.5142C44.0565 20.0205 46.4509 9.23922 44.3828 6.60109C38.7503 -0.598905 28.9984 2.80609 28.8353 2.89609L28.7828 2.90547C27.714 2.68047 26.5328 2.54922 25.164 2.53047C22.7115 2.49297 20.8515 3.1736 19.4378 4.24422C19.4378 4.24422 2.0434 -2.92203 2.85153 13.2573C3.02403 16.6998 7.78278 39.3198 13.464 32.4761C15.5434 29.9748 17.5497 27.8617 17.5497 27.8617C18.5434 28.5236 19.7378 28.8611 20.9884 28.7392L21.0859 28.6567C21.057 28.9808 21.0703 29.3073 21.1253 29.628C19.6628 31.263 20.094 31.5498 17.169 32.1517C14.2103 32.7611 15.9503 33.8467 17.0828 34.1317C18.459 34.4767 21.6428 34.9642 23.7953 31.953L23.709 32.2961C24.2828 32.7555 24.2434 35.5961 24.3278 37.6248C24.4122 39.6536 24.5453 41.5492 24.9597 42.6648C25.374 43.7805 25.8597 46.6586 29.7034 45.8523C32.9153 45.1642 35.3715 44.1723 35.5965 34.9586" stroke="black" stroke-width="4.02938"/>
<path d="M44.1274 29.2492C38.7086 30.3667 38.3149 28.5311 38.3149 28.5311C44.0392 20.0373 46.4336 9.25608 44.3674 6.61796C38.7349 -0.582045 28.983 2.82483 28.8199 2.91296L28.7674 2.92233C27.5763 2.68334 26.3653 2.55715 25.1505 2.54546C22.698 2.50796 20.838 3.18858 19.4242 4.25921C19.4242 4.25921 2.02798 -2.90704 2.83798 13.2723C3.01048 16.7148 7.76923 39.3348 13.4505 32.4911C15.543 29.9748 17.5492 27.8617 17.5492 27.8617C18.543 28.5236 19.7374 28.8611 20.988 28.7392L21.0855 28.6567C21.0568 28.9808 21.0701 29.3072 21.1249 29.628C19.6624 31.263 20.0936 31.5498 17.1686 32.1517C14.2099 32.7611 15.9499 33.8467 17.0824 34.1317C18.4586 34.4767 21.6424 34.9642 23.7949 31.953L23.7086 32.2961C24.2824 32.7555 24.6836 35.283 24.6161 37.5742C24.5486 39.8655 24.5036 41.4367 24.9536 42.6667C25.4036 43.8967 25.8536 46.6605 29.6974 45.8542C32.9092 45.1661 34.5724 43.3792 34.8067 40.4055C34.9717 38.2905 35.343 38.6017 35.3692 36.7117L35.6692 35.8155C36.0124 32.9467 35.7255 32.0223 37.7036 32.4536L38.1855 32.4967C39.6424 32.5623 41.5492 32.2623 42.6667 31.743C45.0761 30.6255 46.503 28.758 44.1274 29.2492Z" fill="#336791"/>
<path d="M24.0247 30.8748C23.8747 36.2111 24.0622 41.5848 24.5834 42.8748C25.1047 44.1648 26.2241 46.7186 30.0697 45.8973C33.2816 45.2092 34.4516 43.8761 34.9578 40.9342L36.1447 31.5273M19.4159 4.1242C19.4159 4.1242 2.00843 -2.9933 2.81843 13.1861C2.99093 16.6286 7.74968 39.2486 13.4309 32.4048C15.5047 29.9055 17.3797 27.9498 17.3797 27.9498M28.8172 2.82482C28.2172 3.01232 38.4997 -0.934552 44.3459 6.53357C46.4084 9.1717 44.0178 19.9529 38.2934 28.4467" stroke="white" stroke-width="1.3425" stroke-linecap="round" stroke-linejoin="round"/>
<path d="M38.2953 28.443C38.2953 28.443 38.6703 30.2805 44.1078 29.1593C46.4834 28.668 45.0528 30.5355 42.6453 31.653C40.6691 32.5718 36.2366 32.8062 36.1634 31.5405C35.9759 28.2687 38.4959 29.2624 38.3141 28.443C38.1491 27.7043 37.0203 26.9805 36.2778 25.173C35.6272 23.598 27.3528 11.5043 38.5728 13.2987C38.9853 13.2143 35.6478 2.61115 25.1478 2.4574C14.6478 2.30365 14.9797 15.3668 14.9797 15.3668" stroke="white" stroke-width="1.3425" stroke-linecap="round" stroke-linejoin="bevel"/>
<path d="M21.0868 29.5647C19.6243 31.1997 20.0555 31.4866 17.1305 32.0885C14.1718 32.6979 15.9118 33.7835 17.0443 34.0685C18.4205 34.4135 21.6043 34.901 23.7568 31.8879C24.413 30.9691 23.753 29.5066 22.853 29.1354C22.418 28.9554 21.8368 28.7304 21.0905 29.5666L21.0868 29.5647Z" stroke="white" stroke-width="1.3425" stroke-linejoin="round"/>
<path d="M20.9909 29.5364C20.8409 28.5745 21.3059 27.4326 21.8028 26.0939C22.549 24.0876 24.2703 22.0814 22.894 15.712C21.8684 10.9683 14.9815 14.7239 14.9815 15.367C14.9815 16.0101 15.2928 18.6295 14.869 21.6764C14.3121 25.6551 17.4003 29.0189 20.9553 28.6758" stroke="white" stroke-width="1.3425" stroke-linecap="round" stroke-linejoin="round"/>
<path d="M19.3532 15.2709C19.3213 15.4903 19.7563 16.0771 20.3207 16.1559C20.8851 16.2346 21.367 15.7771 21.3988 15.5559C21.4307 15.3346 20.9957 15.0946 20.4313 15.0159C19.867 14.9371 19.3813 15.0534 19.3532 15.2709Z" fill="white" stroke="white" stroke-width="0.448125"/>
<path d="M36.5352 14.8227C36.5652 15.042 36.1321 15.6289 35.5677 15.7077C35.0033 15.7864 34.5177 15.3289 34.4896 15.1077C34.4615 14.8864 34.8927 14.6464 35.4571 14.5677C36.0215 14.4889 36.5071 14.6052 36.5352 14.8227Z" fill="white" stroke="white" stroke-width="0.223125"/>
<path d="M38.5533 13.3027C38.647 15.0277 38.182 16.1996 38.122 18.0352C38.0358 20.7015 39.3933 23.754 37.3477 26.8102" stroke="white" stroke-width="1.3425" stroke-linecap="round" stroke-linejoin="round"/>
</g>
<defs>
<clipPath id="clip0_639_8816">
<rect width="48" height="48" fill="white"/>
</clipPath>
</defs>
</svg>
