<svg width="48" height="48" viewBox="0 0 48 48" fill="none" xmlns="http://www.w3.org/2000/svg">
<g clip-path="url(#clip0_639_8803)">
<path d="M46.1183 35.1516C43.5568 36.4877 30.2885 41.9429 27.4636 43.4152C24.6386 44.8874 23.0697 44.8734 20.8377 43.8071C18.6058 42.7407 4.48621 37.0374 1.94123 35.8209C0.668738 35.2127 0.00195312 34.7011 0.00195312 34.2176V29.3656C0.00195312 29.3656 18.3856 25.3636 21.3543 24.2985C24.3231 23.2335 25.35 23.1953 27.8771 24.1204C30.4043 25.0455 45.5049 27.7699 48.0003 28.6848V33.4694C48.0003 33.9491 47.4251 34.4874 46.1208 35.1541L46.1183 35.1516Z" fill="#A41E11"/>
<path d="M46.1185 30.2983C43.557 31.6344 30.2887 37.0896 27.4638 38.5618C24.6389 40.0341 23.0699 40.0201 20.8379 38.9538C18.606 37.8874 4.48644 32.1841 1.94146 30.9676C-0.603521 29.7511 -0.654422 28.9151 1.84348 27.9366L21.3533 20.383C24.3208 19.3192 25.3489 19.2798 27.8761 20.2049C30.4033 21.13 43.5913 26.379 46.0854 27.3079C48.5795 28.2369 48.6775 28.9749 46.116 30.311L46.1185 30.2983Z" fill="#D82C20"/>
<path d="M46.1183 27.2395C43.5568 28.5756 30.2885 34.0308 27.4636 35.503C24.6386 36.9753 23.0697 36.9613 20.8377 35.895C18.6058 34.8286 4.48621 29.1253 1.94123 27.9088C0.668738 27.3006 0.00195312 26.789 0.00195312 26.3055V21.4535C0.00195312 21.4535 18.3856 17.4515 21.3543 16.3864C24.3231 15.3214 25.35 15.2832 27.8771 16.2083C30.4043 17.1334 45.5049 19.8578 48.0003 20.7727V25.5573C48.0003 26.037 47.4251 26.5753 46.1208 27.242L46.1183 27.2395Z" fill="#A41E11"/>
<path d="M46.1185 22.3873C43.557 23.7234 30.2887 29.1786 27.4638 30.6509C24.6389 32.1231 23.0699 32.1091 20.8379 31.0428C18.606 29.9764 4.48644 24.2731 1.94146 23.0566C-0.603521 21.8401 -0.654422 21.0041 1.84348 20.0256L21.3533 12.4733C24.3208 11.4083 25.3489 11.3701 27.8761 12.2952C30.4033 13.2203 43.5913 18.4706 46.088 19.383C48.5846 20.2953 48.68 21.0499 46.1185 22.386V22.3873Z" fill="#D82C20"/>
<path d="M46.1183 19.0337C43.5568 20.3699 30.2885 25.825 27.4636 27.2986C24.6386 28.7721 23.0697 28.7568 20.8377 27.6905C18.6058 26.6241 4.48621 20.9208 1.94123 19.7043C0.668738 19.0961 0.00195312 18.5845 0.00195312 18.101V13.2464C0.00195312 13.2464 18.3856 9.24447 21.3543 8.17939C24.3231 7.11432 25.35 7.07614 27.8771 8.00124C30.4043 8.92634 45.5049 11.6507 48.0003 12.5657V17.3502C48.0003 17.83 47.4251 18.3682 46.1208 19.035L46.1183 19.0337Z" fill="#A41E11"/>
<path d="M46.1185 14.1813C43.557 15.5174 30.2887 20.9725 27.4638 22.4448C24.6389 23.9171 23.0699 23.9031 20.8379 22.8367C18.606 21.7704 4.48644 16.0671 1.94146 14.8506C-0.603521 13.6341 -0.654422 12.7981 1.84348 11.8195L21.3533 4.26728C24.3208 3.20221 25.3489 3.16403 27.8761 4.08913C30.4033 5.01424 43.5913 10.2645 46.088 11.1769C48.5846 12.0893 48.68 12.8439 46.1185 14.18V14.1813Z" fill="#D82C20"/>
<path d="M25.1991 12.1808L23.695 9.68031L18.8926 9.24766L22.476 7.95481L21.4007 5.96973L24.755 7.28039L27.9184 6.24459L27.0633 8.29584L30.2878 9.5047L26.1293 9.93735L25.1991 12.1808ZM17.1875 17.1587L28.3091 15.4511L24.9497 20.3781L17.1875 17.1587Z" fill="white"/>
<path d="M14.1892 15.3638C17.4726 15.3638 20.1343 14.3321 20.1343 13.0594C20.1343 11.7866 17.4726 10.7549 14.1892 10.7549C10.9058 10.7549 8.24414 11.7866 8.24414 13.0594C8.24414 14.3321 10.9058 15.3638 14.1892 15.3638Z" fill="white"/>
<path d="M41.787 12.7233L35.2082 15.3218L35.2031 10.1211L41.787 12.7233Z" fill="#7A0C00"/>
<path d="M35.2091 15.3215L34.4965 15.6014L27.9229 13.003L35.2053 10.1221L35.2091 15.3215Z" fill="#AD2115"/>
</g>
<defs>
<clipPath id="clip0_639_8803">
<rect width="48" height="48" fill="white"/>
</clipPath>
</defs>
</svg>
