<svg width="48" height="48" viewBox="0 0 48 48" fill="none" xmlns="http://www.w3.org/2000/svg">
<g clip-path="url(#clip0_639_8769)">
<path d="M21.7305 36.701L39.9838 41.047V6.85742L21.7305 11.2034V36.701Z" fill="#205B97"/>
<path d="M39.9832 6.85742L43.46 8.59583V39.3086L39.9832 41.047V6.85742ZM21.7299 36.701L3.47656 41.047V6.85742L21.7299 11.2034V36.701Z" fill="#5193CE"/>
<path d="M3.47682 6.85742L0 8.59583V39.3086L3.47682 41.047V6.85742Z" fill="#205B97"/>
<path d="M26.3662 48L33.3198 44.5232V3.47682L26.3662 0L24.2402 22.7931L26.3662 48Z" fill="#5193CE"/>
<path d="M17.0933 48L10.1396 44.5232V3.47682L17.0933 0L19.2192 22.7931L17.0933 48Z" fill="#205B97"/>
<path d="M17.0938 0H26.4612V47.9031H17.0938V0Z" fill="#2E73B7"/>
</g>
<defs>
<clipPath id="clip0_639_8769">
<rect width="43.4602" height="48" fill="white"/>
</clipPath>
</defs>
</svg>
