<svg width="48" height="48" viewBox="0 0 48 48" fill="none" xmlns="http://www.w3.org/2000/svg">
<g clip-path="url(#clip0_639_8799)">
<path d="M7.39469 11.4741L17.1507 17.3241C17.6909 17.6488 18.3252 17.781 18.9502 17.6991C19.5752 17.6173 20.154 17.3262 20.5924 16.8733C20.8854 16.591 21.118 16.2521 21.2762 15.8772C21.4343 15.5023 21.5148 15.0992 21.5127 14.6923V2.96759C21.5322 2.45405 21.4128 1.94475 21.1672 1.49334C20.9216 1.04193 20.5587 0.665115 20.1169 0.402593C19.6752 0.140079 19.1709 0.00152773 18.6571 0.00152773C18.1432 0.00152773 17.6389 0.140079 17.1972 0.402593C16.7554 0.665115 16.3926 1.04193 16.1469 1.49334C15.9013 1.94475 15.7819 2.45405 15.8014 2.96759V9.63959L10.2612 6.31709C9.93449 6.12317 9.57223 5.99671 9.19582 5.94518C8.81941 5.89365 8.43649 5.91811 8.06969 6.01709C7.33019 6.21584 6.70619 6.72209 6.34469 7.40009C5.55194 8.82509 6.01469 10.6101 7.39469 11.4666M30.8472 17.3166L40.6032 11.4666C41.9832 10.6093 42.4467 8.81684 41.6532 7.39859C41.4738 7.06395 41.2284 6.76911 40.932 6.53184C40.6355 6.29458 40.2941 6.1198 39.9283 6.01804C39.5624 5.91628 39.1798 5.88965 38.8034 5.93976C38.427 5.98987 38.0647 6.11567 37.7382 6.30959L32.2632 9.58709V2.95709C32.2771 2.57338 32.2135 2.1908 32.0763 1.8322C31.939 1.4736 31.7309 1.14634 31.4644 0.869966C31.1978 0.593589 30.8783 0.373764 30.5249 0.22362C30.1716 0.0734764 29.7915 -0.00390625 29.4076 -0.00390625C29.0236 -0.00390625 28.6436 0.0734764 28.2902 0.22362C27.9368 0.373764 27.6173 0.593589 27.3507 0.869966C27.0842 1.14634 26.8761 1.4736 26.7388 1.8322C26.6016 2.1908 26.538 2.57338 26.5519 2.95709V14.4493C26.4932 15.0649 26.6224 15.6839 26.9224 16.2246C27.2839 16.9018 27.9079 17.4021 28.6474 17.6076C29.0138 17.7101 29.3973 17.7363 29.7743 17.6847C30.1512 17.6331 30.5136 17.5048 30.8389 17.3076M22.1637 23.9781C22.1734 23.7906 22.2447 23.6031 22.3677 23.4681L23.5077 22.2831C23.6427 22.1575 23.8171 22.0827 24.0012 22.0716H24.0439C24.2276 22.0825 24.4017 22.1573 24.5359 22.2831L25.6759 23.4681C25.7993 23.6106 25.8712 23.7905 25.8799 23.9788V24.0238C25.8709 24.2126 25.7991 24.3929 25.6759 24.5361L24.5359 25.7211C24.4023 25.848 24.228 25.9235 24.0439 25.9341H24.0012C23.8167 25.9236 23.6412 25.8478 23.5077 25.7211L22.3677 24.5361C22.2445 24.3929 22.1727 24.2126 22.1637 24.0238V23.9781ZM18.7107 23.4906V24.5136C18.7234 24.7707 18.8216 25.0162 18.9897 25.2111L22.8597 29.2288C23.0423 29.4015 23.28 29.5041 23.5309 29.5183H24.5149C24.7658 29.5041 25.0036 29.4015 25.1862 29.2288L29.0562 25.2111C29.2243 25.0162 29.3225 24.7707 29.3352 24.5136V23.4906C29.3225 23.2335 29.2243 22.988 29.0562 22.7931L25.1862 18.7753C25.0036 18.6027 24.7658 18.5001 24.5149 18.4858H23.5309C23.28 18.5001 23.0423 18.6027 22.8597 18.7753L18.9897 22.8006C18.8221 22.9958 18.7239 23.2411 18.7107 23.4981M2.34719 20.7156L7.87094 24.0283L2.34719 27.3381C1.6833 27.7516 1.20401 28.4048 1.00866 29.1622C0.813314 29.9195 0.916898 30.723 1.29794 31.4061C1.47713 31.7412 1.72236 32.0365 2.01884 32.2742C2.31532 32.5119 2.65689 32.6871 3.02294 32.7891C3.76244 32.9946 4.55444 32.8888 5.21444 32.4951L14.9704 26.6451C15.8704 26.0736 16.3954 25.0866 16.3954 24.0261C16.3954 23.5053 16.2649 22.9928 16.016 22.5354C15.7671 22.0779 15.4077 21.69 14.9704 21.4071L5.21444 15.5571C4.88774 15.3632 4.52548 15.2367 4.14907 15.1852C3.77266 15.1337 3.38974 15.1581 3.02294 15.2571C2.28344 15.4558 1.65944 15.9621 1.29794 16.6401C0.50519 18.0651 0.96794 19.8486 2.34794 20.7066M31.5942 24.0381C31.5856 24.5598 31.7132 25.0747 31.9644 25.5321C32.2156 25.9894 32.5818 26.3733 33.0267 26.6458L42.7767 32.4958C43.4367 32.8888 44.2272 32.9953 44.9667 32.7898C45.7062 32.5843 46.3294 32.0848 46.6917 31.4076C47.0745 30.7249 47.1791 29.9207 46.9834 29.1628C46.7878 28.4049 46.3071 27.7517 45.6417 27.3396L40.1247 24.0291L45.6484 20.7163C47.0284 19.8591 47.4912 18.0688 46.6984 16.6498C46.5196 16.3145 46.2745 16.019 45.978 15.7812C45.6814 15.5435 45.3397 15.3685 44.9734 15.2668C44.2332 15.0613 43.4419 15.1663 42.7834 15.5668L33.0334 21.4168C32.5852 21.6913 32.2169 22.0788 31.9655 22.5404C31.7141 23.002 31.5884 23.5216 31.6009 24.0471M19.1097 30.3816C18.4364 30.2517 17.7388 30.3756 17.1514 30.7296L7.39544 36.5796C6.01544 37.4368 5.55344 39.2271 6.34544 40.6461C6.70769 41.3233 7.33094 41.8236 8.07044 42.0283C8.43664 42.1299 8.81963 42.1563 9.19629 42.1057C9.57295 42.0552 9.93546 41.9289 10.2619 41.7343L15.8022 38.4118V45.0343C15.7869 45.4188 15.8495 45.8025 15.9861 46.1622C16.1227 46.5219 16.3305 46.8504 16.5972 47.1278C16.8638 47.4052 17.1838 47.6259 17.5378 47.7767C17.8918 47.9275 18.2726 48.0052 18.6574 48.0052C19.0422 48.0052 19.4231 47.9275 19.7771 47.7767C20.1311 47.6259 20.4511 47.4052 20.7177 47.1278C20.9843 46.8504 21.1922 46.5219 21.3288 46.1622C21.4654 45.8025 21.528 45.4188 21.5127 45.0343V33.3006C21.5228 32.6072 21.2869 31.9327 20.8468 31.3968C20.4068 30.8609 19.791 30.4983 19.1089 30.3733M40.6039 36.5803L30.8479 30.7303C30.5215 30.5358 30.159 30.4095 29.7823 30.3589C29.4056 30.3084 29.0226 30.3347 28.6564 30.4363C28.2903 30.5379 27.9486 30.7128 27.652 30.9504C27.3555 31.188 27.1104 31.4834 26.9314 31.8186C26.6314 32.3601 26.5022 32.9798 26.5609 33.5961V45.0336C26.5457 45.4181 26.6082 45.8017 26.7448 46.1614C26.8814 46.5212 27.0893 46.8496 27.3559 47.127C27.6226 47.4045 27.9425 47.6252 28.2965 47.776C28.6506 47.9268 29.0314 48.0045 29.4162 48.0045C29.801 48.0045 30.1818 47.9268 30.5358 47.776C30.8899 47.6252 31.2098 47.4045 31.4764 47.127C31.7431 46.8496 31.9509 46.5212 32.0876 46.1614C32.2242 45.8017 32.2867 45.4181 32.2714 45.0336V38.4606L37.7367 41.7381C38.0634 41.932 38.4257 42.0585 38.8021 42.11C39.1785 42.1615 39.5614 42.1371 39.9282 42.0381C40.6677 41.8393 41.2917 41.3331 41.6532 40.6551C42.4459 39.2301 41.9832 37.4451 40.6032 36.5886" fill="#29B5E8"/>
</g>
<defs>
<clipPath id="clip0_639_8799">
<rect width="48" height="48" fill="white"/>
</clipPath>
</defs>
</svg>
