<svg width="210" height="136" viewBox="0 0 210 136" fill="none" xmlns="http://www.w3.org/2000/svg">
<path d="M204.86 136H5.2128C3.84995 135.998 2.54336 135.457 1.57968 134.496C0.615999 133.534 0.0739263 132.231 0.0723877 130.871V8.04741C0.0734984 7.05126 0.470618 6.09622 1.17661 5.39182C1.8826 4.68742 2.83982 4.29119 3.83826 4.29004H206.169C207.185 4.29119 208.159 4.69427 208.877 5.41085C209.595 6.12743 209.999 7.09898 210 8.11237V130.871C209.999 132.231 209.456 133.534 208.493 134.496C207.529 135.457 206.222 135.998 204.86 136Z" fill="#F2F2F2"/>
<path d="M197.575 128.738H11.5095C8.78195 128.738 6.56299 126.664 6.56299 124.116V17.1598C6.56299 15.27 8.20728 13.7324 10.2285 13.7324H198.795C200.85 13.7324 202.522 15.2953 202.522 17.2163V124.116C202.522 126.664 200.303 128.738 197.575 128.738Z" fill="white"/>
<path d="M209.928 7.75514H0V5.14409C0.0019763 3.77985 0.546266 2.47209 1.51345 1.50772C2.48064 0.543352 3.79174 0.00112709 5.15912 0H204.769C206.137 0.00112053 207.448 0.543343 208.415 1.50771C209.382 2.47208 209.926 3.77984 209.928 5.14409V7.75514Z" fill="#CCCCCC"/>
<path d="M9.37511 5.21747C10.1121 5.21747 10.7096 4.62139 10.7096 3.88608C10.7096 3.15077 10.1121 2.55469 9.37511 2.55469C8.63811 2.55469 8.04065 3.15077 8.04065 3.88608C8.04065 4.62139 8.63811 5.21747 9.37511 5.21747Z" fill="white"/>
<path d="M14.4447 5.21747C15.1817 5.21747 15.7791 4.62139 15.7791 3.88608C15.7791 3.15077 15.1817 2.55469 14.4447 2.55469C13.7077 2.55469 13.1102 3.15077 13.1102 3.88608C13.1102 4.62139 13.7077 5.21747 14.4447 5.21747Z" fill="white"/>
<path d="M19.5016 5.21747C20.2386 5.21747 20.836 4.62139 20.836 3.88608C20.836 3.15077 20.2386 2.55469 19.5016 2.55469C18.7646 2.55469 18.1671 3.15077 18.1671 3.88608C18.1671 4.62139 18.7646 5.21747 19.5016 5.21747Z" fill="white"/>
<path d="M124.661 28.2485H93.6671C92.9821 28.2485 92.3252 27.977 91.8408 27.4937C91.3565 27.0105 91.0844 26.355 91.0844 25.6716C91.0844 24.9882 91.3565 24.3327 91.8408 23.8495C92.3252 23.3662 92.9821 23.0947 93.6671 23.0947H124.661C125.346 23.0947 126.003 23.3662 126.487 23.8495C126.971 24.3327 127.244 24.9882 127.244 25.6716C127.244 26.355 126.971 27.0105 126.487 27.4937C126.003 27.977 125.346 28.2485 124.661 28.2485Z" fill="#CCCCCC"/>
<path d="M145.879 40.7641H72.4533C71.7683 40.7641 71.1113 40.4926 70.627 40.0093C70.1426 39.5261 69.8705 38.8706 69.8705 38.1872C69.8705 37.5038 70.1426 36.8484 70.627 36.3651C71.1113 35.8818 71.7683 35.6104 72.4533 35.6104H145.879C146.564 35.6104 147.22 35.8818 147.705 36.3651C148.189 36.8484 148.461 37.5038 148.461 38.1872C148.461 38.8706 148.189 39.5261 147.705 40.0093C147.22 40.4926 146.564 40.7641 145.879 40.7641Z" fill="#CCCCCC"/>
<path d="M167.903 117.684C165.12 117.684 162.399 116.861 160.085 115.318C157.771 113.776 155.967 111.583 154.902 109.018C153.837 106.452 153.558 103.629 154.101 100.906C154.644 98.1826 155.985 95.681 157.953 93.7175C159.921 91.7541 162.428 90.417 165.158 89.8752C167.887 89.3335 170.717 89.6115 173.288 90.6742C175.859 91.7368 178.057 93.5362 179.603 95.845C181.149 98.1538 181.975 100.868 181.975 103.645C181.97 107.367 180.487 110.936 177.848 113.568C175.21 116.2 171.634 117.68 167.903 117.684ZM167.903 90.5737C165.312 90.5737 162.779 91.3403 160.624 92.7766C158.47 94.2129 156.79 96.2543 155.799 98.6428C154.807 101.031 154.548 103.659 155.053 106.195C155.559 108.731 156.807 111.06 158.639 112.888C160.471 114.716 162.806 115.961 165.347 116.465C167.888 116.969 170.523 116.711 172.916 115.721C175.31 114.732 177.357 113.056 178.796 110.907C180.236 108.757 181.004 106.23 181.004 103.645C181 100.179 179.619 96.857 177.163 94.4065C174.706 91.956 171.376 90.5776 167.903 90.5737Z" fill="#CCCCCC"/>
<path d="M49.927 80.0829C47.1439 80.0829 44.4233 79.2595 42.1092 77.7168C39.7951 76.1741 37.9914 73.9814 36.9264 71.4161C35.8613 68.8507 35.5827 66.0278 36.1256 63.3044C36.6686 60.581 38.0088 58.0794 39.9768 56.116C41.9447 54.1525 44.4521 52.8154 47.1817 52.2737C49.9114 51.732 52.7408 52.01 55.3121 53.0726C57.8833 54.1352 60.0811 55.9347 61.6273 58.2435C63.1735 60.5523 63.9988 63.2666 63.9988 66.0434C63.9946 69.7656 62.5107 73.3342 59.8726 75.9662C57.2346 78.5982 53.6578 80.0787 49.927 80.0829ZM49.927 52.9722C47.3358 52.9722 44.8028 53.7388 42.6483 55.1751C40.4938 56.6113 38.8146 58.6528 37.823 61.0412C36.8314 63.4297 36.5719 66.0579 37.0774 68.5935C37.583 71.129 38.8307 73.4581 40.663 75.2862C42.4952 77.1142 44.8297 78.3591 47.3711 78.8635C49.9125 79.3678 52.5467 79.109 54.9407 78.1196C57.3346 77.1303 59.3808 75.4549 60.8204 73.3054C62.26 71.1558 63.0283 68.6286 63.0283 66.0434C63.0244 62.5779 61.6428 59.2554 59.1867 56.805C56.7306 54.3545 53.4005 52.9761 49.927 52.9722Z" fill="#CCCCCC"/>
<path d="M55.3971 73.4854C55.0286 73.4855 54.6752 73.3397 54.4145 73.08C54.1537 72.8203 54.0069 72.4679 54.0064 72.1003V64.223C54.0068 63.8558 54.1532 63.5037 54.4134 63.2441C54.6737 62.9844 55.0266 62.8383 55.3946 62.8379H55.3971C55.7652 62.8383 56.118 62.9844 56.3783 63.2441C56.6386 63.5037 56.7849 63.8558 56.7853 64.223V72.1003C56.7849 72.4675 56.6386 72.8196 56.3783 73.0793C56.118 73.3389 55.7652 73.485 55.3971 73.4854ZM51.7723 73.4854C51.5885 73.4873 51.4062 73.4529 51.2358 73.3841C51.0654 73.3154 50.9103 73.2138 50.7794 73.0851C50.6486 72.9563 50.5445 72.8031 50.4732 72.6341C50.4019 72.4651 50.3648 72.2837 50.364 72.1003V67.857C50.3644 67.4898 50.5108 67.1378 50.7711 66.8781C51.0314 66.6185 51.3842 66.4724 51.7523 66.4721H51.7723C52.1403 66.4724 52.4932 66.6185 52.7534 66.8781C53.0137 67.1378 53.1601 67.4898 53.1605 67.857V72.1003C53.1601 72.4675 53.0137 72.8196 52.7534 73.0793C52.4932 73.3389 52.1403 73.485 51.7723 73.4854ZM48.1124 73.4854C47.7439 73.4855 47.3905 73.3397 47.1298 73.08C46.869 72.8203 46.7222 72.4679 46.7217 72.1003V59.9857C46.7221 59.6185 46.8685 59.2664 47.1287 59.0068C47.389 58.7471 47.7419 58.601 48.1099 58.6006H48.1124C48.4805 58.601 48.8333 58.7471 49.0936 59.0068C49.3539 59.2664 49.5002 59.6185 49.5006 59.9857V72.1003C49.5002 72.4675 49.3539 72.8196 49.0936 73.0793C48.8333 73.3389 48.4805 73.485 48.1124 73.4854ZM44.4665 73.4854C44.2839 73.4856 44.1032 73.4499 43.9345 73.3803C43.7658 73.3107 43.6126 73.2086 43.4835 73.0799C43.3544 72.9511 43.2521 72.7983 43.1823 72.63C43.1125 72.4617 43.0766 72.2814 43.0768 72.0993L43.0783 70.2797C43.0785 69.9124 43.2249 69.5602 43.4853 69.3006C43.7458 69.0409 44.0989 68.8952 44.4671 68.8953C44.8353 68.8955 45.1883 69.0416 45.4485 69.3014C45.7088 69.5613 45.8549 69.9136 45.8547 70.2809V72.1003C45.8543 72.4675 45.7079 72.8196 45.4477 73.0793C45.1874 73.3389 44.8345 73.485 44.4665 73.4854Z" fill="#CCCCCC"/>
<path d="M109.725 80.0829C106.942 80.0829 104.221 79.2595 101.907 77.7168C99.5928 76.1741 97.7892 73.9814 96.7241 71.4161C95.6591 68.8507 95.3804 66.0278 95.9233 63.3044C96.4663 60.581 97.8065 58.0794 99.7745 56.116C101.742 54.1525 104.25 52.8154 106.979 52.2737C109.709 51.732 112.539 52.01 115.11 53.0726C117.681 54.1352 119.879 55.9347 121.425 58.2435C122.971 60.5523 123.797 63.2666 123.797 66.0434C123.792 69.7656 122.308 73.3342 119.67 75.9662C117.032 78.5982 113.456 80.0787 109.725 80.0829ZM109.725 52.9722C107.134 52.9722 104.601 53.7388 102.446 55.1751C100.292 56.6113 98.6123 58.6528 97.6207 61.0412C96.6291 63.4297 96.3696 66.0579 96.8752 68.5935C97.3807 71.129 98.6285 73.4581 100.461 75.2862C102.293 77.1142 104.627 78.3591 107.169 78.8635C109.71 79.3678 112.344 79.109 114.738 78.1196C117.132 77.1303 119.179 75.4549 120.618 73.3054C122.058 71.1558 122.826 68.6286 122.826 66.0434C122.822 62.5779 121.441 59.2554 118.984 56.805C116.528 54.3545 113.198 52.9761 109.725 52.9722Z" fill="#CCCCCC"/>
<path d="M102.253 71.1335C102.051 71.1334 101.853 71.0736 101.685 70.9615C101.517 70.8495 101.385 70.6902 101.308 70.5039C101.23 70.3175 101.21 70.1124 101.249 69.9145C101.288 69.7165 101.386 69.5346 101.528 69.3917L106.728 64.1897C106.809 64.1083 106.905 64.0438 107.011 63.9998C107.117 63.9558 107.231 63.9333 107.346 63.9336H107.347C107.461 63.9333 107.575 63.9557 107.681 63.9995C107.787 64.0433 107.883 64.1077 107.964 64.1889L110.376 66.5947C110.424 66.6435 110.482 66.6822 110.546 66.7085C110.609 66.7348 110.678 66.7482 110.747 66.748C110.816 66.7482 110.884 66.7347 110.948 66.7084C111.011 66.6821 111.069 66.6434 111.118 66.5946L114.522 63.1922C114.538 63.176 114.551 63.1568 114.56 63.1356C114.569 63.1144 114.573 63.0917 114.573 63.0688C114.573 63.0459 114.569 63.0233 114.56 63.0021C114.551 62.981 114.538 62.9618 114.522 62.9456L113.42 61.8484C113.347 61.7753 113.297 61.6821 113.277 61.5806C113.256 61.4791 113.267 61.3739 113.306 61.2782C113.346 61.1826 113.413 61.1008 113.499 61.0433C113.586 60.9858 113.687 60.9551 113.791 60.9551H117.703C117.842 60.9552 117.975 61.0104 118.074 61.1085C118.172 61.2065 118.227 61.3395 118.228 61.4782V65.3792C118.228 65.4827 118.197 65.5839 118.139 65.6699C118.082 65.7559 118 65.823 117.904 65.8626C117.808 65.9022 117.703 65.9126 117.601 65.8924C117.499 65.8723 117.406 65.8224 117.332 65.7493L116.229 64.6485C116.213 64.6323 116.194 64.6195 116.173 64.6107C116.151 64.6019 116.129 64.5974 116.106 64.5974C116.083 64.5974 116.06 64.6019 116.039 64.6107C116.018 64.6195 115.998 64.6323 115.982 64.6485L111.372 69.245C111.291 69.3262 111.195 69.3905 111.089 69.4343C110.983 69.4782 110.869 69.5006 110.754 69.5002C110.639 69.5005 110.526 69.4781 110.419 69.4343C110.313 69.3904 110.217 69.326 110.136 69.2448L107.724 66.8378C107.624 66.7427 107.491 66.6896 107.353 66.6896C107.215 66.6896 107.082 66.7427 106.982 66.8378L102.976 70.8343C102.881 70.9294 102.769 71.0049 102.645 71.0562C102.52 71.1076 102.387 71.1338 102.253 71.1335Z" fill="#CCCCCC"/>
<path d="M109.725 116.896C106.942 116.896 104.221 116.073 101.907 114.53C99.5928 112.988 97.7892 110.795 96.7241 108.23C95.6591 105.664 95.3804 102.841 95.9233 100.118C96.4663 97.3945 97.8065 94.8929 99.7745 92.9295C101.742 90.966 104.25 89.6289 106.979 89.0872C109.709 88.5454 112.539 88.8235 115.11 89.8861C117.681 90.9487 119.879 92.7482 121.425 95.057C122.971 97.3657 123.797 100.08 123.797 102.857C123.792 106.579 122.308 110.148 119.67 112.78C117.032 115.412 113.456 116.892 109.725 116.896Z" fill="#E6E6E6"/>
<path d="M168.023 78.9784C165.239 78.9784 162.519 78.155 160.205 76.6123C157.891 75.0696 156.087 72.877 155.022 70.3116C153.957 67.7462 153.678 64.9233 154.221 62.1999C154.764 59.4765 156.104 56.9749 158.072 55.0115C160.04 53.048 162.548 51.7109 165.277 51.1692C168.007 50.6275 170.836 50.9055 173.408 51.9681C175.979 53.0307 178.177 54.8302 179.723 57.139C181.269 59.4478 182.094 62.1622 182.094 64.9389C182.09 68.6611 180.606 72.2297 177.968 74.8617C175.33 77.4937 171.753 78.9742 168.023 78.9784Z" fill="#E6E6E6"/>
<path d="M49.9255 88.8174C47.51 88.8205 45.1357 89.4415 43.0294 90.6212C46.0733 90.8896 48.9275 92.2108 51.0985 94.3564C53.2694 96.5021 54.6205 99.3371 54.9181 102.371C55.2158 105.406 54.4413 108.448 52.7285 110.973C51.0158 113.498 48.4725 115.346 45.5385 116.198C46.0881 116.38 46.6489 116.527 47.2173 116.636C48.1093 116.812 49.0164 116.899 49.9255 116.898C53.6577 116.898 57.2372 115.419 59.8763 112.786C62.5154 110.153 63.998 106.581 63.998 102.858C63.998 99.1339 62.5154 95.5627 59.8763 92.9297C57.2372 90.2966 53.6577 88.8174 49.9255 88.8174Z" fill="#E6E6E6"/>
<path d="M44.5871 89.8696C43.6954 89.6914 42.7881 89.6026 41.8787 89.6045C38.2605 89.6008 34.7795 90.9862 32.1573 93.4736C29.5351 95.9611 27.9727 99.3598 27.7941 102.965C27.6154 106.571 28.834 110.107 31.1975 112.84C33.561 115.574 36.888 117.295 40.4889 117.647C44.0899 118 47.6887 116.956 50.5395 114.733C53.3902 112.51 55.2743 109.278 55.8012 105.706C56.3281 102.135 55.4574 98.4979 53.3697 95.5495C51.2819 92.6012 48.1371 90.5673 44.5871 89.8696ZM45.539 116.198C43.7369 116.721 41.8432 116.851 39.986 116.581C38.1289 116.31 36.3517 115.645 34.7747 114.629C33.1978 113.614 31.8578 112.273 30.8456 110.696C29.8334 109.119 29.1725 107.344 28.9077 105.49C28.6429 103.636 28.7804 101.747 29.3108 99.9509C29.8412 98.1547 30.7522 96.4932 31.9821 95.0787C33.212 93.6643 34.7321 92.53 36.4395 91.7526C38.147 90.9752 40.0019 90.5728 41.8787 90.5727C42.2662 90.5727 42.65 90.5911 43.0299 90.6205C46.0738 90.8889 48.9281 92.2102 51.099 94.3558C53.2699 96.5014 54.621 99.3365 54.9186 102.371C55.2163 105.405 54.4418 108.448 52.729 110.973C51.0163 113.497 48.473 115.346 45.539 116.198Z" fill="#CCCCCC"/>
<path d="M50.0711 101.173C49.6059 99.139 48.3508 97.3723 46.5813 96.2607C44.8118 95.1491 42.6725 94.7835 40.633 95.2442C40.4338 95.2895 40.2275 95.3453 40.0458 95.4011L41.9264 103.646L50.1899 101.773C50.1549 101.581 50.1165 101.372 50.0711 101.173Z" fill="#CCCCCC"/>
<path d="M49.2727 103.22L41.0057 105.093L39.1286 96.8486C37.6872 97.2936 36.4039 98.1415 35.4309 99.292C34.4579 100.442 33.8359 101.847 33.6387 103.34C33.4415 104.832 33.6774 106.35 34.3184 107.712C34.9594 109.075 35.9786 110.226 37.2551 111.028C38.5317 111.831 40.0121 112.251 41.5209 112.239C43.0296 112.228 44.5034 111.785 45.7675 110.963C47.0317 110.141 48.0331 108.975 48.6531 107.603C49.2731 106.231 49.4857 104.71 49.2657 103.22H49.2727Z" fill="#CCCCCC"/>
<path d="M173.061 109.534H162.73C162.436 109.534 162.155 109.418 161.947 109.21C161.739 109.003 161.623 108.722 161.623 108.43C161.623 108.137 161.739 107.856 161.947 107.649C162.155 107.442 162.436 107.325 162.73 107.325H173.061C173.354 107.325 173.636 107.442 173.844 107.649C174.051 107.856 174.168 108.137 174.168 108.43C174.168 108.722 174.051 109.003 173.844 109.21C173.636 109.418 173.354 109.534 173.061 109.534Z" fill="#CCCCCC"/>
<path d="M173.061 104.749H162.73C162.436 104.749 162.155 104.632 161.947 104.425C161.739 104.218 161.623 103.937 161.623 103.644C161.623 103.352 161.739 103.071 161.947 102.864C162.155 102.656 162.436 102.54 162.73 102.54H173.061C173.354 102.54 173.636 102.656 173.844 102.864C174.051 103.071 174.168 103.352 174.168 103.644C174.168 103.937 174.051 104.218 173.844 104.425C173.636 104.632 173.354 104.749 173.061 104.749Z" fill="#CCCCCC"/>
<path d="M173.061 99.9636H162.73C162.436 99.9636 162.155 99.8473 161.947 99.6402C161.739 99.4331 161.623 99.1522 161.623 98.8593C161.623 98.5664 161.739 98.2855 161.947 98.0784C162.155 97.8712 162.436 97.7549 162.73 97.7549H173.061C173.354 97.7549 173.636 97.8712 173.844 98.0784C174.051 98.2855 174.168 98.5664 174.168 98.8593C174.168 99.1522 174.051 99.4331 173.844 99.6402C173.636 99.8473 173.354 99.9636 173.061 99.9636Z" fill="#CCCCCC"/>
</svg>
