<?xml version="1.0" encoding="UTF-8"?><svg id="Layer_1" xmlns="http://www.w3.org/2000/svg" viewBox="0 0 500 500"><defs><style>.cls-1,.cls-2,.cls-3{fill:none;stroke-linecap:round;stroke-linejoin:round;}.cls-1,.cls-3{stroke:#182c60;}.cls-4{fill:#5865f6;opacity:.1;}.cls-5{fill:#f2f3f4;}.cls-6{fill:#c1c7c9;}.cls-7{fill:#dadedf;}.cls-8{fill:#182c60;}.cls-2{stroke:#5865f6;stroke-width:4px;}.cls-3{stroke-dasharray:0 2.5;}</style></defs><g><line class="cls-1" x1="148.73" y1="244.63" x2="169.56" y2="244.63"/><line class="cls-2" x1="145.08" y1="236.69" x2="173.22" y2="236.69"/></g><g><line class="cls-1" x1="197.92" y1="244.63" x2="218.75" y2="244.63"/><line class="cls-2" x1="194.26" y1="236.69" x2="222.4" y2="236.69"/></g><g><line class="cls-1" x1="148.73" y1="304.62" x2="169.56" y2="304.62"/><line class="cls-2" x1="145.08" y1="296.68" x2="173.22" y2="296.68"/></g><g><line class="cls-1" x1="197.92" y1="304.62" x2="218.75" y2="304.62"/><line class="cls-2" x1="194.26" y1="296.68" x2="222.4" y2="296.68"/></g><path class="cls-1" d="m289.43,270.07c-3.68,0-7.36,0-11.04,0-5.65,0-10.25-2.2-13.5-6.82-3.2-4.54-3.89-9.53-1.86-14.77,1.82-4.7,5.14-7.89,9.96-9.46.54-.18.7-.43.68-.98-.11-3.91.53-7.67,2.36-11.16,2.93-5.57,7.43-9.22,13.52-10.87,4.87-1.32,9.66-.98,14.28,1.03,4.96,2.15,8.93,5.48,11.67,10.2.21.35.42.7.66,1.09.89-.48,1.64-1.01,2.48-1.32,3.3-1.23,6.44-.78,9.27,1.27,2.92,2.11,4.34,5.03,4.29,8.66-.02,1.09,0,1.07,1.13,1.1,2.04.06,4.12-.06,6.11.28,6.4,1.09,10.73,4.77,12.59,11.03,2.02,6.83-.37,13.6-6.11,17.77-2.48,1.8-5.29,2.85-8.36,2.89-4.13.05-8.26.06-12.39.06"/><path class="cls-3" d="m292.53,200.36v-21.03h-135.06v10.81"/><path class="cls-3" d="m292.53,299.64v21.03h-135.06v-10.81"/><line class="cls-3" x1="230.87" y1="208.74" x2="256.56" y2="208.74"/><line class="cls-3" x1="230.87" y1="270.81" x2="256.56" y2="270.81"/><path class="cls-8" d="m164.56,195.3c2.99,0,5.43,2.44,5.43,5.43v15.85c0,2.99-2.44,5.43-5.43,5.43h-15.85c-2.99,0-5.43-2.44-5.43-5.43v-15.85c0-2.99,2.44-5.43,5.43-5.43h15.85m0-1h-15.85c-3.55,0-6.43,2.88-6.43,6.43v15.85c0,3.55,2.88,6.43,6.43,6.43h15.85c3.55,0,6.43-2.88,6.43-6.43v-15.85c0-3.55-2.88-6.43-6.43-6.43h0Z"/><path class="cls-1" d="m170.72,199.41c3,.54,5.27,3.17,5.27,6.32v15.85c0,3.55-2.88,6.43-6.43,6.43h-15.85c-3.21,0-5.87-2.35-6.35-5.43"/><path class="cls-8" d="m170.15,199.5l.35,4.45s.14,10.45.07,11.29-.49,3.6-.49,3.6l-.99,1.69-1.69,1.34-1.84.49-11.51.14-6.49-.14v1.2l.78,1.91,1.48,1.34,2.68,1.2,18.21-.14,2.68-.85,1.69-2.05.92-2.4-.07-17.72-.99-2.82-1.98-1.91-1.76-.78-1.06.14Z"/><path class="cls-8" d="m164.56,254.96c2.99,0,5.43,2.44,5.43,5.43v15.85c0,2.99-2.44,5.43-5.43,5.43h-15.85c-2.99,0-5.43-2.44-5.43-5.43v-15.85c0-2.99,2.44-5.43,5.43-5.43h15.85m0-1h-15.85c-3.55,0-6.43,2.88-6.43,6.43v15.85c0,3.55,2.88,6.43,6.43,6.43h15.85c3.55,0,6.43-2.88,6.43-6.43v-15.85c0-3.55-2.88-6.43-6.43-6.43h0Z"/><path class="cls-1" d="m170.72,259.06c3,.54,5.27,3.17,5.27,6.32v15.85c0,3.55-2.88,6.43-6.43,6.43h-15.85c-3.21,0-5.87-2.35-6.35-5.43"/><path class="cls-8" d="m170.15,259.15l.35,4.45s.14,10.45.07,11.29-.49,3.6-.49,3.6l-.99,1.69-1.69,1.34-1.84.49-11.51.14-6.49-.14v1.2l.78,1.91,1.48,1.34,2.68,1.2,18.21-.14,2.68-.85,1.69-2.05.92-2.4-.07-17.72-.99-2.82-1.98-1.91-1.76-.78-1.06.14Z"/><path class="cls-8" d="m213.75,254.96c2.99,0,5.43,2.44,5.43,5.43v15.85c0,2.99-2.44,5.43-5.43,5.43h-15.85c-2.99,0-5.43-2.44-5.43-5.43v-15.85c0-2.99,2.44-5.43,5.43-5.43h15.85m0-1h-15.85c-3.55,0-6.43,2.88-6.43,6.43v15.85c0,3.55,2.88,6.43,6.43,6.43h15.85c3.55,0,6.43-2.88,6.43-6.43v-15.85c0-3.55-2.88-6.43-6.43-6.43h0Z"/><path class="cls-1" d="m219.91,259.06c3,.54,5.27,3.17,5.27,6.32v15.85c0,3.55-2.88,6.43-6.43,6.43h-15.85c-3.21,0-5.87-2.35-6.35-5.43"/><path class="cls-8" d="m219.34,259.15l.35,4.45s.14,10.45.07,11.29-.49,3.6-.49,3.6l-.99,1.69-1.69,1.34-1.84.49-11.51.14-6.49-.14v1.2l.78,1.91,1.48,1.34,2.68,1.2,18.21-.14,2.68-.85,1.69-2.05.92-2.4-.07-17.72-.99-2.82-1.98-1.91-1.76-.78-1.06.14Z"/><path class="cls-8" d="m213.75,195.3c2.99,0,5.43,2.44,5.43,5.43v15.85c0,2.99-2.44,5.43-5.43,5.43h-15.85c-2.99,0-5.43-2.44-5.43-5.43v-15.85c0-2.99,2.44-5.43,5.43-5.43h15.85m0-1h-15.85c-3.55,0-6.43,2.88-6.43,6.43v15.85c0,3.55,2.88,6.43,6.43,6.43h15.85c3.55,0,6.43-2.88,6.43-6.43v-15.85c0-3.55-2.88-6.43-6.43-6.43h0Z"/><path class="cls-1" d="m219.91,199.41c3,.54,5.27,3.17,5.27,6.32v15.85c0,3.55-2.88,6.43-6.43,6.43h-15.85c-3.21,0-5.87-2.35-6.35-5.43"/><path class="cls-8" d="m219.34,199.5l.35,4.45s.14,10.45.07,11.29-.49,3.6-.49,3.6l-.99,1.69-1.69,1.34-1.84.49-11.51.14-6.49-.14v1.2l.78,1.91,1.48,1.34,2.68,1.2,18.21-.14,2.68-.85,1.69-2.05.92-2.4-.07-17.72-.99-2.82-1.98-1.91-1.76-.78-1.06.14Z"/><path class="cls-1" d="m298.04,215.35c3.66-.39,7.26.17,10.77,1.69,4.72,2.05,8.55,5.16,11.27,9.52"/><path class="cls-1" d="m324.78,226.65c2.87-.74,5.61-.18,8.11,1.63,2.9,2.09,4.34,6.11,4.32,9.69"/><path class="cls-1" d="m338.62,238.21c4.07-.44,8.72.24,12.21,2.49,3.1,2,5.14,5.15,6.18,8.65,2.02,6.83-.37,13.6-6.11,17.77-3.16,2.29-6.93,3.29-10.8,2.68"/><circle class="cls-1" cx="259.11" cy="208.74" r="2.26"/><circle class="cls-1" cx="292.52" cy="203.01" r="2.26"/><circle class="cls-1" cx="292.52" cy="297.31" r="2.26"/><circle class="cls-1" cx="259.11" cy="270.81" r="2.26"/><circle class="cls-4" cx="259.11" cy="270.81" r="2.26"/><circle class="cls-4" cx="259.11" cy="208.74" r="2.26"/><circle class="cls-4" cx="292.52" cy="203.01" r="2.26"/><circle class="cls-4" cx="292.52" cy="297.31" r="2.26"/><path class="cls-8" d="m300.57,215.92l3.86,1.36,3.81,2.12,3.25,2.68,2.07,2.49,2.49,3.86,1.69-.99,2.26-.94-2.45-3.67s-3.58-3.01-3.95-3.2-4.33-2.4-4.33-2.4l-3.91-1.55-3.62-.33-1.18.56Z"/><polygon class="cls-8" points="324.92 226.75 327.75 228.09 329.44 229.57 331.14 231.76 331.77 233.6 332.2 238.04 337.07 238.11 336.92 235.43 336.22 232.25 335.09 230.56 333.04 228.37 330.29 226.82 327.25 226.4 324.92 226.75"/><polygon class="cls-8" points="341.47 238.37 344.29 239.88 346.74 241.29 349 243.27 350.97 246.65 352.29 250.04 352.76 253.9 352.29 257.67 351.72 259.74 350.03 262.75 348.24 265.1 346.36 266.61 344.1 268.21 341.28 269.43 344.2 269.81 346.92 269.34 349.37 268.3 351.44 266.98 353.51 265.01 355.02 263.22 356.62 260.02 357.56 257.2 357.56 253.15 357.28 250.7 356.62 248.35 355.3 244.96 353.42 242.61 351.25 240.91 348.24 239.22 345.51 238.37 341.47 238.37"/><rect class="cls-4" x="289.17" y="253.43" width="36.26" height="9.61" rx="3.21" ry="3.21"/><rect class="cls-4" x="289.17" y="264.85" width="36.26" height="9.61" rx="3.21" ry="3.21"/><rect class="cls-4" x="289.17" y="276.27" width="36.26" height="9.61" rx="3.21" ry="3.21"/><path class="cls-8" d="m322.21,254.43c1.22,0,2.21.99,2.21,2.21v3.18c0,1.22-.99,2.21-2.21,2.21h-29.83c-1.22,0-2.21-.99-2.21-2.21v-3.18c0-1.22.99-2.21,2.21-2.21h29.83m0-1h-29.83c-1.78,0-3.21,1.44-3.21,3.21v3.18c0,1.78,1.44,3.21,3.21,3.21h29.83c1.78,0,3.21-1.44,3.21-3.21v-3.18c0-1.78-1.44-3.21-3.21-3.21h0Z"/><g><line class="cls-1" x1="297.26" y1="258.12" x2="309.99" y2="258.12"/><circle class="cls-1" cx="315.86" cy="258.24" r="1.47"/></g><g><path class="cls-8" d="m322.21,265.85c1.22,0,2.21.99,2.21,2.21v3.18c0,1.22-.99,2.21-2.21,2.21h-29.83c-1.22,0-2.21-.99-2.21-2.21v-3.18c0-1.22.99-2.21,2.21-2.21h29.83m0-1h-29.83c-1.78,0-3.21,1.44-3.21,3.21v3.18c0,1.78,1.44,3.21,3.21,3.21h29.83c1.78,0,3.21-1.44,3.21-3.21v-3.18c0-1.78-1.44-3.21-3.21-3.21h0Z"/><g><line class="cls-1" x1="297.26" y1="269.54" x2="309.99" y2="269.54"/><circle class="cls-1" cx="315.86" cy="269.66" r="1.47"/></g></g><g><path class="cls-8" d="m322.21,277.27c1.22,0,2.21.99,2.21,2.21v3.18c0,1.22-.99,2.21-2.21,2.21h-29.83c-1.22,0-2.21-.99-2.21-2.21v-3.18c0-1.22.99-2.21,2.21-2.21h29.83m0-1h-29.83c-1.78,0-3.21,1.44-3.21,3.21v3.18c0,1.78,1.44,3.21,3.21,3.21h29.83c1.78,0,3.21-1.44,3.21-3.21v-3.18c0-1.78-1.44-3.21-3.21-3.21h0Z"/><g><line class="cls-1" x1="297.26" y1="280.96" x2="309.99" y2="280.96"/><circle class="cls-1" cx="315.86" cy="281.07" r="1.47"/></g></g><rect class="cls-5" x="149.08" y="203.34" width="5.3" height="5.3"/><rect class="cls-6" x="157.8" y="202.25" width="5.3" height="5.3" transform="translate(191.88 -53.44) rotate(45)"/><rect class="cls-7" x="149.08" y="210.87" width="5.3" height="5.3"/><rect class="cls-6" x="156.7" y="210.87" width="5.3" height="5.3"/><rect class="cls-5" x="198.26" y="203.34" width="5.3" height="5.3"/><rect class="cls-6" x="206.99" y="202.25" width="5.3" height="5.3" transform="translate(206.29 -88.22) rotate(45)"/><rect class="cls-7" x="198.26" y="210.87" width="5.3" height="5.3"/><rect class="cls-6" x="205.89" y="210.87" width="5.3" height="5.3"/><rect class="cls-5" x="198.26" y="263" width="5.3" height="5.3"/><rect class="cls-6" x="206.99" y="261.9" width="5.3" height="5.3" transform="translate(248.47 -70.75) rotate(45)"/><rect class="cls-7" x="198.26" y="270.52" width="5.3" height="5.3"/><rect class="cls-6" x="205.89" y="270.52" width="5.3" height="5.3"/><rect class="cls-5" x="149.08" y="263" width="5.3" height="5.3"/><rect class="cls-6" x="157.8" y="261.9" width="5.3" height="5.3" transform="translate(234.06 -35.97) rotate(45)"/><rect class="cls-7" x="149.08" y="270.52" width="5.3" height="5.3"/><rect class="cls-6" x="156.7" y="270.52" width="5.3" height="5.3"/></svg>