<?xml version="1.0" encoding="UTF-8"?><svg id="Layer_1" xmlns="http://www.w3.org/2000/svg" viewBox="0 0 500 500"><defs><style>.cls-1,.cls-2{fill:none;stroke:#182c60;stroke-linecap:round;stroke-linejoin:round;}.cls-3{opacity:.1;}.cls-3,.cls-4{fill:#5865f6;}.cls-5{fill:#f2f3f4;}.cls-6{fill:#a0a4a5;}.cls-7{fill:#c1c7c9;}.cls-8{fill:#182c60;}.cls-2{stroke-dasharray:0 0 2.54 2.54;}</style></defs><path class="cls-1" d="m284.29,200.56c11.2,4.25,21.13,11.81,27.23,22.05,3.34,5.61,5.53,12.35,3.89,18.67-1.31,5.05-4.95,9.27-9.3,12.14-4.35,2.87-9.39,4.52-14.45,5.79-5.23,1.31-11.02,2.53-14.32,6.79-3.05,3.94-3.07,9.42-2.26,14.33s2.32,9.82,1.84,14.77c-.8,8.22-7.07,15.09-14.4,18.88-7.34,3.79-15.68,5.03-24.86,5.74-12.09-.24-24.55-1.77-34.99-7.86-13.2-7.7-21.75-22.31-23.33-37.51s3.41-30.73,12.46-43.05c9.04-12.32,21.92-21.54,35.98-27.52,13.86-5.9,29.27-8.77,44.14-6.48"/><circle class="cls-7" cx="217.26" cy="228.14" r="7.87"/><circle class="cls-5" cx="247.99" cy="213.12" r="7.87"/><circle class="cls-5" cx="293.9" cy="225.74" r="7.87"/><path class="cls-1" d="m267.65,253.5c.58,1.71.89,3.54.89,5.45,0,9.39-7.61,17-17,17s-17-7.61-17-17,7.61-17,17-17c.46,0,.93.02,1.38.06"/><path class="cls-1" d="m242.12,272.95c-1.63-2.61-2.58-5.7-2.58-9.01,0-7.57,4.56-14.12,11.4-16.31"/><circle class="cls-6" cx="199.27" cy="256.24" r="7.87"/><circle class="cls-5" cx="231.89" cy="302.37" r="7.87"/><path class="cls-1" d="m262.82,215.82c-1.47,1.74-2.24,3.95-2.97,6.11-4.06,12.07-13.65,39.02-16.95,51.32"/><path class="cls-8" d="m252.8,241.92c-.64,2.01-1.28,4.04-1.91,6.06l-1.4.51-2.73,1.6-2.45,1.89-1.6,2.07-1.22,2.26-1.41,2.63-.47,3.48v3.01l.37,2.64.94,2.45.66,1.88s-3.1-1.51-4.42-4.14c-1.32-2.64-2.45-6.12-2.45-6.12l-.19-4.52.76-4.51,2.63-4.33,3.58-3.49,3.29-1.88,2.64-1.03,2.73-.38,2.65-.08Z"/><path class="cls-1" d="m279.03,222.04c.36,1.93-.41,3.87-1.17,5.68-3.67,8.73-14.82,37.86-18.79,46.46"/><path class="cls-1" d="m264.04,213.31c4.99,2.63,10.19,4.41,15.73,5.48"/><path class="cls-1" d="m265.37,210.63c4.73,2.63,9.75,4.37,15.1,5.21"/><path class="cls-1" d="m224.89,323.49c-.51,1.92-.94,3.85-1.27,5.81-.17,1-.31,2.06.11,2.98.66,1.42,2.61,1.94,4.04,1.3,1.55-.69,2.42-2.32,3.17-3.85,1.41-2.85,2.82-5.71,4.23-8.56"/><path class="cls-1" d="m305.58,214.67c4.66,3.71,7.88,7.81,10.94,12.94,3.34,5.61,5.53,12.35,3.89,18.67-1.31,5.05-4.95,9.27-9.3,12.14-4.35,2.87-9.39,4.52-14.45,5.79-5.23,1.31-11.02,2.53-14.32,6.79-3.05,3.94-3.07,9.42-2.26,14.33s2.32,9.82,1.84,14.77c-.8,8.22-7.07,15.09-14.4,18.88-17.33,8.95-43.11,7.65-59.86-2.12-4.6-2.68-8.73-6.1-12.1-10.19"/><path class="cls-8" d="m199.56,309.89s6.99,3.95,10.66,5.36,8.89,2.61,8.89,2.61c0,0,8.19,1.55,12.14,1.69,3.95.14,4.8.28,10.16-.28,5.36-.56,6-.56,10.09-1.48,4.09-.92,7.41-1.91,9.46-2.96s5.72-3.18,7.2-4.52,3.95-3.25,5.22-5.58,1.41-2.26,2.33-5.01c.92-2.75,1.55-4.8,1.41-6.28s-.16-5.04-.78-7.06-1.18-4.8-1.46-8.05c-.28-3.25-.19-6.73.47-8.38s2.12-5.27,4.47-6.54,6.78-3.29,8.52-3.53,4.99-1.18,6.87-1.74,5.55-1.88,5.55-1.88l3.53-1.74,3.44-2.35,2.73-2.35,1.98-2.4,1.46-1.98,1.36-3.48.66-3.44-.09-3.67-.42-3.2-1.36-4.47-1.79-3.2-3.72-5.88,2.54,1.65,4.24,5.88,2.12,3.44,1.46,3.53,1.08,2.4.8,4.33.14,3.48-.42,3.11-.8,2.73-1.65,2.96-2.26,2.92-3.11,2.82-3.44,2.12-2.21,1.32-2.49.94-2.92,1.04-3.76,1.13-2.54.61-3.62.99-3.44,1.22-1.69.71-1.51.89-1.69,1.69-1.27,1.22-1.36,2.68-.89,3.58-.19,2.45.05,3.15.71,3.53.61,3.34.8,4.42s.61,3.72.14,5.98-1.6,6.59-3.58,9.22-4.24,4.89-4.24,4.89l-3.01,2.35s-3.39,2.26-5.65,3.2-8.56,3.2-11.67,3.58-6.87,1.04-9.51,1.13-6.12-.09-10.16-.47-10.64-1.41-10.64-1.41l-4.8-1.22-4.8-1.6-4.33-1.98-6.12-3.95-3.29-2.64-.61-1.58Z"/><path class="cls-4" d="m276.28,191.84c-1.16-2.52-1.65-4.93-1.69-7.71s.66-5.59,2.21-7.89c1.57-2.32,3.92-3.99,6.3-5.46,2.39-1.47,4.88-2.8,7.31-4.62.62,5.38,3.83,10.36,3.58,15.77-.13,2.75-1.17,5.43-2.82,7.64-1.64,2.21-3.87,3.96-6.33,5.18"/><path class="cls-1" d="m275.48,191.75c3.22,1.08,6.43,2.16,9.73,3.44-1.85,8.98-3.9,17.92-6.18,26.91-5.84-.69-11.51-2.76-16.26-6.05,3.76-8.13,7.91-16.08,12.71-24.3Z"/><circle class="cls-7" cx="204.14" cy="288.12" r="7.87"/><rect class="cls-2" x="293.55" y="275.33" width="19.2" height="19.2" rx="3.21" ry="3.21"/><rect class="cls-3" x="293.55" y="275.33" width="19.2" height="19.2" rx="3.21" ry="3.21"/><g><line class="cls-1" x1="303.15" y1="282.25" x2="303.15" y2="287.61"/><line class="cls-1" x1="300.46" y1="284.93" x2="305.83" y2="284.93"/></g></svg>