<?xml version="1.0" encoding="UTF-8"?><svg id="Layer_1" xmlns="http://www.w3.org/2000/svg" viewBox="0 0 500 500"><defs><style>.cls-1{stroke:#182c60;}.cls-1,.cls-2{fill:none;stroke-linecap:round;stroke-linejoin:round;}.cls-3{fill:#5865f6;opacity:.1;}.cls-4{fill:#f2f3f4;}.cls-5{fill:#c1c7c9;}.cls-6{fill:#dadedf;}.cls-7{fill:#182c60;}.cls-2{stroke:#5865f6;stroke-width:4px;}</style></defs><path class="cls-7" d="m149.49,299.7s.56,1.69.92,2.19,1.13,1.27,1.69,1.62,1.84.92,2.33.92,44.19-.07,44.19-.07l.14-4.52-49.27-.14Z"/><path class="cls-7" d="m235.07,195.55v27.25h5.27l-.14-17.55s.19-3.76-.09-4.38-.8-2.4-.8-2.4l-1.6-1.69-1.41-.99-1.22-.24Z"/><path class="cls-3" d="m259.81,179.49v-10.09c0-3.55,2.88-6.43,6.43-6.43h77.85c3.55,0,6.43,2.88,6.43,6.43v9.9l-90.7.19Z"/><path class="cls-3" d="m198.26,238.78v-10.09c0-3.55,2.88-6.43,6.43-6.43h77.85c3.55,0,6.43,2.88,6.43,6.43v9.9l-90.7.19Z"/><path class="cls-3" d="m144.42,206.66v-10.09c0-3.55,2.88-6.43,6.43-6.43h77.85c3.55,0,6.43,2.88,6.43,6.43v9.9l-90.7.19Z"/><line class="cls-1" x1="145.06" y1="207.01" x2="234.9" y2="207.01"/><circle class="cls-1" cx="153.27" cy="198.82" r="2.02"/><circle class="cls-1" cx="161.71" cy="198.82" r="2.02"/><circle class="cls-1" cx="170.16" cy="198.82" r="2.02"/><path class="cls-1" d="m198.55,299.82h-47.7c-3.55,0-6.43-2.88-6.43-6.43v-96.82c0-3.55,2.88-6.43,6.43-6.43h77.85c3.55,0,6.43,2.88,6.43,6.43v26.19"/><line class="cls-1" x1="198.9" y1="239.13" x2="288.05" y2="239.13"/><circle class="cls-1" cx="207.11" cy="230.94" r="2.02"/><circle class="cls-1" cx="215.56" cy="230.94" r="2.02"/><circle class="cls-1" cx="224" cy="230.94" r="2.02"/><path class="cls-7" d="m282.54,223.26c2.99,0,5.43,2.44,5.43,5.43v96.82c0,2.99-2.44,5.43-5.43,5.43h-77.85c-2.99,0-5.43-2.44-5.43-5.43v-96.82c0-2.99,2.44-5.43,5.43-5.43h77.85m0-1h-77.85c-3.55,0-6.43,2.88-6.43,6.43v96.82c0,3.55,2.88,6.43,6.43,6.43h77.85c3.55,0,6.43-2.88,6.43-6.43v-96.82c0-3.55-2.88-6.43-6.43-6.43h0Z"/><line class="cls-1" x1="260.45" y1="179.84" x2="350.45" y2="179.84"/><circle class="cls-1" cx="268.66" cy="171.65" r="2.02"/><circle class="cls-1" cx="277.11" cy="171.65" r="2.02"/><circle class="cls-1" cx="285.55" cy="171.65" r="2.02"/><path class="cls-1" d="m259.81,222.75v-53.36c0-3.55,2.88-6.43,6.43-6.43h77.85c3.55,0,6.43,2.88,6.43,6.43v96.82c0,3.55-2.88,6.43-6.43,6.43h-49.96"/><path class="cls-1" d="m350.67,168.16c2.79.7,4.85,3.23,4.85,6.23v96.82c0,3.55-2.88,6.43-6.43,6.43h-55.25"/><path class="cls-1" d="m288.33,227.31c3.17.39,5.63,3.1,5.63,6.38v96.82c0,3.55-2.88,6.43-6.43,6.43h-77.85c-3.16,0-5.79-2.28-6.33-5.29"/><path class="cls-1" d="m198.69,304.4h-43.4c-2.68,0-4.94-1.8-5.63-4.26"/><path class="cls-1" d="m235.25,195.33c2.8.69,4.88,3.22,4.88,6.24v21.19"/><path class="cls-6" d="m266.3,293.69c0,12.33-9.99,22.32-22.32,22.32s-22.32-9.99-22.32-22.32,9.99-22.32,22.32-22.32c.16,0,.3,0,.46,0v21.85h21.85c0,.16,0,.3,0,.46Z"/><path class="cls-5" d="m268.8,290.52v.11h-21.85v-21.85h.11c.28,0,.55.02.83.04.18,0,.37.02.54.05.2,0,.41.04.61.06.08,0,.17,0,.27.03.31.04.63.08.94.14.36.06.7.13,1.05.2.02,0,.05,0,.06,0,.32.07.64.16.97.24.06.02.13.04.2.06.26.07.51.15.76.23.11.03.21.06.31.1.27.09.53.18.8.29.33.12.65.26.98.4.34.15.68.3,1.01.47.3.15.59.3.88.46.3.17.61.35.9.53.3.18.6.38.88.57.56.39,1.11.79,1.63,1.22,1.35,1.13,2.58,2.4,3.64,3.81.11.14.21.28.31.42.12.17.24.34.36.52.17.26.34.52.51.79.16.24.29.48.43.73.38.67.72,1.36,1.03,2.07.14.32.28.65.4.99.1.25.18.5.27.76.05.11.08.23.12.35.1.3.19.62.28.93.08.3.16.61.23.92,0,.06.03.12.04.17.07.34.14.67.19,1.01.06.33.11.66.15.99,0,.06.02.11.02.17.03.22.06.44.06.66.03.17.04.35.05.52.02.28.03.55.04.83Z"/><circle class="cls-4" cx="335.86" cy="223.22" r="2.31"/><circle class="cls-4" cx="331.35" cy="240.35" r="2.31"/><circle class="cls-4" cx="329.09" cy="210.42" r="2.31"/><circle class="cls-5" cx="300.48" cy="232.74" r="2.82"/><circle class="cls-5" cx="315.54" cy="224.35" r="8.46"/><circle class="cls-6" cx="295.98" cy="212.12" r="6.42"/><circle class="cls-6" cx="319.06" cy="246" r="3.82"/><g><polygon class="cls-4" points="177.28 269.04 193.86 269.04 185.57 281.22 177.28 269.04"/><polygon class="cls-6" points="198.25 252.69 198.25 261.49 194.29 267.3 176.85 267.3 166.9 252.69 198.25 252.69"/><polygon class="cls-5" points="198.25 238.98 198.25 251.15 166.47 251.15 158.18 238.98 198.25 238.98"/></g><path class="cls-7" d="m203.35,331.39s.21,1.2.71,2.19,1.48,1.98,2.05,2.33,1.62,1.06,3.67,1.06,78.28.07,78.28.07c0,0,2.82-.85,3.6-1.55s1.76-1.69,1.91-2.33.71-2.89.56-4.09-.14-33.81-.14-33.81c0,0,.35-61.27.07-61.91s-.56-2.75-1.27-3.46-2.19-2.05-2.47-2.12-1.84-.42-1.84-.42v97.98s.07,1.55-.42,2.4-1.55,2.54-2.68,3.11-4.59.49-4.59.49l-77.44.07Z"/><path class="cls-7" d="m350.59,168.17s1.65.56,2.31,1.08,1.32,1.27,1.74,1.93.94,2.12.94,3.53-.05,17.51-.05,17.51v70.21l.05,5.79-.14,3.95-.52,1.74s-.61,1.22-1.69,2.12-2.16,1.46-3.15,1.55-56.28.09-56.28.09v-4.99h48.66s1.55.05,2.54-.19,1.88-.33,2.49-.8,1.79-1.51,2.31-2.49.94-4.66.8-6.68-.14-5.88-.14-5.88l.14-9.88-.05-16.09-.05-20.99-.14-16.85.19-20.14.05-4.52Z"/><g><line class="cls-1" x1="151.25" y1="224.79" x2="175.29" y2="224.79"/><line class="cls-2" x1="151.25" y1="217.51" x2="183.72" y2="217.51"/></g><g><line class="cls-1" x1="205.09" y1="256.97" x2="229.13" y2="256.97"/><line class="cls-2" x1="205.09" y1="249.69" x2="237.57" y2="249.69"/></g><g><line class="cls-1" x1="266.65" y1="197.68" x2="290.68" y2="197.68"/><line class="cls-2" x1="266.65" y1="190.4" x2="299.12" y2="190.4"/></g></svg>