<?xml version="1.0" encoding="UTF-8"?><svg id="Layer_1" xmlns="http://www.w3.org/2000/svg" viewBox="0 0 500 500"><defs><style>.cls-1{stroke:#182c60;}.cls-1,.cls-2{fill:none;stroke-linecap:round;stroke-linejoin:round;}.cls-3{fill:#5865f6;opacity:.1;}.cls-4{fill:#f2f3f4;}.cls-5{fill:#dadedf;}.cls-6{fill:#182c60;}.cls-2{stroke:#5865f6;stroke-width:4px;}</style></defs><line class="cls-2" x1="207.83" y1="198.44" x2="246.25" y2="198.44"/><path class="cls-1" d="m235.5,269.53c-12.83,0-25.66,0-38.48,0-9.62,0-17.44-3.75-22.98-11.6-5.45-7.73-6.61-16.22-3.17-25.12,3.09-8,8.75-13.42,16.94-16.09.91-.3,1.18-.73,1.16-1.67-.19-6.65.9-13.05,4.02-18.98,4.99-9.47,12.64-15.69,23-18.49,8.3-2.24,16.43-1.67,24.3,1.75,8.44,3.66,15.2,9.32,19.87,17.34.35.6.72,1.19,1.12,1.86,1.52-.82,2.8-1.71,4.22-2.24,5.62-2.09,10.95-1.33,15.78,2.15,4.97,3.59,7.39,8.56,7.3,14.73-.03,1.86,0,1.82,1.92,1.87,3.47.11,7.01-.11,10.4.47,10.9,1.86,18.27,8.11,21.42,18.77,3.44,11.62-.63,23.14-10.39,30.22-4.23,3.07-9,4.85-14.23,4.91-11.18.14-22.37.09-33.56.1-2.25,0-4.5,0-6.75,0"/><path class="cls-1" d="m229.08,176.41c6.36-.75,12.65.27,18.74,2.92,8.02,3.48,14.75,8.81,19.38,16.21"/><path class="cls-1" d="m275.17,195.54c4.66-1.01,9.56-.03,13.63,2.91,2.33,1.68,4.3,3.85,5.57,6.44,1.39,2.83,1.67,5.77,1.73,8.87,0,.58.03.61.04,1.19"/><path class="cls-1" d="m299.45,215.3c3.71-.09,6.38-.31,10.07.43,1.41.28,2.8.64,4.16,1.11,3.08,1.07,5.98,2.68,8.43,4.83.17.15.34.3.51.46,3.52,3.27,5.87,7.58,7.22,12.16,3.44,11.62-.63,23.14-10.39,30.22-2.64,1.92-5.63,3.39-8.8,4.2-1.75.44-3.56.64-5.36.62-.92-.01-2.45-.18-3.37-.3-.04,0,.53.08.48.07"/><path class="cls-6" d="m231.83,176.95s8.99,2.68,10.96,3.81,7.34,4.75,8.85,6.07,6.88,7.21,7.44,8.15,2.25,3.94,2.25,3.94c0,0,2.07-2,3.39-2.33s2.41-.82,2.41-.82c0,0-3.2-5.04-4.52-6.21s-3.62-3.48-5.55-4.89-5.65-3.95-7.81-4.8-6.21-2.31-6.21-2.31l-6.4-1.27-4.81.65Z"/><path class="cls-6" d="m276.11,196.24s3.64,1.41,5.22,2.54,4.49,4.52,5.13,6.21,1.41,3.65,1.69,5.55.42,4.19.42,4.19l7.62.21s-.02-4.44-.44-6.34-1.55-4.59-2.75-6.14-4.02-3.81-5.44-4.8-3.53-1.84-5.01-2.12-5.14-.06-5.14-.06l-1.32.75Z"/><path class="cls-6" d="m301.24,215.77s4.89,1.18,7.48,2.49,6.5,3.4,8.62,6.31,3.67,5.46,4.56,8.52,1.59,7.9,1.26,10.72-.89,6.46-1.74,8.62-2.03,3.8-3.21,5.26-2.92,3.58-4.47,4.8-3.01,2.64-4.33,3.34-7.91,3.15-7.91,3.15c0,0,1.22.38,2.49.52s2.26.06,3.77-.13,4.56-1.18,4.56-1.18l3.86-1.74,2.78-1.41,2.68-2.16,2.12-2.21,1.51-1.55,2.21-3.58,2.02-4.19.89-3.01.61-4.33.05-2.87-.28-3.25-.56-2.64-.89-3.11-1.88-3.44-1.88-3.2-2.45-3.11-2.87-2.4-3.06-1.74-3.91-1.6-3.95-1.08-2.96-.28-2.97-.28-2.17.74Z"/><line class="cls-1" x1="211.77" y1="279.5" x2="211.77" y2="311.97"/><circle class="cls-1" cx="211.77" cy="317.9" r="5.93"/><line class="cls-1" x1="229" y1="279.5" x2="229" y2="297.01"/><circle class="cls-1" cx="229" cy="302.94" r="5.93"/><path class="cls-1" d="m246.22,287.11v24.86"/><circle class="cls-1" cx="246.22" cy="317.9" r="5.93"/><line class="cls-1" x1="263.44" y1="279.5" x2="263.44" y2="297.01"/><circle class="cls-1" cx="263.44" cy="302.94" r="5.93"/><line class="cls-1" x1="280.67" y1="279.5" x2="280.67" y2="311.97"/><circle class="cls-1" cx="280.67" cy="317.9" r="5.93"/><circle class="cls-3" cx="211.77" cy="317.9" r="5.93"/><circle class="cls-3" cx="229" cy="302.94" r="5.93"/><circle class="cls-3" cx="246.22" cy="317.9" r="5.93"/><circle class="cls-3" cx="263.44" cy="302.94" r="5.93"/><circle class="cls-3" cx="280.67" cy="317.9" r="5.93"/><g><path class="cls-6" d="m245.06,214.93c.41,0,.83.02,1.25.05,6.37.5,11.65,5.14,12.83,11.27,1.09,5.64-.69,10.4-5.28,14.15-.01,0-.02.02-.03.03-2.17.91-2.16,2.95-2.15,3.94.05,6.26.05,12.64.04,18.8,0,3,0,5.99,0,8.99,0,.39-.07.51-.22.65-.85.82-1.68,1.66-2.52,2.49-.75.75-1.5,1.5-2.26,2.23-.41.39-.57.42-.56.43,0,0-.1-.03-.3-.23-1.56-1.55-3.06-3.11-4.66-4.76-.4-.41-.8-.83-1.2-1.24l.31-.29,2.74-2.52c.2-.19.32-.45.32-.73s-.11-.54-.31-.73l-2.09-1.97-1.08-1.02,1.95-1.86,1.16-1.11c.2-.19.31-.45.31-.73,0-.27-.11-.54-.31-.72l-2.58-2.43-.5-.47,3.22-3.11c.2-.19.31-.46.3-.73s-.12-.54-.32-.72c-.23-.22-.46-.42-.68-.62-.46-.42-.89-.81-1.3-1.21-.85-.82-1.75-1.71-2.61-2.63-.03-.04-.08-.14-.09-.18-.03-1.57-.03-3.2,0-4.99.01-.83-.31-1.43-.99-1.85-2.92-1.79-4.94-4.34-6-7.59-1.14-3.47-.97-6.85.48-10.02,2.46-5.37,7.37-8.57,13.12-8.57m0-1c-6.15,0-11.4,3.43-14.03,9.15-1.6,3.49-1.71,7.13-.53,10.75,1.14,3.47,3.29,6.21,6.43,8.13.39.24.52.53.51.98-.03,1.67-.03,3.35,0,5.02,0,.29.16.64.36.85.86.91,1.75,1.79,2.64,2.66.62.6,1.27,1.18,2,1.85-1.38,1.33-2.61,2.52-3.97,3.84,1.28,1.2,2.48,2.34,3.83,3.62-1.32,1.26-2.54,2.43-3.87,3.69,1.3,1.23,2.54,2.4,3.94,3.72-1.35,1.24-2.61,2.4-3.81,3.5,2.28,2.34,4.41,4.57,6.59,6.75.35.35.67.52,1,.52.39,0,.79-.24,1.27-.71,1.6-1.56,3.16-3.17,4.77-4.72.42-.4.53-.82.53-1.37-.01-9.27.02-18.53-.05-27.8-.01-1.45.21-2.51,1.65-3.06.06-.02.11-.09.17-.13,4.83-3.94,6.8-9.01,5.63-15.11-1.28-6.65-6.89-11.54-13.73-12.08-.45-.04-.89-.05-1.33-.05h0Z"/><path class="cls-6" d="m245.07,222.13v1c1.85,0,3.13,1.23,3.18,3.05.02.73-.27,1.44-.82,2-.61.63-1.46.99-2.34.99-.75,0-1.51-.34-2.08-.92-.58-.59-.9-1.36-.9-2.13.01-1.62,1.36-2.99,2.94-2.99l.02-1m0,0s-.01,0-.02,0c-2.13,0-3.92,1.81-3.94,3.99-.02,2.16,1.83,4.04,3.97,4.06,0,0,.02,0,.03,0,2.24,0,4.2-1.83,4.14-4.02-.06-2.27-1.66-4.03-4.18-4.03h0Z"/></g><rect class="cls-5" x="200.91" y="211.89" width="23.72" height="4"/><rect class="cls-5" x="259.36" y="211.89" width="7.16" height="4"/><rect class="cls-4" x="273.48" y="211.89" width="7.17" height="4"/><rect class="cls-4" x="192.79" y="223.18" width="16.73" height="4"/><rect class="cls-5" x="217.92" y="223.18" width="7.81" height="4"/><rect class="cls-5" x="271.56" y="223.18" width="30.49" height="4"/><rect class="cls-5" x="183.97" y="234.48" width="23.72" height="4"/><rect class="cls-4" x="218.42" y="234.48" width="5.64" height="4"/><rect class="cls-5" x="266.14" y="234.48" width="12.69" height="4"/><rect class="cls-4" x="287.03" y="234.48" width="5.92" height="4"/><rect class="cls-5" x="195.96" y="245.77" width="33.19" height="4"/><rect class="cls-4" x="260.49" y="245.77" width="46.72" height="4"/><rect class="cls-4" x="207.41" y="257.07" width="23.72" height="4"/><rect class="cls-5" x="263.6" y="257.07" width="10" height="4"/><rect class="cls-5" x="282.79" y="257.07" width="10" height="4"/></svg>