<?xml version="1.0" encoding="UTF-8"?><svg id="Layer_1" xmlns="http://www.w3.org/2000/svg" viewBox="0 0 500 500"><defs><style>.cls-1{stroke:#182c60;}.cls-1,.cls-2{fill:none;stroke-linecap:round;stroke-linejoin:round;}.cls-3{fill:#5865f6;opacity:.1;}.cls-4{fill:#f2f3f4;}.cls-5{fill:#c1c7c9;}.cls-6{fill:#182c60;}.cls-2{stroke:#5865f6;stroke-width:4px;}</style></defs><path class="cls-3" d="m271.11,179.72l-.09,20.33s.19,4.05.38,4.52.75,1.88,1.41,2.35,1.27.99,2.21,1.32,1.18.61,2.64.61,22.68.05,22.68.05l-29.22-29.18Z"/><line class="cls-1" x1="203.71" y1="208.01" x2="234.92" y2="208.01"/><line class="cls-2" x1="203.71" y1="197.34" x2="248.04" y2="197.34"/><rect class="cls-1" x="202.3" y="230.36" width="89.95" height="62.67" rx="3.21" ry="3.21"/><g><path class="cls-1" d="m300.49,208.99v99.99c0,3.55-2.88,6.43-6.43,6.43h-93.23c-3.55,0-6.43-2.88-6.43-6.43v-123.07c0-3.55,2.88-6.43,6.43-6.43h70.29"/><path class="cls-1" d="m271.15,179.48v22.91c0,3.55,2.88,6.43,6.43,6.43h22.91s-29.34-29.48-29.34-29.34Z"/></g><path class="cls-1" d="m305.49,213.99v99.99c0,3.55-2.88,6.43-6.43,6.43h-93.23c-2.95,0-5.43-1.98-6.19-4.69"/><path class="cls-1" d="m305.49,213.82s-2.13-2.14-5.24-5.26"/><path class="cls-6" d="m199.54,315.53s.28,1.04.66,1.6.56,1.08,1.32,1.69,2.12,1.46,2.4,1.51,2.73.24,3.86.19,20.38-.09,20.38-.09h23.67s17.04-.05,17.04-.05l17.69.14,12.75-.14s1.98-.19,2.78-.71,1.65-1.04,2.12-1.84,1.22-1.84,1.27-2.35.14-14.4.14-14.4l-.19-11.62.09-11.95v-22.12s-.05-18.12-.05-18.12v-23.34s-5.04-5.22-5.04-5.22l.05,25.6.14,28.99-.05,13.84-.05,9.74v10.4s0,9.79,0,9.79c0,0,.19,3.06-.47,4.09s-1.36,2.35-2.21,2.96-2.07,1.18-4.71,1.22-14.87.05-14.87.05l-21.79-.05h-16.05l-25.88.05-15.01.14Z"/><line class="cls-1" x1="202.63" y1="239.03" x2="292.01" y2="239.03"/><line class="cls-1" x1="219.5" y1="230.61" x2="219.79" y2="293.09"/><line class="cls-1" x1="237.76" y1="230.53" x2="238.05" y2="293"/><line class="cls-1" x1="256.02" y1="230.45" x2="256.31" y2="292.92"/><line class="cls-1" x1="274.28" y1="230.36" x2="274.57" y2="292.84"/><g><rect class="cls-5" x="206.17" y="232.79" width="8.47" height="4"/><rect class="cls-5" x="224.23" y="232.79" width="8.47" height="4"/><rect class="cls-5" x="242.69" y="232.79" width="8.47" height="4"/><rect class="cls-5" x="260.62" y="232.79" width="8.47" height="4"/><rect class="cls-5" x="278.83" y="232.79" width="8.47" height="4"/></g><g><rect class="cls-4" x="206.17" y="244.08" width="8.47" height="4"/><rect class="cls-4" x="224.23" y="244.08" width="8.47" height="4"/><rect class="cls-4" x="242.69" y="244.08" width="8.47" height="4"/><rect class="cls-4" x="260.62" y="244.08" width="8.47" height="4"/><rect class="cls-4" x="278.83" y="244.08" width="8.47" height="4"/></g><g><rect class="cls-4" x="206.17" y="252.55" width="8.47" height="4"/><rect class="cls-4" x="224.23" y="252.55" width="8.47" height="4"/><rect class="cls-4" x="242.69" y="252.55" width="8.47" height="4"/><rect class="cls-4" x="260.62" y="252.55" width="8.47" height="4"/><rect class="cls-4" x="278.83" y="252.55" width="8.47" height="4"/></g><g><rect class="cls-4" x="206.17" y="261.02" width="8.47" height="4"/><rect class="cls-4" x="224.23" y="261.02" width="8.47" height="4"/><rect class="cls-4" x="242.69" y="261.02" width="8.47" height="4"/><rect class="cls-4" x="260.62" y="261.02" width="8.47" height="4"/><rect class="cls-4" x="278.83" y="261.02" width="8.47" height="4"/></g><g><rect class="cls-4" x="206.17" y="269.49" width="8.47" height="4"/><rect class="cls-4" x="224.23" y="269.49" width="8.47" height="4"/><rect class="cls-4" x="242.69" y="269.49" width="8.47" height="4"/><rect class="cls-4" x="260.62" y="269.49" width="8.47" height="4"/><rect class="cls-4" x="278.83" y="269.49" width="8.47" height="4"/></g><g><rect class="cls-4" x="206.17" y="277.96" width="8.47" height="4"/><rect class="cls-4" x="224.23" y="277.96" width="8.47" height="4"/><rect class="cls-4" x="242.69" y="277.96" width="8.47" height="4"/><rect class="cls-4" x="260.62" y="277.96" width="8.47" height="4"/><rect class="cls-4" x="278.83" y="277.96" width="8.47" height="4"/></g><g><rect class="cls-4" x="206.17" y="286.43" width="8.47" height="4"/><rect class="cls-4" x="224.23" y="286.43" width="8.47" height="4"/><rect class="cls-4" x="242.69" y="286.43" width="8.47" height="4"/><rect class="cls-4" x="260.62" y="286.43" width="8.47" height="4"/><rect class="cls-4" x="278.83" y="286.43" width="8.47" height="4"/></g></svg>