<?xml version="1.0" encoding="UTF-8"?><svg id="Layer_1" xmlns="http://www.w3.org/2000/svg" viewBox="0 0 300 300"><defs><style>.cls-1{stroke:#182c60;}.cls-1,.cls-2{fill:none;stroke-linecap:round;stroke-linejoin:round;}.cls-3,.cls-4{fill:#5865f6;opacity:.1;}.cls-4{fill-rule:evenodd;}.cls-5{fill:#f2f3f4;}.cls-6{fill:#c1c7c9;}.cls-7{fill:#dadedf;}.cls-8{fill:#182c60;}.cls-2{stroke:#5865f6;stroke-width:4px;}</style></defs><path class="cls-4" d="m155.62,105.24l7.53-16.94h70.73s1.32-.05,1.98.47,2.4,1.27,2.78,2.26.71,2.26.8,5.32.14,8.8.14,8.8l-83.95.09Z"/><path class="cls-3" d="m42.78,105.34c-.05-.19-.05-10.87-.05-10.87l.66-2.73,2.02-2.16,2.31-1.08,5.93-.24,79.39.19-3.06,16.8-87.2.09Z"/><circle class="cls-1" cx="51.64" cy="96.98" r="2.02"/><circle class="cls-1" cx="60.08" cy="96.98" r="2.02"/><circle class="cls-1" cx="68.53" cy="96.98" r="2.02"/><path class="cls-1" d="m239.56,93.43c2.93.6,5.13,3.19,5.13,6.3v123.07c0,3.55-2.88,6.43-6.43,6.43H54.22c-3.19,0-5.83-2.32-6.34-5.36"/><path class="cls-1" d="m43.43,105.17h86.31"/><path class="cls-1" d="m155.77,105.17h83.89"/><path class="cls-8" d="m47.82,223.85s.38,1.84,1.22,2.82,2.49,2.26,3.2,2.45,4.38.05,4.38.05l38.21.05,34.31.09,35.15-.09h37.27s27.44.05,27.44.05c0,0,8.71.28,10.07,0s3.29-1.18,3.95-1.93,1.98-3.06,1.84-3.76-.24-7.91-.24-7.91l-.05-15.72.09-27.62.09-22.54-.09-32.56.05-18.12s-.14-2.21-.85-2.87-1.46-1.79-2.49-2.12-2.31-.66-2.31-.66l.14,14.07-.05,12.94.09,19.95-.09,21.36.05,19.67v36.75s-.38,2.07-.75,2.64-1.22,1.55-1.6,1.74-.56.94-2.96.99c-2.4.05-7.91.19-7.91.19h-24.28l-56.8-.14-43.58.14-53.51.09Z"/><g><line class="cls-2" x1="58.56" y1="120.54" x2="96.98" y2="120.54"/><g><rect class="cls-7" x="56.68" y="130.98" width="23.72" height="4"/><rect class="cls-5" x="87.94" y="130.98" width="11.13" height="4"/></g></g><g><line class="cls-1" x1="246.35" y1="89.9" x2="257.27" y2="89.9"/><line class="cls-1" x1="238.63" y1="81.53" x2="238.63" y2="70.61"/><line class="cls-1" x1="245.31" y1="83.13" x2="253.03" y2="75.41"/></g><path class="cls-6" d="m137.86,175.68l-16.74,27.95c-1.09,1.89-.44,4.31,1.45,5.4.59.34,1.25.52,1.93.53h33.49c2.18-.02,3.93-1.81,3.91-4,0-.68-.19-1.35-.53-1.93l-16.74-27.95c-1.13-1.87-3.56-2.46-5.43-1.33-.54.33-1,.79-1.33,1.33Z"/><g><rect class="cls-5" x="139.83" y="186.47" width="2.82" height="10.16" rx="1.41" ry="1.41"/><rect class="cls-5" x="139.83" y="198.57" width="2.82" height="2.82" rx="1.41" ry="1.41"/></g><path class="cls-1" d="m132.99,88.35c-20.69,0-41.39-.01-62.08-.03-7.23,0-14.46-.01-21.69-.02-3.55,0-6.43,2.88-6.43,6.43v123.07c0,3.55,2.88,6.43,6.43,6.43h184.04c3.55,0,6.43-2.88,6.43-6.43v-123.07c0-3.55-2.88-6.43-6.43-6.43h-70.13c-.78,2.15-1.79,4.21-2.74,6.29-1.04,2.27-2.02,4.56-3.06,6.83-1.63,3.56-3.26,7.12-4.89,10.68-.74,1.61-1.47,3.23-2.2,4.84-.04.08-.04.17-.09.34h.86c3.8,0,7.59,0,11.39,0,.55,0,1.08.04,1.36.6.28.54.07,1.01-.24,1.48-5.88,8.8-11.76,17.6-17.64,26.4-3.55,5.32-7.1,10.64-10.65,15.96-.14.21-.28.42-.42.63-.44.64-.96.87-1.51.63-.63-.27-.77-.79-.67-1.43.36-2.25.72-4.5,1.08-6.75,1.14-7.13,2.28-14.26,3.42-21.4.02-.13,0-.27,0-.47h-9.88c-1.38,0-1.76-.42-1.54-1.75,1.08-6.45,2.16-12.89,3.24-19.34.05-.27.09-.54.14-.81,1.27-7.56,2.34-15.17,3.89-22.67Z"/></svg>