<svg width="264" height="206" viewBox="0 0 264 206" fill="none" xmlns="http://www.w3.org/2000/svg">
<path fill-rule="evenodd" clip-rule="evenodd" d="M142.925 0C118.784 0 96.5959 8.36828 79.0758 22.3691H50.76C47.0812 22.3691 44.0713 25.3889 44.0713 29.0798C44.0713 32.7707 47.0812 35.7906 50.76 35.7906H65.1707H69.3936C73.0724 35.7906 76.0823 38.8104 76.0823 42.5013C76.0823 44.3445 75.3287 46.0267 74.1158 47.2391C72.9074 48.4559 71.2308 49.212 69.3936 49.212H60.3843H55.4096H31.1397C27.4609 49.212 24.4509 52.2318 24.4509 55.9227C24.4509 59.6136 27.4609 62.6335 31.1397 62.6335H48.5144C43.2695 75 40.3644 88.6071 40.3644 102.898C40.3644 108.083 40.7479 113.179 41.4836 118.158C41.7913 120.238 42.1614 122.301 42.594 124.341C55.2134 122.404 68.5998 120.847 82.5749 119.71L83.6273 120.672L84.6172 119.549C101.406 118.239 119.029 117.541 137.204 117.541C175.821 117.541 211.958 120.69 242.855 126.166C244.046 120.985 244.849 115.657 245.228 110.208C245.402 107.792 245.486 105.354 245.486 102.898C245.486 46.0669 199.57 0 142.925 0Z" fill="#F1F2F7"/>
<path fill-rule="evenodd" clip-rule="evenodd" d="M10.8288 48.9023H6.77527C3.04874 48.9023 -0.000244141 51.9831 -0.000244141 55.7486C-0.000244141 59.514 3.04874 62.5948 6.77527 62.5948H10.8288C14.5554 62.5948 17.6043 59.514 17.6043 55.7486C17.6043 51.9831 14.5554 48.9023 10.8288 48.9023Z" fill="#F1F2F7"/>
<path fill-rule="evenodd" clip-rule="evenodd" d="M264 151.595C264 155.263 260.991 158.263 257.313 158.263H214.599C212.763 158.263 211.087 159.015 209.879 160.224C208.666 161.429 207.912 163.1 207.912 164.932C207.912 168.6 210.922 171.6 214.599 171.6H222.535C224.372 171.6 226.048 172.352 227.256 173.561C228.469 174.766 229.222 176.437 229.222 178.269C229.222 181.936 226.213 184.937 222.535 184.937H204.288C187.146 197.776 165.846 205.387 142.762 205.387C93.46 205.387 52.2849 170.689 42.4548 124.446C55.0713 122.521 68.4545 120.974 82.4262 119.845L83.4778 120.8L84.468 119.685C101.252 118.382 118.871 117.688 137.042 117.688C175.649 117.688 211.777 120.818 242.668 126.26C241.166 132.741 239.044 138.983 236.369 144.927H257.313C259.154 144.927 260.822 145.678 262.034 146.887C263.247 148.092 264 149.763 264 151.595Z" fill="#E8EBF2"/>
<path fill-rule="evenodd" clip-rule="evenodd" d="M244.507 109.903C244.129 115.456 243.327 120.886 242.138 126.166C211.282 120.585 175.193 117.376 136.627 117.376C118.476 117.376 100.877 118.087 84.1101 119.423L95.7376 105.951L113.825 117.754L138.311 110.993L180.433 117.376L198.719 110.993L203.35 117.376L214.4 109.174L224.726 118.639L241.012 105.627L244.507 109.903Z" fill="#E0E2EE"/>
<path fill-rule="evenodd" clip-rule="evenodd" d="M82.1533 119.572C68.183 120.71 54.8011 122.269 42.1859 124.21C41.7535 122.166 41.3835 120.1 41.0759 118.017L62.6996 101.715L82.1533 119.572Z" fill="#E0E2EE"/>
<path fill-rule="evenodd" clip-rule="evenodd" d="M242.551 184.848C238.786 184.848 235.705 181.767 235.705 178.002C235.705 174.236 238.786 171.155 242.551 171.155C246.316 171.155 249.397 174.236 249.397 178.002C249.397 181.767 246.316 184.848 242.551 184.848Z" fill="#E1E3EF"/>
<g clip-path="url(#clip0_432_5097)">
<rect x="90.9998" y="50" width="111" height="86" rx="10" fill="white"/>
<path d="M97.1279 64.9559H195.872C197.697 64.9559 199.178 62.2354 199.178 58.8798C199.178 55.5242 197.697 52.8037 195.872 52.8037H97.1279C95.302 52.8037 93.8218 55.5242 93.8218 58.8798C93.8218 62.2354 95.302 64.9559 97.1279 64.9559Z" fill="#F1F2F7"/>
<path d="M99.58 87.7301H104.793C105.693 87.7301 106.422 87.0078 106.422 86.117C106.422 85.2261 105.693 84.5039 104.793 84.5039H99.58C98.6802 84.5039 97.9508 85.2261 97.9508 86.117C97.9508 87.0078 98.6802 87.7301 99.58 87.7301Z" fill="#D0D4DA"/>
<path d="M99.58 73.9654H136.073C136.973 73.9654 137.702 73.2432 137.702 72.3523C137.702 71.4615 136.973 70.7393 136.073 70.7393H99.58C98.6802 70.7393 97.9508 71.4615 97.9508 72.3523C97.9508 73.2432 98.6802 73.9654 99.58 73.9654Z" fill="#D0D4DA"/>
<path d="M143.024 73.9654H149.975C150.875 73.9654 151.604 73.2432 151.604 72.3523C151.604 71.4615 150.875 70.7393 149.975 70.7393H143.024C142.124 70.7393 141.395 71.4615 141.395 72.3523C141.395 73.2432 142.124 73.9654 143.024 73.9654Z" fill="#D0D4DA"/>
<path d="M172.566 73.9654H193.42C194.319 73.9654 195.049 73.2432 195.049 72.3523C195.049 71.4615 194.319 70.7393 193.42 70.7393H172.566C171.667 70.7393 170.937 71.4615 170.937 72.3523C170.937 73.2432 171.667 73.9654 172.566 73.9654Z" fill="#D0D4DA"/>
<path d="M172.566 84.5039C172.138 84.5039 171.717 84.676 171.415 84.9771C171.111 85.276 170.937 85.6933 170.937 86.117C170.937 86.5407 171.111 86.9579 171.415 87.2569C171.717 87.558 172.138 87.7301 172.566 87.7301C172.994 87.7301 173.416 87.558 173.718 87.2569C174.022 86.9579 174.195 86.5407 174.195 86.117C174.195 85.6933 174.022 85.276 173.718 84.9771C173.416 84.676 172.994 84.5039 172.566 84.5039Z" fill="#D0D4DA"/>
<path d="M173.718 98.7417C173.416 98.4406 172.994 98.2686 172.566 98.2686C172.138 98.2686 171.717 98.4406 171.415 98.7417C171.111 99.0407 170.937 99.4579 170.937 99.8816C170.937 100.305 171.111 100.723 171.415 101.022C171.717 101.323 172.138 101.495 172.566 101.495C172.994 101.495 173.416 101.323 173.718 101.022C174.022 100.723 174.195 100.305 174.195 99.8816C174.195 99.4579 174.022 99.0407 173.718 98.7417Z" fill="#D0D4DA"/>
<path d="M172.566 112.034C172.138 112.034 171.717 112.206 171.415 112.507C171.111 112.806 170.937 113.224 170.937 113.647C170.937 114.071 171.111 114.488 171.415 114.787C171.717 115.088 172.138 115.26 172.566 115.26C172.994 115.26 173.416 115.088 173.718 114.787C174.022 114.488 174.195 114.071 174.195 113.647C174.195 113.224 174.022 112.806 173.718 112.507C173.416 112.206 172.994 112.034 172.566 112.034Z" fill="#D0D4DA"/>
<path d="M179.517 112.034C179.087 112.034 178.668 112.206 178.366 112.507C178.062 112.806 177.888 113.224 177.888 113.647C177.888 114.071 178.062 114.488 178.366 114.787C178.668 115.088 179.087 115.26 179.517 115.26C179.945 115.26 180.367 115.088 180.669 114.787C180.973 114.488 181.147 114.071 181.147 113.647C181.147 113.224 180.973 112.806 180.669 112.507C180.367 112.206 179.947 112.034 179.517 112.034Z" fill="#D0D4DA"/>
<path d="M172.566 125.799C172.138 125.799 171.717 125.971 171.415 126.272C171.111 126.571 170.937 126.988 170.937 127.412C170.937 127.836 171.111 128.253 171.415 128.552C171.717 128.853 172.138 129.025 172.566 129.025C172.994 129.025 173.416 128.853 173.718 128.552C174.022 128.253 174.195 127.836 174.195 127.412C174.195 126.988 174.022 126.571 173.718 126.272C173.416 125.971 172.994 125.799 172.566 125.799Z" fill="#D0D4DA"/>
<path d="M179.517 125.799C179.089 125.799 178.668 125.971 178.366 126.272C178.062 126.571 177.888 126.988 177.888 127.412C177.888 127.836 178.062 128.253 178.366 128.552C178.668 128.853 179.089 129.025 179.517 129.025C179.945 129.025 180.367 128.853 180.669 128.552C180.973 128.253 181.147 127.836 181.147 127.412C181.147 126.988 180.973 126.571 180.669 126.272C180.367 125.971 179.945 125.799 179.517 125.799Z" fill="#D0D4DA"/>
<path d="M187.62 112.507C187.318 112.206 186.896 112.034 186.468 112.034C186.04 112.034 185.619 112.206 185.317 112.507C185.013 112.806 184.839 113.221 184.839 113.647C184.839 114.073 185.013 114.488 185.317 114.787C185.619 115.088 186.04 115.26 186.468 115.26C186.896 115.26 187.318 115.088 187.62 114.787C187.924 114.488 188.098 114.071 188.098 113.647C188.098 113.224 187.924 112.806 187.62 112.507Z" fill="#D0D4DA"/>
<path d="M180.669 84.9771C180.367 84.676 179.947 84.5039 179.517 84.5039C179.087 84.5039 178.668 84.676 178.366 84.9771C178.062 85.276 177.888 85.6933 177.888 86.117C177.888 86.5407 178.062 86.9579 178.366 87.2569C178.668 87.558 179.089 87.7301 179.517 87.7301C179.945 87.7301 180.367 87.558 180.669 87.2569C180.973 86.9579 181.147 86.5407 181.147 86.117C181.147 85.6933 180.973 85.276 180.669 84.9771Z" fill="#D0D4DA"/>
<path d="M104.793 125.799H99.58C98.6802 125.799 97.9508 126.521 97.9508 127.412C97.9508 128.303 98.6802 129.025 99.58 129.025H104.793C105.693 129.025 106.422 128.303 106.422 127.412C106.422 126.521 105.693 125.799 104.793 125.799Z" fill="#D0D4DA"/>
<path d="M99.58 101.495H104.793C105.693 101.495 106.422 100.772 106.422 99.8816C106.422 98.9908 105.693 98.2686 104.793 98.2686H99.58C98.6802 98.2686 97.9508 98.9908 97.9508 99.8816C97.9508 100.772 98.6802 101.495 99.58 101.495Z" fill="#D0D4DA"/>
<path d="M104.793 112.034H99.58C98.6802 112.034 97.9508 112.756 97.9508 113.647C97.9508 114.538 98.6802 115.26 99.58 115.26H104.793C105.693 115.26 106.422 114.538 106.422 113.647C106.422 112.756 105.693 112.034 104.793 112.034Z" fill="#D0D4DA"/>
<path d="M137.811 112.034H134.335C133.436 112.034 132.706 112.756 132.706 113.647C132.706 114.538 133.436 115.26 134.335 115.26H137.811C138.711 115.26 139.44 114.538 139.44 113.647C139.44 112.756 138.711 112.034 137.811 112.034Z" fill="#D0D4DA"/>
<path d="M134.335 129.025H137.811C138.711 129.025 139.44 128.303 139.44 127.412C139.44 126.521 138.711 125.799 137.811 125.799H134.335C133.436 125.799 132.706 126.521 132.706 127.412C132.706 128.303 133.436 129.025 134.335 129.025Z" fill="#D0D4DA"/>
<path d="M137.811 98.2686H134.335C133.436 98.2686 132.706 98.9908 132.706 99.8816C132.706 100.772 133.436 101.495 134.335 101.495H137.811C138.711 101.495 139.44 100.772 139.44 99.8816C139.44 98.9908 138.711 98.2686 137.811 98.2686Z" fill="#D0D4DA"/>
<path d="M134.335 87.7301H137.811C138.711 87.7301 139.44 87.0078 139.44 86.117C139.44 85.2261 138.711 84.5039 137.811 84.5039H134.335C133.436 84.5039 132.706 85.2261 132.706 86.117C132.706 87.0078 133.436 87.7301 134.335 87.7301Z" fill="#D0D4DA"/>
<path d="M144.762 87.7301H151.713C152.613 87.7301 153.342 87.0078 153.342 86.117C153.342 85.2261 152.613 84.5039 151.713 84.5039H144.762C143.862 84.5039 143.133 85.2261 143.133 86.117C143.133 87.0078 143.862 87.7301 144.762 87.7301Z" fill="#D0D4DA"/>
<path d="M156.926 98.2686H144.762C143.862 98.2686 143.133 98.9908 143.133 99.8816C143.133 100.772 143.862 101.495 144.762 101.495H156.926C157.826 101.495 158.556 100.772 158.556 99.8816C158.556 98.9908 157.826 98.2686 156.926 98.2686Z" fill="#D0D4DA"/>
<path d="M148.238 112.034H144.762C143.862 112.034 143.133 112.756 143.133 113.647C143.133 114.538 143.862 115.26 144.762 115.26H148.238C149.137 115.26 149.867 114.538 149.867 113.647C149.867 112.756 149.137 112.034 148.238 112.034Z" fill="#D0D4DA"/>
<path d="M144.762 129.025H151.713C152.613 129.025 153.342 128.303 153.342 127.412C153.342 126.521 152.613 125.799 151.713 125.799H144.762C143.862 125.799 143.133 126.521 143.133 127.412C143.133 128.303 143.862 129.025 144.762 129.025Z" fill="#D0D4DA"/>
<path d="M193.42 50.0918H99.58C94.8489 50.0918 90.9998 53.903 90.9998 58.5873V127.412C90.9998 132.096 94.8489 135.907 99.58 135.907H193.42C198.151 135.907 202 132.096 202 127.412V58.5873C202 53.903 198.151 50.0918 193.42 50.0918ZM129.013 118.916V108.378H163.986V118.916H129.013ZM163.986 122.142V132.681H129.013V122.142H163.986ZM198.741 67.0828V77.6216H167.244V67.0828H198.741ZM163.986 80.8478V91.3865H129.013V80.8478H163.986ZM125.755 91.3865H94.2581V80.8478H125.755V91.3865ZM125.755 94.6127V105.151H94.2581V94.6127H125.755ZM129.013 94.6127H163.986V105.151H129.013V94.6127ZM167.244 94.6127H198.741V105.151H167.244V94.6127ZM167.244 91.3865V80.8478H198.741V91.3865H167.244ZM163.986 77.6216H94.2581V67.0828H163.986V77.6216ZM94.2581 108.378H125.755V118.916H94.2581V108.378ZM167.244 108.378H198.741V118.916H167.244V108.378ZM99.58 53.3179H193.42C196.354 53.3179 198.741 55.6819 198.741 58.5873V63.8567H94.2581V58.5873C94.2581 55.6819 96.6455 53.3179 99.58 53.3179ZM94.2581 127.412V122.142H125.755V132.681H99.58C96.6455 132.681 94.2581 130.317 94.2581 127.412ZM193.42 132.681H167.244V122.142H198.741V127.412C198.741 130.317 196.354 132.681 193.42 132.681Z" fill="#D0D4DA"/>
</g>
<g clip-path="url(#clip1_432_5097)">
<rect x="67.9998" y="76" width="111" height="86" rx="10" fill="white"/>
<path d="M74.1279 90.9559H172.872C174.697 90.9559 176.178 88.2354 176.178 84.8798C176.178 81.5242 174.697 78.8037 172.872 78.8037H74.1279C72.302 78.8037 70.8218 81.5242 70.8218 84.8798C70.8218 88.2354 72.302 90.9559 74.1279 90.9559Z" fill="#F1F2F7"/>
<path d="M76.58 113.73H81.7933C82.693 113.73 83.4224 113.008 83.4224 112.117C83.4224 111.226 82.693 110.504 81.7933 110.504H76.58C75.6802 110.504 74.9508 111.226 74.9508 112.117C74.9508 113.008 75.6802 113.73 76.58 113.73Z" fill="#D0D4DA"/>
<path d="M76.58 99.9654H113.073C113.973 99.9654 114.702 99.2432 114.702 98.3523C114.702 97.4615 113.973 96.7393 113.073 96.7393H76.58C75.6802 96.7393 74.9508 97.4615 74.9508 98.3523C74.9508 99.2432 75.6802 99.9654 76.58 99.9654Z" fill="#D0D4DA"/>
<path d="M120.024 99.9654H126.975C127.875 99.9654 128.604 99.2432 128.604 98.3523C128.604 97.4615 127.875 96.7393 126.975 96.7393H120.024C119.124 96.7393 118.395 97.4615 118.395 98.3523C118.395 99.2432 119.124 99.9654 120.024 99.9654Z" fill="#D0D4DA"/>
<path d="M149.566 99.9654H170.42C171.319 99.9654 172.049 99.2432 172.049 98.3523C172.049 97.4615 171.319 96.7393 170.42 96.7393H149.566C148.667 96.7393 147.937 97.4615 147.937 98.3523C147.937 99.2432 148.667 99.9654 149.566 99.9654Z" fill="#D0D4DA"/>
<path d="M149.566 110.504C149.138 110.504 148.717 110.676 148.415 110.977C148.111 111.276 147.937 111.693 147.937 112.117C147.937 112.541 148.111 112.958 148.415 113.257C148.717 113.558 149.138 113.73 149.566 113.73C149.994 113.73 150.416 113.558 150.718 113.257C151.022 112.958 151.195 112.541 151.195 112.117C151.195 111.693 151.022 111.276 150.718 110.977C150.416 110.676 149.994 110.504 149.566 110.504Z" fill="#D0D4DA"/>
<path d="M150.718 124.742C150.416 124.441 149.994 124.269 149.566 124.269C149.138 124.269 148.717 124.441 148.415 124.742C148.111 125.041 147.937 125.458 147.937 125.882C147.937 126.305 148.111 126.723 148.415 127.022C148.717 127.323 149.138 127.495 149.566 127.495C149.994 127.495 150.416 127.323 150.718 127.022C151.022 126.723 151.195 126.305 151.195 125.882C151.195 125.458 151.022 125.041 150.718 124.742Z" fill="#D0D4DA"/>
<path d="M149.566 138.034C149.138 138.034 148.717 138.206 148.415 138.507C148.111 138.806 147.937 139.224 147.937 139.647C147.937 140.071 148.111 140.488 148.415 140.787C148.717 141.088 149.138 141.26 149.566 141.26C149.994 141.26 150.416 141.088 150.718 140.787C151.022 140.488 151.195 140.071 151.195 139.647C151.195 139.224 151.022 138.806 150.718 138.507C150.416 138.206 149.994 138.034 149.566 138.034Z" fill="#D0D4DA"/>
<path d="M156.517 138.034C156.087 138.034 155.668 138.206 155.366 138.507C155.062 138.806 154.888 139.224 154.888 139.647C154.888 140.071 155.062 140.488 155.366 140.787C155.668 141.088 156.087 141.26 156.517 141.26C156.945 141.26 157.367 141.088 157.669 140.787C157.973 140.488 158.147 140.071 158.147 139.647C158.147 139.224 157.973 138.806 157.669 138.507C157.367 138.206 156.947 138.034 156.517 138.034Z" fill="#D0D4DA"/>
<path d="M149.566 151.799C149.138 151.799 148.717 151.971 148.415 152.272C148.111 152.571 147.937 152.988 147.937 153.412C147.937 153.836 148.111 154.253 148.415 154.552C148.717 154.853 149.138 155.025 149.566 155.025C149.994 155.025 150.416 154.853 150.718 154.552C151.022 154.253 151.195 153.836 151.195 153.412C151.195 152.988 151.022 152.571 150.718 152.272C150.416 151.971 149.994 151.799 149.566 151.799Z" fill="#D0D4DA"/>
<path d="M156.517 151.799C156.089 151.799 155.668 151.971 155.366 152.272C155.062 152.571 154.888 152.988 154.888 153.412C154.888 153.836 155.062 154.253 155.366 154.552C155.668 154.853 156.089 155.025 156.517 155.025C156.945 155.025 157.367 154.853 157.669 154.552C157.973 154.253 158.147 153.836 158.147 153.412C158.147 152.988 157.973 152.571 157.669 152.272C157.367 151.971 156.945 151.799 156.517 151.799Z" fill="#D0D4DA"/>
<path d="M164.62 138.507C164.318 138.206 163.896 138.034 163.468 138.034C163.04 138.034 162.619 138.206 162.317 138.507C162.013 138.806 161.839 139.221 161.839 139.647C161.839 140.073 162.013 140.488 162.317 140.787C162.619 141.088 163.04 141.26 163.468 141.26C163.896 141.26 164.318 141.088 164.62 140.787C164.924 140.488 165.098 140.071 165.098 139.647C165.098 139.224 164.924 138.806 164.62 138.507Z" fill="#D0D4DA"/>
<path d="M157.669 110.977C157.367 110.676 156.947 110.504 156.517 110.504C156.087 110.504 155.668 110.676 155.366 110.977C155.062 111.276 154.888 111.693 154.888 112.117C154.888 112.541 155.062 112.958 155.366 113.257C155.668 113.558 156.089 113.73 156.517 113.73C156.945 113.73 157.367 113.558 157.669 113.257C157.973 112.958 158.147 112.541 158.147 112.117C158.147 111.693 157.973 111.276 157.669 110.977Z" fill="#D0D4DA"/>
<path d="M81.7933 151.799H76.58C75.6802 151.799 74.9508 152.521 74.9508 153.412C74.9508 154.303 75.6802 155.025 76.58 155.025H81.7933C82.693 155.025 83.4224 154.303 83.4224 153.412C83.4224 152.521 82.693 151.799 81.7933 151.799Z" fill="#D0D4DA"/>
<path d="M76.58 127.495H81.7933C82.693 127.495 83.4224 126.772 83.4224 125.882C83.4224 124.991 82.693 124.269 81.7933 124.269H76.58C75.6802 124.269 74.9508 124.991 74.9508 125.882C74.9508 126.772 75.6802 127.495 76.58 127.495Z" fill="#D0D4DA"/>
<path d="M81.7933 138.034H76.58C75.6802 138.034 74.9508 138.756 74.9508 139.647C74.9508 140.538 75.6802 141.26 76.58 141.26H81.7933C82.693 141.26 83.4224 140.538 83.4224 139.647C83.4224 138.756 82.693 138.034 81.7933 138.034Z" fill="#D0D4DA"/>
<path d="M114.811 138.034H111.335C110.436 138.034 109.706 138.756 109.706 139.647C109.706 140.538 110.436 141.26 111.335 141.26H114.811C115.711 141.26 116.44 140.538 116.44 139.647C116.44 138.756 115.711 138.034 114.811 138.034Z" fill="#D0D4DA"/>
<path d="M111.335 155.025H114.811C115.711 155.025 116.44 154.303 116.44 153.412C116.44 152.521 115.711 151.799 114.811 151.799H111.335C110.436 151.799 109.706 152.521 109.706 153.412C109.706 154.303 110.436 155.025 111.335 155.025Z" fill="#D0D4DA"/>
<path d="M114.811 124.269H111.335C110.436 124.269 109.706 124.991 109.706 125.882C109.706 126.772 110.436 127.495 111.335 127.495H114.811C115.711 127.495 116.44 126.772 116.44 125.882C116.44 124.991 115.711 124.269 114.811 124.269Z" fill="#D0D4DA"/>
<path d="M111.335 113.73H114.811C115.711 113.73 116.44 113.008 116.44 112.117C116.44 111.226 115.711 110.504 114.811 110.504H111.335C110.436 110.504 109.706 111.226 109.706 112.117C109.706 113.008 110.436 113.73 111.335 113.73Z" fill="#D0D4DA"/>
<path d="M121.762 113.73H128.713C129.613 113.73 130.342 113.008 130.342 112.117C130.342 111.226 129.613 110.504 128.713 110.504H121.762C120.862 110.504 120.133 111.226 120.133 112.117C120.133 113.008 120.862 113.73 121.762 113.73Z" fill="#D0D4DA"/>
<path d="M133.926 124.269H121.762C120.862 124.269 120.133 124.991 120.133 125.882C120.133 126.772 120.862 127.495 121.762 127.495H133.926C134.826 127.495 135.556 126.772 135.556 125.882C135.556 124.991 134.826 124.269 133.926 124.269Z" fill="#D0D4DA"/>
<path d="M125.238 138.034H121.762C120.862 138.034 120.133 138.756 120.133 139.647C120.133 140.538 120.862 141.26 121.762 141.26H125.238C126.137 141.26 126.867 140.538 126.867 139.647C126.867 138.756 126.137 138.034 125.238 138.034Z" fill="#D0D4DA"/>
<path d="M121.762 155.025H128.713C129.613 155.025 130.342 154.303 130.342 153.412C130.342 152.521 129.613 151.799 128.713 151.799H121.762C120.862 151.799 120.133 152.521 120.133 153.412C120.133 154.303 120.862 155.025 121.762 155.025Z" fill="#D0D4DA"/>
<path d="M170.42 76.0918H76.58C71.8489 76.0918 67.9998 79.903 67.9998 84.5873V153.412C67.9998 158.096 71.8489 161.907 76.58 161.907H170.42C175.151 161.907 179 158.096 179 153.412V84.5873C179 79.903 175.151 76.0918 170.42 76.0918ZM106.013 144.916V134.378H140.986V144.916H106.013ZM140.986 148.142V158.681H106.013V148.142H140.986ZM175.741 93.0828V103.622H144.244V93.0828H175.741ZM140.986 106.848V117.387H106.013V106.848H140.986ZM102.755 117.387H71.2581V106.848H102.755V117.387ZM102.755 120.613V131.151H71.2581V120.613H102.755ZM106.013 120.613H140.986V131.151H106.013V120.613ZM144.244 120.613H175.741V131.151H144.244V120.613ZM144.244 117.387V106.848H175.741V117.387H144.244ZM140.986 103.622H71.2581V93.0828H140.986V103.622ZM71.2581 134.378H102.755V144.916H71.2581V134.378ZM144.244 134.378H175.741V144.916H144.244V134.378ZM76.58 79.3179H170.42C173.354 79.3179 175.741 81.6819 175.741 84.5873V89.8567H71.2581V84.5873C71.2581 81.6819 73.6455 79.3179 76.58 79.3179ZM71.2581 153.412V148.142H102.755V158.681H76.58C73.6455 158.681 71.2581 156.317 71.2581 153.412ZM170.42 158.681H144.244V148.142H175.741V153.412C175.741 156.317 173.354 158.681 170.42 158.681Z" fill="#D0D4DA"/>
</g>
<defs>
<clipPath id="clip0_432_5097">
<rect x="90.9998" y="50" width="111" height="86" rx="10" fill="white"/>
</clipPath>
<clipPath id="clip1_432_5097">
<rect x="67.9998" y="76" width="111" height="86" rx="10" fill="white"/>
</clipPath>
</defs>
</svg>
