<svg width="170" height="58" viewBox="0 0 170 58" fill="none" xmlns="http://www.w3.org/2000/svg">
<g clip-path="url(#clip0_994_9500)">
<path d="M8.21094 49.51H169.037" stroke="#222C3A" stroke-width="0.269033"/>
<path d="M8.19922 51.3403V49.5098" stroke="#222C3A" stroke-width="0.269033"/>
<path d="M7.60938 56.9717C7.43664 56.9717 7.28952 56.9247 7.16799 56.8307C7.04647 56.7359 6.95361 56.5987 6.88941 56.4191C6.82521 56.2387 6.79311 56.0209 6.79311 55.7656C6.79311 55.5119 6.82521 55.2952 6.88941 55.1156C6.95437 54.9352 7.04762 54.7976 7.16914 54.7029C7.29143 54.6073 7.43817 54.5596 7.60938 54.5596C7.78058 54.5596 7.92694 54.6073 8.04846 54.7029C8.17075 54.7976 8.264 54.9352 8.3282 55.1156C8.39316 55.2952 8.42565 55.5119 8.42565 55.7656C8.42565 56.0209 8.39354 56.2387 8.32934 56.4191C8.26514 56.5987 8.17228 56.7359 8.05076 56.8307C7.92923 56.9247 7.78211 56.9717 7.60938 56.9717ZM7.60938 56.7195C7.78058 56.7195 7.91357 56.6369 8.00834 56.4718C8.10311 56.3067 8.1505 56.0713 8.1505 55.7656C8.1505 55.5623 8.12872 55.3892 8.08515 55.2463C8.04235 55.1033 7.98044 54.9944 7.89943 54.9195C7.81917 54.8446 7.72249 54.8072 7.60938 54.8072C7.4397 54.8072 7.3071 54.8909 7.21156 55.0583C7.11602 55.2249 7.06825 55.4607 7.06825 55.7656C7.06825 55.9689 7.08965 56.1416 7.13245 56.2838C7.17525 56.426 7.23678 56.5341 7.31703 56.6083C7.39805 56.6824 7.49549 56.7195 7.60938 56.7195Z" fill="#222C3A"/>
<path d="M26.0742 51.3402V49.5096" stroke="#222C3A" stroke-width="0.269033"/>
<path d="M25.5681 54.5915V56.9395H25.2838V54.8896H25.2701L24.6968 55.2702V54.9813L25.2838 54.5915H25.5681Z" fill="#222C3A"/>
<path d="M43.9414 51.34V49.5095" stroke="#222C3A" stroke-width="0.269033"/>
<path d="M42.1173 56.9395V56.7331L42.8923 55.8847C42.9832 55.7854 43.0581 55.699 43.117 55.6256C43.1758 55.5515 43.2194 55.4819 43.2477 55.417C43.2767 55.3512 43.2912 55.2825 43.2912 55.2106C43.2912 55.1281 43.2714 55.0566 43.2316 54.9962C43.1926 54.9358 43.1391 54.8892 43.0711 54.8564C43.0031 54.8235 42.9267 54.8071 42.8418 54.8071C42.7516 54.8071 42.6729 54.8258 42.6056 54.8632C42.5392 54.8999 42.4876 54.9515 42.4509 55.018C42.415 55.0845 42.397 55.1625 42.397 55.2519H42.1264C42.1264 55.1143 42.1582 54.9936 42.2216 54.8896C42.285 54.7857 42.3714 54.7046 42.4807 54.6466C42.5907 54.5885 42.7142 54.5594 42.851 54.5594C42.9886 54.5594 43.1105 54.5885 43.2167 54.6466C43.3229 54.7046 43.4063 54.783 43.4666 54.8816C43.527 54.9802 43.5572 55.0899 43.5572 55.2106C43.5572 55.297 43.5415 55.3814 43.5102 55.464C43.4796 55.5458 43.4261 55.6371 43.3497 55.738C43.274 55.8381 43.1689 55.9604 43.0344 56.1048L42.5071 56.6689V56.6872H43.5985V56.9395H42.1173Z" fill="#222C3A"/>
<path d="M61.8125 51.34V49.5095" stroke="#222C3A" stroke-width="0.269033"/>
<path d="M62.2469 56.9716C62.0955 56.9716 61.9607 56.9456 61.8422 56.8936C61.7245 56.8416 61.6309 56.7694 61.5613 56.6769C61.4925 56.5837 61.4551 56.4755 61.449 56.3525H61.7379C61.744 56.4281 61.77 56.4935 61.8158 56.5485C61.8617 56.6028 61.9217 56.6448 61.9958 56.6746C62.0699 56.7044 62.1521 56.7193 62.2423 56.7193C62.3432 56.7193 62.4326 56.7018 62.5106 56.6666C62.5885 56.6314 62.6497 56.5825 62.694 56.5199C62.7383 56.4572 62.7605 56.3846 62.7605 56.302C62.7605 56.2157 62.7391 56.1396 62.6963 56.0739C62.6535 56.0074 62.5908 55.9554 62.5083 55.918C62.4257 55.8805 62.3248 55.8618 62.2056 55.8618H62.0176V55.6096H62.2056C62.2989 55.6096 62.3806 55.5928 62.4509 55.5591C62.522 55.5255 62.5774 55.4781 62.6172 55.417C62.6577 55.3558 62.6779 55.284 62.6779 55.2014C62.6779 55.122 62.6604 55.0528 62.6252 54.9939C62.59 54.9351 62.5404 54.8892 62.4762 54.8564C62.4127 54.8235 62.3378 54.8071 62.2515 54.8071C62.1704 54.8071 62.094 54.822 62.0222 54.8518C61.9511 54.8808 61.893 54.9232 61.8479 54.979C61.8028 55.0341 61.7784 55.1006 61.7745 55.1785H61.4994C61.504 55.0555 61.5411 54.9477 61.6106 54.8552C61.6802 54.762 61.7711 54.6894 61.8835 54.6374C61.9966 54.5854 62.1208 54.5594 62.2561 54.5594C62.4013 54.5594 62.5258 54.5889 62.6298 54.6477C62.7337 54.7058 62.8136 54.7826 62.8694 54.8781C62.9252 54.9737 62.9531 55.0769 62.9531 55.1877C62.9531 55.3199 62.9183 55.4326 62.8488 55.5259C62.78 55.6191 62.6864 55.6837 62.5679 55.7196V55.738C62.7162 55.7624 62.8319 55.8255 62.9153 55.9271C62.9986 56.028 63.0402 56.153 63.0402 56.302C63.0402 56.4297 63.0054 56.5443 62.9359 56.646C62.8671 56.7469 62.7731 56.8263 62.6539 56.8844C62.5346 56.9425 62.399 56.9716 62.2469 56.9716Z" fill="#222C3A"/>
<path d="M79.6797 51.34V49.5095" stroke="#222C3A" stroke-width="0.269033"/>
<path d="M79.2578 56.4579V56.2241L80.2896 54.5915H80.4593V54.9538H80.3446L79.5651 56.1874V56.2057H80.9546V56.4579H79.2578ZM80.363 56.9395V56.3869V56.278V54.5915H80.6336V56.9395H80.363Z" fill="#222C3A"/>
<path d="M97.5508 51.34V49.5095" stroke="#222C3A" stroke-width="0.269033"/>
<path d="M96.4556 56.9716C96.3211 56.9716 96.2 56.9448 96.0922 56.8913C95.9844 56.8378 95.8981 56.7644 95.8331 56.6712C95.7681 56.5779 95.7326 56.4717 95.7265 56.3525H96.0016C96.0123 56.4587 96.0605 56.5466 96.1461 56.6162C96.2325 56.6849 96.3356 56.7193 96.4556 56.7193C96.5519 56.7193 96.6375 56.6968 96.7124 56.6517C96.7881 56.6066 96.8473 56.5447 96.8901 56.466C96.9337 56.3865 96.9555 56.2967 96.9555 56.1966C96.9555 56.0941 96.9329 56.0028 96.8878 55.9226C96.8435 55.8415 96.7824 55.7777 96.7044 55.7311C96.6265 55.6845 96.5374 55.6608 96.4373 55.66C96.3654 55.6593 96.2917 55.6703 96.216 55.6933C96.1404 55.7154 96.0781 55.7441 96.0292 55.7792L95.7632 55.7471L95.9053 54.5915H97.1252V54.8437H96.1438L96.0613 55.5362H96.075C96.1232 55.498 96.1835 55.4663 96.2562 55.441C96.3288 55.4158 96.4044 55.4032 96.4831 55.4032C96.6268 55.4032 96.7549 55.4376 96.8672 55.5064C96.9803 55.5744 97.069 55.6677 97.1332 55.7861C97.1982 55.9046 97.2306 56.0399 97.2306 56.192C97.2306 56.3418 97.197 56.4755 97.1297 56.5932C97.0633 56.7102 96.9715 56.8026 96.8546 56.8707C96.7377 56.9379 96.6047 56.9716 96.4556 56.9716Z" fill="#222C3A"/>
<path d="M115.43 51.34V49.5095" stroke="#222C3A" stroke-width="0.269033"/>
<path d="M114.855 56.9716C114.759 56.97 114.663 56.9517 114.566 56.9165C114.47 56.8814 114.382 56.8221 114.303 56.7388C114.223 56.6548 114.159 56.5413 114.111 56.3983C114.063 56.2546 114.039 56.0743 114.039 55.8572C114.039 55.6493 114.058 55.4651 114.097 55.3046C114.136 55.1434 114.193 55.0077 114.267 54.8976C114.341 54.7868 114.431 54.7027 114.535 54.6454C114.641 54.5881 114.76 54.5594 114.892 54.5594C115.023 54.5594 115.14 54.5858 115.243 54.6385C115.346 54.6905 115.43 54.7631 115.495 54.8564C115.56 54.9496 115.602 55.057 115.621 55.1785H115.341C115.315 55.073 115.265 54.9855 115.19 54.916C115.115 54.8464 115.016 54.8116 114.892 54.8116C114.71 54.8116 114.567 54.8908 114.462 55.049C114.358 55.2072 114.306 55.4292 114.305 55.715H114.323C114.366 55.6501 114.417 55.5947 114.476 55.5488C114.535 55.5022 114.601 55.4663 114.673 55.441C114.745 55.4158 114.821 55.4032 114.901 55.4032C115.036 55.4032 115.159 55.4368 115.27 55.5041C115.382 55.5706 115.471 55.6627 115.538 55.7804C115.606 55.8973 115.639 56.0315 115.639 56.1828C115.639 56.328 115.607 56.461 115.542 56.5818C115.477 56.7018 115.386 56.7973 115.268 56.8684C115.151 56.9387 115.013 56.9731 114.855 56.9716ZM114.855 56.7193C114.951 56.7193 115.038 56.6953 115.114 56.6471C115.191 56.599 115.252 56.5344 115.297 56.4534C115.342 56.3723 115.364 56.2822 115.364 56.1828C115.364 56.0857 115.342 55.9975 115.299 55.918C115.256 55.8377 115.197 55.7739 115.121 55.7265C115.046 55.6791 114.961 55.6554 114.864 55.6554C114.792 55.6554 114.724 55.67 114.661 55.699C114.599 55.7273 114.544 55.7663 114.496 55.8159C114.45 55.8656 114.413 55.9226 114.386 55.9868C114.36 56.0502 114.346 56.1171 114.346 56.1874C114.346 56.2806 114.368 56.3678 114.412 56.4488C114.456 56.5298 114.516 56.5951 114.593 56.6448C114.67 56.6945 114.757 56.7193 114.855 56.7193Z" fill="#222C3A"/>
<path d="M133.301 51.34V49.5095" stroke="#222C3A" stroke-width="0.269033"/>
<path d="M131.73 56.9395L132.78 54.8621V54.8437H131.57V54.5915H133.074V54.8575L132.028 56.9395H131.73Z" fill="#222C3A"/>
<path d="M151.164 51.34V49.5095" stroke="#222C3A" stroke-width="0.269033"/>
<path d="M150.075 56.9716C149.917 56.9716 149.778 56.9437 149.657 56.8879C149.537 56.8313 149.444 56.7537 149.376 56.6551C149.309 56.5558 149.276 56.4427 149.277 56.3158C149.276 56.2164 149.295 56.1247 149.335 56.0406C149.375 55.9558 149.429 55.8851 149.498 55.8285C149.568 55.7712 149.645 55.7349 149.731 55.7196V55.7059C149.618 55.6768 149.529 55.6138 149.462 55.5167C149.396 55.4189 149.363 55.3077 149.364 55.1831C149.363 55.0639 149.393 54.9572 149.454 54.8632C149.516 54.7692 149.6 54.6951 149.707 54.6408C149.814 54.5866 149.937 54.5594 150.075 54.5594C150.211 54.5594 150.332 54.5866 150.439 54.6408C150.546 54.6951 150.63 54.7692 150.691 54.8632C150.753 54.9572 150.785 55.0639 150.785 55.1831C150.785 55.3077 150.751 55.4189 150.683 55.5167C150.617 55.6138 150.529 55.6768 150.419 55.7059V55.7196C150.503 55.7349 150.58 55.7712 150.648 55.8285C150.716 55.8851 150.77 55.9558 150.811 56.0406C150.851 56.1247 150.872 56.2164 150.873 56.3158C150.872 56.4427 150.837 56.5558 150.769 56.6551C150.702 56.7537 150.609 56.8313 150.489 56.8879C150.369 56.9437 150.231 56.9716 150.075 56.9716ZM150.075 56.7193C150.181 56.7193 150.273 56.7021 150.35 56.6677C150.427 56.6334 150.487 56.5848 150.529 56.5221C150.571 56.4595 150.592 56.3861 150.593 56.302C150.592 56.2134 150.569 56.135 150.524 56.067C150.479 55.999 150.417 55.9455 150.339 55.9065C150.262 55.8675 150.174 55.848 150.075 55.848C149.975 55.848 149.885 55.8675 149.806 55.9065C149.728 55.9455 149.667 55.999 149.622 56.067C149.577 56.135 149.556 56.2134 149.556 56.302C149.556 56.3861 149.576 56.4595 149.617 56.5221C149.659 56.5848 149.719 56.6334 149.797 56.6677C149.875 56.7021 149.968 56.7193 150.075 56.7193ZM150.075 55.605C150.159 55.605 150.233 55.5882 150.298 55.5545C150.364 55.5209 150.416 55.4739 150.453 55.4135C150.49 55.3532 150.51 55.2825 150.51 55.2014C150.51 55.122 150.491 55.0528 150.454 54.9939C150.417 54.9343 150.367 54.8885 150.302 54.8564C150.237 54.8235 150.161 54.8071 150.075 54.8071C149.987 54.8071 149.91 54.8235 149.844 54.8564C149.778 54.8885 149.728 54.9343 149.692 54.9939C149.656 55.0528 149.638 55.122 149.639 55.2014C149.638 55.2825 149.656 55.3532 149.693 55.4135C149.73 55.4739 149.782 55.5209 149.848 55.5545C149.913 55.5882 149.989 55.605 150.075 55.605Z" fill="#222C3A"/>
<path d="M169.035 51.34V49.5095" stroke="#222C3A" stroke-width="0.269033"/>
<path d="M168.429 54.5594C168.525 54.5602 168.621 54.5785 168.717 54.6145C168.814 54.6504 168.902 54.71 168.981 54.7933C169.061 54.8758 169.124 54.9886 169.173 55.1315C169.221 55.2744 169.245 55.4537 169.245 55.6692C169.245 55.8778 169.225 56.0632 169.185 56.2252C169.146 56.3865 169.09 56.5225 169.016 56.6334C168.942 56.7442 168.853 56.8282 168.747 56.8856C168.643 56.9429 168.524 56.9716 168.392 56.9716C168.26 56.9716 168.143 56.9456 168.04 56.8936C167.937 56.8409 167.853 56.7679 167.788 56.6746C167.723 56.5806 167.681 56.4717 167.663 56.3479H167.942C167.968 56.4557 168.018 56.5447 168.093 56.615C168.168 56.6846 168.268 56.7193 168.392 56.7193C168.573 56.7193 168.716 56.6402 168.821 56.482C168.926 56.3238 168.979 56.1003 168.979 55.8113H168.96C168.918 55.8756 168.867 55.931 168.808 55.9776C168.749 56.0242 168.684 56.0601 168.612 56.0854C168.54 56.1106 168.464 56.1232 168.383 56.1232C168.248 56.1232 168.125 56.0899 168.012 56.0234C167.901 55.9562 167.811 55.8641 167.744 55.7471C167.678 55.6294 167.644 55.4949 167.644 55.3436C167.644 55.1999 167.676 55.0685 167.741 54.9492C167.806 54.8292 167.897 54.7337 168.014 54.6626C168.131 54.5915 168.27 54.5571 168.429 54.5594ZM168.429 54.8116C168.332 54.8116 168.245 54.8357 168.168 54.8839C168.092 54.9313 168.031 54.9955 167.986 55.0765C167.942 55.1567 167.92 55.2458 167.92 55.3436C167.92 55.4414 167.941 55.5305 167.984 55.6107C168.027 55.6902 168.087 55.7536 168.161 55.801C168.237 55.8477 168.323 55.871 168.419 55.871C168.492 55.871 168.56 55.8568 168.622 55.8285C168.685 55.7995 168.74 55.7601 168.786 55.7105C168.834 55.66 168.871 55.6031 168.897 55.5396C168.924 55.4754 168.938 55.4086 168.938 55.339C168.938 55.2473 168.915 55.1613 168.871 55.0811C168.828 55.0008 168.767 54.9358 168.69 54.8862C168.614 54.8365 168.526 54.8116 168.429 54.8116Z" fill="#222C3A"/>
<path d="M7.57812 1.08032V49.8944" stroke="#222C3A" stroke-width="0.269033"/>
<path d="M5.96094 49.8939H7.57458" stroke="#222C3A" stroke-width="0.269033"/>
<path d="M3.43644 50.5648C3.26371 50.5648 3.11658 50.5178 2.99506 50.4238C2.87353 50.329 2.78067 50.1918 2.71647 50.0122C2.65227 49.8319 2.62017 49.614 2.62017 49.3588C2.62017 49.105 2.65227 48.8883 2.71647 48.7087C2.78144 48.5283 2.87468 48.3908 2.9962 48.296C3.11849 48.2005 3.26524 48.1527 3.43644 48.1527C3.60764 48.1527 3.75401 48.2005 3.87553 48.296C3.99782 48.3908 4.09106 48.5283 4.15526 48.7087C4.22023 48.8883 4.25271 49.105 4.25271 49.3588C4.25271 49.614 4.22061 49.8319 4.15641 50.0122C4.09221 50.1918 3.99934 50.329 3.87782 50.4238C3.7563 50.5178 3.60917 50.5648 3.43644 50.5648ZM3.43644 50.3126C3.60764 50.3126 3.74063 50.2301 3.8354 50.065C3.93018 49.8999 3.97756 49.6645 3.97756 49.3588C3.97756 49.1555 3.95578 48.9823 3.91221 48.8394C3.86941 48.6965 3.80751 48.5876 3.72649 48.5127C3.64624 48.4378 3.54956 48.4003 3.43644 48.4003C3.26677 48.4003 3.13416 48.484 3.03862 48.6514C2.94309 48.818 2.89532 49.0538 2.89532 49.3588C2.89532 49.5621 2.91672 49.7348 2.95952 49.8769C3.00232 50.0191 3.06384 50.1273 3.1441 50.2014C3.22511 50.2755 3.32256 50.3126 3.43644 50.3126Z" fill="#222C3A"/>
<path d="M5.96094 37.6899H7.57458" stroke="#222C3A" stroke-width="0.269033"/>
<path d="M3.42612 38.3608C3.27479 38.3608 3.13989 38.3348 3.02143 38.2829C2.90372 38.2309 2.8101 38.1587 2.74055 38.0662C2.67176 37.973 2.63431 37.8648 2.62819 37.7418H2.9171C2.92321 37.8174 2.9492 37.8828 2.99506 37.9378C3.04092 37.9921 3.10091 38.0341 3.17505 38.0639C3.24919 38.0937 3.33135 38.1086 3.42154 38.1086C3.52242 38.1086 3.61185 38.091 3.6898 38.0559C3.76776 38.0207 3.82891 37.9718 3.87324 37.9091C3.91756 37.8465 3.93973 37.7739 3.93973 37.6913C3.93973 37.6049 3.91833 37.5289 3.87553 37.4632C3.83273 37.3967 3.77006 37.3447 3.68751 37.3073C3.60497 37.2698 3.50408 37.2511 3.38485 37.2511H3.19683V36.9989H3.38485C3.47809 36.9989 3.55987 36.982 3.63019 36.9484C3.70127 36.9148 3.75668 36.8674 3.79642 36.8063C3.83693 36.7451 3.85719 36.6733 3.85719 36.5907C3.85719 36.5112 3.83961 36.4421 3.80445 36.3832C3.76929 36.3244 3.71961 36.2785 3.65541 36.2456C3.59197 36.2128 3.51707 36.1963 3.43071 36.1963C3.34969 36.1963 3.27326 36.2112 3.20142 36.2411C3.13034 36.2701 3.07225 36.3125 3.02716 36.3683C2.98206 36.4233 2.95761 36.4898 2.95379 36.5678H2.67864C2.68322 36.4447 2.72029 36.337 2.78984 36.2445C2.85939 36.1513 2.95035 36.0786 3.0627 36.0267C3.17581 35.9747 3.30001 35.9487 3.43529 35.9487C3.58051 35.9487 3.70509 35.9781 3.80903 36.037C3.91298 36.0951 3.99285 36.1719 4.04864 36.2674C4.10444 36.363 4.13233 36.4661 4.13233 36.577C4.13233 36.7092 4.09756 36.8219 4.02801 36.9152C3.95922 37.0084 3.86559 37.073 3.74713 37.1089V37.1273C3.8954 37.1517 4.01119 37.2148 4.0945 37.3164C4.17781 37.4173 4.21946 37.5423 4.21946 37.6913C4.21946 37.8189 4.18469 37.9336 4.11514 38.0352C4.04635 38.1361 3.95234 38.2156 3.83311 38.2737C3.71388 38.3318 3.57822 38.3608 3.42612 38.3608Z" fill="#222C3A"/>
<path d="M5.96094 25.4866H7.57458" stroke="#222C3A" stroke-width="0.269033"/>
<path d="M3.45335 26.1575C3.35705 26.1559 3.26075 26.1376 3.16445 26.1024C3.06814 26.0673 2.98025 26.008 2.90076 25.9247C2.82128 25.8407 2.75746 25.7272 2.70931 25.5842C2.66116 25.4406 2.63708 25.2602 2.63708 25.0431C2.63708 24.8352 2.65657 24.651 2.69555 24.4905C2.73453 24.3293 2.79109 24.1936 2.86522 24.0835C2.93936 23.9727 3.02878 23.8886 3.13349 23.8313C3.23896 23.774 3.35781 23.7453 3.49004 23.7453C3.6215 23.7453 3.73843 23.7717 3.84085 23.8244C3.94403 23.8764 4.0281 23.949 4.09307 24.0423C4.15803 24.1355 4.20007 24.2429 4.21918 24.3644H3.93944C3.91346 24.259 3.86301 24.1714 3.78811 24.1019C3.71321 24.0323 3.61385 23.9976 3.49004 23.9976C3.30813 23.9976 3.16483 24.0767 3.06012 24.2349C2.95617 24.3931 2.90382 24.6151 2.90306 24.901H2.9214C2.9642 24.836 3.01502 24.7806 3.07388 24.7347C3.13349 24.6881 3.19922 24.6522 3.27106 24.627C3.34291 24.6017 3.41896 24.5891 3.49921 24.5891C3.63372 24.5891 3.75678 24.6228 3.86836 24.69C3.97995 24.7565 4.06937 24.8486 4.13663 24.9663C4.20389 25.0832 4.23752 25.2174 4.23752 25.3687C4.23752 25.5139 4.20504 25.6469 4.14007 25.7677C4.07511 25.8877 3.98377 25.9832 3.86607 26.0543C3.74913 26.1246 3.61156 26.159 3.45335 26.1575ZM3.45335 25.9052C3.54965 25.9052 3.63602 25.8812 3.71245 25.833C3.78964 25.7849 3.8504 25.7203 3.89473 25.6393C3.93983 25.5583 3.96237 25.4681 3.96237 25.3687C3.96237 25.2716 3.94059 25.1834 3.89702 25.1039C3.85422 25.0236 3.79499 24.9598 3.71933 24.9124C3.64442 24.865 3.55882 24.8413 3.46252 24.8413C3.38991 24.8413 3.32227 24.8559 3.2596 24.8849C3.19693 24.9132 3.1419 24.9522 3.09451 25.0018C3.04789 25.0515 3.0112 25.1085 2.98445 25.1727C2.9577 25.2361 2.94433 25.303 2.94433 25.3733C2.94433 25.4665 2.96611 25.5537 3.00967 25.6347C3.054 25.7157 3.11438 25.7811 3.19081 25.8307C3.26801 25.8804 3.35552 25.9052 3.45335 25.9052Z" fill="#222C3A"/>
<path d="M5.96094 13.2828H7.57458" stroke="#222C3A" stroke-width="0.269033"/>
<path d="M3.42125 11.5416C3.51755 11.5424 3.61385 11.5607 3.71015 11.5966C3.80646 11.6326 3.89435 11.6922 3.97384 11.7755C4.05332 11.858 4.11714 11.9708 4.16529 12.1137C4.21344 12.2566 4.23752 12.4358 4.23752 12.6514C4.23752 12.86 4.21765 13.0454 4.1779 13.2074C4.13892 13.3687 4.08237 13.5047 4.00823 13.6155C3.93486 13.7264 3.84543 13.8104 3.73996 13.8677C3.63525 13.9251 3.51679 13.9537 3.38456 13.9537C3.2531 13.9537 3.13578 13.9277 3.0326 13.8758C2.93019 13.823 2.84612 13.75 2.78039 13.6568C2.71542 13.5628 2.67377 13.4539 2.65542 13.3301H2.93516C2.96038 13.4378 3.01044 13.5269 3.08534 13.5972C3.16101 13.6667 3.26075 13.7015 3.38456 13.7015C3.5657 13.7015 3.70863 13.6224 3.81333 13.4642C3.91881 13.306 3.97154 13.0824 3.97154 12.7935H3.9532C3.9104 12.8577 3.85957 12.9131 3.80072 12.9598C3.74187 13.0064 3.67652 13.0423 3.60468 13.0675C3.53284 13.0927 3.45641 13.1054 3.37539 13.1054C3.24087 13.1054 3.11744 13.0721 3.00509 13.0056C2.8935 12.9384 2.80408 12.8463 2.73682 12.7293C2.67033 12.6116 2.63708 12.4771 2.63708 12.3258C2.63708 12.1821 2.66918 12.0506 2.73338 11.9314C2.79835 11.8114 2.8893 11.7159 3.00624 11.6448C3.12394 11.5737 3.26228 11.5393 3.42125 11.5416ZM3.42125 11.7938C3.32495 11.7938 3.2382 11.8179 3.16101 11.8661C3.08458 11.9134 3.02381 11.9776 2.97872 12.0587C2.93439 12.1389 2.91223 12.2279 2.91223 12.3258C2.91223 12.4236 2.93363 12.5126 2.97643 12.5929C3.01999 12.6724 3.07923 12.7358 3.15413 12.7832C3.22979 12.8298 3.31578 12.8531 3.41208 12.8531C3.48469 12.8531 3.55233 12.839 3.615 12.8107C3.67767 12.7817 3.73232 12.7423 3.77894 12.6926C3.82633 12.6422 3.8634 12.5853 3.89015 12.5218C3.9169 12.4576 3.93027 12.3907 3.93027 12.3212C3.93027 12.2295 3.90811 12.1435 3.86378 12.0632C3.82021 11.983 3.75983 11.918 3.68264 11.8683C3.60621 11.8187 3.51908 11.7938 3.42125 11.7938Z" fill="#222C3A"/>
<path d="M5.95312 1.08032H7.56677" stroke="#222C3A" stroke-width="0.269033"/>
<path d="M1.71075 0.651833V2.99976H1.42644V0.949909H1.41268L0.839455 1.33053V1.04163L1.42644 0.651833H1.71075ZM2.38601 2.99976V2.7934L3.16101 1.94502C3.25196 1.84567 3.32686 1.7593 3.38571 1.68593C3.44456 1.61179 3.48813 1.54224 3.51641 1.47727C3.54545 1.41155 3.55997 1.34276 3.55997 1.27091C3.55997 1.18837 3.5401 1.11691 3.50036 1.05653C3.46138 0.996149 3.40788 0.949527 3.33986 0.916662C3.27183 0.883798 3.1954 0.867365 3.11057 0.867365C3.02038 0.867365 2.94166 0.88609 2.8744 0.923541C2.8079 0.960227 2.75631 1.01182 2.71963 1.07831C2.68371 1.14481 2.66574 1.22276 2.66574 1.31219H2.39518C2.39518 1.17461 2.4269 1.05385 2.49034 0.949909C2.55377 0.845965 2.64014 0.764949 2.74944 0.706863C2.85949 0.648776 2.98293 0.619733 3.11974 0.619733C3.25731 0.619733 3.37922 0.648776 3.48545 0.706863C3.59169 0.764949 3.675 0.84329 3.73538 0.941884C3.79576 1.04048 3.82595 1.15016 3.82595 1.27091C3.82595 1.35728 3.81028 1.44173 3.77894 1.52428C3.74837 1.60606 3.69487 1.69739 3.61844 1.79828C3.54278 1.8984 3.43769 2.02069 3.30317 2.16514L2.7758 2.72919V2.74754H3.86722V2.99976H2.38601Z" fill="#222C3A"/>
<path d="M7.57422 49.5108L25.4438 8.83245H43.3134L61.183 33.2395L79.0526 16.9681H96.9222L114.792 25.1038L132.661 49.5108L150.531 0.696777L168.401 45.443V49.5108H150.531H132.661H114.792H96.9222H79.0526H61.183H43.3134H25.4438H7.57422Z" fill="#717171" fill-opacity="0.6"/>
<path d="M7.57422 21.036L25.4438 41.3751L43.3134 12.9003L61.183 29.1716L79.0526 45.443L96.9222 8.83245L114.792 0.696777L132.661 29.1716L150.531 49.5108L168.401 41.3751V49.5108H150.531H132.661H114.792H96.9222H79.0526H61.183H43.3134H25.4438H7.57422V21.036Z" fill="#1F2937" fill-opacity="0.6"/>
<path d="M7.57422 8.83187L25.4438 16.9675L43.3134 4.76404L61.183 49.5102L79.0526 16.9675L96.9222 25.1032L114.792 49.5102L132.661 12.8997L150.531 49.5102L168.401 41.3746V49.5102H150.531H132.661H114.792H96.9222H79.0526H61.183H43.3134H25.4438H7.57422V8.83187Z" fill="#D0D4DA" fill-opacity="0.6"/>
</g>
<defs>
<clipPath id="clip0_994_9500">
<rect width="170" height="58" fill="white"/>
</clipPath>
</defs>
</svg>
