<svg width="170" height="92" viewBox="0 0 170 92" fill="none" xmlns="http://www.w3.org/2000/svg">
<g clip-path="url(#clip0_994_9780)">
<path d="M25.553 88.5202H25.2637L26.1003 86.2418H26.3851L27.2218 88.5202H26.9325L26.2516 86.6022H26.2338L25.553 88.5202ZM25.6598 87.6302H26.8257V87.8749H25.6598V87.6302Z" fill="#373D3F"/>
<path d="M25.553 88.5202V88.7813H25.7373L25.799 88.6075L25.553 88.5202ZM25.2637 88.5202L25.0187 88.4302L24.8897 88.7813H25.2637V88.5202ZM26.1003 86.2418V85.9807H25.9181L25.8553 86.1518L26.1003 86.2418ZM26.3851 86.2418L26.6302 86.1518L26.5674 85.9807H26.3851V86.2418ZM27.2218 88.5202V88.7813H27.5957L27.4668 88.4302L27.2218 88.5202ZM26.9325 88.5202L26.6865 88.6075L26.7482 88.7813H26.9325V88.5202ZM26.2516 86.6022L26.4977 86.5149L26.436 86.3411H26.2516V86.6022ZM26.2338 86.6022V86.3411H26.0495L25.9878 86.5149L26.2338 86.6022ZM25.6598 87.6302V87.3691H25.3987V87.6302H25.6598ZM26.8257 87.6302H27.0868V87.3691H26.8257V87.6302ZM26.8257 87.8749V88.136H27.0868V87.8749H26.8257ZM25.6598 87.8749H25.3987V88.136H25.6598V87.8749ZM25.553 88.2591H25.2637V88.7813H25.553V88.2591ZM25.5088 88.6102L26.3454 86.3317L25.8553 86.1518L25.0187 88.4302L25.5088 88.6102ZM26.1003 86.5028H26.3851V85.9807H26.1003V86.5028ZM26.1401 86.3317L26.9767 88.6102L27.4668 88.4302L26.6302 86.1518L26.1401 86.3317ZM27.2218 88.2591H26.9325V88.7813H27.2218V88.2591ZM27.1785 88.4329L26.4977 86.5149L26.0056 86.6896L26.6865 88.6075L27.1785 88.4329ZM26.2516 86.3411H26.2338V86.8633H26.2516V86.3411ZM25.9878 86.5149L25.307 88.4329L25.799 88.6075L26.4799 86.6896L25.9878 86.5149ZM25.6598 87.8913H26.8257V87.3691H25.6598V87.8913ZM26.5646 87.6302V87.8749H27.0868V87.6302H26.5646ZM26.8257 87.6139H25.6598V88.136H26.8257V87.6139ZM25.9209 87.8749V87.6302H25.3987V87.8749H25.9209Z" fill="#1F2937"/>
<path d="M46.0071 88.5202V86.2418H46.8037C46.9624 86.2418 47.0933 86.2692 47.1964 86.3241C47.2995 86.3782 47.3763 86.4513 47.4267 86.5433C47.4771 86.6345 47.5023 86.7357 47.5023 86.847C47.5023 86.9449 47.4849 87.0257 47.4501 87.0895C47.4159 87.1533 47.3707 87.2037 47.3143 87.2408C47.2587 87.2779 47.1983 87.3053 47.133 87.3231V87.3454C47.2027 87.3498 47.2728 87.3743 47.3433 87.4188C47.4137 87.4633 47.4727 87.5271 47.5201 87.6102C47.5676 87.6932 47.5913 87.7948 47.5913 87.915C47.5913 88.0292 47.5654 88.1319 47.5135 88.2232C47.4615 88.3144 47.3796 88.3867 47.2676 88.4401C47.1556 88.4935 47.0099 88.5202 46.8304 88.5202H46.0071ZM46.283 88.2754H46.8304C47.0106 88.2754 47.1385 88.2406 47.2142 88.1709C47.2906 88.1004 47.3288 88.0151 47.3288 87.915C47.3288 87.8379 47.3091 87.7667 47.2698 87.7014C47.2305 87.6354 47.1745 87.5827 47.1018 87.5434C47.0291 87.5034 46.9431 87.4833 46.8437 87.4833H46.283V88.2754ZM46.283 87.243H46.7948C46.8778 87.243 46.9528 87.2267 47.0195 87.1941C47.087 87.1614 47.1404 87.1155 47.1797 87.0561C47.2198 86.9968 47.2398 86.9271 47.2398 86.847C47.2398 86.7468 47.2049 86.6619 47.1352 86.5922C47.0655 86.5217 46.955 86.4865 46.8037 86.4865H46.283V87.243Z" fill="#373D3F"/>
<path d="M46.0071 88.5202H45.746V88.7813H46.0071V88.5202ZM46.0071 86.2418V85.9807H45.746V86.2418H46.0071ZM47.1964 86.3241L47.0737 86.5545L47.075 86.5552L47.1964 86.3241ZM47.4267 86.5433L47.1978 86.6688L47.1982 86.6696L47.4267 86.5433ZM47.4501 87.0895L47.221 86.9643L47.2198 86.9664L47.4501 87.0895ZM47.3143 87.2408L47.1708 87.0227L47.1695 87.0236L47.3143 87.2408ZM47.133 87.3231L47.0643 87.0713L46.8719 87.1237V87.3231H47.133ZM47.133 87.3454H46.8719V87.5903L47.1164 87.6059L47.133 87.3454ZM47.3433 87.4188L47.2038 87.6395L47.2038 87.6395L47.3433 87.4188ZM47.5135 88.2232L47.7404 88.3523L47.5135 88.2232ZM47.2676 88.4401L47.1552 88.2044L47.2676 88.4401ZM46.283 88.2754H46.0219V88.5365H46.283V88.2754ZM47.2142 88.1709L47.3911 88.3629L47.3912 88.3628L47.2142 88.1709ZM47.2698 87.7014L47.0455 87.835L47.0462 87.8361L47.2698 87.7014ZM47.1018 87.5434L46.9758 87.7721L46.9776 87.773L47.1018 87.5434ZM46.283 87.4833V87.2223H46.0219V87.4833H46.283ZM46.283 87.243H46.0219V87.5041H46.283V87.243ZM47.0195 87.1941L46.9059 86.959L46.9048 86.9595L47.0195 87.1941ZM47.1797 87.0561L46.9633 86.9101L46.9621 86.9119L47.1797 87.0561ZM47.1352 86.5922L46.9496 86.7758L46.9506 86.7768L47.1352 86.5922ZM46.283 86.4865V86.2254H46.0219V86.4865H46.283ZM46.2682 88.5202V86.2418H45.746V88.5202H46.2682ZM46.0071 86.5028H46.8037V85.9807H46.0071V86.5028ZM46.8037 86.5028C46.9343 86.5028 47.0195 86.5257 47.0737 86.5545L47.3191 86.0936C47.1671 86.0127 46.9905 85.9807 46.8037 85.9807V86.5028ZM47.075 86.5552C47.1379 86.5882 47.1747 86.6267 47.1978 86.6688L47.6556 86.4177C47.5778 86.2759 47.4611 86.1682 47.3178 86.093L47.075 86.5552ZM47.1982 86.6696C47.2258 86.7195 47.2413 86.7768 47.2413 86.847H47.7634C47.7634 86.6946 47.7284 86.5494 47.6552 86.4169L47.1982 86.6696ZM47.2413 86.847C47.2413 86.9157 47.2288 86.9499 47.221 86.9643L47.6791 87.2147C47.741 87.1015 47.7634 86.9741 47.7634 86.847H47.2413ZM47.2198 86.9664C47.2047 86.9946 47.1882 87.0113 47.1708 87.0227L47.4578 87.4589C47.5532 87.3962 47.6271 87.312 47.6803 87.2126L47.2198 86.9664ZM47.1695 87.0236C47.1375 87.0449 47.1028 87.0608 47.0643 87.0713L47.2017 87.575C47.2937 87.5499 47.3799 87.5109 47.4591 87.458L47.1695 87.0236ZM46.8719 87.3231V87.3454H47.3941V87.3231H46.8719ZM47.1164 87.6059C47.1348 87.6071 47.1632 87.6139 47.2038 87.6395L47.4827 87.1981C47.3824 87.1347 47.2706 87.0926 47.1496 87.0848L47.1164 87.6059ZM47.2038 87.6395C47.2332 87.6581 47.264 87.6882 47.2935 87.7397L47.7468 87.4806C47.6813 87.366 47.5943 87.2686 47.4827 87.1981L47.2038 87.6395ZM47.2935 87.7397C47.3133 87.7744 47.3303 87.8288 47.3303 87.915H47.8524C47.8524 87.7609 47.8219 87.612 47.7468 87.4806L47.2935 87.7397ZM47.3303 87.915C47.3303 87.988 47.3141 88.0456 47.2866 88.094L47.7404 88.3523C47.8166 88.2183 47.8524 88.0704 47.8524 87.915H47.3303ZM47.2866 88.094C47.2656 88.1309 47.228 88.1697 47.1552 88.2044L47.38 88.6758C47.5311 88.6037 47.6575 88.4979 47.7404 88.3523L47.2866 88.094ZM47.1552 88.2044C47.0904 88.2354 46.9871 88.2591 46.8304 88.2591V88.7813C47.0327 88.7813 47.2208 88.7516 47.38 88.6758L47.1552 88.2044ZM46.8304 88.2591H46.0071V88.7813H46.8304V88.2591ZM46.283 88.5365H46.8304V88.0144H46.283V88.5365ZM46.8304 88.5365C47.0311 88.5365 47.2421 88.5002 47.3911 88.3629L47.0373 87.9789C47.0378 87.9784 47.0278 87.9879 46.9929 87.9974C46.9576 88.007 46.905 88.0144 46.8304 88.0144V88.5365ZM47.3912 88.3628C47.5189 88.245 47.5899 88.0911 47.5899 87.915H47.0677C47.0677 87.9391 47.0623 87.9558 47.0372 87.979L47.3912 88.3628ZM47.5899 87.915C47.5899 87.791 47.5576 87.6732 47.4935 87.5667L47.0462 87.8361C47.0607 87.8602 47.0677 87.8847 47.0677 87.915H47.5899ZM47.4941 87.5678C47.4289 87.4583 47.3369 87.3737 47.226 87.3138L46.9776 87.773C47.0121 87.7917 47.0321 87.8125 47.0455 87.835L47.4941 87.5678ZM47.2278 87.3148C47.1096 87.2496 46.9785 87.2223 46.8437 87.2223V87.7444C46.9077 87.7444 46.9487 87.7571 46.9758 87.7721L47.2278 87.3148ZM46.8437 87.2223H46.283V87.7444H46.8437V87.2223ZM46.0219 87.4833V88.2754H46.5441V87.4833H46.0219ZM46.283 87.5041H46.7948V86.982H46.283V87.5041ZM46.7948 87.5041C46.9129 87.5041 47.0277 87.4807 47.1342 87.4286L46.9048 86.9595C46.8778 86.9727 46.8428 86.982 46.7948 86.982V87.5041ZM47.1332 87.4291C47.2405 87.3772 47.3308 87.3008 47.3974 87.2003L46.9621 86.9119C46.95 86.9301 46.9335 86.9457 46.9059 86.959L47.1332 87.4291ZM47.3961 87.2022C47.4687 87.0947 47.5009 86.9727 47.5009 86.847H46.9787C46.9787 86.8814 46.9709 86.8989 46.9633 86.9101L47.3961 87.2022ZM47.5009 86.847C47.5009 86.6788 47.4393 86.5271 47.3198 86.4076L46.9506 86.7768C46.9705 86.7967 46.9787 86.8149 46.9787 86.847H47.5009ZM47.3208 86.4086C47.1814 86.2677 46.9886 86.2254 46.8037 86.2254V86.7476C46.9213 86.7476 46.9495 86.7757 46.9496 86.7758L47.3208 86.4086ZM46.8037 86.2254H46.283V86.7476H46.8037V86.2254ZM46.0219 86.4865V87.243H46.5441V86.4865H46.0219Z" fill="#1F2937"/>
<path d="M68.2275 86.9538H67.9516C67.9353 86.8744 67.9067 86.8047 67.8659 86.7446C67.8259 86.6845 67.7769 86.6341 67.7191 86.5933C67.662 86.5518 67.5986 86.5206 67.5289 86.4999C67.4591 86.4791 67.3864 86.4687 67.3108 86.4687C67.1728 86.4687 67.0479 86.5036 66.9359 86.5733C66.8246 86.643 66.736 86.7457 66.67 86.8815C66.6047 87.0172 66.5721 87.1837 66.5721 87.381C66.5721 87.5783 66.6047 87.7448 66.67 87.8805C66.736 88.0162 66.8246 88.119 66.9359 88.1887C67.0479 88.2584 67.1728 88.2932 67.3108 88.2932C67.3864 88.2932 67.4591 88.2829 67.5289 88.2621C67.5986 88.2413 67.662 88.2106 67.7191 88.1698C67.7769 88.1282 67.8259 88.0774 67.8659 88.0173C67.9067 87.9565 67.9353 87.8868 67.9516 87.8082H68.2275C68.2067 87.9246 68.1689 88.0288 68.114 88.1208C68.0592 88.2128 67.9909 88.291 67.9093 88.3555C67.8277 88.4193 67.7361 88.4679 67.6345 88.5013C67.5337 88.5347 67.4258 88.5514 67.3108 88.5514C67.1165 88.5514 66.9437 88.5039 66.7924 88.409C66.6411 88.314 66.522 88.179 66.4352 88.004C66.3485 87.829 66.3051 87.6213 66.3051 87.381C66.3051 87.1407 66.3485 86.933 66.4352 86.758C66.522 86.5829 66.6411 86.4479 66.7924 86.353C66.9437 86.2581 67.1165 86.2106 67.3108 86.2106C67.4258 86.2106 67.5337 86.2273 67.6345 86.2607C67.7361 86.294 67.8277 86.343 67.9093 86.4075C67.9909 86.4713 68.0592 86.5492 68.114 86.6412C68.1689 86.7324 68.2067 86.8366 68.2275 86.9538Z" fill="#373D3F"/>
<path d="M68.2275 86.9538V87.2148H68.5389L68.4846 86.9082L68.2275 86.9538ZM67.9516 86.9538L67.6959 87.0064L67.7388 87.2148H67.9516V86.9538ZM67.8659 86.7446L67.6487 86.8894L67.65 86.8913L67.8659 86.7446ZM67.7191 86.5933L67.5655 86.8045L67.5686 86.8067L67.7191 86.5933ZM67.5289 86.4999L67.4543 86.7501L67.5289 86.4999ZM66.9359 86.5733L66.7979 86.3517L66.7972 86.3521L66.9359 86.5733ZM66.67 86.8815L66.4352 86.7673L66.4347 86.7683L66.67 86.8815ZM66.67 87.8805L66.4347 87.9936L66.4352 87.9947L66.67 87.8805ZM66.9359 88.1887L66.7972 88.4099L66.7979 88.4103L66.9359 88.1887ZM67.5289 88.2621L67.4543 88.0119H67.4543L67.5289 88.2621ZM67.7191 88.1698L67.8708 88.3822L67.8714 88.3818L67.7191 88.1698ZM67.8659 88.0173L67.6491 87.8719L67.6487 87.8725L67.8659 88.0173ZM67.9516 87.8082V87.5471H67.7392L67.696 87.7551L67.9516 87.8082ZM68.2275 87.8082L68.4845 87.854L68.5393 87.5471H68.2275V87.8082ZM68.114 88.1208L67.8899 87.987V87.987L68.114 88.1208ZM67.9093 88.3555L68.0701 88.5612L68.0713 88.5603L67.9093 88.3555ZM67.6345 88.5013L67.5531 88.2533L67.5525 88.2534L67.6345 88.5013ZM66.7924 88.409L66.6536 88.6301L66.7924 88.409ZM66.4352 88.004L66.6691 87.888L66.4352 88.004ZM67.6345 86.2607L67.5525 86.5085L67.5531 86.5087L67.6345 86.2607ZM67.9093 86.4075L67.7474 86.6123L67.7485 86.6132L67.9093 86.4075ZM68.114 86.6412L67.8898 86.7749L67.8903 86.7757L68.114 86.6412ZM68.2275 86.6927H67.9516V87.2148H68.2275V86.6927ZM68.2073 86.9012C68.1849 86.7921 68.1441 86.6896 68.0819 86.598L67.65 86.8913C67.6693 86.9198 67.6857 86.9568 67.6959 87.0064L68.2073 86.9012ZM68.0832 86.5998C68.0256 86.5135 67.9542 86.4397 67.8695 86.38L67.5686 86.8067C67.5997 86.8286 67.6261 86.8556 67.6487 86.8894L68.0832 86.5998ZM67.8726 86.3822C67.7909 86.3227 67.7006 86.2786 67.6034 86.2497L67.4543 86.7501C67.4965 86.7626 67.5331 86.7809 67.5655 86.8045L67.8726 86.3822ZM67.6034 86.2497C67.5085 86.2214 67.4107 86.2076 67.3108 86.2076V86.7298C67.3622 86.7298 67.4097 86.7368 67.4543 86.7501L67.6034 86.2497ZM67.3108 86.2076C67.1264 86.2076 66.9532 86.255 66.7979 86.3517L67.0738 86.7949C67.1425 86.7522 67.2193 86.7298 67.3108 86.7298V86.2076ZM66.7972 86.3521C66.6386 86.4515 66.5193 86.5943 66.4352 86.7673L66.9048 86.9956C66.9527 86.8972 67.0106 86.8346 67.0745 86.7945L66.7972 86.3521ZM66.4347 86.7683C66.348 86.9485 66.311 87.1562 66.311 87.381H66.8332C66.8332 87.2112 66.8614 87.0859 66.9053 86.9946L66.4347 86.7683ZM66.311 87.381C66.311 87.6058 66.348 87.8134 66.4347 87.9936L66.9053 87.7674C66.8614 87.6761 66.8332 87.5507 66.8332 87.381H66.311ZM66.4352 87.9947C66.5193 88.1677 66.6386 88.3105 66.7972 88.4099L67.0745 87.9674C67.0106 87.9274 66.9527 87.8648 66.9048 87.7663L66.4352 87.9947ZM66.7979 88.4103C66.9532 88.507 67.1264 88.5543 67.3108 88.5543V88.0322C67.2193 88.0322 67.1425 88.0098 67.0738 87.967L66.7979 88.4103ZM67.3108 88.5543C67.4107 88.5543 67.5085 88.5406 67.6034 88.5123L67.4543 88.0119C67.4097 88.0252 67.3622 88.0322 67.3108 88.0322V88.5543ZM67.6034 88.5123C67.6997 88.4836 67.7894 88.4404 67.8708 88.3822L67.5673 87.9573C67.5346 87.9807 67.4974 87.9991 67.4543 88.0119L67.6034 88.5123ZM67.8714 88.3818C67.9551 88.3217 68.0259 88.248 68.0832 88.1622L67.6487 87.8725C67.6259 87.9068 67.5988 87.9347 67.5668 87.9577L67.8714 88.3818ZM68.0828 88.1628C68.1441 88.0714 68.1847 87.9697 68.2072 87.8612L67.696 87.7551C67.6859 87.8039 67.6694 87.8417 67.6491 87.8719L68.0828 88.1628ZM67.9516 88.0693H68.2275V87.5471H67.9516V88.0693ZM67.9705 87.7624C67.9547 87.851 67.927 87.9248 67.8899 87.987L68.3382 88.2546C68.4109 88.1328 68.4588 87.9983 68.4845 87.854L67.9705 87.7624ZM67.8899 87.987C67.8507 88.0526 67.8033 88.1065 67.7474 88.1508L68.0713 88.5603C68.1785 88.4755 68.2676 88.373 68.3382 88.2546L67.8899 87.987ZM67.7485 88.1499C67.6915 88.1944 67.6269 88.229 67.5531 88.2533L67.716 88.7493C67.8454 88.7068 67.964 88.6442 68.0701 88.5612L67.7485 88.1499ZM67.5525 88.2534C67.4802 88.2774 67.4002 88.2903 67.3108 88.2903V88.8124C67.4513 88.8124 67.5871 88.792 67.7166 88.7491L67.5525 88.2534ZM67.3108 88.2903C67.1611 88.2903 67.0372 88.2544 66.9311 88.1878L66.6536 88.6301C66.8501 88.7534 67.0719 88.8124 67.3108 88.8124V88.2903ZM66.9311 88.1878C66.8244 88.1209 66.7366 88.0241 66.6691 87.888L66.2013 88.12C66.3074 88.334 66.4577 88.5072 66.6536 88.6301L66.9311 88.1878ZM66.6691 87.888C66.6039 87.7564 66.5661 87.5901 66.5661 87.381H66.044C66.044 87.6524 66.0931 87.9015 66.2013 88.12L66.6691 87.888ZM66.5661 87.381C66.5661 87.1718 66.6039 87.0056 66.6691 86.8739L66.2013 86.642C66.0931 86.8604 66.044 87.1095 66.044 87.381H66.5661ZM66.6691 86.8739C66.7366 86.7379 66.8244 86.6411 66.9311 86.5742L66.6536 86.1319C66.4577 86.2548 66.3074 86.428 66.2013 86.642L66.6691 86.8739ZM66.9311 86.5742C67.0372 86.5076 67.1611 86.4717 67.3108 86.4717V85.9495C67.0719 85.9495 66.8501 86.0086 66.6536 86.1319L66.9311 86.5742ZM67.3108 86.4717C67.4002 86.4717 67.4802 86.4846 67.5525 86.5085L67.7166 86.0128C67.5871 85.97 67.4513 85.9495 67.3108 85.9495V86.4717ZM67.5531 86.5087C67.6264 86.5328 67.6906 86.5673 67.7474 86.6123L68.0713 86.2028C67.9649 86.1187 67.8459 86.0553 67.716 86.0126L67.5531 86.5087ZM67.7485 86.6132C67.8039 86.6565 67.8509 86.7097 67.8899 86.7749L68.3382 86.5074C68.2674 86.3887 68.178 86.2862 68.0701 86.2019L67.7485 86.6132ZM67.8903 86.7757C67.9269 86.8365 67.9546 86.9099 67.9704 86.9993L68.4846 86.9082C68.4589 86.7633 68.4109 86.6282 68.3377 86.5066L67.8903 86.7757Z" fill="#1F2937"/>
<path d="M87.611 88.5202H86.9078V86.2418H87.6421C87.8631 86.2418 88.0523 86.2874 88.2095 86.3786C88.3667 86.4691 88.4873 86.5993 88.5711 86.7691C88.6549 86.9382 88.6968 87.1407 88.6968 87.3765C88.6968 87.6139 88.6545 87.8182 88.57 87.9895C88.4854 88.1601 88.3623 88.2914 88.2006 88.3834C88.0389 88.4746 87.8424 88.5202 87.611 88.5202ZM87.1838 88.2754H87.5932C87.7815 88.2754 87.9377 88.2391 88.0615 88.1664C88.1854 88.0937 88.2777 87.9903 88.3385 87.856C88.3994 87.7218 88.4298 87.562 88.4298 87.3765C88.4298 87.1926 88.3997 87.0342 88.3397 86.9015C88.2796 86.768 88.1898 86.6656 88.0704 86.5944C87.951 86.5225 87.8023 86.4865 87.6243 86.4865H87.1838V88.2754Z" fill="#373D3F"/>
<path d="M86.9078 88.5202H86.6468V88.7813H86.9078V88.5202ZM86.9078 86.2418V85.9807H86.6468V86.2418H86.9078ZM88.2095 86.3786L88.0785 86.6044L88.0793 86.6049L88.2095 86.3786ZM88.5711 86.7691L88.3369 86.8846L88.3371 86.885L88.5711 86.7691ZM88.57 87.9895L88.8039 88.1055L88.8041 88.1051L88.57 87.9895ZM88.2006 88.3834L88.3289 88.6107L88.3297 88.6103L88.2006 88.3834ZM87.1838 88.2754H86.9227V88.5365H87.1838V88.2754ZM88.3397 86.9015L88.1016 87.0086L88.1018 87.0091L88.3397 86.9015ZM88.0704 86.5944L87.9357 86.8181L87.9367 86.8187L88.0704 86.5944ZM87.1838 86.4865V86.2254H86.9227V86.4865H87.1838ZM87.611 88.2591H86.9078V88.7813H87.611V88.2591ZM87.1689 88.5202V86.2418H86.6468V88.5202H87.1689ZM86.9078 86.5028H87.6421V85.9807H86.9078V86.5028ZM87.6421 86.5028C87.827 86.5028 87.9688 86.5408 88.0785 86.6044L88.3405 86.1528C88.1357 86.034 87.8992 85.9807 87.6421 85.9807V86.5028ZM88.0793 86.6049C88.1896 86.6684 88.275 86.759 88.3369 86.8846L88.8052 86.6536C88.6995 86.4395 88.5438 86.2698 88.3397 86.1523L88.0793 86.6049ZM88.3371 86.885C88.3992 87.0102 88.4357 87.1711 88.4357 87.3765H88.9579C88.9579 87.1103 88.9106 86.8662 88.805 86.6532L88.3371 86.885ZM88.4357 87.3765C88.4357 87.5833 88.3989 87.7462 88.3358 87.874L88.8041 88.1051C88.9101 87.8902 88.9579 87.6444 88.9579 87.3765H88.4357ZM88.336 87.8736C88.274 87.9987 88.1869 88.0908 88.0715 88.1564L88.3297 88.6103C88.5377 88.492 88.6968 88.3215 88.8039 88.1055L88.336 87.8736ZM88.0723 88.156C87.9583 88.2203 87.8083 88.2591 87.611 88.2591V88.7813C87.8764 88.7813 88.1195 88.7289 88.3289 88.6107L88.0723 88.156ZM87.1838 88.5365H87.5932V88.0144H87.1838V88.5365ZM87.5932 88.5365C87.8139 88.5365 88.0191 88.494 88.1937 88.3916L87.9294 87.9413C87.8562 87.9842 87.7492 88.0144 87.5932 88.0144V88.5365ZM88.1937 88.3916C88.3653 88.2909 88.4939 88.1457 88.5764 87.9638L88.1007 87.7483C88.0616 87.8348 88.0055 87.8966 87.9294 87.9413L88.1937 88.3916ZM88.5764 87.9638C88.6559 87.7881 88.6908 87.5898 88.6908 87.3765H88.1687C88.1687 87.5341 88.1428 87.6554 88.1007 87.7483L88.5764 87.9638ZM88.6908 87.3765C88.6908 87.1649 88.6564 86.9681 88.5775 86.7939L88.1018 87.0091C88.1431 87.1004 88.1687 87.2203 88.1687 87.3765H88.6908ZM88.5777 86.7944C88.4969 86.6148 88.372 86.4703 88.2041 86.3702L87.9367 86.8187C88.0076 86.861 88.0622 86.9212 88.1016 87.0086L88.5777 86.7944ZM88.2052 86.3708C88.0353 86.2684 87.8368 86.2254 87.6243 86.2254V86.7476C87.7678 86.7476 87.8668 86.7765 87.9357 86.8181L88.2052 86.3708ZM87.6243 86.2254H87.1838V86.7476H87.6243V86.2254ZM86.9227 86.4865V88.2754H87.4448V86.4865H86.9227Z" fill="#1F2937"/>
<path d="M107.105 88.5202V86.2418H108.48V86.4865H107.381V87.2564H108.409V87.5011H107.381V88.2754H108.498V88.5202H107.105Z" fill="#373D3F"/>
<path d="M107.105 88.5202H106.844V88.7813H107.105V88.5202ZM107.105 86.2418V85.9807H106.844V86.2418H107.105ZM108.48 86.2418H108.741V85.9807H108.48V86.2418ZM108.48 86.4865V86.7476H108.741V86.4865H108.48ZM107.381 86.4865V86.2254H107.12V86.4865H107.381ZM107.381 87.2564H107.12V87.5175H107.381V87.2564ZM108.409 87.2564H108.67V86.9953H108.409V87.2564ZM108.409 87.5011V87.7622H108.67V87.5011H108.409ZM107.381 87.5011V87.2401H107.12V87.5011H107.381ZM107.381 88.2754H107.12V88.5365H107.381V88.2754ZM108.498 88.2754H108.759V88.0144H108.498V88.2754ZM108.498 88.5202V88.7813H108.759V88.5202H108.498ZM107.366 88.5202V86.2418H106.844V88.5202H107.366ZM107.105 86.5028H108.48V85.9807H107.105V86.5028ZM108.219 86.2418V86.4865H108.741V86.2418H108.219ZM108.48 86.2254H107.381V86.7476H108.48V86.2254ZM107.12 86.4865V87.2564H107.642V86.4865H107.12ZM107.381 87.5175H108.409V86.9953H107.381V87.5175ZM108.148 87.2564V87.5011H108.67V87.2564H108.148ZM108.409 87.2401H107.381V87.7622H108.409V87.2401ZM107.12 87.5011V88.2754H107.642V87.5011H107.12ZM107.381 88.5365H108.498V88.0144H107.381V88.5365ZM108.237 88.2754V88.5202H108.759V88.2754H108.237ZM108.498 88.2591H107.105V88.7813H108.498V88.2591Z" fill="#1F2937"/>
<path d="M127.63 88.5202V86.2418H128.996V86.4865H127.906V87.2564H128.894V87.5011H127.906V88.5202H127.63Z" fill="#373D3F"/>
<path d="M127.63 88.5202H127.369V88.7813H127.63V88.5202ZM127.63 86.2418V85.9807H127.369V86.2418H127.63ZM128.996 86.2418H129.257V85.9807H128.996V86.2418ZM128.996 86.4865V86.7476H129.257V86.4865H128.996ZM127.906 86.4865V86.2254H127.645V86.4865H127.906ZM127.906 87.2564H127.645V87.5175H127.906V87.2564ZM128.894 87.2564H129.155V86.9953H128.894V87.2564ZM128.894 87.5011V87.7622H129.155V87.5011H128.894ZM127.906 87.5011V87.2401H127.645V87.5011H127.906ZM127.906 88.5202V88.7813H128.167V88.5202H127.906ZM127.891 88.5202V86.2418H127.369V88.5202H127.891ZM127.63 86.5028H128.996V85.9807H127.63V86.5028ZM128.735 86.2418V86.4865H129.257V86.2418H128.735ZM128.996 86.2254H127.906V86.7476H128.996V86.2254ZM127.645 86.4865V87.2564H128.167V86.4865H127.645ZM127.906 87.5175H128.894V86.9953H127.906V87.5175ZM128.633 87.2564V87.5011H129.155V87.2564H128.633ZM128.894 87.2401H127.906V87.7622H128.894V87.2401ZM127.645 87.5011V88.5202H128.167V87.5011H127.645ZM127.906 88.2591H127.63V88.7813H127.906V88.2591Z" fill="#1F2937"/>
<path d="M149.951 86.9538C149.926 86.8789 149.894 86.8117 149.854 86.7524C149.814 86.6923 149.767 86.6412 149.712 86.5989C149.658 86.5566 149.597 86.5243 149.528 86.5021C149.459 86.4798 149.383 86.4687 149.301 86.4687C149.166 86.4687 149.043 86.5036 148.933 86.5733C148.822 86.643 148.734 86.7457 148.669 86.8815C148.604 87.0172 148.571 87.1837 148.571 87.381C148.571 87.5783 148.604 87.7448 148.67 87.8805C148.736 88.0162 148.825 88.119 148.938 88.1887C149.051 88.2584 149.178 88.2932 149.319 88.2932C149.449 88.2932 149.564 88.2654 149.664 88.2098C149.764 88.1534 149.842 88.0741 149.897 87.9717C149.954 87.8686 149.982 87.7474 149.982 87.6079L150.066 87.6257H149.381V87.381H150.249V87.6257C150.249 87.8134 150.209 87.9766 150.129 88.1152C150.049 88.2539 149.939 88.3615 149.799 88.4379C149.66 88.5135 149.5 88.5514 149.319 88.5514C149.117 88.5514 148.94 88.5039 148.787 88.409C148.635 88.314 148.516 88.179 148.431 88.004C148.346 87.829 148.304 87.6213 148.304 87.381C148.304 87.2008 148.328 87.0387 148.376 86.8948C148.425 86.7502 148.494 86.6271 148.583 86.5255C148.672 86.4238 148.778 86.346 148.899 86.2918C149.021 86.2377 149.155 86.2106 149.301 86.2106C149.421 86.2106 149.533 86.2288 149.637 86.2651C149.741 86.3007 149.834 86.3515 149.916 86.4175C149.998 86.4828 150.067 86.5611 150.122 86.6523C150.177 86.7428 150.215 86.8433 150.235 86.9538H149.951Z" fill="#373D3F"/>
<path d="M149.951 86.9538L149.702 87.0349L149.761 87.2148H149.951V86.9538ZM149.854 86.7524L149.635 86.8954L149.637 86.8985L149.854 86.7524ZM149.712 86.5989L149.552 86.8047L149.553 86.8057L149.712 86.5989ZM149.528 86.5021L149.608 86.2536L149.608 86.2536L149.528 86.5021ZM148.933 86.5733L148.793 86.3525L148.933 86.5733ZM148.669 86.8815L148.904 86.9946V86.9946L148.669 86.8815ZM148.67 87.8805L148.435 87.9947L148.67 87.8805ZM148.938 88.1887L148.801 88.4107L148.938 88.1887ZM149.664 88.2098L149.791 88.4376L149.792 88.4373L149.664 88.2098ZM149.897 87.9717L149.668 87.8465L149.668 87.8471L149.897 87.9717ZM149.982 87.6079L150.036 87.3525L149.721 87.2862V87.6079H149.982ZM150.066 87.6257V87.8868L150.12 87.3703L150.066 87.6257ZM149.381 87.6257H149.12V87.8868H149.381V87.6257ZM149.381 87.381V87.1199H149.12V87.381H149.381ZM150.249 87.381H150.51V87.1199H150.249V87.381ZM150.129 88.1152L149.902 87.9847L149.902 87.9856L150.129 88.1152ZM149.799 88.4379L149.924 88.6673L149.924 88.6671L149.799 88.4379ZM148.787 88.409L148.649 88.6304L148.649 88.6307L148.787 88.409ZM148.431 88.004L148.196 88.1176L148.196 88.1184L148.431 88.004ZM148.376 86.8948L148.129 86.8111L148.129 86.8119L148.376 86.8948ZM148.583 86.5255L148.78 86.6975H148.78L148.583 86.5255ZM148.899 86.2918L148.793 86.0533L148.899 86.2918ZM149.637 86.2651L149.551 86.5115L149.553 86.5123L149.637 86.2651ZM149.916 86.4175L149.752 86.6205L149.754 86.6221L149.916 86.4175ZM150.122 86.6523L149.898 86.7869L149.899 86.7877L150.122 86.6523ZM150.235 86.9538V87.2148H150.55L150.492 86.9056L150.235 86.9538ZM150.199 86.8727C150.167 86.7771 150.125 86.6877 150.07 86.6063L149.637 86.8985C149.663 86.9358 149.685 86.9807 149.702 87.0349L150.199 86.8727ZM150.072 86.6095C150.018 86.5258 149.951 86.4528 149.872 86.3921L149.553 86.8057C149.584 86.8295 149.611 86.8588 149.635 86.8954L150.072 86.6095ZM149.873 86.3931C149.794 86.331 149.704 86.2848 149.608 86.2536L149.448 86.7506C149.489 86.7639 149.523 86.7822 149.552 86.8047L149.873 86.3931ZM149.608 86.2536C149.51 86.222 149.407 86.2076 149.301 86.2076V86.7298C149.36 86.7298 149.408 86.7377 149.448 86.7506L149.608 86.2536ZM149.301 86.2076C149.118 86.2076 148.947 86.2556 148.793 86.3525L149.072 86.7941C149.139 86.7516 149.213 86.7298 149.301 86.7298V86.2076ZM148.793 86.3525C148.635 86.4522 148.517 86.5953 148.434 86.7683L148.904 86.9946C148.952 86.8962 149.009 86.8339 149.072 86.7941L148.793 86.3525ZM148.434 86.7683C148.347 86.9485 148.31 87.1562 148.31 87.381H148.832C148.832 87.2112 148.86 87.0859 148.904 86.9946L148.434 86.7683ZM148.31 87.381C148.31 87.6062 148.348 87.8142 148.435 87.9947L148.905 87.7663C148.861 87.6754 148.832 87.5504 148.832 87.381H148.31ZM148.435 87.9947C148.52 88.1685 148.64 88.3115 148.801 88.4107L149.075 87.9666C149.01 87.9264 148.952 87.8639 148.905 87.7663L148.435 87.9947ZM148.801 88.4107C148.957 88.5076 149.132 88.5543 149.319 88.5543V88.0322C149.223 88.0322 149.144 88.0092 149.075 87.9666L148.801 88.4107ZM149.319 88.5543C149.487 88.5543 149.647 88.5181 149.791 88.4376L149.536 87.982C149.481 88.0128 149.411 88.0322 149.319 88.0322V88.5543ZM149.792 88.4373C149.935 88.3565 150.048 88.2412 150.127 88.0964L149.668 87.8471C149.635 87.9069 149.592 87.9504 149.535 87.9823L149.792 88.4373ZM150.126 88.097C150.207 87.9489 150.243 87.783 150.243 87.6079H149.721C149.721 87.7118 149.7 87.7884 149.668 87.8465L150.126 88.097ZM149.928 87.8634L150.012 87.8812L150.12 87.3703L150.036 87.3525L149.928 87.8634ZM150.066 87.3647H149.381V87.8868H150.066V87.3647ZM149.642 87.6257V87.381H149.12V87.6257H149.642ZM149.381 87.6421H150.249V87.1199H149.381V87.6421ZM149.988 87.381V87.6257H150.51V87.381H149.988ZM149.988 87.6257C149.988 87.7755 149.956 87.892 149.902 87.9847L150.355 88.2458C150.461 88.0611 150.51 87.8513 150.51 87.6257H149.988ZM149.902 87.9856C149.847 88.0824 149.772 88.1554 149.674 88.2086L149.924 88.6671C150.107 88.5676 150.252 88.4255 150.355 88.2449L149.902 87.9856ZM149.675 88.2084C149.579 88.2606 149.462 88.2903 149.319 88.2903V88.8124C149.537 88.8124 149.741 88.7665 149.924 88.6673L149.675 88.2084ZM149.319 88.2903C149.16 88.2903 149.031 88.2534 148.925 88.1872L148.649 88.6307C148.848 88.7544 149.074 88.8124 149.319 88.8124V88.2903ZM148.925 88.1875C148.818 88.1207 148.731 88.0246 148.666 87.8896L148.196 88.1184C148.301 88.3335 148.451 88.5073 148.649 88.6304L148.925 88.1875ZM148.666 87.8904C148.602 87.7582 148.565 87.591 148.565 87.381H148.043C148.043 87.6515 148.091 87.8997 148.196 88.1175L148.666 87.8904ZM148.565 87.381C148.565 87.2238 148.586 87.0904 148.624 86.9778L148.129 86.8119C148.07 86.987 148.043 87.1777 148.043 87.381H148.565ZM148.624 86.9785C148.663 86.8622 148.716 86.7701 148.78 86.6975L148.387 86.3534C148.273 86.484 148.188 86.6382 148.129 86.8111L148.624 86.9785ZM148.78 86.6975C148.844 86.6239 148.919 86.5689 149.005 86.5303L148.793 86.0533C148.636 86.1231 148.5 86.2238 148.387 86.3534L148.78 86.6975ZM149.005 86.5303C149.09 86.4925 149.188 86.4717 149.301 86.4717V85.9495C149.122 85.9495 148.951 85.9829 148.793 86.0533L149.005 86.5303ZM149.301 86.4717C149.394 86.4717 149.477 86.4858 149.551 86.5115L149.723 86.0187C149.589 85.9718 149.448 85.9495 149.301 85.9495V86.4717ZM149.553 86.5123C149.63 86.5385 149.695 86.5748 149.752 86.6205L150.08 86.2146C149.974 86.1282 149.853 86.063 149.721 86.018L149.553 86.5123ZM149.754 86.6221C149.811 86.6677 149.859 86.7221 149.898 86.7869L150.346 86.5177C150.275 86.4 150.185 86.2979 150.078 86.213L149.754 86.6221ZM149.899 86.7877C149.936 86.8497 149.963 86.9204 149.979 87.002L150.492 86.9056C150.466 86.7662 150.417 86.6358 150.345 86.5169L149.899 86.7877ZM150.235 86.6927H149.951V87.2148H150.235V86.6927Z" fill="#1F2937"/>
<path d="M12.9102 82.366H161.711" stroke="#1F2937" stroke-width="0.261071"/>
<mask id="mask0_994_9780" style="mask-type:luminance" maskUnits="userSpaceOnUse" x="12" y="13" width="151" height="70">
<path d="M162.363 13.2742H12.2539V82.2343H162.363V13.2742Z" fill="white"/>
</mask>
<g mask="url(#mask0_994_9780)">
<path d="M18.6133 42.602H25.7905V52.9065H22.2019H29.3792H25.7905V42.602H32.9678V40.0258H18.6133V42.7334" fill="#D0D4DA"/>
<path d="M18.6133 42.602H25.7905M25.7905 42.602V52.9065M25.7905 42.602H32.9678V40.0258H18.6133V42.7334M25.7905 52.9065H22.2019H29.3792H25.7905Z" stroke="#24292E" stroke-width="0.261071"/>
</g>
<mask id="mask1_994_9780" style="mask-type:luminance" maskUnits="userSpaceOnUse" x="12" y="13" width="151" height="70">
<path d="M162.363 13.2742H12.2539V82.2343H162.363V13.2742Z" fill="white"/>
</mask>
<g mask="url(#mask1_994_9780)">
<path d="M18.6133 40.026H32.9678V34.8737H25.7905V23.7104H29.3792H22.2019H25.7905V34.8737H18.6133V40.026Z" fill="#1F2937"/>
<path d="M25.7905 34.8737H32.9678V40.026H18.6133V34.8737H25.7905ZM25.7905 34.8737V23.7104M25.7905 23.7104H29.3792H22.2019H25.7905Z" stroke="#24292E" stroke-width="0.261071"/>
</g>
<mask id="mask2_994_9780" style="mask-type:luminance" maskUnits="userSpaceOnUse" x="12" y="13" width="151" height="70">
<path d="M162.363 13.2742H12.2539V82.2343H162.363V13.2742Z" fill="white"/>
</mask>
<g mask="url(#mask2_994_9780)">
<path d="M39.1211 43.4607H46.2984V62.3524H42.7097H49.887H46.2984V43.4607H53.4756V40.0258H39.1211V43.5921" fill="#D0D4DA"/>
<path d="M39.1211 43.4607H46.2984M46.2984 43.4607V62.3524M46.2984 43.4607H53.4756V40.0258H39.1211V43.5921M46.2984 62.3524H42.7097H49.887H46.2984Z" stroke="#24292E" stroke-width="0.261071"/>
</g>
<mask id="mask3_994_9780" style="mask-type:luminance" maskUnits="userSpaceOnUse" x="12" y="13" width="151" height="70">
<path d="M162.363 13.2742H12.2539V82.2343H162.363V13.2742Z" fill="white"/>
</mask>
<g mask="url(#mask3_994_9780)">
<path d="M39.1211 40.0258H53.4756V34.0148H46.2984V29.7212H49.887H42.7097H46.2984V34.0148H39.1211V40.0258Z" fill="#1F2937"/>
<path d="M46.2984 34.0148H53.4756V40.0258H39.1211V34.0148H46.2984ZM46.2984 34.0148V29.7212M46.2984 29.7212H49.887H42.7097H46.2984Z" stroke="#24292E" stroke-width="0.261071"/>
</g>
<mask id="mask4_994_9780" style="mask-type:luminance" maskUnits="userSpaceOnUse" x="12" y="13" width="151" height="70">
<path d="M162.363 13.2742H12.2539V82.2343H162.363V13.2742Z" fill="white"/>
</mask>
<g mask="url(#mask4_994_9780)">
<path d="M59.6289 65.7873H66.8062V72.657H63.2175H70.3948H66.8062V65.7873H73.9834V60.635H59.6289V65.9187" fill="#D0D4DA"/>
<path d="M59.6289 65.7873H66.8062M66.8062 65.7873V72.657M66.8062 65.7873H73.9834V60.635H59.6289V65.9187M66.8062 72.657H63.2175H70.3948H66.8062Z" stroke="#24292E" stroke-width="0.261071"/>
</g>
<mask id="mask5_994_9780" style="mask-type:luminance" maskUnits="userSpaceOnUse" x="12" y="13" width="151" height="70">
<path d="M162.363 13.2742H12.2539V82.2343H162.363V13.2742Z" fill="white"/>
</mask>
<g mask="url(#mask5_994_9780)">
<path d="M59.6289 60.6349H73.9834V55.4826H66.8062V48.6129H70.3948H63.2175H66.8062V55.4826H59.6289V60.6349Z" fill="#1F2937"/>
<path d="M66.8062 55.4826H73.9834V60.6349H59.6289V55.4826H66.8062ZM66.8062 55.4826V48.6129M66.8062 48.6129H70.3948H63.2175H66.8062Z" stroke="#24292E" stroke-width="0.261071"/>
</g>
<mask id="mask6_994_9780" style="mask-type:luminance" maskUnits="userSpaceOnUse" x="12" y="13" width="151" height="70">
<path d="M162.363 13.2742H12.2539V82.2343H162.363V13.2742Z" fill="white"/>
</mask>
<g mask="url(#mask6_994_9780)">
<path d="M80.1328 59.7763H87.3101V65.7873H83.7214H90.8987H87.3101V59.7763H94.4874V52.0479H80.1328V59.9078" fill="#D0D4DA"/>
<path d="M80.1328 59.7763H87.3101M87.3101 59.7763V65.7873M87.3101 59.7763H94.4874V52.0479H80.1328V59.9078M87.3101 65.7873H83.7214H90.8987H87.3101Z" stroke="#24292E" stroke-width="0.261071"/>
</g>
<mask id="mask7_994_9780" style="mask-type:luminance" maskUnits="userSpaceOnUse" x="12" y="13" width="151" height="70">
<path d="M162.363 13.2742H12.2539V82.2343H162.363V13.2742Z" fill="white"/>
</mask>
<g mask="url(#mask7_994_9780)">
<path d="M80.1328 52.0477H94.4874V43.4606H87.3101V38.3083H90.8987H83.7214H87.3101V43.4606H80.1328V52.0477Z" fill="#1F2937"/>
<path d="M87.3101 43.4606H94.4874V52.0477H80.1328V43.4606H87.3101ZM87.3101 43.4606V38.3083M87.3101 38.3083H90.8987H83.7214H87.3101Z" stroke="#24292E" stroke-width="0.261071"/>
</g>
<mask id="mask8_994_9780" style="mask-type:luminance" maskUnits="userSpaceOnUse" x="12" y="13" width="151" height="70">
<path d="M162.363 13.2742H12.2539V82.2343H162.363V13.2742Z" fill="white"/>
</mask>
<g mask="url(#mask8_994_9780)">
<path d="M100.637 72.657H107.814V74.3745H104.225H111.403H107.814V72.657H114.991V69.2222H100.637V72.7885" fill="#D0D4DA"/>
<path d="M100.637 72.657H107.814M107.814 72.657V74.3745M107.814 72.657H114.991V69.2222H100.637V72.7885M107.814 74.3745H104.225H111.403H107.814Z" stroke="#24292E" stroke-width="0.261071"/>
</g>
<mask id="mask9_994_9780" style="mask-type:luminance" maskUnits="userSpaceOnUse" x="12" y="13" width="151" height="70">
<path d="M162.363 13.2742H12.2539V82.2343H162.363V13.2742Z" fill="white"/>
</mask>
<g mask="url(#mask9_994_9780)">
<path d="M100.637 69.2221H114.991V65.7872H107.814V61.4937H111.403H104.225H107.814V65.7872H100.637V69.2221Z" fill="#1F2937"/>
<path d="M107.814 65.7872H114.991V69.2221H100.637V65.7872H107.814ZM107.814 65.7872V61.4937M107.814 61.4937H111.403H104.225H107.814Z" stroke="#24292E" stroke-width="0.261071"/>
</g>
<mask id="mask10_994_9780" style="mask-type:luminance" maskUnits="userSpaceOnUse" x="12" y="13" width="151" height="70">
<path d="M162.363 13.2742H12.2539V82.2343H162.363V13.2742Z" fill="white"/>
</mask>
<g mask="url(#mask10_994_9780)">
<path d="M121.145 57.2002H128.322V64.07H124.733H131.91H128.322V57.2002H135.499V49.4718H121.145V57.3317" fill="#D0D4DA"/>
<path d="M121.145 57.2002H128.322M128.322 57.2002V64.07M128.322 57.2002H135.499V49.4718H121.145V57.3317M128.322 64.07H124.733H131.91H128.322Z" stroke="#24292E" stroke-width="0.261071"/>
</g>
<mask id="mask11_994_9780" style="mask-type:luminance" maskUnits="userSpaceOnUse" x="12" y="13" width="151" height="70">
<path d="M162.363 13.2742H12.2539V82.2343H162.363V13.2742Z" fill="white"/>
</mask>
<g mask="url(#mask11_994_9780)">
<path d="M121.145 49.4717H135.499V46.8956H128.322V41.7433H131.91H124.733H128.322V46.8956H121.145V49.4717Z" fill="#1F2937"/>
<path d="M128.322 46.8956H135.499V49.4717H121.145V46.8956H128.322ZM128.322 46.8956V41.7433M128.322 41.7433H131.91H124.733H128.322Z" stroke="#24292E" stroke-width="0.261071"/>
</g>
<mask id="mask12_994_9780" style="mask-type:luminance" maskUnits="userSpaceOnUse" x="12" y="13" width="151" height="70">
<path d="M162.363 13.2742H12.2539V82.2343H162.363V13.2742Z" fill="white"/>
</mask>
<g mask="url(#mask12_994_9780)">
<path d="M141.652 48.6129H148.83V52.9064H145.241H152.418H148.83V48.6129H156.007V42.6019H141.652V48.7443" fill="#D0D4DA"/>
<path d="M141.652 48.6129H148.83M148.83 48.6129V52.9064M148.83 48.6129H156.007V42.6019H141.652V48.7443M148.83 52.9064H145.241H152.418H148.83Z" stroke="#24292E" stroke-width="0.261071"/>
</g>
<mask id="mask13_994_9780" style="mask-type:luminance" maskUnits="userSpaceOnUse" x="12" y="13" width="151" height="70">
<path d="M162.363 13.2742H12.2539V82.2343H162.363V13.2742Z" fill="white"/>
</mask>
<g mask="url(#mask13_994_9780)">
<path d="M141.652 42.6021H156.007V38.3085H148.83V23.7104H152.418H145.241H148.83V38.3085H141.652V42.6021Z" fill="#1F2937"/>
<path d="M148.83 38.3085H156.007V42.6021H141.652V38.3085H148.83ZM148.83 38.3085V23.7104M148.83 23.7104H152.418H145.241H148.83Z" stroke="#24292E" stroke-width="0.261071"/>
</g>
<path d="M5.30705 11.7944V13.883H5.05414V12.0596H5.0419L4.53199 12.3982V12.1412L5.05414 11.7944H5.30705ZM6.58895 13.9116C6.4353 13.9116 6.30442 13.8697 6.19632 13.7861C6.08822 13.7018 6.00562 13.5798 5.94851 13.42C5.8914 13.2596 5.86285 13.0658 5.86285 12.8387C5.86285 12.613 5.8914 12.4202 5.94851 12.2605C6.0063 12.1 6.08924 11.9776 6.19734 11.8933C6.30612 11.8084 6.43666 11.7659 6.58895 11.7659C6.74124 11.7659 6.87144 11.8084 6.97954 11.8933C7.08832 11.9776 7.17126 12.1 7.22837 12.2605C7.28616 12.4202 7.31506 12.613 7.31506 12.8387C7.31506 13.0658 7.2865 13.2596 7.22939 13.42C7.17228 13.5798 7.08968 13.7018 6.98158 13.7861C6.87348 13.8697 6.7426 13.9116 6.58895 13.9116ZM6.58895 13.6872C6.74124 13.6872 6.85954 13.6138 6.94384 13.4669C7.02815 13.3201 7.0703 13.1107 7.0703 12.8387C7.0703 12.6579 7.05092 12.5039 7.01217 12.3767C6.9741 12.2496 6.91903 12.1527 6.84696 12.0861C6.77558 12.0195 6.68957 11.9861 6.58895 11.9861C6.43802 11.9861 6.32006 12.0606 6.23508 12.2095C6.15009 12.3577 6.1076 12.5674 6.1076 12.8387C6.1076 13.0196 6.12664 13.1732 6.16471 13.2997C6.20278 13.4261 6.25751 13.5223 6.3289 13.5883C6.40097 13.6542 6.48765 13.6872 6.58895 13.6872ZM8.38382 13.9116C8.23017 13.9116 8.09929 13.8697 7.99119 13.7861C7.88309 13.7018 7.80049 13.5798 7.74338 13.42C7.68627 13.2596 7.65771 13.0658 7.65771 12.8387C7.65771 12.613 7.68627 12.4202 7.74338 12.2605C7.80117 12.1 7.88411 11.9776 7.99221 11.8933C8.10099 11.8084 8.23153 11.7659 8.38382 11.7659C8.53611 11.7659 8.6663 11.8084 8.7744 11.8933C8.88318 11.9776 8.96613 12.1 9.02324 12.2605C9.08103 12.4202 9.10992 12.613 9.10992 12.8387C9.10992 13.0658 9.08137 13.2596 9.02426 13.42C8.96715 13.5798 8.88454 13.7018 8.77644 13.7861C8.66834 13.8697 8.53747 13.9116 8.38382 13.9116ZM8.38382 13.6872C8.53611 13.6872 8.65441 13.6138 8.73871 13.4669C8.82302 13.3201 8.86517 13.1107 8.86517 12.8387C8.86517 12.6579 8.84579 12.5039 8.80704 12.3767C8.76897 12.2496 8.7139 12.1527 8.64183 12.0861C8.57044 12.0195 8.48444 11.9861 8.38382 11.9861C8.23289 11.9861 8.11493 12.0606 8.02994 12.2095C7.94496 12.3577 7.90247 12.5674 7.90247 12.8387C7.90247 13.0196 7.9215 13.1732 7.95958 13.2997C7.99765 13.4261 8.05238 13.5223 8.12377 13.5883C8.19583 13.6542 8.28252 13.6872 8.38382 13.6872Z" fill="#373D3F"/>
<path d="M6.91055 31.0859C6.77049 31.0859 6.64676 31.0611 6.53934 31.0114C6.4326 30.9611 6.34931 30.8921 6.28948 30.8044C6.22965 30.716 6.20008 30.6154 6.20076 30.5025C6.20008 30.4142 6.21742 30.3326 6.25277 30.2578C6.28812 30.1823 6.33639 30.1194 6.39758 30.0691C6.45945 30.0181 6.52846 29.9858 6.6046 29.9722V29.96C6.50466 29.9342 6.42512 29.8781 6.36597 29.7917C6.30682 29.7047 6.27758 29.6058 6.27826 29.495C6.27758 29.3889 6.30444 29.2941 6.35883 29.2104C6.41322 29.1268 6.48801 29.0609 6.58319 29.0126C6.67905 28.9643 6.78817 28.9402 6.91055 28.9402C7.03156 28.9402 7.13966 28.9643 7.23485 29.0126C7.33003 29.0609 7.40481 29.1268 7.4592 29.2104C7.51427 29.2941 7.54215 29.3889 7.54283 29.495C7.54215 29.6058 7.5119 29.7047 7.45207 29.7917C7.39292 29.8781 7.31439 29.9342 7.21649 29.96V29.9722C7.29196 29.9858 7.35994 30.0181 7.42045 30.0691C7.48096 30.1194 7.52923 30.1823 7.56527 30.2578C7.6013 30.3326 7.61966 30.4142 7.62033 30.5025C7.61966 30.6154 7.58906 30.716 7.52855 30.8044C7.46872 30.8921 7.38544 30.9611 7.2787 31.0114C7.17264 31.0611 7.04992 31.0859 6.91055 31.0859ZM6.91055 30.8615C7.00505 30.8615 7.08663 30.8462 7.1553 30.8156C7.22397 30.785 7.277 30.7419 7.31439 30.6861C7.35178 30.6304 7.37082 30.5651 7.3715 30.4903C7.37082 30.4114 7.35043 30.3417 7.31031 30.2812C7.2702 30.2207 7.21547 30.1731 7.14612 30.1385C7.07746 30.1038 6.99893 30.0865 6.91055 30.0865C6.82148 30.0865 6.74194 30.1038 6.67191 30.1385C6.60256 30.1731 6.54783 30.2207 6.50772 30.2812C6.46829 30.3417 6.44891 30.4114 6.44959 30.4903C6.44891 30.5651 6.46693 30.6304 6.50364 30.6861C6.54104 30.7419 6.59441 30.785 6.66375 30.8156C6.7331 30.8462 6.81536 30.8615 6.91055 30.8615ZM6.91055 29.8703C6.98533 29.8703 7.05162 29.8553 7.10941 29.8254C7.16788 29.7955 7.21377 29.7537 7.24708 29.6999C7.2804 29.6462 7.29739 29.5833 7.29807 29.5113C7.29739 29.4406 7.28074 29.379 7.2481 29.3267C7.21547 29.2737 7.17026 29.2329 7.11247 29.2043C7.05468 29.1751 6.98737 29.1605 6.91055 29.1605C6.83236 29.1605 6.76403 29.1751 6.70557 29.2043C6.6471 29.2329 6.60188 29.2737 6.56993 29.3267C6.53798 29.379 6.52234 29.4406 6.52302 29.5113C6.52234 29.5833 6.53832 29.6462 6.57095 29.6999C6.60426 29.7537 6.65016 29.7955 6.70862 29.8254C6.76709 29.8553 6.8344 29.8703 6.91055 29.8703ZM8.69241 31.0859C8.53876 31.0859 8.40788 31.0441 8.29978 30.9604C8.19168 30.8761 8.10908 30.7541 8.05197 30.5943C7.99486 30.4339 7.96631 30.2401 7.96631 30.013C7.96631 29.7873 7.99486 29.5946 8.05197 29.4348C8.10976 29.2743 8.1927 29.152 8.3008 29.0677C8.40958 28.9827 8.54012 28.9402 8.69241 28.9402C8.8447 28.9402 8.9749 28.9827 9.083 29.0677C9.19178 29.152 9.27472 29.2743 9.33183 29.4348C9.38962 29.5946 9.41852 29.7873 9.41852 30.013C9.41852 30.2401 9.38996 30.4339 9.33285 30.5943C9.27574 30.7541 9.19314 30.8761 9.08504 30.9604C8.97694 31.0441 8.84606 31.0859 8.69241 31.0859ZM8.69241 30.8615C8.8447 30.8615 8.963 30.7881 9.0473 30.6412C9.13161 30.4944 9.17376 30.285 9.17376 30.013C9.17376 29.8322 9.15438 29.6782 9.11563 29.5511C9.07756 29.4239 9.02249 29.327 8.95042 29.2604C8.87904 29.1938 8.79303 29.1605 8.69241 29.1605C8.54148 29.1605 8.42352 29.2349 8.33854 29.3838C8.25355 29.532 8.21106 29.7418 8.21106 30.013C8.21106 30.1939 8.2301 30.3475 8.26817 30.474C8.30624 30.6004 8.36097 30.6966 8.43236 30.7626C8.50443 30.8285 8.59111 30.8615 8.69241 30.8615Z" fill="#373D3F"/>
<path d="M6.91259 48.2601C6.82692 48.2588 6.74126 48.2424 6.65559 48.2112C6.56993 48.1799 6.49174 48.1272 6.42104 48.0531C6.35033 47.9783 6.29356 47.8774 6.25073 47.7502C6.2079 47.6224 6.18648 47.462 6.18648 47.2689C6.18648 47.0839 6.20382 46.9201 6.23849 46.7773C6.27317 46.6339 6.32348 46.5132 6.38942 46.4153C6.45537 46.3167 6.53492 46.2419 6.62806 46.1909C6.72188 46.1399 6.8276 46.1144 6.94522 46.1144C7.06216 46.1144 7.16618 46.1379 7.25728 46.1848C7.34907 46.231 7.42385 46.2956 7.48164 46.3786C7.53943 46.4615 7.57682 46.557 7.59382 46.6651H7.34499C7.32187 46.5713 7.277 46.4935 7.21037 46.4316C7.14374 46.3697 7.05536 46.3388 6.94522 46.3388C6.78341 46.3388 6.65593 46.4092 6.56279 46.5499C6.47033 46.6906 6.42376 46.8881 6.42308 47.1424H6.43939C6.47747 47.0846 6.52268 47.0353 6.57503 46.9945C6.62806 46.9531 6.68653 46.9211 6.75044 46.8987C6.81434 46.8762 6.88199 46.865 6.95338 46.865C7.07304 46.865 7.1825 46.8949 7.28176 46.9548C7.38102 47.0139 7.46056 47.0958 7.52039 47.2005C7.58022 47.3046 7.61014 47.4239 7.61014 47.5585C7.61014 47.6877 7.58124 47.806 7.52345 47.9134C7.46566 48.0201 7.38442 48.1051 7.27972 48.1683C7.1757 48.2309 7.05332 48.2615 6.91259 48.2601ZM6.91259 48.0358C6.99825 48.0358 7.07508 48.0143 7.14306 47.9715C7.21173 47.9287 7.26578 47.8712 7.30521 47.7992C7.34533 47.7271 7.36538 47.6469 7.36538 47.5585C7.36538 47.4721 7.34601 47.3936 7.30725 47.3229C7.26918 47.2515 7.21649 47.1948 7.14918 47.1526C7.08256 47.1105 7.00641 47.0894 6.92075 47.0894C6.85616 47.0894 6.79599 47.1023 6.74024 47.1281C6.68449 47.1533 6.63554 47.188 6.59339 47.2322C6.55191 47.2763 6.51928 47.327 6.49548 47.3841C6.47169 47.4405 6.45979 47.5 6.45979 47.5626C6.45979 47.6455 6.47917 47.723 6.51792 47.7951C6.55735 47.8672 6.61106 47.9253 6.67905 47.9695C6.74772 48.0137 6.82556 48.0358 6.91259 48.0358ZM8.69241 48.2601C8.53876 48.2601 8.40788 48.2183 8.29978 48.1347C8.19168 48.0504 8.10908 47.9283 8.05197 47.7686C7.99486 47.6081 7.96631 47.4144 7.96631 47.1873C7.96631 46.9616 7.99486 46.7688 8.05197 46.609C8.10976 46.4486 8.1927 46.3262 8.3008 46.2419C8.40958 46.1569 8.54012 46.1144 8.69241 46.1144C8.8447 46.1144 8.9749 46.1569 9.083 46.2419C9.19178 46.3262 9.27472 46.4486 9.33183 46.609C9.38962 46.7688 9.41852 46.9616 9.41852 47.1873C9.41852 47.4144 9.38996 47.6081 9.33285 47.7686C9.27574 47.9283 9.19314 48.0504 9.08504 48.1347C8.97694 48.2183 8.84606 48.2601 8.69241 48.2601ZM8.69241 48.0358C8.8447 48.0358 8.963 47.9623 9.0473 47.8155C9.13161 47.6686 9.17376 47.4592 9.17376 47.1873C9.17376 47.0064 9.15438 46.8524 9.11563 46.7253C9.07756 46.5982 9.02249 46.5013 8.95042 46.4347C8.87904 46.368 8.79303 46.3347 8.69241 46.3347C8.54148 46.3347 8.42352 46.4092 8.33854 46.5581C8.25355 46.7063 8.21106 46.916 8.21106 47.1873C8.21106 47.3681 8.2301 47.5218 8.26817 47.6482C8.30624 47.7747 8.36097 47.8709 8.43236 47.9368C8.50443 48.0028 8.59111 48.0358 8.69241 48.0358Z" fill="#373D3F"/>
<path d="M6.11968 64.9776V64.7695L7.03751 63.3173H7.18845V63.6396H7.08646L6.39299 64.7369V64.7532H7.629V64.9776H6.11968ZM7.10278 65.4059V64.9143V64.8175V63.3173H7.34346V65.4059H7.10278ZM8.69241 65.4344C8.53876 65.4344 8.40788 65.3926 8.29978 65.309C8.19168 65.2247 8.10908 65.1027 8.05197 64.9429C7.99486 64.7824 7.96631 64.5887 7.96631 64.3616C7.96631 64.1359 7.99486 63.9431 8.05197 63.7834C8.10976 63.6229 8.1927 63.5005 8.3008 63.4162C8.40958 63.3312 8.54012 63.2888 8.69241 63.2888C8.8447 63.2888 8.9749 63.3312 9.083 63.4162C9.19178 63.5005 9.27472 63.6229 9.33183 63.7834C9.38962 63.9431 9.41852 64.1359 9.41852 64.3616C9.41852 64.5887 9.38996 64.7824 9.33285 64.9429C9.27574 65.1027 9.19314 65.2247 9.08504 65.309C8.97694 65.3926 8.84606 65.4344 8.69241 65.4344ZM8.69241 65.2101C8.8447 65.2101 8.963 65.1367 9.0473 64.9898C9.13161 64.8429 9.17376 64.6335 9.17376 64.3616C9.17376 64.1808 9.15438 64.0268 9.11563 63.8996C9.07756 63.7725 9.02249 63.6756 8.95042 63.609C8.87904 63.5424 8.79303 63.509 8.69241 63.509C8.54148 63.509 8.42352 63.5835 8.33854 63.7324C8.25355 63.8806 8.21106 64.0903 8.21106 64.3616C8.21106 64.5424 8.2301 64.6961 8.26817 64.8226C8.30624 64.949 8.36097 65.0452 8.43236 65.1112C8.50443 65.1771 8.59111 65.2101 8.69241 65.2101Z" fill="#373D3F"/>
<path d="M6.2724 82.5804V82.3968L6.96179 81.6422C7.0427 81.5538 7.10933 81.4769 7.16168 81.4117C7.21403 81.3457 7.25278 81.2839 7.27793 81.2261C7.30377 81.1676 7.31669 81.1064 7.31669 81.0425C7.31669 80.9691 7.29901 80.9055 7.26366 80.8518C7.22898 80.7981 7.18139 80.7566 7.12088 80.7274C7.06037 80.6982 6.99239 80.6835 6.91692 80.6835C6.8367 80.6835 6.76667 80.7002 6.70684 80.7335C6.64769 80.7661 6.6018 80.812 6.56917 80.8712C6.53721 80.9303 6.52123 80.9997 6.52123 81.0792H6.28056C6.28056 80.9568 6.30877 80.8494 6.3652 80.757C6.42163 80.6645 6.49846 80.5924 6.59568 80.5408C6.69358 80.4891 6.80338 80.4633 6.92508 80.4633C7.04746 80.4633 7.1559 80.4891 7.2504 80.5408C7.3449 80.5924 7.41901 80.6621 7.47272 80.7498C7.52643 80.8375 7.55328 80.9351 7.55328 81.0425C7.55328 81.1193 7.53935 81.1945 7.51147 81.2679C7.48428 81.3406 7.43668 81.4219 7.3687 81.5116C7.30139 81.6007 7.20791 81.7095 7.08825 81.838L6.61914 82.3397V82.356H7.59V82.5804H6.2724ZM8.69241 82.6089C8.53876 82.6089 8.40788 82.5671 8.29978 82.4835C8.19168 82.3992 8.10908 82.2772 8.05197 82.1174C7.99486 81.9569 7.96631 81.7632 7.96631 81.5361C7.96631 81.3104 7.99486 81.1176 8.05197 80.9579C8.10976 80.7974 8.1927 80.675 8.3008 80.5907C8.40958 80.5057 8.54012 80.4633 8.69241 80.4633C8.8447 80.4633 8.9749 80.5057 9.083 80.5907C9.19178 80.675 9.27472 80.7974 9.33183 80.9579C9.38962 81.1176 9.41852 81.3104 9.41852 81.5361C9.41852 81.7632 9.38996 81.9569 9.33285 82.1174C9.27574 82.2772 9.19314 82.3992 9.08504 82.4835C8.97694 82.5671 8.84606 82.6089 8.69241 82.6089ZM8.69241 82.3846C8.8447 82.3846 8.963 82.3112 9.0473 82.1643C9.13161 82.0174 9.17376 81.808 9.17376 81.5361C9.17376 81.3553 9.15438 81.2013 9.11563 81.0741C9.07756 80.947 9.02249 80.8501 8.95042 80.7835C8.87904 80.7168 8.79303 80.6835 8.69241 80.6835C8.54148 80.6835 8.42352 80.758 8.33854 80.9069C8.25355 81.0551 8.21106 81.2648 8.21106 81.5361C8.21106 81.7169 8.2301 81.8706 8.26817 81.9971C8.30624 82.1235 8.36097 82.2197 8.43236 82.2857C8.50443 82.3516 8.59111 82.3846 8.69241 82.3846Z" fill="#373D3F"/>
<path d="M12.75 2.13953L12.75 82.3721" stroke="#1F2937" stroke-width="0.207615"/>
</g>
<defs>
<clipPath id="clip0_994_9780">
<rect width="170" height="92" fill="white"/>
</clipPath>
</defs>
</svg>
