<svg width="154" height="94" viewBox="0 0 154 94" fill="none" xmlns="http://www.w3.org/2000/svg">
<path d="M7.33594 0L7.33594 88.1033" stroke="#1F2937" stroke-width="0.394558"/>
<path d="M7.33594 88.2769H153.757" stroke="#1F2937" stroke-width="0.197279" stroke-linecap="round"/>
<path d="M2.32754 85.4941C2.72998 85.4941 3.033 85.6692 3.24133 86.0291C3.42125 86.3321 3.51121 86.7393 3.51121 87.2506C3.51121 87.762 3.42125 88.1692 3.24133 88.4722C3.033 88.8273 2.72998 89.0072 2.32754 89.0072C1.92035 89.0072 1.61733 88.8273 1.41374 88.4722C1.23382 88.1692 1.14386 87.762 1.14386 87.2506C1.14386 86.7393 1.23382 86.3321 1.41374 86.0291C1.61733 85.6692 1.92035 85.4941 2.32754 85.4941ZM2.32754 85.8255C2.02451 85.8255 1.80672 85.9865 1.67415 86.3132C1.57945 86.5404 1.53211 86.8529 1.53211 87.2506C1.53211 87.6436 1.57945 87.9561 1.67415 88.1881C1.80672 88.5101 2.02451 88.6758 2.32754 88.6758C2.63056 88.6758 2.84835 88.5101 2.98092 88.1881C3.07562 87.9561 3.1277 87.6436 3.1277 87.2506C3.1277 86.8529 3.07562 86.5404 2.98092 86.3132C2.84835 85.9865 2.63056 85.8255 2.32754 85.8255Z" fill="#8C8C8C"/>
<path d="M3.25137 69.8411C3.02943 69.8411 2.83159 69.803 2.65785 69.7268C2.48523 69.6506 2.34792 69.5447 2.24592 69.409C2.14504 69.2723 2.09011 69.1137 2.08115 68.9332H2.50485C2.51382 69.0442 2.55193 69.14 2.61918 69.2207C2.68643 69.3003 2.77443 69.362 2.88315 69.4057C2.99188 69.4494 3.11238 69.4712 3.24464 69.4712C3.3926 69.4712 3.52375 69.4455 3.63808 69.3939C3.75241 69.3423 3.84209 69.2706 3.9071 69.1787C3.97211 69.0868 4.00462 68.9803 4.00462 68.8592C4.00462 68.7326 3.97323 68.621 3.91046 68.5246C3.84769 68.4271 3.75578 68.3509 3.63472 68.296C3.51366 68.2411 3.3657 68.2136 3.19084 68.2136H2.9151V67.8437H3.19084C3.32759 67.8437 3.44753 67.819 3.55065 67.7697C3.65489 67.7204 3.73616 67.6509 3.79445 67.5612C3.85386 67.4716 3.88356 67.3662 3.88356 67.2451C3.88356 67.1286 3.85778 67.0271 3.80622 66.9408C3.75466 66.8545 3.6818 66.7872 3.58764 66.739C3.49461 66.6908 3.38476 66.6667 3.2581 66.6667C3.13928 66.6667 3.02719 66.6886 2.92182 66.7323C2.81758 66.7749 2.73239 66.8371 2.66626 66.919C2.60013 66.9997 2.56426 67.0972 2.55865 67.2115H2.15513C2.16185 67.031 2.21622 66.873 2.31822 66.7374C2.42022 66.6006 2.55361 66.4941 2.71838 66.4179C2.88427 66.3417 3.06642 66.3036 3.26482 66.3036C3.47779 66.3036 3.6605 66.3467 3.81294 66.433C3.96538 66.5182 4.08252 66.6309 4.16435 66.771C4.24617 66.9111 4.28708 67.0624 4.28708 67.225C4.28708 67.4189 4.23608 67.5842 4.13408 67.721C4.0332 67.8577 3.89589 67.9524 3.72215 68.0051V68.032C3.9396 68.0679 4.10942 68.1604 4.2316 68.3094C4.35378 68.4574 4.41487 68.6407 4.41487 68.8592C4.41487 69.0464 4.36387 69.2146 4.26186 69.3636C4.16098 69.5116 4.02311 69.6282 3.84825 69.7134C3.67339 69.7986 3.47443 69.8411 3.25137 69.8411Z" fill="#1F2937"/>
<path d="M2.2913 50.6943C2.15007 50.6921 2.00883 50.6652 1.8676 50.6136C1.72637 50.562 1.59746 50.4752 1.48089 50.353C1.36432 50.2297 1.27072 50.0632 1.2001 49.8536C1.12949 49.6429 1.09418 49.3784 1.09418 49.06C1.09418 48.7551 1.12276 48.485 1.17993 48.2496C1.23709 48.0131 1.32004 47.8141 1.42877 47.6527C1.53749 47.4902 1.66864 47.3669 1.8222 47.2828C1.97689 47.1988 2.15119 47.1567 2.34511 47.1567C2.5379 47.1567 2.7094 47.1954 2.8596 47.2727C3.01092 47.349 3.13422 47.4554 3.2295 47.5922C3.32477 47.7289 3.38642 47.8864 3.41445 48.0647H3.0042C2.96609 47.91 2.89211 47.7816 2.78226 47.6796C2.67241 47.5776 2.52669 47.5266 2.34511 47.5266C2.07833 47.5266 1.86816 47.6426 1.7146 47.8747C1.56215 48.1067 1.48537 48.4323 1.48425 48.8515H1.51115C1.57392 48.7563 1.64846 48.675 1.73477 48.6077C1.8222 48.5394 1.9186 48.4867 2.02397 48.4497C2.12933 48.4127 2.24086 48.3942 2.35856 48.3942C2.55583 48.3942 2.7363 48.4435 2.89995 48.5422C3.0636 48.6397 3.19475 48.7747 3.29339 48.9474C3.39203 49.1189 3.44135 49.3156 3.44135 49.5375C3.44135 49.7505 3.39371 49.9455 3.29843 50.1226C3.20316 50.2986 3.06921 50.4387 2.89659 50.543C2.72509 50.6461 2.52333 50.6965 2.2913 50.6943ZM2.2913 50.3244C2.43254 50.3244 2.5592 50.2891 2.67129 50.2185C2.7845 50.1479 2.87361 50.0531 2.93862 49.9343C3.00476 49.8155 3.03782 49.6832 3.03782 49.5375C3.03782 49.3952 3.00588 49.2657 2.94199 49.1491C2.87922 49.0314 2.79235 48.9378 2.68138 48.8683C2.57153 48.7988 2.44599 48.7641 2.30475 48.7641C2.19827 48.7641 2.09907 48.7854 2.00715 48.828C1.91524 48.8695 1.83453 48.9266 1.76504 48.9995C1.69666 49.0723 1.64286 49.1559 1.60363 49.25C1.5644 49.343 1.54478 49.4411 1.54478 49.5442C1.54478 49.681 1.57673 49.8088 1.64062 49.9276C1.70563 50.0464 1.79418 50.1423 1.90627 50.2151C2.01948 50.288 2.14783 50.3244 2.2913 50.3244Z" fill="#1F2937"/>
<path d="M2.24422 28.0099C2.38546 28.011 2.52669 28.0379 2.66793 28.0906C2.80916 28.1433 2.93806 28.2307 3.05464 28.3529C3.17121 28.4739 3.26481 28.6393 3.33542 28.8489C3.40604 29.0585 3.44135 29.3213 3.44135 29.6374C3.44135 29.9434 3.4122 30.2153 3.35392 30.4529C3.29675 30.6894 3.2138 30.8889 3.10508 31.0514C2.99747 31.214 2.86633 31.3373 2.71164 31.4213C2.55808 31.5054 2.38434 31.5474 2.19042 31.5474C1.99763 31.5474 1.82557 31.5093 1.67424 31.4331C1.52404 31.3558 1.40074 31.2487 1.30435 31.112C1.20907 30.9741 1.14798 30.8144 1.12108 30.6328H1.53133C1.56832 30.7908 1.64174 30.9214 1.75159 31.0245C1.86256 31.1265 2.00883 31.1775 2.19042 31.1775C2.45607 31.1775 2.66568 31.0615 2.81925 30.8295C2.97393 30.5975 3.05127 30.2696 3.05127 29.8459H3.02437C2.9616 29.9401 2.88706 30.0213 2.80075 30.0897C2.71444 30.1581 2.61861 30.2108 2.51324 30.2478C2.40788 30.2847 2.29579 30.3032 2.17697 30.3032C1.97969 30.3032 1.79867 30.2545 1.63389 30.157C1.47024 30.0583 1.33909 29.9233 1.24046 29.7518C1.14294 29.5791 1.09418 29.3819 1.09418 29.1599C1.09418 28.9492 1.14126 28.7564 1.23541 28.5815C1.33069 28.4056 1.46408 28.2654 1.63557 28.1612C1.80819 28.057 2.01108 28.0065 2.24422 28.0099ZM2.24422 28.3798C2.10299 28.3798 1.97577 28.4151 1.86256 28.4857C1.75047 28.5552 1.66135 28.6493 1.59522 28.7682C1.53021 28.8859 1.4977 29.0164 1.4977 29.1599C1.4977 29.3034 1.52909 29.434 1.59186 29.5517C1.65575 29.6683 1.74262 29.7613 1.85247 29.8308C1.96344 29.8992 2.08954 29.9333 2.23077 29.9333C2.33726 29.9333 2.43646 29.9126 2.52837 29.8711C2.62029 29.8285 2.70043 29.7708 2.76881 29.698C2.8383 29.624 2.89267 29.5405 2.9319 29.4474C2.97113 29.3533 2.99075 29.2552 2.99075 29.1532C2.99075 29.0187 2.95824 28.8926 2.89323 28.7749C2.82934 28.6572 2.74078 28.5619 2.62757 28.4891C2.51548 28.4162 2.3877 28.3798 2.24422 28.3798Z" fill="#1F2937"/>
<path d="M1.49942 8.9101V12.3535H1.08244V9.34725H1.06227L0.221591 9.90546V9.48176L1.08244 8.9101H1.49942ZM2.48974 12.3535V12.0509L3.62633 10.8067C3.75972 10.661 3.86957 10.5343 3.95588 10.4267C4.04219 10.318 4.10608 10.216 4.14755 10.1207C4.19015 10.0243 4.21144 9.9234 4.21144 9.81803C4.21144 9.69698 4.1823 9.59217 4.12401 9.50362C4.06685 9.41507 3.98839 9.34669 3.88862 9.29849C3.78886 9.2503 3.67677 9.2262 3.55235 9.2262C3.42009 9.2262 3.30463 9.25366 3.20599 9.30858C3.10848 9.36239 3.03282 9.43805 2.97901 9.53557C2.92633 9.63308 2.89999 9.74742 2.89999 9.87856H2.50319C2.50319 9.6768 2.54971 9.4997 2.64274 9.34725C2.73578 9.19481 2.86244 9.076 3.02273 8.99081C3.18414 8.90562 3.36516 8.86302 3.5658 8.86302C3.76757 8.86302 3.94635 8.90562 4.10216 8.99081C4.25796 9.076 4.38014 9.19089 4.46869 9.33548C4.55724 9.48008 4.60152 9.64093 4.60152 9.81803C4.60152 9.9447 4.57854 10.0686 4.53258 10.1896C4.48775 10.3095 4.40928 10.4435 4.29719 10.5915C4.18622 10.7383 4.0321 10.9176 3.83482 11.1295L3.0614 11.9567V11.9836H4.66205V12.3535H2.48974Z" fill="#1F2937"/>
<path d="M8.6586 93.8441C8.43666 93.8441 8.23882 93.806 8.06508 93.7297C7.89246 93.6535 7.75515 93.5476 7.65315 93.412C7.55227 93.2752 7.49734 93.1166 7.48837 92.9361H7.91207C7.92104 93.0471 7.95915 93.143 8.02641 93.2237C8.09366 93.3032 8.18165 93.3649 8.29038 93.4086C8.39911 93.4523 8.5196 93.4742 8.65187 93.4742C8.79983 93.4742 8.93098 93.4484 9.04531 93.3968C9.15964 93.3453 9.24931 93.2735 9.31432 93.1816C9.37934 93.0897 9.41184 92.9832 9.41184 92.8622C9.41184 92.7355 9.38046 92.624 9.31769 92.5276C9.25492 92.4301 9.163 92.3538 9.04195 92.2989C8.92089 92.244 8.77293 92.2165 8.59807 92.2165H8.32233V91.8466H8.59807C8.73482 91.8466 8.85475 91.822 8.95788 91.7726C9.06212 91.7233 9.14339 91.6538 9.20167 91.5642C9.26108 91.4745 9.29079 91.3691 9.29079 91.2481C9.29079 91.1315 9.265 91.03 9.21344 90.9437C9.16188 90.8574 9.08902 90.7902 8.99487 90.742C8.90183 90.6938 8.79198 90.6697 8.66532 90.6697C8.54651 90.6697 8.43442 90.6915 8.32905 90.7353C8.22481 90.7778 8.13962 90.8401 8.07348 90.9219C8.00735 91.0026 7.97148 91.1001 7.96588 91.2144H7.56235C7.56908 91.034 7.62344 90.8759 7.72544 90.7403C7.82745 90.6035 7.96083 90.4971 8.12561 90.4208C8.2915 90.3446 8.47365 90.3065 8.67205 90.3065C8.88502 90.3065 9.06773 90.3497 9.22017 90.436C9.37261 90.5212 9.48975 90.6338 9.57157 90.7739C9.6534 90.914 9.69431 91.0654 9.69431 91.2279C9.69431 91.4218 9.64331 91.5871 9.54131 91.7239C9.44043 91.8606 9.30312 91.9554 9.12938 92.008V92.0349C9.34683 92.0708 9.51665 92.1633 9.63883 92.3124C9.761 92.4603 9.82209 92.6436 9.82209 92.8622C9.82209 93.0494 9.77109 93.2175 9.66909 93.3666C9.56821 93.5145 9.43034 93.6311 9.25548 93.7163C9.08062 93.8015 8.88166 93.8441 8.6586 93.8441Z" fill="#1F2937"/>
<path d="M28.6185 93.8441C28.4772 93.8418 28.336 93.8149 28.1947 93.7634C28.0535 93.7118 27.9246 93.6249 27.808 93.5028C27.6915 93.3795 27.5979 93.213 27.5273 93.0034C27.4566 92.7927 27.4213 92.5281 27.4213 92.2098C27.4213 91.9049 27.4499 91.6348 27.5071 91.3994C27.5642 91.1629 27.6472 90.9639 27.7559 90.8025C27.8646 90.64 27.9958 90.5167 28.1494 90.4326C28.304 90.3485 28.4783 90.3065 28.6723 90.3065C28.865 90.3065 29.0365 90.3452 29.1867 90.4225C29.3381 90.4987 29.4614 90.6052 29.5566 90.742C29.6519 90.8787 29.7136 91.0362 29.7416 91.2144H29.3313C29.2932 91.0598 29.2193 90.9314 29.1094 90.8294C28.9996 90.7274 28.8538 90.6764 28.6723 90.6764C28.4055 90.6764 28.1953 90.7924 28.0417 91.0244C27.8893 91.2565 27.8125 91.5821 27.8114 92.0013H27.8383C27.9011 91.906 27.9756 91.8248 28.0619 91.7575C28.1494 91.6891 28.2458 91.6365 28.3511 91.5995C28.4565 91.5625 28.568 91.544 28.6857 91.544C28.883 91.544 29.0634 91.5933 29.2271 91.6919C29.3908 91.7895 29.5219 91.9245 29.6205 92.0971C29.7192 92.2686 29.7685 92.4654 29.7685 92.6873C29.7685 92.9003 29.7209 93.0953 29.6256 93.2724C29.5303 93.4484 29.3964 93.5885 29.2237 93.6928C29.0522 93.7959 28.8505 93.8463 28.6185 93.8441ZM28.6185 93.4742C28.7597 93.4742 28.8863 93.4389 28.9984 93.3683C29.1116 93.2976 29.2008 93.2029 29.2658 93.0841C29.3319 92.9653 29.365 92.833 29.365 92.6873C29.365 92.5449 29.333 92.4155 29.2691 92.2989C29.2064 92.1812 29.1195 92.0876 29.0085 92.0181C28.8987 91.9486 28.7731 91.9139 28.6319 91.9139C28.5254 91.9139 28.4262 91.9352 28.3343 91.9778C28.2424 92.0192 28.1617 92.0764 28.0922 92.1493C28.0238 92.2221 27.97 92.3056 27.9308 92.3998C27.8915 92.4928 27.8719 92.5909 27.8719 92.694C27.8719 92.8308 27.9039 92.9586 27.9678 93.0774C28.0328 93.1962 28.1213 93.292 28.2334 93.3649C28.3466 93.4377 28.475 93.4742 28.6185 93.4742Z" fill="#1F2937"/>
<path d="M49.4884 90.3065C49.6296 90.3076 49.7708 90.3345 49.9121 90.3872C50.0533 90.4399 50.1822 90.5273 50.2988 90.6495C50.4154 90.7706 50.5089 90.9359 50.5796 91.1455C50.6502 91.3551 50.6855 91.618 50.6855 91.9341C50.6855 92.2401 50.6563 92.5119 50.5981 92.7495C50.5409 92.986 50.4579 93.1855 50.3492 93.3481C50.2416 93.5106 50.1105 93.6339 49.9558 93.718C49.8022 93.802 49.6285 93.8441 49.4346 93.8441C49.2418 93.8441 49.0697 93.806 48.9184 93.7297C48.7682 93.6524 48.6449 93.5454 48.5485 93.4086C48.4532 93.2707 48.3921 93.111 48.3652 92.9294H48.7755C48.8125 93.0875 48.8859 93.2181 48.9957 93.3212C49.1067 93.4232 49.253 93.4742 49.4346 93.4742C49.7002 93.4742 49.9098 93.3582 50.0634 93.1261C50.2181 92.8941 50.2954 92.5662 50.2954 92.1425H50.2685C50.2057 92.2367 50.1312 92.318 50.0449 92.3863C49.9586 92.4547 49.8627 92.5074 49.7574 92.5444C49.652 92.5814 49.5399 92.5999 49.4211 92.5999C49.2238 92.5999 49.0428 92.5511 48.878 92.4536C48.7144 92.355 48.5832 92.2199 48.4846 92.0484C48.3871 91.8758 48.3383 91.6785 48.3383 91.4566C48.3383 91.2458 48.3854 91.053 48.4796 90.8782C48.5748 90.7022 48.7082 90.5621 48.8797 90.4578C49.0523 90.3536 49.2552 90.3031 49.4884 90.3065ZM49.4884 90.6764C49.3471 90.6764 49.2199 90.7117 49.1067 90.7823C48.9946 90.8518 48.9055 90.946 48.8394 91.0648C48.7743 91.1825 48.7418 91.3131 48.7418 91.4566C48.7418 91.6 48.7732 91.7306 48.836 91.8483C48.8999 91.9649 48.9868 92.0579 49.0966 92.1274C49.2076 92.1958 49.3337 92.23 49.4749 92.23C49.5814 92.23 49.6806 92.2092 49.7725 92.1678C49.8644 92.1252 49.9446 92.0674 50.0129 91.9946C50.0824 91.9206 50.1368 91.8371 50.176 91.7441C50.2153 91.6499 50.2349 91.5518 50.2349 91.4498C50.2349 91.3153 50.2024 91.1892 50.1374 91.0715C50.0735 90.9538 49.9849 90.8585 49.8717 90.7857C49.7596 90.7128 49.6318 90.6764 49.4884 90.6764Z" fill="#1F2937"/>
<path d="M69.6606 90.3536V93.797H69.2436V90.7907H69.2234L68.3827 91.3489V90.9252L69.2436 90.3536H69.6606ZM70.6509 93.797V93.4944L71.7875 92.2502C71.9209 92.1044 72.0307 91.9778 72.117 91.8702C72.2033 91.7614 72.2672 91.6594 72.3087 91.5642C72.3513 91.4678 72.3726 91.3669 72.3726 91.2615C72.3726 91.1405 72.3434 91.0357 72.2851 90.9471C72.228 90.8585 72.1495 90.7902 72.0498 90.742C71.95 90.6938 71.8379 90.6697 71.7135 90.6697C71.5812 90.6697 71.4658 90.6971 71.3671 90.7521C71.2696 90.8059 71.1939 90.8815 71.1401 90.979C71.0875 91.0766 71.0611 91.1909 71.0611 91.322H70.6643C70.6643 91.1203 70.7108 90.9432 70.8039 90.7907C70.8969 90.6383 71.0236 90.5195 71.1839 90.4343C71.3453 90.3491 71.5263 90.3065 71.7269 90.3065C71.9287 90.3065 72.1075 90.3491 72.2633 90.4343C72.4191 90.5195 72.5413 90.6344 72.6298 90.779C72.7184 90.9236 72.7627 91.0844 72.7627 91.2615C72.7627 91.3882 72.7397 91.512 72.6937 91.6331C72.6489 91.753 72.5704 91.887 72.4583 92.0349C72.3474 92.1818 72.1932 92.3611 71.996 92.573L71.2225 93.4002V93.4271H72.8232V93.797H70.6509Z" fill="#1F2937"/>
<path d="M90.5627 90.3536V93.797H90.1457V90.7907H90.1255L89.2849 91.3489V90.9252L90.1457 90.3536H90.5627ZM92.6291 93.8441C92.4318 93.8441 92.2541 93.8048 92.0961 93.7264C91.938 93.6479 91.8114 93.5403 91.7161 93.4036C91.6208 93.2668 91.5687 93.111 91.5597 92.9361H91.9633C91.979 93.0919 92.0496 93.2209 92.1751 93.3229C92.3018 93.4237 92.4531 93.4742 92.6291 93.4742C92.7703 93.4742 92.8959 93.4411 93.0057 93.375C93.1167 93.3088 93.2035 93.2181 93.2663 93.1026C93.3302 92.986 93.3622 92.8543 93.3622 92.7075C93.3622 92.5573 93.3291 92.4233 93.263 92.3056C93.1979 92.1868 93.1083 92.0932 92.9939 92.0248C92.8796 91.9565 92.749 91.9217 92.6022 91.9206C92.4968 91.9195 92.3886 91.9357 92.2777 91.9694C92.1667 92.0019 92.0754 92.0439 92.0036 92.0955L91.6135 92.0484L91.822 90.3536H93.611V90.7235H92.1718L92.0507 91.739H92.0709C92.1415 91.683 92.23 91.6365 92.3365 91.5995C92.443 91.5625 92.554 91.544 92.6694 91.544C92.8802 91.544 93.0679 91.5944 93.2327 91.6953C93.3986 91.7951 93.5286 91.9318 93.6228 92.1056C93.718 92.2793 93.7657 92.4777 93.7657 92.7008C93.7657 92.9205 93.7164 93.1166 93.6177 93.2892C93.5202 93.4607 93.3857 93.5964 93.2142 93.6961C93.0427 93.7948 92.8477 93.8441 92.6291 93.8441Z" fill="#1F2937"/>
<path d="M111.443 90.3536V93.797H111.026V90.7907H111.006L110.165 91.3489V90.9252L111.026 90.3536H111.443ZM113.536 93.8441C113.305 93.8441 113.101 93.8032 112.924 93.7213C112.748 93.6384 112.611 93.5246 112.512 93.38C112.413 93.2343 112.365 93.0684 112.366 92.8823C112.365 92.7366 112.393 92.6021 112.452 92.4788C112.51 92.3544 112.589 92.2507 112.69 92.1678C112.792 92.0837 112.906 92.0305 113.032 92.008V91.9879C112.867 91.9453 112.736 91.8528 112.638 91.7104C112.541 91.567 112.492 91.4039 112.494 91.2212C112.492 91.0463 112.537 90.8899 112.626 90.7521C112.716 90.6142 112.839 90.5055 112.996 90.4259C113.154 90.3463 113.334 90.3065 113.536 90.3065C113.736 90.3065 113.914 90.3463 114.071 90.4259C114.228 90.5055 114.351 90.6142 114.441 90.7521C114.531 90.8899 114.577 91.0463 114.578 91.2212C114.577 91.4039 114.527 91.567 114.429 91.7104C114.331 91.8528 114.202 91.9453 114.04 91.9879V92.008C114.165 92.0305 114.277 92.0837 114.377 92.1678C114.476 92.2507 114.556 92.3544 114.615 92.4788C114.675 92.6021 114.705 92.7366 114.706 92.8823C114.705 93.0684 114.655 93.2343 114.555 93.38C114.456 93.5246 114.319 93.6384 114.143 93.7213C113.968 93.8032 113.766 93.8441 113.536 93.8441ZM113.536 93.4742C113.692 93.4742 113.826 93.449 113.94 93.3985C114.053 93.3481 114.14 93.2769 114.202 93.185C114.263 93.0931 114.295 92.9855 114.296 92.8622C114.295 92.7321 114.261 92.6172 114.195 92.5175C114.129 92.4177 114.039 92.3393 113.924 92.2821C113.811 92.2249 113.682 92.1963 113.536 92.1963C113.389 92.1963 113.258 92.2249 113.143 92.2821C113.028 92.3393 112.938 92.4177 112.872 92.5175C112.807 92.6172 112.775 92.7321 112.776 92.8622C112.775 92.9855 112.805 93.0931 112.865 93.185C112.927 93.2769 113.015 93.3481 113.129 93.3985C113.243 93.449 113.379 93.4742 113.536 93.4742ZM113.536 91.8399C113.659 91.8399 113.769 91.8152 113.864 91.7659C113.96 91.7166 114.036 91.6477 114.091 91.5591C114.146 91.4706 114.174 91.3669 114.175 91.2481C114.174 91.1315 114.146 91.03 114.093 90.9437C114.039 90.8563 113.964 90.7891 113.869 90.742C113.774 90.6938 113.663 90.6697 113.536 90.6697C113.407 90.6697 113.294 90.6938 113.198 90.742C113.102 90.7891 113.027 90.8563 112.974 90.9437C112.922 91.03 112.896 91.1315 112.897 91.2481C112.896 91.3669 112.922 91.4706 112.976 91.5591C113.031 91.6477 113.107 91.7166 113.203 91.7659C113.299 91.8152 113.41 91.8399 113.536 91.8399Z" fill="#1F2937"/>
<path d="M131.2 93.797V93.4944L132.337 92.2502C132.47 92.1044 132.58 91.9778 132.666 91.8702C132.752 91.7614 132.816 91.6594 132.858 91.5642C132.9 91.4678 132.922 91.3669 132.922 91.2615C132.922 91.1405 132.893 91.0357 132.834 90.9471C132.777 90.8585 132.699 90.7902 132.599 90.742C132.499 90.6938 132.387 90.6697 132.263 90.6697C132.13 90.6697 132.015 90.6971 131.916 90.7521C131.819 90.8059 131.743 90.8815 131.689 90.979C131.637 91.0766 131.61 91.1909 131.61 91.322H131.213C131.213 91.1203 131.26 90.9432 131.353 90.7907C131.446 90.6383 131.573 90.5195 131.733 90.4343C131.894 90.3491 132.075 90.3065 132.276 90.3065C132.478 90.3065 132.657 90.3491 132.812 90.4343C132.968 90.5195 133.09 90.6344 133.179 90.779C133.267 90.9236 133.312 91.0844 133.312 91.2615C133.312 91.3882 133.289 91.512 133.243 91.6331C133.198 91.753 133.12 91.887 133.007 92.0349C132.896 92.1818 132.742 92.3611 132.545 92.573L131.772 93.4002V93.4271H133.372V93.797H131.2ZM135.277 90.3536V93.797H134.86V90.7907H134.84L133.999 91.3489V90.9252L134.86 90.3536H135.277Z" fill="#1F2937"/>
<path d="M12.2234 63.6348C12.2234 64.2343 11.9836 64.8092 11.5568 65.2331C11.13 65.657 10.5512 65.8952 9.9476 65.8952C9.34403 65.8951 8.76519 65.657 8.33841 65.2331C7.91164 64.8091 7.67188 64.2342 7.67188 63.6347C7.67188 63.0351 7.91164 62.4602 8.33841 62.0363C8.76519 61.6123 9.34403 61.3742 9.9476 61.3741C10.5512 61.3741 11.13 61.6123 11.5568 62.0362C11.9836 62.4601 12.2234 63.0353 12.2234 63.6348Z" fill="#D0D4DA" stroke="#C2C2C2" stroke-opacity="0.4" stroke-width="0.394557"/>
<path d="M19.4351 70.7452C19.4351 71.8671 18.9863 72.943 18.1877 73.7362C17.389 74.5294 16.3059 74.975 15.1764 74.975C14.047 74.975 12.9639 74.5293 12.1652 73.736C11.3666 72.9428 10.918 71.8669 10.918 70.745C10.918 69.6232 11.3666 68.5473 12.1652 67.754C12.9639 66.9607 14.047 66.515 15.1764 66.515C16.3059 66.515 17.389 66.9606 18.1877 67.7538C18.9863 68.5471 19.4351 69.6234 19.4351 70.7452Z" fill="#D0D4DA" stroke="#C2C2C2" stroke-opacity="0.4" stroke-width="0.394566"/>
<path d="M22.5903 18.5634C22.5902 19.1388 22.3601 19.6907 21.9504 20.0975C21.5408 20.5044 20.9852 20.733 20.4059 20.7329C19.8266 20.7329 19.271 20.5043 18.8614 20.0974C18.4518 19.6906 18.2217 19.1387 18.2217 18.5633C18.2217 17.9879 18.4518 17.436 18.8614 17.0292C19.271 16.6223 19.8266 16.3937 20.4059 16.3937C20.9852 16.3937 21.5408 16.6222 21.9504 17.0291C22.3601 17.436 22.5902 17.988 22.5903 18.5634Z" fill="#D0D4DA" stroke="#C2C2C2" stroke-opacity="0.4" stroke-width="0.394565"/>
<path d="M27.593 62.8838C27.593 63.3995 27.3867 63.8941 27.0196 64.2588C26.6525 64.6234 26.1545 64.8283 25.6353 64.8282C25.1161 64.8282 24.6182 64.6234 24.2511 64.2587C23.884 63.894 23.6777 63.3994 23.6777 62.8837C23.6777 62.368 23.884 61.8734 24.2511 61.5088C24.6182 61.1441 25.1161 60.9392 25.6353 60.9392C26.1545 60.9392 26.6525 61.144 27.0196 61.5087C27.3867 61.8733 27.593 62.3681 27.593 62.8838Z" fill="#D0D4DA" stroke="#C2C2C2" stroke-opacity="0.4" stroke-width="0.394547"/>
<path d="M33.1927 74.6879C33.1927 75.3011 32.9474 75.8892 32.5109 76.3228C32.0743 76.7564 31.4822 77 30.8649 77C30.2475 77 29.6554 76.7564 29.2189 76.3228C28.7824 75.8891 28.5371 75.301 28.5371 74.6878C28.5371 74.0746 28.7824 73.4865 29.2189 73.0529C29.6554 72.6192 30.2475 72.3756 30.8649 72.3756C31.4822 72.3756 32.0743 72.6192 32.5109 73.0528C32.9474 73.4864 33.1927 74.0747 33.1927 74.6879Z" fill="#D0D4DA" stroke="#C2C2C2" stroke-opacity="0.4" stroke-width="0.394564"/>
<path d="M37.8922 69.6361C37.8921 70.1094 37.7028 70.5633 37.3659 70.898C37.0289 71.2327 36.5719 71.4207 36.0955 71.4207C35.619 71.4207 35.162 71.2326 34.825 70.8979C34.4881 70.5633 34.2988 70.1094 34.2988 69.6361C34.2988 69.1628 34.4881 68.7088 34.825 68.3742C35.162 68.0395 35.619 67.8515 36.0955 67.8514C36.5719 67.8514 37.0289 68.0394 37.3659 68.3741C37.7028 68.7088 37.8921 69.1628 37.8922 69.6361Z" fill="#D0D4DA" stroke="#C2C2C2" stroke-opacity="0.4" stroke-width="0.394533"/>
<path d="M43.2175 70.9705C43.2174 71.4693 43.0179 71.9476 42.6628 72.3003C42.3078 72.653 41.8262 72.8511 41.324 72.8511C40.8219 72.8511 40.3403 72.6529 39.9852 72.3002C39.6301 71.9475 39.4307 71.4692 39.4307 70.9704C39.4307 70.4716 39.6301 69.9933 39.9852 69.6406C40.3403 69.2879 40.8219 69.0897 41.324 69.0897C41.8262 69.0897 42.3078 69.2878 42.6628 69.6405C43.0179 69.9932 43.2174 70.4717 43.2175 70.9705Z" fill="#D0D4DA" stroke="#C2C2C2" stroke-opacity="0.4" stroke-width="0.394591"/>
<path d="M48.4184 76.5665C48.4184 77.058 48.2218 77.5293 47.872 77.8767C47.5221 78.2242 47.0477 78.4194 46.5529 78.4194C46.0582 78.4194 45.5837 78.2242 45.2339 77.8767C44.884 77.5292 44.6875 77.0579 44.6875 76.5664C44.6875 76.075 44.884 75.6037 45.2339 75.2562C45.5837 74.9087 46.0582 74.7135 46.5529 74.7135C47.0477 74.7135 47.5221 74.9087 47.872 75.2562C48.2218 75.6036 48.4184 76.0751 48.4184 76.5665Z" fill="#D0D4DA" stroke="#C2C2C2" stroke-opacity="0.4" stroke-width="0.394558"/>
<path d="M85.0092 18.9325C85.0092 19.42 84.8142 19.8876 84.4671 20.2323C84.12 20.5771 83.6492 20.7708 83.1584 20.7707C82.6675 20.7707 82.1968 20.577 81.8497 20.2323C81.5026 19.8875 81.3076 19.4199 81.3076 18.9324C81.3076 18.4448 81.5026 17.9772 81.8497 17.6325C82.1968 17.2877 82.6675 17.094 83.1584 17.094C83.6492 17.094 84.12 17.2876 84.4671 17.6324C84.8142 17.9771 85.0092 18.4449 85.0092 18.9325Z" fill="#1F2937" stroke="#C2C2C2" stroke-opacity="0.4" stroke-width="0.394593"/>
<path d="M90.2674 23.5925C90.2673 24.0877 90.0693 24.5626 89.7167 24.9127C89.3642 25.2629 88.8861 25.4596 88.3875 25.4596C87.889 25.4595 87.4109 25.2628 87.0584 24.9127C86.7059 24.5625 86.5078 24.0876 86.5078 23.5924C86.5078 23.0972 86.7059 22.6223 87.0584 22.2721C87.4109 21.922 87.889 21.7252 88.3875 21.7252C88.8861 21.7252 89.3642 21.9219 89.7167 22.2721C90.0693 22.6222 90.2673 23.0973 90.2674 23.5925Z" fill="#1F2937" stroke="#C2C2C2" stroke-opacity="0.4" stroke-width="0.394581"/>
<path d="M95.419 73.846C95.4189 74.3208 95.229 74.7761 94.891 75.1118C94.553 75.4475 94.0946 75.6361 93.6167 75.6361C93.1387 75.6361 92.6803 75.4475 92.3423 75.1118C92.0043 74.7761 91.8145 74.3207 91.8145 73.846C91.8145 73.3712 92.0043 72.9158 92.3423 72.5801C92.6803 72.2444 93.1387 72.0558 93.6167 72.0558C94.0946 72.0558 94.553 72.2444 94.891 72.5801C95.229 72.9158 95.4189 73.3713 95.419 73.846Z" fill="#1F2937" stroke="#C2C2C2" stroke-opacity="0.4" stroke-width="0.394543"/>
<path d="M100.687 67.653C100.687 68.1374 100.493 68.602 100.148 68.9445C99.8031 69.287 99.3354 69.4795 98.8477 69.4795C98.36 69.4794 97.8922 69.287 97.5474 68.9445C97.2025 68.6019 97.0088 68.1373 97.0088 67.6529C97.0088 67.1684 97.2025 66.7039 97.5474 66.3613C97.8922 66.0188 98.36 65.8263 98.8477 65.8263C99.3354 65.8263 99.8031 66.0187 100.148 66.3612C100.493 66.7038 100.687 67.1685 100.687 67.653Z" fill="#1F2937" stroke="#C2C2C2" stroke-opacity="0.4" stroke-width="0.394538"/>
<path d="M105.877 60.1121C105.877 60.5867 105.687 61.0418 105.349 61.3774C105.011 61.7129 104.553 61.9015 104.075 61.9014C103.597 61.9014 103.139 61.7129 102.801 61.3773C102.463 61.0417 102.273 60.5866 102.273 60.112C102.273 59.6374 102.463 59.1822 102.801 58.8466C103.139 58.5111 103.597 58.3225 104.075 58.3225C104.553 58.3225 105.011 58.511 105.349 58.8466C105.687 59.1822 105.877 59.6375 105.877 60.1121Z" fill="#1F2937" stroke="#C2C2C2" stroke-opacity="0.4" stroke-width="0.394561"/>
<path d="M111.182 44.3847C111.182 44.8793 110.985 45.3536 110.632 45.7033C110.28 46.0529 109.803 46.2494 109.305 46.2494C108.807 46.2494 108.33 46.0529 107.978 45.7032C107.626 45.3535 107.428 44.8792 107.428 44.3846C107.428 43.8901 107.626 43.4158 107.978 43.0661C108.33 42.7164 108.807 42.5199 109.305 42.5199C109.803 42.5199 110.28 42.7163 110.632 43.066C110.985 43.4157 111.182 43.8902 111.182 44.3847Z" fill="#1F2937" stroke="#C2C2C2" stroke-opacity="0.4" stroke-width="0.394523"/>
<path d="M116.349 20.5562C116.349 21.0342 116.157 21.4926 115.817 21.8306C115.477 22.1685 115.015 22.3584 114.534 22.3584C114.053 22.3584 113.591 22.1685 113.251 21.8305C112.911 21.4925 112.72 21.0341 112.72 20.5561C112.72 20.0781 112.911 19.6197 113.251 19.2817C113.591 18.9437 114.053 18.7538 114.534 18.7538C115.015 18.7538 115.477 18.9436 115.817 19.2816C116.157 19.6196 116.349 20.0782 116.349 20.5562Z" fill="#1F2937" stroke="#C2C2C2" stroke-opacity="0.4" stroke-width="0.394563"/>
<path d="M121.575 24.5222C121.575 24.9993 121.384 25.4569 121.044 25.7943C120.705 26.1317 120.244 26.3213 119.763 26.3213C119.283 26.3213 118.822 26.1317 118.483 25.7943C118.143 25.4569 117.952 24.9992 117.952 24.5221C117.952 24.0449 118.143 23.5873 118.483 23.2499C118.822 22.9125 119.283 22.7229 119.763 22.7229C120.244 22.7229 120.705 22.9124 121.044 23.2498C121.384 23.5872 121.575 24.045 121.575 24.5222Z" fill="#1F2937" stroke="#C2C2C2" stroke-opacity="0.4" stroke-width="0.394541"/>
<path d="M127.545 29.7627C127.545 30.4347 127.276 31.0792 126.798 31.5544C126.32 32.0295 125.671 32.2965 124.994 32.2964C124.318 32.2964 123.669 32.0295 123.19 31.5543C122.712 31.0791 122.443 30.4346 122.443 29.7626C122.443 29.0906 122.712 28.4461 123.19 27.9709C123.669 27.4957 124.318 27.2288 124.994 27.2288C125.671 27.2287 126.32 27.4957 126.798 27.9708C127.276 28.446 127.545 29.0907 127.545 29.7627Z" fill="#1F2937" stroke="#C2C2C2" stroke-opacity="0.4" stroke-width="0.394548"/>
<path d="M133.057 26.5072C133.057 27.2536 132.758 27.9695 132.227 28.4973C131.695 29.0251 130.975 29.3215 130.223 29.3215C129.472 29.3215 128.751 29.025 128.22 28.4972C127.688 27.9694 127.39 27.2535 127.39 26.5071C127.39 25.7607 127.688 25.0448 128.22 24.517C128.751 23.9892 129.472 23.6926 130.223 23.6926C130.975 23.6926 131.695 23.9891 132.227 24.5169C132.758 25.0447 133.057 25.7608 133.057 26.5072Z" fill="#1F2937" stroke="#C2C2C2" stroke-opacity="0.4" stroke-width="0.394576"/>
<path d="M137.336 35.3759C137.336 35.8722 137.138 36.3482 136.784 36.6991C136.431 37.05 135.952 37.2472 135.452 37.2472C134.953 37.2472 134.473 37.05 134.12 36.6991C133.767 36.3481 133.568 35.8721 133.568 35.3758C133.568 34.8795 133.767 34.4036 134.12 34.0526C134.473 33.7017 134.953 33.5045 135.452 33.5045C135.952 33.5045 136.431 33.7016 136.784 34.0526C137.138 34.4035 137.336 34.8796 137.336 35.3759Z" fill="#1F2937" stroke="#C2C2C2" stroke-opacity="0.4" stroke-width="0.394588"/>
<path d="M142.554 53.6217C142.554 54.1154 142.357 54.5888 142.005 54.9378C141.654 55.2868 141.177 55.4829 140.68 55.4829C140.183 55.4829 139.707 55.2868 139.355 54.9377C139.004 54.5887 138.807 54.1153 138.807 53.6216C138.807 53.128 139.004 52.6546 139.355 52.3055C139.707 51.9565 140.183 51.7604 140.68 51.7604C141.177 51.7604 141.654 51.9564 142.005 52.3055C142.357 52.6545 142.554 53.1281 142.554 53.6217Z" fill="#1F2937" stroke="#C2C2C2" stroke-opacity="0.4" stroke-width="0.394548"/>
<path d="M147.657 18.8284C147.657 19.2884 147.473 19.7295 147.146 20.0547C146.818 20.3799 146.374 20.5626 145.911 20.5626C145.448 20.5626 145.004 20.3799 144.676 20.0546C144.349 19.7294 144.165 19.2883 144.165 18.8283C144.165 18.3683 144.349 17.9272 144.676 17.602C145.004 17.2767 145.448 17.094 145.911 17.094C146.374 17.094 146.818 17.2767 147.146 17.6019C147.473 17.9271 147.657 18.3684 147.657 18.8284Z" fill="#1F2937" stroke="#C2C2C2" stroke-opacity="0.4" stroke-width="0.394558"/>
<path d="M152.935 10.2215C152.935 10.6947 152.746 11.1485 152.409 11.4831C152.072 11.8177 151.615 12.0057 151.139 12.0057C150.663 12.0057 150.206 11.8177 149.869 11.483C149.532 11.1484 149.343 10.6946 149.343 10.2214C149.343 9.74819 149.532 9.29436 149.869 8.95975C150.206 8.62514 150.663 8.43715 151.139 8.43713C151.615 8.43712 152.072 8.62509 152.409 8.95969C152.746 9.29428 152.935 9.74828 152.935 10.2215Z" fill="#1F2937" stroke="#C2C2C2" stroke-opacity="0.4" stroke-width="0.394528"/>
<path d="M74.533 12.0425C74.533 12.5257 74.3397 12.9892 73.9957 13.3309C73.6517 13.6725 73.1851 13.8645 72.6986 13.8645C72.2121 13.8645 71.7455 13.6725 71.4015 13.3308C71.0575 12.9891 70.8643 12.5256 70.8643 12.0424C70.8643 11.5592 71.0575 11.0957 71.4015 10.754C71.7455 10.4123 72.2121 10.2203 72.6986 10.2203C73.1851 10.2203 73.6517 10.4123 73.9957 10.754C74.3397 11.0956 74.533 11.5593 74.533 12.0425Z" fill="#717171" stroke="#C2C2C2" stroke-opacity="0.4" stroke-width="0.394537"/>
<path d="M61.6365 71.5418C61.6365 72.025 61.4432 72.4884 61.0992 72.8301C60.7552 73.1718 60.2886 73.3638 59.8021 73.3637C59.3156 73.3637 58.849 73.1718 58.505 72.8301C58.161 72.4884 57.9678 72.0249 57.9678 71.5417C57.9678 71.0584 58.161 70.595 58.505 70.2533C58.849 69.9116 59.3156 69.7196 59.8021 69.7196C60.2886 69.7196 60.7552 69.9115 61.0992 70.2532C61.4432 70.5949 61.6365 71.0585 61.6365 71.5418Z" fill="#717171" stroke="#C2C2C2" stroke-opacity="0.4" stroke-width="0.394537"/>
<path d="M68.9705 73.9697C68.9705 74.453 68.7772 74.9164 68.4332 75.2581C68.0892 75.5998 67.6226 75.7917 67.1361 75.7917C66.6496 75.7917 66.183 75.5997 65.839 75.258C65.495 74.9163 65.3018 74.4529 65.3018 73.9697C65.3018 73.4864 65.495 73.023 65.839 72.6813C66.183 72.3396 66.6496 72.1476 67.1361 72.1476C67.6226 72.1476 68.0892 72.3395 68.4332 72.6812C68.7772 73.0229 68.9705 73.4865 68.9705 73.9697Z" fill="#717171" stroke="#C2C2C2" stroke-opacity="0.4" stroke-width="0.394537"/>
<path d="M76.3035 71.1948C76.3035 71.6781 76.1102 72.1415 75.7662 72.4832C75.4222 72.8249 74.9556 73.0168 74.4691 73.0168C73.9826 73.0168 73.516 72.8248 73.172 72.4831C72.828 72.1414 72.6348 71.678 72.6348 71.1948C72.6348 70.7115 72.828 70.2481 73.172 69.9064C73.516 69.5647 73.9826 69.3727 74.4691 69.3727C74.9556 69.3727 75.4222 69.5646 75.7662 69.9063C76.1102 70.248 76.3035 70.7116 76.3035 71.1948Z" fill="#717171" stroke="#C2C2C2" stroke-opacity="0.4" stroke-width="0.394537"/>
</svg>
