<svg width="162" height="63" viewBox="0 0 162 63" fill="none" xmlns="http://www.w3.org/2000/svg">
<g clip-path="url(#clip0_653_33400)">
<path d="M12.0869 41.5488H161.805" stroke="black" stroke-width="0.165752"/>
<path d="M18.8898 43.0525V41.5508" stroke="black" stroke-width="0.165752"/>
<path d="M18.5374 54.145L18.5374 53.8912L19.734 53.8912C19.8422 53.8912 19.9348 53.9126 20.0117 53.9554C20.0886 53.9977 20.1474 54.0573 20.188 54.1343C20.2281 54.2112 20.2482 54.3013 20.2482 54.4045C20.2482 54.4996 20.2309 54.585 20.1963 54.6608C20.1616 54.7361 20.1114 54.7957 20.0455 54.8396C19.979 54.883 19.8982 54.9047 19.8032 54.9047L19.8032 54.6518C19.8499 54.6518 19.8903 54.6411 19.9243 54.6196C19.9584 54.5977 19.985 54.5677 20.0043 54.5298C20.0229 54.4913 20.0323 54.4474 20.0323 54.398C20.0323 54.3441 20.021 54.2985 19.9985 54.2612C19.9754 54.2233 19.9416 54.1944 19.8971 54.1746C19.8526 54.1549 19.7982 54.145 19.734 54.145L18.5374 54.145ZM20.2531 53.172C20.2531 53.2522 20.2383 53.3247 20.2086 53.3895C20.1784 53.4543 20.1347 53.5057 20.0776 53.5436C20.0205 53.581 19.9504 53.5997 19.8675 53.5997C19.796 53.5997 19.7373 53.5859 19.6911 53.5585C19.645 53.531 19.6084 53.4939 19.5815 53.4472C19.5546 53.4005 19.5343 53.3483 19.5205 53.2906C19.5068 53.233 19.4964 53.1742 19.4892 53.1143C19.4804 53.0385 19.4733 52.9769 19.4678 52.9297C19.4618 52.8825 19.4521 52.8481 19.439 52.8267C19.4258 52.8053 19.4043 52.7946 19.3747 52.7946L19.3689 52.7946C19.2969 52.7946 19.2412 52.8149 19.2016 52.8555C19.1621 52.8956 19.1423 52.9555 19.1423 53.0352C19.1423 53.1181 19.1607 53.1835 19.1975 53.2313C19.2338 53.2785 19.2741 53.3112 19.3186 53.3294L19.2659 53.5609C19.189 53.5335 19.1269 53.4934 19.0797 53.4406C19.0319 53.3873 18.9973 53.3261 18.9758 53.2568C18.9539 53.1876 18.9429 53.1148 18.9429 53.0385C18.9429 52.9879 18.9489 52.9344 18.961 52.8778C18.9725 52.8207 18.994 52.7674 19.0253 52.7179C19.0566 52.6679 19.1014 52.627 19.1596 52.5951C19.2173 52.5633 19.2923 52.5473 19.3846 52.5473L20.2251 52.5473L20.2251 52.788L20.052 52.788L20.052 52.7979C20.0839 52.8138 20.1152 52.8377 20.146 52.8695C20.1768 52.9014 20.2023 52.9423 20.2226 52.9923C20.243 53.0423 20.2531 53.1022 20.2531 53.172ZM20.0553 53.1184C20.0553 53.0503 20.0419 52.9921 20.015 52.9437C19.988 52.8948 19.9529 52.8577 19.9095 52.8325C19.8655 52.8066 19.8186 52.7937 19.7686 52.7937L19.6054 52.7937C19.6142 52.8025 19.6224 52.8196 19.6301 52.8448C19.6373 52.8695 19.6436 52.8978 19.6491 52.9297C19.654 52.9616 19.6587 52.9926 19.6631 53.0228C19.6669 53.053 19.6702 53.0783 19.673 53.0986C19.679 53.1464 19.6892 53.1901 19.7035 53.2297C19.7178 53.2687 19.7384 53.3 19.7653 53.3236C19.7916 53.3467 19.8268 53.3582 19.8708 53.3582C19.9317 53.3582 19.9779 53.3357 20.0092 53.2906C20.04 53.2456 20.0553 53.1882 20.0553 53.1184ZM19.4736 51.9728L20.2251 51.9728L20.2251 52.2192L18.9594 52.2192L18.9594 51.9827L19.1654 51.9827L19.1654 51.967C19.0983 51.9379 19.0445 51.8923 19.0039 51.8302C18.9632 51.7676 18.9429 51.6887 18.9429 51.5937C18.9429 51.5075 18.961 51.4319 18.9973 51.3671C19.033 51.3023 19.0863 51.252 19.1571 51.2163C19.228 51.1806 19.3156 51.1627 19.42 51.1627L20.2251 51.1627L20.2251 51.4091L19.4497 51.4091C19.3579 51.4091 19.2862 51.433 19.2346 51.4808C19.1824 51.5286 19.1563 51.5943 19.1563 51.6778C19.1563 51.7349 19.1687 51.7857 19.1934 51.8302C19.2181 51.8742 19.2544 51.909 19.3022 51.9349C19.3494 51.9601 19.4065 51.9728 19.4736 51.9728ZM20.2506 50.2868C20.2506 50.4115 20.224 50.5189 20.1707 50.609C20.1169 50.6985 20.0413 50.7677 19.9441 50.8166C19.8463 50.865 19.7318 50.8891 19.6005 50.8891C19.4708 50.8891 19.3565 50.865 19.2577 50.8166C19.1588 50.7677 19.0816 50.6996 19.0261 50.6123C18.9706 50.5244 18.9429 50.4216 18.9429 50.3041C18.9429 50.2326 18.9547 50.1634 18.9783 50.0964C19.0019 50.0294 19.039 49.9692 19.0896 49.9159C19.1401 49.8626 19.2057 49.8206 19.2865 49.7899C19.3667 49.7591 19.4642 49.7437 19.579 49.7437L19.6664 49.7437L19.6664 50.7499L19.4818 50.7499L19.4818 49.9852C19.417 49.9852 19.3596 49.9983 19.3096 50.0247C19.259 50.0511 19.2192 50.0882 19.1901 50.136C19.161 50.1832 19.1464 50.2387 19.1464 50.3024C19.1464 50.3716 19.1634 50.4321 19.1975 50.4837C19.231 50.5348 19.275 50.5744 19.3294 50.6024C19.3832 50.6298 19.4417 50.6436 19.5049 50.6436L19.6491 50.6436C19.7337 50.6436 19.8057 50.6287 19.865 50.5991C19.9243 50.5689 19.9696 50.5268 20.001 50.473C20.0317 50.4192 20.0471 50.3563 20.0471 50.2843C20.0471 50.2376 20.0405 50.195 20.0273 50.1566C20.0136 50.1181 19.9933 50.0849 19.9663 50.0568C19.9394 50.0288 19.9062 50.0074 19.8666 49.9926L19.9087 49.7594C19.9773 49.778 20.0375 49.8116 20.0891 49.8599C20.1402 49.9077 20.18 49.9679 20.2086 50.0404C20.2366 50.1123 20.2506 50.1945 20.2506 50.2868ZM19.0863 47.4347L19.0863 47.6918C19.0313 47.7017 18.983 47.7201 18.9412 47.747C18.8995 47.774 18.864 47.8069 18.8349 47.8459C18.8058 47.8849 18.7838 47.9286 18.769 47.9769C18.7542 48.0247 18.7467 48.0756 18.7467 48.1294C18.7467 48.2266 18.7712 48.3137 18.8201 48.3906C18.869 48.467 18.9407 48.5274 19.0352 48.5719C19.1297 48.6159 19.245 48.6378 19.3813 48.6378C19.5186 48.6378 19.6345 48.6159 19.729 48.5719C19.8235 48.5274 19.8949 48.4667 19.9433 48.3898C19.9916 48.3129 20.0158 48.2264 20.0158 48.1302C20.0158 48.0769 20.0086 48.0264 19.9944 47.9786C19.9795 47.9302 19.9578 47.8866 19.9293 47.8476C19.9007 47.8086 19.8658 47.7756 19.8246 47.7487C19.7829 47.7212 19.7351 47.7023 19.6812 47.6918L19.682 47.4347C19.765 47.4484 19.8414 47.4751 19.9111 47.5146C19.9804 47.5537 20.0402 47.6039 20.0908 47.6654C20.1408 47.7264 20.1795 47.7962 20.207 47.8748C20.2344 47.9533 20.2482 48.039 20.2482 48.1319C20.2482 48.278 20.2136 48.4082 20.1443 48.5225C20.0746 48.6367 19.9749 48.7268 19.8452 48.7928C19.7156 48.8581 19.5609 48.8908 19.3813 48.8908C19.2011 48.8908 19.0464 48.8579 18.9173 48.7919C18.7877 48.726 18.6882 48.6359 18.619 48.5216C18.5493 48.4074 18.5144 48.2774 18.5144 48.1319C18.5144 48.0423 18.5273 47.9588 18.5531 47.8814C18.5784 47.8033 18.6157 47.7333 18.6652 47.6712C18.7141 47.6091 18.7739 47.5578 18.8448 47.5171C18.9151 47.4765 18.9956 47.449 19.0863 47.4347ZM20.2408 46.9875C20.2408 47.0325 20.2248 47.0712 20.193 47.1037C20.1605 47.1361 20.1215 47.1523 20.0759 47.1523C20.0309 47.1523 19.9924 47.1361 19.9606 47.1037C19.9282 47.0712 19.912 47.0325 19.912 46.9875C19.912 46.9424 19.9282 46.9037 19.9606 46.8713C19.9924 46.8389 20.0309 46.8227 20.0759 46.8227C20.1062 46.8227 20.1339 46.8303 20.1592 46.8457C20.1839 46.8606 20.2037 46.8803 20.2185 46.9051C20.2333 46.9298 20.2408 46.9572 20.2408 46.9875ZM20.2408 46.3303C20.2408 46.3753 20.2248 46.4141 20.193 46.4465C20.1605 46.4789 20.1215 46.4951 20.0759 46.4951C20.0309 46.4951 19.9924 46.4789 19.9606 46.4465C19.9282 46.4141 19.912 46.3753 19.912 46.3303C19.912 46.2852 19.9282 46.2465 19.9606 46.2141C19.9924 46.1817 20.0309 46.1655 20.0759 46.1655C20.1062 46.1655 20.1339 46.1732 20.1592 46.1885C20.1839 46.2034 20.2037 46.2232 20.2185 46.2479C20.2333 46.2726 20.2408 46.3001 20.2408 46.3303ZM20.2408 45.6731C20.2408 45.7181 20.2248 45.7569 20.193 45.7893C20.1605 45.8217 20.1215 45.8379 20.0759 45.8379C20.0309 45.8379 19.9924 45.8217 19.9606 45.7893C19.9282 45.7569 19.912 45.7181 19.912 45.6731C19.912 45.628 19.9282 45.5893 19.9606 45.5569C19.9924 45.5245 20.0309 45.5083 20.0759 45.5083C20.1062 45.5083 20.1339 45.516 20.1592 45.5314C20.1839 45.5462 20.2037 45.566 20.2185 45.5907C20.2333 45.6154 20.2408 45.6429 20.2408 45.6731Z" fill="#111827"/>
<path d="M32.5027 43.0525V41.5508" stroke="black" stroke-width="0.165752"/>
<path d="M32.6807 53.3992L32.6807 53.6563C32.6257 53.6662 32.5774 53.6846 32.5356 53.7115C32.4939 53.7384 32.4585 53.7714 32.4293 53.8104C32.4002 53.8494 32.3783 53.8931 32.3634 53.9414C32.3486 53.9892 32.3412 54.04 32.3412 54.0939C32.3412 54.1911 32.3656 54.2782 32.4145 54.3551C32.4634 54.4315 32.5351 54.4919 32.6296 54.5364C32.7241 54.5803 32.8394 54.6023 32.9757 54.6023C33.113 54.6023 33.2289 54.5803 33.3234 54.5364C33.4179 54.4919 33.4893 54.4312 33.5377 54.3543C33.586 54.2774 33.6102 54.1908 33.6102 54.0947C33.6102 54.0414 33.6031 53.9909 33.5888 53.9431C33.574 53.8947 33.5523 53.8511 33.5237 53.8121C33.4951 53.773 33.4602 53.7401 33.419 53.7132C33.3773 53.6857 33.3295 53.6667 33.2756 53.6563L33.2765 53.3992C33.3594 53.4129 33.4358 53.4396 33.5056 53.4791C33.5748 53.5181 33.6347 53.5684 33.6852 53.6299C33.7352 53.6909 33.7739 53.7607 33.8014 53.8392C33.8289 53.9178 33.8426 54.0035 33.8426 54.0964C33.8426 54.2425 33.808 54.3727 33.7388 54.487C33.669 54.6012 33.5693 54.6913 33.4396 54.7572C33.31 54.8226 33.1553 54.8553 32.9757 54.8553C32.7955 54.8553 32.6408 54.8223 32.5117 54.7564C32.3821 54.6905 32.2827 54.6004 32.2134 54.4861C32.1437 54.3719 32.1088 54.2419 32.1088 54.0964C32.1088 54.0068 32.1217 53.9233 32.1475 53.8458C32.1728 53.7678 32.2101 53.6978 32.2596 53.6357C32.3085 53.5736 32.3684 53.5223 32.4392 53.4816C32.5096 53.441 32.59 53.4135 32.6807 53.3992ZM33.8451 52.5811C33.8451 52.6998 33.8179 52.8033 33.7635 52.8918C33.7091 52.9802 33.633 53.0489 33.5352 53.0978C33.4374 53.1467 33.3232 53.1711 33.1924 53.1711C33.0611 53.1711 32.9463 53.1467 32.848 53.0978C32.7496 53.0489 32.6733 52.9802 32.6189 52.8918C32.5645 52.8033 32.5373 52.6998 32.5373 52.5811C32.5373 52.4625 32.5645 52.3589 32.6189 52.2705C32.6733 52.182 32.7496 52.1133 32.848 52.0644C32.9463 52.0156 33.0611 51.9911 33.1924 51.9911C33.3232 51.9911 33.4374 52.0156 33.5352 52.0644C33.633 52.1133 33.7091 52.182 33.7635 52.2705C33.8179 52.3589 33.8451 52.4625 33.8451 52.5811ZM33.6382 52.5803C33.6382 52.5034 33.6179 52.4397 33.5772 52.3891C33.5366 52.3386 33.4825 52.3012 33.4149 52.2771C33.3473 52.2523 33.2729 52.24 33.1916 52.24C33.1108 52.24 33.0367 52.2523 32.9691 52.2771C32.901 52.3012 32.8463 52.3386 32.8051 52.3891C32.7639 52.4397 32.7433 52.5034 32.7433 52.5803C32.7433 52.6578 32.7639 52.722 32.8051 52.7731C32.8463 52.8237 32.901 52.8613 32.9691 52.886C33.0367 52.9102 33.1108 52.9223 33.1916 52.9223C33.2729 52.9223 33.3473 52.9102 33.4149 52.886C33.4825 52.8613 33.5366 52.8237 33.5772 52.7731C33.6179 52.722 33.6382 52.6578 33.6382 52.5803ZM33.8442 51.2422C33.8442 51.3444 33.8181 51.4356 33.766 51.5158C33.7132 51.5955 33.6382 51.6581 33.541 51.7037C33.4432 51.7488 33.3259 51.7713 33.1891 51.7713C33.0523 51.7713 32.9353 51.7485 32.8381 51.7029C32.7408 51.6567 32.6664 51.5936 32.6148 51.5134C32.5631 51.4332 32.5373 51.3422 32.5373 51.2406C32.5373 51.162 32.5505 51.0989 32.5768 51.0511C32.6027 51.0027 32.6329 50.9654 32.6675 50.939C32.7021 50.9121 32.7326 50.8912 32.759 50.8764L32.759 50.8615L32.1319 50.8615L32.1319 50.6151L33.8195 50.6151L33.8195 50.8558L33.6226 50.8558L33.6226 50.8764C33.6495 50.8912 33.6803 50.9126 33.7149 50.9406C33.7495 50.9681 33.7797 51.006 33.8055 51.0544C33.8313 51.1027 33.8442 51.1653 33.8442 51.2422ZM33.6341 51.1879C33.6341 51.117 33.6154 51.0571 33.5781 51.0082C33.5402 50.9588 33.4877 50.9214 33.4207 50.8961C33.3537 50.8703 33.2756 50.8574 33.1866 50.8574C33.0987 50.8574 33.0218 50.8701 32.9559 50.8953C32.89 50.9206 32.8386 50.9577 32.8018 51.0066C32.765 51.0555 32.7466 51.1159 32.7466 51.1879C32.7466 51.262 32.7658 51.3238 32.8043 51.3733C32.8427 51.4227 32.8952 51.4601 32.9617 51.4853C33.0282 51.5101 33.1031 51.5224 33.1866 51.5224C33.2712 51.5224 33.3473 51.5098 33.4149 51.4845C33.4825 51.4592 33.536 51.4219 33.5756 51.3724C33.6146 51.3225 33.6341 51.2609 33.6341 51.1879ZM34.2942 50.1077C34.2942 50.1445 34.2912 50.1781 34.2851 50.2083C34.2796 50.2385 34.2736 50.261 34.267 50.2758L34.0651 50.2165C34.0772 50.1715 34.0824 50.1314 34.0807 50.0962C34.0791 50.061 34.0659 50.03 34.0412 50.0031C34.0165 49.9756 33.9761 49.9514 33.9201 49.9306L33.836 49.9001L32.5538 50.3632L32.5538 50.0995L33.536 49.7789L33.536 49.7658L32.5538 49.4452L32.5538 49.1807L33.9884 49.7023C34.0544 49.7265 34.1101 49.7572 34.1557 49.7946C34.2019 49.832 34.2365 49.8765 34.2596 49.9281C34.2826 49.9797 34.2942 50.0396 34.2942 50.1077ZM33.8195 48.3152L32.1319 48.3152L32.1319 47.2687L32.3511 47.2687L32.3511 48.0606L32.8653 48.0606L32.8653 47.3437L33.0836 47.3437L33.0836 48.0606L33.8195 48.0606L33.8195 48.3152ZM33.8352 46.8923C33.8352 46.9373 33.8192 46.9761 33.7874 47.0085C33.755 47.0409 33.716 47.0571 33.6704 47.0571C33.6253 47.0571 33.5869 47.0409 33.555 47.0085C33.5226 46.9761 33.5064 46.9373 33.5064 46.8923C33.5064 46.8472 33.5226 46.8085 33.555 46.7761C33.5869 46.7437 33.6253 46.7275 33.6704 46.7275C33.7006 46.7275 33.7283 46.7352 33.7536 46.7505C33.7783 46.7654 33.7981 46.7852 33.8129 46.8099C33.8278 46.8346 33.8352 46.8621 33.8352 46.8923ZM33.8352 46.2351C33.8352 46.2802 33.8192 46.3189 33.7874 46.3513C33.755 46.3837 33.716 46.3999 33.6704 46.3999C33.6253 46.3999 33.5869 46.3837 33.555 46.3513C33.5226 46.3189 33.5064 46.2802 33.5064 46.2351C33.5064 46.1901 33.5226 46.1513 33.555 46.1189C33.5869 46.0865 33.6253 46.0703 33.6704 46.0703C33.7006 46.0703 33.7283 46.078 33.7536 46.0934C33.7783 46.1082 33.7981 46.128 33.8129 46.1527C33.8278 46.1774 33.8352 46.2049 33.8352 46.2351ZM33.8352 45.5779C33.8352 45.623 33.8192 45.6617 33.7874 45.6941C33.755 45.7265 33.716 45.7427 33.6704 45.7427C33.6253 45.7427 33.5869 45.7265 33.555 45.6941C33.5226 45.6617 33.5064 45.623 33.5064 45.5779C33.5064 45.5329 33.5226 45.4941 33.555 45.4617C33.5869 45.4293 33.6253 45.4131 33.6704 45.4131C33.7006 45.4131 33.7283 45.4208 33.7536 45.4362C33.7783 45.451 33.7981 45.4708 33.8129 45.4955C33.8278 45.5202 33.8352 45.5477 33.8352 45.5779Z" fill="#111827"/>
<path d="M46.1132 43.0525V41.5508" stroke="black" stroke-width="0.165752"/>
<path d="M47.4106 54.8009L45.7229 54.8009L45.7229 53.7428L45.9421 53.7428L45.9421 54.5463L46.4563 54.5463L46.4563 53.798L46.6747 53.798L46.6747 54.5463L47.1914 54.5463L47.1914 53.7329L47.4106 53.7329L47.4106 54.8009ZM46.4539 52.474L46.4934 52.6973C46.4648 52.7067 46.4377 52.7215 46.4118 52.7418C46.386 52.7616 46.3649 52.7885 46.3484 52.8226C46.3319 52.8566 46.3237 52.8992 46.3237 52.9503C46.3237 53.0201 46.3393 53.0783 46.3706 53.125C46.4014 53.1717 46.4412 53.195 46.4901 53.195C46.5324 53.195 46.5665 53.1794 46.5923 53.1481C46.6181 53.1168 46.6393 53.0662 46.6558 52.9964L46.7019 52.7954C46.7288 52.6789 46.7703 52.5921 46.8263 52.535C46.8824 52.4778 46.9552 52.4493 47.0447 52.4493C47.1205 52.4493 47.1881 52.4713 47.2474 52.5152C47.3062 52.5586 47.3524 52.6193 47.3859 52.6973C47.4194 52.7748 47.4361 52.8646 47.4361 52.9668C47.4361 53.1085 47.4059 53.2242 47.3455 53.3137C47.2845 53.4033 47.198 53.4582 47.0859 53.4785L47.0496 53.2404C47.1117 53.2255 47.1587 53.195 47.1906 53.1489C47.2219 53.1028 47.2375 53.0426 47.2375 52.9684C47.2375 52.8877 47.2208 52.8231 47.1873 52.7748C47.1532 52.7264 47.1117 52.7023 47.0628 52.7023C47.0233 52.7023 46.99 52.7171 46.9631 52.7468C46.9362 52.7759 46.9159 52.8207 46.9021 52.8811L46.8552 53.0953C46.8283 53.2134 46.7854 53.3008 46.7266 53.3574C46.6678 53.4134 46.5934 53.4414 46.5033 53.4414C46.4286 53.4414 46.3632 53.4206 46.3072 53.3788C46.2511 53.3371 46.2075 53.2794 46.1762 53.2058C46.1443 53.1321 46.1284 53.0478 46.1284 52.9528C46.1284 52.816 46.158 52.7083 46.2174 52.6297C46.2761 52.5512 46.355 52.4993 46.4539 52.474ZM46.1448 51.5875L46.3426 51.5875L46.3426 52.2789L46.1448 52.2789L46.1448 51.5875ZM45.8416 52.0935L45.8416 51.8471L47.0389 51.8471C47.0867 51.8471 47.1227 51.84 47.1469 51.8257C47.1705 51.8114 47.1867 51.793 47.1955 51.7705C47.2037 51.7474 47.2079 51.7224 47.2079 51.6955C47.2079 51.6757 47.2065 51.6584 47.2037 51.6436C47.201 51.6287 47.1988 51.6172 47.1972 51.609L47.4007 51.5645C47.4062 51.5787 47.4117 51.5991 47.4172 51.6254C47.4232 51.6518 47.4265 51.6848 47.4271 51.7243C47.4282 51.7891 47.4166 51.8496 47.3925 51.9056C47.3683 51.9616 47.3309 52.007 47.2804 52.0416C47.2298 52.0762 47.1664 52.0935 47.09 52.0935L45.8416 52.0935ZM46.659 51.0414L47.4106 51.0414L47.4106 51.2878L45.7229 51.2878L45.7229 51.0447L46.3509 51.0447L46.3509 51.029C46.2827 50.9994 46.2286 50.954 46.1885 50.8931C46.1484 50.8321 46.1284 50.7524 46.1284 50.6541C46.1284 50.5673 46.1462 50.4915 46.1819 50.4266C46.2176 50.3613 46.2709 50.3107 46.3418 50.275C46.4121 50.2388 46.5 50.2206 46.6055 50.2206L47.4106 50.2206L47.4106 50.467L46.6352 50.467C46.5423 50.467 46.4703 50.4909 46.4192 50.5387C46.3676 50.5865 46.3418 50.653 46.3418 50.7381C46.3418 50.7964 46.3541 50.8486 46.3789 50.8947C46.4036 50.9403 46.4399 50.9763 46.4876 51.0027C46.5349 51.0285 46.592 51.0414 46.659 51.0414ZM47.4361 49.3463C47.4361 49.471 47.4095 49.5784 47.3562 49.6685C47.3024 49.7581 47.2268 49.8273 47.1296 49.8762C47.0318 49.9245 46.9173 49.9487 46.786 49.9487C46.6563 49.9487 46.542 49.9245 46.4431 49.8762C46.3443 49.8273 46.2671 49.7592 46.2116 49.6718C46.1561 49.5839 46.1284 49.4812 46.1284 49.3636C46.1284 49.2922 46.1402 49.223 46.1638 49.156C46.1874 49.0889 46.2245 49.0288 46.275 48.9755C46.3256 48.9222 46.3912 48.8802 46.472 48.8494C46.5522 48.8186 46.6497 48.8033 46.7645 48.8033L46.8519 48.8033L46.8519 49.8094L46.6673 49.8094L46.6673 49.0447C46.6025 49.0447 46.5451 49.0579 46.4951 49.0843C46.4445 49.1106 46.4047 49.1477 46.3756 49.1955C46.3465 49.2428 46.3319 49.2982 46.3319 49.362C46.3319 49.4312 46.3489 49.4916 46.383 49.5433C46.4165 49.5943 46.4605 49.6339 46.5148 49.6619C46.5687 49.6894 46.6272 49.7031 46.6904 49.7031L46.8346 49.7031C46.9192 49.7031 46.9911 49.6883 47.0505 49.6586C47.1098 49.6284 47.1551 49.5864 47.1864 49.5325C47.2172 49.4787 47.2326 49.4158 47.2326 49.3438C47.2326 49.2971 47.226 49.2546 47.2128 49.2161C47.1991 49.1777 47.1787 49.1444 47.1518 49.1164C47.1249 49.0884 47.0917 49.067 47.0521 49.0521L47.0941 48.8189C47.1628 48.8376 47.223 48.8711 47.2746 48.9195C47.3257 48.9672 47.3655 49.0274 47.3941 49.0999C47.4221 49.1719 47.4361 49.254 47.4361 49.3463ZM47.4106 48.5299L46.1448 48.5299L46.1448 48.2917L46.3459 48.2917L46.3459 48.2785C46.2778 48.2555 46.2242 48.2148 46.1852 48.1566C46.1457 48.0978 46.1259 48.0313 46.1259 47.9572C46.1259 47.9418 46.1264 47.9237 46.1275 47.9028C46.1286 47.8814 46.13 47.8646 46.1317 47.8525L46.3673 47.8525C46.3646 47.8624 46.3616 47.88 46.3583 47.9052C46.3544 47.9305 46.3525 47.9558 46.3525 47.9811C46.3525 48.0393 46.3649 48.0912 46.3896 48.1368C46.4138 48.1819 46.4475 48.2176 46.4909 48.2439C46.5338 48.2703 46.5827 48.2835 46.6376 48.2835L47.4106 48.2835L47.4106 48.5299ZM47.4262 46.8628C47.4262 46.9079 47.4103 46.9466 47.3784 46.979C47.346 47.0114 47.307 47.0276 47.2614 47.0276C47.2164 47.0276 47.1779 47.0114 47.1461 46.979C47.1136 46.9466 47.0974 46.9079 47.0974 46.8628C47.0974 46.8178 47.1136 46.779 47.1461 46.7466C47.1779 46.7142 47.2164 46.698 47.2614 46.698C47.2916 46.698 47.3194 46.7057 47.3447 46.7211C47.3694 46.7359 47.3892 46.7557 47.404 46.7804C47.4188 46.8051 47.4262 46.8326 47.4262 46.8628ZM47.4262 46.2056C47.4262 46.2507 47.4103 46.2894 47.3784 46.3218C47.346 46.3542 47.307 46.3705 47.2614 46.3705C47.2164 46.3705 47.1779 46.3542 47.1461 46.3218C47.1136 46.2894 47.0974 46.2507 47.0974 46.2056C47.0974 46.1606 47.1136 46.1219 47.1461 46.0895C47.1779 46.057 47.2164 46.0408 47.2614 46.0408C47.2916 46.0408 47.3194 46.0485 47.3447 46.0639C47.3694 46.0787 47.3892 46.0985 47.404 46.1232C47.4188 46.148 47.4262 46.1754 47.4262 46.2056ZM47.4262 45.5485C47.4262 45.5935 47.4103 45.6322 47.3784 45.6647C47.346 45.6971 47.307 45.7133 47.2614 45.7133C47.2164 45.7133 47.1779 45.6971 47.1461 45.6647C47.1136 45.6322 47.0974 45.5935 47.0974 45.5485C47.0974 45.5034 47.1136 45.4647 47.1461 45.4323C47.1779 45.3999 47.2164 45.3837 47.2614 45.3837C47.2916 45.3837 47.3194 45.3913 47.3447 45.4067C47.3694 45.4216 47.3892 45.4413 47.404 45.4661C47.4188 45.4908 47.4262 45.5182 47.4262 45.5485Z" fill="#111827"/>
<path d="M59.7232 43.0525V41.5508" stroke="black" stroke-width="0.165752"/>
<path d="M59.3139 54.145L59.3139 53.8912L60.5105 53.8912C60.6187 53.8912 60.7112 53.9126 60.7882 53.9554C60.8651 53.9977 60.9239 54.0573 60.9645 54.1343C61.0046 54.2112 61.0247 54.3013 61.0247 54.4045C61.0247 54.4996 61.0074 54.585 60.9727 54.6608C60.9381 54.7361 60.8879 54.7957 60.8219 54.8396C60.7555 54.883 60.6747 54.9047 60.5797 54.9047L60.5797 54.6518C60.6264 54.6518 60.6667 54.6411 60.7008 54.6196C60.7349 54.5977 60.7615 54.5677 60.7807 54.5298C60.7994 54.4913 60.8088 54.4474 60.8088 54.398C60.8088 54.3441 60.7975 54.2985 60.775 54.2612C60.7519 54.2233 60.7181 54.1944 60.6736 54.1746C60.6291 54.1549 60.5747 54.145 60.5105 54.145L59.3139 54.145ZM61.0271 52.9948C61.0271 53.1195 61.0005 53.2269 60.9472 53.317C60.8934 53.4066 60.8178 53.4758 60.7206 53.5247C60.6228 53.573 60.5083 53.5972 60.377 53.5972C60.2473 53.5972 60.133 53.573 60.0341 53.5247C59.9353 53.4758 59.8581 53.4077 59.8026 53.3203C59.7471 53.2324 59.7194 53.1297 59.7194 53.0121C59.7194 52.9407 59.7312 52.8715 59.7548 52.8044C59.7784 52.7374 59.8155 52.6773 59.866 52.624C59.9166 52.5707 59.9822 52.5287 60.063 52.4979C60.1432 52.4671 60.2407 52.4517 60.3555 52.4517L60.4429 52.4517L60.4429 53.4579L60.2583 53.4579L60.2583 52.6932C60.1935 52.6932 60.1361 52.7064 60.0861 52.7328C60.0355 52.7591 59.9957 52.7962 59.9666 52.844C59.9375 52.8912 59.9229 52.9467 59.9229 53.0105C59.9229 53.0797 59.9399 53.1401 59.974 53.1917C60.0075 53.2428 60.0515 53.2824 60.1058 53.3104C60.1597 53.3379 60.2182 53.3516 60.2814 53.3516L60.4256 53.3516C60.5102 53.3516 60.5821 53.3368 60.6415 53.3071C60.7008 53.2769 60.7461 53.2349 60.7774 53.181C60.8082 53.1272 60.8236 53.0643 60.8236 52.9923C60.8236 52.9456 60.817 52.9031 60.8038 52.8646C60.7901 52.8261 60.7698 52.7929 60.7428 52.7649C60.7159 52.7369 60.6827 52.7154 60.6431 52.7006L60.6852 52.4674C60.7538 52.4861 60.814 52.5196 60.8656 52.5679C60.9167 52.6157 60.9565 52.6759 60.9851 52.7484C61.0131 52.8204 61.0271 52.9025 61.0271 52.9948ZM60.2501 51.932L61.0016 51.932L61.0016 52.1784L59.7358 52.1784L59.7358 51.9419L59.9419 51.9419L59.9419 51.9262C59.8748 51.8971 59.821 51.8515 59.7803 51.7894C59.7397 51.7268 59.7194 51.648 59.7194 51.5529C59.7194 51.4667 59.7375 51.3911 59.7737 51.3263C59.8095 51.2615 59.8627 51.2112 59.9336 51.1755C60.0045 51.1398 60.0921 51.1219 60.1965 51.1219L61.0016 51.1219L61.0016 51.3683L60.2262 51.3683C60.1344 51.3683 60.0627 51.3922 60.0111 51.44C59.9589 51.4878 59.9328 51.5535 59.9328 51.637C59.9328 51.6941 59.9452 51.7449 59.9699 51.7894C59.9946 51.8334 60.0309 51.8683 60.0786 51.8941C60.1259 51.9193 60.183 51.932 60.2501 51.932ZM60.2501 50.5451L61.0016 50.5451L61.0016 50.7915L59.7358 50.7915L59.7358 50.555L59.9419 50.555L59.9419 50.5393C59.8748 50.5102 59.821 50.4646 59.7803 50.4025C59.7397 50.3399 59.7194 50.2611 59.7194 50.166C59.7194 50.0798 59.7375 50.0042 59.7737 49.9394C59.8095 49.8746 59.8627 49.8243 59.9336 49.7886C60.0045 49.7529 60.0921 49.7351 60.1965 49.7351L61.0016 49.7351L61.0016 49.9814L60.2262 49.9814C60.1344 49.9814 60.0627 50.0053 60.0111 50.0531C59.9589 50.1009 59.9328 50.1666 59.9328 50.2501C59.9328 50.3072 59.9452 50.358 59.9699 50.4025C59.9946 50.4465 60.0309 50.4814 60.0786 50.5072C60.1259 50.5325 60.183 50.5451 60.2501 50.5451ZM61.4762 49.2942C61.4762 49.331 61.4732 49.3645 61.4672 49.3947C61.4617 49.4249 61.4556 49.4475 61.449 49.4623L61.2472 49.403C61.2592 49.3579 61.2645 49.3178 61.2628 49.2827C61.2612 49.2475 61.248 49.2165 61.2233 49.1895C61.1985 49.1621 61.1582 49.1379 61.1021 49.117L61.0181 49.0865L59.7358 49.5496L59.7358 49.2859L60.7181 48.9654L60.7181 48.9522L59.7358 48.6317L59.7358 48.3671L61.1705 48.8888C61.2364 48.9129 61.2922 48.9437 61.3378 48.981C61.3839 49.0184 61.4186 49.0629 61.4416 49.1145C61.4647 49.1662 61.4762 49.2261 61.4762 49.2942ZM61.0172 47.3591C61.0172 47.4042 61.0013 47.4429 60.9694 47.4753C60.937 47.5077 60.898 47.5239 60.8524 47.5239C60.8074 47.5239 60.7689 47.5077 60.7371 47.4753C60.7047 47.4429 60.6884 47.4042 60.6884 47.3591C60.6884 47.3141 60.7047 47.2753 60.7371 47.2429C60.7689 47.2105 60.8074 47.1943 60.8524 47.1943C60.8826 47.1943 60.9104 47.202 60.9357 47.2174C60.9604 47.2322 60.9802 47.252 60.995 47.2767C61.0098 47.3014 61.0172 47.3289 61.0172 47.3591ZM61.0172 46.7019C61.0172 46.747 61.0013 46.7857 60.9694 46.8181C60.937 46.8505 60.898 46.8667 60.8524 46.8667C60.8074 46.8667 60.7689 46.8505 60.7371 46.8181C60.7047 46.7857 60.6884 46.747 60.6884 46.7019C60.6884 46.6569 60.7047 46.6181 60.7371 46.5857C60.7689 46.5533 60.8074 46.5371 60.8524 46.5371C60.8826 46.5371 60.9104 46.5448 60.9357 46.5602C60.9604 46.575 60.9802 46.5948 60.995 46.6195C61.0098 46.6442 61.0172 46.6717 61.0172 46.7019ZM61.0172 46.0447C61.0172 46.0898 61.0013 46.1285 60.9694 46.1609C60.937 46.1934 60.898 46.2096 60.8524 46.2096C60.8074 46.2096 60.7689 46.1934 60.7371 46.1609C60.7047 46.1285 60.6884 46.0898 60.6884 46.0447C60.6884 45.9997 60.7047 45.961 60.7371 45.9286C60.7689 45.8961 60.8074 45.8799 60.8524 45.8799C60.8826 45.8799 60.9104 45.8876 60.9357 45.903C60.9604 45.9178 60.9802 45.9376 60.995 45.9623C61.0098 45.9871 61.0172 46.0145 61.0172 46.0447Z" fill="#111827"/>
<path d="M73.3328 43.0525V41.5508" stroke="black" stroke-width="0.165752"/>
<path d="M73.6188 53.3992L73.6188 53.6563C73.5639 53.6662 73.5155 53.6846 73.4738 53.7115C73.432 53.7384 73.3966 53.7714 73.3675 53.8104C73.3383 53.8494 73.3164 53.8931 73.3015 53.9414C73.2867 53.9892 73.2793 54.04 73.2793 54.0939C73.2793 54.1911 73.3037 54.2782 73.3526 54.3551C73.4015 54.4315 73.4732 54.4919 73.5677 54.5364C73.6622 54.5803 73.7776 54.6023 73.9138 54.6023C74.0511 54.6023 74.1671 54.5803 74.2616 54.5364C74.356 54.4919 74.4275 54.4312 74.4758 54.3543C74.5241 54.2774 74.5483 54.1908 74.5483 54.0947C74.5483 54.0414 74.5412 53.9909 74.5269 53.9431C74.5121 53.8947 74.4904 53.8511 74.4618 53.8121C74.4332 53.773 74.3983 53.7401 74.3571 53.7132C74.3154 53.6857 74.2676 53.6667 74.2138 53.6563L74.2146 53.3992C74.2975 53.4129 74.3739 53.4396 74.4437 53.4791C74.5129 53.5181 74.5728 53.5684 74.6233 53.6299C74.6733 53.6909 74.712 53.7607 74.7395 53.8392C74.767 53.9178 74.7807 54.0035 74.7807 54.0964C74.7807 54.2425 74.7461 54.3727 74.6769 54.487C74.6071 54.6012 74.5074 54.6913 74.3777 54.7572C74.2481 54.8226 74.0934 54.8553 73.9138 54.8553C73.7336 54.8553 73.579 54.8223 73.4499 54.7564C73.3202 54.6905 73.2208 54.6004 73.1516 54.4861C73.0818 54.3719 73.0469 54.2419 73.0469 54.0964C73.0469 54.0068 73.0598 53.9233 73.0856 53.8458C73.1109 53.7678 73.1483 53.6978 73.1977 53.6357C73.2466 53.5736 73.3065 53.5223 73.3773 53.4816C73.4477 53.441 73.5281 53.4135 73.6188 53.3992ZM74.0061 52.8679L74.7576 52.8679L74.7576 53.1143L73.07 53.1143L73.07 52.8712L73.6979 52.8712L73.6979 52.8555C73.6298 52.8259 73.5757 52.7805 73.5356 52.7196C73.4955 52.6586 73.4754 52.5789 73.4754 52.4806C73.4754 52.3938 73.4933 52.318 73.529 52.2532C73.5647 52.1878 73.618 52.1372 73.6888 52.1015C73.7592 52.0653 73.8471 52.0471 73.9525 52.0471L74.7576 52.0471L74.7576 52.2935L73.9822 52.2935C73.8894 52.2935 73.8174 52.3174 73.7663 52.3652C73.7147 52.413 73.6888 52.4795 73.6888 52.5646C73.6888 52.6229 73.7012 52.6751 73.7259 52.7212C73.7506 52.7668 73.7869 52.8028 73.8347 52.8292C73.8819 52.855 73.9391 52.8679 74.0061 52.8679ZM74.7576 51.7183L73.4919 51.7183L73.4919 51.4802L73.693 51.4802L73.693 51.467C73.6248 51.4439 73.5713 51.4033 73.5323 51.345C73.4927 51.2863 73.4729 51.2198 73.4729 51.1456C73.4729 51.1302 73.4735 51.1121 73.4746 51.0912C73.4757 51.0698 73.4771 51.0531 73.4787 51.041L73.7144 51.041C73.7116 51.0509 73.7086 51.0684 73.7053 51.0937C73.7015 51.119 73.6995 51.1443 73.6995 51.1695C73.6995 51.2278 73.7119 51.2797 73.7366 51.3253C73.7608 51.3703 73.7946 51.406 73.838 51.4324C73.8808 51.4588 73.9297 51.472 73.9847 51.472L74.7576 51.472L74.7576 51.7183ZM74.7576 50.8277L73.4919 50.8277L73.4919 50.5814L74.7576 50.5814L74.7576 50.8277ZM73.2966 50.7033C73.2966 50.7462 73.2823 50.783 73.2537 50.8137C73.2246 50.844 73.19 50.8591 73.1499 50.8591C73.1093 50.8591 73.0746 50.844 73.0461 50.8137C73.017 50.783 73.0024 50.7462 73.0024 50.7033C73.0024 50.6605 73.017 50.6239 73.0461 50.5937C73.0746 50.563 73.1093 50.5476 73.1499 50.5476C73.19 50.5476 73.2246 50.563 73.2537 50.5937C73.2823 50.6239 73.2966 50.6605 73.2966 50.7033ZM73.8009 49.3014L73.8405 49.5247C73.8119 49.5341 73.7847 49.5489 73.7589 49.5692C73.7331 49.589 73.7119 49.6159 73.6954 49.65C73.6789 49.684 73.6707 49.7266 73.6707 49.7777C73.6707 49.8475 73.6864 49.9057 73.7177 49.9524C73.7484 49.9991 73.7883 50.0224 73.8372 50.0224C73.8795 50.0224 73.9135 50.0068 73.9393 49.9755C73.9652 49.9442 73.9863 49.8936 74.0028 49.8238L74.0489 49.6228C74.0759 49.5063 74.1173 49.4195 74.1734 49.3624C74.2294 49.3052 74.3022 49.2767 74.3918 49.2767C74.4676 49.2767 74.5351 49.2987 74.5945 49.3426C74.6532 49.386 74.6994 49.4467 74.7329 49.5247C74.7664 49.6022 74.7832 49.692 74.7832 49.7942C74.7832 49.9359 74.753 50.0516 74.6925 50.1411C74.6315 50.2307 74.545 50.2856 74.433 50.3059L74.3967 50.0678C74.4588 50.0529 74.5057 50.0224 74.5376 49.9763C74.5689 49.9302 74.5846 49.87 74.5846 49.7958C74.5846 49.7151 74.5678 49.6505 74.5343 49.6022C74.5003 49.5538 74.4588 49.5297 74.4099 49.5297C74.3703 49.5297 74.3371 49.5445 74.3102 49.5742C74.2832 49.6033 74.2629 49.6481 74.2492 49.7085L74.2022 49.9227C74.1753 50.0408 74.1324 50.1282 74.0737 50.1848C74.0149 50.2408 73.9404 50.2688 73.8503 50.2688C73.7756 50.2688 73.7103 50.248 73.6542 50.2062C73.5982 50.1645 73.5545 50.1068 73.5232 50.0332C73.4913 49.9595 73.4754 49.8752 73.4754 49.7802C73.4754 49.6434 73.5051 49.5357 73.5644 49.4571C73.6232 49.3786 73.702 49.3267 73.8009 49.3014ZM73.4919 48.4149L73.6897 48.4149L73.6897 49.1063L73.4919 49.1063L73.4919 48.4149ZM73.1886 48.9209L73.1886 48.6745L74.386 48.6745C74.4338 48.6745 74.4698 48.6674 74.4939 48.6531C74.5176 48.6388 74.5338 48.6204 74.5426 48.5979C74.5508 48.5748 74.5549 48.5498 74.5549 48.5229C74.5549 48.5031 74.5535 48.4858 74.5508 48.471C74.548 48.4561 74.5458 48.4446 74.5442 48.4364L74.7477 48.3919C74.7532 48.4061 74.7587 48.4265 74.7642 48.4528C74.7703 48.4792 74.7736 48.5122 74.7741 48.5517C74.7752 48.6165 74.7637 48.677 74.7395 48.733C74.7153 48.789 74.678 48.8344 74.6274 48.869C74.5769 48.9036 74.5134 48.9209 74.4371 48.9209L73.1886 48.9209ZM74.7733 47.98C74.7733 48.0251 74.7574 48.0638 74.7255 48.0962C74.6931 48.1286 74.6541 48.1448 74.6085 48.1448C74.5634 48.1448 74.525 48.1286 74.4931 48.0962C74.4607 48.0638 74.4445 48.0251 74.4445 47.98C74.4445 47.935 74.4607 47.8963 74.4931 47.8638C74.525 47.8314 74.5634 47.8152 74.6085 47.8152C74.6387 47.8152 74.6664 47.8229 74.6917 47.8383C74.7164 47.8531 74.7362 47.8729 74.751 47.8976C74.7659 47.9223 74.7733 47.9498 74.7733 47.98ZM74.7733 47.3229C74.7733 47.3679 74.7574 47.4066 74.7255 47.439C74.6931 47.4715 74.6541 47.4877 74.6085 47.4877C74.5634 47.4877 74.525 47.4715 74.4931 47.439C74.4607 47.4066 74.4445 47.3679 74.4445 47.3229C74.4445 47.2778 74.4607 47.2391 74.4931 47.2067C74.525 47.1742 74.5634 47.158 74.6085 47.158C74.6387 47.158 74.6664 47.1657 74.6917 47.1811C74.7164 47.1959 74.7362 47.2157 74.751 47.2404C74.7659 47.2652 74.7733 47.2926 74.7733 47.3229ZM74.7733 46.6657C74.7733 46.7107 74.7574 46.7494 74.7255 46.7819C74.6931 46.8143 74.6541 46.8305 74.6085 46.8305C74.5634 46.8305 74.525 46.8143 74.4931 46.7819C74.4607 46.7494 74.4445 46.7107 74.4445 46.6657C74.4445 46.6206 74.4607 46.5819 74.4931 46.5495C74.525 46.5171 74.5634 46.5009 74.6085 46.5009C74.6387 46.5009 74.6664 46.5085 74.6917 46.5239C74.7164 46.5388 74.7362 46.5585 74.751 46.5833C74.7659 46.608 74.7733 46.6355 74.7733 46.6657Z" fill="#111827"/>
<path d="M86.9429 43.0525V41.5508" stroke="black" stroke-width="0.165752"/>
<path d="M87.2099 53.3992L87.2099 53.6563C87.155 53.6662 87.1066 53.6846 87.0649 53.7115C87.0231 53.7384 86.9877 53.7714 86.9586 53.8104C86.9295 53.8494 86.9075 53.8931 86.8927 53.9414C86.8778 53.9892 86.8704 54.04 86.8704 54.0939C86.8704 54.1911 86.8949 54.2782 86.9437 54.3551C86.9926 54.4315 87.0643 54.4919 87.1588 54.5364C87.2533 54.5803 87.3687 54.6023 87.5049 54.6023C87.6423 54.6023 87.7582 54.5803 87.8527 54.5364C87.9472 54.4919 88.0186 54.4312 88.0669 54.3543C88.1153 54.2774 88.1394 54.1908 88.1394 54.0947C88.1394 54.0414 88.1323 53.9909 88.118 53.9431C88.1032 53.8947 88.0815 53.8511 88.0529 53.8121C88.0244 53.773 87.9895 53.7401 87.9483 53.7132C87.9065 53.6857 87.8587 53.6667 87.8049 53.6563L87.8057 53.3992C87.8887 53.4129 87.965 53.4396 88.0348 53.4791C88.104 53.5181 88.1639 53.5684 88.2144 53.6299C88.2644 53.6909 88.3032 53.7607 88.3306 53.8392C88.3581 53.9178 88.3718 54.0035 88.3718 54.0964C88.3718 54.2425 88.3372 54.3727 88.268 54.487C88.1982 54.6012 88.0985 54.6913 87.9689 54.7572C87.8392 54.8226 87.6846 54.8553 87.5049 54.8553C87.3247 54.8553 87.1701 54.8223 87.041 54.7564C86.9113 54.6905 86.8119 54.6004 86.7427 54.4861C86.6729 54.3719 86.638 54.2419 86.638 54.0964C86.638 54.0068 86.6509 53.9233 86.6768 53.8458C86.702 53.7678 86.7394 53.6978 86.7888 53.6357C86.8377 53.5736 86.8976 53.5223 86.9685 53.4816C87.0388 53.441 87.1193 53.4135 87.2099 53.3992ZM88.3768 52.7459C88.3768 52.8261 88.3619 52.8987 88.3323 52.9635C88.3021 53.0283 88.2584 53.0797 88.2012 53.1176C88.1441 53.1549 88.0741 53.1736 87.9911 53.1736C87.9197 53.1736 87.8609 53.1599 87.8148 53.1324C87.7686 53.1049 87.7321 53.0679 87.7052 53.0212C87.6783 52.9745 87.6579 52.9223 87.6442 52.8646C87.6305 52.8069 87.62 52.7481 87.6129 52.6883C87.6041 52.6124 87.5969 52.5509 87.5915 52.5037C87.5854 52.4564 87.5758 52.4221 87.5626 52.4007C87.5494 52.3792 87.528 52.3685 87.4983 52.3685L87.4926 52.3685C87.4206 52.3685 87.3648 52.3888 87.3253 52.4295C87.2857 52.4696 87.266 52.5295 87.266 52.6091C87.266 52.6921 87.2844 52.7575 87.3212 52.8053C87.3574 52.8525 87.3978 52.8852 87.4423 52.9033L87.3896 53.1349C87.3126 53.1074 87.2506 53.0673 87.2033 53.0146C87.1555 52.9613 87.1209 52.9 87.0995 52.8308C87.0775 52.7616 87.0665 52.6888 87.0665 52.6124C87.0665 52.5619 87.0726 52.5083 87.0847 52.4518C87.0962 52.3946 87.1176 52.3413 87.1489 52.2919C87.1802 52.2419 87.225 52.201 87.2833 52.1691C87.3409 52.1372 87.4159 52.1213 87.5082 52.1213L88.3488 52.1213L88.3488 52.3619L88.1757 52.3619L88.1757 52.3718C88.2076 52.3877 88.2389 52.4116 88.2696 52.4435C88.3004 52.4754 88.326 52.5163 88.3463 52.5663C88.3666 52.6163 88.3768 52.6762 88.3768 52.7459ZM88.179 52.6924C88.179 52.6243 88.1655 52.566 88.1386 52.5177C88.1117 52.4688 88.0765 52.4317 88.0331 52.4064C87.9892 52.3806 87.9422 52.3677 87.8922 52.3677L87.7291 52.3677C87.7379 52.3765 87.7461 52.3935 87.7538 52.4188C87.7609 52.4435 87.7672 52.4718 87.7727 52.5037C87.7777 52.5355 87.7824 52.5666 87.7868 52.5968C87.7906 52.627 87.7939 52.6523 87.7966 52.6726C87.8027 52.7204 87.8128 52.7641 87.8271 52.8036C87.8414 52.8426 87.862 52.8739 87.8889 52.8976C87.9153 52.9206 87.9505 52.9322 87.9944 52.9322C88.0554 52.9322 88.1015 52.9096 88.1329 52.8646C88.1636 52.8196 88.179 52.7621 88.179 52.6924ZM88.3488 51.7931L87.083 51.7931L87.083 51.5566L87.289 51.5566L87.289 51.541C87.2193 51.5146 87.1649 51.4715 87.1259 51.4116C87.0863 51.3517 87.0665 51.28 87.0665 51.1965C87.0665 51.1119 87.0863 51.041 87.1259 50.9839C87.1654 50.9262 87.2198 50.8836 87.289 50.8562L87.289 50.843C87.2215 50.8128 87.1676 50.7647 87.1275 50.6988C87.0869 50.6329 87.0665 50.5543 87.0665 50.4631C87.0665 50.3483 87.1025 50.2546 87.1745 50.1821C87.2464 50.109 87.3549 50.0725 87.5 50.0725L88.3488 50.0725L88.3488 50.3189L87.5231 50.3189C87.4374 50.3189 87.3753 50.3422 87.3368 50.3889C87.2984 50.4356 87.2791 50.4914 87.2791 50.5562C87.2791 50.6364 87.3039 50.6988 87.3533 50.7433C87.4022 50.7878 87.4651 50.81 87.542 50.81L88.3488 50.81L88.3488 51.0556L87.5074 51.0556C87.4387 51.0556 87.3835 51.077 87.3418 51.1199C87.3 51.1627 87.2791 51.2185 87.2791 51.2872C87.2791 51.3339 87.2915 51.377 87.3162 51.4165C87.3404 51.4555 87.3742 51.4871 87.4176 51.5113C87.461 51.5349 87.5112 51.5467 87.5684 51.5467L88.3488 51.5467L88.3488 51.7931ZM88.3743 49.1967C88.3743 49.3215 88.3477 49.4289 88.2944 49.5189C88.2405 49.6085 88.165 49.6777 88.0678 49.7266C87.97 49.775 87.8554 49.7991 87.7241 49.7991C87.5945 49.7991 87.4802 49.775 87.3813 49.7266C87.2824 49.6777 87.2052 49.6096 87.1498 49.5222C87.0943 49.4343 87.0665 49.3316 87.0665 49.214C87.0665 49.1426 87.0783 49.0734 87.102 49.0064C87.1256 48.9394 87.1627 48.8792 87.2132 48.8259C87.2638 48.7726 87.3294 48.7306 87.4102 48.6998C87.4904 48.6691 87.5879 48.6537 87.7027 48.6537L87.79 48.6537L87.79 49.6599L87.6055 49.6599L87.6055 48.8951C87.5406 48.8951 87.4832 48.9083 87.4332 48.9347C87.3827 48.9611 87.3429 48.9981 87.3137 49.0459C87.2846 49.0932 87.2701 49.1487 87.2701 49.2124C87.2701 49.2816 87.2871 49.3421 87.3212 49.3937C87.3547 49.4448 87.3986 49.4843 87.453 49.5124C87.5068 49.5398 87.5654 49.5536 87.6285 49.5536L87.7727 49.5536C87.8573 49.5536 87.9293 49.5387 87.9886 49.5091C88.048 49.4788 88.0933 49.4368 88.1246 49.383C88.1554 49.3291 88.1708 49.2662 88.1708 49.1943C88.1708 49.1476 88.1642 49.105 88.151 49.0665C88.1372 49.0281 88.1169 48.9949 88.09 48.9668C88.0631 48.9388 88.0298 48.9174 87.9903 48.9026L88.0323 48.6694C88.101 48.688 88.1611 48.7215 88.2128 48.7699C88.2639 48.8177 88.3037 48.8778 88.3323 48.9504C88.3603 49.0223 88.3743 49.1045 88.3743 49.1967ZM88.3488 48.3803L87.083 48.3803L87.083 48.1422L87.2841 48.1422L87.2841 48.129C87.216 48.1059 87.1624 48.0653 87.1234 48.007C87.0838 47.9482 87.0641 47.8818 87.0641 47.8076C87.0641 47.7922 87.0646 47.7741 87.0657 47.7532C87.0668 47.7318 87.0682 47.715 87.0698 47.7029L87.3055 47.7029C87.3028 47.7128 87.2997 47.7304 87.2964 47.7557C87.2926 47.781 87.2907 47.8062 87.2907 47.8315C87.2907 47.8897 87.303 47.9416 87.3278 47.9872C87.3519 48.0323 87.3857 48.068 87.4291 48.0944C87.472 48.1207 87.5209 48.1339 87.5758 48.1339L88.3488 48.1339L88.3488 48.3803ZM88.3644 47.4724C88.3644 47.5175 88.3485 47.5562 88.3166 47.5886C88.2842 47.621 88.2452 47.6372 88.1996 47.6372C88.1546 47.6372 88.1161 47.621 88.0842 47.5886C88.0518 47.5562 88.0356 47.5175 88.0356 47.4724C88.0356 47.4274 88.0518 47.3886 88.0842 47.3562C88.1161 47.3238 88.1546 47.3076 88.1996 47.3076C88.2298 47.3076 88.2576 47.3153 88.2828 47.3307C88.3076 47.3455 88.3273 47.3653 88.3422 47.39C88.357 47.4147 88.3644 47.4422 88.3644 47.4724ZM88.3644 46.8152C88.3644 46.8603 88.3485 46.899 88.3166 46.9314C88.2842 46.9638 88.2452 46.98 88.1996 46.98C88.1546 46.98 88.1161 46.9638 88.0842 46.9314C88.0518 46.899 88.0356 46.8603 88.0356 46.8152C88.0356 46.7702 88.0518 46.7315 88.0842 46.699C88.1161 46.6666 88.1546 46.6504 88.1996 46.6504C88.2298 46.6504 88.2576 46.6581 88.2828 46.6735C88.3076 46.6883 88.3273 46.7081 88.3422 46.7328C88.357 46.7576 88.3644 46.785 88.3644 46.8152ZM88.3644 46.1581C88.3644 46.2031 88.3485 46.2418 88.3166 46.2742C88.2842 46.3067 88.2452 46.3229 88.1996 46.3229C88.1546 46.3229 88.1161 46.3067 88.0842 46.2742C88.0518 46.2418 88.0356 46.2031 88.0356 46.1581C88.0356 46.113 88.0518 46.0743 88.0842 46.0419C88.1161 46.0094 88.1546 45.9932 88.1996 45.9932C88.2298 45.9932 88.2576 46.0009 88.2828 46.0163C88.3076 46.0311 88.3273 46.0509 88.3422 46.0756C88.357 46.1004 88.3644 46.1278 88.3644 46.1581Z" fill="#111827"/>
<path d="M100.557 43.0525V41.5508" stroke="black" stroke-width="0.165752"/>
<path d="M100.256 54.145L100.256 53.8912L101.452 53.8912C101.561 53.8912 101.653 53.9126 101.73 53.9554C101.807 53.9977 101.866 54.0573 101.906 54.1343C101.947 54.2112 101.967 54.3013 101.967 54.4045C101.967 54.4996 101.949 54.585 101.915 54.6608C101.88 54.7361 101.83 54.7957 101.764 54.8396C101.697 54.883 101.617 54.9047 101.522 54.9047L101.522 54.6518C101.568 54.6518 101.609 54.6411 101.643 54.6196C101.677 54.5977 101.703 54.5677 101.723 54.5298C101.741 54.4913 101.751 54.4474 101.751 54.398C101.751 54.3441 101.739 54.2985 101.717 54.2612C101.694 54.2233 101.66 54.1944 101.616 54.1746C101.571 54.1549 101.517 54.145 101.452 54.145L100.256 54.145ZM101.972 53.172C101.972 53.2522 101.957 53.3247 101.927 53.3895C101.897 53.4543 101.853 53.5057 101.796 53.5436C101.739 53.581 101.669 53.5997 101.586 53.5997C101.514 53.5997 101.456 53.5859 101.41 53.5585C101.363 53.531 101.327 53.4939 101.3 53.4472C101.273 53.4005 101.253 53.3483 101.239 53.2906C101.225 53.233 101.215 53.1742 101.208 53.1143C101.199 53.0385 101.192 52.9769 101.186 52.9297C101.18 52.8825 101.171 52.8481 101.157 52.8267C101.144 52.8053 101.123 52.7946 101.093 52.7946L101.087 52.7946C101.015 52.7946 100.96 52.8149 100.92 52.8555C100.881 52.8956 100.861 52.9555 100.861 53.0352C100.861 53.1181 100.879 53.1835 100.916 53.2313C100.952 53.2785 100.993 53.3112 101.037 53.3294L100.984 53.5609C100.907 53.5335 100.845 53.4934 100.798 53.4406C100.75 53.3873 100.716 53.3261 100.694 53.2568C100.672 53.1876 100.661 53.1148 100.661 53.0385C100.661 52.9879 100.667 52.9344 100.679 52.8778C100.691 52.8207 100.712 52.7674 100.744 52.7179C100.775 52.6679 100.82 52.627 100.878 52.5951C100.936 52.5633 101.011 52.5473 101.103 52.5473L101.944 52.5473L101.944 52.788L101.77 52.788L101.77 52.7979C101.802 52.8138 101.834 52.8377 101.864 52.8695C101.895 52.9014 101.921 52.9423 101.941 52.9923C101.961 53.0423 101.972 53.1022 101.972 53.172ZM101.774 53.1184C101.774 53.0503 101.76 52.9921 101.733 52.9437C101.706 52.8948 101.671 52.8577 101.628 52.8325C101.584 52.8066 101.537 52.7937 101.487 52.7937L101.324 52.7937C101.333 52.8025 101.341 52.8196 101.349 52.8448C101.356 52.8695 101.362 52.8978 101.368 52.9297C101.372 52.9616 101.377 52.9926 101.382 53.0228C101.385 53.053 101.389 53.0783 101.391 53.0986C101.397 53.1464 101.408 53.1901 101.422 53.2297C101.436 53.2687 101.457 53.3 101.484 53.3236C101.51 53.3467 101.545 53.3582 101.589 53.3582C101.65 53.3582 101.696 53.3357 101.728 53.2906C101.758 53.2456 101.774 53.1882 101.774 53.1184ZM101.192 51.9728L101.944 51.9728L101.944 52.2192L100.678 52.2192L100.678 51.9827L100.884 51.9827L100.884 51.967C100.817 51.9379 100.763 51.8923 100.722 51.8302C100.682 51.7676 100.661 51.6887 100.661 51.5937C100.661 51.5075 100.679 51.4319 100.716 51.3671C100.751 51.3023 100.805 51.252 100.876 51.2163C100.946 51.1806 101.034 51.1627 101.138 51.1627L101.944 51.1627L101.944 51.4091L101.168 51.4091C101.076 51.4091 101.005 51.433 100.953 51.4808C100.901 51.5286 100.875 51.5943 100.875 51.6778C100.875 51.7349 100.887 51.7857 100.912 51.8302C100.937 51.8742 100.973 51.909 101.021 51.9349C101.068 51.9601 101.125 51.9728 101.192 51.9728ZM101.969 50.2868C101.969 50.4115 101.942 50.5189 101.889 50.609C101.835 50.6985 101.76 50.7677 101.663 50.8166C101.565 50.865 101.45 50.8891 101.319 50.8891C101.189 50.8891 101.075 50.865 100.976 50.8166C100.877 50.7677 100.8 50.6996 100.745 50.6123C100.689 50.5244 100.661 50.4216 100.661 50.3041C100.661 50.2326 100.673 50.1634 100.697 50.0964C100.72 50.0294 100.757 49.9692 100.808 49.9159C100.859 49.8626 100.924 49.8206 101.005 49.7899C101.085 49.7591 101.183 49.7437 101.297 49.7437L101.385 49.7437L101.385 50.7499L101.2 50.7499L101.2 49.9852C101.135 49.9852 101.078 49.9983 101.028 50.0247C100.977 50.0511 100.938 50.0882 100.909 50.136C100.879 50.1832 100.865 50.2387 100.865 50.3024C100.865 50.3716 100.882 50.4321 100.916 50.4837C100.949 50.5348 100.993 50.5744 101.048 50.6024C101.102 50.6298 101.16 50.6436 101.223 50.6436L101.368 50.6436C101.452 50.6436 101.524 50.6287 101.583 50.5991C101.643 50.5689 101.688 50.5268 101.719 50.473C101.75 50.4192 101.766 50.3563 101.766 50.2843C101.766 50.2376 101.759 50.195 101.746 50.1566C101.732 50.1181 101.712 50.0849 101.685 50.0568C101.658 50.0288 101.625 50.0074 101.585 49.9926L101.627 49.7594C101.696 49.778 101.756 49.8116 101.808 49.8599C101.859 49.9077 101.898 49.9679 101.927 50.0404C101.955 50.1123 101.969 50.1945 101.969 50.2868ZM100.805 47.4347L100.805 47.6918C100.75 47.7017 100.701 47.7201 100.66 47.747C100.618 47.774 100.582 47.8069 100.553 47.8459C100.524 47.8849 100.502 47.9286 100.487 47.9769C100.473 48.0247 100.465 48.0756 100.465 48.1294C100.465 48.2266 100.49 48.3137 100.539 48.3906C100.587 48.467 100.659 48.5274 100.754 48.5719C100.848 48.6159 100.963 48.6378 101.1 48.6378C101.237 48.6378 101.353 48.6159 101.447 48.5719C101.542 48.5274 101.613 48.4667 101.662 48.3898C101.71 48.3129 101.734 48.2264 101.734 48.1302C101.734 48.0769 101.727 48.0264 101.713 47.9786C101.698 47.9302 101.676 47.8866 101.648 47.8476C101.619 47.8086 101.584 47.7756 101.543 47.7487C101.501 47.7212 101.454 47.7023 101.4 47.6918L101.4 47.4347C101.483 47.4484 101.56 47.4751 101.63 47.5146C101.699 47.5537 101.759 47.6039 101.809 47.6654C101.859 47.7264 101.898 47.7962 101.925 47.8748C101.953 47.9533 101.967 48.039 101.967 48.1319C101.967 48.278 101.932 48.4082 101.863 48.5225C101.793 48.6367 101.693 48.7268 101.564 48.7928C101.434 48.8581 101.279 48.8908 101.1 48.8908C100.92 48.8908 100.765 48.8579 100.636 48.7919C100.506 48.726 100.407 48.6359 100.337 48.5216C100.268 48.4074 100.233 48.2774 100.233 48.1319C100.233 48.0423 100.246 47.9588 100.272 47.8814C100.297 47.8033 100.334 47.7333 100.384 47.6712C100.433 47.6091 100.492 47.5578 100.563 47.5171C100.634 47.4765 100.714 47.449 100.805 47.4347ZM101.959 46.9875C101.959 47.0325 101.943 47.0712 101.911 47.1037C101.879 47.1361 101.84 47.1523 101.794 47.1523C101.749 47.1523 101.711 47.1361 101.679 47.1037C101.647 47.0712 101.63 47.0325 101.63 46.9875C101.63 46.9424 101.647 46.9037 101.679 46.8713C101.711 46.8389 101.749 46.8227 101.794 46.8227C101.825 46.8227 101.852 46.8303 101.878 46.8457C101.902 46.8606 101.922 46.8803 101.937 46.9051C101.952 46.9298 101.959 46.9572 101.959 46.9875ZM101.959 46.3303C101.959 46.3753 101.943 46.4141 101.911 46.4465C101.879 46.4789 101.84 46.4951 101.794 46.4951C101.749 46.4951 101.711 46.4789 101.679 46.4465C101.647 46.4141 101.63 46.3753 101.63 46.3303C101.63 46.2852 101.647 46.2465 101.679 46.2141C101.711 46.1817 101.749 46.1655 101.794 46.1655C101.825 46.1655 101.852 46.1732 101.878 46.1885C101.902 46.2034 101.922 46.2232 101.937 46.2479C101.952 46.2726 101.959 46.3001 101.959 46.3303ZM101.959 45.6731C101.959 45.7181 101.943 45.7569 101.911 45.7893C101.879 45.8217 101.84 45.8379 101.794 45.8379C101.749 45.8379 101.711 45.8217 101.679 45.7893C101.647 45.7569 101.63 45.7181 101.63 45.6731C101.63 45.628 101.647 45.5893 101.679 45.5569C101.711 45.5245 101.749 45.5083 101.794 45.5083C101.825 45.5083 101.852 45.516 101.878 45.5314C101.902 45.5462 101.922 45.566 101.937 45.5907C101.952 45.6154 101.959 45.6429 101.959 45.6731Z" fill="#111827"/>
<path d="M114.167 43.0525V41.5508" stroke="black" stroke-width="0.165752"/>
<path d="M113.847 54.145L113.847 53.8912L115.043 53.8912C115.152 53.8912 115.244 53.9126 115.321 53.9554C115.398 53.9977 115.457 54.0573 115.498 54.1343C115.538 54.2112 115.558 54.3013 115.558 54.4045C115.558 54.4996 115.54 54.585 115.506 54.6608C115.471 54.7361 115.421 54.7957 115.355 54.8396C115.288 54.883 115.208 54.9047 115.113 54.9047L115.113 54.6518C115.159 54.6518 115.2 54.6411 115.234 54.6196C115.268 54.5977 115.295 54.5677 115.314 54.5298C115.332 54.4913 115.342 54.4474 115.342 54.398C115.342 54.3441 115.331 54.2985 115.308 54.2612C115.285 54.2233 115.251 54.1944 115.207 54.1746C115.162 54.1549 115.108 54.145 115.043 54.145L113.847 54.145ZM115.563 53.172C115.563 53.2522 115.548 53.3247 115.518 53.3895C115.488 53.4543 115.444 53.5057 115.387 53.5436C115.33 53.581 115.26 53.5997 115.177 53.5997C115.106 53.5997 115.047 53.5859 115.001 53.5585C114.954 53.531 114.918 53.4939 114.891 53.4472C114.864 53.4005 114.844 53.3483 114.83 53.2906C114.816 53.233 114.806 53.1742 114.799 53.1143C114.79 53.0385 114.783 52.9769 114.777 52.9297C114.771 52.8825 114.762 52.8481 114.748 52.8267C114.735 52.8053 114.714 52.7946 114.684 52.7946L114.678 52.7946C114.606 52.7946 114.551 52.8149 114.511 52.8555C114.472 52.8956 114.452 52.9555 114.452 53.0352C114.452 53.1181 114.47 53.1835 114.507 53.2313C114.543 53.2785 114.584 53.3112 114.628 53.3294L114.575 53.5609C114.498 53.5335 114.436 53.4934 114.389 53.4406C114.341 53.3873 114.307 53.3261 114.285 53.2568C114.263 53.1876 114.252 53.1148 114.252 53.0385C114.252 52.9879 114.258 52.9344 114.271 52.8778C114.282 52.8207 114.303 52.7674 114.335 52.7179C114.366 52.6679 114.411 52.627 114.469 52.5951C114.527 52.5633 114.602 52.5473 114.694 52.5473L115.535 52.5473L115.535 52.788L115.362 52.788L115.362 52.7979C115.393 52.8138 115.425 52.8377 115.455 52.8695C115.486 52.9014 115.512 52.9423 115.532 52.9923C115.552 53.0423 115.563 53.1022 115.563 53.172ZM115.365 53.1184C115.365 53.0503 115.351 52.9921 115.324 52.9437C115.298 52.8948 115.262 52.8577 115.219 52.8325C115.175 52.8066 115.128 52.7937 115.078 52.7937L114.915 52.7937C114.924 52.8025 114.932 52.8196 114.94 52.8448C114.947 52.8695 114.953 52.8978 114.959 52.9297C114.964 52.9616 114.968 52.9926 114.973 53.0228C114.976 53.053 114.98 53.0783 114.982 53.0986C114.989 53.1464 114.999 53.1901 115.013 53.2297C115.027 53.2687 115.048 53.3 115.075 53.3236C115.101 53.3467 115.136 53.3582 115.18 53.3582C115.241 53.3582 115.287 53.3357 115.319 53.2906C115.349 53.2456 115.365 53.1882 115.365 53.1184ZM114.783 51.9728L115.535 51.9728L115.535 52.2192L114.269 52.2192L114.269 51.9827L114.475 51.9827L114.475 51.967C114.408 51.9379 114.354 51.8923 114.313 51.8302C114.273 51.7676 114.252 51.6887 114.252 51.5937C114.252 51.5075 114.271 51.4319 114.307 51.3671C114.342 51.3023 114.396 51.252 114.467 51.2163C114.538 51.1806 114.625 51.1627 114.73 51.1627L115.535 51.1627L115.535 51.4091L114.759 51.4091C114.667 51.4091 114.596 51.433 114.544 51.4808C114.492 51.5286 114.466 51.5943 114.466 51.6778C114.466 51.7349 114.478 51.7857 114.503 51.8302C114.528 51.8742 114.564 51.909 114.612 51.9349C114.659 51.9601 114.716 51.9728 114.783 51.9728ZM115.56 50.2868C115.56 50.4115 115.534 50.5189 115.48 50.609C115.426 50.6985 115.351 50.7677 115.254 50.8166C115.156 50.865 115.041 50.8891 114.91 50.8891C114.78 50.8891 114.666 50.865 114.567 50.8166C114.468 50.7677 114.391 50.6996 114.336 50.6123C114.28 50.5244 114.252 50.4216 114.252 50.3041C114.252 50.2326 114.264 50.1634 114.288 50.0964C114.311 50.0294 114.349 49.9692 114.399 49.9159C114.45 49.8626 114.515 49.8206 114.596 49.7899C114.676 49.7591 114.774 49.7437 114.889 49.7437L114.976 49.7437L114.976 50.7499L114.791 50.7499L114.791 49.9852C114.726 49.9852 114.669 49.9983 114.619 50.0247C114.569 50.0511 114.529 50.0882 114.5 50.136C114.47 50.1832 114.456 50.2387 114.456 50.3024C114.456 50.3716 114.473 50.4321 114.507 50.4837C114.541 50.5348 114.584 50.5744 114.639 50.6024C114.693 50.6298 114.751 50.6436 114.814 50.6436L114.959 50.6436C115.043 50.6436 115.115 50.6287 115.174 50.5991C115.234 50.5689 115.279 50.5268 115.31 50.473C115.341 50.4192 115.357 50.3563 115.357 50.2843C115.357 50.2376 115.35 50.195 115.337 50.1566C115.323 50.1181 115.303 50.0849 115.276 50.0568C115.249 50.0288 115.216 50.0074 115.176 49.9926L115.218 49.7594C115.287 49.778 115.347 49.8116 115.399 49.8599C115.45 49.9077 115.49 49.9679 115.518 50.0404C115.546 50.1123 115.56 50.1945 115.56 50.2868ZM114.396 47.4347L114.396 47.6918C114.341 47.7017 114.292 47.7201 114.251 47.747C114.209 47.774 114.174 47.8069 114.144 47.8459C114.115 47.8849 114.093 47.9286 114.079 47.9769C114.064 48.0247 114.056 48.0756 114.056 48.1294C114.056 48.2266 114.081 48.3137 114.13 48.3906C114.178 48.467 114.25 48.5274 114.345 48.5719C114.439 48.6159 114.555 48.6378 114.691 48.6378C114.828 48.6378 114.944 48.6159 115.039 48.5719C115.133 48.5274 115.204 48.4667 115.253 48.3898C115.301 48.3129 115.325 48.2264 115.325 48.1302C115.325 48.0769 115.318 48.0264 115.304 47.9786C115.289 47.9302 115.267 47.8866 115.239 47.8476C115.21 47.8086 115.175 47.7756 115.134 47.7487C115.092 47.7212 115.045 47.7023 114.991 47.6918L114.992 47.4347C115.075 47.4484 115.151 47.4751 115.221 47.5146C115.29 47.5537 115.35 47.6039 115.4 47.6654C115.45 47.7264 115.489 47.7962 115.516 47.8748C115.544 47.9533 115.558 48.039 115.558 48.1319C115.558 48.278 115.523 48.4082 115.454 48.5225C115.384 48.6367 115.284 48.7268 115.155 48.7928C115.025 48.8581 114.87 48.8908 114.691 48.8908C114.511 48.8908 114.356 48.8579 114.227 48.7919C114.097 48.726 113.998 48.6359 113.929 48.5216C113.859 48.4074 113.824 48.2774 113.824 48.1319C113.824 48.0423 113.837 47.9588 113.863 47.8814C113.888 47.8033 113.925 47.7333 113.975 47.6712C114.024 47.6091 114.083 47.5578 114.154 47.5171C114.225 47.4765 114.305 47.449 114.396 47.4347ZM115.55 46.9875C115.55 47.0325 115.534 47.0712 115.502 47.1037C115.47 47.1361 115.431 47.1523 115.385 47.1523C115.34 47.1523 115.302 47.1361 115.27 47.1037C115.238 47.0712 115.221 47.0325 115.221 46.9875C115.221 46.9424 115.238 46.9037 115.27 46.8713C115.302 46.8389 115.34 46.8227 115.385 46.8227C115.416 46.8227 115.443 46.8303 115.469 46.8457C115.493 46.8606 115.513 46.8803 115.528 46.9051C115.543 46.9298 115.55 46.9572 115.55 46.9875ZM115.55 46.3303C115.55 46.3753 115.534 46.4141 115.502 46.4465C115.47 46.4789 115.431 46.4951 115.385 46.4951C115.34 46.4951 115.302 46.4789 115.27 46.4465C115.238 46.4141 115.221 46.3753 115.221 46.3303C115.221 46.2852 115.238 46.2465 115.27 46.2141C115.302 46.1817 115.34 46.1655 115.385 46.1655C115.416 46.1655 115.443 46.1732 115.469 46.1885C115.493 46.2034 115.513 46.2232 115.528 46.2479C115.543 46.2726 115.55 46.3001 115.55 46.3303ZM115.55 45.6731C115.55 45.7181 115.534 45.7569 115.502 45.7893C115.47 45.8217 115.431 45.8379 115.385 45.8379C115.34 45.8379 115.302 45.8217 115.27 45.7893C115.238 45.7569 115.221 45.7181 115.221 45.6731C115.221 45.628 115.238 45.5893 115.27 45.5569C115.302 45.5245 115.34 45.5083 115.385 45.5083C115.416 45.5083 115.443 45.516 115.469 45.5314C115.493 45.5462 115.513 45.566 115.528 45.5907C115.543 45.6154 115.55 45.6429 115.55 45.6731Z" fill="#111827"/>
<path d="M127.777 43.0525V41.5508" stroke="black" stroke-width="0.165752"/>
<path d="M127.438 54.145L127.438 53.8912L128.635 53.8912C128.743 53.8912 128.835 53.9126 128.912 53.9554C128.989 53.9977 129.048 54.0573 129.089 54.1343C129.129 54.2112 129.149 54.3013 129.149 54.4045C129.149 54.4996 129.131 54.585 129.097 54.6608C129.062 54.7361 129.012 54.7957 128.946 54.8396C128.88 54.883 128.799 54.9047 128.704 54.9047L128.704 54.6518C128.75 54.6518 128.791 54.6411 128.825 54.6196C128.859 54.5977 128.886 54.5677 128.905 54.5298C128.924 54.4913 128.933 54.4474 128.933 54.398C128.933 54.3441 128.922 54.2985 128.899 54.2612C128.876 54.2233 128.842 54.1944 128.798 54.1746C128.753 54.1549 128.699 54.145 128.635 54.145L127.438 54.145ZM129.154 53.172C129.154 53.2522 129.139 53.3247 129.109 53.3895C129.079 53.4543 129.035 53.5057 128.978 53.5436C128.921 53.581 128.851 53.5997 128.768 53.5997C128.697 53.5997 128.638 53.5859 128.592 53.5585C128.546 53.531 128.509 53.4939 128.482 53.4472C128.455 53.4005 128.435 53.3483 128.421 53.2906C128.407 53.233 128.397 53.1742 128.39 53.1143C128.381 53.0385 128.374 52.9769 128.368 52.9297C128.362 52.8825 128.353 52.8481 128.34 52.8267C128.326 52.8053 128.305 52.7946 128.275 52.7946L128.269 52.7946C128.198 52.7946 128.142 52.8149 128.102 52.8555C128.063 52.8956 128.043 52.9555 128.043 53.0352C128.043 53.1181 128.061 53.1835 128.098 53.2313C128.134 53.2785 128.175 53.3112 128.219 53.3294L128.166 53.5609C128.09 53.5335 128.027 53.4934 127.98 53.4406C127.932 53.3873 127.898 53.3261 127.876 53.2568C127.854 53.1876 127.843 53.1148 127.843 53.0385C127.843 52.9879 127.849 52.9344 127.862 52.8778C127.873 52.8207 127.895 52.7674 127.926 52.7179C127.957 52.6679 128.002 52.627 128.06 52.5951C128.118 52.5633 128.193 52.5473 128.285 52.5473L129.126 52.5473L129.126 52.788L128.953 52.788L128.953 52.7979C128.984 52.8138 129.016 52.8377 129.047 52.8695C129.077 52.9014 129.103 52.9423 129.123 52.9923C129.144 53.0423 129.154 53.1022 129.154 53.172ZM128.956 53.1184C128.956 53.0503 128.942 52.9921 128.916 52.9437C128.889 52.8948 128.853 52.8577 128.81 52.8325C128.766 52.8066 128.719 52.7937 128.669 52.7937L128.506 52.7937C128.515 52.8025 128.523 52.8196 128.531 52.8448C128.538 52.8695 128.544 52.8978 128.55 52.9297C128.555 52.9616 128.559 52.9926 128.564 53.0228C128.568 53.053 128.571 53.0783 128.574 53.0986C128.58 53.1464 128.59 53.1901 128.604 53.2297C128.618 53.2687 128.639 53.3 128.666 53.3236C128.692 53.3467 128.727 53.3582 128.771 53.3582C128.832 53.3582 128.878 53.3357 128.91 53.2906C128.941 53.2456 128.956 53.1882 128.956 53.1184ZM128.374 51.9728L129.126 51.9728L129.126 52.2192L127.86 52.2192L127.86 51.9827L128.066 51.9827L128.066 51.967C127.999 51.9379 127.945 51.8923 127.904 51.8302C127.864 51.7676 127.843 51.6887 127.843 51.5937C127.843 51.5075 127.862 51.4319 127.898 51.3671C127.934 51.3023 127.987 51.252 128.058 51.2163C128.129 51.1806 128.216 51.1627 128.321 51.1627L129.126 51.1627L129.126 51.4091L128.35 51.4091C128.258 51.4091 128.187 51.433 128.135 51.4808C128.083 51.5286 128.057 51.5943 128.057 51.6778C128.057 51.7349 128.069 51.7857 128.094 51.8302C128.119 51.8742 128.155 51.909 128.203 51.9349C128.25 51.9601 128.307 51.9728 128.374 51.9728ZM129.151 50.2868C129.151 50.4115 129.125 50.5189 129.071 50.609C129.017 50.6985 128.942 50.7677 128.845 50.8166C128.747 50.865 128.632 50.8891 128.501 50.8891C128.371 50.8891 128.257 50.865 128.158 50.8166C128.059 50.7677 127.982 50.6996 127.927 50.6123C127.871 50.5244 127.843 50.4216 127.843 50.3041C127.843 50.2326 127.855 50.1634 127.879 50.0964C127.903 50.0294 127.94 49.9692 127.99 49.9159C128.041 49.8626 128.106 49.8206 128.187 49.7899C128.267 49.7591 128.365 49.7437 128.48 49.7437L128.567 49.7437L128.567 50.7499L128.382 50.7499L128.382 49.9852C128.318 49.9852 128.26 49.9983 128.21 50.0247C128.16 50.0511 128.12 50.0882 128.091 50.136C128.062 50.1832 128.047 50.2387 128.047 50.3024C128.047 50.3716 128.064 50.4321 128.098 50.4837C128.132 50.5348 128.176 50.5744 128.23 50.6024C128.284 50.6298 128.342 50.6436 128.405 50.6436L128.55 50.6436C128.634 50.6436 128.706 50.6287 128.766 50.5991C128.825 50.5689 128.87 50.5268 128.902 50.473C128.932 50.4192 128.948 50.3563 128.948 50.2843C128.948 50.2376 128.941 50.195 128.928 50.1566C128.914 50.1181 128.894 50.0849 128.867 50.0568C128.84 50.0288 128.807 50.0074 128.767 49.9926L128.809 49.7594C128.878 49.778 128.938 49.8116 128.99 49.8599C129.041 49.9077 129.081 49.9679 129.109 50.0404C129.137 50.1123 129.151 50.1945 129.151 50.2868ZM127.987 47.4347L127.987 47.6918C127.932 47.7017 127.884 47.7201 127.842 47.747C127.8 47.774 127.765 47.8069 127.735 47.8459C127.706 47.8849 127.684 47.9286 127.67 47.9769C127.655 48.0247 127.647 48.0756 127.647 48.1294C127.647 48.2266 127.672 48.3137 127.721 48.3906C127.77 48.467 127.841 48.5274 127.936 48.5719C128.03 48.6159 128.146 48.6378 128.282 48.6378C128.419 48.6378 128.535 48.6159 128.63 48.5719C128.724 48.5274 128.796 48.4667 128.844 48.3898C128.892 48.3129 128.916 48.2264 128.916 48.1302C128.916 48.0769 128.909 48.0264 128.895 47.9786C128.88 47.9302 128.858 47.8866 128.83 47.8476C128.801 47.8086 128.766 47.7756 128.725 47.7487C128.683 47.7212 128.636 47.7023 128.582 47.6918L128.583 47.4347C128.666 47.4484 128.742 47.4751 128.812 47.5146C128.881 47.5537 128.941 47.6039 128.991 47.6654C129.041 47.7264 129.08 47.7962 129.108 47.8748C129.135 47.9533 129.149 48.039 129.149 48.1319C129.149 48.278 129.114 48.4082 129.045 48.5225C128.975 48.6367 128.875 48.7268 128.746 48.7928C128.616 48.8581 128.461 48.8908 128.282 48.8908C128.102 48.8908 127.947 48.8579 127.818 48.7919C127.688 48.726 127.589 48.6359 127.52 48.5216C127.45 48.4074 127.415 48.2774 127.415 48.1319C127.415 48.0423 127.428 47.9588 127.454 47.8814C127.479 47.8033 127.516 47.7333 127.566 47.6712C127.615 47.6091 127.675 47.5578 127.745 47.5171C127.816 47.4765 127.896 47.449 127.987 47.4347ZM129.141 46.9875C129.141 47.0325 129.125 47.0712 129.094 47.1037C129.061 47.1361 129.022 47.1523 128.977 47.1523C128.931 47.1523 128.893 47.1361 128.861 47.1037C128.829 47.0712 128.813 47.0325 128.813 46.9875C128.813 46.9424 128.829 46.9037 128.861 46.8713C128.893 46.8389 128.931 46.8227 128.977 46.8227C129.007 46.8227 129.034 46.8303 129.06 46.8457C129.084 46.8606 129.104 46.8803 129.119 46.9051C129.134 46.9298 129.141 46.9572 129.141 46.9875ZM129.141 46.3303C129.141 46.3753 129.125 46.4141 129.094 46.4465C129.061 46.4789 129.022 46.4951 128.977 46.4951C128.931 46.4951 128.893 46.4789 128.861 46.4465C128.829 46.4141 128.813 46.3753 128.813 46.3303C128.813 46.2852 128.829 46.2465 128.861 46.2141C128.893 46.1817 128.931 46.1655 128.977 46.1655C129.007 46.1655 129.034 46.1732 129.06 46.1885C129.084 46.2034 129.104 46.2232 129.119 46.2479C129.134 46.2726 129.141 46.3001 129.141 46.3303ZM129.141 45.6731C129.141 45.7181 129.125 45.7569 129.094 45.7893C129.061 45.8217 129.022 45.8379 128.977 45.8379C128.931 45.8379 128.893 45.8217 128.861 45.7893C128.829 45.7569 128.813 45.7181 128.813 45.6731C128.813 45.628 128.829 45.5893 128.861 45.5569C128.893 45.5245 128.931 45.5083 128.977 45.5083C129.007 45.5083 129.034 45.516 129.06 45.5314C129.084 45.5462 129.104 45.566 129.119 45.5907C129.134 45.6154 129.141 45.6429 129.141 45.6731Z" fill="#111827"/>
<path d="M141.387 43.0525V41.5508" stroke="black" stroke-width="0.165752"/>
<path d="M141.029 54.145L141.029 53.8912L142.226 53.8912C142.334 53.8912 142.426 53.9126 142.503 53.9554C142.58 53.9977 142.639 54.0573 142.68 54.1343C142.72 54.2112 142.74 54.3013 142.74 54.4045C142.74 54.4996 142.723 54.585 142.688 54.6608C142.653 54.7361 142.603 54.7957 142.537 54.8396C142.471 54.883 142.39 54.9047 142.295 54.9047L142.295 54.6518C142.342 54.6518 142.382 54.6411 142.416 54.6196C142.45 54.5977 142.477 54.5677 142.496 54.5298C142.515 54.4913 142.524 54.4474 142.524 54.398C142.524 54.3441 142.513 54.2985 142.49 54.2612C142.467 54.2233 142.433 54.1944 142.389 54.1746C142.344 54.1549 142.29 54.145 142.226 54.145L141.029 54.145ZM142.745 53.172C142.745 53.2522 142.73 53.3247 142.7 53.3895C142.67 53.4543 142.626 53.5057 142.569 53.5436C142.512 53.581 142.442 53.5997 142.359 53.5997C142.288 53.5997 142.229 53.5859 142.183 53.5585C142.137 53.531 142.1 53.4939 142.073 53.4472C142.046 53.4005 142.026 53.3483 142.012 53.2906C141.998 53.233 141.988 53.1742 141.981 53.1143C141.972 53.0385 141.965 52.9769 141.959 52.9297C141.953 52.8825 141.944 52.8481 141.931 52.8267C141.917 52.8053 141.896 52.7946 141.866 52.7946L141.861 52.7946C141.789 52.7946 141.733 52.8149 141.693 52.8555C141.654 52.8956 141.634 52.9555 141.634 53.0352C141.634 53.1181 141.652 53.1835 141.689 53.2313C141.725 53.2785 141.766 53.3112 141.81 53.3294L141.758 53.5609C141.681 53.5335 141.619 53.4934 141.571 53.4406C141.524 53.3873 141.489 53.3261 141.467 53.2568C141.445 53.1876 141.435 53.1148 141.435 53.0385C141.435 52.9879 141.441 52.9344 141.453 52.8778C141.464 52.8207 141.486 52.7674 141.517 52.7179C141.548 52.6679 141.593 52.627 141.651 52.5951C141.709 52.5633 141.784 52.5473 141.876 52.5473L142.717 52.5473L142.717 52.788L142.544 52.788L142.544 52.7979C142.576 52.8138 142.607 52.8377 142.638 52.8695C142.668 52.9014 142.694 52.9423 142.714 52.9923C142.735 53.0423 142.745 53.1022 142.745 53.172ZM142.547 53.1184C142.547 53.0503 142.534 52.9921 142.507 52.9437C142.48 52.8948 142.445 52.8577 142.401 52.8325C142.357 52.8066 142.31 52.7937 142.26 52.7937L142.097 52.7937C142.106 52.8025 142.114 52.8196 142.122 52.8448C142.129 52.8695 142.135 52.8978 142.141 52.9297C142.146 52.9616 142.15 52.9926 142.155 53.0228C142.159 53.053 142.162 53.0783 142.165 53.0986C142.171 53.1464 142.181 53.1901 142.195 53.2297C142.209 53.2687 142.23 53.3 142.257 53.3236C142.283 53.3467 142.318 53.3582 142.362 53.3582C142.423 53.3582 142.47 53.3357 142.501 53.2906C142.532 53.2456 142.547 53.1882 142.547 53.1184ZM141.965 51.9728L142.717 51.9728L142.717 52.2192L141.451 52.2192L141.451 51.9827L141.657 51.9827L141.657 51.967C141.59 51.9379 141.536 51.8923 141.495 51.8302C141.455 51.7676 141.435 51.6887 141.435 51.5937C141.435 51.5075 141.453 51.4319 141.489 51.3671C141.525 51.3023 141.578 51.252 141.649 51.2163C141.72 51.1806 141.807 51.1627 141.912 51.1627L142.717 51.1627L142.717 51.4091L141.941 51.4091C141.85 51.4091 141.778 51.433 141.726 51.4808C141.674 51.5286 141.648 51.5943 141.648 51.6778C141.648 51.7349 141.66 51.7857 141.685 51.8302C141.71 51.8742 141.746 51.909 141.794 51.9349C141.841 51.9601 141.898 51.9728 141.965 51.9728ZM142.742 50.2868C142.742 50.4115 142.716 50.5189 142.662 50.609C142.609 50.6985 142.533 50.7677 142.436 50.8166C142.338 50.865 142.223 50.8891 142.092 50.8891C141.962 50.8891 141.848 50.865 141.749 50.8166C141.65 50.7677 141.573 50.6996 141.518 50.6123C141.462 50.5244 141.435 50.4216 141.435 50.3041C141.435 50.2326 141.446 50.1634 141.47 50.0964C141.494 50.0294 141.531 49.9692 141.581 49.9159C141.632 49.8626 141.697 49.8206 141.778 49.7899C141.858 49.7591 141.956 49.7437 142.071 49.7437L142.158 49.7437L142.158 50.7499L141.973 50.7499L141.973 49.9852C141.909 49.9852 141.851 49.9983 141.801 50.0247C141.751 50.0511 141.711 50.0882 141.682 50.136C141.653 50.1832 141.638 50.2387 141.638 50.3024C141.638 50.3716 141.655 50.4321 141.689 50.4837C141.723 50.5348 141.767 50.5744 141.821 50.6024C141.875 50.6298 141.933 50.6436 141.997 50.6436L142.141 50.6436C142.225 50.6436 142.297 50.6287 142.357 50.5991C142.416 50.5689 142.461 50.5268 142.493 50.473C142.523 50.4192 142.539 50.3563 142.539 50.2843C142.539 50.2376 142.532 50.195 142.519 50.1566C142.505 50.1181 142.485 50.0849 142.458 50.0568C142.431 50.0288 142.398 50.0074 142.358 49.9926L142.4 49.7594C142.469 49.778 142.529 49.8116 142.581 49.8599C142.632 49.9077 142.672 49.9679 142.7 50.0404C142.728 50.1123 142.742 50.1945 142.742 50.2868ZM141.578 47.4347L141.578 47.6918C141.523 47.7017 141.475 47.7201 141.433 47.747C141.391 47.774 141.356 47.8069 141.327 47.8459C141.297 47.8849 141.275 47.9286 141.261 47.9769C141.246 48.0247 141.238 48.0756 141.238 48.1294C141.238 48.2266 141.263 48.3137 141.312 48.3906C141.361 48.467 141.432 48.5274 141.527 48.5719C141.621 48.6159 141.737 48.6378 141.873 48.6378C142.01 48.6378 142.126 48.6159 142.221 48.5719C142.315 48.5274 142.387 48.4667 142.435 48.3898C142.483 48.3129 142.507 48.2264 142.507 48.1302C142.507 48.0769 142.5 48.0264 142.486 47.9786C142.471 47.9302 142.449 47.8866 142.421 47.8476C142.392 47.8086 142.357 47.7756 142.316 47.7487C142.274 47.7212 142.227 47.7023 142.173 47.6918L142.174 47.4347C142.257 47.4484 142.333 47.4751 142.403 47.5146C142.472 47.5537 142.532 47.6039 142.582 47.6654C142.632 47.7264 142.671 47.7962 142.699 47.8748C142.726 47.9533 142.74 48.039 142.74 48.1319C142.74 48.278 142.705 48.4082 142.636 48.5225C142.566 48.6367 142.466 48.7268 142.337 48.7928C142.207 48.8581 142.053 48.8908 141.873 48.8908C141.693 48.8908 141.538 48.8579 141.409 48.7919C141.279 48.726 141.18 48.6359 141.111 48.5216C141.041 48.4074 141.006 48.2774 141.006 48.1319C141.006 48.0423 141.019 47.9588 141.045 47.8814C141.07 47.8033 141.107 47.7333 141.157 47.6712C141.206 47.6091 141.266 47.5578 141.336 47.5171C141.407 47.4765 141.487 47.449 141.578 47.4347ZM142.732 46.9875C142.732 47.0325 142.716 47.0712 142.685 47.1037C142.652 47.1361 142.613 47.1523 142.568 47.1523C142.523 47.1523 142.484 47.1361 142.452 47.1037C142.42 47.0712 142.404 47.0325 142.404 46.9875C142.404 46.9424 142.42 46.9037 142.452 46.8713C142.484 46.8389 142.523 46.8227 142.568 46.8227C142.598 46.8227 142.626 46.8303 142.651 46.8457C142.676 46.8606 142.695 46.8803 142.71 46.9051C142.725 46.9298 142.732 46.9572 142.732 46.9875ZM142.732 46.3303C142.732 46.3753 142.716 46.4141 142.685 46.4465C142.652 46.4789 142.613 46.4951 142.568 46.4951C142.523 46.4951 142.484 46.4789 142.452 46.4465C142.42 46.4141 142.404 46.3753 142.404 46.3303C142.404 46.2852 142.42 46.2465 142.452 46.2141C142.484 46.1817 142.523 46.1655 142.568 46.1655C142.598 46.1655 142.626 46.1732 142.651 46.1885C142.676 46.2034 142.695 46.2232 142.71 46.2479C142.725 46.2726 142.732 46.3001 142.732 46.3303ZM142.732 45.6731C142.732 45.7181 142.716 45.7569 142.685 45.7893C142.652 45.8217 142.613 45.8379 142.568 45.8379C142.523 45.8379 142.484 45.8217 142.452 45.7893C142.42 45.7569 142.404 45.7181 142.404 45.6731C142.404 45.628 142.42 45.5893 142.452 45.5569C142.484 45.5245 142.523 45.5083 142.568 45.5083C142.598 45.5083 142.626 45.516 142.651 45.5314C142.676 45.5462 142.695 45.566 142.71 45.5907C142.725 45.6154 142.732 45.6429 142.732 45.6731Z" fill="#111827"/>
<path d="M154.997 43.0525V41.5508" stroke="black" stroke-width="0.165752"/>
<path d="M154.62 54.145L154.62 53.8912L155.816 53.8912C155.924 53.8912 156.017 53.9126 156.094 53.9554C156.171 53.9977 156.23 54.0573 156.27 54.1343C156.31 54.2112 156.33 54.3013 156.33 54.4045C156.33 54.4996 156.313 54.585 156.279 54.6608C156.244 54.7361 156.194 54.7957 156.128 54.8396C156.061 54.883 155.98 54.9047 155.885 54.9047L155.885 54.6518C155.932 54.6518 155.973 54.6411 156.007 54.6196C156.041 54.5977 156.067 54.5677 156.087 54.5298C156.105 54.4913 156.115 54.4474 156.115 54.398C156.115 54.3441 156.103 54.2985 156.081 54.2612C156.058 54.2233 156.024 54.1944 155.979 54.1746C155.935 54.1549 155.881 54.145 155.816 54.145L154.62 54.145ZM156.335 53.172C156.335 53.2522 156.321 53.3247 156.291 53.3895C156.261 53.4543 156.217 53.5057 156.16 53.5436C156.103 53.581 156.033 53.5997 155.95 53.5997C155.878 53.5997 155.82 53.5859 155.773 53.5585C155.727 53.531 155.691 53.4939 155.664 53.4472C155.637 53.4005 155.617 53.3483 155.603 53.2906C155.589 53.233 155.579 53.1742 155.571 53.1143C155.563 53.0385 155.556 52.9769 155.55 52.9297C155.544 52.8825 155.534 52.8481 155.521 52.8267C155.508 52.8053 155.487 52.7946 155.457 52.7946L155.451 52.7946C155.379 52.7946 155.323 52.8149 155.284 52.8555C155.244 52.8956 155.225 52.9555 155.225 53.0352C155.225 53.1181 155.243 53.1835 155.28 53.2313C155.316 53.2785 155.356 53.3112 155.401 53.3294L155.348 53.5609C155.271 53.5335 155.209 53.4934 155.162 53.4406C155.114 53.3873 155.08 53.3261 155.058 53.2568C155.036 53.1876 155.025 53.1148 155.025 53.0385C155.025 52.9879 155.031 52.9344 155.043 52.8778C155.055 52.8207 155.076 52.7674 155.108 52.7179C155.139 52.6679 155.184 52.627 155.242 52.5951C155.3 52.5633 155.375 52.5473 155.467 52.5473L156.307 52.5473L156.307 52.788L156.134 52.788L156.134 52.7979C156.166 52.8138 156.197 52.8377 156.228 52.8695C156.259 52.9014 156.285 52.9423 156.305 52.9923C156.325 53.0423 156.335 53.1022 156.335 53.172ZM156.138 53.1184C156.138 53.0503 156.124 52.9921 156.097 52.9437C156.07 52.8948 156.035 52.8577 155.992 52.8325C155.948 52.8066 155.901 52.7937 155.851 52.7937L155.688 52.7937C155.696 52.8025 155.705 52.8196 155.712 52.8448C155.72 52.8695 155.726 52.8978 155.731 52.9297C155.736 52.9616 155.741 52.9926 155.745 53.0228C155.749 53.053 155.753 53.0783 155.755 53.0986C155.761 53.1464 155.771 53.1901 155.786 53.2297C155.8 53.2687 155.821 53.3 155.848 53.3236C155.874 53.3467 155.909 53.3582 155.953 53.3582C156.014 53.3582 156.06 53.3357 156.091 53.2906C156.122 53.2456 156.138 53.1882 156.138 53.1184ZM155.556 51.9728L156.307 51.9728L156.307 52.2192L155.042 52.2192L155.042 51.9827L155.248 51.9827L155.248 51.967C155.181 51.9379 155.127 51.8923 155.086 51.8302C155.045 51.7676 155.025 51.6887 155.025 51.5937C155.025 51.5075 155.043 51.4319 155.08 51.3671C155.115 51.3023 155.169 51.252 155.239 51.2163C155.31 51.1806 155.398 51.1627 155.502 51.1627L156.307 51.1627L156.307 51.4091L155.532 51.4091C155.44 51.4091 155.369 51.433 155.317 51.4808C155.265 51.5286 155.239 51.5943 155.239 51.6778C155.239 51.7349 155.251 51.7857 155.276 51.8302C155.3 51.8742 155.337 51.909 155.384 51.9349C155.432 51.9601 155.489 51.9728 155.556 51.9728ZM156.333 50.2868C156.333 50.4115 156.306 50.5189 156.253 50.609C156.199 50.6985 156.124 50.7677 156.026 50.8166C155.929 50.865 155.814 50.8891 155.683 50.8891C155.553 50.8891 155.439 50.865 155.34 50.8166C155.241 50.7677 155.164 50.6996 155.108 50.6123C155.053 50.5244 155.025 50.4216 155.025 50.3041C155.025 50.2326 155.037 50.1634 155.061 50.0964C155.084 50.0294 155.121 49.9692 155.172 49.9159C155.222 49.8626 155.288 49.8206 155.369 49.7899C155.449 49.7591 155.546 49.7437 155.661 49.7437L155.749 49.7437L155.749 50.7499L155.564 50.7499L155.564 49.9852C155.499 49.9852 155.442 49.9983 155.392 50.0247C155.341 50.0511 155.301 50.0882 155.272 50.136C155.243 50.1832 155.229 50.2387 155.229 50.3024C155.229 50.3716 155.246 50.4321 155.28 50.4837C155.313 50.5348 155.357 50.5744 155.412 50.6024C155.465 50.6298 155.524 50.6436 155.587 50.6436L155.731 50.6436C155.816 50.6436 155.888 50.6287 155.947 50.5991C156.007 50.5689 156.052 50.5268 156.083 50.473C156.114 50.4192 156.129 50.3563 156.129 50.2843C156.129 50.2376 156.123 50.195 156.11 50.1566C156.096 50.1181 156.076 50.0849 156.049 50.0568C156.022 50.0288 155.988 50.0074 155.949 49.9926L155.991 49.7594C156.06 49.778 156.12 49.8116 156.171 49.8599C156.222 49.9077 156.262 49.9679 156.291 50.0404C156.319 50.1123 156.333 50.1945 156.333 50.2868ZM155.169 47.4347L155.169 47.6918C155.114 47.7017 155.065 47.7201 155.023 47.747C154.982 47.774 154.946 47.8069 154.917 47.8459C154.888 47.8849 154.866 47.9286 154.851 47.9769C154.836 48.0247 154.829 48.0756 154.829 48.1294C154.829 48.2266 154.853 48.3137 154.902 48.3906C154.951 48.467 155.023 48.5274 155.117 48.5719C155.212 48.6159 155.327 48.6378 155.464 48.6378C155.601 48.6378 155.717 48.6159 155.811 48.5719C155.906 48.5274 155.977 48.4667 156.026 48.3898C156.074 48.3129 156.098 48.2264 156.098 48.1302C156.098 48.0769 156.091 48.0264 156.077 47.9786C156.062 47.9302 156.04 47.8866 156.012 47.8476C155.983 47.8086 155.948 47.7756 155.907 47.7487C155.865 47.7212 155.817 47.7023 155.763 47.6918L155.764 47.4347C155.847 47.4484 155.924 47.4751 155.993 47.5146C156.063 47.5537 156.123 47.6039 156.173 47.6654C156.223 47.7264 156.262 47.7962 156.289 47.8748C156.317 47.9533 156.33 48.039 156.33 48.1319C156.33 48.278 156.296 48.4082 156.227 48.5225C156.157 48.6367 156.057 48.7268 155.927 48.7928C155.798 48.8581 155.643 48.8908 155.464 48.8908C155.283 48.8908 155.129 48.8579 155 48.7919C154.87 48.726 154.771 48.6359 154.701 48.5216C154.632 48.4074 154.597 48.2774 154.597 48.1319C154.597 48.0423 154.61 47.9588 154.635 47.8814C154.661 47.8033 154.698 47.7333 154.747 47.6712C154.796 47.6091 154.856 47.5578 154.927 47.5171C154.997 47.4765 155.078 47.449 155.169 47.4347ZM156.323 46.9875C156.323 47.0325 156.307 47.0712 156.275 47.1037C156.243 47.1361 156.204 47.1523 156.158 47.1523C156.113 47.1523 156.075 47.1361 156.043 47.1037C156.01 47.0712 155.994 47.0325 155.994 46.9875C155.994 46.9424 156.01 46.9037 156.043 46.8713C156.075 46.8389 156.113 46.8227 156.158 46.8227C156.188 46.8227 156.216 46.8303 156.241 46.8457C156.266 46.8606 156.286 46.8803 156.301 46.9051C156.316 46.9298 156.323 46.9572 156.323 46.9875ZM156.323 46.3303C156.323 46.3753 156.307 46.4141 156.275 46.4465C156.243 46.4789 156.204 46.4951 156.158 46.4951C156.113 46.4951 156.075 46.4789 156.043 46.4465C156.01 46.4141 155.994 46.3753 155.994 46.3303C155.994 46.2852 156.01 46.2465 156.043 46.2141C156.075 46.1817 156.113 46.1655 156.158 46.1655C156.188 46.1655 156.216 46.1732 156.241 46.1885C156.266 46.2034 156.286 46.2232 156.301 46.2479C156.316 46.2726 156.323 46.3001 156.323 46.3303ZM156.323 45.6731C156.323 45.7181 156.307 45.7569 156.275 45.7893C156.243 45.8217 156.204 45.8379 156.158 45.8379C156.113 45.8379 156.075 45.8217 156.043 45.7893C156.01 45.7569 155.994 45.7181 155.994 45.6731C155.994 45.628 156.01 45.5893 156.043 45.5569C156.075 45.5245 156.113 45.5083 156.158 45.5083C156.188 45.5083 156.216 45.516 156.241 45.5314C156.266 45.5462 156.286 45.566 156.301 45.5907C156.316 45.6154 156.323 45.6429 156.323 45.6731Z" fill="#111827"/>
<path d="M12.1289 1.50195V41.5477" stroke="black" stroke-width="0.165752"/>
<path d="M10.6302 41.5469H12.1324" stroke="black" stroke-width="0.165752"/>
<path d="M8.75684 41.6292C8.65042 41.6292 8.55977 41.6002 8.4849 41.5423C8.41003 41.4839 8.35282 41.3994 8.31326 41.2887C8.27371 41.1776 8.25393 41.0434 8.25393 40.8861C8.25393 40.7298 8.27371 40.5963 8.31326 40.4856C8.35329 40.3745 8.41074 40.2897 8.48561 40.2313C8.56095 40.1725 8.65136 40.143 8.75684 40.143C8.86232 40.143 8.95249 40.1725 9.02736 40.2313C9.10271 40.2897 9.16015 40.3745 9.19971 40.4856C9.23973 40.5963 9.25975 40.7298 9.25975 40.8861C9.25975 41.0434 9.23997 41.1776 9.20041 41.2887C9.16086 41.3994 9.10365 41.4839 9.02878 41.5423C8.95391 41.6002 8.86326 41.6292 8.75684 41.6292ZM8.75684 41.4738C8.86232 41.4738 8.94425 41.4229 9.00264 41.3212C9.06103 41.2195 9.09023 41.0744 9.09023 40.8861C9.09023 40.7608 9.07681 40.6542 9.04997 40.5661C9.0236 40.4781 8.98545 40.411 8.93554 40.3648C8.8861 40.3187 8.82653 40.2956 8.75684 40.2956C8.6523 40.2956 8.5706 40.3472 8.51174 40.4503C8.45288 40.5529 8.42345 40.6982 8.42345 40.8861C8.42345 41.0113 8.43664 41.1178 8.46301 41.2054C8.48938 41.2929 8.52728 41.3596 8.57673 41.4052C8.62664 41.4509 8.68668 41.4738 8.75684 41.4738Z" fill="black"/>
<path d="M10.6302 31.5352H12.1324" stroke="black" stroke-width="0.165752"/>
<path d="M8.75042 31.6174C8.65719 31.6174 8.57407 31.6014 8.50109 31.5694C8.42857 31.5374 8.37089 31.4929 8.32804 31.4359C8.28566 31.3785 8.26258 31.3118 8.25882 31.236H8.43681C8.44058 31.2826 8.45659 31.3229 8.48484 31.3568C8.51309 31.3902 8.55006 31.4161 8.59573 31.4345C8.64141 31.4529 8.69203 31.462 8.7476 31.462C8.80975 31.462 8.86485 31.4512 8.91288 31.4295C8.96091 31.4079 8.99858 31.3778 9.02589 31.3391C9.0532 31.3005 9.06686 31.2558 9.06686 31.2049C9.06686 31.1517 9.05367 31.1049 9.0273 31.0644C9.00093 31.0234 8.96232 30.9914 8.91146 30.9683C8.86061 30.9452 8.79845 30.9337 8.72499 30.9337H8.60916V30.7783H8.72499C8.78244 30.7783 8.83283 30.768 8.87615 30.7472C8.91994 30.7265 8.95408 30.6973 8.97857 30.6596C9.00352 30.622 9.016 30.5777 9.016 30.5269C9.016 30.4779 9.00517 30.4353 8.98351 30.399C8.96185 30.3628 8.93124 30.3345 8.89169 30.3143C8.8526 30.294 8.80646 30.2839 8.75325 30.2839C8.70333 30.2839 8.65624 30.2931 8.61198 30.3114C8.56819 30.3293 8.5324 30.3555 8.50462 30.3898C8.47684 30.4237 8.46177 30.4647 8.45941 30.5127H8.28989C8.29272 30.4369 8.31556 30.3705 8.35841 30.3135C8.40126 30.2561 8.45729 30.2114 8.52651 30.1793C8.59621 30.1473 8.67272 30.1313 8.75607 30.1313C8.84554 30.1313 8.92229 30.1494 8.98634 30.1857C9.05038 30.2215 9.09958 30.2688 9.13396 30.3277C9.16833 30.3865 9.18552 30.4501 9.18552 30.5184C9.18552 30.5998 9.1641 30.6693 9.12124 30.7268C9.07886 30.7842 9.02118 30.824 8.94819 30.8461V30.8574C9.03955 30.8725 9.11089 30.9113 9.16221 30.974C9.21354 31.0361 9.2392 31.1131 9.2392 31.2049C9.2392 31.2836 9.21778 31.3542 9.17493 31.4168C9.13255 31.479 9.07463 31.528 9.00117 31.5638C8.92771 31.5995 8.84413 31.6174 8.75042 31.6174Z" fill="black"/>
<path d="M10.6302 21.5254H12.1324" stroke="black" stroke-width="0.165752"/>
<path d="M8.7672 21.6077C8.70786 21.6067 8.64853 21.5954 8.5892 21.5738C8.52987 21.5521 8.47572 21.5156 8.42675 21.4643C8.37777 21.4125 8.33845 21.3426 8.30879 21.2545C8.27912 21.166 8.26429 21.0548 8.26429 20.9211C8.26429 20.793 8.2763 20.6795 8.30031 20.5807C8.32433 20.4813 8.35917 20.3977 8.40485 20.3299C8.45053 20.2616 8.50562 20.2098 8.57013 20.1745C8.63511 20.1392 8.70834 20.1215 8.7898 20.1215C8.87079 20.1215 8.94284 20.1378 9.00594 20.1703C9.06951 20.2023 9.1213 20.247 9.16133 20.3045C9.20135 20.3619 9.22725 20.4281 9.23903 20.503H9.06668C9.05067 20.438 9.01959 20.3841 8.97345 20.3412C8.9273 20.2984 8.86608 20.2769 8.7898 20.2769C8.67773 20.2769 8.58944 20.3257 8.52493 20.4232C8.46088 20.5206 8.42863 20.6574 8.42816 20.8335H8.43946C8.46583 20.7935 8.49714 20.7594 8.5334 20.7311C8.57013 20.7024 8.61063 20.6803 8.65489 20.6647C8.69915 20.6492 8.74601 20.6414 8.79545 20.6414C8.87833 20.6414 8.95414 20.6621 9.02289 20.7036C9.09164 20.7445 9.14673 20.8013 9.18817 20.8738C9.22961 20.9458 9.25033 21.0285 9.25033 21.1217C9.25033 21.2112 9.23031 21.2931 9.19029 21.3675C9.15026 21.4414 9.09399 21.5003 9.02148 21.5441C8.94943 21.5874 8.86467 21.6086 8.7672 21.6077ZM8.7672 21.4523C8.82653 21.4523 8.87974 21.4374 8.92683 21.4078C8.97439 21.3781 9.01182 21.3383 9.03913 21.2884C9.06692 21.2385 9.08081 21.1829 9.08081 21.1217C9.08081 21.0619 9.06739 21.0075 9.04055 20.9586C9.01418 20.9091 8.97768 20.8698 8.93107 20.8406C8.88492 20.8114 8.83218 20.7968 8.77285 20.7968C8.72811 20.7968 8.68644 20.8057 8.64783 20.8236C8.60921 20.8411 8.57531 20.8651 8.54612 20.8957C8.51739 20.9263 8.49479 20.9614 8.47831 21.0009C8.46183 21.04 8.45359 21.0812 8.45359 21.1245C8.45359 21.182 8.46701 21.2357 8.49385 21.2856C8.52116 21.3355 8.55836 21.3758 8.60545 21.4064C8.65301 21.437 8.70692 21.4523 8.7672 21.4523Z" fill="black"/>
<path d="M10.6302 11.5137H12.1324" stroke="black" stroke-width="0.165752"/>
<path d="M8.74742 10.1098C8.80675 10.1103 8.86608 10.1216 8.92541 10.1437C8.98475 10.1659 9.0389 10.2026 9.08787 10.2539C9.13684 10.3048 9.17616 10.3742 9.20583 10.4623C9.23549 10.5503 9.25033 10.6608 9.25033 10.7936C9.25033 10.9221 9.23808 11.0363 9.2136 11.1361C9.18958 11.2355 9.15474 11.3193 9.10906 11.3876C9.06386 11.4559 9.00876 11.5077 8.94378 11.543C8.87927 11.5783 8.80628 11.5959 8.72482 11.5959C8.64382 11.5959 8.57154 11.5799 8.50797 11.5479C8.44487 11.5154 8.39308 11.4705 8.35258 11.413C8.31256 11.3551 8.28689 11.288 8.27559 11.2117H8.44794C8.46347 11.2781 8.49432 11.333 8.54046 11.3763C8.58708 11.4191 8.64853 11.4406 8.72482 11.4406C8.83642 11.4406 8.92447 11.3918 8.98898 11.2943C9.05397 11.1969 9.08646 11.0591 9.08646 10.8811H9.07516C9.04879 10.9207 9.01747 10.9548 8.98121 10.9836C8.94496 11.0123 8.9047 11.0344 8.86043 11.05C8.81617 11.0655 8.76908 11.0733 8.71917 11.0733C8.63629 11.0733 8.56024 11.0528 8.49102 11.0118C8.42227 10.9704 8.36718 10.9136 8.32574 10.8416C8.28477 10.7691 8.26429 10.6862 8.26429 10.593C8.26429 10.5044 8.28407 10.4234 8.32362 10.35C8.36365 10.2761 8.41968 10.2172 8.49173 10.1734C8.56424 10.1296 8.64947 10.1084 8.74742 10.1098ZM8.74742 10.2652C8.68809 10.2652 8.63464 10.2801 8.58708 10.3097C8.53999 10.3389 8.50256 10.3785 8.47478 10.4284C8.44746 10.4778 8.43381 10.5327 8.43381 10.593C8.43381 10.6532 8.44699 10.7081 8.47336 10.7575C8.5002 10.8065 8.5367 10.8456 8.58284 10.8748C8.62946 10.9035 8.68244 10.9179 8.74177 10.9179C8.7865 10.9179 8.82818 10.9092 8.86679 10.8917C8.9054 10.8738 8.93907 10.8496 8.96779 10.819C8.99699 10.7879 9.01983 10.7528 9.03631 10.7137C9.05279 10.6742 9.06103 10.633 9.06103 10.5901C9.06103 10.5336 9.04737 10.4807 9.02006 10.4312C8.99322 10.3818 8.95602 10.3417 8.90846 10.3111C8.86137 10.2805 8.80769 10.2652 8.74742 10.2652Z" fill="black"/>
<path d="M10.6302 1.50195H12.1324" stroke="black" stroke-width="0.165752"/>
<path d="M7.90807 1.16867V2.61523H7.7329V1.35232H7.72442L7.37126 1.58682V1.40882L7.7329 1.16867H7.90807ZM8.3241 2.61523V2.48809L8.80158 1.96541C8.85761 1.9042 8.90376 1.85099 8.94002 1.80578C8.97628 1.7601 9.00312 1.71725 9.02054 1.67723C9.03843 1.63673 9.04738 1.59435 9.04738 1.55009C9.04738 1.49923 9.03514 1.4552 9.01065 1.418C8.98664 1.3808 8.95367 1.35208 8.91176 1.33183C8.86986 1.31158 8.82277 1.30146 8.7705 1.30146C8.71493 1.30146 8.66643 1.313 8.62499 1.33607C8.58403 1.35867 8.55224 1.39046 8.52964 1.43142C8.50751 1.47239 8.49644 1.52042 8.49644 1.57552H8.32975C8.32975 1.49076 8.34929 1.41636 8.38837 1.35232C8.42746 1.28828 8.48067 1.23836 8.548 1.20257C8.61581 1.16679 8.69186 1.14889 8.77615 1.14889C8.86091 1.14889 8.93602 1.16679 9.00147 1.20257C9.06692 1.23836 9.11825 1.28663 9.15545 1.34737C9.19265 1.40812 9.21125 1.47569 9.21125 1.55009C9.21125 1.6033 9.2016 1.65533 9.18229 1.70619C9.16345 1.75657 9.13049 1.81284 9.0834 1.875C9.03679 1.93669 8.97204 2.01203 8.88916 2.10103L8.56425 2.44854V2.45984H9.23668V2.61523H8.3241Z" fill="black"/>
<path d="M13.4909 34.8711H18.2478V41.5454H13.4909V34.8711Z" fill="#1F2937"/>
<path d="M27.1013 38.209H31.8583V41.5461H27.1013V38.209Z" fill="#1F2937"/>
<path d="M40.713 28.1992H45.47V41.5478H40.713V28.1992Z" fill="#1F2937"/>
<path d="M54.3239 21.5234H59.0808V41.5463H54.3239V21.5234Z" fill="#1F2937"/>
<path d="M67.9317 34.8711H72.6886V41.5454H67.9317V34.8711Z" fill="#1F2937"/>
<path d="M81.5423 24.8613H86.2992V41.547H81.5423V24.8613Z" fill="#1F2937"/>
<path d="M95.1543 11.5117H99.9112V41.546H95.1543V11.5117Z" fill="#1F2937"/>
<path d="M108.765 18.1875H113.522V41.5475H108.765V18.1875Z" fill="#1F2937"/>
<path d="M122.377 31.5371H127.134V41.5485H122.377V31.5371Z" fill="#1F2937"/>
<path d="M135.987 28.1992H140.744V41.5478H135.987V28.1992Z" fill="#1F2937"/>
<path d="M149.599 28.1992H154.356V41.5478H149.599V28.1992Z" fill="#1F2937"/>
<path d="M19.248 18.1875H24.005V41.5475H19.248V18.1875Z" fill="#D0D4DA"/>
<path d="M32.8585 21.5234H37.6154V41.5463H32.8585V21.5234Z" fill="#D0D4DA"/>
<path d="M46.4702 34.8711H51.2271V41.5454H46.4702V34.8711Z" fill="#D0D4DA"/>
<path d="M60.081 28.1992H64.8379V41.5478H60.081V28.1992Z" fill="#D0D4DA"/>
<path d="M73.6892 24.8613H78.4461V41.547H73.6892V24.8613Z" fill="#D0D4DA"/>
<path d="M87.2997 28.1992H92.0567V41.5478H87.2997V28.1992Z" fill="#D0D4DA"/>
<path d="M100.911 14.8496H105.668V41.5468H100.911V14.8496Z" fill="#D0D4DA"/>
<path d="M114.522 38.209H119.279V41.5461H114.522V38.209Z" fill="#D0D4DA"/>
<path d="M128.134 24.8613H132.891V41.547H128.134V24.8613Z" fill="#D0D4DA"/>
<path d="M141.744 11.5117H146.501V41.546H141.744V11.5117Z" fill="#D0D4DA"/>
<path d="M155.356 31.5371H160.113V41.5485H155.356V31.5371Z" fill="#D0D4DA"/>
<path d="M2.35054 29.0727L2.35054 29.4033C2.2799 29.416 2.21775 29.4396 2.16406 29.4742C2.11038 29.5089 2.06483 29.5512 2.02739 29.6014C1.98995 29.6515 1.9617 29.7077 1.94263 29.7698C1.92356 29.8313 1.91402 29.8966 1.91402 29.9658C1.91402 30.0909 1.94546 30.2028 2.00832 30.3017C2.07118 30.3999 2.16336 30.4776 2.28485 30.5348C2.40634 30.5913 2.55467 30.6196 2.72984 30.6196C2.90642 30.6196 3.05545 30.5913 3.17694 30.5348C3.29843 30.4776 3.39025 30.3995 3.45241 30.3006C3.51457 30.2018 3.54565 30.0905 3.54565 29.9669C3.54565 29.8984 3.53646 29.8334 3.5181 29.772C3.49903 29.7098 3.47113 29.6536 3.4344 29.6035C3.39767 29.5534 3.35282 29.511 3.29984 29.4764C3.24616 29.441 3.18471 29.4167 3.11549 29.4033L3.11655 29.0727C3.22321 29.0904 3.32139 29.1246 3.41109 29.1755C3.50009 29.2256 3.57708 29.2902 3.64206 29.3694C3.70634 29.4478 3.75613 29.5375 3.79145 29.6385C3.82677 29.7395 3.84442 29.8497 3.84442 29.969C3.84442 30.1569 3.79993 30.3243 3.71093 30.4712C3.62122 30.6181 3.49302 30.734 3.32633 30.8187C3.15964 30.9028 2.96081 30.9448 2.72984 30.9448C2.49816 30.9448 2.29933 30.9024 2.13334 30.8177C1.96665 30.7329 1.8388 30.6171 1.7498 30.4702C1.6601 30.3233 1.61525 30.1562 1.61525 29.969C1.61525 29.8539 1.63184 29.7465 1.66504 29.6469C1.69753 29.5466 1.74556 29.4566 1.80913 29.3768C1.872 29.297 1.94899 29.2309 2.0401 29.1786C2.13051 29.1264 2.23399 29.0911 2.35054 29.0727ZM3.8476 28.0209C3.8476 28.1734 3.81264 28.3066 3.74271 28.4203C3.67279 28.534 3.57496 28.6223 3.44923 28.6852C3.32351 28.748 3.17659 28.7795 3.00848 28.7795C2.83967 28.7795 2.69205 28.748 2.56561 28.6852C2.43918 28.6223 2.341 28.534 2.27107 28.4203C2.20115 28.3066 2.16618 28.1734 2.16618 28.0209C2.16618 27.8683 2.20115 27.7352 2.27107 27.6214C2.341 27.5077 2.43918 27.4194 2.56561 27.3566C2.69205 27.2937 2.83967 27.2623 3.00848 27.2623C3.17659 27.2623 3.32351 27.2937 3.44923 27.3566C3.57496 27.4194 3.67279 27.5077 3.74271 27.6214C3.81264 27.7352 3.8476 27.8683 3.8476 28.0209ZM3.58167 28.0198C3.58167 27.9209 3.55553 27.839 3.50327 27.774C3.451 27.709 3.38142 27.661 3.29455 27.6299C3.20767 27.5981 3.11196 27.5822 3.00742 27.5822C2.90359 27.5822 2.80824 27.5981 2.72136 27.6299C2.63377 27.661 2.56349 27.709 2.51052 27.774C2.45754 27.839 2.43106 27.9209 2.43106 28.0198C2.43106 28.1194 2.45754 28.2021 2.51052 28.2677C2.56349 28.3327 2.63377 28.3811 2.72136 28.4129C2.80824 28.444 2.90359 28.4595 3.00742 28.4595C3.11196 28.4595 3.20767 28.444 3.29455 28.4129C3.38142 28.3811 3.451 28.3327 3.50327 28.2677C3.55553 28.2021 3.58167 28.1194 3.58167 28.0198ZM3.13986 25.8778L2.18737 25.8778L2.18737 25.5599L3.81476 25.5599L3.81476 25.8714L3.53293 25.8714L3.53293 25.8884C3.61981 25.9258 3.69221 25.9859 3.75013 26.0685C3.80734 26.1504 3.83595 26.2525 3.83595 26.3747C3.83595 26.4792 3.81299 26.5718 3.76708 26.6523C3.72046 26.7321 3.6516 26.795 3.56048 26.8409C3.46936 26.8861 3.3567 26.9087 3.2225 26.9087L2.18737 26.9087L2.18737 26.5919L3.18436 26.5919C3.29525 26.5919 3.38354 26.5612 3.44923 26.4997C3.51492 26.4383 3.54777 26.3584 3.54777 26.2603C3.54777 26.2009 3.53293 26.142 3.50327 26.0833C3.4736 26.024 3.42875 25.9749 3.36871 25.9361C3.30867 25.8965 3.23239 25.8771 3.13986 25.8778ZM2.8485 24.8175L3.81476 24.8175L3.81476 25.1343L2.18737 25.1343L2.18737 24.8302L2.45225 24.8302L2.45225 24.8101C2.36607 24.7726 2.29685 24.714 2.24459 24.6342C2.19232 24.5537 2.16618 24.4523 2.16618 24.3301C2.16618 24.2192 2.18949 24.1221 2.23611 24.0388C2.28202 23.9554 2.35054 23.8908 2.44165 23.8449C2.53277 23.799 2.64543 23.776 2.77963 23.776L3.81476 23.776L3.81476 24.0928L2.81777 24.0928C2.69982 24.0928 2.60764 24.1235 2.54124 24.185C2.47414 24.2464 2.44059 24.3308 2.44059 24.4382C2.44059 24.5117 2.45648 24.577 2.48827 24.6342C2.52005 24.6907 2.56667 24.7356 2.62812 24.7688C2.68887 24.8012 2.76233 24.8175 2.8485 24.8175ZM2.18737 22.5915L2.44165 22.5915L2.44165 23.4804L2.18737 23.4804L2.18737 22.5915ZM1.79748 23.242L1.79748 22.9252L3.33693 22.9252C3.39838 22.9252 3.44464 22.9161 3.47572 22.8977C3.50609 22.8793 3.52693 22.8557 3.53823 22.8267C3.54882 22.797 3.55412 22.7649 3.55412 22.7303C3.55412 22.7049 3.55236 22.6826 3.54882 22.6635C3.54529 22.6445 3.54247 22.6296 3.54035 22.619L3.80204 22.5618C3.80911 22.5802 3.81617 22.6063 3.82323 22.6402C3.831 22.6741 3.83524 22.7165 3.83595 22.7674C3.83736 22.8507 3.82253 22.9284 3.79145 23.0005C3.76037 23.0725 3.71234 23.1308 3.64736 23.1753C3.58238 23.2198 3.50079 23.242 3.40261 23.242L1.79748 23.242ZM3.8476 20.766C3.8476 20.9186 3.81264 21.0517 3.74271 21.1654C3.67279 21.2791 3.57496 21.3674 3.44923 21.4303C3.32351 21.4932 3.17659 21.5246 3.00848 21.5246C2.83967 21.5246 2.69205 21.4932 2.56561 21.4303C2.43918 21.3674 2.341 21.2791 2.27107 21.1654C2.20115 21.0517 2.16618 20.9186 2.16618 20.766C2.16618 20.6134 2.20115 20.4803 2.27107 20.3666C2.341 20.2528 2.43918 20.1645 2.56561 20.1017C2.69205 20.0388 2.83967 20.0074 3.00848 20.0074C3.17659 20.0074 3.32351 20.0388 3.44923 20.1017C3.57496 20.1645 3.67279 20.2528 3.74271 20.3666C3.81264 20.4803 3.8476 20.6134 3.8476 20.766ZM3.58167 20.7649C3.58167 20.666 3.55553 20.5841 3.50327 20.5191C3.451 20.4541 3.38142 20.4061 3.29455 20.375C3.20767 20.3432 3.11196 20.3274 3.00742 20.3274C2.90359 20.3274 2.80824 20.3432 2.72136 20.375C2.63377 20.4061 2.56349 20.4541 2.51052 20.5191C2.45754 20.5841 2.43106 20.666 2.43106 20.7649C2.43106 20.8645 2.45754 20.9472 2.51052 21.0128C2.56349 21.0778 2.63377 21.1262 2.72136 21.158C2.80824 21.1891 2.90359 21.2046 3.00742 21.2046C3.11196 21.2046 3.20767 21.1891 3.29455 21.158C3.38142 21.1262 3.451 21.0778 3.50327 21.0128C3.55553 20.9472 3.58167 20.8645 3.58167 20.7649ZM2.18737 18.8793L2.44165 18.8793L2.44165 19.7989L2.18737 19.7989L2.18737 18.8793ZM3.81476 19.5468L1.99878 19.5468C1.89707 19.5468 1.81266 19.5245 1.74556 19.48C1.67776 19.4355 1.62725 19.3765 1.59406 19.3031C1.56015 19.2296 1.5432 19.1498 1.5432 19.0636C1.5432 19.0001 1.5485 18.9457 1.55909 18.9005C1.56898 18.8553 1.57816 18.8217 1.58664 18.7998L1.84304 18.874C1.8388 18.8888 1.83385 18.9079 1.8282 18.9312C1.82185 18.9545 1.81867 18.9828 1.81867 19.016C1.81867 19.093 1.83774 19.148 1.87588 19.1812C1.91402 19.2137 1.96912 19.23 2.04116 19.23L3.81476 19.23L3.81476 19.5468ZM3.8476 17.0774C3.8476 17.2349 3.81193 17.3705 3.74059 17.4842C3.66855 17.5972 3.56931 17.6841 3.44287 17.7448C3.31644 17.8056 3.17164 17.8359 3.00848 17.8359C2.8432 17.8359 2.69734 17.8049 2.57091 17.7427C2.44377 17.6806 2.34453 17.593 2.27319 17.48C2.20185 17.3669 2.16618 17.2338 2.16618 17.0805C2.16618 16.9569 2.18914 16.8467 2.23505 16.75C2.28026 16.6532 2.34382 16.5752 2.42576 16.5158C2.50769 16.4558 2.6034 16.4201 2.71288 16.4088L2.71288 16.7171C2.6366 16.7341 2.57091 16.7729 2.51582 16.8337C2.46072 16.8937 2.43318 16.9742 2.43318 17.0752C2.43318 17.1635 2.45648 17.2409 2.5031 17.3073C2.54901 17.373 2.6147 17.4242 2.70017 17.4609C2.78493 17.4976 2.88523 17.516 3.00107 17.516C3.11973 17.516 3.22215 17.498 3.30832 17.4619C3.39449 17.4259 3.46124 17.3751 3.50856 17.3094C3.55589 17.243 3.57955 17.1649 3.57955 17.0752C3.57955 17.0152 3.5686 16.9608 3.54671 16.9121C3.5241 16.8626 3.49196 16.8213 3.45029 16.7881C3.40862 16.7542 3.35847 16.7305 3.29984 16.7171L3.29984 16.4088C3.40509 16.4201 3.49903 16.4544 3.58167 16.5116C3.66431 16.5688 3.72929 16.6454 3.77662 16.7415C3.82394 16.8368 3.8476 16.9488 3.8476 17.0774ZM3.81476 16.07L2.18737 16.07L2.18737 15.7532L3.81476 15.7532L3.81476 16.07ZM1.93627 15.9101C1.93627 15.9651 1.91791 16.0125 1.88118 16.052C1.84374 16.0909 1.79924 16.1103 1.74768 16.1103C1.69541 16.1103 1.65091 16.0909 1.61419 16.052C1.57675 16.0125 1.55803 15.9651 1.55803 15.9101C1.55803 15.855 1.57675 15.808 1.61419 15.7691C1.65091 15.7296 1.69541 15.7098 1.74768 15.7098C1.79924 15.7098 1.84374 15.7296 1.88118 15.7691C1.91791 15.808 1.93627 15.855 1.93627 15.9101ZM2.18737 14.5674L2.44165 14.5674L2.44165 15.4563L2.18737 15.4563L2.18737 14.5674ZM1.79748 15.2179L1.79748 14.9011L3.33693 14.9011C3.39838 14.9011 3.44464 14.892 3.47572 14.8736C3.50609 14.8552 3.52693 14.8316 3.53823 14.8026C3.54882 14.7729 3.55412 14.7408 3.55412 14.7062C3.55412 14.6808 3.55236 14.6585 3.54882 14.6395C3.54529 14.6204 3.54247 14.6055 3.54035 14.595L3.80204 14.5377C3.80911 14.5561 3.81617 14.5822 3.82323 14.6161C3.831 14.65 3.83524 14.6924 3.83595 14.7433C3.83736 14.8266 3.82253 14.9043 3.79145 14.9764C3.76037 15.0484 3.71234 15.1067 3.64736 15.1512C3.58237 15.1957 3.50079 15.2179 3.40261 15.2179L1.79748 15.2179ZM4.42503 14.0167C4.42503 14.0641 4.42114 14.1071 4.41337 14.146C4.40631 14.1848 4.39854 14.2138 4.39006 14.2329L4.13049 14.1566C4.14603 14.0987 4.15274 14.0471 4.15062 14.0019C4.1485 13.9567 4.13155 13.9168 4.09976 13.8822C4.06798 13.8469 4.01606 13.8158 3.94402 13.7889L3.83595 13.7497L2.18737 14.3452L2.18737 14.0061L3.45029 13.594L3.45029 13.577L2.18737 13.1649L2.18737 12.8248L4.03195 13.4955C4.11671 13.5265 4.18841 13.5661 4.24703 13.6141C4.30636 13.6622 4.35086 13.7194 4.38053 13.7858C4.41019 13.8522 4.42503 13.9291 4.42503 14.0167Z" fill="#111827"/>
<path d="M84.6861 59.7891V61.959H84.3852L83.2823 60.3676H83.2621V61.959H82.9347V59.7891H83.2378L84.3417 61.3826H84.3619V59.7891H84.6861ZM85.6118 61.995C85.5087 61.995 85.4155 61.9759 85.3321 61.9378C85.2488 61.8989 85.1827 61.8428 85.134 61.7693C85.086 61.6959 85.0619 61.6058 85.0619 61.4992C85.0619 61.4073 85.0796 61.3318 85.1149 61.2724C85.1502 61.2131 85.1979 61.1661 85.2579 61.1315C85.318 61.0969 85.3851 61.0708 85.4592 61.0531C85.5334 61.0355 85.609 61.022 85.686 61.0129C85.7835 61.0016 85.8626 60.9924 85.9233 60.9853C85.9841 60.9775 86.0282 60.9652 86.0557 60.9482C86.0833 60.9313 86.0971 60.9037 86.0971 60.8656V60.8582C86.0971 60.7656 86.0709 60.6939 86.0187 60.6431C85.9671 60.5922 85.8901 60.5668 85.7877 60.5668C85.681 60.5668 85.597 60.5905 85.5355 60.6378C85.4748 60.6844 85.4328 60.7363 85.4095 60.7935L85.1117 60.7257C85.1471 60.6268 85.1986 60.547 85.2664 60.4863C85.3349 60.4248 85.4137 60.3803 85.5027 60.3528C85.5917 60.3245 85.6853 60.3104 85.7835 60.3104C85.8484 60.3104 85.9173 60.3182 85.9901 60.3337C86.0635 60.3486 86.132 60.3761 86.1956 60.4164C86.2599 60.4566 86.3125 60.5142 86.3535 60.5891C86.3944 60.6632 86.4149 60.7596 86.4149 60.8783V61.959H86.1055V61.7365H86.0928C86.0723 61.7775 86.0416 61.8177 86.0007 61.8573C85.9597 61.8968 85.9071 61.9297 85.8428 61.9558C85.7785 61.9819 85.7015 61.995 85.6118 61.995ZM85.6807 61.7407C85.7683 61.7407 85.8431 61.7234 85.9053 61.6888C85.9682 61.6542 86.0158 61.609 86.0483 61.5532C86.0815 61.4967 86.0981 61.4363 86.0981 61.372V61.1622C86.0868 61.1735 86.0649 61.1841 86.0324 61.194C86.0007 61.2032 85.9643 61.2113 85.9233 61.2184C85.8823 61.2248 85.8424 61.2308 85.8036 61.2364C85.7647 61.2414 85.7322 61.2456 85.7061 61.2491C85.6447 61.2569 85.5885 61.27 85.5377 61.2883C85.4875 61.3067 85.4472 61.3332 85.4169 61.3678C85.3872 61.4017 85.3724 61.4469 85.3724 61.5034C85.3724 61.5818 85.4013 61.6411 85.4592 61.6814C85.5172 61.721 85.591 61.7407 85.6807 61.7407ZM86.8369 61.959L86.8369 60.3316H87.1409V60.5965H87.1611C87.195 60.5068 87.2504 60.4368 87.3274 60.3867C87.4044 60.3358 87.4966 60.3104 87.6039 60.3104C87.7127 60.3104 87.8038 60.3358 87.8773 60.3867C87.9514 60.4375 88.0062 60.5075 88.0415 60.5965H88.0585C88.0973 60.5096 88.1591 60.4404 88.2439 60.3888C88.3286 60.3365 88.4296 60.3104 88.5469 60.3104C88.6945 60.3104 88.8149 60.3567 88.9082 60.4492C89.0021 60.5417 89.0491 60.6812 89.0491 60.8677V61.959H88.7323V60.8974C88.7323 60.7872 88.7023 60.7074 88.6422 60.6579C88.5822 60.6085 88.5105 60.5838 88.4272 60.5838C88.324 60.5838 88.2439 60.6155 88.1867 60.6791C88.1294 60.742 88.1008 60.8229 88.1008 60.9217V61.959H87.7851V60.8772C87.7851 60.7889 87.7576 60.718 87.7025 60.6643C87.6474 60.6106 87.5757 60.5838 87.4874 60.5838C87.4274 60.5838 87.3719 60.5997 87.321 60.6314C87.2709 60.6625 87.2303 60.706 87.1992 60.7618C87.1688 60.8176 87.1536 60.8822 87.1536 60.9556V61.959H86.8369ZM90.1751 61.9918C90.0147 61.9918 89.8766 61.9576 89.7608 61.8891C89.6457 61.8198 89.5567 61.7227 89.4938 61.5977C89.4317 61.472 89.4006 61.3247 89.4006 61.1559C89.4006 60.9892 89.4317 60.8423 89.4938 60.7151C89.5567 60.588 89.6443 60.4888 89.7566 60.4174C89.8696 60.3461 90.0017 60.3104 90.1528 60.3104C90.2446 60.3104 90.3336 60.3256 90.4198 60.356C90.506 60.3863 90.5833 60.434 90.6518 60.499C90.7203 60.564 90.7744 60.6484 90.8139 60.7522C90.8535 60.8553 90.8733 60.9807 90.8733 61.1283V61.2406H89.5796V61.0033H90.5628C90.5628 60.92 90.5459 60.8462 90.512 60.7819C90.4781 60.7169 90.4304 60.6657 90.369 60.6283C90.3082 60.5908 90.2369 60.5721 90.1549 60.5721C90.0659 60.5721 89.9882 60.594 89.9218 60.6378C89.8562 60.6809 89.8053 60.7374 89.7693 60.8073C89.734 60.8765 89.7163 60.9518 89.7163 61.033V61.2184C89.7163 61.3272 89.7354 61.4197 89.7735 61.496C89.8124 61.5723 89.8664 61.6305 89.9356 61.6708C90.0048 61.7104 90.0857 61.7301 90.1782 61.7301C90.2383 61.7301 90.293 61.7217 90.3425 61.7047C90.3919 61.687 90.4346 61.6609 90.4707 61.6263C90.5067 61.5917 90.5342 61.549 90.5533 61.4981L90.8531 61.5521C90.8291 61.6404 90.786 61.7178 90.7239 61.7842C90.6624 61.8499 90.5851 61.9011 90.4919 61.9378C90.3993 61.9738 90.2937 61.9918 90.1751 61.9918Z" fill="#111827"/>
</g>
<defs>
<clipPath id="clip0_653_33400">
<rect width="161.111" height="61.6598" fill="white" transform="translate(0.814758 0.615234)"/>
</clipPath>
</defs>
</svg>
