<svg width="156" height="94" viewBox="0 0 156 94" fill="none" xmlns="http://www.w3.org/2000/svg">
<path d="M7.87563 89.1033C7.65587 89.1033 7.46868 89.0435 7.31407 88.9239C7.15946 88.8034 7.04132 88.6288 6.95964 88.4003C6.87796 88.1708 6.83712 87.8937 6.83712 87.5689C6.83712 87.2461 6.87796 86.9704 6.95964 86.7419C7.04229 86.5124 7.16092 86.3374 7.31553 86.2168C7.47111 86.0953 7.65781 86.0345 7.87563 86.0345C8.09344 86.0345 8.27965 86.0953 8.43426 86.2168C8.58985 86.3374 8.70848 86.5124 8.79016 86.7419C8.87281 86.9704 8.91414 87.2461 8.91414 87.5689C8.91414 87.8937 8.8733 88.1708 8.79162 88.4003C8.70994 88.6288 8.59179 88.8034 8.43718 88.9239C8.28257 89.0435 8.09539 89.1033 7.87563 89.1033ZM7.87563 88.7825C8.09344 88.7825 8.26264 88.6774 8.38321 88.4674C8.50379 88.2574 8.56408 87.9579 8.56408 87.5689C8.56408 87.3103 8.53637 87.09 8.48094 86.9082C8.42649 86.7263 8.34772 86.5878 8.24465 86.4925C8.14255 86.3972 8.01954 86.3495 7.87563 86.3495C7.65976 86.3495 7.49105 86.456 7.3695 86.669C7.24795 86.8809 7.18718 87.1809 7.18718 87.5689C7.18718 87.8276 7.2144 88.0473 7.26886 88.2282C7.32331 88.4091 7.40159 88.5466 7.50369 88.641C7.60676 88.7353 7.73074 88.7825 7.87563 88.7825Z" fill="#222C3A"/>
<path d="M0.691056 67.7969V67.5343L1.67706 66.455C1.79277 66.3286 1.88807 66.2187 1.96294 66.1253C2.03781 66.031 2.09324 65.9425 2.12922 65.8599C2.16617 65.7763 2.18464 65.6887 2.18464 65.5973C2.18464 65.4923 2.15936 65.4014 2.1088 65.3246C2.05921 65.2478 1.99114 65.1884 1.9046 65.1466C1.81805 65.1048 1.72082 65.0839 1.61288 65.0839C1.49814 65.0839 1.39798 65.1077 1.31241 65.1554C1.22781 65.2021 1.16218 65.2677 1.1155 65.3523C1.0698 65.4369 1.04695 65.5361 1.04695 65.6498H0.702725C0.702725 65.4748 0.743079 65.3212 0.823787 65.1889C0.904496 65.0567 1.01438 64.9536 1.15343 64.8797C1.29345 64.8058 1.45049 64.7689 1.62455 64.7689C1.79958 64.7689 1.95467 64.8058 2.08984 64.8797C2.225 64.9536 2.33099 65.0533 2.40781 65.1787C2.48463 65.3042 2.52304 65.4437 2.52304 65.5973C2.52304 65.7072 2.5031 65.8147 2.46323 65.9197C2.42434 66.0237 2.35627 66.1399 2.25903 66.2683C2.16277 66.3957 2.02906 66.5512 1.85792 66.735L1.18697 67.4526V67.476H2.57554V67.7969H0.691056ZM4.15227 67.8377C3.93251 67.8377 3.74533 67.7779 3.59072 67.6583C3.43611 67.5377 3.31796 67.3632 3.23628 67.1347C3.1546 66.9052 3.11376 66.6281 3.11376 66.3033C3.11376 65.9805 3.1546 65.7048 3.23628 65.4763C3.31894 65.2468 3.43757 65.0718 3.59218 64.9512C3.74776 64.8296 3.93446 64.7689 4.15227 64.7689C4.37009 64.7689 4.5563 64.8296 4.71091 64.9512C4.86649 65.0718 4.98512 65.2468 5.0668 65.4763C5.14946 65.7048 5.19078 65.9805 5.19078 66.3033C5.19078 66.6281 5.14994 66.9052 5.06826 67.1347C4.98658 67.3632 4.86844 67.5377 4.71383 67.6583C4.55922 67.7779 4.37203 67.8377 4.15227 67.8377ZM4.15227 67.5168C4.37009 67.5168 4.53928 67.4118 4.65986 67.2018C4.78044 66.9917 4.84072 66.6922 4.84072 66.3033C4.84072 66.0446 4.81301 65.8244 4.75758 65.6425C4.70313 65.4607 4.62437 65.3221 4.52129 65.2269C4.41919 65.1316 4.29619 65.0839 4.15227 65.0839C3.9364 65.0839 3.76769 65.1904 3.64614 65.4033C3.5246 65.6153 3.46382 65.9153 3.46382 66.3033C3.46382 66.5619 3.49105 66.7817 3.5455 66.9626C3.59996 67.1434 3.67823 67.281 3.78033 67.3753C3.88341 67.4697 4.00739 67.5168 4.15227 67.5168ZM6.71938 67.8377C6.49962 67.8377 6.31243 67.7779 6.15782 67.6583C6.00321 67.5377 5.88507 67.3632 5.80339 67.1347C5.72171 66.9052 5.68087 66.6281 5.68087 66.3033C5.68087 65.9805 5.72171 65.7048 5.80339 65.4763C5.88604 65.2468 6.00467 65.0718 6.15928 64.9512C6.31486 64.8296 6.50156 64.7689 6.71938 64.7689C6.93719 64.7689 7.1234 64.8296 7.27801 64.9512C7.4336 65.0718 7.55223 65.2468 7.63391 65.4763C7.71656 65.7048 7.75789 65.9805 7.75789 66.3033C7.75789 66.6281 7.71705 66.9052 7.63537 67.1347C7.55369 67.3632 7.43554 67.5377 7.28093 67.6583C7.12632 67.7779 6.93914 67.8377 6.71938 67.8377ZM6.71938 67.5168C6.93719 67.5168 7.10639 67.4118 7.22696 67.2018C7.34754 66.9917 7.40783 66.6922 7.40783 66.3033C7.40783 66.0446 7.38012 65.8244 7.32469 65.6425C7.27024 65.4607 7.19147 65.3221 7.0884 65.2269C6.9863 65.1316 6.86329 65.0839 6.71938 65.0839C6.50351 65.0839 6.3348 65.1904 6.21325 65.4033C6.0917 65.6153 6.03093 65.9153 6.03093 66.3033C6.03093 66.5619 6.05815 66.7817 6.11261 66.9626C6.16706 67.1434 6.24534 67.281 6.34744 67.3753C6.45051 67.4697 6.57449 67.5168 6.71938 67.5168Z" fill="#222C3A"/>
<path d="M0.472634 45.9185V45.621L1.78536 43.544H2.00123V44.0049H1.85537L0.863534 45.5743V45.5976H2.63134V45.9185H0.472634ZM1.87871 46.5311V45.8281V45.6895V43.544H2.22293V46.5311H1.87871ZM4.15227 46.572C3.93251 46.572 3.74533 46.5122 3.59072 46.3926C3.43611 46.272 3.31796 46.0974 3.23628 45.8689C3.1546 45.6394 3.11376 45.3623 3.11376 45.0375C3.11376 44.7147 3.1546 44.439 3.23628 44.2105C3.31894 43.981 3.43757 43.806 3.59218 43.6854C3.74776 43.5639 3.93446 43.5031 4.15227 43.5031C4.37009 43.5031 4.5563 43.5639 4.71091 43.6854C4.86649 43.806 4.98512 43.981 5.0668 44.2105C5.14946 44.439 5.19078 44.7147 5.19078 45.0375C5.19078 45.3623 5.14994 45.6394 5.06826 45.8689C4.98658 46.0974 4.86844 46.272 4.71383 46.3926C4.55922 46.5122 4.37203 46.572 4.15227 46.572ZM4.15227 46.2511C4.37009 46.2511 4.53928 46.1461 4.65986 45.936C4.78044 45.726 4.84072 45.4265 4.84072 45.0375C4.84072 44.7789 4.81301 44.5586 4.75758 44.3768C4.70313 44.195 4.62437 44.0564 4.52129 43.9611C4.41919 43.8658 4.29619 43.8182 4.15227 43.8182C3.9364 43.8182 3.76769 43.9246 3.64614 44.1376C3.5246 44.3496 3.46382 44.6496 3.46382 45.0375C3.46382 45.2962 3.49105 45.516 3.5455 45.6968C3.59996 45.8777 3.67823 46.0153 3.78033 46.1096C3.88341 46.2039 4.00739 46.2511 4.15227 46.2511ZM6.71938 46.572C6.49962 46.572 6.31243 46.5122 6.15782 46.3926C6.00321 46.272 5.88507 46.0974 5.80339 45.8689C5.72171 45.6394 5.68087 45.3623 5.68087 45.0375C5.68087 44.7147 5.72171 44.439 5.80339 44.2105C5.88604 43.981 6.00467 43.806 6.15928 43.6854C6.31486 43.5639 6.50156 43.5031 6.71938 43.5031C6.93719 43.5031 7.1234 43.5639 7.27801 43.6854C7.4336 43.806 7.55223 43.981 7.63391 44.2105C7.71656 44.439 7.75789 44.7147 7.75789 45.0375C7.75789 45.3623 7.71705 45.6394 7.63537 45.8689C7.55369 46.0974 7.43554 46.272 7.28093 46.3926C7.12632 46.5122 6.93914 46.572 6.71938 46.572ZM6.71938 46.2511C6.93719 46.2511 7.10639 46.1461 7.22696 45.936C7.34754 45.726 7.40783 45.4265 7.40783 45.0375C7.40783 44.7789 7.38012 44.5586 7.32469 44.3768C7.27024 44.195 7.19147 44.0564 7.0884 43.9611C6.9863 43.8658 6.86329 43.8182 6.71938 43.8182C6.50351 43.8182 6.3348 43.9246 6.21325 44.1376C6.0917 44.3496 6.03093 44.6496 6.03093 45.0375C6.03093 45.2962 6.05815 45.516 6.11261 45.6968C6.16706 45.8777 6.24534 46.0153 6.34744 46.1096C6.45051 46.2039 6.57449 46.2511 6.71938 46.2511Z" fill="#222C3A"/>
<path d="M1.60668 25.3062C1.48416 25.3043 1.36164 25.2809 1.23912 25.2362C1.1166 25.1915 1.00477 25.1161 0.903645 25.0101C0.802516 24.9032 0.721322 24.7588 0.660061 24.5769C0.598801 24.3941 0.568171 24.1646 0.568171 23.8885C0.568171 23.624 0.592967 23.3896 0.642558 23.1854C0.69215 22.9803 0.764107 22.8077 0.858429 22.6676C0.95275 22.5266 1.06652 22.4197 1.19974 22.3468C1.33393 22.2738 1.48513 22.2374 1.65336 22.2374C1.82061 22.2374 1.96938 22.2709 2.09968 22.338C2.23095 22.4041 2.33792 22.4965 2.42057 22.6151C2.50322 22.7338 2.5567 22.8704 2.58101 23.025H2.22512C2.19206 22.8908 2.12788 22.7795 2.03259 22.691C1.93729 22.6025 1.81088 22.5583 1.65336 22.5583C1.42193 22.5583 1.2396 22.6589 1.10639 22.8602C0.974143 23.0615 0.907534 23.3439 0.906562 23.7076H0.929899C0.984353 23.625 1.04902 23.5545 1.12389 23.4961C1.19974 23.4368 1.28336 23.3911 1.37477 23.359C1.46617 23.3269 1.56292 23.3109 1.66502 23.3109C1.83617 23.3109 1.99272 23.3537 2.13469 23.4392C2.27666 23.5238 2.39043 23.641 2.476 23.7908C2.56157 23.9395 2.60435 24.1102 2.60435 24.3027C2.60435 24.4875 2.56303 24.6567 2.48037 24.8103C2.39772 24.963 2.28152 25.0845 2.13177 25.1749C1.983 25.2644 1.80797 25.3082 1.60668 25.3062ZM1.60668 24.9853C1.7292 24.9853 1.83908 24.9547 1.93632 24.8934C2.03453 24.8322 2.11184 24.75 2.16824 24.6469C2.22561 24.5439 2.25429 24.4291 2.25429 24.3027C2.25429 24.1792 2.22658 24.0669 2.17115 23.9658C2.1167 23.8637 2.04134 23.7825 1.94507 23.7222C1.84978 23.6619 1.74087 23.6318 1.61835 23.6318C1.52597 23.6318 1.43992 23.6502 1.36018 23.6872C1.28045 23.7232 1.21043 23.7728 1.15015 23.836C1.09083 23.8992 1.04415 23.9716 1.01012 24.0533C0.976088 24.134 0.959071 24.2191 0.959071 24.3086C0.959071 24.4272 0.986784 24.538 1.04221 24.6411C1.09861 24.7442 1.17543 24.8273 1.27267 24.8905C1.37088 24.9537 1.48222 24.9853 1.60668 24.9853ZM4.15227 25.3062C3.93251 25.3062 3.74533 25.2464 3.59072 25.1268C3.43611 25.0062 3.31796 24.8317 3.23628 24.6032C3.1546 24.3737 3.11376 24.0966 3.11376 23.7718C3.11376 23.449 3.1546 23.1733 3.23628 22.9448C3.31894 22.7153 3.43757 22.5403 3.59218 22.4197C3.74776 22.2981 3.93446 22.2374 4.15227 22.2374C4.37009 22.2374 4.5563 22.2981 4.71091 22.4197C4.86649 22.5403 4.98512 22.7153 5.0668 22.9448C5.14946 23.1733 5.19078 23.449 5.19078 23.7718C5.19078 24.0966 5.14994 24.3737 5.06826 24.6032C4.98658 24.8317 4.86844 25.0062 4.71383 25.1268C4.55922 25.2464 4.37203 25.3062 4.15227 25.3062ZM4.15227 24.9853C4.37009 24.9853 4.53928 24.8803 4.65986 24.6703C4.78044 24.4602 4.84072 24.1607 4.84072 23.7718C4.84072 23.5131 4.81301 23.2929 4.75758 23.1111C4.70313 22.9292 4.62437 22.7907 4.52129 22.6954C4.41919 22.6001 4.29619 22.5524 4.15227 22.5524C3.9364 22.5524 3.76769 22.6589 3.64614 22.8718C3.5246 23.0838 3.46382 23.3838 3.46382 23.7718C3.46382 24.0304 3.49105 24.2502 3.5455 24.4311C3.59996 24.6119 3.67823 24.7495 3.78033 24.8439C3.88341 24.9382 4.00739 24.9853 4.15227 24.9853ZM6.71938 25.3062C6.49962 25.3062 6.31243 25.2464 6.15782 25.1268C6.00321 25.0062 5.88507 24.8317 5.80339 24.6032C5.72171 24.3737 5.68087 24.0966 5.68087 23.7718C5.68087 23.449 5.72171 23.1733 5.80339 22.9448C5.88604 22.7153 6.00467 22.5403 6.15928 22.4197C6.31486 22.2981 6.50156 22.2374 6.71938 22.2374C6.93719 22.2374 7.1234 22.2981 7.27801 22.4197C7.4336 22.5403 7.55223 22.7153 7.63391 22.9448C7.71656 23.1733 7.75789 23.449 7.75789 23.7718C7.75789 24.0966 7.71705 24.3737 7.63537 24.6032C7.55369 24.8317 7.43554 25.0062 7.28093 25.1268C7.12632 25.2464 6.93914 25.3062 6.71938 25.3062ZM6.71938 24.9853C6.93719 24.9853 7.10639 24.8803 7.22696 24.6703C7.34754 24.4602 7.40783 24.1607 7.40783 23.7718C7.40783 23.5131 7.38012 23.2929 7.32469 23.1111C7.27024 22.9292 7.19147 22.7907 7.0884 22.6954C6.9863 22.6001 6.86329 22.5524 6.71938 22.5524C6.50351 22.5524 6.3348 22.6589 6.21325 22.8718C6.0917 23.0838 6.03093 23.3838 6.03093 23.7718C6.03093 24.0304 6.05815 24.2502 6.11261 24.4311C6.16706 24.6119 6.24534 24.7495 6.34744 24.8439C6.45051 24.9382 6.57449 24.9853 6.71938 24.9853Z" fill="#222C3A"/>
<path d="M1.60376 4.0406C1.40345 4.0406 1.22648 4.0051 1.07284 3.93412C0.920175 3.86216 0.801057 3.76347 0.715487 3.63803C0.629917 3.51162 0.587618 3.3677 0.58859 3.20629C0.587618 3.07988 0.612414 2.96319 0.662978 2.85623C0.713542 2.74829 0.782582 2.65835 0.870097 2.58639C0.958584 2.51346 1.05728 2.46727 1.16619 2.44782V2.43032C1.02325 2.39337 0.909479 2.31315 0.824881 2.18966C0.740283 2.06519 0.69847 1.92371 0.699443 1.76521C0.69847 1.61352 0.73688 1.47787 0.814671 1.35826C0.892462 1.23866 0.999424 1.14434 1.13556 1.0753C1.27267 1.00626 1.42873 0.971739 1.60376 0.971739C1.77685 0.971739 1.93146 1.00626 2.06759 1.0753C2.20373 1.14434 2.31069 1.23866 2.38848 1.35826C2.46724 1.47787 2.50711 1.61352 2.50808 1.76521C2.50711 1.92371 2.46384 2.06519 2.37827 2.18966C2.29367 2.31315 2.18136 2.39337 2.04134 2.43032V2.44782C2.14927 2.46727 2.24651 2.51346 2.33305 2.58639C2.4196 2.65835 2.48864 2.74829 2.54017 2.85623C2.59171 2.96319 2.61796 3.07988 2.61894 3.20629C2.61796 3.3677 2.57421 3.51162 2.48766 3.63803C2.40209 3.76347 2.28298 3.86216 2.13031 3.93412C1.97862 4.0051 1.8031 4.0406 1.60376 4.0406ZM1.60376 3.71971C1.73893 3.71971 1.85561 3.69783 1.95382 3.65407C2.05203 3.61031 2.12788 3.54857 2.18136 3.46883C2.23484 3.3891 2.26207 3.29575 2.26304 3.18878C2.26207 3.07599 2.2329 2.97632 2.17553 2.88977C2.11816 2.80323 2.03988 2.73516 1.9407 2.68557C1.84249 2.63598 1.73017 2.61119 1.60376 2.61119C1.47638 2.61119 1.36261 2.63598 1.26246 2.68557C1.16327 2.73516 1.08499 2.80323 1.02762 2.88977C0.971225 2.97632 0.943512 3.07599 0.944485 3.18878C0.943512 3.29575 0.96928 3.3891 1.02179 3.46883C1.07527 3.54857 1.1516 3.61031 1.25079 3.65407C1.34997 3.69783 1.46763 3.71971 1.60376 3.71971ZM1.60376 2.30197C1.71073 2.30197 1.80553 2.28057 1.88819 2.23779C1.97181 2.195 2.03745 2.1352 2.0851 2.05838C2.13274 1.98156 2.15705 1.89162 2.15803 1.78854C2.15705 1.68742 2.13323 1.59942 2.08655 1.52454C2.03988 1.4487 1.97522 1.39035 1.89256 1.34951C1.80991 1.3077 1.71364 1.28679 1.60376 1.28679C1.49194 1.28679 1.39421 1.3077 1.31059 1.34951C1.22696 1.39035 1.1623 1.4487 1.1166 1.52454C1.07089 1.59942 1.04853 1.68742 1.0495 1.78854C1.04853 1.89162 1.07138 1.98156 1.11806 2.05838C1.1657 2.1352 1.23134 2.195 1.31496 2.23779C1.39859 2.28057 1.49486 2.30197 1.60376 2.30197ZM4.15227 4.0406C3.93251 4.0406 3.74533 3.98079 3.59072 3.86119C3.43611 3.74061 3.31796 3.56607 3.23628 3.33756C3.1546 3.10808 3.11376 2.83095 3.11376 2.50617C3.11376 2.18333 3.1546 1.90766 3.23628 1.67915C3.31894 1.44967 3.43757 1.27464 3.59218 1.15406C3.74776 1.03251 3.93446 0.971739 4.15227 0.971739C4.37009 0.971739 4.5563 1.03251 4.71091 1.15406C4.86649 1.27464 4.98512 1.44967 5.0668 1.67915C5.14946 1.90766 5.19078 2.18333 5.19078 2.50617C5.19078 2.83095 5.14994 3.10808 5.06826 3.33756C4.98658 3.56607 4.86844 3.74061 4.71383 3.86119C4.55922 3.98079 4.37203 4.0406 4.15227 4.0406ZM4.15227 3.71971C4.37009 3.71971 4.53928 3.61469 4.65986 3.40465C4.78043 3.19462 4.84072 2.89512 4.84072 2.50617C4.84072 2.24751 4.81301 2.02727 4.75758 1.84543C4.70313 1.66359 4.62437 1.52503 4.52129 1.42973C4.41919 1.33444 4.29619 1.28679 4.15227 1.28679C3.9364 1.28679 3.76769 1.39327 3.64614 1.60622C3.5246 1.8182 3.46382 2.11818 3.46382 2.50617C3.46382 2.76482 3.49105 2.98458 3.5455 3.16545C3.59996 3.34631 3.67823 3.4839 3.78033 3.57823C3.88341 3.67255 4.00739 3.71971 4.15227 3.71971ZM6.71938 4.0406C6.49962 4.0406 6.31243 3.98079 6.15782 3.86119C6.00321 3.74061 5.88507 3.56607 5.80339 3.33756C5.72171 3.10808 5.68087 2.83095 5.68087 2.50617C5.68087 2.18333 5.72171 1.90766 5.80339 1.67915C5.88604 1.44967 6.00467 1.27464 6.15928 1.15406C6.31486 1.03251 6.50156 0.971739 6.71938 0.971739C6.93719 0.971739 7.1234 1.03251 7.27801 1.15406C7.4336 1.27464 7.55223 1.44967 7.63391 1.67915C7.71656 1.90766 7.75789 2.18333 7.75789 2.50617C7.75789 2.83095 7.71705 3.10808 7.63537 3.33756C7.55369 3.56607 7.43554 3.74061 7.28093 3.86119C7.12632 3.98079 6.93914 4.0406 6.71938 4.0406ZM6.71938 3.71971C6.93719 3.71971 7.10639 3.61469 7.22696 3.40465C7.34754 3.19462 7.40783 2.89512 7.40783 2.50617C7.40783 2.24751 7.38011 2.02727 7.32469 1.84543C7.27023 1.66359 7.19147 1.52503 7.0884 1.42973C6.9863 1.33444 6.86329 1.28679 6.71938 1.28679C6.50351 1.28679 6.3348 1.39327 6.21325 1.60622C6.0917 1.8182 6.03093 2.11818 6.03093 2.50617C6.03093 2.76482 6.05815 2.98458 6.11261 3.16545C6.16706 3.34631 6.24534 3.4839 6.34744 3.57823C6.45051 3.67255 6.57449 3.71971 6.71938 3.71971Z" fill="#222C3A"/>
<path d="M25.5808 93.3773H25.2016L26.2984 90.3901H26.6718L27.7687 93.3773H27.3894L26.4968 90.8627H26.4734L25.5808 93.3773ZM25.7208 92.2105H27.2494V92.5313H25.7208V92.2105Z" fill="#222C3A"/>
<path d="M53.2731 93.3773V90.3901H54.3174C54.5255 90.3901 54.6972 90.4261 54.8323 90.4981C54.9675 90.5691 55.0681 90.6648 55.1343 90.7854C55.2004 90.905 55.2334 91.0378 55.2334 91.1836C55.2334 91.312 55.2106 91.418 55.1649 91.5016C55.1202 91.5852 55.0608 91.6513 54.9869 91.6999C54.914 91.7486 54.8348 91.7845 54.7492 91.8079V91.8371C54.8406 91.8429 54.9325 91.875 55.0249 91.9333C55.1172 91.9917 55.1945 92.0753 55.2568 92.1842C55.319 92.2931 55.3501 92.4263 55.3501 92.5839C55.3501 92.7336 55.3161 92.8683 55.248 92.9879C55.18 93.1075 55.0725 93.2023 54.9257 93.2723C54.7788 93.3423 54.5878 93.3773 54.3525 93.3773H53.2731ZM53.6348 93.0564H54.3525C54.5887 93.0564 54.7565 93.0107 54.8557 92.9193C54.9558 92.8269 55.0059 92.7151 55.0059 92.5839C55.0059 92.4827 54.9801 92.3894 54.9286 92.3038C54.8771 92.2173 54.8036 92.1482 54.7083 92.0967C54.6131 92.0442 54.5003 92.0179 54.37 92.0179H53.6348V93.0564ZM53.6348 91.7029H54.3058C54.4147 91.7029 54.5129 91.6815 54.6004 91.6387C54.6889 91.5959 54.7589 91.5356 54.8104 91.4578C54.863 91.38 54.8892 91.2886 54.8892 91.1836C54.8892 91.0523 54.8435 90.941 54.7521 90.8496C54.6607 90.7572 54.5158 90.711 54.3174 90.711H53.6348V91.7029Z" fill="#222C3A"/>
<path d="M84.3104 91.3236H83.9487C83.9273 91.2196 83.8898 91.1282 83.8364 91.0494C83.7839 90.9707 83.7197 90.9045 83.6438 90.8511C83.569 90.7966 83.4858 90.7558 83.3944 90.7285C83.303 90.7013 83.2077 90.6877 83.1085 90.6877C82.9277 90.6877 82.7638 90.7334 82.617 90.8248C82.4711 90.9162 82.3549 91.0509 82.2684 91.2288C82.1828 91.4068 82.14 91.6251 82.14 91.8837C82.14 92.1424 82.1828 92.3607 82.2684 92.5386C82.3549 92.7166 82.4711 92.8513 82.617 92.9427C82.7638 93.0341 82.9277 93.0798 83.1085 93.0798C83.2077 93.0798 83.303 93.0662 83.3944 93.0389C83.4858 93.0117 83.569 92.9713 83.6438 92.9179C83.7197 92.8634 83.7839 92.7968 83.8364 92.718C83.8898 92.6383 83.9273 92.5469 83.9487 92.4438H84.3104C84.2832 92.5965 84.2336 92.7331 84.1616 92.8537C84.0897 92.9743 84.0002 93.0769 83.8932 93.1614C83.7863 93.2451 83.6662 93.3088 83.533 93.3525C83.4007 93.3963 83.2592 93.4182 83.1085 93.4182C82.8538 93.4182 82.6272 93.3559 82.4288 93.2315C82.2305 93.107 82.0744 92.93 81.9606 92.7005C81.8469 92.4711 81.79 92.1988 81.79 91.8837C81.79 91.5687 81.8469 91.2964 81.9606 91.0669C82.0744 90.8374 82.2305 90.6605 82.4288 90.536C82.6272 90.4115 82.8538 90.3493 83.1085 90.3493C83.2592 90.3493 83.4007 90.3712 83.533 90.4149C83.6662 90.4587 83.7863 90.5229 83.8932 90.6075C84.0002 90.6911 84.0897 90.7932 84.1616 90.9138C84.2336 91.0334 84.2832 91.17 84.3104 91.3236Z" fill="#222C3A"/>
<path d="M111.123 93.3773H110.201V90.3901H111.164C111.454 90.3901 111.701 90.4499 111.908 90.5695C112.114 90.6882 112.272 90.8588 112.382 91.0815C112.492 91.3032 112.546 91.5687 112.546 91.8779C112.546 92.1891 112.491 92.457 112.38 92.6816C112.269 92.9052 112.108 93.0773 111.896 93.1979C111.684 93.3175 111.426 93.3773 111.123 93.3773ZM110.563 93.0564H111.1C111.347 93.0564 111.551 93.0088 111.714 92.9135C111.876 92.8182 111.997 92.6825 112.077 92.5065C112.157 92.3305 112.196 92.121 112.196 91.8779C112.196 91.6367 112.157 91.4291 112.078 91.2551C112 91.0801 111.882 90.9459 111.725 90.8525C111.569 90.7582 111.374 90.711 111.14 90.711H110.563V93.0564Z" fill="#222C3A"/>
<path d="M138.241 93.3773V90.3901H140.044V90.711H138.603V91.7204H139.95V92.0413H138.603V93.0564H140.067V93.3773H138.241Z" fill="#222C3A"/>
<path d="M15.4756 87.5281H25.7452V52.4397H15.4756V87.5281Z" fill="#1F2937"/>
<path d="M43.752 87.528H54.0216V36.8093H43.752V87.528Z" fill="#1F2937"/>
<path d="M72.0312 87.528H82.3009V10.5463H72.0312V87.528Z" fill="#1F2937"/>
<path d="M100.307 87.5281H110.576V19.6906H100.307V87.5281Z" fill="#1F2937"/>
<path d="M128.582 87.528H138.852V46.3789H128.582V87.528Z" fill="#1F2937"/>
<path d="M25.8477 87.528H36.1173V36.4904H25.8477V87.528Z" fill="#D0D4DA"/>
<path d="M54.126 87.5281H64.3956V72.5358H54.126V87.5281Z" fill="#D0D4DA"/>
<path d="M82.4014 87.528H92.671V25.2196H82.4014V87.528Z" fill="#D0D4DA"/>
<path d="M110.679 87.528H120.948V84.7634H110.679V87.528Z" fill="#D0D4DA"/>
<path d="M138.954 87.528H149.224V76.1509H138.954V87.528Z" fill="#D0D4DA"/>
<mask id="mask0_994_10686" style="mask-type:luminance" maskUnits="userSpaceOnUse" x="11" y="2" width="143" height="86">
<path d="M11.4778 2.32861H153.104V87.6654H11.4778V2.32861Z" fill="white" stroke="white" stroke-width="0.342281"/>
</mask>
<g mask="url(#mask0_994_10686)">
<path d="M25.793 13.0987L54.0696 44.9972L82.3463 55.63L110.623 87.5285L138.9 2.46582" stroke="#717171" stroke-linejoin="bevel"/>
</g>
<path d="M12.0029 -0.000244141L12.0029 87.2199" stroke="#1F2937" stroke-width="0.222118"/>
<path d="M12.0029 87.5281H155.003" stroke="#1F2937" stroke-width="0.222118" stroke-linecap="round"/>
</svg>
