<svg width="94" height="94" viewBox="0 0 94 94" fill="none" xmlns="http://www.w3.org/2000/svg">
<g clip-path="url(#clip0_994_10710)">
<path d="M93.4236 47.0002C93.4236 44.5755 93.2337 42.1546 92.8555 39.7596L69.9297 43.3799C70.1188 44.5774 70.2138 45.7878 70.2138 47.0002H93.4236Z" fill="#D0D4DA" stroke="white" stroke-width="0.580247"/>
<path d="M92.8565 39.7595C91.086 28.5477 85.2688 18.373 76.5049 11.1595L61.7549 29.0798C66.1368 32.6866 69.0454 37.7739 69.9307 43.3798L92.8565 39.7595Z" fill="#E4E5E8" stroke="white" stroke-width="0.580247"/>
<path d="M76.5013 11.1594C68.6446 4.69259 58.8805 0.986606 48.7116 0.611694L47.8564 23.8058C52.9409 23.9933 57.823 25.8463 61.7513 29.0797L76.5013 11.1594Z" fill="#D0D4DA" stroke="white" stroke-width="0.580247"/>
<path d="M48.7122 0.612096C38.8904 0.249984 29.2071 3.01468 21.0571 8.50798C12.9071 14.0013 6.71104 21.9396 3.36133 31.1797L25.1816 39.09C26.8565 34.47 29.9545 30.5008 34.0295 27.7542C38.1045 25.0075 42.9461 23.6252 47.857 23.8062L48.7122 0.612096Z" fill="#757980" stroke="white" stroke-width="0.580247"/>
<path d="M3.36414 31.1794C1.0502 37.5624 0.164574 44.3752 0.769723 51.1376C1.37487 57.8999 3.45607 64.4473 6.86656 70.3179C10.277 76.1886 14.9338 81.2396 20.5085 85.115C26.0833 88.9904 32.4402 91.5957 39.1313 92.7473L43.068 69.8737C39.7225 69.2979 36.544 67.9952 33.7566 66.0576C30.9693 64.1199 28.6409 61.5943 26.9356 58.659C25.2304 55.7237 24.1898 52.45 23.8872 49.0688C23.5847 45.6876 24.0275 42.2812 25.1844 39.0898L3.36414 31.1794Z" fill="#1F2937" stroke="white" stroke-width="0.580247"/>
<path d="M39.1289 92.7473C45.7933 93.8943 52.6278 93.5713 59.1543 91.8011C65.6808 90.0308 71.7418 86.8559 76.9131 82.4986C82.0845 78.1412 86.2414 72.7066 89.093 66.5749C91.9446 60.4432 93.4221 53.7625 93.4221 47.0001H70.2122C70.2122 50.3813 69.4735 53.7217 68.0477 56.7875C66.6219 59.8534 64.5434 62.5707 61.9577 64.7493C59.3721 66.928 56.3416 68.5154 53.0783 69.4006C49.8151 70.2857 46.3978 70.4472 43.0656 69.8737L39.1289 92.7473Z" fill="#D0D4DA" stroke="white" stroke-width="0.580247"/>
</g>
<defs>
<clipPath id="clip0_994_10710">
<rect width="94" height="94" fill="white"/>
</clipPath>
</defs>
</svg>
