<?xml version="1.0" encoding="UTF-8"?><svg id="Layer_1" xmlns="http://www.w3.org/2000/svg" viewBox="0 0 500 500"><defs><style>.cls-1{stroke:#fff;}.cls-1,.cls-2,.cls-3,.cls-4{fill:none;stroke-linecap:round;stroke-linejoin:round;}.cls-2,.cls-4{stroke:#182c60;}.cls-5{opacity:.1;}.cls-5,.cls-6{fill:#5865f6;}.cls-7{fill:#f2f3f4;}.cls-8{fill:#c1c7c9;}.cls-9{fill:#dadedf;}.cls-10{fill:#182c60;}.cls-3{stroke:#5865f6;stroke-width:4px;}.cls-4{stroke-dasharray:0 0 2.51 2.51;}</style></defs><line class="cls-2" x1="161.65" y1="217.77" x2="185.68" y2="217.77"/><line class="cls-2" x1="161.65" y1="226.89" x2="185.68" y2="226.89"/><line class="cls-2" x1="161.65" y1="236" x2="185.68" y2="236"/><circle class="cls-2" cx="157.81" cy="188.14" r="2.02"/><circle class="cls-2" cx="166.26" cy="188.14" r="2.02"/><circle class="cls-2" cx="174.7" cy="188.14" r="2.02"/><g><path class="cls-5" d="m149.52,196.19v-9.9c0-3.4,2.86-6.15,6.39-6.15h182.99c3.53,0,6.39,2.75,6.39,6.15v10.04s-195.77,0-195.77-.14Z"/><path class="cls-2" d="m345.73,184.58c2.93.6,5.13,3.19,5.13,6.3v123.07c0,3.55-2.88,6.43-6.43,6.43h-184.04c-3.19,0-5.83-2.32-6.34-5.36"/><line class="cls-2" x1="149.6" y1="196.33" x2="345.15" y2="196.33"/><line class="cls-2" x1="197.4" y1="196.43" x2="197.4" y2="314.82"/><path class="cls-10" d="m153.99,315.01s.38,1.84,1.22,2.82,2.49,2.26,3.2,2.45,4.38.05,4.38.05l38.21.05,34.31.09,35.15-.09h37.27l27.44.05s8.71.28,10.07,0,3.29-1.18,3.95-1.93,1.98-3.06,1.84-3.76-.24-7.91-.24-7.91l-.05-15.72.09-27.62.09-22.54-.09-32.56.05-18.12s-.14-2.21-.85-2.87-1.46-1.79-2.49-2.12-2.31-.66-2.31-.66l.14,14.07-.05,12.94.09,19.95-.09,21.36.05,19.67v36.75s-.38,2.07-.75,2.64-1.22,1.55-1.6,1.74-.56.94-2.96.99-7.91.19-7.91.19h-24.28l-56.8-.14-43.58.14-53.51.09Z"/><line class="cls-3" x1="157.43" y1="208.61" x2="189.9" y2="208.61"/><rect class="cls-2" x="276.07" y="220.34" width="56.09" height="36.2" rx="3.21" ry="3.21"/><rect class="cls-4" x="210.18" y="266.27" width="121.97" height="36.2" rx="3.21" ry="3.21"/><circle class="cls-6" cx="326.13" cy="208.37" r="6.02"/><g><line class="cls-1" x1="326.13" y1="205.69" x2="326.13" y2="211.06"/><line class="cls-1" x1="323.45" y1="208.37" x2="328.82" y2="208.37"/></g><path class="cls-10" d="m339.43,180.45c2.99,0,5.43,2.44,5.43,5.43v123.07c0,2.99-2.44,5.43-5.43,5.43h-184.04c-2.99,0-5.43-2.44-5.43-5.43v-123.07c0-2.99,2.44-5.43,5.43-5.43h184.04m0-1h-184.04c-3.55,0-6.43,2.88-6.43,6.43v123.07c0,3.55,2.88,6.43,6.43,6.43h184.04c3.55,0,6.43-2.88,6.43-6.43v-123.07c0-3.55-2.88-6.43-6.43-6.43h0Z"/><rect class="cls-2" x="210.18" y="220.34" width="56.09" height="36.2" rx="3.21" ry="3.21"/><path class="cls-8" d="m238.23,251.33c-7.11,0-12.89-5.78-12.89-12.89s5.78-12.89,12.89-12.89,12.89,5.78,12.89,12.89-5.78,12.89-12.89,12.89Zm0-21.77c-4.9,0-8.89,3.99-8.89,8.89s3.99,8.89,8.89,8.89,8.89-3.99,8.89-8.89-3.99-8.89-8.89-8.89Z"/><path class="cls-9" d="m238.23,251.33c-.27,0-.54,0-.81-.02l.25-3.99c.18.01.37.02.56.02,4.9,0,8.89-3.99,8.89-8.89,0-4.43-3.3-8.21-7.68-8.81l.54-3.96c6.35.86,11.14,6.35,11.14,12.77,0,7.11-5.78,12.89-12.89,12.89Z"/><path class="cls-7" d="m248.2,246.6l-3.09-2.53c1.29-1.58,2.01-3.58,2.01-5.62,0-4.82-3.77-8.72-8.59-8.88l.13-4c6.98.23,12.45,5.89,12.45,12.88,0,2.97-1.03,5.87-2.91,8.16Z"/><rect class="cls-9" x="221.38" y="279.84" width="7.34" height="16.06"/><rect class="cls-9" x="233.52" y="285.74" width="7.34" height="10.16"/><rect class="cls-9" x="245.66" y="274.41" width="7.34" height="21.5"/><rect class="cls-9" x="257.81" y="279.76" width="7.34" height="16.14"/><rect class="cls-9" x="269.95" y="277.08" width="7.34" height="18.82"/><rect class="cls-9" x="282.09" y="285.74" width="7.34" height="10.16"/><rect class="cls-9" x="294.23" y="290.64" width="7.34" height="5.26"/><rect class="cls-9" x="306.37" y="281.54" width="7.34" height="14.36"/><rect class="cls-9" x="318.51" y="285.74" width="7.34" height="10.16"/><rect class="cls-7" x="221.38" y="291.39" width="7.34" height="4.52"/><rect class="cls-7" x="233.52" y="288.6" width="7.34" height="7.31"/><rect class="cls-7" x="245.66" y="285.91" width="7.34" height="10"/><rect class="cls-7" x="257.81" y="293.41" width="7.34" height="2.49"/><rect class="cls-7" x="269.95" y="280.56" width="7.34" height="15.34"/><rect class="cls-7" x="282.09" y="291.39" width="7.34" height="4.52"/><rect class="cls-7" x="294.23" y="294.4" width="7.34" height="1.5"/><rect class="cls-7" x="306.37" y="291.07" width="7.34" height="4.83"/><rect class="cls-7" x="318.51" y="287.98" width="7.34" height="7.92"/><g><path class="cls-7" d="m281.74,252.39h45.04v-28.66l-7.2,7.2h-15.11v4.09h-10.02l-12.71,17.36Z"/><path class="cls-9" d="m281.46,252.39h45.32v-26.26l-12.42,12.42h-3.81l-1.76,1.76h-13.48l-4.41,4.41s-9.78,8.01-9.42,7.66Z"/><path class="cls-8" d="m281.46,252.39h45.32v-21.88l-6.07,7.2h-3.39l-4.66,4.66h-13.41l-7.2,7.2s-10.59,2.54-10.59,2.82Z"/></g></g></svg>