<svg width="114" height="82" viewBox="0 0 114 82" fill="none" xmlns="http://www.w3.org/2000/svg">
<path d="M2.05762 17H111.942L87.1465 33H26.8532L2.05762 17Z" fill="#717171" stroke="white" stroke-width="0.3125" stroke-linejoin="round"/>
<path d="M1 1H113L111.942 17H2.05778L1 1Z" fill="#1F2937" stroke="white" stroke-width="0.3125" stroke-linejoin="round"/>
<path d="M43.5908 65.0001H70.4086L56.9997 81.0001L43.5908 65.0001Z" fill="#D0D4DA" stroke="white" stroke-width="0.3125" stroke-linejoin="round"/>
<path d="M26.8613 33H87.1547L73.0613 49H40.9547L26.8613 33Z" fill="#D0D4DA" stroke="white" stroke-width="0.3125" stroke-linejoin="round"/>
<path d="M40.9463 49H73.053L70.4085 65H43.5907L40.9463 49Z" fill="#F4F4F4" stroke="white" stroke-width="0.3125" stroke-linejoin="round"/>
<path d="M53.4051 26.4995V26.2598L54.3053 25.2744C54.4109 25.159 54.4979 25.0586 54.5663 24.9734C54.6346 24.8873 54.6852 24.8065 54.7181 24.731C54.7518 24.6547 54.7687 24.5748 54.7687 24.4913C54.7687 24.3955 54.7456 24.3125 54.6994 24.2423C54.6542 24.1722 54.592 24.118 54.513 24.0799C54.434 24.0417 54.3452 24.0226 54.2467 24.0226C54.1419 24.0226 54.0505 24.0443 53.9724 24.0878C53.8951 24.1305 53.8352 24.1904 53.7926 24.2676C53.7509 24.3449 53.73 24.4354 53.73 24.5393H53.4157C53.4157 24.3795 53.4526 24.2392 53.5262 24.1185C53.5999 23.9977 53.7002 23.9036 53.8272 23.8362C53.955 23.7687 54.0984 23.7349 54.2573 23.7349C54.4171 23.7349 54.5587 23.7687 54.6821 23.8362C54.8055 23.9036 54.9023 23.9946 54.9724 24.1092C55.0426 24.2237 55.0776 24.3511 55.0776 24.4913C55.0776 24.5917 55.0594 24.6898 55.023 24.7856C54.9875 24.8806 54.9254 24.9867 54.8366 25.1039C54.7487 25.2202 54.6267 25.3623 54.4704 25.5301L53.8578 26.1852V26.2065H55.1256V26.4995H53.4051ZM55.5531 25.9402V25.6685L56.7516 23.7722H56.9487V24.193H56.8155L55.9099 25.6259V25.6472H57.5239V25.9402H55.5531ZM56.8368 26.4995V25.8576V25.7311V23.7722H57.1511V26.4995H56.8368ZM58.9125 26.5368C58.7119 26.5368 58.541 26.4822 58.3998 26.373C58.2587 26.2629 58.1508 26.1036 58.0763 25.8949C58.0017 25.6854 57.9644 25.4324 57.9644 25.1359C57.9644 24.8411 58.0017 24.5894 58.0763 24.3808C58.1517 24.1713 58.26 24.0115 58.4012 23.9014C58.5432 23.7904 58.7137 23.7349 58.9125 23.7349C59.1114 23.7349 59.2814 23.7904 59.4226 23.9014C59.5646 24.0115 59.6729 24.1713 59.7475 24.3808C59.823 24.5894 59.8607 24.8411 59.8607 25.1359C59.8607 25.4324 59.8234 25.6854 59.7488 25.8949C59.6743 26.1036 59.5664 26.2629 59.4252 26.373C59.2841 26.4822 59.1132 26.5368 58.9125 26.5368ZM58.9125 26.2438C59.1114 26.2438 59.2659 26.1479 59.376 25.9562C59.4861 25.7644 59.5411 25.491 59.5411 25.1359C59.5411 24.8997 59.5158 24.6986 59.4652 24.5326C59.4155 24.3666 59.3436 24.2401 59.2495 24.1531C59.1562 24.0661 59.0439 24.0226 58.9125 24.0226C58.7155 24.0226 58.5614 24.1198 58.4505 24.3142C58.3395 24.5078 58.284 24.7816 58.284 25.1359C58.284 25.372 58.3088 25.5727 58.3586 25.7378C58.4083 25.9029 58.4797 26.0285 58.573 26.1147C58.6671 26.2008 58.7803 26.2438 58.9125 26.2438Z" fill="#EEEEEE"/>
<path d="M55.3169 10.5373C55.1411 10.5373 54.9844 10.5071 54.8468 10.4467C54.7101 10.3864 54.6014 10.3025 54.5206 10.195C54.4407 10.0867 54.3972 9.96111 54.3901 9.81818H54.7256C54.7327 9.90607 54.7629 9.98198 54.8162 10.0459C54.8695 10.1089 54.9392 10.1578 55.0253 10.1924C55.1114 10.227 55.2068 10.2443 55.3116 10.2443C55.4288 10.2443 55.5326 10.2239 55.6232 10.1831C55.7138 10.1422 55.7848 10.0854 55.8363 10.0126C55.8878 9.93981 55.9135 9.85547 55.9135 9.75959C55.9135 9.65927 55.8886 9.57093 55.8389 9.49458C55.7892 9.41735 55.7164 9.35698 55.6205 9.31348C55.5247 9.26997 55.4075 9.24822 55.269 9.24822H55.0506V8.95525H55.269C55.3773 8.95525 55.4723 8.93572 55.5539 8.89666C55.6365 8.8576 55.7009 8.80256 55.747 8.73153C55.7941 8.66051 55.8176 8.57706 55.8176 8.48118C55.8176 8.38885 55.7972 8.3085 55.7564 8.24014C55.7155 8.17178 55.6578 8.11852 55.5832 8.08034C55.5096 8.04217 55.4226 8.02308 55.3222 8.02308C55.2281 8.02308 55.1394 8.04039 55.0559 8.07502C54.9733 8.10875 54.9059 8.15802 54.8535 8.22283C54.8011 8.28675 54.7727 8.36399 54.7683 8.45454H54.4487C54.454 8.31161 54.497 8.18643 54.5778 8.07901C54.6586 7.9707 54.7643 7.88636 54.8948 7.82599C55.0262 7.76562 55.1704 7.73544 55.3276 7.73544C55.4962 7.73544 55.641 7.76962 55.7617 7.83798C55.8824 7.90545 55.9752 7.99467 56.04 8.10564C56.1048 8.21662 56.1372 8.33647 56.1372 8.4652C56.1372 8.61878 56.0968 8.74973 56.016 8.85804C55.9361 8.96635 55.8274 9.04137 55.6898 9.0831V9.1044C55.862 9.13281 55.9965 9.20605 56.0933 9.32413C56.19 9.44132 56.2384 9.58647 56.2384 9.75959C56.2384 9.90785 56.198 10.041 56.1172 10.1591C56.0373 10.2763 55.9282 10.3686 55.7897 10.4361C55.6512 10.5036 55.4936 10.5373 55.3169 10.5373ZM56.7831 10.5V10.2603L57.6833 9.27486C57.7889 9.15944 57.876 9.05913 57.9443 8.9739C58.0127 8.88778 58.0633 8.80699 58.0961 8.73153C58.1299 8.65518 58.1467 8.57528 58.1467 8.49183C58.1467 8.39595 58.1236 8.31294 58.0775 8.24281C58.0322 8.17267 57.9701 8.11852 57.891 8.08034C57.812 8.04217 57.7233 8.02308 57.6247 8.02308C57.5199 8.02308 57.4285 8.04483 57.3504 8.08833C57.2731 8.13095 57.2132 8.19087 57.1706 8.26811C57.1289 8.34535 57.108 8.4359 57.108 8.53977H56.7937C56.7937 8.37997 56.8306 8.2397 56.9043 8.11896C56.978 7.99822 57.0783 7.90412 57.2052 7.83665C57.3331 7.76917 57.4764 7.73544 57.6354 7.73544C57.7952 7.73544 57.9368 7.76917 58.0602 7.83665C58.1836 7.90412 58.2803 7.99511 58.3505 8.10964C58.4206 8.22416 58.4557 8.35156 58.4557 8.49183C58.4557 8.59215 58.4375 8.69025 58.4011 8.78613C58.3656 8.88112 58.3034 8.98721 58.2146 9.1044C58.1268 9.2207 58.0047 9.36275 57.8484 9.53054L57.2359 10.1857V10.207H58.5036V10.5H56.7831ZM59.9432 10.5373C59.7425 10.5373 59.5716 10.4827 59.4305 10.3735C59.2893 10.2634 59.1814 10.104 59.1069 9.89542C59.0323 9.6859 58.995 9.43288 58.995 9.13636C58.995 8.84162 59.0323 8.58993 59.1069 8.3813C59.1823 8.17178 59.2906 8.01198 59.4318 7.9019C59.5738 7.79092 59.7443 7.73544 59.9432 7.73544C60.142 7.73544 60.312 7.79092 60.4532 7.9019C60.5952 8.01198 60.7035 8.17178 60.7781 8.3813C60.8536 8.58993 60.8913 8.84162 60.8913 9.13636C60.8913 9.43288 60.854 9.6859 60.7795 9.89542C60.7049 10.104 60.597 10.2634 60.4559 10.3735C60.3147 10.4827 60.1438 10.5373 59.9432 10.5373ZM59.9432 10.2443C60.142 10.2443 60.2965 10.1484 60.4066 9.95668C60.5167 9.76491 60.5717 9.49148 60.5717 9.13636C60.5717 8.90021 60.5464 8.69913 60.4958 8.53311C60.4461 8.3671 60.3742 8.24059 60.2801 8.15358C60.1869 8.06658 60.0745 8.02308 59.9432 8.02308C59.7461 8.02308 59.592 8.12029 59.4811 8.31472C59.3701 8.50825 59.3146 8.78214 59.3146 9.13636C59.3146 9.37251 59.3395 9.57315 59.3892 9.73828C59.4389 9.90341 59.5104 10.029 59.6036 10.1151C59.6977 10.2013 59.8109 10.2443 59.9432 10.2443Z" fill="white"/>
<path d="M55.7372 74.5373C55.5614 74.5373 55.4047 74.5071 55.2671 74.4467C55.1304 74.3864 55.0216 74.3025 54.9408 74.195C54.8609 74.0867 54.8174 73.9611 54.8103 73.8182H55.1459C55.153 73.9061 55.1832 73.982 55.2364 74.0459C55.2897 74.1089 55.3594 74.1578 55.4455 74.1924C55.5316 74.227 55.6271 74.2443 55.7318 74.2443C55.849 74.2443 55.9529 74.2239 56.0434 74.1831C56.134 74.1422 56.205 74.0854 56.2565 74.0126C56.308 73.9398 56.3337 73.8555 56.3337 73.7596C56.3337 73.6593 56.3089 73.5709 56.2592 73.4946C56.2095 73.4173 56.1367 73.357 56.0408 73.3135C55.9449 73.27 55.8277 73.2482 55.6892 73.2482H55.4708V72.9553H55.6892C55.7975 72.9553 55.8925 72.9357 55.9742 72.8967C56.0568 72.8576 56.1211 72.8026 56.1673 72.7315C56.2143 72.6605 56.2379 72.5771 56.2379 72.4812C56.2379 72.3888 56.2174 72.3085 56.1766 72.2401C56.1358 72.1718 56.0781 72.1185 56.0035 72.0803C55.9298 72.0422 55.8428 72.0231 55.7425 72.0231C55.6484 72.0231 55.5596 72.0404 55.4761 72.075C55.3936 72.1088 55.3261 72.158 55.2737 72.2228C55.2214 72.2868 55.1929 72.364 55.1885 72.4545H54.8689C54.8742 72.3116 54.9173 72.1864 54.9981 72.079C55.0789 71.9707 55.1845 71.8864 55.315 71.826C55.4464 71.7656 55.5907 71.7354 55.7478 71.7354C55.9165 71.7354 56.0612 71.7696 56.1819 71.838C56.3027 71.9054 56.3954 71.9947 56.4603 72.1056C56.5251 72.2166 56.5575 72.3365 56.5575 72.4652C56.5575 72.6188 56.5171 72.7497 56.4363 72.858C56.3564 72.9664 56.2476 73.0414 56.11 73.0831V73.1044C56.2823 73.1328 56.4168 73.2061 56.5135 73.3241C56.6103 73.4413 56.6587 73.5865 56.6587 73.7596C56.6587 73.9078 56.6183 74.041 56.5375 74.1591C56.4576 74.2763 56.3484 74.3686 56.2099 74.4361C56.0714 74.5036 55.9138 74.5373 55.7372 74.5373ZM58.0929 74.5373C57.8923 74.5373 57.7214 74.4827 57.5802 74.3735C57.439 74.2634 57.3312 74.104 57.2566 73.8954C57.182 73.6859 57.1447 73.4329 57.1447 73.1364C57.1447 72.8416 57.182 72.5899 57.2566 72.3813C57.3321 72.1718 57.4404 72.012 57.5815 71.9019C57.7236 71.7909 57.894 71.7354 58.0929 71.7354C58.2918 71.7354 58.4618 71.7909 58.6029 71.9019C58.745 72.012 58.8533 72.1718 58.9279 72.3813C59.0033 72.5899 59.041 72.8416 59.041 73.1364C59.041 73.4329 59.0038 73.6859 58.9292 73.8954C58.8546 74.104 58.7467 74.2634 58.6056 74.3735C58.4644 74.4827 58.2935 74.5373 58.0929 74.5373ZM58.0929 74.2443C58.2918 74.2443 58.4462 74.1484 58.5563 73.9567C58.6664 73.7649 58.7214 73.4915 58.7214 73.1364C58.7214 72.9002 58.6961 72.6991 58.6455 72.5331C58.5958 72.3671 58.5239 72.2406 58.4298 72.1536C58.3366 72.0666 58.2243 72.0231 58.0929 72.0231C57.8958 72.0231 57.7418 72.1203 57.6308 72.3147C57.5198 72.5083 57.4643 72.7821 57.4643 73.1364C57.4643 73.3725 57.4892 73.5732 57.5389 73.7383C57.5886 73.9034 57.6601 74.029 57.7533 74.1151C57.8474 74.2013 57.9606 74.2443 58.0929 74.2443Z" fill="#222C3A"/>
<path d="M54.8714 39.7727V42.5H54.5412V40.119H54.5252L53.8594 40.5611V40.2255L54.5412 39.7727H54.8714ZM56.5294 42.5373C56.3465 42.5373 56.1849 42.5049 56.0446 42.4401C55.9053 42.3744 55.7965 42.2843 55.7184 42.1697C55.6403 42.0543 55.6016 41.9229 55.6025 41.7756C55.6016 41.6602 55.6243 41.5536 55.6704 41.456C55.7166 41.3574 55.7796 41.2753 55.8595 41.2096C55.9403 41.143 56.0304 41.1009 56.1299 41.0831V41.0671C55.9994 41.0334 55.8955 40.9601 55.8183 40.8474C55.741 40.7338 55.7028 40.6046 55.7037 40.4599C55.7028 40.3214 55.7379 40.1975 55.8089 40.0883C55.88 39.9791 55.9776 39.893 56.1019 39.83C56.2271 39.767 56.3696 39.7354 56.5294 39.7354C56.6874 39.7354 56.8286 39.767 56.9528 39.83C57.0771 39.893 57.1748 39.9791 57.2458 40.0883C57.3177 40.1975 57.3541 40.3214 57.355 40.4599C57.3541 40.6046 57.3146 40.7338 57.2365 40.8474C57.1593 40.9601 57.0567 41.0334 56.9289 41.0671V41.0831C57.0274 41.1009 57.1162 41.143 57.1952 41.2096C57.2742 41.2753 57.3373 41.3574 57.3843 41.456C57.4314 41.5536 57.4553 41.6602 57.4562 41.7756C57.4553 41.9229 57.4154 42.0543 57.3364 42.1697C57.2582 42.2843 57.1495 42.3744 57.0101 42.4401C56.8716 42.5049 56.7114 42.5373 56.5294 42.5373ZM56.5294 42.2443C56.6528 42.2443 56.7593 42.2243 56.849 42.1844C56.9386 42.1444 57.0079 42.0881 57.0567 42.0153C57.1055 41.9425 57.1304 41.8572 57.1313 41.7596C57.1304 41.6566 57.1038 41.5656 57.0514 41.4866C56.999 41.4076 56.9275 41.3454 56.837 41.3002C56.7473 41.2549 56.6448 41.2322 56.5294 41.2322C56.4131 41.2322 56.3092 41.2549 56.2178 41.3002C56.1272 41.3454 56.0557 41.4076 56.0034 41.4866C55.9519 41.5656 55.9266 41.6566 55.9275 41.7596C55.9266 41.8572 55.9501 41.9425 55.998 42.0153C56.0469 42.0881 56.1166 42.1444 56.2071 42.1844C56.2977 42.2243 56.4051 42.2443 56.5294 42.2443ZM56.5294 40.9499C56.627 40.9499 56.7136 40.9304 56.7891 40.8913C56.8654 40.8523 56.9253 40.7977 56.9688 40.7275C57.0123 40.6574 57.0345 40.5753 57.0354 40.4812C57.0345 40.3888 57.0128 40.3085 56.9702 40.2401C56.9275 40.1709 56.8685 40.1176 56.793 40.0803C56.7176 40.0422 56.6297 40.0231 56.5294 40.0231C56.4273 40.0231 56.3381 40.0422 56.2617 40.0803C56.1854 40.1176 56.1263 40.1709 56.0846 40.2401C56.0429 40.3085 56.0224 40.3888 56.0233 40.4812C56.0224 40.5753 56.0433 40.6574 56.0859 40.7275C56.1294 40.7977 56.1894 40.8523 56.2657 40.8913C56.3421 40.9304 56.4299 40.9499 56.5294 40.9499ZM58.8561 42.5373C58.6555 42.5373 58.4846 42.4827 58.3435 42.3735C58.2023 42.2634 58.0944 42.104 58.0199 41.8954C57.9453 41.6859 57.908 41.4329 57.908 41.1364C57.908 40.8416 57.9453 40.5899 58.0199 40.3813C58.0953 40.1718 58.2036 40.012 58.3448 39.9019C58.4868 39.7909 58.6573 39.7354 58.8561 39.7354C59.055 39.7354 59.225 39.7909 59.3662 39.9019C59.5082 40.012 59.6165 40.1718 59.6911 40.3813C59.7666 40.5899 59.8043 40.8416 59.8043 41.1364C59.8043 41.4329 59.767 41.6859 59.6924 41.8954C59.6179 42.104 59.51 42.2634 59.3688 42.3735C59.2277 42.4827 59.0568 42.5373 58.8561 42.5373ZM58.8561 42.2443C59.055 42.2443 59.2095 42.1484 59.3196 41.9567C59.4297 41.7649 59.4847 41.4915 59.4847 41.1364C59.4847 40.9002 59.4594 40.6991 59.4088 40.5331C59.3591 40.3671 59.2872 40.2406 59.1931 40.1536C59.0998 40.0666 58.9875 40.0231 58.8561 40.0231C58.6591 40.0231 58.505 40.1203 58.3941 40.3147C58.2831 40.5083 58.2276 40.7821 58.2276 41.1364C58.2276 41.3725 58.2525 41.5732 58.3022 41.7383C58.3519 41.9034 58.4234 42.029 58.5166 42.1151C58.6107 42.2013 58.7239 42.2443 58.8561 42.2443Z" fill="#333333"/>
<path d="M55.9003 58.5373C55.7884 58.5355 55.6765 58.5142 55.5647 58.4734C55.4528 58.4325 55.3507 58.3637 55.2584 58.267C55.1661 58.1693 55.0919 58.0375 55.036 57.8714C54.9801 57.7045 54.9521 57.495 54.9521 57.2429C54.9521 57.0014 54.9747 56.7875 55.02 56.601C55.0653 56.4137 55.131 56.2561 55.2171 56.1283C55.3032 55.9996 55.4071 55.9019 55.5287 55.8353C55.6512 55.7687 55.7893 55.7354 55.9429 55.7354C56.0956 55.7354 56.2314 55.7661 56.3504 55.8273C56.4702 55.8877 56.5679 55.972 56.6433 56.0803C56.7188 56.1887 56.7676 56.3134 56.7898 56.4545H56.4649C56.4347 56.332 56.3761 56.2304 56.2891 56.1496C56.2021 56.0688 56.0867 56.0284 55.9429 56.0284C55.7316 56.0284 55.5651 56.1203 55.4435 56.3041C55.3227 56.4878 55.2619 56.7457 55.261 57.0778H55.2824C55.3321 57.0023 55.3911 56.9379 55.4595 56.8847C55.5287 56.8305 55.6051 56.7888 55.6885 56.7595C55.772 56.7302 55.8603 56.7156 55.9535 56.7156C56.1098 56.7156 56.2527 56.7546 56.3823 56.8327C56.5119 56.91 56.6158 57.017 56.6939 57.1537C56.7721 57.2895 56.8111 57.4453 56.8111 57.6211C56.8111 57.7898 56.7734 57.9442 56.6979 58.0845C56.6225 58.2239 56.5164 58.3349 56.3797 58.4174C56.2438 58.4991 56.084 58.5391 55.9003 58.5373ZM55.9003 58.2443C56.0121 58.2443 56.1124 58.2164 56.2012 58.1604C56.2909 58.1045 56.3615 58.0295 56.4129 57.9354C56.4653 57.8413 56.4915 57.7365 56.4915 57.6211C56.4915 57.5083 56.4662 57.4058 56.4156 57.3135C56.3659 57.2203 56.2971 57.1461 56.2092 57.0911C56.1222 57.036 56.0228 57.0085 55.9109 57.0085C55.8266 57.0085 55.748 57.0254 55.6752 57.0591C55.6024 57.092 55.5385 57.1373 55.4834 57.195C55.4293 57.2527 55.3867 57.3188 55.3556 57.3934C55.3245 57.4671 55.309 57.5447 55.309 57.6264C55.309 57.7347 55.3343 57.8359 55.3849 57.93C55.4364 58.0241 55.5065 58.1001 55.5953 58.1578C55.685 58.2155 55.7866 58.2443 55.9003 58.2443ZM58.2244 58.5373C58.0237 58.5373 57.8528 58.4827 57.7117 58.3735C57.5705 58.2634 57.4626 58.104 57.3881 57.8954C57.3135 57.6859 57.2762 57.4329 57.2762 57.1364C57.2762 56.8416 57.3135 56.5899 57.3881 56.3813C57.4635 56.1718 57.5718 56.012 57.713 55.9019C57.855 55.7909 58.0255 55.7354 58.2244 55.7354C58.4232 55.7354 58.5932 55.7909 58.7344 55.9019C58.8764 56.012 58.9847 56.1718 59.0593 56.3813C59.1348 56.5899 59.1725 56.8416 59.1725 57.1364C59.1725 57.4329 59.1352 57.6859 59.0607 57.8954C58.9861 58.104 58.8782 58.2634 58.7371 58.3735C58.5959 58.4827 58.425 58.5373 58.2244 58.5373ZM58.2244 58.2443C58.4232 58.2443 58.5777 58.1484 58.6878 57.9567C58.7979 57.7649 58.8529 57.4915 58.8529 57.1364C58.8529 56.9002 58.8276 56.6991 58.777 56.5331C58.7273 56.3671 58.6554 56.2406 58.5613 56.1536C58.4681 56.0666 58.3558 56.0231 58.2244 56.0231C58.0273 56.0231 57.8732 56.1203 57.7623 56.3147C57.6513 56.5083 57.5958 56.7821 57.5958 57.1364C57.5958 57.3725 57.6207 57.5732 57.6704 57.7383C57.7201 57.9034 57.7916 58.029 57.8848 58.1151C57.9789 58.2013 58.0921 58.2443 58.2244 58.2443Z" fill="#333333"/>
</svg>
