<svg width="140" height="70" viewBox="0 0 140 70" fill="none" xmlns="http://www.w3.org/2000/svg">
<g clip-path="url(#clip0_994_10802)">
<path fill-rule="evenodd" clip-rule="evenodd" d="M70.8174 0.0235596V18.5888C80.5963 18.7761 89.7186 21.6791 97.4104 26.6189L107.588 10.9801C96.9413 4.19078 84.3484 0.187439 70.8174 0.0235596Z" fill="#717171"/>
<path fill-rule="evenodd" clip-rule="evenodd" d="M23.4714 48.1807C27.3876 39.7292 33.5551 32.5185 41.2235 27.3446L31.1163 11.7994C20.4932 18.9165 11.9102 28.8663 6.49316 40.5486L23.4714 48.1807Z" fill="#1F2937"/>
<path fill-rule="evenodd" clip-rule="evenodd" d="M42.5594 26.455C50.2746 21.5854 59.3969 18.7058 69.1992 18.5888V0.0235596C55.6917 0.164028 43.0987 4.14396 32.4521 10.9098L42.5594 26.455Z" fill="#717171"/>
<path fill-rule="evenodd" clip-rule="evenodd" d="M108.946 11.8698L98.7686 27.532C107.117 33.2677 113.683 41.3915 117.435 50.9433L135.07 44.2711C129.817 30.9968 120.624 19.7126 108.946 11.8698Z" fill="#D0D4DA"/>
<path fill-rule="evenodd" clip-rule="evenodd" d="M22.79 49.6557L5.81181 42.0236C2.10662 50.5219 0.0429688 59.9099 0.0429688 69.7895H18.7565C18.7565 69.7192 18.7565 69.6724 18.7565 69.6022C18.7565 62.5319 20.187 55.7894 22.79 49.6557Z" fill="#1F2937"/>
<path fill-rule="evenodd" clip-rule="evenodd" d="M117.996 52.4414C119.919 57.8026 120.951 63.5852 120.951 69.6019C120.951 69.6722 120.951 69.719 120.951 69.7892H139.899C139.899 61.3377 138.375 53.2608 135.631 45.7692L117.996 52.4414Z" fill="#D0D4DA"/>
<path d="M60.2347 62.9438C58.7604 62.9438 57.4575 62.69 56.3261 62.1826C55.2015 61.6752 54.3203 60.9757 53.6826 60.0843C53.0448 59.1928 52.7294 58.1779 52.7363 57.0396C52.7294 56.1482 52.9111 55.3287 53.2814 54.5813C53.6586 53.827 54.1694 53.1995 54.814 52.6989C55.4586 52.1915 56.1786 51.8692 56.9741 51.732V51.6086C55.9249 51.3549 55.0849 50.7926 54.454 49.9217C53.8231 49.0508 53.5111 48.0497 53.518 46.9182C53.5111 45.8416 53.7957 44.8816 54.3717 44.0381C54.9546 43.1878 55.7535 42.5192 56.7684 42.0324C57.7832 41.5455 58.9387 41.302 60.2347 41.302C61.5171 41.302 62.6622 41.5489 63.6703 42.0426C64.6851 42.5295 65.484 43.1981 66.0669 44.0484C66.6498 44.8919 66.9446 45.8485 66.9515 46.9182C66.9446 48.0497 66.6223 49.0508 65.9846 49.9217C65.3469 50.7926 64.5171 51.3549 63.4954 51.6086V51.732C64.284 51.8692 64.9937 52.1915 65.6246 52.6989C66.2623 53.1995 66.7698 53.827 67.1469 54.5813C67.5309 55.3287 67.7264 56.1482 67.7332 57.0396C67.7264 58.1779 67.4041 59.1928 66.7663 60.0843C66.1286 60.9757 65.244 61.6752 64.1126 62.1826C62.988 62.69 61.6953 62.9438 60.2347 62.9438ZM60.2347 60.3414C61.1056 60.3414 61.8599 60.1974 62.4977 59.9094C63.1354 59.6145 63.6291 59.2065 63.9788 58.6854C64.3286 58.1574 64.5069 57.5402 64.5137 56.8339C64.5069 56.1002 64.3148 55.4521 63.9377 54.8898C63.5674 54.3275 63.0634 53.8852 62.4257 53.5629C61.7879 53.2407 61.0576 53.0795 60.2347 53.0795C59.405 53.0795 58.6678 53.2407 58.0232 53.5629C57.3787 53.8852 56.8712 54.3275 56.5009 54.8898C56.1306 55.4521 55.9489 56.1002 55.9558 56.8339C55.9489 57.5402 56.1169 58.1574 56.4598 58.6854C56.8095 59.2065 57.3067 59.6145 57.9512 59.9094C58.5958 60.1974 59.357 60.3414 60.2347 60.3414ZM60.2347 50.5389C60.9342 50.5389 61.5548 50.3983 62.0965 50.1171C62.6382 49.836 63.0634 49.4451 63.372 48.9445C63.6874 48.444 63.8485 47.8577 63.8554 47.1856C63.8485 46.5273 63.6908 45.9513 63.3822 45.4576C63.0805 44.9639 62.6588 44.5833 62.1171 44.3158C61.5753 44.0416 60.9479 43.9044 60.2347 43.9044C59.5079 43.9044 58.8701 44.0416 58.3215 44.3158C57.7798 44.5833 57.3581 44.9639 57.0564 45.4576C56.7546 45.9513 56.6072 46.5273 56.6141 47.1856C56.6072 47.8577 56.7581 48.444 57.0667 48.9445C57.3752 49.4451 57.8004 49.836 58.3421 50.1171C58.8907 50.3983 59.5216 50.5389 60.2347 50.5389ZM78.7521 63.0055C77.1269 62.9986 75.7383 62.57 74.5863 61.7197C73.4342 60.8694 72.5531 59.6317 71.9428 58.0065C71.3325 56.3813 71.0273 54.4235 71.0273 52.1332C71.0273 49.8497 71.3325 47.8988 71.9428 46.2805C72.5599 44.6621 73.4445 43.4278 74.5965 42.5775C75.7554 41.7272 77.1406 41.302 78.7521 41.302C80.3636 41.302 81.7453 41.7306 82.8973 42.5878C84.0494 43.4381 84.9305 44.6724 85.5408 46.2908C86.158 47.9022 86.4666 49.8497 86.4666 52.1332C86.4666 54.4304 86.1614 56.3916 85.5511 58.0168C84.9408 59.6351 84.0597 60.8729 82.9076 61.73C81.7556 62.5803 80.3704 63.0055 78.7521 63.0055ZM78.7521 60.2591C80.1784 60.2591 81.2927 59.5631 82.095 58.1711C82.9042 56.779 83.3088 54.7664 83.3088 52.1332C83.3088 50.3846 83.1236 48.9068 82.7533 47.6999C82.3899 46.4862 81.8653 45.5673 81.1796 44.9433C80.5007 44.3124 79.6915 43.997 78.7521 43.997C77.3326 43.997 76.2183 44.6964 75.4091 46.0953C74.6 47.4942 74.192 49.5068 74.1851 52.1332C74.1851 53.8887 74.3668 55.3733 74.7303 56.587C75.1006 57.7939 75.6251 58.7094 76.304 59.3334C76.9829 59.9505 77.7989 60.2591 78.7521 60.2591Z" fill="#111827"/>
</g>
<defs>
<clipPath id="clip0_994_10802">
<rect width="140" height="70" fill="white"/>
</clipPath>
</defs>
</svg>
