<svg width="171" height="64" viewBox="0 0 171 64" fill="none" xmlns="http://www.w3.org/2000/svg">
<path d="M6.33372 60.9507C6.14039 60.9507 5.97572 60.8981 5.83971 60.7929C5.7037 60.6868 5.59976 60.5333 5.52791 60.3322C5.45605 60.1304 5.42012 59.8866 5.42012 59.6009C5.42012 59.3168 5.45605 59.0743 5.52791 58.8733C5.60062 58.6714 5.70498 58.5174 5.84099 58.4114C5.97786 58.3044 6.14211 58.251 6.33372 58.251C6.52534 58.251 6.68915 58.3044 6.82517 58.4114C6.96204 58.5174 7.0664 58.6714 7.13825 58.8733C7.21097 59.0743 7.24732 59.3168 7.24732 59.6009C7.24732 59.8866 7.21139 60.1304 7.13954 60.3322C7.06768 60.5333 6.96375 60.6868 6.82773 60.7929C6.69172 60.8981 6.52705 60.9507 6.33372 60.9507ZM6.33372 60.6684C6.52534 60.6684 6.67418 60.576 6.78026 60.3913C6.88633 60.2065 6.93937 59.943 6.93937 59.6009C6.93937 59.3733 6.91499 59.1796 6.86623 59.0196C6.81832 58.8596 6.74903 58.7377 6.65836 58.6539C6.56854 58.5701 6.46033 58.5281 6.33372 58.5281C6.14382 58.5281 5.9954 58.6218 5.88847 58.8092C5.78154 58.9956 5.72808 59.2595 5.72808 59.6009C5.72808 59.8284 5.75203 60.0217 5.79993 60.1808C5.84784 60.3399 5.9167 60.461 6.00652 60.544C6.09719 60.6269 6.20626 60.6684 6.33372 60.6684Z" fill="#222C3A"/>
<path d="M0.340047 46.4362V46.2052L1.20745 45.2557C1.30925 45.1445 1.39308 45.0478 1.45895 44.9657C1.52482 44.8827 1.57358 44.8049 1.60523 44.7321C1.63774 44.6586 1.65399 44.5816 1.65399 44.5012C1.65399 44.4088 1.63175 44.3288 1.58727 44.2612C1.54364 44.1936 1.48376 44.1415 1.40762 44.1047C1.33149 44.0679 1.24595 44.0495 1.151 44.0495C1.05005 44.0495 0.961945 44.0705 0.886667 44.1124C0.812245 44.1534 0.754503 44.2112 0.713443 44.2856C0.673237 44.36 0.653135 44.4473 0.653135 44.5474H0.350312C0.350312 44.3934 0.385813 44.2582 0.456813 44.1419C0.527814 44.0256 0.624478 43.9349 0.746804 43.8699C0.869987 43.8049 1.00814 43.7723 1.16126 43.7723C1.31524 43.7723 1.45168 43.8049 1.57058 43.8699C1.68949 43.9349 1.78273 44.0226 1.85031 44.1329C1.91789 44.2433 1.95168 44.366 1.95168 44.5012C1.95168 44.5978 1.93414 44.6924 1.89907 44.7847C1.86485 44.8763 1.80497 44.9785 1.71943 45.0914C1.63474 45.2035 1.51712 45.3403 1.36656 45.502L0.776317 46.1333V46.1539H1.99787V46.4362H0.340047ZM3.38495 46.4721C3.19163 46.4721 3.02696 46.4195 2.89094 46.3143C2.75493 46.2082 2.65099 46.0546 2.57914 45.8536C2.50728 45.6517 2.47135 45.4079 2.47135 45.1222C2.47135 44.8382 2.50728 44.5957 2.57914 44.3947C2.65185 44.1928 2.75621 44.0388 2.89223 43.9327C3.02909 43.8258 3.19334 43.7723 3.38495 43.7723C3.57657 43.7723 3.74039 43.8258 3.8764 43.9327C4.01327 44.0388 4.11763 44.1928 4.18949 44.3947C4.2622 44.5957 4.29855 44.8382 4.29855 45.1222C4.29855 45.4079 4.26263 45.6517 4.19077 45.8536C4.11891 46.0546 4.01498 46.2082 3.87897 46.3143C3.74295 46.4195 3.57828 46.4721 3.38495 46.4721ZM3.38495 46.1898C3.57657 46.1898 3.72542 46.0974 3.83149 45.9126C3.93756 45.7279 3.9906 45.4644 3.9906 45.1222C3.9906 44.8947 3.96622 44.7009 3.91746 44.5409C3.86956 44.381 3.80027 44.2591 3.70959 44.1753C3.61977 44.0914 3.51156 44.0495 3.38495 44.0495C3.19505 44.0495 3.04663 44.1432 2.9397 44.3305C2.83277 44.517 2.77931 44.7809 2.77931 45.1222C2.77931 45.3498 2.80326 45.5431 2.85116 45.7022C2.89907 45.8613 2.96793 45.9824 3.05775 46.0653C3.14843 46.1483 3.25749 46.1898 3.38495 46.1898ZM5.64329 46.4721C5.44996 46.4721 5.28529 46.4195 5.14928 46.3143C5.01327 46.2082 4.90933 46.0546 4.83748 45.8536C4.76562 45.6517 4.72969 45.4079 4.72969 45.1222C4.72969 44.8382 4.76562 44.5957 4.83748 44.3947C4.91019 44.1928 5.01455 44.0388 5.15056 43.9327C5.28743 43.8258 5.45168 43.7723 5.64329 43.7723C5.83491 43.7723 5.99872 43.8258 6.13474 43.9327C6.27161 44.0388 6.37597 44.1928 6.44782 44.3947C6.52054 44.5957 6.55689 44.8382 6.55689 45.1222C6.55689 45.4079 6.52096 45.6517 6.44911 45.8536C6.37725 46.0546 6.27332 46.2082 6.1373 46.3143C6.00129 46.4195 5.83662 46.4721 5.64329 46.4721ZM5.64329 46.1898C5.83491 46.1898 5.98375 46.0974 6.08983 45.9126C6.1959 45.7279 6.24894 45.4644 6.24894 45.1222C6.24894 44.8947 6.22456 44.7009 6.1758 44.5409C6.12789 44.381 6.0586 44.2591 5.96793 44.1753C5.87811 44.0914 5.7699 44.0495 5.64329 44.0495C5.45339 44.0495 5.30497 44.1432 5.19804 44.3305C5.09111 44.517 5.03765 44.7809 5.03765 45.1222C5.03765 45.3498 5.0616 45.5431 5.1095 45.7022C5.15741 45.8613 5.22627 45.9824 5.31609 46.0653C5.40677 46.1483 5.51583 46.1898 5.64329 46.1898Z" fill="#222C3A"/>
<path d="M0.147896 31.4184V31.1566L1.30273 29.3294H1.49263V29.7349H1.36432L0.491779 31.1155V31.1361H2.04695V31.4184H0.147896ZM1.38485 31.9573V31.3388V31.2169V29.3294H1.68767V31.9573H1.38485ZM3.38495 31.9932C3.19163 31.9932 3.02696 31.9406 2.89094 31.8354C2.75493 31.7293 2.65099 31.5758 2.57914 31.3747C2.50728 31.1728 2.47135 30.929 2.47135 30.6433C2.47135 30.3593 2.50728 30.1168 2.57914 29.9158C2.65185 29.7139 2.75621 29.5599 2.89223 29.4539C3.02909 29.3469 3.19334 29.2935 3.38495 29.2935C3.57657 29.2935 3.74039 29.3469 3.8764 29.4539C4.01327 29.5599 4.11763 29.7139 4.18949 29.9158C4.2622 30.1168 4.29855 30.3593 4.29855 30.6433C4.29855 30.929 4.26263 31.1728 4.19077 31.3747C4.11891 31.5758 4.01498 31.7293 3.87897 31.8354C3.74295 31.9406 3.57828 31.9932 3.38495 31.9932ZM3.38495 31.7109C3.57657 31.7109 3.72542 31.6185 3.83149 31.4338C3.93756 31.249 3.9906 30.9855 3.9906 30.6433C3.9906 30.4158 3.96622 30.222 3.91746 30.0621C3.86956 29.9021 3.80027 29.7802 3.70959 29.6964C3.61977 29.6125 3.51156 29.5706 3.38495 29.5706C3.19505 29.5706 3.04663 29.6643 2.9397 29.8516C2.83277 30.0381 2.77931 30.302 2.77931 30.6433C2.77931 30.8709 2.80326 31.0642 2.85117 31.2233C2.89907 31.3824 2.96793 31.5035 3.05775 31.5864C3.14843 31.6694 3.25749 31.7109 3.38495 31.7109ZM5.64329 31.9932C5.44996 31.9932 5.28529 31.9406 5.14928 31.8354C5.01327 31.7293 4.90933 31.5758 4.83748 31.3747C4.76562 31.1728 4.72969 30.929 4.72969 30.6433C4.72969 30.3593 4.76562 30.1168 4.83748 29.9158C4.91019 29.7139 5.01455 29.5599 5.15056 29.4539C5.28743 29.3469 5.45168 29.2935 5.64329 29.2935C5.83491 29.2935 5.99872 29.3469 6.13474 29.4539C6.27161 29.5599 6.37597 29.7139 6.44782 29.9158C6.52054 30.1168 6.55689 30.3593 6.55689 30.6433C6.55689 30.929 6.52096 31.1728 6.44911 31.3747C6.37725 31.5758 6.27332 31.7293 6.1373 31.8354C6.00129 31.9406 5.83662 31.9932 5.64329 31.9932ZM5.64329 31.7109C5.83491 31.7109 5.98375 31.6185 6.08983 31.4338C6.1959 31.249 6.24894 30.9855 6.24894 30.6433C6.24894 30.4158 6.22456 30.222 6.1758 30.0621C6.12789 29.9021 6.0586 29.7802 5.96793 29.6964C5.87811 29.6125 5.7699 29.5706 5.64329 29.5706C5.45339 29.5706 5.30497 29.6643 5.19804 29.8516C5.09111 30.0381 5.03765 30.302 5.03765 30.6433C5.03765 30.8709 5.0616 31.0642 5.1095 31.2233C5.15741 31.3824 5.22627 31.5035 5.31609 31.5864C5.40677 31.6694 5.51583 31.7109 5.64329 31.7109Z" fill="#222C3A"/>
<path d="M1.14554 17.5146C1.03776 17.5129 0.929974 17.4923 0.822189 17.453C0.714405 17.4136 0.616031 17.3473 0.527066 17.2541C0.438101 17.16 0.366672 17.033 0.31278 16.873C0.258888 16.7122 0.231942 16.5103 0.231942 16.2673C0.231942 16.0347 0.253755 15.8285 0.297382 15.6489C0.341009 15.4684 0.404311 15.3165 0.487288 15.1934C0.570265 15.0693 0.67035 14.9752 0.787545 14.9111C0.905594 14.8469 1.03861 14.8148 1.1866 14.8148C1.33374 14.8148 1.46462 14.8443 1.57925 14.9034C1.69473 14.9615 1.78883 15.0428 1.86154 15.1472C1.93425 15.2515 1.9813 15.3717 2.00268 15.5077H1.6896C1.66051 15.3897 1.60405 15.2917 1.52022 15.2139C1.43639 15.136 1.32518 15.0971 1.1866 15.0971C0.983011 15.0971 0.822617 15.1857 0.705423 15.3627C0.589084 15.5398 0.530487 15.7883 0.529632 16.1082H0.550162C0.598067 16.0355 0.654953 15.9735 0.720821 15.9222C0.787545 15.87 0.861112 15.8298 0.941522 15.8016C1.02193 15.7733 1.10705 15.7592 1.19687 15.7592C1.34742 15.7592 1.48515 15.7969 1.61004 15.8721C1.73493 15.9466 1.83502 16.0496 1.9103 16.1814C1.98558 16.3123 2.02321 16.4624 2.02321 16.6318C2.02321 16.7943 1.98686 16.9431 1.91415 17.0783C1.84144 17.2126 1.73921 17.3195 1.60748 17.3991C1.47659 17.4778 1.32262 17.5163 1.14554 17.5146ZM1.14554 17.2323C1.25333 17.2323 1.34999 17.2053 1.43553 17.1514C1.52193 17.0975 1.58994 17.0253 1.63955 16.9346C1.69002 16.8439 1.71526 16.743 1.71526 16.6318C1.71526 16.5231 1.69088 16.4243 1.64212 16.3354C1.59422 16.2455 1.52792 16.1741 1.44323 16.1211C1.3594 16.068 1.26359 16.0415 1.15581 16.0415C1.07454 16.0415 0.998836 16.0578 0.928691 16.0903C0.858545 16.1219 0.796954 16.1656 0.743918 16.2212C0.691736 16.2768 0.650676 16.3405 0.620735 16.4123C0.590795 16.4833 0.575825 16.5582 0.575825 16.6369C0.575825 16.7413 0.600205 16.8388 0.648965 16.9295C0.69858 17.0201 0.766159 17.0933 0.851702 17.1489C0.9381 17.2045 1.03605 17.2323 1.14554 17.2323ZM3.38495 17.5146C3.19163 17.5146 3.02696 17.462 2.89094 17.3567C2.75493 17.2507 2.65099 17.0971 2.57914 16.8961C2.50728 16.6942 2.47135 16.4504 2.47135 16.1647C2.47135 15.8807 2.50728 15.6382 2.57914 15.4372C2.65185 15.2353 2.75621 15.0813 2.89223 14.9752C3.02909 14.8683 3.19334 14.8148 3.38495 14.8148C3.57657 14.8148 3.74039 14.8683 3.8764 14.9752C4.01327 15.0813 4.11763 15.2353 4.18949 15.4372C4.2622 15.6382 4.29855 15.8807 4.29855 16.1647C4.29855 16.4504 4.26263 16.6942 4.19077 16.8961C4.11891 17.0971 4.01498 17.2507 3.87897 17.3567C3.74295 17.462 3.57828 17.5146 3.38495 17.5146ZM3.38495 17.2323C3.57657 17.2323 3.72542 17.1399 3.83149 16.9551C3.93756 16.7703 3.9906 16.5069 3.9906 16.1647C3.9906 15.9372 3.96622 15.7434 3.91746 15.5834C3.86956 15.4235 3.80027 15.3016 3.70959 15.2177C3.61977 15.1339 3.51156 15.092 3.38495 15.092C3.19505 15.092 3.04663 15.1857 2.9397 15.373C2.83277 15.5595 2.77931 15.8234 2.77931 16.1647C2.77931 16.3922 2.80326 16.5856 2.85117 16.7447C2.89907 16.9038 2.96793 17.0248 3.05775 17.1078C3.14843 17.1908 3.25749 17.2323 3.38495 17.2323ZM5.64329 17.5146C5.44996 17.5146 5.28529 17.462 5.14928 17.3567C5.01327 17.2507 4.90933 17.0971 4.83748 16.8961C4.76562 16.6942 4.72969 16.4504 4.72969 16.1647C4.72969 15.8807 4.76562 15.6382 4.83748 15.4372C4.91019 15.2353 5.01455 15.0813 5.15056 14.9752C5.28743 14.8683 5.45168 14.8148 5.64329 14.8148C5.83491 14.8148 5.99872 14.8683 6.13474 14.9752C6.27161 15.0813 6.37597 15.2353 6.44782 15.4372C6.52054 15.6382 6.55689 15.8807 6.55689 16.1647C6.55689 16.4504 6.52096 16.6942 6.44911 16.8961C6.37725 17.0971 6.27332 17.2507 6.1373 17.3567C6.00129 17.462 5.83662 17.5146 5.64329 17.5146ZM5.64329 17.2323C5.83491 17.2323 5.98375 17.1399 6.08983 16.9551C6.1959 16.7703 6.24894 16.5069 6.24894 16.1647C6.24894 15.9372 6.22456 15.7434 6.1758 15.5834C6.12789 15.4235 6.0586 15.3016 5.96793 15.2177C5.87811 15.1339 5.7699 15.092 5.64329 15.092C5.45339 15.092 5.30497 15.1857 5.19804 15.373C5.09111 15.5595 5.03765 15.8234 5.03765 16.1647C5.03765 16.3922 5.0616 16.5856 5.1095 16.7447C5.15741 16.9038 5.22627 17.0248 5.31609 17.1078C5.40677 17.1908 5.51583 17.2323 5.64329 17.2323Z" fill="#222C3A"/>
<path d="M1.14298 3.03593C0.966757 3.03593 0.811069 3.0047 0.675911 2.94226C0.541608 2.87896 0.436818 2.79213 0.36154 2.68178C0.286262 2.57057 0.249051 2.44397 0.249906 2.30197C0.249051 2.19076 0.270864 2.08811 0.315347 1.99401C0.359829 1.89906 0.420565 1.81993 0.497553 1.75663C0.575398 1.69247 0.662224 1.65184 0.758032 1.63473V1.61933C0.632284 1.58683 0.532198 1.51625 0.457776 1.40762C0.383353 1.29812 0.34657 1.17365 0.347425 1.03422C0.34657 0.900772 0.380359 0.78144 0.448794 0.676221C0.517228 0.571003 0.611326 0.488027 0.731086 0.427291C0.851702 0.366555 0.988999 0.336188 1.14298 0.336188C1.29524 0.336188 1.43126 0.366555 1.55102 0.427291C1.67078 0.488027 1.76487 0.571003 1.83331 0.676221C1.9026 0.78144 1.93767 0.900772 1.93853 1.03422C1.93767 1.17365 1.8996 1.29812 1.82433 1.40762C1.7499 1.51625 1.6511 1.58683 1.52792 1.61933V1.63473C1.62287 1.65184 1.70842 1.69247 1.78455 1.75663C1.86068 1.81993 1.92142 1.89906 1.96676 1.99401C2.01209 2.08811 2.03519 2.19076 2.03605 2.30197C2.03519 2.44397 1.9967 2.57057 1.92056 2.68178C1.84529 2.79213 1.74049 2.87896 1.60619 2.94226C1.47274 3.0047 1.31834 3.03593 1.14298 3.03593ZM1.14298 2.75364C1.26188 2.75364 1.36453 2.73439 1.45093 2.69589C1.53733 2.6574 1.60405 2.60308 1.6511 2.53293C1.69815 2.46279 1.7221 2.38067 1.72296 2.28657C1.7221 2.18734 1.69644 2.09966 1.64597 2.02353C1.5955 1.94739 1.52664 1.88751 1.43938 1.84388C1.35298 1.80026 1.25418 1.77844 1.14298 1.77844C1.03091 1.77844 0.930829 1.80026 0.84272 1.84388C0.755466 1.88751 0.686604 1.94739 0.636133 2.02353C0.586518 2.09966 0.562138 2.18734 0.562994 2.28657C0.562138 2.38067 0.584807 2.46279 0.631001 2.53293C0.678049 2.60308 0.745201 2.6574 0.832455 2.69589C0.919709 2.73439 1.02322 2.75364 1.14298 2.75364ZM1.14298 1.50642C1.23707 1.50642 1.32048 1.4876 1.39319 1.44996C1.46676 1.41232 1.5245 1.35971 1.56641 1.29213C1.60833 1.22455 1.62972 1.14543 1.63057 1.05475C1.62972 0.965785 1.60876 0.888368 1.5677 0.8225C1.52664 0.755776 1.46975 0.704451 1.39704 0.668523C1.32433 0.631739 1.23964 0.613347 1.14298 0.613347C1.0446 0.613347 0.958631 0.631739 0.885064 0.668523C0.811497 0.704451 0.75461 0.755776 0.714405 0.8225C0.6742 0.888368 0.654525 0.965785 0.65538 1.05475C0.654525 1.14543 0.674628 1.22455 0.715688 1.29213C0.757604 1.35971 0.815346 1.41232 0.888913 1.44996C0.96248 1.4876 1.04717 1.50642 1.14298 1.50642ZM3.38495 3.03593C3.19163 3.03593 3.02696 2.98332 2.89094 2.8781C2.75493 2.77203 2.65099 2.61848 2.57914 2.41745C2.50728 2.21557 2.47135 1.97177 2.47135 1.68606C2.47135 1.40205 2.50728 1.15954 2.57914 0.958514C2.65185 0.756632 2.75621 0.602654 2.89223 0.496581C3.02909 0.389652 3.19334 0.336188 3.38495 0.336188C3.57657 0.336188 3.74039 0.389652 3.8764 0.496581C4.01327 0.602654 4.11763 0.756632 4.18949 0.958514C4.2622 1.15954 4.29855 1.40205 4.29855 1.68606C4.29855 1.97177 4.26263 2.21557 4.19077 2.41745C4.11891 2.61848 4.01498 2.77203 3.87897 2.8781C3.74295 2.98332 3.57828 3.03593 3.38495 3.03593ZM3.38495 2.75364C3.57657 2.75364 3.72542 2.66125 3.83149 2.47648C3.93756 2.2917 3.9906 2.02823 3.9906 1.68606C3.9906 1.45851 3.96622 1.26476 3.91746 1.10479C3.86956 0.944827 3.80027 0.822928 3.70959 0.739096C3.61977 0.655263 3.51156 0.613347 3.38495 0.613347C3.19505 0.613347 3.04663 0.707017 2.9397 0.894356C2.83277 1.08084 2.77931 1.34474 2.77931 1.68606C2.77931 1.9136 2.80326 2.10693 2.85117 2.26604C2.89907 2.42515 2.96793 2.54619 3.05775 2.62917C3.14843 2.71215 3.25749 2.75364 3.38495 2.75364ZM5.64329 3.03593C5.44996 3.03593 5.28529 2.98332 5.14928 2.8781C5.01327 2.77203 4.90933 2.61848 4.83748 2.41745C4.76562 2.21557 4.72969 1.97177 4.72969 1.68606C4.72969 1.40205 4.76562 1.15954 4.83748 0.958514C4.91019 0.756632 5.01455 0.602654 5.15056 0.496581C5.28743 0.389652 5.45168 0.336188 5.64329 0.336188C5.83491 0.336188 5.99872 0.389652 6.13474 0.496581C6.27161 0.602654 6.37597 0.756632 6.44782 0.958514C6.52054 1.15954 6.55689 1.40205 6.55689 1.68606C6.55689 1.97177 6.52096 2.21557 6.44911 2.41745C6.37725 2.61848 6.27332 2.77203 6.1373 2.8781C6.00129 2.98332 5.83662 3.03593 5.64329 3.03593ZM5.64329 2.75364C5.83491 2.75364 5.98375 2.66125 6.08983 2.47648C6.1959 2.2917 6.24894 2.02823 6.24894 1.68606C6.24894 1.45851 6.22456 1.26476 6.1758 1.10479C6.12789 0.944827 6.0586 0.822928 5.96793 0.739096C5.87811 0.655263 5.7699 0.613347 5.64329 0.613347C5.45339 0.613347 5.30497 0.707017 5.19804 0.894356C5.09111 1.08084 5.03765 1.34474 5.03765 1.68606C5.03765 1.9136 5.0616 2.10693 5.1095 2.26604C5.15741 2.42515 5.22627 2.54619 5.31609 2.62917C5.40677 2.71215 5.51583 2.75364 5.64329 2.75364Z" fill="#222C3A"/>
<path d="M26.46 63.8525H26.1264L27.0913 61.2247H27.4198L28.3847 63.8525H28.0511L27.2658 61.6404H27.2453L26.46 63.8525ZM26.5832 62.826H27.9279V63.1083H26.5832V62.826Z" fill="#222C3A"/>
<path d="M57.0465 63.8525V61.2247H57.9652C58.1483 61.2247 58.2993 61.2563 58.4182 61.3196C58.5371 61.3821 58.6256 61.4663 58.6838 61.5724C58.742 61.6776 58.771 61.7944 58.771 61.9227C58.771 62.0356 58.7509 62.1288 58.7107 62.2024C58.6714 62.276 58.6192 62.3341 58.5542 62.3769C58.49 62.4197 58.4203 62.4513 58.345 62.4719V62.4975C58.4255 62.5027 58.5063 62.5309 58.5876 62.5822C58.6688 62.6335 58.7368 62.7071 58.7916 62.8029C58.8463 62.8987 58.8737 63.0159 58.8737 63.1545C58.8737 63.2862 58.8438 63.4047 58.7839 63.5099C58.724 63.6152 58.6295 63.6986 58.5003 63.7602C58.3711 63.8217 58.203 63.8525 57.996 63.8525H57.0465ZM57.3647 63.5702H57.996C58.2039 63.5702 58.3515 63.53 58.4387 63.4496C58.5268 63.3684 58.5709 63.27 58.5709 63.1545C58.5709 63.0655 58.5482 62.9834 58.5029 62.9081C58.4575 62.832 58.3929 62.7713 58.3091 62.7259C58.2253 62.6797 58.1261 62.6566 58.0114 62.6566H57.3647V63.5702ZM57.3647 62.3795H57.955C58.0508 62.3795 58.1372 62.3607 58.2142 62.323C58.292 62.2854 58.3536 62.2324 58.3989 62.1639C58.4451 62.0955 58.4682 62.0151 58.4682 61.9227C58.4682 61.8072 58.428 61.7093 58.3476 61.6288C58.2672 61.5476 58.1397 61.5069 57.9652 61.5069H57.3647V62.3795Z" fill="#222C3A"/>
<path d="M90.8049 62.0459H90.4867C90.4679 61.9543 90.435 61.8739 90.3879 61.8046C90.3417 61.7353 90.2853 61.6772 90.2185 61.6301C90.1527 61.5822 90.0795 61.5463 89.9991 61.5223C89.9187 61.4984 89.8349 61.4864 89.7476 61.4864C89.5885 61.4864 89.4444 61.5266 89.3152 61.607C89.1869 61.6874 89.0847 61.8059 89.0085 61.9625C88.9333 62.119 88.8956 62.3111 88.8956 62.5386C88.8956 62.7661 88.9333 62.9582 89.0085 63.1147C89.0847 63.2713 89.1869 63.3898 89.3152 63.4702C89.4444 63.5506 89.5885 63.5908 89.7476 63.5908C89.8349 63.5908 89.9187 63.5788 89.9991 63.5548C90.0795 63.5309 90.1527 63.4954 90.2185 63.4483C90.2853 63.4004 90.3417 63.3418 90.3879 63.2726C90.435 63.2024 90.4679 63.122 90.4867 63.0313H90.8049C90.781 63.1656 90.7374 63.2858 90.6741 63.3919C90.6108 63.498 90.5321 63.5882 90.438 63.6626C90.3439 63.7362 90.2382 63.7922 90.121 63.8307C90.0047 63.8692 89.8802 63.8885 89.7476 63.8885C89.5235 63.8885 89.3242 63.8337 89.1497 63.7242C88.9752 63.6147 88.8379 63.459 88.7378 63.2572C88.6377 63.0553 88.5877 62.8158 88.5877 62.5386C88.5877 62.2614 88.6377 62.0219 88.7378 61.82C88.8379 61.6182 88.9752 61.4625 89.1497 61.353C89.3242 61.2435 89.5235 61.1887 89.7476 61.1887C89.8802 61.1887 90.0047 61.208 90.121 61.2465C90.2382 61.285 90.3439 61.3414 90.438 61.4158C90.5321 61.4894 90.6108 61.5792 90.6741 61.6853C90.7374 61.7905 90.781 61.9107 90.8049 62.0459Z" fill="#222C3A"/>
<path d="M120.731 63.8525H119.92V61.2247H120.767C121.022 61.2247 121.24 61.2773 121.421 61.3825C121.603 61.4868 121.742 61.637 121.838 61.8329C121.935 62.0279 121.983 62.2614 121.983 62.5335C121.983 62.8072 121.935 63.0429 121.837 63.2405C121.74 63.4372 121.598 63.5886 121.411 63.6947C121.225 63.7999 120.998 63.8525 120.731 63.8525ZM120.238 63.5702H120.71C120.928 63.5702 121.108 63.5283 121.251 63.4445C121.394 63.3607 121.5 63.2413 121.57 63.0865C121.64 62.9317 121.675 62.7473 121.675 62.5335C121.675 62.3213 121.641 62.1387 121.571 61.9856C121.502 61.8316 121.399 61.7135 121.261 61.6314C121.123 61.5484 120.952 61.5069 120.746 61.5069H120.238V63.5702Z" fill="#222C3A"/>
<path d="M150.69 63.8525V61.2247H152.276V61.5069H151.008V62.3949H152.193V62.6772H151.008V63.5702H152.296V63.8525H150.69Z" fill="#222C3A"/>
<path d="M16.0146 59.4824H38.1886V42.1648H16.0146V59.4824Z" fill="#1F2937"/>
<path d="M46.8115 59.4824H68.9854V30.8706H46.8115V59.4824Z" fill="#1F2937"/>
<path d="M78.8398 59.4823H101.014V3.01172H78.8398V59.4823Z" fill="#1F2937"/>
<path d="M109.638 59.4823H131.812V18.0706H109.638V59.4823Z" fill="#1F2937"/>
<path d="M140.435 59.4823H162.608V26.3529H140.435V59.4823Z" fill="#1F2937"/>
<path d="M12.1465 0L12.1465 59.3836" stroke="#1F2937" stroke-width="0.195402"/>
<path d="M12.1465 59.5934H170.004" stroke="#1F2937" stroke-width="0.195402" stroke-linecap="round"/>
</svg>
