<svg width="170" height="64" viewBox="0 0 170 64" fill="none" xmlns="http://www.w3.org/2000/svg">
<g clip-path="url(#clip0_994_10682)">
<path d="M11.5146 0.915039V42.2636" stroke="black" stroke-width="0.169323"/>
<path d="M9.99121 42.2637H11.5151" stroke="black" stroke-width="0.169323"/>
<path d="M8.08636 42.2836C7.97765 42.2836 7.88505 42.254 7.80857 42.1949C7.73209 42.1352 7.67364 42.0489 7.63323 41.9358C7.59283 41.8223 7.57262 41.6852 7.57262 41.5246C7.57262 41.3649 7.59283 41.2285 7.63323 41.1154C7.67412 41.0019 7.73281 40.9153 7.80929 40.8557C7.88626 40.7956 7.97861 40.7655 8.08636 40.7655C8.19412 40.7655 8.28623 40.7956 8.36272 40.8557C8.43968 40.9153 8.49837 41.0019 8.53877 41.1154C8.57966 41.2285 8.60011 41.3649 8.60011 41.5246C8.60011 41.6852 8.5799 41.8223 8.5395 41.9358C8.49909 42.0489 8.44064 42.1352 8.36416 42.1949C8.28768 42.254 8.19508 42.2836 8.08636 42.2836ZM8.08636 42.1249C8.19412 42.1249 8.27781 42.0729 8.33746 41.969C8.39711 41.8651 8.42693 41.717 8.42693 41.5246C8.42693 41.3966 8.41322 41.2877 8.38581 41.1977C8.35887 41.1078 8.31991 41.0392 8.26892 40.9921C8.21841 40.9449 8.15756 40.9214 8.08636 40.9214C7.97958 40.9214 7.89612 40.974 7.83599 41.0794C7.77586 41.1842 7.7458 41.3326 7.7458 41.5246C7.7458 41.6525 7.75926 41.7612 7.7862 41.8507C7.81314 41.9402 7.85186 42.0082 7.90237 42.0549C7.95336 42.1016 8.01469 42.1249 8.08636 42.1249Z" fill="black"/>
<path d="M9.99121 31.9265H11.5151" stroke="black" stroke-width="0.169323"/>
<path d="M8.07987 31.9465C7.98463 31.9465 7.89972 31.9301 7.82517 31.8974C7.75109 31.8647 7.69216 31.8192 7.64839 31.761C7.60509 31.7023 7.58152 31.6343 7.57767 31.5568H7.7595C7.76335 31.6045 7.77971 31.6456 7.80857 31.6802C7.83743 31.7144 7.87519 31.7408 7.92185 31.7596C7.96851 31.7784 8.02022 31.7877 8.07698 31.7877C8.14048 31.7877 8.19676 31.7767 8.24583 31.7545C8.29489 31.7324 8.33337 31.7016 8.36127 31.6622C8.38917 31.6227 8.40312 31.577 8.40312 31.5251C8.40312 31.4707 8.38965 31.4229 8.36272 31.3815C8.33578 31.3397 8.29633 31.3069 8.24438 31.2834C8.19243 31.2598 8.12894 31.248 8.0539 31.248H7.93556V31.0893H8.0539C8.11258 31.0893 8.16405 31.0787 8.20831 31.0575C8.25304 31.0364 8.28792 31.0065 8.31293 30.9681C8.33842 30.9296 8.35117 30.8844 8.35117 30.8324C8.35117 30.7824 8.34011 30.7388 8.31798 30.7018C8.29585 30.6648 8.26459 30.6359 8.22418 30.6152C8.18425 30.5945 8.13711 30.5842 8.08276 30.5842C8.03177 30.5842 7.98366 30.5936 7.93845 30.6123C7.89371 30.6306 7.85715 30.6573 7.82877 30.6924C7.80039 30.7271 7.785 30.7689 7.78259 30.818H7.60942C7.61231 30.7405 7.63564 30.6727 7.67941 30.6145C7.72319 30.5558 7.78043 30.5101 7.85114 30.4774C7.92233 30.4447 8.0005 30.4283 8.08564 30.4283C8.17704 30.4283 8.25545 30.4469 8.32087 30.4839C8.38629 30.5205 8.43655 30.5688 8.47167 30.6289C8.50679 30.6891 8.52434 30.754 8.52434 30.8237C8.52434 30.907 8.50246 30.9779 8.45868 31.0366C8.41539 31.0953 8.35646 31.1359 8.2819 31.1585V31.1701C8.37522 31.1855 8.4481 31.2252 8.50053 31.2891C8.55296 31.3526 8.57918 31.4313 8.57918 31.5251C8.57918 31.6054 8.55729 31.6776 8.51352 31.7416C8.47023 31.805 8.41106 31.8551 8.33602 31.8916C8.26098 31.9282 8.1756 31.9465 8.07987 31.9465Z" fill="black"/>
<path d="M9.99121 21.5895H11.5151" stroke="black" stroke-width="0.169323"/>
<path d="M8.09701 21.6093C8.0364 21.6084 7.97579 21.5968 7.91518 21.5747C7.85457 21.5526 7.79925 21.5153 7.74922 21.4628C7.6992 21.4099 7.65903 21.3385 7.62872 21.2485C7.59842 21.1581 7.58327 21.0446 7.58327 20.908C7.58327 20.7771 7.59553 20.6612 7.62007 20.5602C7.6446 20.4587 7.68019 20.3733 7.72685 20.304C7.77351 20.2343 7.8298 20.1814 7.8957 20.1453C7.96208 20.1092 8.03688 20.0912 8.1201 20.0912C8.20283 20.0912 8.27643 20.1078 8.34089 20.141C8.40583 20.1737 8.45874 20.2194 8.49963 20.2781C8.54052 20.3367 8.56697 20.4043 8.579 20.4808H8.40294C8.38659 20.4144 8.35484 20.3594 8.3077 20.3156C8.26056 20.2718 8.19802 20.2499 8.1201 20.2499C8.00561 20.2499 7.91542 20.2997 7.84952 20.3993C7.7841 20.4989 7.75115 20.6386 7.75067 20.8185H7.76221C7.78915 20.7776 7.82114 20.7427 7.85818 20.7139C7.8957 20.6845 7.93706 20.6619 7.98228 20.6461C8.0275 20.6302 8.07536 20.6222 8.12587 20.6222C8.21053 20.6222 8.28798 20.6434 8.35821 20.6857C8.42844 20.7276 8.48472 20.7855 8.52705 20.8596C8.56938 20.9332 8.59054 21.0176 8.59054 21.1129C8.59054 21.2043 8.5701 21.288 8.52921 21.364C8.48833 21.4395 8.43084 21.4996 8.35676 21.5444C8.28317 21.5886 8.19658 21.6103 8.09701 21.6093ZM8.09701 21.4506C8.15762 21.4506 8.21197 21.4354 8.26008 21.4051C8.30866 21.3748 8.3469 21.3342 8.3748 21.2832C8.40318 21.2322 8.41737 21.1754 8.41737 21.1129C8.41737 21.0518 8.40366 20.9962 8.37625 20.9462C8.34931 20.8957 8.31203 20.8555 8.26441 20.8257C8.21727 20.7959 8.16339 20.781 8.10278 20.781C8.05708 20.781 8.01451 20.7901 7.97507 20.8084C7.93562 20.8262 7.90099 20.8507 7.87116 20.882C7.84182 20.9133 7.81873 20.9491 7.8019 20.9895C7.78506 21.0294 7.77664 21.0715 7.77664 21.1158C7.77664 21.1745 7.79035 21.2293 7.81777 21.2803C7.84567 21.3313 7.88367 21.3724 7.93177 21.4037C7.98036 21.4349 8.03544 21.4506 8.09701 21.4506Z" fill="black"/>
<path d="M9.99121 11.2522H11.5151" stroke="black" stroke-width="0.169323"/>
<path d="M8.0768 9.75402C8.13741 9.75451 8.19802 9.76605 8.25863 9.78866C8.31924 9.81127 8.37456 9.84879 8.42459 9.90122C8.47462 9.95317 8.51478 10.0241 8.54509 10.1141C8.57539 10.204 8.59054 10.3168 8.59054 10.4525C8.59054 10.5838 8.57804 10.7005 8.55302 10.8024C8.52849 10.9039 8.4929 10.9896 8.44624 11.0593C8.40006 11.129 8.34378 11.182 8.27739 11.218C8.21149 11.2541 8.13693 11.2722 8.05371 11.2722C7.97098 11.2722 7.89714 11.2558 7.8322 11.2231C7.76774 11.1899 7.71483 11.144 7.67346 11.0853C7.63257 11.0261 7.60636 10.9576 7.59481 10.8796H7.77087C7.78674 10.9475 7.81825 11.0035 7.86539 11.0478C7.91301 11.0915 7.97579 11.1134 8.05371 11.1134C8.16772 11.1134 8.25767 11.0636 8.32357 10.9641C8.38996 10.8645 8.42315 10.7238 8.42315 10.542H8.4116C8.38466 10.5824 8.35268 10.6172 8.31564 10.6466C8.2786 10.6759 8.23747 10.6985 8.19225 10.7144C8.14703 10.7303 8.09893 10.7382 8.04794 10.7382C7.96328 10.7382 7.88559 10.7173 7.81488 10.6754C7.74465 10.6331 7.68837 10.5751 7.64604 10.5015C7.60419 10.4275 7.58327 10.3428 7.58327 10.2476C7.58327 10.1571 7.60347 10.0744 7.64388 9.99935C7.68476 9.92383 7.74201 9.8637 7.8156 9.81896C7.88968 9.77423 7.97675 9.75258 8.0768 9.75402ZM8.0768 9.91276C8.01619 9.91276 7.9616 9.92792 7.91301 9.95822C7.86491 9.98805 7.82667 10.0285 7.79829 10.0794C7.77039 10.1299 7.75644 10.186 7.75644 10.2476C7.75644 10.3091 7.76991 10.3652 7.79684 10.4157C7.82426 10.4657 7.86154 10.5056 7.90868 10.5355C7.95631 10.5648 8.01042 10.5795 8.07103 10.5795C8.11673 10.5795 8.1593 10.5706 8.19875 10.5528C8.23819 10.5345 8.27258 10.5097 8.30193 10.4785C8.33175 10.4467 8.35508 10.4109 8.37192 10.3709C8.38875 10.3305 8.39717 10.2884 8.39717 10.2447C8.39717 10.187 8.38322 10.1328 8.35532 10.0823C8.3279 10.0318 8.2899 9.99093 8.24132 9.95966C8.19321 9.9284 8.13838 9.91276 8.0768 9.91276Z" fill="black"/>
<path d="M9.99219 0.915039H11.5161" stroke="black" stroke-width="0.169323"/>
<path d="M7.21946 0.522274V2H7.04051V0.709876H7.03186L6.67108 0.949429V0.7676L7.04051 0.522274H7.21946ZM7.64445 2V1.87012L8.13221 1.33618C8.18946 1.27364 8.2366 1.21929 8.27364 1.17311C8.31067 1.12645 8.33809 1.08267 8.35589 1.04179C8.37417 1.00042 8.38331 0.957126 8.38331 0.911909C8.38331 0.859958 8.3708 0.814981 8.34579 0.77698C8.32126 0.738979 8.28759 0.709636 8.24477 0.688951C8.20196 0.668267 8.15386 0.657925 8.10046 0.657925C8.0437 0.657925 7.99416 0.66971 7.95183 0.693281C7.90998 0.71637 7.87751 0.74884 7.85442 0.790689C7.83181 0.832539 7.8205 0.881604 7.8205 0.937885H7.65022C7.65022 0.851299 7.67018 0.775296 7.71011 0.709876C7.75003 0.644456 7.80439 0.593467 7.87318 0.556908C7.94245 0.52035 8.02013 0.502071 8.10624 0.502071C8.19282 0.502071 8.26955 0.52035 8.33641 0.556908C8.40327 0.593467 8.45571 0.642772 8.49371 0.704825C8.53171 0.766878 8.55071 0.835906 8.55071 0.911909C8.55071 0.966265 8.54085 1.01942 8.52113 1.07137C8.50188 1.12284 8.46821 1.18032 8.42011 1.24382C8.37249 1.30684 8.30635 1.3838 8.22168 1.47471L7.88977 1.82972V1.84126H8.57668V2H7.64445Z" fill="black"/>
<path d="M9.99023 42.3226L170 42.3226" stroke="black" stroke-width="0.169323"/>
<path d="M11.4434 43.8812V42.3225" stroke="black" stroke-width="0.169323"/>
<path d="M10.8736 55.4076L10.8736 55.1483L12.0959 55.1483C12.2065 55.1483 12.3011 55.1702 12.3796 55.214C12.4582 55.2572 12.5182 55.3181 12.5598 55.3967C12.6007 55.4752 12.6212 55.5673 12.6212 55.6728C12.6212 55.7699 12.6035 55.8571 12.5682 55.9346C12.5328 56.0115 12.4815 56.0724 12.4141 56.1172C12.3462 56.1616 12.2637 56.1838 12.1667 56.1838L12.1667 55.9253C12.2144 55.9253 12.2556 55.9144 12.2904 55.8925C12.3252 55.87 12.3524 55.8395 12.3721 55.8007C12.3911 55.7614 12.4007 55.7166 12.4007 55.666C12.4007 55.611 12.3892 55.5645 12.3662 55.5263C12.3426 55.4876 12.3081 55.4581 12.2626 55.4379C12.2172 55.4177 12.1616 55.4076 12.0959 55.4076L10.8736 55.4076ZM12.6263 54.4136C12.6263 54.4956 12.6111 54.5697 12.5808 54.6359C12.55 54.7021 12.5053 54.7546 12.447 54.7933C12.3886 54.8315 12.3171 54.8505 12.2323 54.8505C12.1594 54.8505 12.0993 54.8365 12.0522 54.8085C12.005 54.7804 11.9677 54.7425 11.9402 54.6948C11.9127 54.6471 11.8919 54.5938 11.8779 54.5349C11.8639 54.4759 11.8532 54.4159 11.8459 54.3547C11.8369 54.2773 11.8297 54.2144 11.824 54.1662C11.8179 54.1179 11.808 54.0828 11.7946 54.0609C11.7811 54.039 11.7592 54.0281 11.7289 54.0281L11.723 54.0281C11.6495 54.0281 11.5925 54.0489 11.5521 54.0904C11.5117 54.1314 11.4915 54.1925 11.4915 54.2739C11.4915 54.3587 11.5103 54.4254 11.5479 54.4743C11.585 54.5225 11.6262 54.5559 11.6717 54.5744L11.6178 54.811C11.5392 54.7829 11.4758 54.742 11.4275 54.6881C11.3787 54.6336 11.3434 54.5711 11.3215 54.5004C11.299 54.4296 11.2878 54.3553 11.2878 54.2773C11.2878 54.2256 11.294 54.1709 11.3063 54.1131C11.3181 54.0548 11.34 54.0003 11.372 53.9498C11.404 53.8987 11.4497 53.8569 11.5092 53.8244C11.5681 53.7918 11.6447 53.7756 11.739 53.7756L12.5977 53.7756L12.5977 54.0214L12.4209 54.0214L12.4209 54.0315C12.4534 54.0477 12.4854 54.0722 12.5168 54.1047C12.5483 54.1373 12.5744 54.1791 12.5951 54.2301C12.6159 54.2812 12.6263 54.3424 12.6263 54.4136ZM12.4242 54.3589C12.4242 54.2893 12.4105 54.2299 12.383 54.1805C12.3555 54.1305 12.3196 54.0926 12.2752 54.0668C12.2303 54.0404 12.1824 54.0273 12.1313 54.0273L11.9646 54.0273C11.9736 54.0362 11.982 54.0536 11.9899 54.0795C11.9972 54.1047 12.0036 54.1336 12.0092 54.1662C12.0143 54.1987 12.0191 54.2304 12.0235 54.2613C12.0275 54.2921 12.0308 54.318 12.0336 54.3387C12.0398 54.3876 12.0502 54.4322 12.0648 54.4726C12.0794 54.5124 12.1004 54.5444 12.1279 54.5685C12.1549 54.5921 12.1908 54.6039 12.2357 54.6039C12.298 54.6039 12.3451 54.5809 12.3771 54.5349C12.4085 54.4889 12.4242 54.4302 12.4242 54.3589ZM11.8299 53.1886L12.5977 53.1886L12.5977 53.4403L11.3046 53.4403L11.3046 53.1987L11.5151 53.1987L11.5151 53.1827C11.4466 53.153 11.3916 53.1064 11.3501 53.043C11.3086 52.979 11.2878 52.8985 11.2878 52.8014C11.2878 52.7133 11.3063 52.6361 11.3434 52.5699C11.3798 52.5037 11.4343 52.4523 11.5067 52.4158C11.5791 52.3794 11.6686 52.3611 11.7752 52.3611L12.5977 52.3611L12.5977 52.6128L11.8055 52.6128C11.7118 52.6128 11.6386 52.6372 11.5858 52.6861C11.5325 52.7349 11.5058 52.8019 11.5058 52.8872C11.5058 52.9456 11.5185 52.9975 11.5437 53.043C11.569 53.0879 11.606 53.1235 11.6548 53.1499C11.7031 53.1757 11.7615 53.1886 11.8299 53.1886ZM12.6238 51.4663C12.6238 51.5937 12.5965 51.7034 12.5421 51.7954C12.4871 51.8869 12.4099 51.9576 12.3106 52.0076C12.2107 52.057 12.0937 52.0816 11.9596 52.0816C11.8271 52.0816 11.7104 52.057 11.6094 52.0076C11.5084 51.9576 11.4295 51.888 11.3728 51.7988C11.3162 51.709 11.2878 51.6041 11.2878 51.484C11.2878 51.411 11.2999 51.3403 11.324 51.2718C11.3481 51.2034 11.386 51.1419 11.4377 51.0875C11.4893 51.033 11.5563 50.9901 11.6388 50.9587C11.7208 50.9273 11.8204 50.9115 11.9377 50.9115L12.0269 50.9115L12.0269 51.9394L11.8383 51.9394L11.8383 51.1582C11.7721 51.1582 11.7135 51.1717 11.6624 51.1986C11.6108 51.2255 11.5701 51.2634 11.5404 51.3122C11.5106 51.3605 11.4957 51.4172 11.4957 51.4823C11.4957 51.553 11.5131 51.6147 11.5479 51.6675C11.5822 51.7197 11.6271 51.7601 11.6826 51.7887C11.7376 51.8168 11.7974 51.8308 11.8619 51.8308L12.0092 51.8308C12.0957 51.8308 12.1692 51.8156 12.2298 51.7853C12.2904 51.7545 12.3367 51.7115 12.3687 51.6565C12.4001 51.6015 12.4158 51.5373 12.4158 51.4638C12.4158 51.4161 12.4091 51.3726 12.3956 51.3333C12.3816 51.294 12.3608 51.26 12.3333 51.2314C12.3058 51.2028 12.2719 51.1809 12.2315 51.1658L12.2744 50.9275C12.3446 50.9466 12.406 50.9808 12.4588 51.0302C12.511 51.0791 12.5516 51.1405 12.5808 51.2146C12.6094 51.2881 12.6238 51.372 12.6238 51.4663ZM11.4343 48.5528L11.4343 48.8154C11.3782 48.8255 11.3288 48.8443 11.2861 48.8718C11.2435 48.8993 11.2073 48.933 11.1775 48.9729C11.1478 49.0127 11.1253 49.0573 11.1102 49.1067C11.095 49.1555 11.0875 49.2074 11.0875 49.2624C11.0875 49.3618 11.1124 49.4507 11.1624 49.5293C11.2123 49.6073 11.2856 49.669 11.3821 49.7145C11.4786 49.7594 11.5965 49.7818 11.7356 49.7818C11.8759 49.7818 11.9944 49.7594 12.0909 49.7145C12.1874 49.669 12.2604 49.607 12.3098 49.5285C12.3591 49.4499 12.3838 49.3615 12.3838 49.2633C12.3838 49.2089 12.3765 49.1572 12.362 49.1084C12.3468 49.059 12.3246 49.0144 12.2954 48.9745C12.2663 48.9347 12.2306 48.901 12.1885 48.8735C12.1459 48.8455 12.0971 48.8261 12.0421 48.8154L12.0429 48.5528C12.1276 48.5668 12.2057 48.5941 12.2769 48.6345C12.3476 48.6743 12.4088 48.7257 12.4604 48.7885C12.5115 48.8508 12.5511 48.9221 12.5791 49.0023C12.6072 49.0826 12.6212 49.1701 12.6212 49.265C12.6212 49.4143 12.5859 49.5473 12.5152 49.664C12.4439 49.7807 12.342 49.8728 12.2096 49.9401C12.0771 50.0069 11.9192 50.0403 11.7356 50.0403C11.5516 50.0403 11.3936 50.0066 11.2617 49.9393C11.1293 49.8719 11.0277 49.7799 10.957 49.6631C10.8857 49.5464 10.8501 49.4137 10.8501 49.265C10.8501 49.1735 10.8633 49.0882 10.8896 49.0091C10.9155 48.9294 10.9536 48.8578 11.0041 48.7944C11.0541 48.731 11.1152 48.6785 11.1876 48.637C11.2595 48.5955 11.3417 48.5674 11.4343 48.5528ZM12.6137 48.0959C12.6137 48.1419 12.5974 48.1815 12.5648 48.2146C12.5317 48.2477 12.4919 48.2643 12.4453 48.2643C12.3993 48.2643 12.36 48.2477 12.3274 48.2146C12.2943 48.1815 12.2778 48.1419 12.2778 48.0959C12.2778 48.0499 12.2943 48.0103 12.3274 47.9772C12.36 47.9441 12.3993 47.9276 12.4453 47.9276C12.4762 47.9276 12.5045 47.9354 12.5303 47.9511C12.5556 47.9663 12.5758 47.9865 12.5909 48.0117C12.6061 48.037 12.6137 48.0651 12.6137 48.0959ZM12.6137 47.4246C12.6137 47.4706 12.5974 47.5102 12.5648 47.5433C12.5317 47.5764 12.4919 47.5929 12.4453 47.5929C12.3993 47.5929 12.36 47.5764 12.3274 47.5433C12.2943 47.5102 12.2778 47.4706 12.2778 47.4246C12.2778 47.3786 12.2943 47.339 12.3274 47.3059C12.36 47.2728 12.3993 47.2562 12.4453 47.2562C12.4762 47.2562 12.5045 47.2641 12.5303 47.2798C12.5556 47.2949 12.5758 47.3151 12.5909 47.3404C12.6061 47.3657 12.6137 47.3937 12.6137 47.4246ZM12.6137 46.7532C12.6137 46.7993 12.5974 46.8388 12.5648 46.8719C12.5317 46.905 12.4919 46.9216 12.4453 46.9216C12.3993 46.9216 12.36 46.905 12.3274 46.8719C12.2943 46.8388 12.2778 46.7993 12.2778 46.7532C12.2778 46.7072 12.2943 46.6677 12.3274 46.6345C12.36 46.6014 12.3993 46.5849 12.4453 46.5849C12.4762 46.5849 12.5045 46.5927 12.5303 46.6084C12.5556 46.6236 12.5758 46.6438 12.5909 46.6691C12.6061 46.6943 12.6137 46.7224 12.6137 46.7532Z" fill="#111827"/>
<path d="M26.5459 43.8812V42.3225" stroke="black" stroke-width="0.169323"/>
<path d="M26.5144 54.6458L26.5144 54.9084C26.4582 54.9185 26.4089 54.9373 26.3662 54.9648C26.3236 54.9923 26.2874 55.026 26.2576 55.0658C26.2279 55.1057 26.2054 55.1503 26.1903 55.1997C26.1751 55.2485 26.1675 55.3004 26.1675 55.3554C26.1675 55.4547 26.1925 55.5437 26.2425 55.6223C26.2924 55.7003 26.3656 55.762 26.4622 55.8075C26.5587 55.8524 26.6765 55.8748 26.8157 55.8748C26.956 55.8748 27.0744 55.8524 27.171 55.8075C27.2675 55.762 27.3405 55.7 27.3898 55.6214C27.4392 55.5429 27.4639 55.4545 27.4639 55.3563C27.4639 55.3018 27.4566 55.2502 27.442 55.2014C27.4269 55.152 27.4047 55.1074 27.3755 55.0675C27.3463 55.0277 27.3107 54.994 27.2686 54.9665C27.226 54.9384 27.1771 54.9191 27.1221 54.9084L27.123 54.6458C27.2077 54.6598 27.2857 54.687 27.357 54.7274C27.4277 54.7673 27.4889 54.8186 27.5405 54.8815C27.5916 54.9438 27.6312 55.015 27.6592 55.0953C27.6873 55.1756 27.7013 55.2631 27.7013 55.3579C27.7013 55.5072 27.6659 55.6402 27.5952 55.757C27.524 55.8737 27.4221 55.9657 27.2897 56.0331C27.1572 56.0999 26.9992 56.1332 26.8157 56.1332C26.6317 56.1332 26.4737 56.0996 26.3418 56.0322C26.2093 55.9649 26.1078 55.8728 26.0371 55.7561C25.9658 55.6394 25.9302 55.5067 25.9302 55.3579C25.9302 55.2665 25.9433 55.1812 25.9697 55.102C25.9955 55.0223 26.0337 54.9508 26.0842 54.8874C26.1341 54.824 26.1953 54.7715 26.2677 54.73C26.3395 54.6884 26.4218 54.6604 26.5144 54.6458ZM27.7038 53.8101C27.7038 53.9313 27.6761 54.0371 27.6205 54.1274C27.5649 54.2178 27.4872 54.2879 27.3873 54.3379C27.2874 54.3878 27.1707 54.4128 27.0371 54.4128C26.903 54.4128 26.7857 54.3878 26.6852 54.3379C26.5848 54.2879 26.5068 54.2178 26.4512 54.1274C26.3957 54.0371 26.3679 53.9313 26.3679 53.8101C26.3679 53.6889 26.3957 53.5831 26.4512 53.4927C26.5068 53.4024 26.5848 53.3322 26.6852 53.2823C26.7857 53.2323 26.903 53.2073 27.0371 53.2073C27.1707 53.2073 27.2874 53.2323 27.3873 53.2823C27.4872 53.3322 27.5649 53.4024 27.6205 53.4927C27.6761 53.5831 27.7038 53.6889 27.7038 53.8101ZM27.4925 53.8092C27.4925 53.7307 27.4718 53.6656 27.4302 53.6139C27.3887 53.5623 27.3334 53.5241 27.2644 53.4995C27.1954 53.4742 27.1193 53.4616 27.0363 53.4616C26.9538 53.4616 26.878 53.4742 26.809 53.4995C26.7394 53.5241 26.6836 53.5623 26.6415 53.6139C26.5994 53.6656 26.5783 53.7307 26.5783 53.8092C26.5783 53.8884 26.5994 53.954 26.6415 54.0062C26.6836 54.0578 26.7394 54.0963 26.809 54.1215C26.878 54.1462 26.9538 54.1586 27.0363 54.1586C27.1193 54.1586 27.1954 54.1462 27.2644 54.1215C27.3334 54.0963 27.3887 54.0578 27.4302 54.0062C27.4718 53.954 27.4925 53.8884 27.4925 53.8092ZM27.703 52.4424C27.703 52.5467 27.6763 52.6399 27.623 52.7218C27.5691 52.8032 27.4925 52.8672 27.3932 52.9138C27.2933 52.9598 27.1735 52.9828 27.0338 52.9828C26.894 52.9828 26.7745 52.9595 26.6751 52.9129C26.5758 52.8658 26.4998 52.8012 26.447 52.7193C26.3943 52.6374 26.3679 52.5445 26.3679 52.4407C26.3679 52.3604 26.3814 52.2959 26.4083 52.2471C26.4347 52.1977 26.4655 52.1595 26.5009 52.1326C26.5362 52.1051 26.5674 52.0837 26.5943 52.0686L26.5943 52.0534L25.9537 52.0534L25.9537 51.8017L27.6777 51.8017L27.6777 52.0476L27.4765 52.0476L27.4765 52.0686C27.504 52.0837 27.5355 52.1056 27.5708 52.1343C27.6062 52.1623 27.637 52.201 27.6634 52.2504C27.6898 52.2998 27.703 52.3638 27.703 52.4424ZM27.4883 52.3868C27.4883 52.3144 27.4692 52.2532 27.4311 52.2033C27.3924 52.1528 27.3388 52.1146 27.2703 52.0888C27.2018 52.0624 27.1221 52.0492 27.0312 52.0492C26.9414 52.0492 26.8629 52.0621 26.7955 52.088C26.7282 52.1138 26.6757 52.1517 26.6381 52.2016C26.6005 52.2515 26.5817 52.3133 26.5817 52.3868C26.5817 52.4626 26.6013 52.5257 26.6406 52.5762C26.6799 52.6267 26.7335 52.6649 26.8014 52.6907C26.8693 52.7159 26.9459 52.7286 27.0312 52.7286C27.1177 52.7286 27.1954 52.7157 27.2644 52.6898C27.3334 52.664 27.3882 52.6259 27.4286 52.5754C27.4684 52.5243 27.4883 52.4614 27.4883 52.3868ZM28.1626 51.2834C28.1626 51.321 28.1595 51.3552 28.1534 51.3861C28.1477 51.417 28.1416 51.44 28.1348 51.4551L27.9286 51.3945C27.9409 51.3485 27.9463 51.3075 27.9446 51.2716C27.9429 51.2357 27.9294 51.204 27.9042 51.1765C27.8789 51.1484 27.8377 51.1237 27.7804 51.1024L27.6946 51.0713L26.3847 51.5444L26.3847 51.275L27.3882 50.9475L27.3882 50.9341L26.3847 50.6066L26.3847 50.3364L27.8503 50.8692C27.9176 50.8939 27.9746 50.9254 28.0212 50.9635C28.0683 51.0017 28.1037 51.0471 28.1273 51.0999C28.1508 51.1526 28.1626 51.2138 28.1626 51.2834ZM27.6777 49.4523L25.9537 49.4523L25.9537 48.3832L26.1776 48.3832L26.1776 49.1922L26.7029 49.1922L26.7029 48.4598L26.926 48.4598L26.926 49.1922L27.6777 49.1922L27.6777 49.4523ZM27.6937 47.9987C27.6937 48.0447 27.6775 48.0843 27.6449 48.1174C27.6118 48.1505 27.5719 48.167 27.5254 48.167C27.4793 48.167 27.4401 48.1505 27.4075 48.1174C27.3744 48.0843 27.3578 48.0447 27.3578 47.9987C27.3578 47.9527 27.3744 47.9131 27.4075 47.88C27.4401 47.8469 27.4793 47.8303 27.5254 47.8303C27.5562 47.8303 27.5846 47.8382 27.6104 47.8539C27.6356 47.869 27.6558 47.8893 27.671 47.9145C27.6862 47.9398 27.6937 47.9678 27.6937 47.9987ZM27.6937 47.3274C27.6937 47.3734 27.6775 47.4129 27.6449 47.446C27.6118 47.4792 27.5719 47.4957 27.5254 47.4957C27.4793 47.4957 27.4401 47.4792 27.4075 47.446C27.3744 47.4129 27.3578 47.3734 27.3578 47.3274C27.3578 47.2813 27.3744 47.2418 27.4075 47.2087C27.4401 47.1755 27.4793 47.159 27.5254 47.159C27.5562 47.159 27.5846 47.1668 27.6104 47.1826C27.6356 47.1977 27.6558 47.2179 27.671 47.2432C27.6862 47.2684 27.6937 47.2965 27.6937 47.3274ZM27.6937 46.656C27.6937 46.702 27.6775 46.7416 27.6449 46.7747C27.6118 46.8078 27.5719 46.8244 27.5254 46.8244C27.4793 46.8244 27.4401 46.8078 27.4075 46.7747C27.3744 46.7416 27.3578 46.702 27.3578 46.656C27.3578 46.61 27.3744 46.5704 27.4075 46.5373C27.4401 46.5042 27.4793 46.4877 27.5254 46.4877C27.5562 46.4877 27.5846 46.4955 27.6104 46.5112C27.6356 46.5264 27.6558 46.5466 27.671 46.5718C27.6862 46.5971 27.6937 46.6251 27.6937 46.656Z" fill="#111827"/>
<path d="M41.6465 43.8812V42.3225" stroke="black" stroke-width="0.169323"/>
<path d="M42.7568 56.0777L41.0328 56.0777L41.0328 54.9968L41.2567 54.9968L41.2567 55.8176L41.782 55.8176L41.782 55.0532L42.0051 55.0532L42.0051 55.8176L42.5329 55.8176L42.5329 54.9867L42.7568 54.9867L42.7568 56.0777ZM41.7795 53.7006L41.8199 53.9288C41.7907 53.9383 41.7629 53.9535 41.7366 53.9742C41.7102 53.9944 41.6886 54.0219 41.6718 54.0567C41.6549 54.0915 41.6465 54.135 41.6465 54.1872C41.6465 54.2585 41.6625 54.318 41.6945 54.3657C41.7259 54.4134 41.7666 54.4372 41.8165 54.4372C41.8598 54.4372 41.8945 54.4212 41.9209 54.3892C41.9473 54.3572 41.9689 54.3056 41.9857 54.2343L42.0329 54.0289C42.0604 53.91 42.1028 53.8213 42.16 53.7629C42.2172 53.7046 42.2916 53.6754 42.3831 53.6754C42.4605 53.6754 42.5295 53.6978 42.5902 53.7427C42.6502 53.7871 42.6973 53.8491 42.7316 53.9288C42.7658 54.0079 42.7829 54.0997 42.7829 54.204C42.7829 54.3488 42.7521 54.467 42.6903 54.5584C42.628 54.6499 42.5397 54.706 42.4252 54.7268L42.3881 54.4835C42.4515 54.4684 42.4995 54.4372 42.5321 54.3901C42.5641 54.3429 42.5801 54.2815 42.5801 54.2057C42.5801 54.1232 42.5629 54.0573 42.5287 54.0079C42.4939 53.9585 42.4515 53.9338 42.4016 53.9338C42.3612 53.9338 42.3272 53.949 42.2997 53.9793C42.2722 54.009 42.2515 54.0548 42.2374 54.1165L42.1895 54.3354C42.162 54.456 42.1182 54.5453 42.0581 54.6031C41.9981 54.6603 41.922 54.6889 41.83 54.6889C41.7537 54.6889 41.6869 54.6676 41.6297 54.6249C41.5724 54.5823 41.5278 54.5234 41.4958 54.4482C41.4633 54.373 41.447 54.2868 41.447 54.1897C41.447 54.05 41.4773 53.94 41.5379 53.8597C41.598 53.7795 41.6785 53.7265 41.7795 53.7006ZM41.4638 52.7951L41.6659 52.7951L41.6659 53.5013L41.4638 53.5013L41.4638 52.7951ZM41.154 53.3119L41.154 53.0602L42.3772 53.0602C42.426 53.0602 42.4628 53.0529 42.4875 53.0384C42.5116 53.0238 42.5281 53.005 42.5371 52.982C42.5455 52.9584 42.5498 52.9328 42.5498 52.9053C42.5498 52.8851 42.5483 52.8675 42.5455 52.8523C42.5427 52.8372 42.5405 52.8254 42.5388 52.817L42.7467 52.7715C42.7523 52.7861 42.758 52.8069 42.7636 52.8338C42.7697 52.8607 42.7731 52.8944 42.7737 52.9348C42.7748 53.001 42.763 53.0628 42.7383 53.12C42.7136 53.1773 42.6755 53.2236 42.6238 53.2589C42.5722 53.2943 42.5074 53.3119 42.4294 53.3119L41.154 53.3119ZM41.9891 52.2372L42.7568 52.2372L42.7568 52.4889L41.0328 52.4889L41.0328 52.2405L41.6743 52.2405L41.6743 52.2245C41.6047 52.1942 41.5494 52.1479 41.5084 52.0856C41.4675 52.0233 41.447 51.942 41.447 51.8415C41.447 51.7528 41.4652 51.6754 41.5017 51.6092C41.5382 51.5424 41.5926 51.4908 41.665 51.4543C41.7369 51.4173 41.8266 51.3987 41.9344 51.3987L42.7568 51.3987L42.7568 51.6504L41.9647 51.6504C41.8699 51.6504 41.7963 51.6748 41.7441 51.7237C41.6914 51.7725 41.665 51.8404 41.665 51.9274C41.665 51.9869 41.6776 52.0402 41.7029 52.0873C41.7282 52.1339 41.7652 52.1707 41.814 52.1976C41.8623 52.224 41.9206 52.2372 41.9891 52.2372ZM42.7829 50.5056C42.7829 50.633 42.7557 50.7427 42.7013 50.8347C42.6463 50.9262 42.5691 50.9969 42.4698 51.0469C42.3699 51.0962 42.2529 51.1209 42.1187 51.1209C41.9863 51.1209 41.8696 51.0962 41.7686 51.0469C41.6675 50.9969 41.5887 50.9273 41.532 50.8381C41.4753 50.7483 41.447 50.6434 41.447 50.5233C41.447 50.4503 41.4591 50.3796 41.4832 50.3111C41.5073 50.2427 41.5452 50.1812 41.5968 50.1268C41.6485 50.0723 41.7155 50.0294 41.798 49.998C41.88 49.9665 41.9796 49.9508 42.0969 49.9508L42.1861 49.9508L42.1861 50.9787L41.9975 50.9787L41.9975 50.1975C41.9313 50.1975 41.8727 50.2109 41.8216 50.2379C41.77 50.2648 41.7293 50.3027 41.6995 50.3515C41.6698 50.3998 41.6549 50.4565 41.6549 50.5216C41.6549 50.5923 41.6723 50.654 41.7071 50.7068C41.7413 50.759 41.7862 50.7994 41.8418 50.828C41.8968 50.856 41.9566 50.8701 42.0211 50.8701L42.1684 50.8701C42.2548 50.8701 42.3284 50.8549 42.389 50.8246C42.4496 50.7938 42.4959 50.7508 42.5279 50.6958C42.5593 50.6408 42.575 50.5766 42.575 50.5031C42.575 50.4554 42.5683 50.4119 42.5548 50.3726C42.5408 50.3333 42.52 50.2993 42.4925 50.2707C42.465 50.2421 42.4311 50.2202 42.3907 50.2051L42.4336 49.9668C42.5037 49.9859 42.5652 50.0201 42.6179 50.0695C42.6701 50.1183 42.7108 50.1798 42.74 50.2539C42.7686 50.3274 42.7829 50.4113 42.7829 50.5056ZM42.7568 49.6716L41.4638 49.6716L41.4638 49.4283L41.6692 49.4283L41.6692 49.4148C41.5996 49.3912 41.5449 49.3497 41.5051 49.2902C41.4647 49.2302 41.4445 49.1623 41.4445 49.0865C41.4445 49.0708 41.445 49.0523 41.4461 49.0309C41.4473 49.0091 41.4487 48.9919 41.4504 48.9796L41.6911 48.9796C41.6883 48.9897 41.6852 49.0077 41.6819 49.0335C41.6779 49.0593 41.676 49.0851 41.676 49.1109C41.676 49.1704 41.6886 49.2234 41.7138 49.27C41.7385 49.316 41.773 49.3525 41.8174 49.3795C41.8612 49.4064 41.9111 49.4199 41.9672 49.4199L42.7568 49.4199L42.7568 49.6716ZM42.7728 47.9686C42.7728 48.0146 42.7566 48.0542 42.724 48.0873C42.6909 48.1204 42.651 48.137 42.6045 48.137C42.5585 48.137 42.5192 48.1204 42.4866 48.0873C42.4535 48.0542 42.437 48.0146 42.437 47.9686C42.437 47.9226 42.4535 47.883 42.4866 47.8499C42.5192 47.8168 42.5585 47.8002 42.6045 47.8002C42.6353 47.8002 42.6637 47.8081 42.6895 47.8238C42.7147 47.839 42.7349 47.8592 42.7501 47.8844C42.7653 47.9097 42.7728 47.9377 42.7728 47.9686ZM42.7728 47.2973C42.7728 47.3433 42.7566 47.3828 42.724 47.4159C42.6909 47.4491 42.651 47.4656 42.6045 47.4656C42.5585 47.4656 42.5192 47.4491 42.4866 47.4159C42.4535 47.3828 42.437 47.3433 42.437 47.2973C42.437 47.2512 42.4535 47.2117 42.4866 47.1786C42.5192 47.1454 42.5585 47.1289 42.6045 47.1289C42.6353 47.1289 42.6637 47.1368 42.6895 47.1525C42.7147 47.1676 42.7349 47.1878 42.7501 47.2131C42.7653 47.2383 42.7728 47.2664 42.7728 47.2973ZM42.7728 46.6259C42.7728 46.6719 42.7566 46.7115 42.724 46.7446C42.6909 46.7777 42.651 46.7943 42.6045 46.7943C42.5585 46.7943 42.5192 46.7777 42.4866 46.7446C42.4535 46.7115 42.437 46.6719 42.437 46.6259C42.437 46.5799 42.4535 46.5403 42.4866 46.5072C42.5192 46.4741 42.5585 46.4576 42.6045 46.4576C42.6353 46.4576 42.6637 46.4654 42.6895 46.4811C42.7147 46.4963 42.7349 46.5165 42.7501 46.5417C42.7653 46.567 42.7728 46.5951 42.7728 46.6259Z" fill="#111827"/>
<path d="M56.7461 43.8812V42.3225" stroke="black" stroke-width="0.169323"/>
<path d="M56.1119 55.4076L56.1119 55.1483L57.3342 55.1483C57.4448 55.1483 57.5393 55.1702 57.6179 55.214C57.6965 55.2572 57.7565 55.3181 57.7981 55.3967C57.839 55.4752 57.8595 55.5673 57.8595 55.6728C57.8595 55.7699 57.8418 55.8571 57.8065 55.9346C57.7711 56.0115 57.7198 56.0724 57.6524 56.1172C57.5845 56.1616 57.502 56.1838 57.4049 56.1838L57.4049 55.9253C57.4526 55.9253 57.4939 55.9144 57.5287 55.8925C57.5635 55.87 57.5907 55.8395 57.6103 55.8007C57.6294 55.7614 57.639 55.7166 57.639 55.666C57.639 55.611 57.6275 55.5645 57.6044 55.5263C57.5809 55.4876 57.5464 55.4581 57.5009 55.4379C57.4554 55.4177 57.3999 55.4076 57.3342 55.4076L56.1119 55.4076ZM57.862 54.2327C57.862 54.3601 57.8348 54.4698 57.7804 54.5618C57.7254 54.6533 57.6482 54.724 57.5489 54.7739C57.449 54.8233 57.332 54.848 57.1979 54.848C57.0654 54.848 56.9487 54.8233 56.8477 54.7739C56.7466 54.724 56.6678 54.6544 56.6111 54.5652C56.5544 54.4754 56.5261 54.3704 56.5261 54.2503C56.5261 54.1774 56.5382 54.1067 56.5623 54.0382C56.5864 53.9697 56.6243 53.9083 56.6759 53.8539C56.7276 53.7994 56.7946 53.7565 56.8771 53.7251C56.9591 53.6936 57.0587 53.6779 57.176 53.6779L57.2652 53.6779L57.2652 54.7058L57.0766 54.7058L57.0766 53.9246C57.0104 53.9246 56.9518 53.938 56.9007 53.965C56.8491 53.9919 56.8084 54.0298 56.7786 54.0786C56.7489 54.1269 56.734 54.1836 56.734 54.2487C56.734 54.3194 56.7514 54.3811 56.7862 54.4339C56.8204 54.486 56.8653 54.5265 56.9209 54.5551C56.9759 54.5831 57.0357 54.5972 57.1002 54.5972L57.2475 54.5972C57.3339 54.5972 57.4075 54.582 57.4681 54.5517C57.5287 54.5208 57.575 54.4779 57.607 54.4229C57.6384 54.3679 57.6541 54.3037 57.6541 54.2301C57.6541 54.1824 57.6474 54.1389 57.6339 54.0997C57.6199 54.0604 57.5991 54.0264 57.5716 53.9978C57.5441 53.9692 57.5102 53.9473 57.4698 53.9321L57.5127 53.6939C57.5828 53.713 57.6443 53.7472 57.697 53.7966C57.7492 53.8454 57.7899 53.9069 57.8191 53.981C57.8477 54.0545 57.862 54.1384 57.862 54.2327ZM57.0682 53.1469L57.8359 53.1469L57.8359 53.3986L56.5429 53.3986L56.5429 53.157L56.7534 53.157L56.7534 53.1411C56.6849 53.1113 56.6299 53.0647 56.5884 53.0013C56.5469 52.9373 56.5261 52.8568 56.5261 52.7597C56.5261 52.6716 56.5446 52.5944 56.5817 52.5282C56.6181 52.462 56.6726 52.4106 56.745 52.3742C56.8174 52.3377 56.9069 52.3195 57.0135 52.3195L57.8359 52.3195L57.8359 52.5712L57.0438 52.5712C56.9501 52.5712 56.8768 52.5956 56.8241 52.6444C56.7708 52.6932 56.7441 52.7603 56.7441 52.8456C56.7441 52.9039 56.7567 52.9559 56.782 53.0013C56.8073 53.0462 56.8443 53.0818 56.8931 53.1082C56.9414 53.134 56.9997 53.1469 57.0682 53.1469ZM57.0682 51.7302L57.8359 51.7302L57.8359 51.9819L56.5429 51.9819L56.5429 51.7403L56.7534 51.7403L56.7534 51.7243C56.6849 51.6946 56.6299 51.648 56.5884 51.5846C56.5469 51.5206 56.5261 51.44 56.5261 51.343C56.5261 51.2549 56.5446 51.1777 56.5817 51.1115C56.6181 51.0452 56.6726 50.9939 56.745 50.9574C56.8174 50.9209 56.9069 50.9027 57.0135 50.9027L57.8359 50.9027L57.8359 51.1544L57.0438 51.1544C56.9501 51.1544 56.8768 51.1788 56.8241 51.2276C56.7708 51.2765 56.7441 51.3435 56.7441 51.4288C56.7441 51.4872 56.7567 51.5391 56.782 51.5846C56.8073 51.6295 56.8443 51.6651 56.8931 51.6915C56.9414 51.7173 56.9997 51.7302 57.0682 51.7302ZM58.3208 50.4523C58.3208 50.4899 58.3177 50.5242 58.3116 50.555C58.3059 50.5859 58.2998 50.6089 58.293 50.6241L58.0868 50.5635C58.0991 50.5174 58.1045 50.4765 58.1028 50.4405C58.1011 50.4046 58.0876 50.3729 58.0624 50.3454C58.0371 50.3174 57.9959 50.2927 57.9386 50.2713L57.8528 50.2402L56.5429 50.7133L56.5429 50.4439L57.5464 50.1165L57.5464 50.103L56.5429 49.7755L56.5429 49.5053L58.0085 50.0382C58.0759 50.0629 58.1328 50.0943 58.1794 50.1324C58.2265 50.1706 58.2619 50.2161 58.2855 50.2688C58.309 50.3216 58.3208 50.3827 58.3208 50.4523ZM57.8519 48.4756C57.8519 48.5216 57.8357 48.5612 57.8031 48.5943C57.77 48.6274 57.7302 48.6439 57.6836 48.6439C57.6376 48.6439 57.5983 48.6274 57.5657 48.5943C57.5326 48.5612 57.5161 48.5216 57.5161 48.4756C57.5161 48.4296 57.5326 48.39 57.5657 48.3569C57.5983 48.3238 57.6376 48.3072 57.6836 48.3072C57.7144 48.3072 57.7428 48.3151 57.7686 48.3308C57.7938 48.3459 57.8141 48.3661 57.8292 48.3914C57.8444 48.4166 57.8519 48.4447 57.8519 48.4756ZM57.8519 47.8042C57.8519 47.8502 57.8357 47.8898 57.8031 47.9229C57.77 47.956 57.7302 47.9726 57.6836 47.9726C57.6376 47.9726 57.5983 47.956 57.5657 47.9229C57.5326 47.8898 57.5161 47.8502 57.5161 47.8042C57.5161 47.7582 57.5326 47.7186 57.5657 47.6855C57.5983 47.6524 57.6376 47.6359 57.6836 47.6359C57.7144 47.6359 57.7428 47.6437 57.7686 47.6594C57.7938 47.6746 57.8141 47.6948 57.8292 47.7201C57.8444 47.7453 57.8519 47.7734 57.8519 47.8042ZM57.8519 47.1329C57.8519 47.1789 57.8357 47.2185 57.8031 47.2516C57.77 47.2847 57.7302 47.3013 57.6836 47.3013C57.6376 47.3013 57.5983 47.2847 57.5657 47.2516C57.5326 47.2185 57.5161 47.1789 57.5161 47.1329C57.5161 47.0869 57.5326 47.0473 57.5657 47.0142C57.5983 46.9811 57.6376 46.9645 57.6836 46.9645C57.7144 46.9645 57.7428 46.9724 57.7686 46.9881C57.7938 47.0033 57.8141 47.0235 57.8292 47.0487C57.8444 47.074 57.8519 47.102 57.8519 47.1329Z" fill="#111827"/>
<path d="M71.8457 43.8812V42.3225" stroke="black" stroke-width="0.169323"/>
<path d="M71.9353 54.6458L71.9353 54.9084C71.8791 54.9185 71.8298 54.9373 71.7871 54.9648C71.7445 54.9923 71.7083 55.026 71.6785 55.0658C71.6488 55.1057 71.6263 55.1503 71.6112 55.1997C71.596 55.2485 71.5884 55.3004 71.5884 55.3554C71.5884 55.4547 71.6134 55.5437 71.6634 55.6223C71.7133 55.7003 71.7865 55.762 71.8831 55.8075C71.9796 55.8524 72.0974 55.8748 72.2366 55.8748C72.3769 55.8748 72.4953 55.8524 72.5919 55.8075C72.6884 55.762 72.7614 55.7 72.8107 55.6214C72.8601 55.5429 72.8848 55.4545 72.8848 55.3563C72.8848 55.3018 72.8775 55.2502 72.8629 55.2014C72.8478 55.152 72.8256 55.1074 72.7964 55.0675C72.7672 55.0277 72.7316 54.994 72.6895 54.9665C72.6469 54.9384 72.598 54.9191 72.543 54.9084L72.5439 54.6458C72.6286 54.6598 72.7066 54.687 72.7779 54.7274C72.8486 54.7673 72.9098 54.8186 72.9614 54.8815C73.0125 54.9438 73.0521 55.015 73.0801 55.0953C73.1082 55.1756 73.1222 55.2631 73.1222 55.3579C73.1222 55.5072 73.0868 55.6402 73.0161 55.757C72.9449 55.8737 72.843 55.9657 72.7106 56.0331C72.5781 56.0999 72.4201 56.1332 72.2366 56.1332C72.0526 56.1332 71.8946 56.0996 71.7627 56.0322C71.6302 55.9649 71.5287 55.8728 71.458 55.7561C71.3867 55.6394 71.351 55.5067 71.351 55.3579C71.351 55.2665 71.3642 55.1812 71.3906 55.102C71.4164 55.0223 71.4546 54.9508 71.5051 54.8874C71.555 54.824 71.6162 54.7715 71.6886 54.73C71.7604 54.6884 71.8427 54.6604 71.9353 54.6458ZM72.3309 54.103L73.0986 54.103L73.0986 54.3547L71.3746 54.3547L71.3746 54.1064L72.0161 54.1064L72.0161 54.0904C71.9465 54.0601 71.8912 54.0138 71.8502 53.9515C71.8093 53.8892 71.7888 53.8078 71.7888 53.7074C71.7888 53.6187 71.807 53.5413 71.8435 53.475C71.88 53.4083 71.9344 53.3566 72.0068 53.3201C72.0786 53.2831 72.1684 53.2646 72.2762 53.2646L73.0986 53.2646L73.0986 53.5163L72.3065 53.5163C72.2117 53.5163 72.1381 53.5407 72.0859 53.5895C72.0332 53.6383 72.0068 53.7063 72.0068 53.7932C72.0068 53.8527 72.0194 53.906 72.0447 53.9532C72.0699 53.9998 72.107 54.0365 72.1558 54.0635C72.2041 54.0898 72.2624 54.103 72.3309 54.103ZM73.0986 52.9287L71.8056 52.9287L71.8056 52.6854L72.011 52.6854L72.011 52.672C71.9414 52.6484 71.8867 52.6069 71.8469 52.5474C71.8065 52.4873 71.7863 52.4194 71.7863 52.3437C71.7863 52.3279 71.7868 52.3094 71.7879 52.2881C71.7891 52.2662 71.7905 52.2491 71.7922 52.2367L72.0329 52.2367C72.0301 52.2468 72.027 52.2648 72.0236 52.2906C72.0197 52.3164 72.0178 52.3423 72.0178 52.3681C72.0178 52.4276 72.0304 52.4806 72.0556 52.5272C72.0803 52.5732 72.1148 52.6097 72.1592 52.6366C72.203 52.6635 72.2529 52.677 72.309 52.677L73.0986 52.677L73.0986 52.9287ZM73.0986 52.0189L71.8056 52.0189L71.8056 51.7672L73.0986 51.7672L73.0986 52.0189ZM71.6061 51.8918C71.6061 51.9356 71.5915 51.9732 71.5623 52.0046C71.5326 52.0355 71.4972 52.0509 71.4563 52.0509C71.4147 52.0509 71.3794 52.0355 71.3502 52.0046C71.3205 51.9732 71.3056 51.9356 71.3056 51.8918C71.3056 51.848 71.3205 51.8107 71.3502 51.7799C71.3794 51.7484 71.4147 51.7327 71.4563 51.7327C71.4972 51.7327 71.5326 51.7484 71.5623 51.7799C71.5915 51.8107 71.6061 51.848 71.6061 51.8918ZM72.1213 50.4597L72.1617 50.6878C72.1325 50.6974 72.1047 50.7125 72.0784 50.7333C72.052 50.7535 72.0304 50.781 72.0135 50.8158C71.9967 50.8506 71.9883 50.8941 71.9883 50.9463C71.9883 51.0175 72.0043 51.077 72.0363 51.1247C72.0677 51.1724 72.1084 51.1963 72.1583 51.1963C72.2016 51.1963 72.2363 51.1803 72.2627 51.1483C72.2891 51.1163 72.3107 51.0647 72.3275 50.9934L72.3747 50.788C72.4022 50.669 72.4446 50.5804 72.5018 50.522C72.559 50.4636 72.6334 50.4344 72.7249 50.4344C72.8023 50.4344 72.8713 50.4569 72.932 50.5018C72.992 50.5461 73.0391 50.6081 73.0734 50.6878C73.1076 50.767 73.1247 50.8587 73.1247 50.9631C73.1247 51.1079 73.0939 51.226 73.0321 51.3175C72.9698 51.409 72.8814 51.4651 72.767 51.4859L72.7299 51.2426C72.7933 51.2274 72.8413 51.1963 72.8739 51.1491C72.9059 51.102 72.9219 51.0405 72.9219 50.9648C72.9219 50.8823 72.9047 50.8163 72.8705 50.767C72.8357 50.7176 72.7933 50.6929 72.7434 50.6929C72.703 50.6929 72.669 50.708 72.6415 50.7383C72.614 50.7681 72.5933 50.8138 72.5792 50.8756L72.5313 51.0944C72.5038 51.2151 72.46 51.3043 72.3999 51.3621C72.3399 51.4194 72.2638 51.448 72.1718 51.448C72.0955 51.448 72.0287 51.4267 71.9715 51.384C71.9142 51.3413 71.8696 51.2824 71.8376 51.2072C71.8051 51.132 71.7888 51.0459 71.7888 50.9488C71.7888 50.809 71.8191 50.6991 71.8797 50.6188C71.9398 50.5385 72.0203 50.4855 72.1213 50.4597ZM71.8056 49.5541L72.0077 49.5541L72.0077 50.2604L71.8056 50.2604L71.8056 49.5541ZM71.4958 50.071L71.4958 49.8193L72.719 49.8193C72.7678 49.8193 72.8046 49.812 72.8293 49.7974C72.8534 49.7828 72.8699 49.764 72.8789 49.741C72.8873 49.7174 72.8915 49.6919 72.8915 49.6644C72.8915 49.6442 72.8901 49.6265 72.8873 49.6114C72.8845 49.5962 72.8823 49.5844 72.8806 49.576L73.0885 49.5306C73.0941 49.5452 73.0998 49.5659 73.1054 49.5929C73.1115 49.6198 73.1149 49.6535 73.1155 49.6939C73.1166 49.7601 73.1048 49.8218 73.0801 49.8791C73.0554 49.9363 73.0173 49.9826 72.9656 50.018C72.914 50.0533 72.8492 50.071 72.7712 50.071L71.4958 50.071ZM73.1146 49.1099C73.1146 49.1559 73.0984 49.1955 73.0658 49.2286C73.0327 49.2617 72.9928 49.2782 72.9463 49.2782C72.9002 49.2782 72.861 49.2617 72.8284 49.2286C72.7953 49.1955 72.7787 49.1559 72.7787 49.1099C72.7787 49.0638 72.7953 49.0243 72.8284 48.9912C72.861 48.9581 72.9002 48.9415 72.9463 48.9415C72.9771 48.9415 73.0055 48.9494 73.0313 48.9651C73.0565 48.9802 73.0767 49.0004 73.0919 49.0257C73.1071 49.0509 73.1146 49.079 73.1146 49.1099ZM73.1146 48.4385C73.1146 48.4845 73.0984 48.5241 73.0658 48.5572C73.0327 48.5903 72.9928 48.6069 72.9463 48.6069C72.9002 48.6069 72.861 48.5903 72.8284 48.5572C72.7953 48.5241 72.7787 48.4845 72.7787 48.4385C72.7787 48.3925 72.7953 48.3529 72.8284 48.3198C72.861 48.2867 72.9002 48.2702 72.9463 48.2702C72.9771 48.2702 73.0055 48.278 73.0313 48.2937C73.0565 48.3089 73.0767 48.3291 73.0919 48.3543C73.1071 48.3796 73.1146 48.4077 73.1146 48.4385ZM73.1146 47.7672C73.1146 47.8132 73.0984 47.8528 73.0658 47.8859C73.0327 47.919 72.9928 47.9356 72.9463 47.9356C72.9002 47.9356 72.861 47.919 72.8284 47.8859C72.7953 47.8528 72.7787 47.8132 72.7787 47.7672C72.7787 47.7212 72.7953 47.6816 72.8284 47.6485C72.861 47.6154 72.9002 47.5988 72.9463 47.5988C72.9771 47.5988 73.0055 47.6067 73.0313 47.6224C73.0565 47.6376 73.0767 47.6578 73.0919 47.683C73.1071 47.7083 73.1146 47.7363 73.1146 47.7672Z" fill="#111827"/>
<path d="M86.9463 43.8812V42.3225" stroke="black" stroke-width="0.169323"/>
<path d="M87.0144 54.6458L87.0144 54.9084C86.9582 54.9185 86.9089 54.9373 86.8662 54.9648C86.8236 54.9923 86.7874 55.026 86.7576 55.0658C86.7279 55.1057 86.7054 55.1503 86.6903 55.1997C86.6751 55.2485 86.6675 55.3004 86.6675 55.3554C86.6675 55.4547 86.6925 55.5437 86.7425 55.6223C86.7924 55.7003 86.8656 55.762 86.9622 55.8075C87.0587 55.8524 87.1765 55.8748 87.3157 55.8748C87.456 55.8748 87.5744 55.8524 87.671 55.8075C87.7675 55.762 87.8405 55.7 87.8898 55.6214C87.9392 55.5429 87.9639 55.4545 87.9639 55.3563C87.9639 55.3018 87.9566 55.2502 87.942 55.2014C87.9269 55.152 87.9047 55.1074 87.8755 55.0675C87.8463 55.0277 87.8107 54.994 87.7686 54.9665C87.726 54.9384 87.6771 54.9191 87.6221 54.9084L87.623 54.6458C87.7077 54.6598 87.7857 54.687 87.857 54.7274C87.9277 54.7673 87.9889 54.8186 88.0405 54.8815C88.0916 54.9438 88.1312 55.015 88.1592 55.0953C88.1873 55.1756 88.2013 55.2631 88.2013 55.3579C88.2013 55.5072 88.1659 55.6402 88.0952 55.757C88.024 55.8737 87.9221 55.9657 87.7897 56.0331C87.6572 56.0999 87.4992 56.1332 87.3157 56.1332C87.1317 56.1332 86.9737 56.0996 86.8418 56.0322C86.7093 55.9649 86.6078 55.8728 86.5371 55.7561C86.4658 55.6394 86.4302 55.5067 86.4302 55.3579C86.4302 55.2665 86.4433 55.1812 86.4697 55.102C86.4955 55.0223 86.5337 54.9508 86.5842 54.8874C86.6341 54.824 86.6953 54.7715 86.7677 54.73C86.8395 54.6884 86.9218 54.6604 87.0144 54.6458ZM88.2064 53.9784C88.2064 54.0604 88.1912 54.1345 88.1609 54.2007C88.13 54.2669 88.0854 54.3194 88.0271 54.3581C87.9687 54.3963 87.8971 54.4153 87.8124 54.4153C87.7394 54.4153 87.6794 54.4013 87.6322 54.3732C87.5851 54.3452 87.5478 54.3073 87.5203 54.2596C87.4928 54.2119 87.472 54.1586 87.458 54.0997C87.444 54.0407 87.4333 53.9807 87.426 53.9195C87.417 53.8421 87.4097 53.7792 87.4041 53.7309C87.3979 53.6827 87.3881 53.6476 87.3747 53.6257C87.3612 53.6038 87.3393 53.5929 87.309 53.5929L87.3031 53.5929C87.2296 53.5929 87.1726 53.6137 87.1322 53.6552C87.0918 53.6962 87.0716 53.7573 87.0716 53.8387C87.0716 53.9234 87.0904 53.9902 87.128 54.039C87.165 54.0873 87.2063 54.1207 87.2518 54.1392L87.1979 54.3758C87.1193 54.3477 87.0559 54.3067 87.0076 54.2529C86.9588 54.1984 86.9234 54.1359 86.9016 54.0651C86.8791 53.9944 86.8679 53.9201 86.8679 53.8421C86.8679 53.7904 86.8741 53.7357 86.8864 53.6779C86.8982 53.6195 86.9201 53.5651 86.9521 53.5146C86.9841 53.4635 87.0298 53.4217 87.0893 53.3892C87.1482 53.3566 87.2248 53.3404 87.3191 53.3404L88.1777 53.3404L88.1777 53.5862L88.001 53.5862L88.001 53.5963C88.0335 53.6125 88.0655 53.6369 88.0969 53.6695C88.1283 53.702 88.1544 53.7439 88.1752 53.7949C88.196 53.846 88.2064 53.9072 88.2064 53.9784ZM88.0043 53.9237C88.0043 53.8541 87.9906 53.7946 87.9631 53.7453C87.9356 53.6953 87.8997 53.6574 87.8553 53.6316C87.8104 53.6052 87.7624 53.592 87.7114 53.592L87.5447 53.592C87.5537 53.601 87.5621 53.6184 87.57 53.6442C87.5772 53.6695 87.5837 53.6984 87.5893 53.7309C87.5944 53.7635 87.5991 53.7952 87.6036 53.8261C87.6076 53.8569 87.6109 53.8828 87.6137 53.9035C87.6199 53.9523 87.6303 53.997 87.6449 54.0374C87.6595 54.0772 87.6805 54.1092 87.708 54.1333C87.7349 54.1569 87.7709 54.1687 87.8158 54.1687C87.8781 54.1687 87.9252 54.1457 87.9572 54.0997C87.9886 54.0536 88.0043 53.995 88.0043 53.9237ZM88.1777 53.0051L86.8847 53.0051L86.8847 52.7635L87.0952 52.7635L87.0952 52.7475C87.0239 52.7206 86.9683 52.6765 86.9285 52.6153C86.8881 52.5542 86.8679 52.4809 86.8679 52.3956C86.8679 52.3092 86.8881 52.2368 86.9285 52.1785C86.9689 52.1195 87.0245 52.076 87.0952 52.048L87.0952 52.0345C87.0261 52.0036 86.9711 51.9545 86.9302 51.8872C86.8887 51.8198 86.8679 51.7396 86.8679 51.6464C86.8679 51.5291 86.9046 51.4335 86.9782 51.3594C87.0517 51.2847 87.1625 51.2474 87.3107 51.2474L88.1777 51.2474L88.1777 51.4991L87.3342 51.4991C87.2467 51.4991 87.1833 51.523 87.144 51.5707C87.1047 51.6184 87.0851 51.6753 87.0851 51.7416C87.0851 51.8235 87.1103 51.8872 87.1608 51.9326C87.2108 51.9781 87.275 52.0008 87.3536 52.0008L88.1777 52.0008L88.1777 52.2517L87.3183 52.2517C87.2481 52.2517 87.1917 52.2736 87.1491 52.3173C87.1064 52.3611 87.0851 52.4181 87.0851 52.4882C87.0851 52.5359 87.0977 52.58 87.123 52.6204C87.1476 52.6602 87.1822 52.6925 87.2265 52.7172C87.2708 52.7413 87.3222 52.7534 87.3805 52.7534L88.1777 52.7534L88.1777 53.0051ZM88.2038 50.3528C88.2038 50.4802 88.1766 50.5899 88.1222 50.6819C88.0672 50.7734 87.99 50.8441 87.8907 50.8941C87.7908 50.9435 87.6738 50.9681 87.5396 50.9681C87.4072 50.9681 87.2905 50.9435 87.1895 50.8941C87.0884 50.8441 87.0096 50.7745 86.9529 50.6853C86.8962 50.5955 86.8679 50.4906 86.8679 50.3705C86.8679 50.2975 86.88 50.2268 86.9041 50.1583C86.9282 50.0899 86.9661 50.0284 87.0177 49.974C87.0694 49.9195 87.1364 49.8766 87.2189 49.8452C87.3009 49.8138 87.4005 49.798 87.5178 49.798L87.607 49.798L87.607 50.8259L87.4184 50.8259L87.4184 50.0447C87.3522 50.0447 87.2936 50.0582 87.2425 50.0851C87.1909 50.112 87.1502 50.1499 87.1204 50.1987C87.0907 50.247 87.0758 50.3037 87.0758 50.3688C87.0758 50.4395 87.0932 50.5012 87.128 50.554C87.1622 50.6062 87.2071 50.6466 87.2627 50.6752C87.3177 50.7033 87.3775 50.7173 87.442 50.7173L87.5893 50.7173C87.6757 50.7173 87.7493 50.7021 87.8099 50.6718C87.8705 50.641 87.9168 50.598 87.9488 50.543C87.9802 50.488 87.9959 50.4238 87.9959 50.3503C87.9959 50.3026 87.9892 50.2591 87.9757 50.2198C87.9617 50.1805 87.9409 50.1465 87.9134 50.1179C87.8859 50.0893 87.852 50.0674 87.8115 50.0523L87.8545 49.814C87.9246 49.8331 87.9861 49.8674 88.0388 49.9167C88.091 49.9656 88.1317 50.027 88.1609 50.1011C88.1895 50.1746 88.2038 50.2585 88.2038 50.3528ZM88.1777 49.5188L86.8847 49.5188L86.8847 49.2755L87.0901 49.2755L87.0901 49.262C87.0205 49.2385 86.9658 49.1969 86.926 49.1374C86.8856 49.0774 86.8654 49.0095 86.8654 48.9337C86.8654 48.918 86.8659 48.8995 86.867 48.8782C86.8682 48.8563 86.8696 48.8392 86.8713 48.8268L87.112 48.8268C87.1092 48.8369 87.1061 48.8549 87.1028 48.8807C87.0988 48.9065 87.0969 48.9323 87.0969 48.9581C87.0969 49.0176 87.1095 49.0707 87.1347 49.1172C87.1594 49.1633 87.1939 49.1997 87.2383 49.2267C87.2821 49.2536 87.332 49.2671 87.3881 49.2671L88.1777 49.2671L88.1777 49.5188ZM88.1937 48.5913C88.1937 48.6373 88.1775 48.6769 88.1449 48.71C88.1118 48.7431 88.0719 48.7597 88.0254 48.7597C87.9793 48.7597 87.9401 48.7431 87.9075 48.71C87.8744 48.6769 87.8578 48.6373 87.8578 48.5913C87.8578 48.5453 87.8744 48.5057 87.9075 48.4726C87.9401 48.4395 87.9793 48.423 88.0254 48.423C88.0562 48.423 88.0846 48.4308 88.1104 48.4465C88.1356 48.4617 88.1558 48.4819 88.171 48.5071C88.1862 48.5324 88.1937 48.5605 88.1937 48.5913ZM88.1937 47.92C88.1937 47.966 88.1775 48.0056 88.1449 48.0387C88.1118 48.0718 88.0719 48.0883 88.0254 48.0883C87.9793 48.0883 87.9401 48.0718 87.9075 48.0387C87.8744 48.0056 87.8578 47.966 87.8578 47.92C87.8578 47.874 87.8744 47.8344 87.9075 47.8013C87.9401 47.7682 87.9793 47.7516 88.0254 47.7516C88.0562 47.7516 88.0846 47.7595 88.1104 47.7752C88.1356 47.7903 88.1558 47.8105 88.171 47.8358C88.1862 47.8611 88.1937 47.8891 88.1937 47.92ZM88.1937 47.2486C88.1937 47.2947 88.1775 47.3342 88.1449 47.3673C88.1118 47.4004 88.0719 47.417 88.0254 47.417C87.9793 47.417 87.9401 47.4004 87.9075 47.3673C87.8744 47.3342 87.8578 47.2947 87.8578 47.2486C87.8578 47.2026 87.8744 47.1631 87.9075 47.1299C87.9401 47.0968 87.9793 47.0803 88.0254 47.0803C88.0562 47.0803 88.0846 47.0881 88.1104 47.1039C88.1356 47.119 88.1558 47.1392 88.171 47.1645C88.1862 47.1897 88.1937 47.2178 88.1937 47.2486Z" fill="#111827"/>
<path d="M102.048 43.8812V42.3225" stroke="black" stroke-width="0.169323"/>
<path d="M101.534 55.4076L101.534 55.1483L102.756 55.1483C102.867 55.1483 102.961 55.1702 103.04 55.214C103.118 55.2572 103.178 55.3181 103.22 55.3967C103.261 55.4752 103.281 55.5673 103.281 55.6728C103.281 55.7699 103.264 55.8571 103.228 55.9346C103.193 56.0115 103.142 56.0724 103.074 56.1172C103.006 56.1616 102.924 56.1838 102.827 56.1838L102.827 55.9253C102.875 55.9253 102.916 55.9144 102.951 55.8925C102.985 55.87 103.013 55.8395 103.032 55.8007C103.051 55.7614 103.061 55.7166 103.061 55.666C103.061 55.611 103.049 55.5645 103.026 55.5263C103.003 55.4876 102.968 55.4581 102.923 55.4379C102.877 55.4177 102.822 55.4076 102.756 55.4076L101.534 55.4076ZM103.286 54.4136C103.286 54.4956 103.271 54.5697 103.241 54.6359C103.21 54.7021 103.165 54.7546 103.107 54.7933C103.049 54.8315 102.977 54.8505 102.892 54.8505C102.82 54.8505 102.759 54.8365 102.712 54.8085C102.665 54.7804 102.628 54.7425 102.6 54.6948C102.573 54.6471 102.552 54.5938 102.538 54.5349C102.524 54.4759 102.513 54.4159 102.506 54.3547C102.497 54.2773 102.49 54.2144 102.484 54.1662C102.478 54.1179 102.468 54.0828 102.455 54.0609C102.441 54.039 102.419 54.0281 102.389 54.0281L102.383 54.0281C102.31 54.0281 102.253 54.0489 102.212 54.0904C102.172 54.1314 102.152 54.1925 102.152 54.2739C102.152 54.3587 102.17 54.4254 102.208 54.4743C102.245 54.5225 102.286 54.5559 102.332 54.5744L102.278 54.811C102.199 54.7829 102.136 54.742 102.088 54.6881C102.039 54.6336 102.004 54.5711 101.982 54.5004C101.959 54.4296 101.948 54.3553 101.948 54.2773C101.948 54.2256 101.954 54.1709 101.966 54.1131C101.978 54.0548 102 54.0003 102.032 53.9498C102.064 53.8987 102.11 53.8569 102.169 53.8244C102.228 53.7918 102.305 53.7756 102.399 53.7756L103.258 53.7756L103.258 54.0214L103.081 54.0214L103.081 54.0315C103.114 54.0477 103.146 54.0722 103.177 54.1047C103.208 54.1373 103.235 54.1791 103.255 54.2301C103.276 54.2812 103.286 54.3424 103.286 54.4136ZM103.084 54.3589C103.084 54.2893 103.071 54.2299 103.043 54.1805C103.016 54.1305 102.98 54.0926 102.935 54.0668C102.891 54.0404 102.843 54.0273 102.791 54.0273L102.625 54.0273C102.634 54.0362 102.642 54.0536 102.65 54.0795C102.657 54.1047 102.664 54.1336 102.669 54.1662C102.674 54.1987 102.679 54.2304 102.684 54.2613C102.688 54.2921 102.691 54.318 102.694 54.3387C102.7 54.3876 102.71 54.4322 102.725 54.4726C102.74 54.5124 102.761 54.5444 102.788 54.5685C102.815 54.5921 102.851 54.6039 102.896 54.6039C102.958 54.6039 103.005 54.5809 103.037 54.5349C103.069 54.4889 103.084 54.4302 103.084 54.3589ZM102.49 53.1886L103.258 53.1886L103.258 53.4403L101.965 53.4403L101.965 53.1987L102.175 53.1987L102.175 53.1827C102.107 53.153 102.052 53.1064 102.01 53.043C101.969 52.979 101.948 52.8985 101.948 52.8014C101.948 52.7133 101.966 52.6361 102.004 52.5699C102.04 52.5037 102.094 52.4523 102.167 52.4158C102.239 52.3794 102.329 52.3611 102.435 52.3611L103.258 52.3611L103.258 52.6128L102.466 52.6128C102.372 52.6128 102.299 52.6372 102.246 52.6861C102.193 52.7349 102.166 52.8019 102.166 52.8872C102.166 52.9456 102.179 52.9975 102.204 53.043C102.229 53.0879 102.266 53.1235 102.315 53.1499C102.363 53.1757 102.422 53.1886 102.49 53.1886ZM103.284 51.4663C103.284 51.5937 103.257 51.7034 103.202 51.7954C103.147 51.8869 103.07 51.9576 102.971 52.0076C102.871 52.057 102.754 52.0816 102.62 52.0816C102.487 52.0816 102.371 52.057 102.27 52.0076C102.169 51.9576 102.09 51.888 102.033 51.7988C101.976 51.709 101.948 51.6041 101.948 51.484C101.948 51.411 101.96 51.3403 101.984 51.2718C102.008 51.2034 102.046 51.1419 102.098 51.0875C102.149 51.033 102.217 50.9901 102.299 50.9587C102.381 50.9273 102.481 50.9115 102.598 50.9115L102.687 50.9115L102.687 51.9394L102.499 51.9394L102.499 51.1582C102.432 51.1582 102.374 51.1717 102.323 51.1986C102.271 51.2255 102.23 51.2634 102.201 51.3122C102.171 51.3605 102.156 51.4172 102.156 51.4823C102.156 51.553 102.173 51.6147 102.208 51.6675C102.242 51.7197 102.287 51.7601 102.343 51.7887C102.398 51.8168 102.458 51.8308 102.522 51.8308L102.669 51.8308C102.756 51.8308 102.829 51.8156 102.89 51.7853C102.951 51.7545 102.997 51.7115 103.029 51.6565C103.06 51.6015 103.076 51.5373 103.076 51.4638C103.076 51.4161 103.069 51.3726 103.056 51.3333C103.042 51.294 103.021 51.26 102.993 51.2314C102.966 51.2028 102.932 51.1809 102.892 51.1658L102.935 50.9275C103.005 50.9466 103.066 50.9808 103.119 51.0302C103.171 51.0791 103.212 51.1405 103.241 51.2146C103.27 51.2881 103.284 51.372 103.284 51.4663ZM102.094 48.5528L102.094 48.8154C102.038 48.8255 101.989 48.8443 101.946 48.8718C101.904 48.8993 101.867 48.933 101.838 48.9729C101.808 49.0127 101.785 49.0573 101.77 49.1067C101.755 49.1555 101.748 49.2074 101.748 49.2624C101.748 49.3618 101.773 49.4507 101.823 49.5293C101.872 49.6073 101.946 49.669 102.042 49.7145C102.139 49.7594 102.257 49.7818 102.396 49.7818C102.536 49.7818 102.655 49.7594 102.751 49.7145C102.848 49.669 102.921 49.607 102.97 49.5285C103.019 49.4499 103.044 49.3615 103.044 49.2633C103.044 49.2089 103.037 49.1572 103.022 49.1084C103.007 49.059 102.985 49.0144 102.956 48.9745C102.926 48.9347 102.891 48.901 102.849 48.8735C102.806 48.8455 102.757 48.8261 102.702 48.8154L102.703 48.5528C102.788 48.5668 102.866 48.5941 102.937 48.6345C103.008 48.6743 103.069 48.7257 103.121 48.7885C103.172 48.8508 103.211 48.9221 103.239 49.0023C103.267 49.0826 103.281 49.1701 103.281 49.265C103.281 49.4143 103.246 49.5473 103.175 49.664C103.104 49.7807 103.002 49.8728 102.87 49.9401C102.737 50.0069 102.579 50.0403 102.396 50.0403C102.212 50.0403 102.054 50.0066 101.922 49.9393C101.789 49.8719 101.688 49.7799 101.617 49.6631C101.546 49.5464 101.51 49.4137 101.51 49.265C101.51 49.1735 101.523 49.0882 101.55 49.0091C101.576 48.9294 101.614 48.8578 101.664 48.7944C101.714 48.731 101.775 48.6785 101.848 48.637C101.92 48.5955 102.002 48.5674 102.094 48.5528ZM103.274 48.0959C103.274 48.1419 103.258 48.1815 103.225 48.2146C103.192 48.2477 103.152 48.2643 103.105 48.2643C103.059 48.2643 103.02 48.2477 102.988 48.2146C102.954 48.1815 102.938 48.1419 102.938 48.0959C102.938 48.0499 102.954 48.0103 102.988 47.9772C103.02 47.9441 103.059 47.9276 103.105 47.9276C103.136 47.9276 103.165 47.9354 103.19 47.9511C103.216 47.9663 103.236 47.9865 103.251 48.0117C103.266 48.037 103.274 48.0651 103.274 48.0959ZM103.274 47.4246C103.274 47.4706 103.258 47.5102 103.225 47.5433C103.192 47.5764 103.152 47.5929 103.105 47.5929C103.059 47.5929 103.02 47.5764 102.988 47.5433C102.954 47.5102 102.938 47.4706 102.938 47.4246C102.938 47.3786 102.954 47.339 102.988 47.3059C103.02 47.2728 103.059 47.2562 103.105 47.2562C103.136 47.2562 103.165 47.2641 103.19 47.2798C103.216 47.2949 103.236 47.3151 103.251 47.3404C103.266 47.3657 103.274 47.3937 103.274 47.4246ZM103.274 46.7532C103.274 46.7993 103.258 46.8388 103.225 46.8719C103.192 46.905 103.152 46.9216 103.105 46.9216C103.059 46.9216 103.02 46.905 102.988 46.8719C102.954 46.8388 102.938 46.7993 102.938 46.7532C102.938 46.7072 102.954 46.6677 102.988 46.6345C103.02 46.6014 103.059 46.5849 103.105 46.5849C103.136 46.5849 103.165 46.5927 103.19 46.6084C103.216 46.6236 103.236 46.6438 103.251 46.6691C103.266 46.6943 103.274 46.7224 103.274 46.7532Z" fill="#111827"/>
<path d="M117.148 43.8812V42.3225" stroke="black" stroke-width="0.169323"/>
<path d="M116.614 55.4076L116.614 55.1483L117.836 55.1483C117.947 55.1483 118.041 55.1702 118.12 55.214C118.198 55.2572 118.258 55.3181 118.3 55.3967C118.341 55.4752 118.361 55.5673 118.361 55.6728C118.361 55.7699 118.344 55.8571 118.308 55.9346C118.273 56.0115 118.222 56.0724 118.154 56.1172C118.086 56.1616 118.004 56.1838 117.907 56.1838L117.907 55.9253C117.955 55.9253 117.996 55.9144 118.031 55.8925C118.065 55.87 118.093 55.8395 118.112 55.8007C118.131 55.7614 118.141 55.7166 118.141 55.666C118.141 55.611 118.129 55.5645 118.106 55.5263C118.083 55.4876 118.048 55.4581 118.003 55.4379C117.957 55.4177 117.902 55.4076 117.836 55.4076L116.614 55.4076ZM118.367 54.4136C118.367 54.4956 118.351 54.5697 118.321 54.6359C118.29 54.7021 118.246 54.7546 118.187 54.7933C118.129 54.8315 118.057 54.8505 117.973 54.8505C117.9 54.8505 117.84 54.8365 117.792 54.8085C117.745 54.7804 117.708 54.7425 117.68 54.6948C117.653 54.6471 117.632 54.5938 117.618 54.5349C117.604 54.4759 117.593 54.4159 117.586 54.3547C117.577 54.2773 117.57 54.2144 117.564 54.1662C117.558 54.1179 117.548 54.0828 117.535 54.0609C117.521 54.039 117.499 54.0281 117.469 54.0281L117.463 54.0281C117.39 54.0281 117.333 54.0489 117.292 54.0904C117.252 54.1314 117.232 54.1925 117.232 54.2739C117.232 54.3587 117.251 54.4254 117.288 54.4743C117.325 54.5225 117.366 54.5559 117.412 54.5744L117.358 54.811C117.279 54.7829 117.216 54.742 117.168 54.6881C117.119 54.6336 117.084 54.5711 117.062 54.5004C117.039 54.4296 117.028 54.3553 117.028 54.2773C117.028 54.2256 117.034 54.1709 117.047 54.1131C117.058 54.0548 117.08 54.0003 117.112 53.9498C117.144 53.8987 117.19 53.8569 117.249 53.8244C117.308 53.7918 117.385 53.7756 117.479 53.7756L118.338 53.7756L118.338 54.0214L118.161 54.0214L118.161 54.0315C118.194 54.0477 118.226 54.0722 118.257 54.1047C118.289 54.1373 118.315 54.1791 118.335 54.2301C118.356 54.2812 118.367 54.3424 118.367 54.4136ZM118.164 54.3589C118.164 54.2893 118.151 54.2299 118.123 54.1805C118.096 54.1305 118.06 54.0926 118.015 54.0668C117.971 54.0404 117.923 54.0273 117.872 54.0273L117.705 54.0273C117.714 54.0362 117.722 54.0536 117.73 54.0795C117.737 54.1047 117.744 54.1336 117.749 54.1662C117.755 54.1987 117.759 54.2304 117.764 54.2613C117.768 54.2921 117.771 54.318 117.774 54.3387C117.78 54.3876 117.79 54.4322 117.805 54.4726C117.82 54.5124 117.841 54.5444 117.868 54.5685C117.895 54.5921 117.931 54.6039 117.976 54.6039C118.038 54.6039 118.085 54.5809 118.117 54.5349C118.149 54.4889 118.164 54.4302 118.164 54.3589ZM117.57 53.1886L118.338 53.1886L118.338 53.4403L117.045 53.4403L117.045 53.1987L117.255 53.1987L117.255 53.1827C117.187 53.153 117.132 53.1064 117.09 53.043C117.049 52.979 117.028 52.8985 117.028 52.8014C117.028 52.7133 117.047 52.6361 117.084 52.5699C117.12 52.5037 117.175 52.4523 117.247 52.4158C117.319 52.3794 117.409 52.3611 117.515 52.3611L118.338 52.3611L118.338 52.6128L117.546 52.6128C117.452 52.6128 117.379 52.6372 117.326 52.6861C117.273 52.7349 117.246 52.8019 117.246 52.8872C117.246 52.9456 117.259 52.9975 117.284 53.043C117.309 53.0879 117.346 53.1235 117.395 53.1499C117.443 53.1757 117.502 53.1886 117.57 53.1886ZM118.364 51.4663C118.364 51.5937 118.337 51.7034 118.282 51.7954C118.227 51.8869 118.15 51.9576 118.051 52.0076C117.951 52.057 117.834 52.0816 117.7 52.0816C117.567 52.0816 117.451 52.057 117.35 52.0076C117.249 51.9576 117.17 51.888 117.113 51.7988C117.056 51.709 117.028 51.6041 117.028 51.484C117.028 51.411 117.04 51.3403 117.064 51.2718C117.088 51.2034 117.126 51.1419 117.178 51.0875C117.23 51.033 117.297 50.9901 117.379 50.9587C117.461 50.9273 117.561 50.9115 117.678 50.9115L117.767 50.9115L117.767 51.9394L117.579 51.9394L117.579 51.1582C117.512 51.1582 117.454 51.1717 117.403 51.1986C117.351 51.2255 117.31 51.2634 117.281 51.3122C117.251 51.3605 117.236 51.4172 117.236 51.4823C117.236 51.553 117.253 51.6147 117.288 51.6675C117.322 51.7197 117.367 51.7601 117.423 51.7887C117.478 51.8168 117.538 51.8308 117.602 51.8308L117.749 51.8308C117.836 51.8308 117.909 51.8156 117.97 51.7853C118.031 51.7545 118.077 51.7115 118.109 51.6565C118.14 51.6015 118.156 51.5373 118.156 51.4638C118.156 51.4161 118.149 51.3726 118.136 51.3333C118.122 51.294 118.101 51.26 118.074 51.2314C118.046 51.2028 118.012 51.1809 117.972 51.1658L118.015 50.9275C118.085 50.9466 118.146 50.9808 118.199 51.0302C118.251 51.0791 118.292 51.1405 118.321 51.2146C118.35 51.2881 118.364 51.372 118.364 51.4663ZM117.175 48.5528L117.175 48.8154C117.118 48.8255 117.069 48.8443 117.026 48.8718C116.984 48.8993 116.948 48.933 116.918 48.9729C116.888 49.0127 116.866 49.0573 116.85 49.1067C116.835 49.1555 116.828 49.2074 116.828 49.2624C116.828 49.3618 116.853 49.4507 116.903 49.5293C116.953 49.6073 117.026 49.669 117.122 49.7145C117.219 49.7594 117.337 49.7818 117.476 49.7818C117.616 49.7818 117.735 49.7594 117.831 49.7145C117.928 49.669 118.001 49.607 118.05 49.5285C118.099 49.4499 118.124 49.3615 118.124 49.2633C118.124 49.2089 118.117 49.1572 118.102 49.1084C118.087 49.059 118.065 49.0144 118.036 48.9745C118.007 48.9347 117.971 48.901 117.929 48.8735C117.886 48.8455 117.837 48.8261 117.782 48.8154L117.783 48.5528C117.868 48.5668 117.946 48.5941 118.017 48.6345C118.088 48.6743 118.149 48.7257 118.201 48.7885C118.252 48.8508 118.291 48.9221 118.319 49.0023C118.347 49.0826 118.361 49.1701 118.361 49.265C118.361 49.4143 118.326 49.5473 118.255 49.664C118.184 49.7807 118.082 49.8728 117.95 49.9401C117.817 50.0069 117.659 50.0403 117.476 50.0403C117.292 50.0403 117.134 50.0066 117.002 49.9393C116.87 49.8719 116.768 49.7799 116.697 49.6631C116.626 49.5464 116.59 49.4137 116.59 49.265C116.59 49.1735 116.603 49.0882 116.63 49.0091C116.656 48.9294 116.694 48.8578 116.744 48.7944C116.794 48.731 116.855 48.6785 116.928 48.637C117 48.5955 117.082 48.5674 117.175 48.5528ZM118.354 48.0959C118.354 48.1419 118.338 48.1815 118.305 48.2146C118.272 48.2477 118.232 48.2643 118.186 48.2643C118.14 48.2643 118.1 48.2477 118.068 48.2146C118.035 48.1815 118.018 48.1419 118.018 48.0959C118.018 48.0499 118.035 48.0103 118.068 47.9772C118.1 47.9441 118.14 47.9276 118.186 47.9276C118.216 47.9276 118.245 47.9354 118.271 47.9511C118.296 47.9663 118.316 47.9865 118.331 48.0117C118.346 48.037 118.354 48.0651 118.354 48.0959ZM118.354 47.4246C118.354 47.4706 118.338 47.5102 118.305 47.5433C118.272 47.5764 118.232 47.5929 118.186 47.5929C118.14 47.5929 118.1 47.5764 118.068 47.5433C118.035 47.5102 118.018 47.4706 118.018 47.4246C118.018 47.3786 118.035 47.339 118.068 47.3059C118.1 47.2728 118.14 47.2562 118.186 47.2562C118.216 47.2562 118.245 47.2641 118.271 47.2798C118.296 47.2949 118.316 47.3151 118.331 47.3404C118.346 47.3657 118.354 47.3937 118.354 47.4246ZM118.354 46.7532C118.354 46.7993 118.338 46.8388 118.305 46.8719C118.272 46.905 118.232 46.9216 118.186 46.9216C118.14 46.9216 118.1 46.905 118.068 46.8719C118.035 46.8388 118.018 46.7993 118.018 46.7532C118.018 46.7072 118.035 46.6677 118.068 46.6345C118.1 46.6014 118.14 46.5849 118.186 46.5849C118.216 46.5849 118.245 46.5927 118.271 46.6084C118.296 46.6236 118.316 46.6438 118.331 46.6691C118.346 46.6943 118.354 46.7224 118.354 46.7532Z" fill="#111827"/>
<path d="M132.248 43.8812V42.3225" stroke="black" stroke-width="0.169323"/>
<path d="M131.692 55.4076L131.692 55.1483L132.914 55.1483C133.025 55.1483 133.119 55.1702 133.198 55.214C133.277 55.2572 133.337 55.3181 133.378 55.3967C133.419 55.4752 133.44 55.5673 133.44 55.6728C133.44 55.7699 133.422 55.8571 133.387 55.9346C133.351 56.0115 133.3 56.0724 133.233 56.1172C133.165 56.1616 133.082 56.1838 132.985 56.1838L132.985 55.9253C133.033 55.9253 133.074 55.9144 133.109 55.8925C133.144 55.87 133.171 55.8395 133.19 55.8007C133.209 55.7614 133.219 55.7166 133.219 55.666C133.219 55.611 133.208 55.5645 133.185 55.5263C133.161 55.4876 133.126 55.4581 133.081 55.4379C133.036 55.4177 132.98 55.4076 132.914 55.4076L131.692 55.4076ZM133.445 54.4136C133.445 54.4956 133.429 54.5697 133.399 54.6359C133.368 54.7021 133.324 54.7546 133.265 54.7933C133.207 54.8315 133.135 54.8505 133.051 54.8505C132.978 54.8505 132.918 54.8365 132.871 54.8085C132.823 54.7804 132.786 54.7425 132.759 54.6948C132.731 54.6471 132.71 54.5938 132.696 54.5349C132.682 54.4759 132.672 54.4159 132.664 54.3547C132.655 54.2773 132.648 54.2144 132.642 54.1662C132.636 54.1179 132.626 54.0828 132.613 54.0609C132.599 54.039 132.578 54.0281 132.547 54.0281L132.541 54.0281C132.468 54.0281 132.411 54.0489 132.37 54.0904C132.33 54.1314 132.31 54.1925 132.31 54.2739C132.31 54.3587 132.329 54.4254 132.366 54.4743C132.403 54.5225 132.445 54.5559 132.49 54.5744L132.436 54.811C132.358 54.7829 132.294 54.742 132.246 54.6881C132.197 54.6336 132.162 54.5711 132.14 54.5004C132.117 54.4296 132.106 54.3553 132.106 54.2773C132.106 54.2256 132.112 54.1709 132.125 54.1131C132.136 54.0548 132.158 54.0003 132.19 53.9498C132.222 53.8987 132.268 53.8569 132.328 53.8244C132.386 53.7918 132.463 53.7756 132.557 53.7756L133.416 53.7756L133.416 54.0214L133.239 54.0214L133.239 54.0315C133.272 54.0477 133.304 54.0722 133.335 54.1047C133.367 54.1373 133.393 54.1791 133.413 54.2301C133.434 54.2812 133.445 54.3424 133.445 54.4136ZM133.243 54.3589C133.243 54.2893 133.229 54.2299 133.201 54.1805C133.174 54.1305 133.138 54.0926 133.094 54.0668C133.049 54.0404 133.001 54.0273 132.95 54.0273L132.783 54.0273C132.792 54.0362 132.8 54.0536 132.808 54.0795C132.816 54.1047 132.822 54.1336 132.828 54.1662C132.833 54.1987 132.837 54.2304 132.842 54.2613C132.846 54.2921 132.849 54.318 132.852 54.3387C132.858 54.3876 132.869 54.4322 132.883 54.4726C132.898 54.5124 132.919 54.5444 132.946 54.5685C132.973 54.5921 133.009 54.6039 133.054 54.6039C133.116 54.6039 133.163 54.5809 133.195 54.5349C133.227 54.4889 133.243 54.4302 133.243 54.3589ZM132.648 53.1886L133.416 53.1886L133.416 53.4403L132.123 53.4403L132.123 53.1987L132.333 53.1987L132.333 53.1827C132.265 53.153 132.21 53.1064 132.168 53.043C132.127 52.979 132.106 52.8985 132.106 52.8014C132.106 52.7133 132.125 52.6361 132.162 52.5699C132.198 52.5037 132.253 52.4523 132.325 52.4158C132.397 52.3794 132.487 52.3611 132.594 52.3611L133.416 52.3611L133.416 52.6128L132.624 52.6128C132.53 52.6128 132.457 52.6372 132.404 52.6861C132.351 52.7349 132.324 52.8019 132.324 52.8872C132.324 52.9456 132.337 52.9975 132.362 53.043C132.387 53.0879 132.424 53.1235 132.473 53.1499C132.521 53.1757 132.58 53.1886 132.648 53.1886ZM133.442 51.4663C133.442 51.5937 133.415 51.7034 133.36 51.7954C133.305 51.8869 133.228 51.9576 133.129 52.0076C133.029 52.057 132.912 52.0816 132.778 52.0816C132.645 52.0816 132.529 52.057 132.428 52.0076C132.327 51.9576 132.248 51.888 132.191 51.7988C132.135 51.709 132.106 51.6041 132.106 51.484C132.106 51.411 132.118 51.3403 132.142 51.2718C132.166 51.2034 132.204 51.1419 132.256 51.0875C132.308 51.033 132.375 50.9901 132.457 50.9587C132.539 50.9273 132.639 50.9115 132.756 50.9115L132.845 50.9115L132.845 51.9394L132.657 51.9394L132.657 51.1582C132.59 51.1582 132.532 51.1717 132.481 51.1986C132.429 51.2255 132.388 51.2634 132.359 51.3122C132.329 51.3605 132.314 51.4172 132.314 51.4823C132.314 51.553 132.331 51.6147 132.366 51.6675C132.401 51.7197 132.445 51.7601 132.501 51.7887C132.556 51.8168 132.616 51.8308 132.68 51.8308L132.828 51.8308C132.914 51.8308 132.988 51.8156 133.048 51.7853C133.109 51.7545 133.155 51.7115 133.187 51.6565C133.218 51.6015 133.234 51.5373 133.234 51.4638C133.234 51.4161 133.227 51.3726 133.214 51.3333C133.2 51.294 133.179 51.26 133.152 51.2314C133.124 51.2028 133.09 51.1809 133.05 51.1658L133.093 50.9275C133.163 50.9466 133.224 50.9808 133.277 51.0302C133.329 51.0791 133.37 51.1405 133.399 51.2146C133.428 51.2881 133.442 51.372 133.442 51.4663ZM132.253 48.5528L132.253 48.8154C132.197 48.8255 132.147 48.8443 132.104 48.8718C132.062 48.8993 132.026 48.933 131.996 48.9729C131.966 49.0127 131.944 49.0573 131.929 49.1067C131.913 49.1555 131.906 49.2074 131.906 49.2624C131.906 49.3618 131.931 49.4507 131.981 49.5293C132.031 49.6073 132.104 49.669 132.2 49.7145C132.297 49.7594 132.415 49.7818 132.554 49.7818C132.694 49.7818 132.813 49.7594 132.909 49.7145C133.006 49.669 133.079 49.607 133.128 49.5285C133.178 49.4499 133.202 49.3615 133.202 49.2633C133.202 49.2089 133.195 49.1572 133.18 49.1084C133.165 49.059 133.143 49.0144 133.114 48.9745C133.085 48.9347 133.049 48.901 133.007 48.8735C132.964 48.8455 132.915 48.8261 132.86 48.8154L132.861 48.5528C132.946 48.5668 133.024 48.5941 133.095 48.6345C133.166 48.6743 133.227 48.7257 133.279 48.7885C133.33 48.8508 133.369 48.9221 133.397 49.0023C133.426 49.0826 133.44 49.1701 133.44 49.265C133.44 49.4143 133.404 49.5473 133.334 49.664C133.262 49.7807 133.16 49.8728 133.028 49.9401C132.896 50.0069 132.738 50.0403 132.554 50.0403C132.37 50.0403 132.212 50.0066 132.08 49.9393C131.948 49.8719 131.846 49.7799 131.775 49.6631C131.704 49.5464 131.668 49.4137 131.668 49.265C131.668 49.1735 131.682 49.0882 131.708 49.0091C131.734 48.9294 131.772 48.8578 131.822 48.7944C131.872 48.731 131.934 48.6785 132.006 48.637C132.078 48.5955 132.16 48.5674 132.253 48.5528ZM133.432 48.0959C133.432 48.1419 133.416 48.1815 133.383 48.2146C133.35 48.2477 133.31 48.2643 133.264 48.2643C133.218 48.2643 133.178 48.2477 133.146 48.2146C133.113 48.1815 133.096 48.1419 133.096 48.0959C133.096 48.0499 133.113 48.0103 133.146 47.9772C133.178 47.9441 133.218 47.9276 133.264 47.9276C133.295 47.9276 133.323 47.9354 133.349 47.9511C133.374 47.9663 133.394 47.9865 133.409 48.0117C133.424 48.037 133.432 48.0651 133.432 48.0959ZM133.432 47.4246C133.432 47.4706 133.416 47.5102 133.383 47.5433C133.35 47.5764 133.31 47.5929 133.264 47.5929C133.218 47.5929 133.178 47.5764 133.146 47.5433C133.113 47.5102 133.096 47.4706 133.096 47.4246C133.096 47.3786 133.113 47.339 133.146 47.3059C133.178 47.2728 133.218 47.2562 133.264 47.2562C133.295 47.2562 133.323 47.2641 133.349 47.2798C133.374 47.2949 133.394 47.3151 133.409 47.3404C133.424 47.3657 133.432 47.3937 133.432 47.4246ZM133.432 46.7532C133.432 46.7993 133.416 46.8388 133.383 46.8719C133.35 46.905 133.31 46.9216 133.264 46.9216C133.218 46.9216 133.178 46.905 133.146 46.8719C133.113 46.8388 133.096 46.7993 133.096 46.7532C133.096 46.7072 133.113 46.6677 133.146 46.6345C133.178 46.6014 133.218 46.5849 133.264 46.5849C133.295 46.5849 133.323 46.5927 133.349 46.6084C133.374 46.6236 133.394 46.6438 133.409 46.6691C133.424 46.6943 133.432 46.7224 133.432 46.7532Z" fill="#111827"/>
<path d="M147.349 43.8812V42.3225" stroke="black" stroke-width="0.169323"/>
<path d="M146.772 55.4076L146.772 55.1483L147.994 55.1483C148.105 55.1483 148.199 55.1702 148.278 55.214C148.357 55.2572 148.417 55.3181 148.458 55.3967C148.499 55.4752 148.52 55.5673 148.52 55.6728C148.52 55.7699 148.502 55.8571 148.467 55.9346C148.431 56.0115 148.38 56.0724 148.313 56.1172C148.245 56.1616 148.162 56.1838 148.065 56.1838L148.065 55.9253C148.113 55.9253 148.154 55.9144 148.189 55.8925C148.224 55.87 148.251 55.8395 148.27 55.8007C148.29 55.7614 148.299 55.7166 148.299 55.666C148.299 55.611 148.288 55.5645 148.265 55.5263C148.241 55.4876 148.207 55.4581 148.161 55.4379C148.116 55.4177 148.06 55.4076 147.994 55.4076L146.772 55.4076ZM148.525 54.4136C148.525 54.4956 148.51 54.5697 148.479 54.6359C148.448 54.7021 148.404 54.7546 148.345 54.7933C148.287 54.8315 148.215 54.8505 148.131 54.8505C148.058 54.8505 147.998 54.8365 147.951 54.8085C147.903 54.7804 147.866 54.7425 147.839 54.6948C147.811 54.6471 147.79 54.5938 147.776 54.5349C147.762 54.4759 147.752 54.4159 147.744 54.3547C147.735 54.2773 147.728 54.2144 147.722 54.1662C147.716 54.1179 147.706 54.0828 147.693 54.0609C147.68 54.039 147.658 54.0281 147.627 54.0281L147.621 54.0281C147.548 54.0281 147.491 54.0489 147.451 54.0904C147.41 54.1314 147.39 54.1925 147.39 54.2739C147.39 54.3587 147.409 54.4254 147.446 54.4743C147.483 54.5225 147.525 54.5559 147.57 54.5744L147.516 54.811C147.438 54.7829 147.374 54.742 147.326 54.6881C147.277 54.6336 147.242 54.5711 147.22 54.5004C147.197 54.4296 147.186 54.3553 147.186 54.2773C147.186 54.2256 147.192 54.1709 147.205 54.1131C147.217 54.0548 147.238 54.0003 147.27 53.9498C147.302 53.8987 147.348 53.8569 147.408 53.8244C147.467 53.7918 147.543 53.7756 147.637 53.7756L148.496 53.7756L148.496 54.0214L148.319 54.0214L148.319 54.0315C148.352 54.0477 148.384 54.0722 148.415 54.1047C148.447 54.1373 148.473 54.1791 148.494 54.2301C148.514 54.2812 148.525 54.3424 148.525 54.4136ZM148.323 54.3589C148.323 54.2893 148.309 54.2299 148.281 54.1805C148.254 54.1305 148.218 54.0926 148.174 54.0668C148.129 54.0404 148.081 54.0273 148.03 54.0273L147.863 54.0273C147.872 54.0362 147.88 54.0536 147.888 54.0795C147.896 54.1047 147.902 54.1336 147.908 54.1662C147.913 54.1987 147.917 54.2304 147.922 54.2613C147.926 54.2921 147.929 54.318 147.932 54.3387C147.938 54.3876 147.949 54.4322 147.963 54.4726C147.978 54.5124 147.999 54.5444 148.026 54.5685C148.053 54.5921 148.089 54.6039 148.134 54.6039C148.196 54.6039 148.244 54.5809 148.276 54.5349C148.307 54.4889 148.323 54.4302 148.323 54.3589ZM147.728 53.1886L148.496 53.1886L148.496 53.4403L147.203 53.4403L147.203 53.1987L147.414 53.1987L147.414 53.1827C147.345 53.153 147.29 53.1064 147.249 53.043C147.207 52.979 147.186 52.8985 147.186 52.8014C147.186 52.7133 147.205 52.6361 147.242 52.5699C147.278 52.5037 147.333 52.4523 147.405 52.4158C147.478 52.3794 147.567 52.3611 147.674 52.3611L148.496 52.3611L148.496 52.6128L147.704 52.6128C147.61 52.6128 147.537 52.6372 147.484 52.6861C147.431 52.7349 147.404 52.8019 147.404 52.8872C147.404 52.9456 147.417 52.9975 147.442 53.043C147.467 53.0879 147.504 53.1235 147.553 53.1499C147.602 53.1757 147.66 53.1886 147.728 53.1886ZM148.522 51.4663C148.522 51.5937 148.495 51.7034 148.441 51.7954C148.386 51.8869 148.308 51.9576 148.209 52.0076C148.109 52.057 147.992 52.0816 147.858 52.0816C147.726 52.0816 147.609 52.057 147.508 52.0076C147.407 51.9576 147.328 51.888 147.271 51.7988C147.215 51.709 147.186 51.6041 147.186 51.484C147.186 51.411 147.198 51.3403 147.222 51.2718C147.247 51.2034 147.284 51.1419 147.336 51.0875C147.388 51.033 147.455 50.9901 147.537 50.9587C147.619 50.9273 147.719 50.9115 147.836 50.9115L147.925 50.9115L147.925 51.9394L147.737 51.9394L147.737 51.1582C147.671 51.1582 147.612 51.1717 147.561 51.1986C147.509 51.2255 147.469 51.2634 147.439 51.3122C147.409 51.3605 147.394 51.4172 147.394 51.4823C147.394 51.553 147.412 51.6147 147.446 51.6675C147.481 51.7197 147.525 51.7601 147.581 51.7887C147.636 51.8168 147.696 51.8308 147.76 51.8308L147.908 51.8308C147.994 51.8308 148.068 51.8156 148.128 51.7853C148.189 51.7545 148.235 51.7115 148.267 51.6565C148.299 51.6015 148.314 51.5373 148.314 51.4638C148.314 51.4161 148.308 51.3726 148.294 51.3333C148.28 51.294 148.259 51.26 148.232 51.2314C148.204 51.2028 148.17 51.1809 148.13 51.1658L148.173 50.9275C148.243 50.9466 148.304 50.9808 148.357 51.0302C148.409 51.0791 148.45 51.1405 148.479 51.2146C148.508 51.2881 148.522 51.372 148.522 51.4663ZM147.333 48.5528L147.333 48.8154C147.277 48.8255 147.227 48.8443 147.185 48.8718C147.142 48.8993 147.106 48.933 147.076 48.9729C147.046 49.0127 147.024 49.0573 147.009 49.1067C146.993 49.1555 146.986 49.2074 146.986 49.2624C146.986 49.3618 147.011 49.4507 147.061 49.5293C147.111 49.6073 147.184 49.669 147.281 49.7145C147.377 49.7594 147.495 49.7818 147.634 49.7818C147.774 49.7818 147.893 49.7594 147.989 49.7145C148.086 49.669 148.159 49.607 148.208 49.5285C148.258 49.4499 148.282 49.3615 148.282 49.2633C148.282 49.2089 148.275 49.1572 148.26 49.1084C148.245 49.059 148.223 49.0144 148.194 48.9745C148.165 48.9347 148.129 48.901 148.087 48.8735C148.044 48.8455 147.996 48.8261 147.941 48.8154L147.941 48.5528C148.026 48.5668 148.104 48.5941 148.175 48.6345C148.246 48.6743 148.307 48.7257 148.359 48.7885C148.41 48.8508 148.45 48.9221 148.478 49.0023C148.506 49.0826 148.52 49.1701 148.52 49.265C148.52 49.4143 148.484 49.5473 148.414 49.664C148.342 49.7807 148.24 49.8728 148.108 49.9401C147.976 50.0069 147.818 50.0403 147.634 50.0403C147.45 50.0403 147.292 50.0066 147.16 49.9393C147.028 49.8719 146.926 49.7799 146.855 49.6631C146.784 49.5464 146.749 49.4137 146.749 49.265C146.749 49.1735 146.762 49.0882 146.788 49.0091C146.814 48.9294 146.852 48.8578 146.903 48.7944C146.953 48.731 147.014 48.6785 147.086 48.637C147.158 48.5955 147.24 48.5674 147.333 48.5528ZM148.512 48.0959C148.512 48.1419 148.496 48.1815 148.463 48.2146C148.43 48.2477 148.39 48.2643 148.344 48.2643C148.298 48.2643 148.258 48.2477 148.226 48.2146C148.193 48.1815 148.176 48.1419 148.176 48.0959C148.176 48.0499 148.193 48.0103 148.226 47.9772C148.258 47.9441 148.298 47.9276 148.344 47.9276C148.375 47.9276 148.403 47.9354 148.429 47.9511C148.454 47.9663 148.474 47.9865 148.489 48.0117C148.505 48.037 148.512 48.0651 148.512 48.0959ZM148.512 47.4246C148.512 47.4706 148.496 47.5102 148.463 47.5433C148.43 47.5764 148.39 47.5929 148.344 47.5929C148.298 47.5929 148.258 47.5764 148.226 47.5433C148.193 47.5102 148.176 47.4706 148.176 47.4246C148.176 47.3786 148.193 47.339 148.226 47.3059C148.258 47.2728 148.298 47.2562 148.344 47.2562C148.375 47.2562 148.403 47.2641 148.429 47.2798C148.454 47.2949 148.474 47.3151 148.489 47.3404C148.505 47.3657 148.512 47.3937 148.512 47.4246ZM148.512 46.7532C148.512 46.7993 148.496 46.8388 148.463 46.8719C148.43 46.905 148.39 46.9216 148.344 46.9216C148.298 46.9216 148.258 46.905 148.226 46.8719C148.193 46.8388 148.176 46.7993 148.176 46.7532C148.176 46.7072 148.193 46.6677 148.226 46.6345C148.258 46.6014 148.298 46.5849 148.344 46.5849C148.375 46.5849 148.403 46.5927 148.429 46.6084C148.454 46.6236 148.474 46.6438 148.489 46.6691C148.505 46.6943 148.512 46.7224 148.512 46.7532Z" fill="#111827"/>
<path d="M162.45 43.8812V42.3225" stroke="black" stroke-width="0.169323"/>
<path d="M161.851 55.4076L161.851 55.1483L163.073 55.1483C163.184 55.1483 163.279 55.1702 163.357 55.214C163.436 55.2572 163.496 55.3181 163.537 55.3967C163.578 55.4752 163.599 55.5673 163.599 55.6728C163.599 55.7699 163.581 55.8571 163.546 55.9346C163.51 56.0115 163.459 56.0724 163.392 56.1172C163.324 56.1616 163.241 56.1838 163.144 56.1838L163.144 55.9253C163.192 55.9253 163.233 55.9144 163.268 55.8925C163.303 55.87 163.33 55.8395 163.35 55.8007C163.369 55.7614 163.378 55.7166 163.378 55.666C163.378 55.611 163.367 55.5645 163.344 55.5263C163.32 55.4876 163.286 55.4581 163.24 55.4379C163.195 55.4177 163.139 55.4076 163.073 55.4076L161.851 55.4076ZM163.604 54.4136C163.604 54.4956 163.589 54.5697 163.558 54.6359C163.527 54.7021 163.483 54.7546 163.425 54.7933C163.366 54.8315 163.295 54.8505 163.21 54.8505C163.137 54.8505 163.077 54.8365 163.03 54.8085C162.983 54.7804 162.945 54.7425 162.918 54.6948C162.89 54.6471 162.869 54.5938 162.855 54.5349C162.841 54.4759 162.831 54.4159 162.823 54.3547C162.814 54.2773 162.807 54.2144 162.802 54.1662C162.795 54.1179 162.786 54.0828 162.772 54.0609C162.759 54.039 162.737 54.0281 162.706 54.0281L162.701 54.0281C162.627 54.0281 162.57 54.0489 162.53 54.0904C162.489 54.1314 162.469 54.1925 162.469 54.2739C162.469 54.3587 162.488 54.4254 162.525 54.4743C162.563 54.5225 162.604 54.5559 162.649 54.5744L162.595 54.811C162.517 54.7829 162.453 54.742 162.405 54.6881C162.356 54.6336 162.321 54.5711 162.299 54.5004C162.277 54.4296 162.265 54.3553 162.265 54.2773C162.265 54.2256 162.272 54.1709 162.284 54.1131C162.296 54.0548 162.318 54.0003 162.35 53.9498C162.382 53.8987 162.427 53.8569 162.487 53.8244C162.546 53.7918 162.622 53.7756 162.717 53.7756L163.575 53.7756L163.575 54.0214L163.398 54.0214L163.398 54.0315C163.431 54.0477 163.463 54.0722 163.494 54.1047C163.526 54.1373 163.552 54.1791 163.573 54.2301C163.593 54.2812 163.604 54.3424 163.604 54.4136ZM163.402 54.3589C163.402 54.2893 163.388 54.2299 163.361 54.1805C163.333 54.1305 163.297 54.0926 163.253 54.0668C163.208 54.0404 163.16 54.0273 163.109 54.0273L162.942 54.0273C162.951 54.0362 162.96 54.0536 162.967 54.0795C162.975 54.1047 162.981 54.1336 162.987 54.1662C162.992 54.1987 162.997 54.2304 163.001 54.2613C163.005 54.2921 163.008 54.318 163.011 54.3387C163.017 54.3876 163.028 54.4322 163.042 54.4726C163.057 54.5124 163.078 54.5444 163.105 54.5685C163.132 54.5921 163.168 54.6039 163.213 54.6039C163.276 54.6039 163.323 54.5809 163.355 54.5349C163.386 54.4889 163.402 54.4302 163.402 54.3589ZM162.807 53.1886L163.575 53.1886L163.575 53.4403L162.282 53.4403L162.282 53.1987L162.493 53.1987L162.493 53.1827C162.424 53.153 162.369 53.1064 162.328 53.043C162.286 52.979 162.265 52.8985 162.265 52.8014C162.265 52.7133 162.284 52.6361 162.321 52.5699C162.357 52.5037 162.412 52.4523 162.484 52.4158C162.557 52.3794 162.646 52.3611 162.753 52.3611L163.575 52.3611L163.575 52.6128L162.783 52.6128C162.689 52.6128 162.616 52.6372 162.563 52.6861C162.51 52.7349 162.483 52.8019 162.483 52.8872C162.483 52.9456 162.496 52.9975 162.521 53.043C162.547 53.0879 162.584 53.1235 162.632 53.1499C162.681 53.1757 162.739 53.1886 162.807 53.1886ZM163.601 51.4663C163.601 51.5937 163.574 51.7034 163.52 51.7954C163.465 51.8869 163.387 51.9576 163.288 52.0076C163.188 52.057 163.071 52.0816 162.937 52.0816C162.805 52.0816 162.688 52.057 162.587 52.0076C162.486 51.9576 162.407 51.888 162.35 51.7988C162.294 51.709 162.265 51.6041 162.265 51.484C162.265 51.411 162.277 51.3403 162.302 51.2718C162.326 51.2034 162.364 51.1419 162.415 51.0875C162.467 51.033 162.534 50.9901 162.616 50.9587C162.698 50.9273 162.798 50.9115 162.915 50.9115L163.004 50.9115L163.004 51.9394L162.816 51.9394L162.816 51.1582C162.75 51.1582 162.691 51.1717 162.64 51.1986C162.588 51.2255 162.548 51.2634 162.518 51.3122C162.488 51.3605 162.473 51.4172 162.473 51.4823C162.473 51.553 162.491 51.6147 162.525 51.6675C162.56 51.7197 162.605 51.7601 162.66 51.7887C162.715 51.8168 162.775 51.8308 162.839 51.8308L162.987 51.8308C163.073 51.8308 163.147 51.8156 163.207 51.7853C163.268 51.7545 163.314 51.7115 163.346 51.6565C163.378 51.6015 163.393 51.5373 163.393 51.4638C163.393 51.4161 163.387 51.3726 163.373 51.3333C163.359 51.294 163.338 51.26 163.311 51.2314C163.283 51.2028 163.249 51.1809 163.209 51.1658L163.252 50.9275C163.322 50.9466 163.384 50.9808 163.436 51.0302C163.488 51.0791 163.529 51.1405 163.558 51.2146C163.587 51.2881 163.601 51.372 163.601 51.4663ZM162.412 48.5528L162.412 48.8154C162.356 48.8255 162.306 48.8443 162.264 48.8718C162.221 48.8993 162.185 48.933 162.155 48.9729C162.125 49.0127 162.103 49.0573 162.088 49.1067C162.073 49.1555 162.065 49.2074 162.065 49.2624C162.065 49.3618 162.09 49.4507 162.14 49.5293C162.19 49.6073 162.263 49.669 162.36 49.7145C162.456 49.7594 162.574 49.7818 162.713 49.7818C162.853 49.7818 162.972 49.7594 163.068 49.7145C163.165 49.669 163.238 49.607 163.287 49.5285C163.337 49.4499 163.361 49.3615 163.361 49.2633C163.361 49.2089 163.354 49.1572 163.339 49.1084C163.324 49.059 163.302 49.0144 163.273 48.9745C163.244 48.9347 163.208 48.901 163.166 48.8735C163.123 48.8455 163.075 48.8261 163.02 48.8154L163.02 48.5528C163.105 48.5668 163.183 48.5941 163.254 48.6345C163.325 48.6743 163.386 48.7257 163.438 48.7885C163.489 48.8508 163.529 48.9221 163.557 49.0023C163.585 49.0826 163.599 49.1701 163.599 49.265C163.599 49.4143 163.563 49.5473 163.493 49.664C163.421 49.7807 163.32 49.8728 163.187 49.9401C163.055 50.0069 162.897 50.0403 162.713 50.0403C162.529 50.0403 162.371 50.0066 162.239 49.9393C162.107 49.8719 162.005 49.7799 161.935 49.6631C161.863 49.5464 161.828 49.4137 161.828 49.265C161.828 49.1735 161.841 49.0882 161.867 49.0091C161.893 48.9294 161.931 48.8578 161.982 48.7944C162.032 48.731 162.093 48.6785 162.165 48.637C162.237 48.5955 162.319 48.5674 162.412 48.5528ZM163.591 48.0959C163.591 48.1419 163.575 48.1815 163.542 48.2146C163.509 48.2477 163.469 48.2643 163.423 48.2643C163.377 48.2643 163.338 48.2477 163.305 48.2146C163.272 48.1815 163.255 48.1419 163.255 48.0959C163.255 48.0499 163.272 48.0103 163.305 47.9772C163.338 47.9441 163.377 47.9276 163.423 47.9276C163.454 47.9276 163.482 47.9354 163.508 47.9511C163.533 47.9663 163.553 47.9865 163.568 48.0117C163.584 48.037 163.591 48.0651 163.591 48.0959ZM163.591 47.4246C163.591 47.4706 163.575 47.5102 163.542 47.5433C163.509 47.5764 163.469 47.5929 163.423 47.5929C163.377 47.5929 163.338 47.5764 163.305 47.5433C163.272 47.5102 163.255 47.4706 163.255 47.4246C163.255 47.3786 163.272 47.339 163.305 47.3059C163.338 47.2728 163.377 47.2562 163.423 47.2562C163.454 47.2562 163.482 47.2641 163.508 47.2798C163.533 47.2949 163.553 47.3151 163.568 47.3404C163.584 47.3657 163.591 47.3937 163.591 47.4246ZM163.591 46.7532C163.591 46.7993 163.575 46.8388 163.542 46.8719C163.509 46.905 163.469 46.9216 163.423 46.9216C163.377 46.9216 163.338 46.905 163.305 46.8719C163.272 46.8388 163.255 46.7993 163.255 46.7532C163.255 46.7072 163.272 46.6677 163.305 46.6345C163.338 46.6014 163.377 46.5849 163.423 46.5849C163.454 46.5849 163.482 46.5927 163.508 46.6084C163.533 46.6236 163.553 46.6438 163.568 46.6691C163.584 46.6943 163.591 46.7224 163.591 46.7532Z" fill="#111827"/>
<path d="M11.5127 18.1438L26.7009 31.9267L41.8892 38.8181L57.0774 14.6981L72.2657 38.8181L87.4539 35.3724L102.642 7.80664L117.83 11.2524L133.019 28.4809L148.207 7.80664L163.395 38.8181" stroke="#D0D4DA"/>
<path d="M11.5127 21.5895L26.7009 38.8181L41.8892 31.9267L57.0774 42.2638L72.2657 28.481L87.4539 25.0352L102.642 11.2524H117.83L133.019 7.80664L148.207 31.9267L163.395 14.6981" stroke="#1F2937"/>
</g>
<defs>
<clipPath id="clip0_994_10682">
<rect width="170" height="64" fill="white"/>
</clipPath>
</defs>
</svg>
