<?xml version="1.0" encoding="UTF-8"?><svg id="Layer_1" xmlns="http://www.w3.org/2000/svg" viewBox="0 0 300 300"><defs><style>.cls-1{stroke:#182c60;}.cls-1,.cls-2{fill:none;stroke-linecap:round;stroke-linejoin:round;}.cls-3{fill:#5865f6;opacity:.1;}.cls-4{fill:#f2f3f4;}.cls-5{fill:#c1c7c9;}.cls-6{fill:#dadedf;}.cls-7{fill:#182c60;}.cls-2{stroke:#5865f6;stroke-width:4px;}</style></defs><path class="cls-1" d="m210.5,200.83c.4-.66.68-1.4.82-2.2,1.58-8.87,3.15-17.75,4.73-26.62,2.03-11.44,4.06-22.88,6.09-34.32.72-4.08,1.77-8.25,2.16-12.38.43-4.56-2.09-9.68-6.86-10.66-.01,0-.03,0-.04,0-2.4-.49-5.02-.22-7.45-.22h-44.22c-.52,0-2.33-.31-2.77,0l-24.28,17.22h-61.61c-3.97,0-6.99,3.56-6.34,7.47l9.75,59.42c.51,3.11,3.2,5.39,6.34,5.39h117.86"/><path class="cls-1" d="m207,114.43v-8.54c0-3.55-2.88-6.43-6.43-6.43h-17.19"/><path class="cls-1" d="m103.47,99.46h-15.12c-3.55,0-6.43,2.88-6.43,6.43v25.48"/><g><line class="cls-2" x1="114.12" y1="94.08" x2="144.84" y2="94.08"/><g><rect class="cls-6" x="112.61" y="102.43" width="18.97" height="3.2"/><rect class="cls-4" x="137.61" y="102.43" width="8.9" height="3.2"/></g></g><path class="cls-3" d="m164.98,81.46l-.08,16.28s.15,3.24.3,3.62.6,1.51,1.13,1.88,1.02.79,1.77,1.06.94.49,2.11.49,18.17.04,18.17.04l-23.41-23.37Z"/><path class="cls-1" d="m188.51,104.91v9.52"/><path class="cls-1" d="m103.53,131.37v-44.95c0-2.84,2.3-5.15,5.15-5.15,18.77,0,37.54,0,56.31,0"/><path class="cls-1" d="m165.01,81.27v18.35c0,2.84,2.31,5.15,5.15,5.15h18.35s-23.5-23.62-23.5-23.5Z"/><circle class="cls-1" cx="168.21" cy="163.27" r="24.96"/><circle class="cls-1" cx="168.21" cy="163.27" r="31.25"/><path class="cls-1" d="m192.57,183.33c9.62,9.62,30.28,30.28,30.28,30.28,1.17,1.17,1.17,3.07,0,4.24s-3.07,1.17-4.24,0c0,0-20.58-20.58-30.22-30.22"/><g><path class="cls-5" d="m168.66,170.93c-.74,0-1.34.24-1.81.72-.47.48-.71,1.09-.71,1.83s.24,1.32.71,1.81c.47.49,1.07.74,1.81.74s1.34-.25,1.81-.74c.47-.49.71-1.1.71-1.81s-.24-1.34-.71-1.83c-.47-.48-1.08-.72-1.81-.72Z"/><path class="cls-5" d="m174.69,153.77c-.62-1.02-1.49-1.82-2.6-2.4-1.12-.57-2.4-.86-3.85-.86-1.68,0-3.17.4-4.47,1.19s-2.29,1.94-2.98,3.43l2.76,2.28c.46-1.06,1.07-1.86,1.85-2.4.77-.54,1.65-.81,2.64-.81.76,0,1.41.14,1.97.41.55.28.98.67,1.28,1.17.3.51.45,1.1.45,1.79s-.16,1.29-.47,1.81c-.31.52-.75.92-1.31,1.21-.56.29-1.22.43-1.98.43h-.93v6.66h3.28l.26-3.73c.71-.24,1.37-.55,1.95-.93.99-.64,1.75-1.45,2.29-2.41.54-.97.81-2.07.81-3.31,0-1.33-.31-2.51-.93-3.54Z"/></g><path class="cls-1" d="m85.55,203.97c.68,2.89,3.26,4.96,6.26,4.96h117.73"/><path class="cls-1" d="m215.37,206.04c.47-.71.8-1.52.95-2.4,1.58-8.87,3.15-17.75,4.73-26.62,2.03-11.44,4.06-22.88,6.09-34.32.72-4.08,1.77-8.25,2.16-12.38.39-4.16-1.68-8.79-5.67-10.31"/><path class="cls-7" d="m223.51,120.08s.49,1.62.53,1.73.32,2.44.32,2.44l-.04,1.91-1.38,7.13-3.39,19.31-2.89,15.92-2.96,16.76-2.44,13.16-.92,2.65,4.98,5.15.85-2.15.81-4.06,1.48-8.33,2.82-15.71,2.15-12.11,1.94-11.36,2.75-14.75.88-4.69.28-2.58.07-2.12-.6-2.75-1.24-2.36-1.09-1.59-2.01-1.31-.92-.28Z"/><polygon class="cls-7" points="85.68 203.93 204.55 203.84 209.35 208.73 148.48 208.88 90.95 209.02 89.5 208.66 87.98 207.92 86.82 206.58 86.01 205.03 85.68 203.93"/></svg>