<?xml version="1.0" encoding="UTF-8"?><svg id="Layer_1" xmlns="http://www.w3.org/2000/svg" viewBox="0 0 300 300"><defs><style>.cls-1,.cls-2,.cls-3,.cls-4{fill:none;stroke-linecap:round;stroke-linejoin:round;}.cls-1,.cls-2,.cls-4{stroke:#182c60;}.cls-5{fill:#5865f6;opacity:.1;}.cls-2,.cls-6{fill-rule:evenodd;}.cls-7{fill:#f2f3f4;}.cls-8{fill:#c1c7c9;}.cls-9{fill:#dadedf;}.cls-3{stroke:#5865f6;stroke-width:4px;}.cls-6{fill:#182c60;}.cls-4{stroke-dasharray:0 0 2.51 2.51;}</style></defs><g><line class="cls-1" x1="123.76" y1="158" x2="122.51" y2="158"/><path class="cls-4" d="m120,158h-47.58c-3.55,0-6.43-2.88-6.43-6.43v-65.97c0-3.55,2.88-6.43,6.43-6.43h92.27c3.55,0,6.43,2.88,6.43,6.43v48.84"/><line class="cls-1" x1="171.12" y1="135.7" x2="171.12" y2="136.95"/></g><rect class="cls-1" x="123.81" y="137" width="105.13" height="78.82" rx="6.43" ry="6.43"/><circle class="cls-5" cx="118.55" cy="118.59" r="9.27"/><g><line class="cls-1" x1="118.55" y1="114.46" x2="118.55" y2="122.72"/><line class="cls-1" x1="114.42" y1="118.59" x2="122.69" y2="118.59"/></g><line class="cls-3" x1="163.44" y1="149.05" x2="189.31" y2="149.05"/><g><path class="cls-8" d="m144.38,173.3c-3.12,0-5.65-2.53-5.65-5.65s2.53-5.65,5.65-5.65,5.65,2.53,5.65,5.65-2.53,5.65-5.65,5.65Zm0-9.55c-2.15,0-3.9,1.75-3.9,3.9s1.75,3.9,3.9,3.9,3.9-1.75,3.9-3.9-1.75-3.9-3.9-3.9Z"/><path class="cls-9" d="m144.38,173.3c-.12,0-.24,0-.35-.01l.11-1.75c.08,0,.16,0,.24,0,2.15,0,3.9-1.75,3.9-3.9,0-1.94-1.45-3.6-3.37-3.86l.24-1.74c2.79.38,4.89,2.78,4.89,5.6,0,3.12-2.53,5.65-5.65,5.65Z"/><path class="cls-7" d="m148.75,171.23l-1.36-1.11c.57-.69.88-1.57.88-2.47,0-2.11-1.65-3.82-3.76-3.89l.06-1.75c3.06.1,5.46,2.58,5.46,5.65,0,1.3-.45,2.57-1.28,3.58Z"/></g><g><rect class="cls-9" x="138.26" y="191.17" width="2.23" height="4.88"/><rect class="cls-9" x="141.57" y="192.96" width="2.23" height="3.09"/><rect class="cls-9" x="144.88" y="189.52" width="2.23" height="6.53"/><rect class="cls-9" x="148.27" y="191.14" width="2.23" height="4.9"/><rect class="cls-7" x="138.26" y="194.67" width="2.23" height="1.37"/><rect class="cls-7" x="141.57" y="193.82" width="2.23" height="2.22"/><rect class="cls-7" x="144.88" y="193.01" width="2.23" height="3.04"/><rect class="cls-7" x="148.27" y="195.29" width="2.23" height=".76"/></g><g><path class="cls-7" d="m160.83,196.71h12.35v-7.86l-1.97,1.97h-4.14v1.12h-2.75l-3.48,4.76Z"/><path class="cls-9" d="m160.75,196.71h12.42v-7.2l-3.41,3.41h-1.05l-.48.48h-3.7l-1.21,1.21s-2.68,2.2-2.58,2.1Z"/><path class="cls-8" d="m160.75,196.71h12.42v-6l-1.66,1.97h-.93l-1.28,1.28h-3.68l-1.97,1.97s-2.9.7-2.9.77Z"/></g><g><path class="cls-9" d="m194.35,193.07c0,2.81-2.27,5.08-5.08,5.08s-5.08-2.27-5.08-5.08,2.27-5.08,5.08-5.08c.04,0,.07,0,.1,0v4.97h4.97s0,.07,0,.1Z"/><path class="cls-8" d="m194.92,192.35v.03h-4.97v-4.97h.03c.06,0,.13,0,.19,0,.04,0,.08,0,.12.01.05,0,.09,0,.14.01.02,0,.04,0,.06,0,.07,0,.14.02.21.03.08.01.16.03.24.05,0,0,.01,0,.01,0,.07.02.15.04.22.05.01,0,.03,0,.05.01.06.02.12.03.17.05.03,0,.05.01.07.02.06.02.12.04.18.06.08.03.15.06.22.09.08.03.16.07.23.11.07.03.13.07.2.1.07.04.14.08.21.12.07.04.14.09.2.13.13.09.25.18.37.28.31.26.59.55.83.87.03.03.05.06.07.1.03.04.05.08.08.12.04.06.08.12.12.18.04.05.07.11.1.17.09.15.16.31.23.47.03.07.06.15.09.22.02.06.04.11.06.17.01.03.02.05.03.08.02.07.04.14.06.21.02.07.04.14.05.21,0,.01,0,.03,0,.04.02.08.03.15.04.23.01.08.03.15.03.23,0,.01,0,.03,0,.04,0,.05.01.1.01.15,0,.04,0,.08.01.12,0,.06,0,.13,0,.19Z"/></g><g><circle class="cls-7" cx="195" cy="166.53" r=".57"/><circle class="cls-7" cx="193.89" cy="170.77" r=".57"/><circle class="cls-7" cx="193.33" cy="163.35" r=".57"/><circle class="cls-8" cx="186.23" cy="168.88" r=".7"/><circle class="cls-8" cx="189.97" cy="166.81" r="2.1"/><circle class="cls-9" cx="185.12" cy="163.77" r="1.59"/><circle class="cls-9" cx="190.84" cy="172.17" r=".95"/></g><line class="cls-1" x1="139.88" y1="177.54" x2="148.87" y2="177.54"/><line class="cls-1" x1="162.47" y1="177.54" x2="171.46" y2="177.54"/><line class="cls-1" x1="185.06" y1="177.54" x2="194.05" y2="177.54"/><line class="cls-1" x1="207.65" y1="177.54" x2="216.63" y2="177.54"/><line class="cls-1" x1="139.88" y1="202.76" x2="148.87" y2="202.76"/><line class="cls-1" x1="162.47" y1="202.76" x2="171.46" y2="202.76"/><line class="cls-1" x1="185.06" y1="202.76" x2="194.05" y2="202.76"/><line class="cls-1" x1="207.65" y1="202.76" x2="216.63" y2="202.76"/><g><rect class="cls-9" x="161.35" y="162.11" width="3.97" height="11.09"/><rect class="cls-8" x="165.94" y="162.11" width="3.97" height="7.09"/><rect class="cls-7" x="165.94" y="169.77" width="3.97" height="3.42"/><rect class="cls-7" x="170.53" y="162.11" width="2.04" height="2.71"/><rect class="cls-7" x="170.53" y="165.43" width="2.04" height="4.99"/><rect class="cls-8" x="170.53" y="171.03" width="2.04" height="2.17"/></g><polygon class="cls-7" points="210 169.23 214.3 169.23 212.15 172.95 210 169.23"/><polygon class="cls-9" points="216.25 165.85 214.64 168.64 209.66 168.64 208.05 165.85 216.25 165.85"/><polygon class="cls-8" points="217.96 162.88 216.59 165.25 207.7 165.25 206.33 162.88 217.96 162.88"/><rect class="cls-7" x="208.61" y="192.29" width=".5" height="3.18" transform="translate(-75.92 204.48) rotate(-45)"/><rect class="cls-7" x="209.67" y="192.43" width="6.46" height=".5" transform="translate(-73.72 210.14) rotate(-45.63)"/><polygon class="cls-7" points="216.82 196.23 215.34 190.66 215.82 190.53 217.3 196.1 216.82 196.23"/><circle class="cls-8" cx="207.3" cy="192.4" r=".7"/><circle class="cls-9" cx="210.24" cy="195.34" r=".7"/><circle class="cls-9" cx="215.41" cy="190.17" r=".7"/><circle class="cls-8" cx="217.13" cy="196.5" r=".7"/><circle class="cls-1" cx="118.55" cy="118.59" r="9.27"/><path class="cls-2" d="m229.02,142.17c2.82.68,4.92,3.22,4.92,6.25v65.97c0,3.55-2.88,6.43-6.43,6.43h-92.27c-3.03,0-5.56-2.09-6.25-4.9"/><path class="cls-6" d="m129.05,215.88s.42,1.84.92,2.4,1.76,1.55,1.76,1.55l2.47.99,44.96-.07h48.85s1.91-.21,1.91-.21l1.84-1.2,1.06-1.2.85-1.62.35-2.19v-24l-.07-41.86-.42-2.61-.99-1.62-1.41-1.13-2.33-.99.28,23.22-.14,21.18v21.6l-.21,3.25-.99,1.62-.85,1.06-1.55,1.34-2.96.42-11.22.07-56.75-.14-25.34.14Z"/></svg>