<svg width="94" height="94" viewBox="0 0 94 94" fill="none" xmlns="http://www.w3.org/2000/svg">
<path d="M92.2604 46.9995C92.2604 35.537 87.9111 24.5014 80.0906 16.121L47.3457 46.6779C47.4272 46.7652 47.4725 46.8801 47.4725 46.9995H92.2604Z" fill="#757980" stroke="white" stroke-width="0.270834"/>
<path d="M80.0919 16.121C75.8752 11.6024 70.7778 7.99536 65.1137 5.52214C59.4497 3.04893 53.3391 1.76198 47.1587 1.74063C40.9783 1.71927 34.859 2.96397 29.178 5.39799C23.497 7.83201 18.3748 11.4038 14.127 15.8931L46.6599 46.6755C46.7042 46.6288 46.7575 46.5916 46.8167 46.5662C46.8759 46.5409 46.9396 46.5279 47.004 46.5281C47.0684 46.5283 47.132 46.5417 47.191 46.5675C47.25 46.5933 47.3031 46.6308 47.347 46.6779L80.0919 16.121Z" fill="#1F2937" stroke="white" stroke-width="0.270834"/>
<path d="M14.1262 15.8931C8.64962 21.681 4.79821 28.8122 2.96127 36.5658C1.12433 44.3194 1.36697 52.4205 3.66466 60.0503L46.5502 47.1355C46.5262 47.056 46.5237 46.9716 46.5428 46.8908C46.562 46.8101 46.6021 46.7358 46.6591 46.6755L14.1262 15.8931Z" fill="#757980" stroke="white" stroke-width="0.270834"/>
<path d="M3.66309 60.0508C4.68626 63.4484 6.10544 66.7138 7.89138 69.7799L46.5926 47.2373C46.574 47.2054 46.5592 47.1714 46.5486 47.136L3.66309 60.0508Z" fill="#D0D4DA" stroke="white" stroke-width="0.270834"/>
<path d="M7.89258 69.7795C13.7345 79.8088 23.2062 87.2105 34.3502 90.4548C45.4942 93.6991 57.4588 92.5381 67.7711 87.2117L47.2176 47.4185C47.1101 47.474 46.9855 47.4861 46.8694 47.4523C46.7533 47.4185 46.6547 47.3414 46.5938 47.2369L7.89258 69.7795Z" fill="#E4E5E8" stroke="white" stroke-width="0.270834"/>
<path d="M67.7694 87.2119C71.8524 85.103 75.5905 82.3845 78.8549 79.15L47.3313 47.3347C47.2973 47.3684 47.2584 47.3967 47.2158 47.4187L67.7694 87.2119Z" fill="#D0D4DA" stroke="white" stroke-width="0.270834"/>
<path d="M78.8567 79.1499C87.3065 70.7776 92.1206 59.4153 92.2576 47.5209L47.4726 47.0051C47.4712 47.129 47.421 47.2474 47.333 47.3346L78.8567 79.1499Z" fill="#B5B8BD" stroke="white" stroke-width="0.270834"/>
<path d="M92.2576 47.5208C92.2596 47.3471 92.2606 47.1734 92.2606 46.9996H47.4727C47.4727 47.0014 47.4727 47.0033 47.4727 47.0051L92.2576 47.5208Z" fill="#D0D4DA" stroke="white" stroke-width="0.270834"/>
</svg>
