<svg width="170" height="66" viewBox="0 0 170 66" fill="none" xmlns="http://www.w3.org/2000/svg">
<g clip-path="url(#clip0_994_10829)">
<path d="M6.55859 55.9084H169.999" stroke="#1F2937" stroke-width="0.273312"/>
<path d="M18.2354 57.9595V55.9083" stroke="#1F2937" stroke-width="0.273312"/>
<path d="M18.6416 63.9047C18.4661 63.9047 18.3167 63.857 18.1932 63.7615C18.0697 63.6652 17.9754 63.5258 17.9102 63.3434C17.845 63.1601 17.8123 62.9388 17.8123 62.6795C17.8123 62.4217 17.845 62.2016 17.9102 62.0191C17.9762 61.8359 18.0709 61.6961 18.1944 61.5998C18.3186 61.5028 18.4677 61.4543 18.6416 61.4543C18.8155 61.4543 18.9642 61.5028 19.0877 61.5998C19.2119 61.6961 19.3066 61.8359 19.3719 62.0191C19.4379 62.2016 19.4709 62.4217 19.4709 62.6795C19.4709 62.9388 19.4382 63.1601 19.373 63.3434C19.3078 63.5258 19.2135 63.6652 19.09 63.7615C18.9665 63.857 18.8171 63.9047 18.6416 63.9047ZM18.6416 63.6485C18.8155 63.6485 18.9506 63.5647 19.0469 63.3969C19.1432 63.2292 19.1913 62.9901 19.1913 62.6795C19.1913 62.473 19.1692 62.2971 19.1249 62.1519C19.0815 62.0067 19.0186 61.8961 18.9363 61.82C18.8547 61.7439 18.7565 61.7058 18.6416 61.7058C18.4692 61.7058 18.3345 61.7908 18.2375 61.9609C18.1404 62.1302 18.0919 62.3697 18.0919 62.6795C18.0919 62.886 18.1136 63.0615 18.1571 63.2059C18.2006 63.3504 18.2631 63.4602 18.3446 63.5355C18.4269 63.6109 18.5259 63.6485 18.6416 63.6485Z" fill="#1F2937"/>
<path d="M41.582 57.9595V55.9083" stroke="#1F2937" stroke-width="0.273312"/>
<path d="M41.0859 61.4869V63.8721H40.7971V61.7897H40.7831L40.2007 62.1764V61.8829L40.7971 61.4869H41.0859Z" fill="#1F2937"/>
<path d="M64.9316 57.9596V55.9084" stroke="#1F2937" stroke-width="0.273312"/>
<path d="M64.0919 63.8722V63.6625L64.8792 62.8007C64.9716 62.6997 65.0477 62.612 65.1075 62.5375C65.1673 62.4622 65.2116 62.3915 65.2403 62.3255C65.2698 62.2587 65.2845 62.1888 65.2845 62.1159C65.2845 62.032 65.2644 61.9594 65.224 61.8981C65.1844 61.8367 65.13 61.7894 65.0609 61.756C64.9918 61.7226 64.9142 61.7059 64.828 61.7059C64.7364 61.7059 64.6564 61.7249 64.5881 61.763C64.5205 61.8002 64.4681 61.8526 64.4308 61.9202C64.3943 61.9877 64.3761 62.0669 64.3761 62.1578H64.1012C64.1012 62.018 64.1335 61.8953 64.1979 61.7897C64.2623 61.6841 64.3501 61.6018 64.4611 61.5428C64.5729 61.4838 64.6983 61.4543 64.8373 61.4543C64.9771 61.4543 65.1009 61.4838 65.2088 61.5428C65.3168 61.6018 65.4014 61.6814 65.4627 61.7816C65.5241 61.8818 65.5548 61.9932 65.5548 62.1159C65.5548 62.2036 65.5388 62.2894 65.507 62.3732C65.4759 62.4563 65.4216 62.5491 65.3439 62.6516C65.2671 62.7533 65.1603 62.8776 65.0237 63.0243L64.4879 63.5973V63.616H65.5967V63.8722H64.0919Z" fill="#1F2937"/>
<path d="M88.2803 57.9595V55.9083" stroke="#1F2937" stroke-width="0.273312"/>
<path d="M88.6953 63.9047C88.5415 63.9047 88.4045 63.8783 88.2841 63.8255C88.1646 63.7727 88.0694 63.6994 87.9988 63.6054C87.9289 63.5107 87.8909 63.4008 87.8846 63.2758H88.1781C88.1844 63.3527 88.2108 63.4191 88.2573 63.475C88.3039 63.5301 88.3649 63.5728 88.4402 63.6031C88.5155 63.6334 88.599 63.6485 88.6906 63.6485C88.7931 63.6485 88.8839 63.6307 88.9631 63.5949C89.0423 63.5592 89.1044 63.5095 89.1495 63.4459C89.1945 63.3822 89.217 63.3084 89.217 63.2246C89.217 63.1368 89.1953 63.0596 89.1518 62.9928C89.1083 62.9252 89.0447 62.8724 88.9608 62.8344C88.8769 62.7964 88.7745 62.7773 88.6533 62.7773H88.4623V62.5211H88.6533C88.7481 62.5211 88.8311 62.504 88.9026 62.4699C88.9748 62.4357 89.0311 62.3876 89.0715 62.3254C89.1126 62.2633 89.1332 62.1903 89.1332 62.1065C89.1332 62.0257 89.1153 61.9555 89.0796 61.8957C89.0439 61.8359 88.9934 61.7893 88.9282 61.7559C88.8637 61.7225 88.7877 61.7058 88.6999 61.7058C88.6176 61.7058 88.54 61.721 88.467 61.7512C88.3948 61.7808 88.3358 61.8238 88.2899 61.8805C88.2441 61.9364 88.2193 62.004 88.2154 62.0832H87.9359C87.9405 61.9582 87.9782 61.8487 88.0489 61.7547C88.1195 61.66 88.2119 61.5862 88.3261 61.5335C88.441 61.4807 88.5671 61.4543 88.7046 61.4543C88.8521 61.4543 88.9787 61.4841 89.0843 61.5439C89.1899 61.6029 89.271 61.681 89.3277 61.778C89.3844 61.8751 89.4127 61.9799 89.4127 62.0925C89.4127 62.2268 89.3774 62.3414 89.3067 62.4361C89.2368 62.5308 89.1417 62.5964 89.0214 62.6329V62.6515C89.172 62.6764 89.2896 62.7404 89.3743 62.8437C89.4589 62.9462 89.5012 63.0732 89.5012 63.2246C89.5012 63.3542 89.4659 63.4707 89.3952 63.574C89.3254 63.6765 89.2298 63.7572 89.1087 63.8162C88.9876 63.8752 88.8498 63.9047 88.6953 63.9047Z" fill="#1F2937"/>
<path d="M111.628 57.9595V55.9083" stroke="#1F2937" stroke-width="0.273312"/>
<path d="M111.174 63.383V63.1454L112.222 61.4869H112.395V61.8549H112.278L111.486 63.1081V63.1267H112.898V63.383H111.174ZM112.297 63.8721V63.3108V63.2001V61.4869H112.572V63.8721H112.297Z" fill="#1F2937"/>
<path d="M134.978 57.9595V55.9083" stroke="#1F2937" stroke-width="0.273312"/>
<path d="M134.878 63.9047C134.742 63.9047 134.619 63.8776 134.509 63.8232C134.4 63.7689 134.312 63.6943 134.246 63.5996C134.18 63.5049 134.144 63.3969 134.138 63.2758H134.417C134.428 63.3837 134.477 63.473 134.564 63.5437C134.652 63.6136 134.756 63.6485 134.878 63.6485C134.976 63.6485 135.063 63.6256 135.139 63.5798C135.216 63.534 135.276 63.4711 135.32 63.3911C135.364 63.3104 135.386 63.2191 135.386 63.1174C135.386 63.0134 135.363 62.9206 135.317 62.8391C135.272 62.7568 135.21 62.6919 135.131 62.6446C135.052 62.5972 134.961 62.5731 134.86 62.5723C134.787 62.5716 134.712 62.5828 134.635 62.6061C134.558 62.6286 134.495 62.6578 134.445 62.6935L134.175 62.6609L134.319 61.4869H135.559V61.7431H134.562L134.478 62.4466H134.492C134.541 62.4077 134.602 62.3755 134.676 62.3499C134.75 62.3243 134.826 62.3115 134.906 62.3115C135.052 62.3115 135.182 62.3464 135.297 62.4163C135.411 62.4854 135.502 62.5801 135.567 62.7005C135.633 62.8208 135.666 62.9582 135.666 63.1128C135.666 63.2649 135.632 63.4008 135.563 63.5204C135.496 63.6392 135.403 63.7331 135.284 63.8023C135.165 63.8706 135.03 63.9047 134.878 63.9047Z" fill="#1F2937"/>
<path d="M158.323 57.9595V55.9083" stroke="#1F2937" stroke-width="0.273312"/>
<path d="M158.745 63.9047C158.647 63.9032 158.549 63.8846 158.452 63.8488C158.354 63.8131 158.264 63.7529 158.184 63.6683C158.103 63.5829 158.038 63.4676 157.989 63.3224C157.94 63.1764 157.916 62.9932 157.916 62.7727C157.916 62.5615 157.936 62.3744 157.975 62.2113C158.015 62.0475 158.072 61.9096 158.148 61.7978C158.223 61.6852 158.314 61.5998 158.42 61.5416C158.527 61.4834 158.648 61.4543 158.782 61.4543C158.916 61.4543 159.035 61.481 159.139 61.5346C159.244 61.5874 159.329 61.6612 159.395 61.7559C159.461 61.8506 159.504 61.9597 159.523 62.0832H159.239C159.212 61.976 159.161 61.8871 159.085 61.8165C159.009 61.7458 158.908 61.7105 158.782 61.7105C158.598 61.7105 158.452 61.7908 158.346 61.9516C158.24 62.1123 158.187 62.3379 158.186 62.6283H158.205C158.248 62.5623 158.3 62.506 158.36 62.4594C158.42 62.412 158.487 62.3755 158.56 62.3499C158.633 62.3243 158.71 62.3115 158.792 62.3115C158.928 62.3115 159.053 62.3456 159.167 62.414C159.28 62.4815 159.371 62.5751 159.439 62.6946C159.508 62.8134 159.542 62.9497 159.542 63.1034C159.542 63.251 159.509 63.3861 159.443 63.5088C159.377 63.6307 159.284 63.7277 159.164 63.7999C159.046 63.8714 158.906 63.9063 158.745 63.9047ZM158.745 63.6485C158.843 63.6485 158.931 63.6241 159.008 63.5751C159.087 63.5262 159.148 63.4606 159.193 63.3783C159.239 63.296 159.262 63.2044 159.262 63.1034C159.262 63.0048 159.24 62.9152 159.196 62.8344C159.152 62.7529 159.092 62.688 159.015 62.6399C158.939 62.5918 158.852 62.5677 158.754 62.5677C158.681 62.5677 158.612 62.5824 158.548 62.6119C158.485 62.6407 158.429 62.6803 158.381 62.7307C158.333 62.7812 158.296 62.8391 158.269 62.9043C158.242 62.9687 158.228 63.0367 158.228 63.1081C158.228 63.2028 158.25 63.2913 158.294 63.3736C158.339 63.456 158.401 63.5223 158.478 63.5728C158.557 63.6233 158.646 63.6485 158.745 63.6485Z" fill="#1F2937"/>
<path d="M6.55957 1.21045V55.9082" stroke="#1F2937" stroke-width="0.273312"/>
<path d="M4.91992 55.9083H6.55979" stroke="#1F2937" stroke-width="0.273312"/>
<path d="M2.34227 56.2949C2.16679 56.2949 2.01732 56.2471 1.89387 56.1516C1.77041 56.0553 1.67607 55.916 1.61085 55.7335C1.54563 55.5503 1.51301 55.329 1.51301 55.0696C1.51301 54.8119 1.54563 54.5917 1.61085 54.4093C1.67685 54.226 1.77157 54.0863 1.89503 53.99C2.01926 53.8929 2.16834 53.8444 2.34227 53.8444C2.51619 53.8444 2.66488 53.8929 2.78834 53.99C2.91257 54.0863 3.0073 54.226 3.07252 54.4093C3.13852 54.5917 3.17152 54.8119 3.17152 55.0696C3.17152 55.329 3.13891 55.5503 3.07369 55.7335C3.00847 55.916 2.91413 56.0553 2.79067 56.1516C2.66721 56.2471 2.51775 56.2949 2.34227 56.2949ZM2.34227 56.0386C2.51619 56.0386 2.6513 55.9548 2.74758 55.7871C2.84386 55.6194 2.892 55.3802 2.892 55.0696C2.892 54.8631 2.86987 54.6872 2.82561 54.542C2.78213 54.3968 2.71924 54.2862 2.63693 54.2101C2.5554 54.134 2.45718 54.096 2.34227 54.096C2.1699 54.096 2.03518 54.181 1.93812 54.351C1.84107 54.5203 1.79254 54.7598 1.79254 55.0696C1.79254 55.2762 1.81428 55.4516 1.85776 55.5961C1.90124 55.7405 1.96375 55.8504 2.04527 55.9257C2.12758 56.001 2.22658 56.0386 2.34227 56.0386Z" fill="#1F2937"/>
<path d="M4.91992 42.2338H6.55979" stroke="#1F2937" stroke-width="0.273312"/>
<path d="M2.33179 42.6204C2.17805 42.6204 2.041 42.594 1.92065 42.5412C1.80108 42.4884 1.70596 42.4151 1.63531 42.3211C1.56543 42.2264 1.52738 42.1165 1.52117 41.9915H1.81467C1.82088 42.0684 1.84728 42.1348 1.89387 42.1907C1.94045 42.2458 2.0014 42.2885 2.07672 42.3188C2.15204 42.3491 2.23551 42.3642 2.32713 42.3642C2.42962 42.3642 2.52046 42.3464 2.59966 42.3106C2.67886 42.2749 2.74098 42.2252 2.78601 42.1616C2.83105 42.0979 2.85356 42.0241 2.85356 41.9403C2.85356 41.8525 2.83182 41.7753 2.78834 41.7085C2.74486 41.6409 2.68119 41.5881 2.59733 41.5501C2.51348 41.5121 2.41098 41.493 2.28986 41.493H2.09885V41.2368H2.28986C2.38458 41.2368 2.46767 41.2197 2.5391 41.1856C2.61131 41.1514 2.6676 41.1032 2.70798 41.0411C2.74913 40.979 2.76971 40.906 2.76971 40.8222C2.76971 40.7414 2.75185 40.6712 2.71613 40.6114C2.68041 40.5516 2.62994 40.505 2.56472 40.4716C2.50028 40.4382 2.42418 40.4215 2.33644 40.4215C2.25414 40.4215 2.17649 40.4367 2.10351 40.4669C2.0313 40.4965 1.97229 40.5395 1.92648 40.5962C1.88067 40.6521 1.85582 40.7197 1.85194 40.7989H1.57241C1.57707 40.6739 1.61473 40.5644 1.68539 40.4704C1.75604 40.3757 1.84844 40.3019 1.96258 40.2491C2.0775 40.1964 2.20367 40.17 2.3411 40.17C2.48863 40.17 2.61519 40.1998 2.72079 40.2596C2.82639 40.3186 2.90753 40.3967 2.96421 40.4937C3.02089 40.5908 3.04923 40.6956 3.04923 40.8082C3.04923 40.9425 3.0139 41.057 2.94324 41.1518C2.87336 41.2465 2.77825 41.3121 2.6579 41.3486V41.3672C2.80853 41.3921 2.92616 41.4561 3.01079 41.5594C3.09543 41.6619 3.13775 41.7889 3.13775 41.9403C3.13775 42.0699 3.10242 42.1864 3.03176 42.2897C2.96188 42.3922 2.86637 42.4729 2.74525 42.5319C2.62412 42.5909 2.4863 42.6204 2.33179 42.6204Z" fill="#1F2937"/>
<path d="M4.91992 28.5593H6.55979" stroke="#1F2937" stroke-width="0.273312"/>
<path d="M2.35945 28.9459C2.26161 28.9444 2.16378 28.9258 2.06595 28.89C1.96811 28.8543 1.87882 28.7941 1.79807 28.7095C1.71732 28.6241 1.65249 28.5088 1.60357 28.3636C1.55465 28.2176 1.53019 28.0344 1.53019 27.8139C1.53019 27.6027 1.54999 27.4155 1.58959 27.2525C1.62919 27.0887 1.68665 26.9508 1.76197 26.839C1.83728 26.7264 1.92813 26.641 2.0345 26.5828C2.14165 26.5246 2.26239 26.4955 2.39672 26.4955C2.53027 26.4955 2.64906 26.5222 2.75311 26.5758C2.85793 26.6286 2.94334 26.7024 3.00934 26.7971C3.07534 26.8918 3.11804 27.0009 3.13745 27.1244H2.85327C2.82687 27.0172 2.77563 26.9283 2.69953 26.8577C2.62344 26.787 2.5225 26.7517 2.39672 26.7517C2.21192 26.7517 2.06634 26.832 1.95996 26.9928C1.85436 27.1535 1.80118 27.3791 1.8004 27.6695H1.81903C1.86252 27.6035 1.91415 27.5472 1.97394 27.5006C2.0345 27.4532 2.10128 27.4167 2.17426 27.3911C2.24725 27.3655 2.32451 27.3527 2.40603 27.3527C2.54269 27.3527 2.6677 27.3868 2.78106 27.4551C2.89442 27.5227 2.98527 27.6163 3.0536 27.7358C3.12193 27.8546 3.15609 27.9909 3.15609 28.1446C3.15609 28.2922 3.12309 28.4273 3.05709 28.5499C2.99109 28.6719 2.89831 28.7689 2.77873 28.8411C2.65993 28.9126 2.52017 28.9475 2.35945 28.9459ZM2.35945 28.6897C2.45728 28.6897 2.54502 28.6653 2.62266 28.6163C2.70109 28.5674 2.76281 28.5018 2.80785 28.4195C2.85366 28.3372 2.87657 28.2456 2.87657 28.1446C2.87657 28.046 2.85444 27.9564 2.81018 27.8756C2.7667 27.7941 2.70652 27.7292 2.62965 27.6811C2.55356 27.633 2.4666 27.6089 2.36876 27.6089C2.295 27.6089 2.22629 27.6236 2.16262 27.6531C2.09895 27.6819 2.04304 27.7215 1.9949 27.7719C1.94754 27.8224 1.91027 27.8803 1.88309 27.9455C1.85592 28.0099 1.84233 28.0779 1.84233 28.1493C1.84233 28.244 1.86446 28.3325 1.90872 28.4148C1.95375 28.4972 2.01509 28.5635 2.09273 28.614C2.17116 28.6645 2.26006 28.6897 2.35945 28.6897Z" fill="#1F2937"/>
<path d="M4.91992 14.8852H6.55979" stroke="#1F2937" stroke-width="0.273312"/>
<path d="M2.32684 12.8213C2.42467 12.8221 2.5225 12.8407 2.62034 12.8772C2.71817 12.9137 2.80746 12.9743 2.88821 13.0589C2.96896 13.1428 3.0338 13.2573 3.08271 13.4025C3.13163 13.5477 3.15609 13.7298 3.15609 13.9487C3.15609 14.1607 3.1359 14.349 3.09553 14.5136C3.05593 14.6774 2.99847 14.8156 2.92315 14.9282C2.84861 15.0408 2.75777 15.1262 2.65062 15.1845C2.54424 15.2427 2.42389 15.2718 2.28957 15.2718C2.15602 15.2718 2.03683 15.2454 1.93201 15.1926C1.82796 15.139 1.74255 15.0649 1.67578 14.9702C1.60978 14.8747 1.56746 14.764 1.54883 14.6382H1.83301C1.85863 14.7477 1.90949 14.8382 1.98558 14.9096C2.06245 14.9802 2.16378 15.0156 2.28957 15.0156C2.47359 15.0156 2.61878 14.9352 2.72516 14.7745C2.83231 14.6138 2.88588 14.3866 2.88588 14.0932H2.86725C2.82377 14.1584 2.77213 14.2147 2.71235 14.262C2.65256 14.3094 2.58617 14.3459 2.51318 14.3715C2.4402 14.3971 2.36255 14.4099 2.28025 14.4099C2.14359 14.4099 2.0182 14.3762 1.90406 14.3086C1.79069 14.2403 1.69985 14.1467 1.63152 14.0279C1.56397 13.9084 1.53019 13.7717 1.53019 13.618C1.53019 13.472 1.5628 13.3384 1.62803 13.2173C1.69403 13.0954 1.78642 12.9983 1.90522 12.9261C2.0248 12.8539 2.16533 12.819 2.32684 12.8213ZM2.32684 13.0775C2.229 13.0775 2.14088 13.102 2.06245 13.1509C1.98481 13.1991 1.92308 13.2643 1.87727 13.3466C1.83223 13.4281 1.80972 13.5186 1.80972 13.618C1.80972 13.7173 1.83146 13.8078 1.87494 13.8893C1.9192 13.9701 1.97937 14.0345 2.05547 14.0827C2.13233 14.13 2.21969 14.1537 2.31752 14.1537C2.39128 14.1537 2.46 14.1393 2.52367 14.1106C2.58734 14.0811 2.64285 14.0411 2.69022 13.9907C2.73836 13.9394 2.77601 13.8816 2.80319 13.8171C2.83037 13.7519 2.84395 13.684 2.84395 13.6133C2.84395 13.5201 2.82144 13.4328 2.7764 13.3512C2.73215 13.2697 2.67081 13.2037 2.59238 13.1533C2.51474 13.1028 2.42622 13.0775 2.32684 13.0775Z" fill="#1F2937"/>
<path d="M4.91895 1.21045H6.55882" stroke="#1F2937" stroke-width="0.273312"/>
<path d="M0.575133 0.614732V3H0.286292V0.91755H0.272316L-0.310025 1.30422V1.01072L0.286292 0.614732H0.575133ZM1.26113 3V2.79036L2.04846 1.92849C2.14085 1.82755 2.21695 1.73981 2.27673 1.66528C2.33652 1.58996 2.38078 1.5193 2.40951 1.4533C2.43901 1.38653 2.45376 1.31665 2.45376 1.24366C2.45376 1.1598 2.43358 1.0872 2.3932 1.02587C2.3536 0.964525 2.29925 0.917161 2.23015 0.883774C2.16104 0.850386 2.0834 0.833693 1.99721 0.833693C1.90559 0.833693 1.82561 0.852716 1.75729 0.890762C1.68973 0.928032 1.63732 0.980442 1.60005 1.04799C1.56356 1.11555 1.54531 1.19474 1.54531 1.28559H1.27045C1.27045 1.14583 1.30267 1.02315 1.36712 0.91755C1.43156 0.811952 1.5193 0.729648 1.63033 0.670637C1.74214 0.611627 1.86754 0.582121 2.00653 0.582121C2.14629 0.582121 2.27013 0.611627 2.37806 0.670637C2.48599 0.729648 2.57062 0.809234 2.63196 0.909397C2.6933 1.00956 2.72397 1.12098 2.72397 1.24366C2.72397 1.3314 2.70805 1.4172 2.67622 1.50106C2.64516 1.58414 2.59081 1.67692 2.51316 1.77941C2.43629 1.88113 2.32953 2.00536 2.19288 2.15211L1.65712 2.72514V2.74377H2.7659V3H1.26113Z" fill="#1F2937"/>
<path d="M8.88867 46.7922H12.715V55.9085H8.88867V46.7922Z" fill="#EEEEEE"/>
<path d="M32.2383 19.4432H36.0646V55.9084H32.2383V19.4432Z" fill="#EEEEEE"/>
<path d="M55.5869 28.5594H59.4133V55.9083H55.5869V28.5594Z" fill="#EEEEEE"/>
<path d="M78.9365 37.6757H82.7629V55.9083H78.9365V37.6757Z" fill="#EEEEEE"/>
<path d="M125.635 24.0012H129.461V55.9083H125.635V24.0012Z" fill="#EEEEEE"/>
<path d="M13.8096 28.5593H17.6359V55.9082H13.8096V28.5593Z" fill="#1F2937"/>
<path d="M37.1582 5.76868H40.9846V55.9083H37.1582V5.76868Z" fill="#1F2937"/>
<path d="M60.5088 24.0013H64.3352V55.9084H60.5088V24.0013Z" fill="#1F2937"/>
<path d="M83.8574 14.8848H87.6838V55.9082H83.8574V14.8848Z" fill="#1F2937"/>
<path d="M107.206 5.76868H111.032V55.9083H107.206V5.76868Z" fill="#1F2937"/>
<path d="M130.556 42.2338H134.382V55.9082H130.556V42.2338Z" fill="#1F2937"/>
<path d="M153.901 1.21039H157.728V55.9082H153.901V1.21039Z" fill="#1F2937"/>
<path d="M18.7285 24.0012H22.5549V55.9083H18.7285V24.0012Z" fill="#717171"/>
<path d="M42.0781 24.0013H45.9045V55.9083H42.0781V24.0013Z" fill="#717171"/>
<path d="M65.4277 24.0013H69.2541V55.9083H65.4277V24.0013Z" fill="#717171"/>
<path d="M88.7773 14.8848H92.6037V55.9081H88.7773V14.8848Z" fill="#717171"/>
<path d="M112.126 19.443H115.952V55.9082H112.126V19.443Z" fill="#717171"/>
<path d="M135.475 33.1175H139.301V55.9082H135.475V33.1175Z" fill="#717171"/>
<path d="M158.821 42.2336H162.648V55.9081H158.821V42.2336Z" fill="#717171"/>
<path d="M23.6494 5.76868H27.4758V55.9083H23.6494V5.76868Z" fill="#D0D4DA"/>
<path d="M46.998 1.21039H50.8244V55.9082H46.998V1.21039Z" fill="#D0D4DA"/>
<path d="M70.3486 33.1176H74.175V55.9083H70.3486V33.1176Z" fill="#D0D4DA"/>
<path d="M93.6982 37.6758H97.5246V55.9084H93.6982V37.6758Z" fill="#D0D4DA"/>
<path d="M117.047 51.3502H120.873V55.9084H117.047V51.3502Z" fill="#D0D4DA"/>
<path d="M140.396 5.76862H144.223V55.9083H140.396V5.76862Z" fill="#D0D4DA"/>
<path d="M163.742 51.3502H167.569V55.9083H163.742V51.3502Z" fill="#D0D4DA"/>
</g>
<defs>
<clipPath id="clip0_994_10829">
<rect width="170" height="66" fill="white"/>
</clipPath>
</defs>
</svg>
