<svg width="88" height="94" viewBox="0 0 88 94" fill="none" xmlns="http://www.w3.org/2000/svg">
<g clip-path="url(#clip0_994_10813)">
<path d="M20.5172 81.3808C20.2132 81.5678 19.8616 81.7071 19.6129 81.9495C18.1255 83.3988 16.6618 84.8718 15.1906 86.3364C0.203059 71.8364 -3.10536 50.3092 3.15517 33.239C11.4083 10.7356 33.3323 -0.628452 51.2983 0.0518498C51.2983 7.16516 51.2983 14.2851 51.301 21.6161C51.2989 26.5616 51.294 31.2961 51.2035 36.0734C50.8707 36.1716 50.6234 36.2755 50.3764 36.275C47.9275 36.2702 45.7183 37.0815 43.693 38.34C39.9017 40.6957 37.5399 44.1189 36.9764 48.4873C36.3994 52.9598 37.5752 57.0421 40.8131 60.4671C40.3733 61.1101 40.0035 61.7316 39.5052 62.2267C33.4602 68.2338 27.3935 74.2195 21.345 80.2231C21.0124 80.5532 20.7906 80.9924 20.5172 81.3808Z" fill="#717171"/>
<path d="M20.54 81.4536C20.7916 80.9924 21.0134 80.5532 21.346 80.2231C27.3945 74.2195 33.4612 68.2338 39.5062 62.2267C40.0044 61.7316 40.3742 61.1101 40.8859 60.495C41.5858 60.9818 42.163 61.5761 42.8276 62.0508C46.6805 64.8029 50.943 65.4077 55.4697 64.2001C57.9222 63.5459 59.9378 62.0899 61.7823 60.4656C61.99 60.8139 62.1543 61.1152 62.3886 61.3474C67.1062 66.0225 71.8294 70.6921 76.5626 75.3518C76.8189 75.6041 77.1726 75.7598 77.4809 75.9604C79.2335 77.5681 80.9861 79.1758 82.7335 80.7788C66.2163 97.7576 38.0807 98.5733 20.54 81.4536Z" fill="#1F2937"/>
<path d="M77.5145 75.8893C77.1732 75.7598 76.8196 75.6042 76.5633 75.3518C71.8301 70.6922 67.1068 66.0225 62.3892 61.3474C62.1549 61.1152 61.9906 60.8139 61.8184 60.3981C62.1979 59.8266 62.5714 59.4154 62.9048 58.9746C65.3561 55.733 66.1005 52.1114 65.5015 48.1314C65.1546 45.8264 64.0712 43.8737 62.9708 41.8962C66.6338 39.1857 70.2328 36.5169 73.8144 33.8255C74.1201 33.5958 74.3104 33.2159 74.5544 32.9058C75.6425 32.1687 76.7363 31.4395 77.8166 30.6913C78.4227 30.2716 79.0839 29.8924 79.5828 29.3672C80.3949 28.5123 80.7157 28.9362 81.2567 29.6853C84.3297 33.9407 86.4014 38.6562 87.2365 43.7706C87.7842 47.125 88.0003 50.6267 87.695 54.0033C87.0498 61.1395 84.4642 67.6235 79.7615 73.1853C79.0211 74.0609 78.2854 74.9404 77.5145 75.8893Z" fill="#D0D4DA"/>
<path d="M74.5308 32.8324C74.3097 33.2158 74.1194 33.5957 73.8136 33.8254C70.232 36.5168 66.6331 39.1856 62.898 41.8678C60.5986 39.0242 57.7766 37.2012 54.228 36.5196C53.2534 36.3324 52.2696 36.1923 51.29 36.0305C51.2949 31.296 51.2998 26.5615 51.3087 21.7197C55.8811 21.4228 60.1995 22.5075 64.2388 24.4807C66.4151 25.5438 68.4489 26.9762 70.3448 28.4895C71.8885 29.7217 73.1316 31.322 74.5308 32.8324Z" fill="#1F2937"/>
</g>
<defs>
<clipPath id="clip0_994_10813">
<rect width="88" height="94" fill="white"/>
</clipPath>
</defs>
</svg>
