<svg width="170" height="84" viewBox="0 0 170 84" fill="none" xmlns="http://www.w3.org/2000/svg">
<path d="M6.48828 76.519H166.452" stroke="#1F2937" stroke-width="0.347885"/>
<path d="M6.65625 0.274902L6.65625 76.6921" stroke="#1F2937" stroke-width="0.347885"/>
<path d="M2.93611 38.4456H3.32748C3.30709 38.6332 3.25342 38.801 3.16645 38.9491C3.07947 39.0972 2.95649 39.2148 2.7975 39.3018C2.6385 39.3874 2.4401 39.4302 2.20229 39.4302C2.02835 39.4302 1.87003 39.3976 1.72734 39.3323C1.58602 39.2671 1.46439 39.1747 1.36247 39.0551C1.26055 38.9342 1.18174 38.7894 1.12602 38.6209C1.07166 38.4511 1.04448 38.2622 1.04448 38.0543V37.7587C1.04448 37.5508 1.07166 37.3626 1.12602 37.1941C1.18174 37.0242 1.26123 36.8788 1.36451 36.7578C1.46915 36.6369 1.59485 36.5438 1.74161 36.4786C1.88838 36.4134 2.05349 36.3807 2.23694 36.3807C2.46116 36.3807 2.65073 36.4229 2.80565 36.5071C2.96057 36.5914 3.08083 36.7082 3.16645 36.8577C3.25342 37.0059 3.30709 37.1778 3.32748 37.3734H2.93611C2.91708 37.2348 2.88175 37.1159 2.83011 37.0167C2.77847 36.9162 2.70509 36.8387 2.60997 36.7843C2.51484 36.73 2.3905 36.7028 2.23694 36.7028C2.10513 36.7028 1.98894 36.7279 1.88838 36.7782C1.78917 36.8285 1.7056 36.8999 1.63765 36.9923C1.57107 37.0847 1.52079 37.1954 1.48681 37.3245C1.45284 37.4536 1.43585 37.597 1.43585 37.7546V38.0543C1.43585 38.1997 1.4508 38.3362 1.4807 38.464C1.51195 38.5917 1.55884 38.7038 1.62135 38.8003C1.68386 38.8968 1.76336 38.9729 1.85984 39.0286C1.95632 39.083 2.07047 39.1101 2.20229 39.1101C2.36944 39.1101 2.50261 39.0836 2.60181 39.0306C2.70101 38.9777 2.77575 38.9016 2.82603 38.8023C2.87767 38.7031 2.91436 38.5842 2.93611 38.4456Z" fill="#333333"/>
<path d="M2.23898 13.3281L1.25648 16.0331H0.854914L1.98622 13.0652H2.24509L2.23898 13.3281ZM3.06249 16.0331L2.07795 13.3281L2.07183 13.0652H2.33071L3.46609 16.0331H3.06249ZM3.01153 14.9344V15.2565H1.34413V14.9344H3.01153Z" fill="#333333"/>
<path d="M1.92711 51.1108H1.30744L1.31151 50.7908H1.92711C2.1391 50.7908 2.31576 50.7466 2.45709 50.6583C2.59841 50.5686 2.70441 50.4436 2.77508 50.2833C2.8471 50.1215 2.88311 49.9327 2.88311 49.7166V49.5352C2.88311 49.3653 2.86273 49.2145 2.82196 49.0826C2.78119 48.9495 2.7214 48.8374 2.64258 48.7463C2.56376 48.6539 2.46728 48.5839 2.35313 48.5364C2.24034 48.4888 2.11056 48.465 1.9638 48.465H1.29521V48.1429H1.9638C2.15812 48.1429 2.33546 48.1756 2.49582 48.2408C2.65617 48.3047 2.7941 48.3977 2.90961 48.52C3.02648 48.641 3.11617 48.7878 3.17868 48.9603C3.24119 49.1316 3.27244 49.3245 3.27244 49.5392V49.7166C3.27244 49.9313 3.24119 50.1249 3.17868 50.2975C3.11617 50.4687 3.0258 50.6148 2.90757 50.7358C2.7907 50.8567 2.64937 50.9498 2.48359 51.015C2.31916 51.0789 2.13366 51.1108 1.92711 51.1108ZM1.51739 48.1429V51.1108H1.12398V48.1429H1.51739Z" fill="#333333"/>
<path d="M2.32051 26.3664H1.56835L1.56427 26.0504H2.24713C2.35992 26.0504 2.45845 26.0314 2.5427 25.9933C2.62695 25.9553 2.69218 25.9009 2.73838 25.8303C2.78595 25.7583 2.80973 25.6726 2.80973 25.5734C2.80973 25.4647 2.78866 25.3764 2.74654 25.3085C2.70577 25.2391 2.64258 25.1889 2.55697 25.1576C2.47271 25.125 2.36536 25.1087 2.2349 25.1087H1.656V27.7545H1.26259V24.7866H2.2349C2.3871 24.7866 2.52299 24.8023 2.64258 24.8335C2.76217 24.8634 2.86341 24.911 2.9463 24.9762C3.03055 25.0401 3.09442 25.1216 3.13791 25.2208C3.18139 25.32 3.20314 25.4389 3.20314 25.5775C3.20314 25.6998 3.17188 25.8106 3.10937 25.9098C3.04686 26.0076 2.95989 26.0878 2.84846 26.1503C2.73838 26.2128 2.60929 26.2529 2.46116 26.2706L2.32051 26.3664ZM2.30217 27.7545H1.41343L1.63562 27.4345H2.30217C2.42719 27.4345 2.53319 27.4127 2.62016 27.3693C2.70849 27.3258 2.77575 27.2646 2.82196 27.1858C2.86816 27.1056 2.89126 27.0112 2.89126 26.9025C2.89126 26.7924 2.87156 26.6973 2.83215 26.6171C2.79274 26.5369 2.73091 26.4751 2.64666 26.4316C2.5624 26.3881 2.45369 26.3664 2.32051 26.3664H1.75996L1.76403 26.0504H2.53047L2.61404 26.1646C2.75673 26.1768 2.87767 26.2176 2.97688 26.2869C3.07608 26.3548 3.1515 26.4418 3.20314 26.5478C3.25613 26.6538 3.28263 26.7707 3.28263 26.8984C3.28263 27.0832 3.24187 27.2395 3.16033 27.3672C3.08015 27.4936 2.96668 27.5901 2.81992 27.6567C2.67316 27.7219 2.50057 27.7545 2.30217 27.7545Z" fill="#333333"/>
<path d="M3.01702 61.8512V62.1713H1.44543V61.8512H3.01702ZM1.52492 59.2034V62.1713H1.13152V59.2034H1.52492ZM2.80911 60.4794V60.7994H1.44543V60.4794H2.80911ZM2.99664 59.2034V59.5254H1.44543V59.2034H2.99664Z" fill="#333333"/>
<path d="M8.13266 81.0452V81.4977C8.13266 81.741 8.11092 81.9462 8.06743 82.1133C8.02395 82.2805 7.96144 82.415 7.8799 82.5169C7.79837 82.6189 7.69985 82.6929 7.58434 82.7391C7.47019 82.784 7.34109 82.8064 7.19704 82.8064C7.08289 82.8064 6.97758 82.7921 6.88109 82.7636C6.78461 82.735 6.69764 82.6895 6.62018 82.627C6.54408 82.5631 6.47885 82.4803 6.42449 82.3783C6.37014 82.2764 6.32869 82.1527 6.30015 82.0073C6.27162 81.8619 6.25735 81.6921 6.25735 81.4977V81.0452C6.25735 80.802 6.27909 80.5981 6.32257 80.4337C6.36742 80.2693 6.43061 80.1375 6.51215 80.0383C6.59368 79.9377 6.69152 79.8657 6.80567 79.8222C6.92118 79.7787 7.05028 79.757 7.19297 79.757C7.30848 79.757 7.41447 79.7712 7.51095 79.7998C7.6088 79.8269 7.69577 79.8711 7.77187 79.9323C7.84797 79.9921 7.91252 80.0722 7.96552 80.1728C8.01987 80.272 8.06132 80.3936 8.08986 80.5377C8.11839 80.6817 8.13266 80.8509 8.13266 81.0452ZM7.75352 81.5589V80.982C7.75352 80.8489 7.74537 80.732 7.72906 80.6314C7.71411 80.5295 7.69169 80.4425 7.6618 80.3705C7.6319 80.2985 7.59385 80.2401 7.54765 80.1952C7.5028 80.1504 7.45048 80.1178 7.39069 80.0974C7.33226 80.0756 7.26635 80.0648 7.19297 80.0648C7.10328 80.0648 7.02378 80.0817 6.95448 80.1157C6.88517 80.1483 6.82674 80.2007 6.77917 80.2727C6.73297 80.3447 6.69764 80.4391 6.67318 80.556C6.64872 80.6729 6.63649 80.8149 6.63649 80.982V81.5589C6.63649 81.6921 6.64396 81.8096 6.65891 81.9115C6.67522 82.0135 6.699 82.1018 6.73025 82.1765C6.76151 82.2499 6.79956 82.3104 6.8444 82.3579C6.88925 82.4055 6.94089 82.4408 6.99932 82.4639C7.05911 82.4857 7.12502 82.4966 7.19704 82.4966C7.28945 82.4966 7.37031 82.4789 7.43961 82.4436C7.50892 82.4082 7.56667 82.3532 7.61287 82.2785C7.66044 82.2024 7.69577 82.1052 7.71887 81.987C7.74197 81.8674 7.75352 81.7247 7.75352 81.5589Z" fill="#333333"/>
<path d="M46.4332 82.4558V82.7656H44.4906V82.4945L45.4629 81.4121C45.5825 81.279 45.6749 81.1662 45.7401 81.0738C45.8067 80.98 45.8529 80.8964 45.8787 80.823C45.9059 80.7483 45.9195 80.6722 45.9195 80.5947C45.9195 80.4969 45.8991 80.4086 45.8583 80.3298C45.8189 80.2496 45.7605 80.1857 45.683 80.1381C45.6056 80.0906 45.5118 80.0668 45.4017 80.0668C45.2699 80.0668 45.1599 80.0926 45.0715 80.1443C44.9846 80.1945 44.9193 80.2652 44.8758 80.3563C44.8324 80.4473 44.8106 80.5519 44.8106 80.6702H44.4335C44.4335 80.503 44.4702 80.3501 44.5436 80.2115C44.617 80.0729 44.7257 79.9628 44.8697 79.8813C45.0138 79.7984 45.1911 79.757 45.4017 79.757C45.5893 79.757 45.7496 79.7903 45.8828 79.8568C46.016 79.9221 46.1179 80.0145 46.1886 80.1341C46.2606 80.2523 46.2966 80.3909 46.2966 80.5499C46.2966 80.6369 46.2816 80.7252 46.2518 80.8149C46.2232 80.9032 46.1831 80.9915 46.1315 81.0799C46.0812 81.1682 46.0221 81.2552 45.9541 81.3408C45.8876 81.4264 45.8162 81.5107 45.7401 81.5936L44.9451 82.4558H46.4332ZM47.3138 81.353L47.0121 81.2756L47.1609 79.7977H48.6835V80.1463H47.4809L47.3912 80.9535C47.4456 80.9222 47.5142 80.893 47.5971 80.8658C47.6813 80.8387 47.7778 80.8251 47.8865 80.8251C48.0238 80.8251 48.1468 80.8489 48.2555 80.8964C48.3642 80.9426 48.4566 81.0092 48.5327 81.0962C48.6102 81.1832 48.6693 81.2878 48.71 81.4101C48.7508 81.5324 48.7712 81.669 48.7712 81.8198C48.7712 81.9625 48.7515 82.0936 48.7121 82.2132C48.674 82.3328 48.6163 82.4374 48.5388 82.5271C48.4614 82.6155 48.3635 82.6841 48.2453 82.733C48.1284 82.7819 47.9905 82.8064 47.8315 82.8064C47.7119 82.8064 47.5984 82.7901 47.4911 82.7575C47.3851 82.7235 47.29 82.6725 47.2057 82.6046C47.1228 82.5353 47.0549 82.4497 47.0019 82.3478C46.9502 82.2445 46.9176 82.1235 46.904 81.9849H47.2628C47.2791 82.0964 47.3117 82.1901 47.3606 82.2662C47.4096 82.3423 47.4734 82.4001 47.5522 82.4395C47.6324 82.4775 47.7255 82.4966 47.8315 82.4966C47.9212 82.4966 48.0007 82.4809 48.07 82.4497C48.1393 82.4184 48.1977 82.3736 48.2453 82.3151C48.2929 82.2567 48.3289 82.186 48.3533 82.1031C48.3791 82.0203 48.3921 81.9272 48.3921 81.8239C48.3921 81.7301 48.3791 81.6432 48.3533 81.563C48.3275 81.4828 48.2888 81.4128 48.2371 81.353C48.1869 81.2932 48.125 81.247 48.0516 81.2144C47.9783 81.1804 47.894 81.1635 47.7989 81.1635C47.6725 81.1635 47.5767 81.1804 47.5115 81.2144C47.4476 81.2484 47.3817 81.2946 47.3138 81.353Z" fill="#333333"/>
<path d="M84.8679 81.353L84.5662 81.2756L84.715 79.7977H86.2377V80.1463H85.035L84.9453 80.9535C84.9997 80.9222 85.0683 80.893 85.1512 80.8658C85.2355 80.8387 85.3319 80.8251 85.4407 80.8251C85.5779 80.8251 85.7009 80.8489 85.8096 80.8964C85.9183 80.9426 86.0107 81.0092 86.0868 81.0962C86.1643 81.1832 86.2234 81.2878 86.2642 81.4101C86.3049 81.5324 86.3253 81.669 86.3253 81.8198C86.3253 81.9625 86.3056 82.0936 86.2662 82.2132C86.2282 82.3328 86.1704 82.4374 86.0929 82.5271C86.0155 82.6155 85.9176 82.6841 85.7994 82.733C85.6825 82.7819 85.5446 82.8064 85.3856 82.8064C85.266 82.8064 85.1526 82.7901 85.0452 82.7575C84.9392 82.7235 84.8441 82.6725 84.7598 82.6046C84.6769 82.5353 84.609 82.4497 84.556 82.3478C84.5044 82.2445 84.4717 82.1235 84.4582 81.9849H84.8169C84.8332 82.0964 84.8658 82.1901 84.9148 82.2662C84.9637 82.3423 85.0275 82.4001 85.1064 82.4395C85.1865 82.4775 85.2796 82.4966 85.3856 82.4966C85.4753 82.4966 85.5548 82.4809 85.6241 82.4497C85.6934 82.4184 85.7519 82.3736 85.7994 82.3151C85.847 82.2567 85.883 82.186 85.9075 82.1031C85.9333 82.0203 85.9462 81.9272 85.9462 81.8239C85.9462 81.7301 85.9333 81.6432 85.9075 81.563C85.8816 81.4828 85.8429 81.4128 85.7913 81.353C85.741 81.2932 85.6792 81.247 85.6058 81.2144C85.5324 81.1804 85.4481 81.1635 85.353 81.1635C85.2266 81.1635 85.1308 81.1804 85.0656 81.2144C85.0017 81.2484 84.9358 81.2946 84.8679 81.353ZM88.6022 81.0452V81.4977C88.6022 81.741 88.5805 81.9462 88.537 82.1133C88.4935 82.2805 88.431 82.415 88.3494 82.5169C88.2679 82.6189 88.1694 82.6929 88.0539 82.7391C87.9397 82.784 87.8106 82.8064 87.6666 82.8064C87.5524 82.8064 87.4471 82.7921 87.3506 82.7636C87.2541 82.735 87.1672 82.6895 87.0897 82.627C87.0136 82.5631 86.9484 82.4803 86.894 82.3783C86.8397 82.2764 86.7982 82.1527 86.7697 82.0073C86.7412 81.8619 86.7269 81.6921 86.7269 81.4977V81.0452C86.7269 80.802 86.7486 80.5981 86.7921 80.4337C86.837 80.2693 86.9001 80.1375 86.9817 80.0383C87.0632 79.9377 87.1611 79.8657 87.2752 79.8222C87.3907 79.7787 87.5198 79.757 87.6625 79.757C87.778 79.757 87.884 79.7712 87.9805 79.7998C88.0783 79.8269 88.1653 79.8711 88.2414 79.9323C88.3175 79.9921 88.3821 80.0722 88.4351 80.1728C88.4894 80.272 88.5309 80.3936 88.5594 80.5377C88.5879 80.6817 88.6022 80.8509 88.6022 81.0452ZM88.2231 81.5589V80.982C88.2231 80.8489 88.2149 80.732 88.1986 80.6314C88.1836 80.5295 88.1612 80.4425 88.1313 80.3705C88.1014 80.2985 88.0634 80.2401 88.0172 80.1952C87.9723 80.1504 87.92 80.1178 87.8602 80.0974C87.8018 80.0756 87.7359 80.0648 87.6625 80.0648C87.5728 80.0648 87.4933 80.0817 87.424 80.1157C87.3547 80.1483 87.2963 80.2007 87.2487 80.2727C87.2025 80.3447 87.1672 80.4391 87.1427 80.556C87.1183 80.6729 87.106 80.8149 87.106 80.982V81.5589C87.106 81.6921 87.1135 81.8096 87.1284 81.9115C87.1448 82.0135 87.1685 82.1018 87.1998 82.1765C87.231 82.2499 87.2691 82.3104 87.3139 82.3579C87.3588 82.4055 87.4104 82.4408 87.4689 82.4639C87.5286 82.4857 87.5946 82.4966 87.6666 82.4966C87.759 82.4966 87.8398 82.4789 87.9091 82.4436C87.9785 82.4082 88.0362 82.3532 88.0824 82.2785C88.13 82.2024 88.1653 82.1052 88.1884 81.987C88.2115 81.8674 88.2231 81.7247 88.2231 81.5589Z" fill="#333333"/>
<path d="M126.215 79.7977V80.0097L124.986 82.7656H124.589L125.816 80.1076H124.209V79.7977H126.215ZM127.122 81.353L126.821 81.2756L126.969 79.7977H128.492V80.1463H127.289L127.2 80.9535C127.254 80.9222 127.323 80.893 127.406 80.8658C127.49 80.8387 127.586 80.8251 127.695 80.8251C127.832 80.8251 127.955 80.8489 128.064 80.8964C128.173 80.9426 128.265 81.0092 128.341 81.0962C128.419 81.1832 128.478 81.2878 128.519 81.4101C128.559 81.5324 128.58 81.669 128.58 81.8198C128.58 81.9625 128.56 82.0936 128.521 82.2132C128.483 82.3328 128.425 82.4374 128.347 82.5271C128.27 82.6155 128.172 82.6841 128.054 82.733C127.937 82.7819 127.799 82.8064 127.64 82.8064C127.521 82.8064 127.407 82.7901 127.3 82.7575C127.194 82.7235 127.099 82.6725 127.014 82.6046C126.931 82.5353 126.863 82.4497 126.81 82.3478C126.759 82.2445 126.726 82.1235 126.713 81.9849H127.071C127.088 82.0964 127.12 82.1901 127.169 82.2662C127.218 82.3423 127.282 82.4001 127.361 82.4395C127.441 82.4775 127.534 82.4966 127.64 82.4966C127.73 82.4966 127.809 82.4809 127.879 82.4497C127.948 82.4184 128.006 82.3736 128.054 82.3151C128.101 82.2567 128.137 82.186 128.162 82.1031C128.188 82.0203 128.201 81.9272 128.201 81.8239C128.201 81.7301 128.188 81.6432 128.162 81.563C128.136 81.4828 128.097 81.4128 128.046 81.353C127.995 81.2932 127.934 81.247 127.86 81.2144C127.787 81.1804 127.703 81.1635 127.607 81.1635C127.481 81.1635 127.385 81.1804 127.32 81.2144C127.256 81.2484 127.19 81.2946 127.122 81.353Z" fill="#333333"/>
<path d="M164.275 79.7814V82.7656H163.898V80.2523L163.138 80.5295V80.1891L164.216 79.7814H164.275ZM167.247 81.0452V81.4977C167.247 81.741 167.225 81.9462 167.182 82.1133C167.138 82.2805 167.076 82.415 166.994 82.5169C166.913 82.6189 166.814 82.6929 166.699 82.7391C166.584 82.784 166.455 82.8064 166.311 82.8064C166.197 82.8064 166.092 82.7921 165.995 82.7636C165.899 82.735 165.812 82.6895 165.734 82.627C165.658 82.5631 165.593 82.4803 165.539 82.3783C165.484 82.2764 165.443 82.1527 165.414 82.0073C165.386 81.8619 165.372 81.6921 165.372 81.4977V81.0452C165.372 80.802 165.393 80.5981 165.437 80.4337C165.482 80.2693 165.545 80.1375 165.626 80.0383C165.708 79.9377 165.806 79.8657 165.92 79.8222C166.035 79.7787 166.165 79.757 166.307 79.757C166.423 79.757 166.529 79.7712 166.625 79.7998C166.723 79.8269 166.81 79.8711 166.886 79.9323C166.962 79.9921 167.027 80.0722 167.08 80.1728C167.134 80.272 167.176 80.3936 167.204 80.5377C167.233 80.6817 167.247 80.8509 167.247 81.0452ZM166.868 81.5589V80.982C166.868 80.8489 166.86 80.732 166.843 80.6314C166.828 80.5295 166.806 80.4425 166.776 80.3705C166.746 80.2985 166.708 80.2401 166.662 80.1952C166.617 80.1504 166.565 80.1178 166.505 80.0974C166.447 80.0756 166.381 80.0648 166.307 80.0648C166.218 80.0648 166.138 80.0817 166.069 80.1157C165.999 80.1483 165.941 80.2007 165.893 80.2727C165.847 80.3447 165.812 80.4391 165.787 80.556C165.763 80.6729 165.751 80.8149 165.751 80.982V81.5589C165.751 81.6921 165.758 81.8096 165.773 81.9115C165.79 82.0135 165.813 82.1018 165.845 82.1765C165.876 82.2499 165.914 82.3104 165.959 82.3579C166.004 82.4055 166.055 82.4408 166.114 82.4639C166.173 82.4857 166.239 82.4966 166.311 82.4966C166.404 82.4966 166.485 82.4789 166.554 82.4436C166.623 82.4082 166.681 82.3532 166.727 82.2785C166.775 82.2024 166.81 82.1052 166.833 81.987C166.856 81.8674 166.868 81.7247 166.868 81.5589ZM169.595 81.0452V81.4977C169.595 81.741 169.573 81.9462 169.53 82.1133C169.486 82.2805 169.424 82.415 169.342 82.5169C169.261 82.6189 169.162 82.6929 169.047 82.7391C168.933 82.784 168.804 82.8064 168.66 82.8064C168.545 82.8064 168.44 82.7921 168.344 82.7636C168.247 82.735 168.16 82.6895 168.083 82.627C168.007 82.5631 167.941 82.4803 167.887 82.3783C167.833 82.2764 167.791 82.1527 167.763 82.0073C167.734 81.8619 167.72 81.6921 167.72 81.4977V81.0452C167.72 80.802 167.742 80.5981 167.785 80.4337C167.83 80.2693 167.893 80.1375 167.975 80.0383C168.056 79.9377 168.154 79.8657 168.268 79.8222C168.384 79.7787 168.513 79.757 168.655 79.757C168.771 79.757 168.877 79.7712 168.973 79.7998C169.071 79.8269 169.158 79.8711 169.234 79.9323C169.31 79.9921 169.375 80.0722 169.428 80.1728C169.482 80.272 169.524 80.3936 169.552 80.5377C169.581 80.6817 169.595 80.8509 169.595 81.0452ZM169.216 81.5589V80.982C169.216 80.8489 169.208 80.732 169.192 80.6314C169.177 80.5295 169.154 80.4425 169.124 80.3705C169.094 80.2985 169.056 80.2401 169.01 80.1952C168.965 80.1504 168.913 80.1178 168.853 80.0974C168.795 80.0756 168.729 80.0648 168.655 80.0648C168.566 80.0648 168.486 80.0817 168.417 80.1157C168.348 80.1483 168.289 80.2007 168.242 80.2727C168.195 80.3447 168.16 80.4391 168.136 80.556C168.111 80.6729 168.099 80.8149 168.099 80.982V81.5589C168.099 81.6921 168.106 81.8096 168.121 81.9115C168.138 82.0135 168.162 82.1018 168.193 82.1765C168.224 82.2499 168.262 82.3104 168.307 82.3579C168.352 82.4055 168.403 82.4408 168.462 82.4639C168.522 82.4857 168.588 82.4966 168.66 82.4966C168.752 82.4966 168.833 82.4789 168.902 82.4436C168.971 82.4082 169.029 82.3532 169.075 82.2785C169.123 82.2024 169.158 82.1052 169.181 81.987C169.204 81.8674 169.216 81.7247 169.216 81.5589Z" fill="#333333"/>
<path d="M6.48828 34.8712H70.4739V41.7837H6.48828V34.8712Z" fill="#1F2937"/>
<path d="M6.48828 11.5149H70.4739V18.4274H6.48828V11.5149Z" fill="#1F2937"/>
<path d="M6.48828 46.2472H146.979V53.1597H6.48828V46.2472Z" fill="#1F2937"/>
<path d="M6.71094 23.1577H128.886V29.4386H6.71094V23.1577Z" fill="#1F2937"/>
<path d="M6.48828 57.3073H102.467V64.2198H6.48828V57.3073Z" fill="#1F2937"/>
<path d="M74.4673 38.7358V39.0456H72.3229V38.8235L73.6519 36.7667H73.9597L73.6295 37.3619L72.7509 38.7358H74.4673ZM74.0535 36.7667V39.7346H73.6764V36.7667H74.0535ZM76.6728 38.0142V38.4667C76.6728 38.71 76.6511 38.9152 76.6076 39.0823C76.5641 39.2495 76.5016 39.384 76.42 39.4859C76.3385 39.5879 76.24 39.6619 76.1245 39.7081C76.0103 39.753 75.8812 39.7754 75.7372 39.7754C75.623 39.7754 75.5177 39.7611 75.4212 39.7326C75.3247 39.704 75.2378 39.6585 75.1603 39.596C75.0842 39.5321 75.019 39.4492 74.9646 39.3473C74.9103 39.2454 74.8688 39.1217 74.8403 38.9763C74.8117 38.8309 74.7975 38.6611 74.7975 38.4667V38.0142C74.7975 37.771 74.8192 37.5671 74.8627 37.4027C74.9076 37.2383 74.9707 37.1065 75.0523 37.0073C75.1338 36.9067 75.2317 36.8347 75.3458 36.7912C75.4613 36.7477 75.5904 36.726 75.7331 36.726C75.8486 36.726 75.9546 36.7402 76.0511 36.7688C76.1489 36.7959 76.2359 36.8401 76.312 36.9013C76.3881 36.9611 76.4527 37.0412 76.5056 37.1418C76.56 37.241 76.6015 37.3626 76.63 37.5067C76.6585 37.6507 76.6728 37.8199 76.6728 38.0142ZM76.2937 38.5279V37.951C76.2937 37.8179 76.2855 37.701 76.2692 37.6004C76.2542 37.4985 76.2318 37.4115 76.2019 37.3395C76.172 37.2675 76.134 37.2091 76.0878 37.1642C76.0429 37.1194 75.9906 37.0868 75.9308 37.0664C75.8724 37.0446 75.8065 37.0338 75.7331 37.0338C75.6434 37.0338 75.5639 37.0507 75.4946 37.0847C75.4253 37.1173 75.3669 37.1696 75.3193 37.2417C75.2731 37.3137 75.2378 37.4081 75.2133 37.525C75.1889 37.6419 75.1766 37.7839 75.1766 37.951V38.5279C75.1766 38.6611 75.1841 38.7786 75.199 38.8805C75.2153 38.9825 75.2391 39.0708 75.2704 39.1455C75.3016 39.2189 75.3397 39.2794 75.3845 39.3269C75.4294 39.3745 75.481 39.4098 75.5395 39.4329C75.5992 39.4547 75.6652 39.4656 75.7372 39.4656C75.8296 39.4656 75.9104 39.4479 75.9797 39.4126C76.0491 39.3772 76.1068 39.3222 76.153 39.2474C76.2006 39.1713 76.2359 39.0742 76.259 38.956C76.2821 38.8364 76.2937 38.6937 76.2937 38.5279Z" fill="#333333"/>
<path d="M74.4673 15.3795V15.6893H72.3229V15.4671L73.6519 13.4104H73.9597L73.6295 14.0056L72.7509 15.3795H74.4673ZM74.0535 13.4104V16.3783H73.6764V13.4104H74.0535ZM76.6728 14.6579V15.1104C76.6728 15.3537 76.6511 15.5589 76.6076 15.726C76.5641 15.8932 76.5016 16.0277 76.42 16.1296C76.3385 16.2315 76.24 16.3056 76.1245 16.3518C76.0103 16.3966 75.8812 16.4191 75.7372 16.4191C75.623 16.4191 75.5177 16.4048 75.4212 16.3763C75.3247 16.3477 75.2378 16.3022 75.1603 16.2397C75.0842 16.1758 75.019 16.0929 74.9646 15.991C74.9103 15.8891 74.8688 15.7654 74.8403 15.62C74.8117 15.4746 74.7975 15.3047 74.7975 15.1104V14.6579C74.7975 14.4146 74.8192 14.2108 74.8627 14.0464C74.9076 13.882 74.9707 13.7501 75.0523 13.6509C75.1338 13.5504 75.2317 13.4784 75.3458 13.4349C75.4613 13.3914 75.5904 13.3696 75.7331 13.3696C75.8486 13.3696 75.9546 13.3839 76.0511 13.4124C76.1489 13.4396 76.2359 13.4838 76.312 13.5449C76.3881 13.6047 76.4527 13.6849 76.5056 13.7855C76.56 13.8847 76.6015 14.0063 76.63 14.1503C76.6585 14.2944 76.6728 14.4636 76.6728 14.6579ZM76.2937 15.1716V14.5947C76.2937 14.4615 76.2855 14.3447 76.2692 14.2441C76.2542 14.1422 76.2318 14.0552 76.2019 13.9832C76.172 13.9112 76.134 13.8527 76.0878 13.8079C76.0429 13.763 75.9906 13.7304 75.9308 13.71C75.8724 13.6883 75.8065 13.6774 75.7331 13.6774C75.6434 13.6774 75.5639 13.6944 75.4946 13.7284C75.4253 13.761 75.3669 13.8133 75.3193 13.8853C75.2731 13.9574 75.2378 14.0518 75.2133 14.1687C75.1889 14.2856 75.1766 14.4276 75.1766 14.5947V15.1716C75.1766 15.3047 75.1841 15.4223 75.199 15.5242C75.2153 15.6261 75.2391 15.7145 75.2704 15.7892C75.3016 15.8626 75.3397 15.9231 75.3845 15.9706C75.4294 16.0182 75.481 16.0535 75.5395 16.0766C75.5992 16.0984 75.6652 16.1092 75.7372 16.1092C75.8296 16.1092 75.9104 16.0916 75.9797 16.0562C76.0491 16.0209 76.1068 15.9659 76.153 15.8911C76.2006 15.815 76.2359 15.7179 76.259 15.5996C76.2821 15.48 76.2937 15.3374 76.2937 15.1716Z" fill="#333333"/>
<path d="M151.114 50.3075C151.114 50.4882 151.072 50.6418 150.988 50.7681C150.905 50.8932 150.792 50.9883 150.649 51.0535C150.508 51.1187 150.348 51.1514 150.17 51.1514C149.992 51.1514 149.832 51.1187 149.689 51.0535C149.546 50.9883 149.434 50.8932 149.351 50.7681C149.268 50.6418 149.226 50.4882 149.226 50.3075C149.226 50.1892 149.249 50.0812 149.294 49.9834C149.34 49.8842 149.404 49.7979 149.487 49.7245C149.572 49.6511 149.671 49.5947 149.785 49.5553C149.9 49.5145 150.028 49.4942 150.166 49.4942C150.348 49.4942 150.511 49.5295 150.653 49.6002C150.796 49.6695 150.908 49.7653 150.99 49.8876C151.073 50.0099 151.114 50.1498 151.114 50.3075ZM150.735 50.2993C150.735 50.1892 150.711 50.0921 150.663 50.0078C150.616 49.9222 150.549 49.8556 150.464 49.8081C150.378 49.7605 150.279 49.7367 150.166 49.7367C150.051 49.7367 149.951 49.7605 149.866 49.8081C149.784 49.8556 149.719 49.9222 149.673 50.0078C149.627 50.0921 149.604 50.1892 149.604 50.2993C149.604 50.4135 149.626 50.5113 149.671 50.5928C149.717 50.673 149.782 50.7349 149.866 50.7783C149.952 50.8205 150.053 50.8415 150.17 50.8415C150.287 50.8415 150.388 50.8205 150.472 50.7783C150.556 50.7349 150.621 50.673 150.666 50.5928C150.712 50.5113 150.735 50.4135 150.735 50.2993ZM151.045 48.9153C151.045 49.0593 151.007 49.1891 150.931 49.3046C150.854 49.4201 150.75 49.5111 150.619 49.5777C150.487 49.6443 150.337 49.6776 150.17 49.6776C150 49.6776 149.849 49.6443 149.716 49.5777C149.584 49.5111 149.481 49.4201 149.406 49.3046C149.331 49.1891 149.294 49.0593 149.294 48.9153C149.294 48.7427 149.331 48.5959 149.406 48.475C149.482 48.354 149.586 48.2616 149.718 48.1977C149.849 48.1339 150 48.1019 150.168 48.1019C150.338 48.1019 150.489 48.1339 150.621 48.1977C150.753 48.2616 150.856 48.354 150.931 48.475C151.007 48.5959 151.045 48.7427 151.045 48.9153ZM150.668 48.9214C150.668 48.8222 150.647 48.7345 150.604 48.6584C150.562 48.5823 150.504 48.5225 150.429 48.479C150.354 48.4342 150.267 48.4118 150.168 48.4118C150.069 48.4118 149.982 48.4328 149.907 48.475C149.834 48.5157 149.776 48.5742 149.734 48.6503C149.693 48.7264 149.673 48.8167 149.673 48.9214C149.673 49.0233 149.693 49.1123 149.734 49.1884C149.776 49.2645 149.835 49.3236 149.909 49.3657C149.984 49.4079 150.071 49.4289 150.17 49.4289C150.269 49.4289 150.356 49.4079 150.429 49.3657C150.504 49.3236 150.562 49.2645 150.604 49.1884C150.647 49.1123 150.668 49.0233 150.668 48.9214ZM153.462 50.3075C153.462 50.4882 153.42 50.6418 153.336 50.7681C153.253 50.8932 153.14 50.9883 152.997 51.0535C152.856 51.1187 152.696 51.1514 152.518 51.1514C152.34 51.1514 152.18 51.1187 152.037 51.0535C151.895 50.9883 151.782 50.8932 151.699 50.7681C151.616 50.6418 151.575 50.4882 151.575 50.3075C151.575 50.1892 151.597 50.0812 151.642 49.9834C151.688 49.8842 151.753 49.7979 151.836 49.7245C151.92 49.6511 152.019 49.5947 152.133 49.5553C152.249 49.5145 152.376 49.4942 152.514 49.4942C152.696 49.4942 152.859 49.5295 153.002 49.6002C153.144 49.6695 153.256 49.7653 153.338 49.8876C153.421 50.0099 153.462 50.1498 153.462 50.3075ZM153.083 50.2993C153.083 50.1892 153.059 50.0921 153.012 50.0078C152.964 49.9222 152.898 49.8556 152.812 49.8081C152.726 49.7605 152.627 49.7367 152.514 49.7367C152.399 49.7367 152.299 49.7605 152.215 49.8081C152.132 49.8556 152.067 49.9222 152.021 50.0078C151.975 50.0921 151.952 50.1892 151.952 50.2993C151.952 50.4135 151.974 50.5113 152.019 50.5928C152.065 50.673 152.13 50.7349 152.215 50.7783C152.3 50.8205 152.402 50.8415 152.518 50.8415C152.635 50.8415 152.736 50.8205 152.82 50.7783C152.904 50.7349 152.969 50.673 153.014 50.5928C153.06 50.5113 153.083 50.4135 153.083 50.2993ZM153.393 48.9153C153.393 49.0593 153.355 49.1891 153.279 49.3046C153.203 49.4201 153.099 49.5111 152.967 49.5777C152.835 49.6443 152.686 49.6776 152.518 49.6776C152.349 49.6776 152.197 49.6443 152.064 49.5777C151.932 49.5111 151.829 49.4201 151.754 49.3046C151.679 49.1891 151.642 49.0593 151.642 48.9153C151.642 48.7427 151.679 48.5959 151.754 48.475C151.83 48.354 151.934 48.2616 152.066 48.1977C152.198 48.1339 152.348 48.1019 152.516 48.1019C152.686 48.1019 152.837 48.1339 152.969 48.1977C153.101 48.2616 153.204 48.354 153.279 48.475C153.355 48.5959 153.393 48.7427 153.393 48.9153ZM153.016 48.9214C153.016 48.8222 152.995 48.7345 152.953 48.6584C152.91 48.5823 152.852 48.5225 152.777 48.479C152.703 48.4342 152.616 48.4118 152.516 48.4118C152.417 48.4118 152.33 48.4328 152.255 48.475C152.182 48.5157 152.124 48.5742 152.082 48.6503C152.041 48.7264 152.021 48.8167 152.021 48.9214C152.021 49.0233 152.041 49.1123 152.082 49.1884C152.124 49.2645 152.183 49.3236 152.258 49.3657C152.332 49.4079 152.419 49.4289 152.518 49.4289C152.618 49.4289 152.704 49.4079 152.777 49.3657C152.852 49.3236 152.91 49.2645 152.953 49.1884C152.995 49.1123 153.016 49.0233 153.016 48.9214Z" fill="#333333"/>
<path d="M133.153 24.7864V24.9984L131.924 27.7543H131.526L132.754 25.0962H131.147V24.7864H133.153ZM135.454 26.9511C135.454 27.1319 135.412 27.2854 135.328 27.4118C135.245 27.5368 135.132 27.632 134.99 27.6972C134.848 27.7624 134.689 27.795 134.511 27.795C134.333 27.795 134.172 27.7624 134.03 27.6972C133.887 27.632 133.774 27.5368 133.691 27.4118C133.608 27.2854 133.567 27.1319 133.567 26.9511C133.567 26.8329 133.589 26.7249 133.634 26.627C133.68 26.5278 133.745 26.4416 133.828 26.3682C133.912 26.2948 134.011 26.2384 134.125 26.199C134.241 26.1582 134.368 26.1378 134.507 26.1378C134.689 26.1378 134.851 26.1732 134.994 26.2438C135.136 26.3131 135.249 26.4089 135.33 26.5312C135.413 26.6535 135.454 26.7935 135.454 26.9511ZM135.075 26.943C135.075 26.8329 135.051 26.7358 135.004 26.6515C134.956 26.5659 134.89 26.4993 134.804 26.4517C134.719 26.4042 134.619 26.3804 134.507 26.3804C134.391 26.3804 134.291 26.4042 134.207 26.4517C134.124 26.4993 134.059 26.5659 134.013 26.6515C133.967 26.7358 133.944 26.8329 133.944 26.943C133.944 27.0571 133.966 27.155 134.011 27.2365C134.057 27.3167 134.123 27.3785 134.207 27.422C134.293 27.4641 134.394 27.4852 134.511 27.4852C134.627 27.4852 134.728 27.4641 134.812 27.422C134.897 27.3785 134.961 27.3167 135.006 27.2365C135.052 27.155 135.075 27.0571 135.075 26.943ZM135.385 25.5589C135.385 25.703 135.347 25.8328 135.271 25.9483C135.195 26.0638 135.091 26.1548 134.959 26.2214C134.827 26.288 134.678 26.3213 134.511 26.3213C134.341 26.3213 134.189 26.288 134.056 26.2214C133.924 26.1548 133.821 26.0638 133.746 25.9483C133.671 25.8328 133.634 25.703 133.634 25.5589C133.634 25.3863 133.671 25.2396 133.746 25.1186C133.822 24.9977 133.926 24.9053 134.058 24.8414C134.19 24.7775 134.34 24.7456 134.509 24.7456C134.678 24.7456 134.829 24.7775 134.961 24.8414C135.093 24.9053 135.196 24.9977 135.271 25.1186C135.347 25.2396 135.385 25.3863 135.385 25.5589ZM135.008 25.565C135.008 25.4658 134.987 25.3782 134.945 25.3021C134.903 25.226 134.844 25.1662 134.769 25.1227C134.695 25.0779 134.608 25.0554 134.509 25.0554C134.409 25.0554 134.322 25.0765 134.248 25.1186C134.174 25.1594 134.117 25.2178 134.074 25.2939C134.034 25.37 134.013 25.4604 134.013 25.565C134.013 25.667 134.034 25.756 134.074 25.8321C134.117 25.9082 134.175 25.9673 134.25 26.0094C134.324 26.0515 134.411 26.0726 134.511 26.0726C134.61 26.0726 134.696 26.0515 134.769 26.0094C134.844 25.9673 134.903 25.9082 134.945 25.8321C134.987 25.756 135.008 25.667 135.008 25.565Z" fill="#333333"/>
<path d="M105.901 59.1987H105.934V59.5187H105.901C105.701 59.5187 105.534 59.5513 105.399 59.6166C105.265 59.6804 105.158 59.7667 105.079 59.8754C105.001 59.9828 104.944 60.1037 104.908 60.2383C104.874 60.3728 104.857 60.5094 104.857 60.648V61.0842C104.857 61.216 104.873 61.3329 104.904 61.4348C104.935 61.5354 104.978 61.6203 105.033 61.6896C105.087 61.7589 105.148 61.8112 105.216 61.8466C105.285 61.8819 105.357 61.8995 105.432 61.8995C105.519 61.8995 105.597 61.8832 105.664 61.8506C105.732 61.8167 105.789 61.7698 105.836 61.71C105.883 61.6488 105.919 61.5768 105.944 61.4939C105.968 61.411 105.98 61.32 105.98 61.2208C105.98 61.1324 105.97 61.0475 105.948 60.966C105.926 60.8831 105.893 60.8097 105.848 60.7458C105.803 60.6806 105.747 60.6296 105.679 60.5929C105.612 60.5549 105.533 60.5359 105.44 60.5359C105.336 60.5359 105.238 60.5617 105.147 60.6133C105.057 60.6636 104.983 60.7302 104.925 60.8131C104.867 60.8946 104.835 60.9836 104.827 61.0801L104.627 61.0781C104.646 60.9259 104.681 60.7961 104.733 60.6887C104.786 60.58 104.851 60.4917 104.929 60.4238C105.007 60.3545 105.095 60.3042 105.192 60.2729C105.289 60.2403 105.393 60.224 105.501 60.224C105.65 60.224 105.777 60.2519 105.885 60.3076C105.992 60.3633 106.08 60.438 106.15 60.5318C106.219 60.6242 106.27 60.7288 106.302 60.8457C106.336 60.9612 106.353 61.0801 106.353 61.2024C106.353 61.3424 106.334 61.4735 106.294 61.5958C106.255 61.7181 106.196 61.8255 106.117 61.9179C106.04 62.0103 105.944 62.0823 105.83 62.134C105.715 62.1856 105.583 62.2114 105.432 62.2114C105.272 62.2114 105.132 62.1788 105.012 62.1136C104.893 62.047 104.793 61.9587 104.715 61.8486C104.636 61.7385 104.577 61.6162 104.537 61.4817C104.498 61.3471 104.478 61.2106 104.478 61.072V60.8946C104.478 60.6853 104.499 60.4802 104.541 60.279C104.583 60.0779 104.656 59.8958 104.759 59.7327C104.864 59.5697 105.009 59.4399 105.194 59.3434C105.378 59.2469 105.614 59.1987 105.901 59.1987ZM108.665 60.4503V60.9028C108.665 61.146 108.643 61.3512 108.6 61.5184C108.556 61.6855 108.494 61.8201 108.412 61.922C108.331 62.0239 108.232 62.098 108.117 62.1442C108.003 62.189 107.873 62.2114 107.729 62.2114C107.615 62.2114 107.51 62.1972 107.413 62.1686C107.317 62.1401 107.23 62.0946 107.153 62.032C107.076 61.9682 107.011 61.8853 106.957 61.7834C106.902 61.6814 106.861 61.5578 106.832 61.4124C106.804 61.267 106.79 61.0971 106.79 60.9028V60.4503C106.79 60.207 106.811 60.0032 106.855 59.8387C106.9 59.6743 106.963 59.5425 107.044 59.4433C107.126 59.3427 107.224 59.2707 107.338 59.2272C107.454 59.1837 107.583 59.162 107.725 59.162C107.841 59.162 107.947 59.1763 108.043 59.2048C108.141 59.232 108.228 59.2761 108.304 59.3373C108.38 59.3971 108.445 59.4773 108.498 59.5778C108.552 59.677 108.594 59.7987 108.622 59.9427C108.651 60.0867 108.665 60.2559 108.665 60.4503ZM108.286 60.9639V60.3871C108.286 60.2539 108.278 60.137 108.261 60.0365C108.246 59.9345 108.224 59.8476 108.194 59.7755C108.164 59.7035 108.126 59.6451 108.08 59.6002C108.035 59.5554 107.983 59.5228 107.923 59.5024C107.865 59.4807 107.799 59.4698 107.725 59.4698C107.636 59.4698 107.556 59.4868 107.487 59.5208C107.417 59.5534 107.359 59.6057 107.311 59.6777C107.265 59.7497 107.23 59.8442 107.205 59.961C107.181 60.0779 107.169 60.2199 107.169 60.3871V60.9639C107.169 61.0971 107.176 61.2147 107.191 61.3166C107.208 61.4185 107.231 61.5068 107.263 61.5816C107.294 61.6549 107.332 61.7154 107.377 61.763C107.422 61.8105 107.473 61.8459 107.532 61.869C107.591 61.8907 107.657 61.9016 107.729 61.9016C107.822 61.9016 107.903 61.8839 107.972 61.8486C108.041 61.8133 108.099 61.7582 108.145 61.6835C108.193 61.6074 108.228 61.5102 108.251 61.392C108.274 61.2724 108.286 61.1297 108.286 60.9639Z" fill="#333333"/>
</svg>
