<svg width="170" height="84" viewBox="0 0 170 84" fill="none" xmlns="http://www.w3.org/2000/svg">
<path d="M6.48828 76.5191H166.452" stroke="#1F2937" stroke-width="0.347885"/>
<path d="M6.65625 0.274902L6.65625 76.6921" stroke="#1F2937" stroke-width="0.347885"/>
<path d="M2.57673 38.0562H2.9681C2.94772 38.2438 2.89404 38.4116 2.80707 38.5597C2.7201 38.7078 2.59712 38.8254 2.43812 38.9123C2.27913 38.998 2.08072 39.0408 1.84291 39.0408C1.66897 39.0408 1.51066 39.0082 1.36797 38.9429C1.22664 38.8777 1.10502 38.7853 1.0031 38.6657C0.901178 38.5448 0.822361 38.4 0.766645 38.2315C0.712288 38.0617 0.685109 37.8728 0.685109 37.6649V37.3693C0.685109 37.1614 0.712288 36.9732 0.766645 36.8047C0.822361 36.6348 0.901858 36.4894 1.00514 36.3684C1.10977 36.2475 1.23547 36.1544 1.38224 36.0892C1.529 36.024 1.69411 35.9913 1.87757 35.9913C2.10179 35.9913 2.29136 36.0335 2.44628 36.1177C2.60119 36.202 2.72146 36.3188 2.80707 36.4683C2.89404 36.6164 2.94772 36.7883 2.9681 36.984H2.57673C2.55771 36.8454 2.52238 36.7265 2.47074 36.6273C2.4191 36.5268 2.34572 36.4493 2.25059 36.3949C2.15547 36.3406 2.03112 36.3134 1.87757 36.3134C1.74575 36.3134 1.62956 36.3385 1.529 36.3888C1.4298 36.4391 1.34623 36.5104 1.27828 36.6029C1.21169 36.6953 1.16141 36.806 1.12744 36.9351C1.09347 37.0642 1.07648 37.2076 1.07648 37.3652V37.6649C1.07648 37.8103 1.09143 37.9468 1.12132 38.0746C1.15258 38.2023 1.19946 38.3144 1.26197 38.4109C1.32448 38.5074 1.40398 38.5835 1.50046 38.6392C1.59695 38.6936 1.7111 38.7207 1.84291 38.7207C2.01006 38.7207 2.14324 38.6942 2.24244 38.6412C2.34164 38.5882 2.41638 38.5121 2.46666 38.4129C2.5183 38.3137 2.55499 38.1948 2.57673 38.0562Z" fill="#333333"/>
<path d="M1.8796 14.2951L0.897101 17H0.495539L1.62684 14.0321H1.88572L1.8796 14.2951ZM2.70311 17L1.71857 14.2951L1.71246 14.0321H1.97133L3.10671 17H2.70311ZM2.65215 15.9013V16.2234H0.984752V15.9013H2.65215Z" fill="#333333"/>
<path d="M1.56773 50H0.948061L0.952138 49.68H1.56773C1.77972 49.68 1.95638 49.6358 2.09771 49.5475C2.23904 49.4578 2.34504 49.3328 2.4157 49.1724C2.48772 49.0107 2.52373 48.8218 2.52373 48.6057V48.4243C2.52373 48.2545 2.50335 48.1036 2.46258 47.9718C2.42182 47.8386 2.36202 47.7265 2.2832 47.6355C2.20439 47.5431 2.1079 47.4731 1.99375 47.4255C1.88096 47.378 1.75119 47.3542 1.60442 47.3542H0.935831V47.0321H1.60442C1.79875 47.0321 1.97609 47.0647 2.13644 47.13C2.29679 47.1938 2.43472 47.2869 2.55023 47.4092C2.6671 47.5302 2.75679 47.6769 2.8193 47.8495C2.88181 48.0207 2.91307 48.2137 2.91307 48.4284V48.6057C2.91307 48.8205 2.88181 49.0141 2.8193 49.1867C2.75679 49.3579 2.66642 49.504 2.5482 49.6249C2.43133 49.7459 2.29 49.839 2.12421 49.9042C1.95978 49.9681 1.77429 50 1.56773 50ZM1.15802 47.0321V50H0.764606V47.0321H1.15802Z" fill="#333333"/>
<path d="M1.96114 26.6119H1.20897L1.2049 26.2959H1.88776C2.00055 26.2959 2.09907 26.2769 2.18332 26.2388C2.26758 26.2008 2.33281 26.1464 2.37901 26.0758C2.42657 26.0037 2.45035 25.9181 2.45035 25.8189C2.45035 25.7102 2.42929 25.6219 2.38716 25.5539C2.34639 25.4846 2.2832 25.4343 2.19759 25.4031C2.11334 25.3705 2.00598 25.3542 1.87553 25.3542H1.29663V28H0.903217V25.0321H1.87553C2.02773 25.0321 2.16362 25.0477 2.2832 25.079C2.40279 25.1089 2.50403 25.1564 2.58692 25.2217C2.67118 25.2855 2.73505 25.3671 2.77853 25.4663C2.82202 25.5655 2.84376 25.6844 2.84376 25.823C2.84376 25.9453 2.81251 26.0561 2.75 26.1553C2.68749 26.2531 2.60051 26.3333 2.48908 26.3958C2.37901 26.4583 2.24991 26.4984 2.10179 26.5161L1.96114 26.6119ZM1.94279 28H1.05406L1.27624 27.68H1.94279C2.06782 27.68 2.17381 27.6582 2.26078 27.6147C2.34911 27.5713 2.41638 27.5101 2.46258 27.4313C2.50879 27.3511 2.53189 27.2567 2.53189 27.148C2.53189 27.0379 2.51218 26.9428 2.47277 26.8626C2.43337 26.7824 2.37153 26.7206 2.28728 26.6771C2.20303 26.6336 2.09431 26.6119 1.96114 26.6119H1.40058L1.40466 26.2959H2.17109L2.25467 26.4101C2.39735 26.4223 2.5183 26.4631 2.6175 26.5324C2.7167 26.6003 2.79212 26.6873 2.84376 26.7933C2.89676 26.8993 2.92326 27.0161 2.92326 27.1439C2.92326 27.3287 2.88249 27.485 2.80096 27.6127C2.72078 27.7391 2.60731 27.8356 2.46054 27.9022C2.31378 27.9674 2.1412 28 1.94279 28Z" fill="#333333"/>
<path d="M3.01702 60.68V61H1.44543V60.68H3.01702ZM1.52492 58.0321V61H1.13152V58.0321H1.52492ZM2.80911 59.3081V59.6282H1.44543V59.3081H2.80911ZM2.99664 58.0321V58.3542H1.44543V58.0321H2.99664Z" fill="#333333"/>
<path d="M8.13266 81.0453V81.4978C8.13266 81.7411 8.11092 81.9463 8.06743 82.1134C8.02395 82.2805 7.96144 82.4151 7.8799 82.517C7.79837 82.6189 7.69985 82.693 7.58434 82.7392C7.47019 82.784 7.34109 82.8065 7.19704 82.8065C7.08289 82.8065 6.97758 82.7922 6.88109 82.7636C6.78461 82.7351 6.69764 82.6896 6.62018 82.6271C6.54408 82.5632 6.47885 82.4803 6.42449 82.3784C6.37014 82.2765 6.32869 82.1528 6.30015 82.0074C6.27162 81.862 6.25735 81.6921 6.25735 81.4978V81.0453C6.25735 80.802 6.27909 80.5982 6.32257 80.4338C6.36742 80.2693 6.43061 80.1375 6.51215 80.0383C6.59368 79.9378 6.69152 79.8657 6.80567 79.8223C6.92118 79.7788 7.05028 79.757 7.19297 79.757C7.30848 79.757 7.41447 79.7713 7.51095 79.7998C7.6088 79.827 7.69577 79.8712 7.77187 79.9323C7.84797 79.9921 7.91252 80.0723 7.96552 80.1729C8.01987 80.2721 8.06132 80.3937 8.08986 80.5377C8.11839 80.6818 8.13266 80.851 8.13266 81.0453ZM7.75352 81.559V80.9821C7.75352 80.8489 7.74537 80.7321 7.72906 80.6315C7.71411 80.5296 7.69169 80.4426 7.6618 80.3706C7.6319 80.2986 7.59385 80.2401 7.54765 80.1953C7.5028 80.1504 7.45048 80.1178 7.39069 80.0974C7.33226 80.0757 7.26635 80.0648 7.19297 80.0648C7.10328 80.0648 7.02378 80.0818 6.95448 80.1158C6.88517 80.1484 6.82674 80.2007 6.77917 80.2727C6.73297 80.3448 6.69764 80.4392 6.67318 80.5561C6.64872 80.6729 6.63649 80.8149 6.63649 80.9821V81.559C6.63649 81.6921 6.64396 81.8097 6.65891 81.9116C6.67522 82.0135 6.699 82.1019 6.73025 82.1766C6.76151 82.25 6.79956 82.3104 6.8444 82.358C6.88925 82.4056 6.94089 82.4409 6.99932 82.464C7.05911 82.4857 7.12502 82.4966 7.19704 82.4966C7.28945 82.4966 7.37031 82.479 7.43961 82.4436C7.50892 82.4083 7.56667 82.3533 7.61287 82.2785C7.66044 82.2024 7.69577 82.1052 7.71887 81.987C7.74197 81.8674 7.75352 81.7247 7.75352 81.559Z" fill="#333333"/>
<path d="M46.4332 82.4559V82.7657H44.4906V82.4946L45.4629 81.4122C45.5825 81.279 45.6749 81.1662 45.7401 81.0738C45.8067 80.9801 45.8529 80.8965 45.8787 80.8231C45.9059 80.7484 45.9195 80.6723 45.9195 80.5948C45.9195 80.497 45.8991 80.4086 45.8583 80.3298C45.8189 80.2496 45.7605 80.1858 45.683 80.1382C45.6056 80.0906 45.5118 80.0669 45.4017 80.0669C45.2699 80.0669 45.1599 80.0927 45.0715 80.1443C44.9846 80.1946 44.9193 80.2653 44.8758 80.3563C44.8324 80.4474 44.8106 80.552 44.8106 80.6702H44.4335C44.4335 80.5031 44.4702 80.3502 44.5436 80.2116C44.617 80.073 44.7257 79.9629 44.8697 79.8814C45.0138 79.7985 45.1911 79.757 45.4017 79.757C45.5893 79.757 45.7496 79.7903 45.8828 79.8569C46.016 79.9221 46.1179 80.0145 46.1886 80.1341C46.2606 80.2524 46.2966 80.391 46.2966 80.55C46.2966 80.6369 46.2816 80.7253 46.2518 80.8149C46.2232 80.9033 46.1831 80.9916 46.1315 81.0799C46.0812 81.1683 46.0221 81.2552 45.9541 81.3409C45.8876 81.4265 45.8162 81.5107 45.7401 81.5936L44.9451 82.4559H46.4332ZM47.3138 81.3531L47.0121 81.2756L47.1609 79.7978H48.6835V80.1464H47.4809L47.3912 80.9536C47.4456 80.9223 47.5142 80.8931 47.5971 80.8659C47.6813 80.8387 47.7778 80.8251 47.8865 80.8251C48.0238 80.8251 48.1468 80.8489 48.2555 80.8965C48.3642 80.9427 48.4566 81.0093 48.5327 81.0962C48.6102 81.1832 48.6693 81.2879 48.71 81.4102C48.7508 81.5325 48.7712 81.669 48.7712 81.8199C48.7712 81.9626 48.7515 82.0937 48.7121 82.2133C48.674 82.3329 48.6163 82.4375 48.5388 82.5272C48.4614 82.6155 48.3635 82.6842 48.2453 82.7331C48.1284 82.782 47.9905 82.8065 47.8315 82.8065C47.7119 82.8065 47.5984 82.7901 47.4911 82.7575C47.3851 82.7236 47.29 82.6726 47.2057 82.6047C47.1228 82.5353 47.0549 82.4497 47.0019 82.3478C46.9502 82.2445 46.9176 82.1236 46.904 81.985H47.2628C47.2791 82.0964 47.3117 82.1902 47.3606 82.2663C47.4096 82.3424 47.4734 82.4001 47.5522 82.4395C47.6324 82.4776 47.7255 82.4966 47.8315 82.4966C47.9212 82.4966 48.0007 82.481 48.07 82.4497C48.1393 82.4185 48.1977 82.3736 48.2453 82.3152C48.2929 82.2568 48.3289 82.1861 48.3533 82.1032C48.3791 82.0203 48.3921 81.9272 48.3921 81.824C48.3921 81.7302 48.3791 81.6432 48.3533 81.563C48.3275 81.4829 48.2888 81.4129 48.2371 81.3531C48.1869 81.2933 48.125 81.2471 48.0516 81.2145C47.9783 81.1805 47.894 81.1635 47.7989 81.1635C47.6725 81.1635 47.5767 81.1805 47.5115 81.2145C47.4476 81.2484 47.3817 81.2946 47.3138 81.3531Z" fill="#333333"/>
<path d="M84.8679 81.3531L84.5662 81.2756L84.715 79.7978H86.2377V80.1464H85.035L84.9453 80.9536C84.9997 80.9223 85.0683 80.8931 85.1512 80.8659C85.2355 80.8387 85.3319 80.8251 85.4407 80.8251C85.5779 80.8251 85.7009 80.8489 85.8096 80.8965C85.9183 80.9427 86.0107 81.0093 86.0868 81.0962C86.1643 81.1832 86.2234 81.2879 86.2642 81.4102C86.3049 81.5325 86.3253 81.669 86.3253 81.8199C86.3253 81.9626 86.3056 82.0937 86.2662 82.2133C86.2282 82.3329 86.1704 82.4375 86.0929 82.5272C86.0155 82.6155 85.9176 82.6842 85.7994 82.7331C85.6825 82.782 85.5446 82.8065 85.3856 82.8065C85.266 82.8065 85.1526 82.7901 85.0452 82.7575C84.9392 82.7236 84.8441 82.6726 84.7598 82.6047C84.6769 82.5353 84.609 82.4497 84.556 82.3478C84.5044 82.2445 84.4717 82.1236 84.4582 81.985H84.8169C84.8332 82.0964 84.8658 82.1902 84.9148 82.2663C84.9637 82.3424 85.0275 82.4001 85.1064 82.4395C85.1865 82.4776 85.2796 82.4966 85.3856 82.4966C85.4753 82.4966 85.5548 82.481 85.6241 82.4497C85.6934 82.4185 85.7519 82.3736 85.7994 82.3152C85.847 82.2568 85.883 82.1861 85.9075 82.1032C85.9333 82.0203 85.9462 81.9272 85.9462 81.824C85.9462 81.7302 85.9333 81.6432 85.9075 81.563C85.8816 81.4829 85.8429 81.4129 85.7913 81.3531C85.741 81.2933 85.6792 81.2471 85.6058 81.2145C85.5324 81.1805 85.4481 81.1635 85.353 81.1635C85.2266 81.1635 85.1308 81.1805 85.0656 81.2145C85.0017 81.2484 84.9358 81.2946 84.8679 81.3531ZM88.6022 81.0453V81.4978C88.6022 81.7411 88.5805 81.9463 88.537 82.1134C88.4935 82.2805 88.431 82.4151 88.3494 82.517C88.2679 82.6189 88.1694 82.693 88.0539 82.7392C87.9397 82.784 87.8106 82.8065 87.6666 82.8065C87.5524 82.8065 87.4471 82.7922 87.3506 82.7636C87.2541 82.7351 87.1672 82.6896 87.0897 82.6271C87.0136 82.5632 86.9484 82.4803 86.894 82.3784C86.8397 82.2765 86.7982 82.1528 86.7697 82.0074C86.7412 81.862 86.7269 81.6921 86.7269 81.4978V81.0453C86.7269 80.802 86.7486 80.5982 86.7921 80.4338C86.837 80.2693 86.9001 80.1375 86.9817 80.0383C87.0632 79.9378 87.1611 79.8657 87.2752 79.8223C87.3907 79.7788 87.5198 79.757 87.6625 79.757C87.778 79.757 87.884 79.7713 87.9805 79.7998C88.0783 79.827 88.1653 79.8712 88.2414 79.9323C88.3175 79.9921 88.3821 80.0723 88.4351 80.1729C88.4894 80.2721 88.5309 80.3937 88.5594 80.5377C88.5879 80.6818 88.6022 80.851 88.6022 81.0453ZM88.2231 81.559V80.9821C88.2231 80.8489 88.2149 80.7321 88.1986 80.6315C88.1836 80.5296 88.1612 80.4426 88.1313 80.3706C88.1014 80.2986 88.0634 80.2401 88.0172 80.1953C87.9723 80.1504 87.92 80.1178 87.8602 80.0974C87.8018 80.0757 87.7359 80.0648 87.6625 80.0648C87.5728 80.0648 87.4933 80.0818 87.424 80.1158C87.3547 80.1484 87.2963 80.2007 87.2487 80.2727C87.2025 80.3448 87.1672 80.4392 87.1427 80.5561C87.1183 80.6729 87.106 80.8149 87.106 80.9821V81.559C87.106 81.6921 87.1135 81.8097 87.1284 81.9116C87.1448 82.0135 87.1685 82.1019 87.1998 82.1766C87.231 82.25 87.2691 82.3104 87.3139 82.358C87.3588 82.4056 87.4104 82.4409 87.4689 82.464C87.5286 82.4857 87.5946 82.4966 87.6666 82.4966C87.759 82.4966 87.8398 82.479 87.9091 82.4436C87.9785 82.4083 88.0362 82.3533 88.0824 82.2785C88.13 82.2024 88.1653 82.1052 88.1884 81.987C88.2115 81.8674 88.2231 81.7247 88.2231 81.559Z" fill="#333333"/>
<path d="M126.215 79.7978V80.0098L124.986 82.7657H124.589L125.816 80.1076H124.209V79.7978H126.215ZM127.122 81.3531L126.821 81.2756L126.969 79.7978H128.492V80.1464H127.289L127.2 80.9536C127.254 80.9223 127.323 80.8931 127.406 80.8659C127.49 80.8387 127.586 80.8251 127.695 80.8251C127.832 80.8251 127.955 80.8489 128.064 80.8965C128.173 80.9427 128.265 81.0093 128.341 81.0962C128.419 81.1832 128.478 81.2879 128.519 81.4102C128.559 81.5325 128.58 81.669 128.58 81.8199C128.58 81.9626 128.56 82.0937 128.521 82.2133C128.483 82.3329 128.425 82.4375 128.347 82.5272C128.27 82.6155 128.172 82.6842 128.054 82.7331C127.937 82.782 127.799 82.8065 127.64 82.8065C127.521 82.8065 127.407 82.7901 127.3 82.7575C127.194 82.7236 127.099 82.6726 127.014 82.6047C126.931 82.5353 126.863 82.4497 126.81 82.3478C126.759 82.2445 126.726 82.1236 126.713 81.985H127.071C127.088 82.0964 127.12 82.1902 127.169 82.2663C127.218 82.3424 127.282 82.4001 127.361 82.4395C127.441 82.4776 127.534 82.4966 127.64 82.4966C127.73 82.4966 127.809 82.481 127.879 82.4497C127.948 82.4185 128.006 82.3736 128.054 82.3152C128.101 82.2568 128.137 82.1861 128.162 82.1032C128.188 82.0203 128.201 81.9272 128.201 81.824C128.201 81.7302 128.188 81.6432 128.162 81.563C128.136 81.4829 128.097 81.4129 128.046 81.3531C127.995 81.2933 127.934 81.2471 127.86 81.2145C127.787 81.1805 127.703 81.1635 127.607 81.1635C127.481 81.1635 127.385 81.1805 127.32 81.2145C127.256 81.2484 127.19 81.2946 127.122 81.3531Z" fill="#333333"/>
<path d="M164.275 79.7815V82.7657H163.898V80.2524L163.138 80.5296V80.1892L164.216 79.7815H164.275ZM167.247 81.0453V81.4978C167.247 81.7411 167.225 81.9463 167.182 82.1134C167.138 82.2805 167.076 82.4151 166.994 82.517C166.913 82.6189 166.814 82.693 166.699 82.7392C166.584 82.784 166.455 82.8065 166.311 82.8065C166.197 82.8065 166.092 82.7922 165.995 82.7636C165.899 82.7351 165.812 82.6896 165.734 82.6271C165.658 82.5632 165.593 82.4803 165.539 82.3784C165.484 82.2765 165.443 82.1528 165.414 82.0074C165.386 81.862 165.372 81.6921 165.372 81.4978V81.0453C165.372 80.802 165.393 80.5982 165.437 80.4338C165.482 80.2693 165.545 80.1375 165.626 80.0383C165.708 79.9378 165.806 79.8657 165.92 79.8223C166.035 79.7788 166.165 79.757 166.307 79.757C166.423 79.757 166.529 79.7713 166.625 79.7998C166.723 79.827 166.81 79.8712 166.886 79.9323C166.962 79.9921 167.027 80.0723 167.08 80.1729C167.134 80.2721 167.176 80.3937 167.204 80.5377C167.233 80.6818 167.247 80.851 167.247 81.0453ZM166.868 81.559V80.9821C166.868 80.8489 166.86 80.7321 166.843 80.6315C166.828 80.5296 166.806 80.4426 166.776 80.3706C166.746 80.2986 166.708 80.2401 166.662 80.1953C166.617 80.1504 166.565 80.1178 166.505 80.0974C166.447 80.0757 166.381 80.0648 166.307 80.0648C166.218 80.0648 166.138 80.0818 166.069 80.1158C165.999 80.1484 165.941 80.2007 165.893 80.2727C165.847 80.3448 165.812 80.4392 165.787 80.5561C165.763 80.6729 165.751 80.8149 165.751 80.9821V81.559C165.751 81.6921 165.758 81.8097 165.773 81.9116C165.79 82.0135 165.813 82.1019 165.845 82.1766C165.876 82.25 165.914 82.3104 165.959 82.358C166.004 82.4056 166.055 82.4409 166.114 82.464C166.173 82.4857 166.239 82.4966 166.311 82.4966C166.404 82.4966 166.485 82.479 166.554 82.4436C166.623 82.4083 166.681 82.3533 166.727 82.2785C166.775 82.2024 166.81 82.1052 166.833 81.987C166.856 81.8674 166.868 81.7247 166.868 81.559ZM169.595 81.0453V81.4978C169.595 81.7411 169.573 81.9463 169.53 82.1134C169.486 82.2805 169.424 82.4151 169.342 82.517C169.261 82.6189 169.162 82.693 169.047 82.7392C168.933 82.784 168.804 82.8065 168.66 82.8065C168.545 82.8065 168.44 82.7922 168.344 82.7636C168.247 82.7351 168.16 82.6896 168.083 82.6271C168.007 82.5632 167.941 82.4803 167.887 82.3784C167.833 82.2765 167.791 82.1528 167.763 82.0074C167.734 81.862 167.72 81.6921 167.72 81.4978V81.0453C167.72 80.802 167.742 80.5982 167.785 80.4338C167.83 80.2693 167.893 80.1375 167.975 80.0383C168.056 79.9378 168.154 79.8657 168.268 79.8223C168.384 79.7788 168.513 79.757 168.655 79.757C168.771 79.757 168.877 79.7713 168.973 79.7998C169.071 79.827 169.158 79.8712 169.234 79.9323C169.31 79.9921 169.375 80.0723 169.428 80.1729C169.482 80.2721 169.524 80.3937 169.552 80.5377C169.581 80.6818 169.595 80.851 169.595 81.0453ZM169.216 81.559V80.9821C169.216 80.8489 169.208 80.7321 169.192 80.6315C169.177 80.5296 169.154 80.4426 169.124 80.3706C169.094 80.2986 169.056 80.2401 169.01 80.1953C168.965 80.1504 168.913 80.1178 168.853 80.0974C168.795 80.0757 168.729 80.0648 168.655 80.0648C168.566 80.0648 168.486 80.0818 168.417 80.1158C168.348 80.1484 168.289 80.2007 168.242 80.2727C168.195 80.3448 168.16 80.4392 168.136 80.5561C168.111 80.6729 168.099 80.8149 168.099 80.9821V81.559C168.099 81.6921 168.106 81.8097 168.121 81.9116C168.138 82.0135 168.162 82.1019 168.193 82.1766C168.224 82.25 168.262 82.3104 168.307 82.358C168.352 82.4056 168.403 82.4409 168.462 82.464C168.522 82.4857 168.588 82.4966 168.66 82.4966C168.752 82.4966 168.833 82.479 168.902 82.4436C168.971 82.4083 169.029 82.3533 169.075 82.2785C169.123 82.2024 169.158 82.1052 169.181 81.987C169.204 81.8674 169.216 81.7247 169.216 81.559Z" fill="#333333"/>
<path d="M7 34H71V41H7V34Z" fill="#393939"/>
<path d="M7 12H70V19H7V12Z" fill="#393939"/>
<path d="M92 12H70V19H92V12Z" fill="#717171"/>
<path d="M7 45H147V52H7V45Z" fill="#393939"/>
<path d="M7 23H129V30H7V23Z" fill="#393939"/>
<path d="M147 23H129V30H147V23Z" fill="#717171"/>
<path d="M91 34H70V41H91V34Z" fill="#717171"/>
<path d="M122 56H101V63H122V56Z" fill="#717171"/>
<path d="M159 45H83V52H159V45Z" fill="#717171"/>
<path d="M7 56H102V63H7V56Z" fill="#393939"/>
<path d="M94.4673 37.7359V38.0457H92.3229V37.8235L93.6519 35.7668H93.9597L93.6295 36.362L92.7509 37.7359H94.4673ZM94.0535 35.7668V38.7347H93.6764V35.7668H94.0535ZM96.6728 37.0143V37.4668C96.6728 37.7101 96.6511 37.9152 96.6076 38.0824C96.5641 38.2495 96.5016 38.3841 96.42 38.486C96.3385 38.5879 96.24 38.662 96.1245 38.7082C96.0103 38.753 95.8812 38.7754 95.7372 38.7754C95.623 38.7754 95.5177 38.7612 95.4212 38.7326C95.3247 38.7041 95.2378 38.6586 95.1603 38.5961C95.0842 38.5322 95.019 38.4493 94.9646 38.3474C94.9103 38.2455 94.8688 38.1218 94.8403 37.9764C94.8117 37.831 94.7975 37.6611 94.7975 37.4668V37.0143C94.7975 36.771 94.8192 36.5672 94.8627 36.4028C94.9076 36.2383 94.9707 36.1065 95.0523 36.0073C95.1338 35.9068 95.2317 35.8347 95.3458 35.7912C95.4613 35.7478 95.5904 35.726 95.7331 35.726C95.8486 35.726 95.9546 35.7403 96.0511 35.7688C96.1489 35.796 96.2359 35.8402 96.312 35.9013C96.3881 35.9611 96.4527 36.0413 96.5056 36.1419C96.56 36.2411 96.6015 36.3627 96.63 36.5067C96.6585 36.6508 96.6728 36.82 96.6728 37.0143ZM96.2937 37.528V36.9511C96.2937 36.8179 96.2855 36.701 96.2692 36.6005C96.2542 36.4986 96.2318 36.4116 96.2019 36.3396C96.172 36.2676 96.134 36.2091 96.0878 36.1643C96.0429 36.1194 95.9906 36.0868 95.9308 36.0664C95.8724 36.0447 95.8065 36.0338 95.7331 36.0338C95.6434 36.0338 95.5639 36.0508 95.4946 36.0848C95.4253 36.1174 95.3669 36.1697 95.3193 36.2417C95.2731 36.3138 95.2378 36.4082 95.2133 36.5251C95.1889 36.6419 95.1766 36.7839 95.1766 36.9511V37.528C95.1766 37.6611 95.1841 37.7787 95.199 37.8806C95.2153 37.9825 95.2391 38.0708 95.2704 38.1456C95.3016 38.219 95.3397 38.2794 95.3845 38.327C95.4294 38.3746 95.481 38.4099 95.5395 38.433C95.5992 38.4547 95.6652 38.4656 95.7372 38.4656C95.8296 38.4656 95.9104 38.4479 95.9797 38.4126C96.0491 38.3773 96.1068 38.3222 96.153 38.2475C96.2006 38.1714 96.2359 38.0742 96.259 37.956C96.2821 37.8364 96.2937 37.6937 96.2937 37.528Z" fill="#333333"/>
<path d="M96.2524 16.0012V16.311H94.108V16.0888L95.4371 14.0321H95.7449L95.4146 14.6273L94.5361 16.0012H96.2524ZM95.8386 14.0321V17H95.4615V14.0321H95.8386ZM98.458 15.2796V15.7321C98.458 15.9754 98.4362 16.1806 98.3927 16.3477C98.3492 16.5149 98.2867 16.6494 98.2052 16.7513C98.1237 16.8532 98.0251 16.9273 97.9096 16.9735C97.7955 17.0183 97.6664 17.0408 97.5223 17.0408C97.4082 17.0408 97.3029 17.0265 97.2064 16.998C97.1099 16.9694 97.0229 16.9239 96.9455 16.8614C96.8694 16.7975 96.8041 16.7146 96.7498 16.6127C96.6954 16.5108 96.654 16.3871 96.6254 16.2417C96.5969 16.0963 96.5826 15.9264 96.5826 15.7321V15.2796C96.5826 15.0364 96.6044 14.8325 96.6479 14.6681C96.6927 14.5037 96.7559 14.3718 96.8374 14.2726C96.919 14.1721 97.0168 14.1001 97.131 14.0566C97.2465 14.0131 97.3756 13.9913 97.5183 13.9913C97.6338 13.9913 97.7398 14.0056 97.8362 14.0341C97.9341 14.0613 98.0211 14.1055 98.0972 14.1666C98.1733 14.2264 98.2378 14.3066 98.2908 14.4072C98.3452 14.5064 98.3866 14.628 98.4151 14.772C98.4437 14.9161 98.458 15.0853 98.458 15.2796ZM98.0788 15.7933V15.2164C98.0788 15.0832 98.0707 14.9664 98.0544 14.8658C98.0394 14.7639 98.017 14.6769 97.9871 14.6049C97.9572 14.5329 97.9191 14.4744 97.8729 14.4296C97.8281 14.3847 97.7758 14.3521 97.716 14.3318C97.6575 14.31 97.5916 14.2991 97.5183 14.2991C97.4286 14.2991 97.3491 14.3161 97.2798 14.3501C97.2105 14.3827 97.152 14.435 97.1045 14.5071C97.0583 14.5791 97.0229 14.6735 96.9985 14.7904C96.974 14.9073 96.9618 15.0493 96.9618 15.2164V15.7933C96.9618 15.9264 96.9693 16.044 96.9842 16.1459C97.0005 16.2478 97.0243 16.3362 97.0555 16.4109C97.0868 16.4843 97.1248 16.5448 97.1697 16.5923C97.2145 16.6399 97.2662 16.6752 97.3246 16.6983C97.3844 16.7201 97.4503 16.7309 97.5223 16.7309C97.6147 16.7309 97.6956 16.7133 97.7649 16.6779C97.8342 16.6426 97.892 16.5876 97.9382 16.5128C97.9857 16.4367 98.0211 16.3396 98.0442 16.2213C98.0673 16.1018 98.0788 15.9591 98.0788 15.7933Z" fill="#333333"/>
<path d="M152.165 25.0321V25.2441L150.936 28H150.538L151.765 25.3419H150.159V25.0321H152.165ZM154.466 27.1969C154.466 27.3776 154.424 27.5312 154.34 27.6576C154.257 27.7826 154.144 27.8777 154.001 27.9429C153.86 28.0082 153.7 28.0408 153.522 28.0408C153.344 28.0408 153.184 28.0082 153.041 27.9429C152.899 27.8777 152.786 27.7826 152.703 27.6576C152.62 27.5312 152.579 27.3776 152.579 27.1969C152.579 27.0786 152.601 26.9706 152.646 26.8728C152.692 26.7736 152.757 26.6873 152.839 26.6139C152.924 26.5405 153.023 26.4841 153.137 26.4447C153.253 26.4039 153.38 26.3836 153.518 26.3836C153.7 26.3836 153.863 26.4189 154.005 26.4896C154.148 26.5589 154.26 26.6547 154.342 26.777C154.425 26.8993 154.466 27.0392 154.466 27.1969ZM154.087 27.1887C154.087 27.0786 154.063 26.9815 154.016 26.8972C153.968 26.8116 153.901 26.745 153.816 26.6975C153.73 26.6499 153.631 26.6261 153.518 26.6261C153.403 26.6261 153.303 26.6499 153.219 26.6975C153.136 26.745 153.071 26.8116 153.025 26.8972C152.979 26.9815 152.956 27.0786 152.956 27.1887C152.956 27.3029 152.978 27.4007 153.023 27.4822C153.069 27.5624 153.134 27.6243 153.219 27.6677C153.304 27.7099 153.405 27.7309 153.522 27.7309C153.639 27.7309 153.74 27.7099 153.824 27.6677C153.908 27.6243 153.973 27.5624 154.018 27.4822C154.064 27.4007 154.087 27.3029 154.087 27.1887ZM154.397 25.8047C154.397 25.9487 154.359 26.0785 154.283 26.194C154.207 26.3095 154.103 26.4005 153.971 26.4671C153.839 26.5337 153.689 26.567 153.522 26.567C153.352 26.567 153.201 26.5337 153.068 26.4671C152.936 26.4005 152.833 26.3095 152.758 26.194C152.683 26.0785 152.646 25.9487 152.646 25.8047C152.646 25.6321 152.683 25.4853 152.758 25.3644C152.834 25.2434 152.938 25.151 153.07 25.0871C153.202 25.0233 153.352 24.9913 153.52 24.9913C153.69 24.9913 153.841 25.0233 153.973 25.0871C154.105 25.151 154.208 25.2434 154.283 25.3644C154.359 25.4853 154.397 25.6321 154.397 25.8047ZM154.02 25.8108C154.02 25.7116 153.999 25.6239 153.957 25.5478C153.914 25.4717 153.856 25.4119 153.781 25.3684C153.706 25.3236 153.619 25.3012 153.52 25.3012C153.421 25.3012 153.334 25.3222 153.259 25.3644C153.186 25.4051 153.128 25.4636 153.086 25.5397C153.045 25.6158 153.025 25.7061 153.025 25.8108C153.025 25.9127 153.045 26.0017 153.086 26.0778C153.128 26.1539 153.187 26.213 153.261 26.2551C153.336 26.2973 153.423 26.3183 153.522 26.3183C153.622 26.3183 153.708 26.2973 153.781 26.2551C153.856 26.213 153.914 26.1539 153.957 26.0778C153.999 26.0017 154.02 25.9127 154.02 25.8108Z" fill="#333333"/>
<path d="M125.901 58.1988H125.934V58.5188H125.901C125.701 58.5188 125.534 58.5514 125.399 58.6167C125.265 58.6805 125.158 58.7668 125.079 58.8756C125.001 58.9829 124.944 59.1039 124.908 59.2384C124.874 59.3729 124.857 59.5095 124.857 59.6481V60.0843C124.857 60.2161 124.873 60.333 124.904 60.4349C124.935 60.5355 124.978 60.6204 125.033 60.6897C125.087 60.759 125.148 60.8113 125.216 60.8467C125.285 60.882 125.357 60.8997 125.432 60.8997C125.519 60.8997 125.597 60.8834 125.664 60.8507C125.732 60.8168 125.789 60.7699 125.836 60.7101C125.883 60.6489 125.919 60.5769 125.944 60.494C125.968 60.4111 125.98 60.3201 125.98 60.2209C125.98 60.1326 125.97 60.0476 125.948 59.9661C125.926 59.8832 125.893 59.8098 125.848 59.7459C125.803 59.6807 125.747 59.6298 125.679 59.5931C125.612 59.555 125.533 59.536 125.44 59.536C125.336 59.536 125.238 59.5618 125.147 59.6134C125.057 59.6637 124.983 59.7303 124.925 59.8132C124.867 59.8947 124.835 59.9838 124.827 60.0802L124.627 60.0782C124.646 59.926 124.681 59.7962 124.733 59.6889C124.786 59.5802 124.851 59.4918 124.929 59.4239C125.007 59.3546 125.095 59.3043 125.192 59.273C125.289 59.2404 125.393 59.2241 125.501 59.2241C125.65 59.2241 125.777 59.252 125.885 59.3077C125.992 59.3634 126.08 59.4381 126.15 59.5319C126.219 59.6243 126.27 59.729 126.302 59.8458C126.336 59.9613 126.353 60.0802 126.353 60.2025C126.353 60.3425 126.334 60.4736 126.294 60.596C126.255 60.7183 126.196 60.8256 126.117 60.918C126.04 61.0104 125.944 61.0824 125.83 61.1341C125.715 61.1857 125.583 61.2115 125.432 61.2115C125.272 61.2115 125.132 61.1789 125.012 61.1137C124.893 61.0471 124.793 60.9588 124.715 60.8487C124.636 60.7386 124.577 60.6163 124.537 60.4818C124.498 60.3473 124.478 60.2107 124.478 60.0721V59.8947C124.478 59.6855 124.499 59.4803 124.541 59.2792C124.583 59.078 124.656 58.8959 124.759 58.7329C124.864 58.5698 125.009 58.44 125.194 58.3435C125.378 58.247 125.614 58.1988 125.901 58.1988ZM128.665 59.4504V59.9029C128.665 60.1461 128.643 60.3513 128.6 60.5185C128.556 60.6856 128.494 60.8202 128.412 60.9221C128.331 61.024 128.232 61.0981 128.117 61.1443C128.003 61.1891 127.873 61.2115 127.729 61.2115C127.615 61.2115 127.51 61.1973 127.413 61.1687C127.317 61.1402 127.23 61.0947 127.153 61.0322C127.076 60.9683 127.011 60.8854 126.957 60.7835C126.902 60.6816 126.861 60.5579 126.832 60.4125C126.804 60.2671 126.79 60.0972 126.79 59.9029V59.4504C126.79 59.2071 126.811 59.0033 126.855 58.8389C126.9 58.6744 126.963 58.5426 127.044 58.4434C127.126 58.3429 127.224 58.2708 127.338 58.2273C127.454 58.1839 127.583 58.1621 127.725 58.1621C127.841 58.1621 127.947 58.1764 128.043 58.2049C128.141 58.2321 128.228 58.2763 128.304 58.3374C128.38 58.3972 128.445 58.4774 128.498 58.5779C128.552 58.6771 128.594 58.7988 128.622 58.9428C128.651 59.0869 128.665 59.2561 128.665 59.4504ZM128.286 59.9641V59.3872C128.286 59.254 128.278 59.1371 128.261 59.0366C128.246 58.9347 128.224 58.8477 128.194 58.7757C128.164 58.7036 128.126 58.6452 128.08 58.6004C128.035 58.5555 127.983 58.5229 127.923 58.5025C127.865 58.4808 127.799 58.4699 127.725 58.4699C127.636 58.4699 127.556 58.4869 127.487 58.5209C127.417 58.5535 127.359 58.6058 127.311 58.6778C127.265 58.7499 127.23 58.8443 127.205 58.9612C127.181 59.078 127.169 59.22 127.169 59.3872V59.9641C127.169 60.0972 127.176 60.2148 127.191 60.3167C127.208 60.4186 127.231 60.5069 127.263 60.5817C127.294 60.6551 127.332 60.7155 127.377 60.7631C127.422 60.8107 127.473 60.846 127.532 60.8691C127.591 60.8908 127.657 60.9017 127.729 60.9017C127.822 60.9017 127.903 60.884 127.972 60.8487C128.041 60.8134 128.099 60.7583 128.145 60.6836C128.193 60.6075 128.228 60.5103 128.251 60.3921C128.274 60.2725 128.286 60.1298 128.286 59.9641Z" fill="#333333"/>
<path d="M163.118 48.1969C163.118 48.3776 163.076 48.5312 162.992 48.6576C162.909 48.7826 162.796 48.8777 162.653 48.9429C162.512 49.0082 162.352 49.0408 162.174 49.0408C161.996 49.0408 161.836 49.0082 161.693 48.9429C161.55 48.8777 161.438 48.7826 161.355 48.6576C161.272 48.5312 161.23 48.3776 161.23 48.1969C161.23 48.0786 161.253 47.9706 161.298 47.8728C161.344 47.7736 161.408 47.6873 161.491 47.6139C161.576 47.5405 161.675 47.4841 161.789 47.4447C161.904 47.4039 162.031 47.3836 162.17 47.3836C162.352 47.3836 162.515 47.4189 162.657 47.4896C162.8 47.5589 162.912 47.6547 162.994 47.777C163.076 47.8993 163.118 48.0392 163.118 48.1969ZM162.739 48.1887C162.739 48.0786 162.715 47.9815 162.667 47.8972C162.62 47.8116 162.553 47.745 162.468 47.6975C162.382 47.6499 162.283 47.6261 162.17 47.6261C162.055 47.6261 161.955 47.6499 161.87 47.6975C161.787 47.745 161.723 47.8116 161.677 47.8972C161.631 47.9815 161.607 48.0786 161.607 48.1887C161.607 48.3029 161.63 48.4007 161.675 48.4822C161.721 48.5624 161.786 48.6243 161.87 48.6677C161.956 48.7099 162.057 48.7309 162.174 48.7309C162.291 48.7309 162.392 48.7099 162.476 48.6677C162.56 48.6243 162.625 48.5624 162.669 48.4822C162.716 48.4007 162.739 48.3029 162.739 48.1887ZM163.049 46.8047C163.049 46.9487 163.011 47.0785 162.934 47.194C162.858 47.3095 162.754 47.4005 162.623 47.4671C162.491 47.5337 162.341 47.567 162.174 47.567C162.004 47.567 161.853 47.5337 161.72 47.4671C161.588 47.4005 161.484 47.3095 161.41 47.194C161.335 47.0785 161.298 46.9487 161.298 46.8047C161.298 46.6321 161.335 46.4853 161.41 46.3644C161.486 46.2434 161.59 46.151 161.722 46.0871C161.853 46.0233 162.004 45.9913 162.172 45.9913C162.342 45.9913 162.493 46.0233 162.625 46.0871C162.756 46.151 162.86 46.2434 162.934 46.3644C163.011 46.4853 163.049 46.6321 163.049 46.8047ZM162.671 46.8108C162.671 46.7116 162.65 46.6239 162.608 46.5478C162.566 46.4717 162.508 46.4119 162.433 46.3684C162.358 46.3236 162.271 46.3012 162.172 46.3012C162.073 46.3012 161.986 46.3222 161.911 46.3644C161.838 46.4051 161.78 46.4636 161.738 46.5397C161.697 46.6158 161.677 46.7061 161.677 46.8108C161.677 46.9127 161.697 47.0017 161.738 47.0778C161.78 47.1539 161.838 47.213 161.913 47.2551C161.988 47.2973 162.075 47.3183 162.174 47.3183C162.273 47.3183 162.36 47.2973 162.433 47.2551C162.508 47.213 162.566 47.1539 162.608 47.0778C162.65 47.0017 162.671 46.9127 162.671 46.8108ZM165.466 48.1969C165.466 48.3776 165.424 48.5312 165.34 48.6576C165.257 48.7826 165.144 48.8777 165.001 48.9429C164.86 49.0082 164.7 49.0408 164.522 49.0408C164.344 49.0408 164.184 49.0082 164.041 48.9429C163.899 48.8777 163.786 48.7826 163.703 48.6576C163.62 48.5312 163.579 48.3776 163.579 48.1969C163.579 48.0786 163.601 47.9706 163.646 47.8728C163.692 47.7736 163.757 47.6873 163.839 47.6139C163.924 47.5405 164.023 47.4841 164.137 47.4447C164.253 47.4039 164.38 47.3836 164.518 47.3836C164.7 47.3836 164.863 47.4189 165.005 47.4896C165.148 47.5589 165.26 47.6547 165.342 47.777C165.425 47.8993 165.466 48.0392 165.466 48.1969ZM165.087 48.1887C165.087 48.0786 165.063 47.9815 165.016 47.8972C164.968 47.8116 164.901 47.745 164.816 47.6975C164.73 47.6499 164.631 47.6261 164.518 47.6261C164.403 47.6261 164.303 47.6499 164.219 47.6975C164.136 47.745 164.071 47.8116 164.025 47.8972C163.979 47.9815 163.956 48.0786 163.956 48.1887C163.956 48.3029 163.978 48.4007 164.023 48.4822C164.069 48.5624 164.134 48.6243 164.219 48.6677C164.304 48.7099 164.405 48.7309 164.522 48.7309C164.639 48.7309 164.74 48.7099 164.824 48.6677C164.908 48.6243 164.973 48.5624 165.018 48.4822C165.064 48.4007 165.087 48.3029 165.087 48.1887ZM165.397 46.8047C165.397 46.9487 165.359 47.0785 165.283 47.194C165.207 47.3095 165.103 47.4005 164.971 47.4671C164.839 47.5337 164.689 47.567 164.522 47.567C164.352 47.567 164.201 47.5337 164.068 47.4671C163.936 47.4005 163.833 47.3095 163.758 47.194C163.683 47.0785 163.646 46.9487 163.646 46.8047C163.646 46.6321 163.683 46.4853 163.758 46.3644C163.834 46.2434 163.938 46.151 164.07 46.0871C164.202 46.0233 164.352 45.9913 164.52 45.9913C164.69 45.9913 164.841 46.0233 164.973 46.0871C165.105 46.151 165.208 46.2434 165.283 46.3644C165.359 46.4853 165.397 46.6321 165.397 46.8047ZM165.02 46.8108C165.02 46.7116 164.999 46.6239 164.957 46.5478C164.914 46.4717 164.856 46.4119 164.781 46.3684C164.706 46.3236 164.619 46.3012 164.52 46.3012C164.421 46.3012 164.334 46.3222 164.259 46.3644C164.186 46.4051 164.128 46.4636 164.086 46.5397C164.045 46.6158 164.025 46.7061 164.025 46.8108C164.025 46.9127 164.045 47.0017 164.086 47.0778C164.128 47.1539 164.187 47.213 164.261 47.2551C164.336 47.2973 164.423 47.3183 164.522 47.3183C164.622 47.3183 164.708 47.2973 164.781 47.2551C164.856 47.213 164.914 47.1539 164.957 47.0778C164.999 47.0017 165.02 46.9127 165.02 46.8108Z" fill="#333333"/>
</svg>
