<svg width="135" height="94" viewBox="0 0 135 94" fill="none" xmlns="http://www.w3.org/2000/svg">
<rect x="56.0957" y="10.7097" width="2.96774" height="29.871" fill="#1F2937"/>
<rect x="0.998047" y="1.80646" width="20.129" height="29.8064" fill="#1F2937"/>
<rect x="59.0625" y="22.6451" width="2.96774" height="35.8064" fill="#1F2937"/>
<rect x="94.0303" y="44.5806" width="2.96774" height="35.8064" fill="#D0D4DA"/>
<rect x="96.998" y="44.5806" width="2.96774" height="8.96774" fill="#D0D4DA"/>
<rect x="96.998" y="53.5484" width="2.96774" height="7.48387" fill="#D0D4DA"/>
<rect x="96.998" y="61.0322" width="2.96774" height="5.74193" fill="#D0D4DA"/>
<rect x="96.998" y="66.7742" width="2.96774" height="5.48387" fill="#D0D4DA"/>
<rect x="96.998" y="72.258" width="2.96774" height="4.45161" fill="#D0D4DA"/>
<rect x="96.998" y="76.7097" width="2.96774" height="3.67742" fill="#D0D4DA"/>
<rect x="131.966" y="40.1935" width="2.96774" height="8.96774" fill="#D0D4DA"/>
<rect x="131.966" y="51.4194" width="2.96774" height="7.48387" fill="#D0D4DA"/>
<rect x="131.966" y="60.4516" width="2.96774" height="5.74193" fill="#D0D4DA"/>
<rect x="131.966" y="67.7419" width="2.96774" height="5.48387" fill="#D0D4DA"/>
<rect x="131.966" y="74.5161" width="2.96774" height="4.45161" fill="#D0D4DA"/>
<rect x="131.966" y="90.258" width="2.96774" height="3.74193" fill="#D0D4DA"/>
<rect x="59.0625" y="10.7097" width="2.96774" height="11.9355" fill="#1F2937"/>
<rect x="94.0303" y="7.16132" width="2.96774" height="11.9355" fill="#1F2937"/>
<rect x="96.998" y="7.16132" width="2.96774" height="8.96774" fill="#1F2937"/>
<rect x="96.998" y="16.129" width="2.96774" height="2.96774" fill="#1F2937"/>
<rect x="131.966" y="4.19354" width="2.96774" height="8.90322" fill="#1F2937"/>
<rect x="131.966" y="19.6774" width="2.96774" height="2.96774" fill="#1F2937"/>
<rect x="56.0957" y="40.5806" width="2.96774" height="11.871" fill="#1F2937"/>
<rect x="56.0957" y="52.4515" width="2.96774" height="6" fill="#1F2937"/>
<rect x="0.998047" y="48.9032" width="20.129" height="11.9355" fill="#1F2937"/>
<rect x="0.998047" y="74.3225" width="20.129" height="5.93548" fill="#1F2937"/>
<path d="M10.1931 16.5161H9.84168L10.8582 13.7478H11.2042L12.2207 16.5161H11.8693L11.042 14.1857H11.0204L10.1931 16.5161ZM10.3229 15.4347H11.7395V15.7321H10.3229V15.4347Z" fill="white"/>
<path d="M54.6089 6.38708V4.69794H55.1796C55.3116 4.69794 55.4199 4.72048 55.5046 4.76557C55.5893 4.81011 55.6519 4.87141 55.6926 4.94949C55.7333 5.02757 55.7537 5.11637 55.7537 5.2159C55.7537 5.31542 55.7333 5.40367 55.6926 5.48065C55.6519 5.55763 55.5895 5.61812 55.5054 5.6621C55.4213 5.70554 55.3138 5.72726 55.1829 5.72726H54.721V5.54251H55.1763C55.2665 5.54251 55.3391 5.52931 55.3941 5.50292C55.4496 5.47653 55.4897 5.43914 55.5145 5.39075C55.5398 5.34181 55.5524 5.28353 55.5524 5.2159C55.5524 5.14827 55.5398 5.08916 55.5145 5.03857C55.4892 4.98798 55.4488 4.94894 55.3932 4.92145C55.3377 4.89341 55.2643 4.87939 55.173 4.87939H54.8134V6.38708H54.6089ZM55.404 5.62829L55.8196 6.38708H55.5821L55.173 5.62829H55.404ZM56.5857 6.41348C56.4636 6.41348 56.3583 6.38654 56.2698 6.33265C56.1818 6.27821 56.1139 6.20233 56.066 6.10501C56.0188 6.00714 55.9951 5.89332 55.9951 5.76355C55.9951 5.63379 56.0188 5.51942 56.066 5.42044C56.1139 5.32092 56.1804 5.24339 56.2656 5.18786C56.3514 5.13177 56.4515 5.10373 56.5659 5.10373C56.6318 5.10373 56.697 5.11472 56.7613 5.13672C56.8257 5.15871 56.8842 5.19445 56.937 5.24394C56.9898 5.29288 57.0319 5.35776 57.0632 5.43859C57.0945 5.51942 57.1102 5.61894 57.1102 5.73716V5.81964H56.1337V5.65138H56.9123C56.9123 5.5799 56.898 5.51612 56.8694 5.46003C56.8413 5.40395 56.8012 5.35968 56.749 5.32724C56.6973 5.2948 56.6362 5.27858 56.5659 5.27858C56.4883 5.27858 56.4213 5.29783 56.3646 5.33632C56.3085 5.37426 56.2654 5.42374 56.2351 5.48478C56.2049 5.54581 56.1898 5.61124 56.1898 5.68107V5.79324C56.1898 5.88892 56.2063 5.97002 56.2393 6.03655C56.2728 6.10254 56.3193 6.15285 56.3786 6.18749C56.438 6.22158 56.507 6.23862 56.5857 6.23862C56.6368 6.23862 56.683 6.23148 56.7242 6.21718C56.766 6.20233 56.802 6.18034 56.8323 6.1512C56.8625 6.12151 56.8859 6.08467 56.9024 6.04068L57.0904 6.09346C57.0706 6.15725 57.0374 6.21333 56.9906 6.26172C56.9439 6.30956 56.8862 6.34695 56.8174 6.37389C56.7487 6.40028 56.6714 6.41348 56.5857 6.41348ZM58.4037 5.12022L57.9352 6.38708H57.7373L57.2688 5.12022H57.4799L57.8296 6.12975H57.8428L58.1925 5.12022H58.4037ZM59.1464 6.41348C59.0243 6.41348 58.919 6.38654 58.8305 6.33265C58.7425 6.27821 58.6746 6.20233 58.6268 6.10501C58.5795 6.00714 58.5559 5.89332 58.5559 5.76355C58.5559 5.63379 58.5795 5.51942 58.6268 5.42044C58.6746 5.32092 58.7412 5.24339 58.8264 5.18786C58.9122 5.13177 59.0122 5.10373 59.1266 5.10373C59.1926 5.10373 59.2577 5.11472 59.3221 5.13672C59.3864 5.15871 59.445 5.19445 59.4977 5.24394C59.5505 5.29288 59.5926 5.35776 59.6239 5.43859C59.6553 5.51942 59.671 5.61894 59.671 5.73716V5.81964H58.6944V5.65138H59.473C59.473 5.5799 59.4587 5.51612 59.4301 5.46003C59.4021 5.40395 59.3619 5.35968 59.3097 5.32724C59.258 5.2948 59.197 5.27858 59.1266 5.27858C59.0491 5.27858 58.982 5.29783 58.9254 5.33632C58.8693 5.37426 58.8261 5.42374 58.7959 5.48478C58.7656 5.54581 58.7505 5.61124 58.7505 5.68107V5.79324C58.7505 5.88892 58.767 5.97002 58.8 6.03655C58.8335 6.10254 58.88 6.15285 58.9394 6.18749C58.9988 6.22158 59.0678 6.23862 59.1464 6.23862C59.1975 6.23862 59.2437 6.23148 59.285 6.21718C59.3267 6.20233 59.3628 6.18034 59.393 6.1512C59.4232 6.12151 59.4466 6.08467 59.4631 6.04068L59.6512 6.09346C59.6314 6.15725 59.5981 6.21333 59.5514 6.26172C59.5046 6.30956 59.4469 6.34695 59.3782 6.37389C59.3094 6.40028 59.2322 6.41348 59.1464 6.41348ZM60.1617 5.62499V6.38708H59.967V5.12022H60.1551V5.31817H60.1716C60.2013 5.25384 60.2464 5.20215 60.3069 5.16311C60.3673 5.12352 60.4454 5.10373 60.5411 5.10373C60.6269 5.10373 60.7019 5.12132 60.7663 5.15651C60.8306 5.19115 60.8806 5.24394 60.9164 5.31487C60.9521 5.38525 60.97 5.47433 60.97 5.5821V6.38708H60.7753V5.5953C60.7753 5.49577 60.7495 5.41824 60.6978 5.36271C60.6461 5.30662 60.5752 5.27858 60.485 5.27858C60.4229 5.27858 60.3673 5.29205 60.3184 5.319C60.27 5.34594 60.2318 5.38525 60.2038 5.43694C60.1757 5.48862 60.1617 5.55131 60.1617 5.62499ZM62.1241 5.86912V5.12022H62.3187V6.38708H62.1241V6.17264H62.1109C62.0812 6.23698 62.035 6.29169 61.9723 6.33677C61.9096 6.38131 61.8304 6.40358 61.7348 6.40358C61.6556 6.40358 61.5852 6.38626 61.5236 6.35162C61.462 6.31643 61.4136 6.26364 61.3785 6.19326C61.3433 6.12233 61.3257 6.03298 61.3257 5.92521V5.12022H61.5203V5.91201C61.5203 6.00439 61.5462 6.07807 61.5978 6.13305C61.6501 6.18804 61.7166 6.21553 61.7974 6.21553C61.8458 6.21553 61.895 6.20316 61.9451 6.17842C61.9957 6.15367 62.038 6.11573 62.0721 6.0646C62.1067 6.01346 62.1241 5.9483 62.1241 5.86912ZM63.2064 6.41348C63.0843 6.41348 62.979 6.38654 62.8905 6.33265C62.8025 6.27821 62.7346 6.20233 62.6868 6.10501C62.6395 6.00714 62.6158 5.89332 62.6158 5.76355C62.6158 5.63379 62.6395 5.51942 62.6868 5.42044C62.7346 5.32092 62.8011 5.24339 62.8864 5.18786C62.9721 5.13177 63.0722 5.10373 63.1866 5.10373C63.2526 5.10373 63.3177 5.11472 63.382 5.13672C63.4464 5.15871 63.5049 5.19445 63.5577 5.24394C63.6105 5.29288 63.6526 5.35776 63.6839 5.43859C63.7153 5.51942 63.7309 5.61894 63.7309 5.73716V5.81964H62.7544V5.65138H63.533C63.533 5.5799 63.5187 5.51612 63.4901 5.46003C63.4621 5.40395 63.4219 5.35968 63.3697 5.32724C63.318 5.2948 63.257 5.27858 63.1866 5.27858C63.109 5.27858 63.042 5.29783 62.9853 5.33632C62.9292 5.37426 62.8861 5.42374 62.8558 5.48478C62.8256 5.54581 62.8105 5.61124 62.8105 5.68107V5.79324C62.8105 5.88892 62.827 5.97002 62.86 6.03655C62.8935 6.10254 62.94 6.15285 62.9993 6.18749C63.0587 6.22158 63.1277 6.23862 63.2064 6.23862C63.2575 6.23862 63.3037 6.23148 63.3449 6.21718C63.3867 6.20233 63.4227 6.18034 63.453 6.1512C63.4832 6.12151 63.5066 6.08467 63.5231 6.04068L63.7111 6.09346C63.6913 6.15725 63.6581 6.21333 63.6113 6.26172C63.5646 6.30956 63.5069 6.34695 63.4381 6.37389C63.3694 6.40028 63.2921 6.41348 63.2064 6.41348Z" fill="#1B1818"/>
<path d="M91.8249 0.83871C91.8067 0.783175 91.7828 0.733413 91.7531 0.689425C91.724 0.644887 91.689 0.606947 91.6484 0.575606C91.6082 0.544264 91.5626 0.520345 91.5114 0.50385C91.4603 0.487354 91.4042 0.479106 91.3432 0.479106C91.2431 0.479106 91.1521 0.504949 91.0702 0.556636C90.9883 0.608322 90.9231 0.684477 90.8747 0.7851C90.8263 0.885723 90.8021 1.00916 90.8021 1.15543C90.8021 1.30169 90.8266 1.42513 90.8755 1.52575C90.9245 1.62637 90.9907 1.70253 91.0743 1.75422C91.1579 1.8059 91.2519 1.83174 91.3564 1.83174C91.4532 1.83174 91.5384 1.81113 91.6121 1.76989C91.6863 1.7281 91.744 1.66926 91.7853 1.59338C91.8271 1.51695 91.848 1.42705 91.848 1.32368L91.9106 1.33688H91.4026V1.15543H92.0459V1.33688C92.0459 1.47599 92.0162 1.59696 91.9568 1.69978C91.898 1.8026 91.8166 1.88233 91.7127 1.93897C91.6093 1.99505 91.4906 2.02309 91.3564 2.02309C91.2068 2.02309 91.0754 1.9879 90.9621 1.91752C90.8494 1.84714 90.7614 1.74707 90.6982 1.6173C90.6355 1.48754 90.6042 1.33358 90.6042 1.15543C90.6042 1.02181 90.6221 0.901668 90.6578 0.794997C90.6941 0.687776 90.7452 0.5965 90.8112 0.52117C90.8772 0.44584 90.9553 0.388106 91.0454 0.347966C91.1356 0.307827 91.2349 0.287757 91.3432 0.287757C91.4323 0.287757 91.5153 0.301229 91.5923 0.328172C91.6698 0.354565 91.7388 0.39223 91.7993 0.441166C91.8603 0.489554 91.9112 0.547563 91.9519 0.615195C91.9926 0.682277 92.0206 0.756782 92.036 0.83871H91.8249ZM92.3698 2V0.733138H92.5579V0.924487H92.5711C92.5942 0.861804 92.636 0.810943 92.6964 0.771903C92.7569 0.732863 92.8251 0.713344 92.901 0.713344C92.9153 0.713344 92.9332 0.713619 92.9546 0.714169C92.9761 0.714718 92.9923 0.715543 93.0033 0.716643V0.91459C92.9967 0.91294 92.9815 0.910466 92.9579 0.907167C92.9348 0.903318 92.9103 0.901394 92.8845 0.901394C92.8229 0.901394 92.7679 0.914315 92.7195 0.940158C92.6717 0.965451 92.6338 1.00064 92.6057 1.04573C92.5782 1.09027 92.5645 1.14113 92.5645 1.19831V2H92.3698ZM93.7101 2.02639C93.5957 2.02639 93.4954 1.99918 93.4091 1.94474C93.3233 1.8903 93.2562 1.81415 93.2078 1.71628C93.16 1.6184 93.1361 1.50403 93.1361 1.37317C93.1361 1.2412 93.16 1.12601 93.2078 1.02758C93.2562 0.929161 93.3233 0.852732 93.4091 0.798296C93.4954 0.743861 93.5957 0.716643 93.7101 0.716643C93.8245 0.716643 93.9245 0.743861 94.0103 0.798296C94.0966 0.852732 94.1637 0.929161 94.2116 1.02758C94.26 1.12601 94.2841 1.2412 94.2841 1.37317C94.2841 1.50403 94.26 1.6184 94.2116 1.71628C94.1637 1.81415 94.0966 1.8903 94.0103 1.94474C93.9245 1.99918 93.8245 2.02639 93.7101 2.02639ZM93.7101 1.85154C93.797 1.85154 93.8685 1.82927 93.9245 1.78473C93.9806 1.74019 94.0221 1.68164 94.0491 1.60905C94.076 1.53647 94.0895 1.45784 94.0895 1.37317C94.0895 1.28849 94.076 1.20959 94.0491 1.13646C94.0221 1.06333 93.9806 1.00422 93.9245 0.959128C93.8685 0.91404 93.797 0.891496 93.7101 0.891496C93.6232 0.891496 93.5517 0.91404 93.4957 0.959128C93.4396 1.00422 93.3981 1.06333 93.3711 1.13646C93.3442 1.20959 93.3307 1.28849 93.3307 1.37317C93.3307 1.45784 93.3442 1.53647 93.3711 1.60905C93.3981 1.68164 93.4396 1.74019 93.4957 1.78473C93.5517 1.82927 93.6232 1.85154 93.7101 1.85154ZM95.4786 1.01686L95.3038 1.06635C95.2928 1.03721 95.2766 1.00889 95.2551 0.981397C95.2342 0.953355 95.2056 0.930261 95.1693 0.912116C95.1331 0.89397 95.0866 0.884898 95.03 0.884898C94.9524 0.884898 94.8878 0.902768 94.8361 0.938509C94.785 0.973699 94.7594 1.01851 94.7594 1.07295C94.7594 1.12133 94.777 1.15955 94.8122 1.18759C94.8474 1.21563 94.9024 1.239 94.9772 1.2577L95.1652 1.30389C95.2785 1.33138 95.3629 1.37344 95.4184 1.43008C95.474 1.48616 95.5017 1.55847 95.5017 1.64699C95.5017 1.71957 95.4808 1.78446 95.439 1.84164C95.3978 1.89883 95.3401 1.94391 95.2658 1.97691C95.1916 2.0099 95.1053 2.02639 95.0069 2.02639C94.8776 2.02639 94.7707 1.99835 94.686 1.94227C94.6013 1.88618 94.5477 1.80425 94.5252 1.69648L94.7099 1.65029C94.7275 1.71848 94.7608 1.76961 94.8097 1.8037C94.8592 1.83779 94.9238 1.85484 95.0036 1.85484C95.0943 1.85484 95.1663 1.83559 95.2197 1.7971C95.2735 1.75806 95.3005 1.71133 95.3005 1.65689C95.3005 1.6129 95.2851 1.57606 95.2543 1.54637C95.2235 1.51613 95.1762 1.49359 95.1124 1.47874L94.9013 1.42925C94.7853 1.40176 94.7 1.35915 94.6456 1.30141C94.5917 1.24313 94.5648 1.17027 94.5648 1.08285C94.5648 1.01136 94.5849 0.948131 94.625 0.893146C94.6657 0.83816 94.7209 0.794997 94.7908 0.763655C94.8612 0.732314 94.9409 0.716643 95.03 0.716643C95.1553 0.716643 95.2537 0.744136 95.3252 0.799121C95.3973 0.854106 95.4484 0.926687 95.4786 1.01686ZM96.6921 1.01686L96.5172 1.06635C96.5062 1.03721 96.49 1.00889 96.4686 0.981397C96.4477 0.953355 96.4191 0.930261 96.3828 0.912116C96.3465 0.89397 96.3 0.884898 96.2434 0.884898C96.1659 0.884898 96.1013 0.902768 96.0496 0.938509C95.9985 0.973699 95.9729 1.01851 95.9729 1.07295C95.9729 1.12133 95.9905 1.15955 96.0257 1.18759C96.0609 1.21563 96.1158 1.239 96.1906 1.2577L96.3787 1.30389C96.4919 1.33138 96.5763 1.37344 96.6319 1.43008C96.6874 1.48616 96.7152 1.55847 96.7152 1.64699C96.7152 1.71957 96.6943 1.78446 96.6525 1.84164C96.6113 1.89883 96.5535 1.94391 96.4793 1.97691C96.4051 2.0099 96.3187 2.02639 96.2203 2.02639C96.0911 2.02639 95.9842 1.99835 95.8995 1.94227C95.8148 1.88618 95.7612 1.80425 95.7386 1.69648L95.9234 1.65029C95.941 1.71848 95.9743 1.76961 96.0232 1.8037C96.0727 1.83779 96.1373 1.85484 96.217 1.85484C96.3077 1.85484 96.3798 1.83559 96.4331 1.7971C96.487 1.75806 96.5139 1.71133 96.5139 1.65689C96.5139 1.6129 96.4985 1.57606 96.4678 1.54637C96.437 1.51613 96.3897 1.49359 96.3259 1.47874L96.1147 1.42925C95.9987 1.40176 95.9135 1.35915 95.8591 1.30141C95.8052 1.24313 95.7782 1.17027 95.7782 1.08285C95.7782 1.01136 95.7983 0.948131 95.8384 0.893146C95.8791 0.83816 95.9344 0.794997 96.0042 0.763655C96.0746 0.732314 96.1543 0.716643 96.2434 0.716643C96.3688 0.716643 96.4672 0.744136 96.5387 0.799121C96.6107 0.854106 96.6619 0.926687 96.6921 1.01686ZM97.6878 2V0.310851H98.2586C98.3911 0.310851 98.4994 0.33477 98.5835 0.382607C98.6682 0.429895 98.7309 0.493952 98.7716 0.574781C98.8123 0.655609 98.8326 0.745785 98.8326 0.845309C98.8326 0.944832 98.8123 1.03528 98.7716 1.11666C98.7314 1.19804 98.6693 1.26292 98.5852 1.31131C98.501 1.35915 98.3933 1.38306 98.2619 1.38306H97.8528V1.20161H98.2553C98.346 1.20161 98.4188 1.18594 98.4738 1.1546C98.5288 1.12326 98.5687 1.08092 98.5934 1.02758C98.6187 0.973699 98.6314 0.91294 98.6314 0.845309C98.6314 0.777677 98.6187 0.717193 98.5934 0.663857C98.5687 0.610521 98.5285 0.568732 98.473 0.538491C98.4175 0.507699 98.3438 0.492303 98.252 0.492303H97.8924V2H97.6878ZM99.1357 2V0.733138H99.3238V0.924487H99.337C99.3601 0.861804 99.4018 0.810943 99.4623 0.771903C99.5228 0.732863 99.591 0.713344 99.6669 0.713344C99.6812 0.713344 99.699 0.713619 99.7205 0.714169C99.7419 0.714718 99.7581 0.715543 99.7691 0.716643V0.91459C99.7625 0.91294 99.7474 0.910466 99.7238 0.907167C99.7007 0.903318 99.6762 0.901394 99.6504 0.901394C99.5888 0.901394 99.5338 0.914315 99.4854 0.940158C99.4376 0.965451 99.3996 1.00064 99.3716 1.04573C99.3441 1.09027 99.3304 1.14113 99.3304 1.19831V2H99.1357ZM100.476 2.02639C100.362 2.02639 100.261 1.99918 100.175 1.94474C100.089 1.8903 100.022 1.81415 99.9737 1.71628C99.9258 1.6184 99.9019 1.50403 99.9019 1.37317C99.9019 1.2412 99.9258 1.12601 99.9737 1.02758C100.022 0.929161 100.089 0.852732 100.175 0.798296C100.261 0.743861 100.362 0.716643 100.476 0.716643C100.59 0.716643 100.69 0.743861 100.776 0.798296C100.863 0.852732 100.93 0.929161 100.977 1.02758C101.026 1.12601 101.05 1.2412 101.05 1.37317C101.05 1.50403 101.026 1.6184 100.977 1.71628C100.93 1.81415 100.863 1.8903 100.776 1.94474C100.69 1.99918 100.59 2.02639 100.476 2.02639ZM100.476 1.85154C100.563 1.85154 100.634 1.82927 100.69 1.78473C100.747 1.74019 100.788 1.68164 100.815 1.60905C100.842 1.53647 100.855 1.45784 100.855 1.37317C100.855 1.28849 100.842 1.20959 100.815 1.13646C100.788 1.06333 100.747 1.00422 100.69 0.959128C100.634 0.91404 100.563 0.891496 100.476 0.891496C100.389 0.891496 100.318 0.91404 100.262 0.959128C100.205 1.00422 100.164 1.06333 100.137 1.13646C100.11 1.20959 100.097 1.28849 100.097 1.37317C100.097 1.45784 100.11 1.53647 100.137 1.60905C100.164 1.68164 100.205 1.74019 100.262 1.78473C100.318 1.82927 100.389 1.85154 100.476 1.85154ZM101.911 0.733138V0.898094H101.228V0.733138H101.911ZM101.433 2V0.558285C101.433 0.485705 101.45 0.425221 101.484 0.376834C101.518 0.328447 101.562 0.292156 101.617 0.267963C101.671 0.243769 101.729 0.231672 101.789 0.231672C101.837 0.231672 101.876 0.235521 101.906 0.243219C101.937 0.250917 101.959 0.258065 101.974 0.264664L101.918 0.432919C101.908 0.42962 101.894 0.425496 101.877 0.420547C101.86 0.415598 101.837 0.413124 101.809 0.413124C101.745 0.413124 101.698 0.429345 101.67 0.461786C101.642 0.494227 101.628 0.54179 101.628 0.604473V2H101.433ZM102.184 2V0.733138H102.379V2H102.184ZM102.283 0.521995C102.245 0.521995 102.212 0.509073 102.185 0.48323C102.158 0.457387 102.145 0.426321 102.145 0.39003C102.145 0.35374 102.158 0.322673 102.185 0.29683C102.212 0.270987 102.245 0.258065 102.283 0.258065C102.321 0.258065 102.353 0.270987 102.38 0.29683C102.408 0.322673 102.422 0.35374 102.422 0.39003C102.422 0.426321 102.408 0.457387 102.38 0.48323C102.353 0.509073 102.321 0.521995 102.283 0.521995ZM103.286 0.733138V0.898094H102.63V0.733138H103.286ZM102.821 0.42962H103.016V1.6371C103.016 1.69208 103.024 1.73332 103.04 1.76081C103.056 1.78776 103.077 1.8059 103.102 1.81525C103.128 1.82405 103.155 1.82845 103.184 1.82845C103.205 1.82845 103.223 1.82735 103.237 1.82515C103.25 1.8224 103.261 1.8202 103.27 1.81855L103.309 1.9934C103.296 1.99835 103.278 2.0033 103.254 2.00825C103.23 2.01375 103.2 2.0165 103.164 2.0165C103.109 2.0165 103.055 2.00467 103.002 1.98103C102.95 1.95739 102.907 1.92137 102.872 1.87298C102.838 1.8246 102.821 1.76356 102.821 1.68988V0.42962Z" fill="#1B1818"/>
<path d="M92.6 40.6451V38.956H93.6194V39.1374H92.8045V39.7082H93.5666V39.8896H92.8045V40.4637H93.6326V40.6451H92.6ZM94.1069 39.3783L94.4104 39.8962L94.7139 39.3783H94.9382L94.5291 40.0117L94.9382 40.6451H94.7139L94.4104 40.1536L94.1069 40.6451H93.8825L94.285 40.0117L93.8825 39.3783H94.1069ZM95.216 41.1202V39.3783H95.404V39.5795H95.4271C95.4414 39.5575 95.4612 39.5295 95.4865 39.4954C95.5123 39.4608 95.5492 39.43 95.597 39.403C95.6454 39.3755 95.7108 39.3618 95.7933 39.3618C95.9 39.3618 95.994 39.3885 96.0754 39.4418C96.1568 39.4951 96.2203 39.5707 96.2659 39.6686C96.3116 39.7665 96.3344 39.8819 96.3344 40.015C96.3344 40.1492 96.3116 40.2655 96.2659 40.3639C96.2203 40.4618 96.1571 40.5376 96.0762 40.5915C95.9954 40.6449 95.9022 40.6715 95.7966 40.6715C95.7152 40.6715 95.6501 40.6581 95.6012 40.6311C95.5522 40.6036 95.5145 40.5726 95.4882 40.5379C95.4618 40.5027 95.4414 40.4736 95.4271 40.4505H95.4106V41.1202H95.216ZM95.4073 40.0117C95.4073 40.1074 95.4213 40.1918 95.4494 40.2649C95.4774 40.3375 95.5184 40.3944 95.5723 40.4356C95.6262 40.4763 95.6922 40.4967 95.7702 40.4967C95.8516 40.4967 95.9195 40.4752 95.974 40.4323C96.0289 40.3889 96.0702 40.3306 96.0977 40.2575C96.1257 40.1838 96.1397 40.1019 96.1397 40.0117C96.1397 39.9226 96.126 39.8424 96.0985 39.7709C96.0716 39.6988 96.0306 39.6419 95.9756 39.6001C95.9212 39.5578 95.8527 39.5366 95.7702 39.5366C95.6911 39.5366 95.6245 39.5567 95.5706 39.5968C95.5167 39.6364 95.4761 39.692 95.4486 39.7635C95.4211 39.8344 95.4073 39.9171 95.4073 40.0117ZM97.1625 40.6715C97.0404 40.6715 96.9351 40.6446 96.8466 40.5907C96.7586 40.5363 96.6907 40.4604 96.6428 40.3631C96.5956 40.2652 96.5719 40.1514 96.5719 40.0216C96.5719 39.8918 96.5956 39.7775 96.6428 39.6785C96.6907 39.579 96.7572 39.5014 96.8424 39.4459C96.9282 39.3898 97.0283 39.3618 97.1427 39.3618C97.2086 39.3618 97.2738 39.3728 97.3381 39.3948C97.4025 39.4168 97.461 39.4525 97.5138 39.502C97.5666 39.5509 97.6087 39.6158 97.64 39.6966C97.6713 39.7775 97.687 39.877 97.687 39.9952V40.0777H96.7105V39.9094H97.4891C97.4891 39.838 97.4748 39.7742 97.4462 39.7181C97.4181 39.662 97.378 39.6177 97.3258 39.5853C97.2741 39.5529 97.213 39.5366 97.1427 39.5366C97.0651 39.5366 96.9981 39.5559 96.9414 39.5944C96.8853 39.6323 96.8422 39.6818 96.8119 39.7428C96.7817 39.8039 96.7666 39.8693 96.7666 39.9391V40.0513C96.7666 40.147 96.7831 40.2281 96.8161 40.2946C96.8496 40.3606 96.8961 40.4109 96.9554 40.4455C97.0148 40.4796 97.0838 40.4967 97.1625 40.4967C97.2136 40.4967 97.2598 40.4895 97.301 40.4752C97.3428 40.4604 97.3788 40.4384 97.4091 40.4093C97.4393 40.3796 97.4627 40.3427 97.4792 40.2987L97.6672 40.3515C97.6474 40.4153 97.6142 40.4714 97.5674 40.5198C97.5207 40.5676 97.463 40.605 97.3942 40.6319C97.3255 40.6583 97.2482 40.6715 97.1625 40.6715ZM98.1778 39.883V40.6451H97.9831V39.3783H98.1712V39.5762H98.1877C98.2174 39.5119 98.2624 39.4602 98.3229 39.4212C98.3834 39.3816 98.4615 39.3618 98.5572 39.3618C98.6429 39.3618 98.718 39.3794 98.7823 39.4146C98.8467 39.4492 98.8967 39.502 98.9324 39.5729C98.9682 39.6433 98.986 39.7324 98.986 39.8402V40.6451H98.7914V39.8534C98.7914 39.7538 98.7656 39.6763 98.7139 39.6208C98.6622 39.5647 98.5913 39.5366 98.5011 39.5366C98.4389 39.5366 98.3834 39.5501 98.3345 39.5771C98.2861 39.604 98.2479 39.6433 98.2198 39.695C98.1918 39.7467 98.1778 39.8094 98.1778 39.883ZM100.239 39.662L100.064 39.7115C100.053 39.6823 100.037 39.654 100.016 39.6265C99.9947 39.5985 99.9661 39.5754 99.9298 39.5573C99.8935 39.5391 99.847 39.53 99.7904 39.53C99.7129 39.53 99.6483 39.5479 99.5966 39.5837C99.5455 39.6188 99.5199 39.6637 99.5199 39.7181C99.5199 39.7665 99.5375 39.8047 99.5727 39.8327C99.6079 39.8608 99.6628 39.8841 99.7376 39.9028L99.9257 39.949C100.039 39.9765 100.123 40.0186 100.179 40.0752C100.234 40.1313 100.262 40.2036 100.262 40.2921C100.262 40.3647 100.241 40.4296 100.2 40.4868C100.158 40.544 100.101 40.5891 100.026 40.622C99.9521 40.655 99.8657 40.6715 99.7673 40.6715C99.6381 40.6715 99.5312 40.6435 99.4465 40.5874C99.3618 40.5313 99.3082 40.4494 99.2856 40.3416L99.4704 40.2954C99.488 40.3636 99.5213 40.4148 99.5702 40.4488C99.6197 40.4829 99.6843 40.5 99.764 40.5C99.8547 40.5 99.9268 40.4807 99.9801 40.4422C100.034 40.4032 100.061 40.3565 100.061 40.302C100.061 40.258 100.046 40.2212 100.015 40.1915C99.984 40.1613 99.9367 40.1387 99.8729 40.1239L99.6617 40.0744C99.5457 40.0469 99.4605 40.0043 99.4061 39.9466C99.3522 39.8883 99.3252 39.8154 99.3252 39.728C99.3252 39.6565 99.3453 39.5933 99.3854 39.5383C99.4261 39.4833 99.4814 39.4401 99.5512 39.4088C99.6216 39.3775 99.7013 39.3618 99.7904 39.3618C99.9158 39.3618 100.014 39.3893 100.086 39.4443C100.158 39.4992 100.209 39.5718 100.239 39.662ZM101.086 40.6715C100.964 40.6715 100.859 40.6446 100.77 40.5907C100.682 40.5363 100.615 40.4604 100.567 40.3631C100.519 40.2652 100.496 40.1514 100.496 40.0216C100.496 39.8918 100.519 39.7775 100.567 39.6785C100.615 39.579 100.681 39.5014 100.766 39.4459C100.852 39.3898 100.952 39.3618 101.067 39.3618C101.133 39.3618 101.198 39.3728 101.262 39.3948C101.326 39.4168 101.385 39.4525 101.438 39.502C101.49 39.5509 101.533 39.6158 101.564 39.6966C101.595 39.7775 101.611 39.877 101.611 39.9952V40.0777H100.634V39.9094H101.413C101.413 39.838 101.399 39.7742 101.37 39.7181C101.342 39.662 101.302 39.6177 101.25 39.5853C101.198 39.5529 101.137 39.5366 101.067 39.5366C100.989 39.5366 100.922 39.5559 100.865 39.5944C100.809 39.6323 100.766 39.6818 100.736 39.7428C100.706 39.8039 100.69 39.8693 100.69 39.9391V40.0513C100.69 40.147 100.707 40.2281 100.74 40.2946C100.773 40.3606 100.82 40.4109 100.879 40.4455C100.939 40.4796 101.008 40.4967 101.086 40.4967C101.137 40.4967 101.184 40.4895 101.225 40.4752C101.267 40.4604 101.303 40.4384 101.333 40.4093C101.363 40.3796 101.387 40.3427 101.403 40.2987L101.591 40.3515C101.571 40.4153 101.538 40.4714 101.491 40.5198C101.445 40.5676 101.387 40.605 101.318 40.6319C101.249 40.6583 101.172 40.6715 101.086 40.6715Z" fill="#1B1818"/>
<path d="M10.3409 54.7419V52.7243H11.0463C11.1868 52.7243 11.3027 52.7486 11.394 52.7973C11.4853 52.8452 11.5533 52.9099 11.598 52.9913C11.6426 53.0721 11.6649 53.1618 11.6649 53.2603C11.6649 53.347 11.6495 53.4186 11.6186 53.475C11.5884 53.5315 11.5484 53.5762 11.4985 53.609C11.4492 53.6419 11.3957 53.6662 11.3379 53.6819V53.7016C11.3996 53.7056 11.4617 53.7272 11.5241 53.7666C11.5865 53.806 11.6387 53.8625 11.6807 53.9361C11.7227 54.0096 11.7438 54.0996 11.7438 54.206C11.7438 54.3072 11.7208 54.3981 11.6748 54.4789C11.6288 54.5597 11.5563 54.6237 11.4571 54.671C11.3579 54.7183 11.2289 54.7419 11.0699 54.7419H10.3409ZM10.5852 54.5252H11.0699C11.2295 54.5252 11.3428 54.4943 11.4098 54.4326C11.4774 54.3702 11.5113 54.2947 11.5113 54.206C11.5113 54.1377 11.4939 54.0747 11.459 54.0169C11.4242 53.9584 11.3747 53.9118 11.3103 53.877C11.2459 53.8415 11.1697 53.8238 11.0817 53.8238H10.5852V54.5252ZM10.5852 53.611H11.0384C11.1119 53.611 11.1783 53.5965 11.2374 53.5676C11.2972 53.5387 11.3444 53.498 11.3793 53.4455C11.4147 53.3929 11.4324 53.3312 11.4324 53.2603C11.4324 53.1716 11.4016 53.0964 11.3398 53.0347C11.2781 52.9723 11.1802 52.9411 11.0463 52.9411H10.5852V53.611Z" fill="white"/>
<path d="M11.5978 76.0645H11.4274C11.4173 76.0155 11.3996 75.9724 11.3744 75.9353C11.3497 75.8982 11.3195 75.867 11.2837 75.8418C11.2484 75.8161 11.2093 75.7969 11.1662 75.7841C11.1231 75.7712 11.0782 75.7648 11.0315 75.7648C10.9462 75.7648 10.869 75.7864 10.7998 75.8294C10.7311 75.8725 10.6764 75.936 10.6356 76.0198C10.5953 76.1037 10.5751 76.2065 10.5751 76.3284C10.5751 76.4503 10.5953 76.5532 10.6356 76.637C10.6764 76.7209 10.7311 76.7843 10.7998 76.8274C10.869 76.8705 10.9462 76.892 11.0315 76.892C11.0782 76.892 11.1231 76.8856 11.1662 76.8728C11.2093 76.8599 11.2484 76.8409 11.2837 76.8157C11.3195 76.7901 11.3497 76.7587 11.3744 76.7216C11.3996 76.684 11.4173 76.6409 11.4274 76.5923H11.5978C11.585 76.6643 11.5616 76.7287 11.5277 76.7855C11.4938 76.8423 11.4516 76.8906 11.4012 76.9305C11.3508 76.9699 11.2943 76.9999 11.2315 77.0205C11.1692 77.0412 11.1025 77.0515 11.0315 77.0515C10.9114 77.0515 10.8047 77.0221 10.7112 76.9635C10.6177 76.9048 10.5442 76.8214 10.4906 76.7133C10.4369 76.6052 10.4101 76.4769 10.4101 76.3284C10.4101 76.18 10.4369 76.0517 10.4906 75.9435C10.5442 75.8354 10.6177 75.752 10.7112 75.6933C10.8047 75.6347 10.9114 75.6054 11.0315 75.6054C11.1025 75.6054 11.1692 75.6157 11.2315 75.6363C11.2943 75.6569 11.3508 75.6871 11.4012 75.727C11.4516 75.7664 11.4938 75.8145 11.5277 75.8713C11.5616 75.9277 11.585 75.9921 11.5978 76.0645Z" fill="white"/>
<path opacity="0.2" fill-rule="evenodd" clip-rule="evenodd" d="M56.0957 10.7097C38.6118 10.7097 38.6118 1.80646 21.1279 1.80646V31.6129C38.6118 31.6129 38.6118 40.5806 56.0957 40.5806" fill="url(#paint0_linear_994_10825)"/>
<path opacity="0.2" fill-rule="evenodd" clip-rule="evenodd" d="M56.0957 40.5806C38.6118 40.5806 38.6118 48.9032 21.1279 48.9032V60.8387C38.6118 60.8387 38.6118 52.4516 56.0957 52.4516" fill="url(#paint1_linear_994_10825)"/>
<path opacity="0.2" fill-rule="evenodd" clip-rule="evenodd" d="M56.0957 52.4515C38.6118 52.4515 38.6118 74.3225 21.1279 74.3225V80.258C38.6118 80.258 38.6118 58.4515 56.0957 58.4515" fill="url(#paint2_linear_994_10825)"/>
<path opacity="0.2" fill-rule="evenodd" clip-rule="evenodd" d="M94.0303 7.16132C78.0303 7.16132 78.0303 10.7097 62.0303 10.7097V22.6452C78.0303 22.6452 78.0303 19.0968 94.0303 19.0968" fill="url(#paint3_linear_994_10825)"/>
<path opacity="0.2" fill-rule="evenodd" clip-rule="evenodd" d="M94.0303 44.5806C78.0303 44.5806 78.0303 22.6451 62.0303 22.6451V58.4516C78.0303 58.4516 78.0303 80.387 94.0303 80.387" fill="url(#paint4_linear_994_10825)"/>
<path opacity="0.2" fill-rule="evenodd" clip-rule="evenodd" d="M131.966 4.19354C115.966 4.19354 115.966 7.16128 99.9658 7.16128V16.129C115.966 16.129 115.966 13.0968 131.966 13.0968" fill="url(#paint5_linear_994_10825)"/>
<path opacity="0.2" fill-rule="evenodd" clip-rule="evenodd" d="M131.966 19.6774C115.966 19.6774 115.966 16.129 99.9658 16.129V19.0967C115.966 19.0967 115.966 22.6451 131.966 22.6451" fill="url(#paint6_linear_994_10825)"/>
<path opacity="0.2" fill-rule="evenodd" clip-rule="evenodd" d="M131.966 40.1935C115.966 40.1935 115.966 44.5806 99.9658 44.5806V53.5484C115.966 53.5484 115.966 49.1613 131.966 49.1613" fill="url(#paint7_linear_994_10825)"/>
<path opacity="0.2" fill-rule="evenodd" clip-rule="evenodd" d="M131.966 51.4194C115.966 51.4194 115.966 53.5484 99.9658 53.5484V61.0323C115.966 61.0323 115.966 58.9032 131.966 58.9032" fill="url(#paint8_linear_994_10825)"/>
<path opacity="0.2" fill-rule="evenodd" clip-rule="evenodd" d="M131.966 60.4516C115.966 60.4516 115.966 61.0322 99.9658 61.0322V66.7742C115.966 66.7742 115.966 66.1935 131.966 66.1935" fill="url(#paint9_linear_994_10825)"/>
<path opacity="0.2" fill-rule="evenodd" clip-rule="evenodd" d="M131.966 67.7419C115.966 67.7419 115.966 66.7742 99.9658 66.7742V72.258C115.966 72.258 115.966 73.2258 131.966 73.2258" fill="url(#paint10_linear_994_10825)"/>
<path opacity="0.2" fill-rule="evenodd" clip-rule="evenodd" d="M131.966 74.5161C115.966 74.5161 115.966 72.258 99.9658 72.258V76.7096C115.966 76.7096 115.966 78.9677 131.966 78.9677" fill="url(#paint11_linear_994_10825)"/>
<path opacity="0.2" fill-rule="evenodd" clip-rule="evenodd" d="M131.966 90.258C115.966 90.258 115.966 76.7097 99.9658 76.7097V80.3871C115.966 80.3871 115.966 94 131.966 94" fill="url(#paint12_linear_994_10825)"/>
<defs>
<linearGradient id="paint0_linear_994_10825" x1="21.1279" y1="1.80646" x2="38.6118" y2="40.5806" gradientUnits="userSpaceOnUse">
<stop/>
<stop offset="0.5"/>
</linearGradient>
<linearGradient id="paint1_linear_994_10825" x1="21.1279" y1="40.5806" x2="38.6118" y2="60.8387" gradientUnits="userSpaceOnUse">
<stop/>
<stop offset="0.5"/>
</linearGradient>
<linearGradient id="paint2_linear_994_10825" x1="21.1279" y1="52.4515" x2="38.6118" y2="80.258" gradientUnits="userSpaceOnUse">
<stop/>
<stop offset="0.5"/>
</linearGradient>
<linearGradient id="paint3_linear_994_10825" x1="62.0303" y1="7.16132" x2="78.0303" y2="22.6452" gradientUnits="userSpaceOnUse">
<stop/>
<stop offset="0.5"/>
</linearGradient>
<linearGradient id="paint4_linear_994_10825" x1="62.0303" y1="22.6451" x2="78.0303" y2="80.387" gradientUnits="userSpaceOnUse">
<stop stop-color="#D0D4DA"/>
<stop offset="0.5" stop-color="#BCBCBC"/>
</linearGradient>
<linearGradient id="paint5_linear_994_10825" x1="99.9658" y1="4.19354" x2="115.966" y2="16.129" gradientUnits="userSpaceOnUse">
<stop/>
<stop offset="0.5"/>
</linearGradient>
<linearGradient id="paint6_linear_994_10825" x1="99.9658" y1="16.129" x2="115.966" y2="22.6451" gradientUnits="userSpaceOnUse">
<stop/>
<stop offset="0.5"/>
</linearGradient>
<linearGradient id="paint7_linear_994_10825" x1="99.9658" y1="40.1935" x2="115.966" y2="53.5484" gradientUnits="userSpaceOnUse">
<stop stop-color="#717171"/>
<stop offset="0.5" stop-color="#717171"/>
</linearGradient>
<linearGradient id="paint8_linear_994_10825" x1="99.9658" y1="51.4194" x2="115.966" y2="61.0323" gradientUnits="userSpaceOnUse">
<stop stop-color="#717171"/>
<stop offset="0.5" stop-color="#717171"/>
</linearGradient>
<linearGradient id="paint9_linear_994_10825" x1="99.9658" y1="60.4516" x2="115.966" y2="66.7742" gradientUnits="userSpaceOnUse">
<stop stop-color="#717171"/>
<stop offset="0.5" stop-color="#717171"/>
</linearGradient>
<linearGradient id="paint10_linear_994_10825" x1="99.9658" y1="66.7742" x2="115.966" y2="73.2258" gradientUnits="userSpaceOnUse">
<stop stop-color="#717171"/>
<stop offset="0.5" stop-color="#717171"/>
</linearGradient>
<linearGradient id="paint11_linear_994_10825" x1="99.9658" y1="72.258" x2="115.966" y2="78.9677" gradientUnits="userSpaceOnUse">
<stop stop-color="#717171"/>
<stop offset="0.5" stop-color="#717171"/>
</linearGradient>
<linearGradient id="paint12_linear_994_10825" x1="99.9658" y1="76.7097" x2="115.966" y2="94" gradientUnits="userSpaceOnUse">
<stop stop-color="#717171"/>
<stop offset="0.5" stop-color="#717171"/>
</linearGradient>
</defs>
</svg>
