<svg width="170" height="64" viewBox="0 0 170 64" fill="none" xmlns="http://www.w3.org/2000/svg">
<path d="M10.5605 54.1143H168.454" stroke="black" stroke-width="0.254491"/>
<path d="M10.5596 56.0996V54.1143" stroke="black" stroke-width="0.254491"/>
<path d="M10.5029 61.9492C10.3395 61.9492 10.2004 61.9047 10.0854 61.8158C9.97045 61.7261 9.88261 61.5964 9.82188 61.4265C9.76115 61.2558 9.73078 61.0498 9.73078 60.8083C9.73078 60.5683 9.76115 60.3633 9.82188 60.1934C9.88333 60.0228 9.97153 59.8927 10.0865 59.803C10.2022 59.7126 10.341 59.6674 10.5029 59.6674C10.6649 59.6674 10.8033 59.7126 10.9183 59.803C11.034 59.8927 11.1222 60.0228 11.1829 60.1934C11.2444 60.3633 11.2751 60.5683 11.2751 60.8083C11.2751 61.0498 11.2447 61.2558 11.184 61.4265C11.1233 61.5964 11.0354 61.7261 10.9205 61.8158C10.8055 61.9047 10.6663 61.9492 10.5029 61.9492ZM10.5029 61.7106C10.6649 61.7106 10.7907 61.6325 10.8803 61.4764C10.97 61.3202 11.0148 61.0975 11.0148 60.8083C11.0148 60.616 10.9942 60.4522 10.953 60.317C10.9125 60.1818 10.8539 60.0788 10.7773 60.008C10.7014 59.9371 10.6099 59.9017 10.5029 59.9017C10.3424 59.9017 10.217 59.9809 10.1266 60.1392C10.0362 60.2968 9.99106 60.5198 9.99106 60.8083C9.99106 61.0006 10.0113 61.164 10.0518 61.2985C10.0923 61.433 10.1505 61.5353 10.2264 61.6054C10.303 61.6755 10.3952 61.7106 10.5029 61.7106Z" fill="black"/>
<path d="M50.0332 56.0996V54.1143" stroke="black" stroke-width="0.254491"/>
<path d="M49.9847 61.9492C49.8415 61.9492 49.7139 61.9246 49.6019 61.8754C49.4905 61.8263 49.402 61.758 49.3362 61.6705C49.2711 61.5823 49.2357 61.48 49.2299 61.3636H49.5032C49.509 61.4351 49.5336 61.497 49.5769 61.549C49.6203 61.6003 49.6771 61.6401 49.7472 61.6683C49.8173 61.6965 49.895 61.7106 49.9804 61.7106C50.0758 61.7106 50.1604 61.694 50.2341 61.6607C50.3079 61.6275 50.3657 61.5812 50.4076 61.5219C50.4496 61.4626 50.4705 61.3939 50.4705 61.3159C50.4705 61.2342 50.4503 61.1622 50.4098 61.1C50.3693 61.0371 50.31 60.988 50.232 60.9526C50.1539 60.9171 50.0584 60.8994 49.9457 60.8994H49.7678V60.6608H49.9457C50.0339 60.6608 50.1112 60.6449 50.1777 60.6131C50.245 60.5813 50.2974 60.5365 50.335 60.4786C50.3733 60.4208 50.3925 60.3528 50.3925 60.2748C50.3925 60.1996 50.3758 60.1341 50.3426 60.0785C50.3093 60.0228 50.2623 59.9794 50.2016 59.9483C50.1416 59.9172 50.0707 59.9017 49.989 59.9017C49.9124 59.9017 49.8401 59.9158 49.7721 59.944C49.7049 59.9715 49.65 60.0116 49.6073 60.0644C49.5646 60.1164 49.5415 60.1793 49.5379 60.2531H49.2776C49.282 60.1367 49.317 60.0347 49.3828 59.9472C49.4486 59.859 49.5346 59.7904 49.6409 59.7412C49.7479 59.692 49.8654 59.6674 49.9934 59.6674C50.1307 59.6674 50.2486 59.6953 50.3469 59.7509C50.4452 59.8059 50.5208 59.8786 50.5736 59.9689C50.6263 60.0593 50.6527 60.1569 50.6527 60.2617C50.6527 60.3868 50.6198 60.4935 50.554 60.5817C50.489 60.6699 50.4004 60.731 50.2884 60.7649V60.7823C50.4286 60.8054 50.5381 60.8651 50.6169 60.9612C50.6958 61.0567 50.7352 61.1749 50.7352 61.3159C50.7352 61.4366 50.7023 61.545 50.6365 61.6412C50.5714 61.7366 50.4825 61.8118 50.3697 61.8668C50.2569 61.9217 50.1286 61.9492 49.9847 61.9492Z" fill="black"/>
<path d="M89.5059 56.0996V54.1143" stroke="black" stroke-width="0.254491"/>
<path d="M89.4647 61.9492C89.3736 61.9477 89.2825 61.9304 89.1914 61.8971C89.1003 61.8639 89.0172 61.8078 88.942 61.729C88.8668 61.6495 88.8064 61.5421 88.7609 61.4069C88.7153 61.271 88.6926 61.1004 88.6926 60.8951C88.6926 60.6984 88.711 60.5242 88.7479 60.3724C88.7847 60.2198 88.8382 60.0915 88.9084 59.9874C88.9785 59.8825 89.0631 59.803 89.1621 59.7488C89.2619 59.6946 89.3743 59.6674 89.4994 59.6674C89.6238 59.6674 89.7344 59.6924 89.8313 59.7423C89.9289 59.7914 90.0084 59.8601 90.0698 59.9483C90.1313 60.0365 90.1711 60.1381 90.1891 60.2531H89.9245C89.8999 60.1533 89.8522 60.0705 89.7814 60.0047C89.7105 59.9389 89.6165 59.906 89.4994 59.906C89.3273 59.906 89.1918 59.9809 89.0927 60.1305C88.9944 60.2802 88.9449 60.4902 88.9442 60.7606H88.9615C89.002 60.6991 89.0501 60.6467 89.1057 60.6033C89.1621 60.5592 89.2243 60.5253 89.2923 60.5014C89.3602 60.4776 89.4322 60.4656 89.5081 60.4656C89.6353 60.4656 89.7517 60.4974 89.8573 60.5611C89.9628 60.624 90.0474 60.7111 90.1111 60.8224C90.1747 60.933 90.2065 61.0599 90.2065 61.2031C90.2065 61.3404 90.1758 61.4662 90.1143 61.5805C90.0528 61.694 89.9665 61.7843 89.8551 61.8516C89.7445 61.9181 89.6144 61.9506 89.4647 61.9492ZM89.4647 61.7106C89.5558 61.7106 89.6375 61.6878 89.7098 61.6423C89.7828 61.5967 89.8403 61.5356 89.8822 61.459C89.9249 61.3824 89.9462 61.2971 89.9462 61.2031C89.9462 61.1112 89.9256 61.0277 89.8844 60.9526C89.8439 60.8766 89.7879 60.8163 89.7163 60.7714C89.6454 60.7266 89.5645 60.7042 89.4734 60.7042C89.4047 60.7042 89.3407 60.7179 89.2814 60.7454C89.2221 60.7722 89.1701 60.809 89.1253 60.856C89.0812 60.903 89.0465 60.9569 89.0211 61.0176C88.9958 61.0776 88.9832 61.1409 88.9832 61.2074C88.9832 61.2956 89.0038 61.378 89.045 61.4547C89.0869 61.5313 89.1441 61.5931 89.2164 61.6401C89.2894 61.6871 89.3722 61.7106 89.4647 61.7106Z" fill="black"/>
<path d="M128.979 56.0996V54.1143" stroke="black" stroke-width="0.254491"/>
<path d="M128.908 59.6674C128.999 59.6682 129.09 59.6855 129.181 59.7195C129.272 59.7535 129.355 59.8099 129.431 59.8887C129.506 59.9668 129.566 60.0734 129.612 60.2086C129.657 60.3438 129.68 60.5133 129.68 60.7172C129.68 60.9146 129.661 61.0899 129.624 61.2432C129.587 61.3957 129.533 61.5244 129.463 61.6293C129.394 61.7341 129.309 61.8136 129.209 61.8679C129.11 61.9221 128.998 61.9492 128.873 61.9492C128.749 61.9492 128.638 61.9246 128.54 61.8754C128.443 61.8256 128.364 61.7565 128.302 61.6683C128.24 61.5794 128.201 61.4764 128.184 61.3592H128.448C128.472 61.4612 128.519 61.5454 128.59 61.6119C128.662 61.6777 128.756 61.7106 128.873 61.7106C129.045 61.7106 129.18 61.6358 129.279 61.4861C129.379 61.3365 129.429 61.125 129.429 60.8517H129.411C129.371 60.9124 129.323 60.9648 129.267 61.0089C129.211 61.053 129.149 61.087 129.081 61.1109C129.014 61.1347 128.941 61.1467 128.865 61.1467C128.737 61.1467 128.621 61.1152 128.514 61.0523C128.409 60.9887 128.324 60.9016 128.261 60.791C128.198 60.6796 128.166 60.5524 128.166 60.4092C128.166 60.2733 128.197 60.149 128.257 60.0362C128.319 59.9227 128.405 59.8323 128.515 59.765C128.627 59.6978 128.758 59.6653 128.908 59.6674ZM128.908 59.906C128.817 59.906 128.735 59.9288 128.662 59.9744C128.589 60.0192 128.532 60.0799 128.489 60.1565C128.447 60.2325 128.426 60.3167 128.426 60.4092C128.426 60.5018 128.447 60.586 128.487 60.6619C128.528 60.7371 128.584 60.7971 128.655 60.8419C128.727 60.886 128.808 60.9081 128.899 60.9081C128.968 60.9081 129.032 60.8947 129.091 60.868C129.151 60.8405 129.202 60.8033 129.246 60.7563C129.291 60.7085 129.326 60.6547 129.352 60.5947C129.377 60.5339 129.389 60.4707 129.389 60.4049C129.389 60.3181 129.369 60.2368 129.327 60.1609C129.285 60.085 129.228 60.0235 129.155 59.9765C129.083 59.9295 129.001 59.906 128.908 59.906Z" fill="black"/>
<path d="M168.453 56.0996V54.1143" stroke="black" stroke-width="0.254491"/>
<path d="M167.322 59.6978V61.9188H167.053V59.9798H167.04L166.498 60.3398V60.0665L167.053 59.6978H167.322ZM167.96 61.9188V61.7236L168.694 60.9211C168.78 60.8271 168.85 60.7454 168.906 60.676C168.962 60.6059 169.003 60.5401 169.03 60.4786C169.057 60.4165 169.071 60.3514 169.071 60.2834C169.071 60.2053 169.052 60.1377 169.015 60.0806C168.978 60.0235 168.927 59.9794 168.863 59.9483C168.798 59.9172 168.726 59.9017 168.646 59.9017C168.561 59.9017 168.486 59.9194 168.422 59.9548C168.36 59.9895 168.311 60.0383 168.276 60.1012C168.242 60.1641 168.225 60.2379 168.225 60.3225H167.969C167.969 60.1923 167.999 60.0781 168.059 59.9798C168.119 59.8814 168.201 59.8048 168.304 59.7499C168.408 59.6949 168.525 59.6674 168.655 59.6674C168.785 59.6674 168.9 59.6949 169.001 59.7499C169.101 59.8048 169.18 59.8789 169.237 59.9722C169.294 60.0654 169.323 60.1692 169.323 60.2834C169.323 60.3651 169.308 60.445 169.278 60.5231C169.249 60.6005 169.199 60.6869 169.126 60.7823C169.055 60.877 168.955 60.9927 168.828 61.1293L168.329 61.6629V61.6802H169.362V61.9188H167.96Z" fill="black"/>
<path d="M10.5615 1.17175V54.1141" stroke="black" stroke-width="0.254491"/>
<path d="M8.97754 54.1141H10.5618" stroke="black" stroke-width="0.254491"/>
<path d="M6.59058 54.5835C6.42719 54.5835 6.28801 54.539 6.17306 54.4501C6.0581 54.3604 5.97026 54.2306 5.90953 54.0607C5.8488 53.8901 5.81843 53.6841 5.81843 53.4426C5.81843 53.2026 5.8488 52.9976 5.90953 52.8277C5.97098 52.6571 6.05919 52.5269 6.17414 52.4373C6.28982 52.3469 6.42863 52.3017 6.59058 52.3017C6.75253 52.3017 6.89098 52.3469 7.00594 52.4373C7.12161 52.5269 7.20982 52.6571 7.27055 52.8277C7.332 52.9976 7.36273 53.2026 7.36273 53.4426C7.36273 53.6841 7.33236 53.8901 7.27163 54.0607C7.2109 54.2306 7.12306 54.3604 7.0081 54.4501C6.89315 54.539 6.75397 54.5835 6.59058 54.5835ZM6.59058 54.3449C6.75253 54.3449 6.87833 54.2668 6.96798 54.1106C7.05763 53.9545 7.10245 53.7318 7.10245 53.4426C7.10245 53.2503 7.08185 53.0865 7.04064 52.9513C7.00015 52.8161 6.94159 52.7131 6.86495 52.6422C6.78904 52.5714 6.69758 52.536 6.59058 52.536C6.43008 52.536 6.30464 52.6151 6.21427 52.7735C6.12389 52.9311 6.07871 53.1541 6.07871 53.4426C6.07871 53.6349 6.09895 53.7983 6.13944 53.9328C6.17992 54.0673 6.23812 54.1696 6.31404 54.2397C6.39067 54.3098 6.48286 54.3449 6.59058 54.3449Z" fill="black"/>
<path d="M8.97754 40.8785H10.5618" stroke="black" stroke-width="0.254491"/>
<path d="M2.19819 41.3174V41.1222L2.9313 40.3197C3.01733 40.2257 3.08818 40.144 3.14385 40.0746C3.19952 40.0044 3.24073 39.9386 3.26749 39.8772C3.29496 39.815 3.3087 39.7499 3.3087 39.682C3.3087 39.6039 3.2899 39.5363 3.2523 39.4792C3.21543 39.4221 3.16482 39.378 3.10048 39.3469C3.03613 39.3158 2.96383 39.3003 2.88358 39.3003C2.79827 39.3003 2.7238 39.318 2.66018 39.3534C2.59728 39.3881 2.54848 39.4369 2.51377 39.4998C2.47979 39.5627 2.4628 39.6364 2.4628 39.721H2.20686C2.20686 39.5909 2.23687 39.4767 2.29688 39.3783C2.35688 39.28 2.43858 39.2034 2.54197 39.1484C2.64608 39.0935 2.76284 39.066 2.89226 39.066C3.02239 39.066 3.13771 39.0935 3.2382 39.1484C3.3387 39.2034 3.4175 39.2775 3.47462 39.3707C3.53174 39.464 3.56029 39.5678 3.56029 39.682C3.56029 39.7637 3.54547 39.8436 3.51583 39.9217C3.48691 39.999 3.4363 40.0854 3.364 40.1808C3.29243 40.2756 3.19302 40.3912 3.06577 40.5279L2.56691 41.0614V41.0788H3.59934V41.3174H2.19819ZM4.74129 41.3477C4.61405 41.3477 4.49945 41.3224 4.39751 41.2718C4.29557 41.2212 4.21387 41.1518 4.15242 41.0636C4.09097 40.9754 4.05735 40.8749 4.05156 40.7621H4.31184C4.32196 40.8626 4.36751 40.9458 4.44848 41.0116C4.53018 41.0766 4.62778 41.1092 4.74129 41.1092C4.83239 41.1092 4.91336 41.0878 4.98422 41.0452C5.05579 41.0025 5.11182 40.944 5.15231 40.8695C5.19352 40.7943 5.21413 40.7094 5.21413 40.6146C5.21413 40.5178 5.1928 40.4314 5.15014 40.3554C5.10821 40.2788 5.05037 40.2184 4.97662 40.1743C4.90288 40.1302 4.81865 40.1078 4.72394 40.1071C4.65598 40.1064 4.58621 40.1169 4.51464 40.1386C4.44306 40.1595 4.38414 40.1866 4.33787 40.2199L4.08627 40.1895L4.22074 39.0964H5.37463V39.335H4.44631L4.36823 39.99H4.38125C4.42679 39.9538 4.48391 39.9238 4.55259 39.9C4.62128 39.8761 4.69285 39.8642 4.76732 39.8642C4.90324 39.8642 5.02434 39.8967 5.13062 39.9618C5.23762 40.0261 5.32149 40.1143 5.38222 40.2264C5.44367 40.3385 5.4744 40.4664 5.4744 40.6103C5.4744 40.752 5.44259 40.8785 5.37897 40.9899C5.31607 41.1005 5.22931 41.188 5.11869 41.2523C5.00807 41.3159 4.88228 41.3477 4.74129 41.3477ZM6.62964 41.3477C6.46625 41.3477 6.32707 41.3033 6.21212 41.2144C6.09716 41.1247 6.00932 40.9949 5.94859 40.825C5.88786 40.6544 5.85749 40.4484 5.85749 40.2069C5.85749 39.9668 5.88786 39.7619 5.94859 39.592C6.01004 39.4214 6.09825 39.2912 6.2132 39.2016C6.32888 39.1112 6.46769 39.066 6.62964 39.066C6.79159 39.066 6.93004 39.1112 7.045 39.2016C7.16068 39.2912 7.24888 39.4214 7.30961 39.592C7.37106 39.7619 7.40179 39.9668 7.40179 40.2069C7.40179 40.4484 7.37143 40.6544 7.3107 40.825C7.24996 40.9949 7.16212 41.1247 7.04717 41.2144C6.93221 41.3033 6.79304 41.3477 6.62964 41.3477ZM6.62964 41.1092C6.79159 41.1092 6.91739 41.0311 7.00704 40.8749C7.09669 40.7188 7.14152 40.4961 7.14152 40.2069C7.14152 40.0146 7.12091 39.8508 7.0797 39.7156C7.03921 39.5804 6.98065 39.4774 6.90402 39.4065C6.8281 39.3357 6.73664 39.3003 6.62964 39.3003C6.46914 39.3003 6.3437 39.3794 6.25333 39.5378C6.16295 39.6954 6.11777 39.9184 6.11777 40.2069C6.11777 40.3992 6.13801 40.5626 6.1785 40.6971C6.21899 40.8315 6.27719 40.9338 6.3531 41.004C6.42974 41.0741 6.52192 41.1092 6.62964 41.1092Z" fill="black"/>
<path d="M8.97754 27.6429H10.5618" stroke="black" stroke-width="0.254491"/>
<path d="M2.83261 28.1123C2.70536 28.1123 2.59077 28.087 2.48883 28.0364C2.38689 27.9858 2.30519 27.9163 2.24374 27.8281C2.18228 27.7399 2.14866 27.6394 2.14288 27.5267H2.40315C2.41328 27.6272 2.45882 27.7103 2.5398 27.7761C2.6215 27.8412 2.7191 27.8737 2.83261 27.8737C2.92371 27.8737 3.00468 27.8524 3.07553 27.8097C3.14711 27.767 3.20314 27.7085 3.24363 27.634C3.28484 27.5588 3.30544 27.4739 3.30544 27.3792C3.30544 27.2823 3.28411 27.1959 3.24146 27.12C3.19952 27.0433 3.14169 26.983 3.06794 26.9389C2.9942 26.8948 2.90997 26.8724 2.81526 26.8716C2.7473 26.8709 2.67753 26.8814 2.60595 26.9031C2.53438 26.924 2.47545 26.9512 2.42918 26.9844L2.17758 26.9541L2.31206 25.8609H3.46594V26.0995H2.53763L2.45955 26.7545H2.47256C2.51811 26.7184 2.57523 26.6884 2.64391 26.6645C2.71259 26.6406 2.78417 26.6287 2.85864 26.6287C2.99456 26.6287 3.11566 26.6612 3.22194 26.7263C3.32894 26.7907 3.41281 26.8789 3.47354 26.9909C3.53499 27.103 3.56572 27.231 3.56572 27.3748C3.56572 27.5165 3.53391 27.6431 3.47028 27.7544C3.40738 27.865 3.32062 27.9525 3.21001 28.0168C3.09939 28.0805 2.97359 28.1123 2.83261 28.1123ZM4.72096 28.1123C4.55756 28.1123 4.41839 28.0678 4.30343 27.9789C4.18848 27.8892 4.10064 27.7595 4.03991 27.5896C3.97917 27.4189 3.94881 27.2129 3.94881 26.9714C3.94881 26.7314 3.97917 26.5264 4.03991 26.3565C4.10136 26.1859 4.18956 26.0557 4.30452 25.9661C4.4202 25.8757 4.55901 25.8305 4.72096 25.8305C4.88291 25.8305 5.02136 25.8757 5.13631 25.9661C5.25199 26.0557 5.3402 26.1859 5.40093 26.3565C5.46238 26.5264 5.49311 26.7314 5.49311 26.9714C5.49311 27.2129 5.46274 27.4189 5.40201 27.5896C5.34128 27.7595 5.25344 27.8892 5.13848 27.9789C5.02353 28.0678 4.88435 28.1123 4.72096 28.1123ZM4.72096 27.8737C4.88291 27.8737 5.00871 27.7956 5.09836 27.6394C5.18801 27.4833 5.23283 27.2606 5.23283 26.9714C5.23283 26.7791 5.21223 26.6153 5.17102 26.4801C5.13053 26.3449 5.07197 26.2419 4.99533 26.1711C4.91942 26.1002 4.82796 26.0648 4.72096 26.0648C4.56046 26.0648 4.43502 26.1439 4.34464 26.3023C4.25427 26.4599 4.20908 26.6829 4.20908 26.9714C4.20908 27.1637 4.22933 27.3271 4.26982 27.4616C4.3103 27.5961 4.3685 27.6984 4.44442 27.7685C4.52105 27.8386 4.61323 27.8737 4.72096 27.8737ZM6.62964 28.1123C6.46625 28.1123 6.32707 28.0678 6.21212 27.9789C6.09716 27.8892 6.00932 27.7595 5.94859 27.5896C5.88786 27.4189 5.85749 27.2129 5.85749 26.9714C5.85749 26.7314 5.88786 26.5264 5.94859 26.3565C6.01004 26.1859 6.09825 26.0557 6.2132 25.9661C6.32888 25.8757 6.46769 25.8305 6.62964 25.8305C6.79159 25.8305 6.93004 25.8757 7.045 25.9661C7.16068 26.0557 7.24888 26.1859 7.30961 26.3565C7.37106 26.5264 7.40179 26.7314 7.40179 26.9714C7.40179 27.2129 7.37143 27.4189 7.3107 27.5896C7.24996 27.7595 7.16212 27.8892 7.04717 27.9789C6.93221 28.0678 6.79304 28.1123 6.62964 28.1123ZM6.62964 27.8737C6.79159 27.8737 6.91739 27.7956 7.00704 27.6394C7.09669 27.4833 7.14152 27.2606 7.14152 26.9714C7.14152 26.7791 7.12091 26.6153 7.0797 26.4801C7.03921 26.3449 6.98065 26.2419 6.90402 26.1711C6.8281 26.1002 6.73664 26.0648 6.62964 26.0648C6.46914 26.0648 6.3437 26.1439 6.25333 26.3023C6.16295 26.4599 6.11777 26.6829 6.11777 26.9714C6.11777 27.1637 6.13801 27.3271 6.1785 27.4616C6.21899 27.5961 6.27719 27.6984 6.3531 27.7685C6.42974 27.8386 6.52192 27.8737 6.62964 27.8737Z" fill="black"/>
<path d="M8.97754 14.4072H10.5618" stroke="black" stroke-width="0.254491"/>
<path d="M2.66645 14.8462L3.65983 12.8811V12.8638H2.51462V12.6252H3.93746V12.8768L2.94841 14.8462H2.66645ZM5.00594 14.8766C4.8787 14.8766 4.7641 14.8513 4.66216 14.8006C4.56022 14.75 4.47852 14.6806 4.41707 14.5924C4.35562 14.5042 4.322 14.4037 4.31621 14.2909H4.57649C4.58661 14.3914 4.63216 14.4746 4.71313 14.5404C4.79483 14.6054 4.89243 14.638 5.00594 14.638C5.09704 14.638 5.17801 14.6166 5.24886 14.574C5.32044 14.5313 5.37647 14.4728 5.41696 14.3983C5.45817 14.3231 5.47877 14.2382 5.47877 14.1434C5.47877 14.0466 5.45745 13.9602 5.41479 13.8843C5.37286 13.8076 5.31502 13.7473 5.24127 13.7032C5.16753 13.659 5.0833 13.6366 4.98859 13.6359C4.92063 13.6352 4.85086 13.6457 4.77929 13.6674C4.70771 13.6883 4.64879 13.7154 4.60251 13.7487L4.35092 13.7183L4.48539 12.6252H5.63928V12.8638H4.71096L4.63288 13.5188H4.64589C4.69144 13.4826 4.74856 13.4526 4.81724 13.4288C4.88593 13.4049 4.9575 13.393 5.03197 13.393C5.16789 13.393 5.28899 13.4255 5.39527 13.4906C5.50227 13.5549 5.58614 13.6431 5.64687 13.7552C5.70832 13.8673 5.73905 13.9952 5.73905 14.1391C5.73905 14.2808 5.70724 14.4073 5.64362 14.5187C5.58072 14.6293 5.49396 14.7168 5.38334 14.7811C5.27272 14.8447 5.14692 14.8766 5.00594 14.8766ZM6.89429 14.8766C6.7309 14.8766 6.59172 14.8321 6.47677 14.7432C6.36181 14.6535 6.27397 14.5237 6.21324 14.3538C6.15251 14.1832 6.12214 13.9772 6.12214 13.7357C6.12214 13.4957 6.15251 13.2907 6.21324 13.1208C6.27469 12.9502 6.3629 12.82 6.47785 12.7304C6.59353 12.64 6.73234 12.5948 6.89429 12.5948C7.05624 12.5948 7.19469 12.64 7.30965 12.7304C7.42532 12.82 7.51353 12.9502 7.57426 13.1208C7.63571 13.2907 7.66644 13.4957 7.66644 13.7357C7.66644 13.9772 7.63607 14.1832 7.57534 14.3538C7.51461 14.5237 7.42677 14.6535 7.31182 14.7432C7.19686 14.8321 7.05769 14.8766 6.89429 14.8766ZM6.89429 14.638C7.05624 14.638 7.18204 14.5599 7.27169 14.4037C7.36134 14.2476 7.40617 14.0249 7.40617 13.7357C7.40617 13.5434 7.38556 13.3796 7.34435 13.2444C7.30386 13.1092 7.2453 13.0062 7.16866 12.9353C7.09275 12.8645 7.00129 12.8291 6.89429 12.8291C6.73379 12.8291 6.60835 12.9082 6.51798 13.0666C6.4276 13.2242 6.38242 13.4472 6.38242 13.7357C6.38242 13.928 6.40266 14.0914 6.44315 14.2259C6.48363 14.3603 6.54184 14.4626 6.61775 14.5328C6.69439 14.6029 6.78657 14.638 6.89429 14.638Z" fill="black"/>
<path d="M8.97754 1.17163H10.5618" stroke="black" stroke-width="0.254491"/>
<path d="M1.8651 0.778986V3H1.59615V1.06095H1.58314L1.0409 1.421V1.14771L1.59615 0.778986H1.8651ZM3.22829 3.03037C3.0649 3.03037 2.92572 2.9859 2.81077 2.89697C2.69581 2.80732 2.60797 2.67755 2.54724 2.50765C2.48651 2.33702 2.45614 2.13097 2.45614 1.88949C2.45614 1.64946 2.48651 1.44449 2.54724 1.27459C2.60869 1.10397 2.6969 0.973831 2.81185 0.884181C2.92753 0.793807 3.06634 0.748621 3.22829 0.748621C3.39024 0.748621 3.52869 0.793807 3.64365 0.884181C3.75932 0.973831 3.84753 1.10397 3.90826 1.27459C3.96971 1.44449 4.00044 1.64946 4.00044 1.88949C4.00044 2.13097 3.97007 2.33702 3.90934 2.50765C3.84861 2.67755 3.76077 2.80732 3.64582 2.89697C3.53086 2.9859 3.39169 3.03037 3.22829 3.03037ZM3.22829 2.79178C3.39024 2.79178 3.51604 2.7137 3.60569 2.55753C3.69534 2.40137 3.74017 2.17869 3.74017 1.88949C3.74017 1.69718 3.71956 1.53342 3.67835 1.39822C3.63786 1.26303 3.5793 1.16 3.50266 1.08915C3.42675 1.01829 3.33529 0.982868 3.22829 0.982868C3.06779 0.982868 2.94235 1.06204 2.85198 1.22037C2.7616 1.37798 2.71642 1.60102 2.71642 1.88949C2.71642 2.08181 2.73666 2.2452 2.77715 2.37968C2.81763 2.51415 2.87583 2.61646 2.95175 2.68659C3.02839 2.75672 3.12057 2.79178 3.22829 2.79178ZM5.13697 3.03037C4.97358 3.03037 4.8344 2.9859 4.71945 2.89697C4.60449 2.80732 4.51665 2.67755 4.45592 2.50765C4.39519 2.33702 4.36482 2.13097 4.36482 1.88949C4.36482 1.64946 4.39519 1.44449 4.45592 1.27459C4.51738 1.10397 4.60558 0.973831 4.72053 0.884181C4.83621 0.793807 4.97503 0.748621 5.13697 0.748621C5.29892 0.748621 5.43738 0.793807 5.55233 0.884181C5.66801 0.973831 5.75621 1.10397 5.81694 1.27459C5.8784 1.44449 5.90912 1.64946 5.90912 1.88949C5.90912 2.13097 5.87876 2.33702 5.81803 2.50765C5.7573 2.67755 5.66945 2.80732 5.5545 2.89697C5.43954 2.9859 5.30037 3.03037 5.13697 3.03037ZM5.13697 2.79178C5.29892 2.79178 5.42472 2.7137 5.51437 2.55753C5.60402 2.40137 5.64885 2.17869 5.64885 1.88949C5.64885 1.69718 5.62824 1.53342 5.58703 1.39822C5.54655 1.26303 5.48798 1.16 5.41135 1.08915C5.33543 1.01829 5.24398 0.982868 5.13697 0.982868C4.97647 0.982868 4.85103 1.06204 4.76066 1.22037C4.67029 1.37798 4.6251 1.60102 4.6251 1.88949C4.6251 2.08181 4.64534 2.2452 4.68583 2.37968C4.72632 2.51415 4.78452 2.61646 4.86043 2.68659C4.93707 2.75672 5.02925 2.79178 5.13697 2.79178ZM7.04566 3.03037C6.88226 3.03037 6.74309 2.9859 6.62813 2.89697C6.51318 2.80732 6.42534 2.67755 6.36461 2.50765C6.30387 2.33702 6.27351 2.13097 6.27351 1.88949C6.27351 1.64946 6.30387 1.44449 6.36461 1.27459C6.42606 1.10397 6.51426 0.973831 6.62922 0.884181C6.7449 0.793807 6.88371 0.748621 7.04566 0.748621C7.20761 0.748621 7.34606 0.793807 7.46101 0.884181C7.57669 0.973831 7.6649 1.10397 7.72563 1.27459C7.78708 1.44449 7.81781 1.64946 7.81781 1.88949C7.81781 2.13097 7.78744 2.33702 7.72671 2.50765C7.66598 2.67755 7.57814 2.80732 7.46318 2.89697C7.34823 2.9859 7.20905 3.03037 7.04566 3.03037ZM7.04566 2.79178C7.20761 2.79178 7.33341 2.7137 7.42306 2.55753C7.51271 2.40137 7.55753 2.17869 7.55753 1.88949C7.55753 1.69718 7.53693 1.53342 7.49572 1.39822C7.45523 1.26303 7.39667 1.16 7.32003 1.08915C7.24412 1.01829 7.15266 0.982868 7.04566 0.982868C6.88516 0.982868 6.75972 1.06204 6.66934 1.22037C6.57897 1.37798 6.53378 1.60102 6.53378 1.88949C6.53378 2.08181 6.55403 2.2452 6.59451 2.37968C6.635 2.51415 6.6932 2.61646 6.76912 2.68659C6.84575 2.75672 6.93793 2.79178 7.04566 2.79178Z" fill="black"/>
<path d="M133.117 39.7138C133.117 40.1779 132.97 40.6231 132.708 40.9513C132.446 41.2795 132.091 41.4638 131.721 41.4638C131.35 41.4638 130.995 41.2795 130.733 40.9513C130.471 40.6231 130.324 40.1779 130.324 39.7138C130.324 39.2497 130.471 38.8045 130.733 38.4763C130.995 38.1481 131.35 37.9637 131.721 37.9637C132.091 37.9637 132.446 38.1481 132.708 38.4763C132.97 38.8045 133.117 39.2497 133.117 39.7138Z" fill="#1F2937"/>
<path d="M47.2022 18.5897C47.2022 18.9485 47.0885 19.2926 46.886 19.5464C46.6835 19.8001 46.4089 19.9427 46.1226 19.9427C45.8363 19.9427 45.5617 19.8001 45.3592 19.5464C45.1567 19.2926 45.043 18.9485 45.043 18.5897C45.043 18.2308 45.1567 17.8867 45.3592 17.633C45.5617 17.3792 45.8363 17.2367 46.1226 17.2367C46.4089 17.2367 46.6835 17.3792 46.886 17.633C47.0885 17.8867 47.2022 18.2308 47.2022 18.5897Z" fill="#1F2937"/>
<path d="M88.5429 3.60709C88.5429 4.08178 88.3925 4.53703 88.1246 4.87269C87.8568 5.20835 87.4935 5.39692 87.1147 5.39692C86.7359 5.39692 86.3727 5.20835 86.1048 4.87269C85.837 4.53703 85.6865 4.08178 85.6865 3.60709C85.6865 3.1324 85.837 2.67715 86.1048 2.34149C86.3727 2.00583 86.7359 1.81726 87.1147 1.81726C87.4935 1.81726 87.8568 2.00583 88.1246 2.34149C88.3925 2.67715 88.5429 3.1324 88.5429 3.60709Z" fill="#1F2937"/>
<path d="M111.423 26.4782C111.423 26.823 111.314 27.1536 111.119 27.3974C110.925 27.6412 110.661 27.7782 110.386 27.7782C110.111 27.7782 109.847 27.6412 109.652 27.3974C109.458 27.1536 109.349 26.823 109.349 26.4782C109.349 26.1335 109.458 25.8029 109.652 25.5591C109.847 25.3153 110.111 25.1783 110.386 25.1783C110.661 25.1783 110.925 25.3153 111.119 25.5591C111.314 25.8029 111.423 26.1335 111.423 26.4782Z" fill="#1F2937"/>
<path d="M86.2913 52.8436C86.2913 53.2354 86.1671 53.6112 85.9461 53.8882C85.725 54.1653 85.4251 54.3209 85.1125 54.3209C84.7998 54.3209 84.5 54.1653 84.2789 53.8882C84.0578 53.6112 83.9336 53.2354 83.9336 52.8436C83.9336 52.4517 84.0578 52.076 84.2789 51.7989C84.5 51.5219 84.7998 51.3662 85.1125 51.3662C85.4251 51.3662 85.725 51.5219 85.9461 51.7989C86.1671 52.076 86.2913 52.4517 86.2913 52.8436Z" fill="#1F2937"/>
<path d="M105.921 41.7256C105.921 41.8853 105.896 42.0434 105.847 42.1909C105.798 42.3384 105.727 42.4725 105.637 42.5854C105.547 42.6983 105.44 42.7879 105.322 42.849C105.204 42.9101 105.078 42.9415 104.951 42.9415C104.823 42.9415 104.697 42.9101 104.579 42.849C104.462 42.7879 104.355 42.6983 104.265 42.5854C104.175 42.4725 104.103 42.3384 104.054 42.1909C104.006 42.0434 103.98 41.8853 103.98 41.7256C103.98 41.5659 104.006 41.4078 104.054 41.2603C104.103 41.1127 104.175 40.9787 104.265 40.8658C104.355 40.7529 104.462 40.6633 104.579 40.6022C104.697 40.5411 104.823 40.5096 104.951 40.5096C105.078 40.5096 105.204 40.5411 105.322 40.6022C105.44 40.6633 105.547 40.7529 105.637 40.8658C105.727 40.9787 105.798 41.1127 105.847 41.2603C105.896 41.4078 105.921 41.5659 105.921 41.7256Z" fill="#1F2937"/>
<path d="M67.0888 44.4257C67.0888 44.5075 67.076 44.5884 67.051 44.6639C67.0261 44.7394 66.9895 44.808 66.9434 44.8658C66.8973 44.9236 66.8425 44.9694 66.7823 45.0007C66.722 45.0319 66.6575 45.048 66.5923 45.048C66.527 45.048 66.4625 45.0319 66.4022 45.0007C66.342 44.9694 66.2872 44.9236 66.2411 44.8658C66.195 44.808 66.1585 44.7394 66.1335 44.6639C66.1085 44.5884 66.0957 44.5075 66.0957 44.4257C66.0957 44.344 66.1085 44.2631 66.1335 44.1876C66.1585 44.1121 66.195 44.0435 66.2411 43.9857C66.2872 43.9279 66.342 43.8821 66.4022 43.8508C66.4625 43.8196 66.527 43.8035 66.5923 43.8035C66.6575 43.8035 66.722 43.8196 66.7823 43.8508C66.8425 43.8821 66.8973 43.9279 66.9434 43.9857C66.9895 44.0435 67.0261 44.1121 67.051 44.1876C67.076 44.2631 67.0888 44.344 67.0888 44.4257Z" fill="#1F2937"/>
<path d="M124.369 48.4493C124.369 48.8916 124.229 49.3157 123.98 49.6285C123.73 49.9412 123.392 50.1169 123.039 50.1169C122.686 50.1169 122.347 49.9412 122.098 49.6285C121.848 49.3157 121.708 48.8916 121.708 48.4493C121.708 48.007 121.848 47.5828 122.098 47.2701C122.347 46.9573 122.686 46.7816 123.039 46.7816C123.392 46.7816 123.73 46.9573 123.98 47.2701C124.229 47.5828 124.369 48.007 124.369 48.4493Z" fill="#1F2937"/>
<path d="M15.1779 9.8014C15.1779 9.96108 15.1528 10.1192 15.104 10.2667C15.0552 10.4142 14.9838 10.5483 14.8937 10.6612C14.8036 10.7741 14.6966 10.8637 14.5789 10.9248C14.4612 10.9859 14.335 11.0173 14.2076 11.0173C14.0802 11.0173 13.954 10.9859 13.8363 10.9248C13.7186 10.8637 13.6116 10.7741 13.5215 10.6612C13.4314 10.5483 13.3599 10.4142 13.3112 10.2667C13.2624 10.1192 13.2373 9.96108 13.2373 9.8014C13.2373 9.64172 13.2624 9.4836 13.3112 9.33607C13.3599 9.18855 13.4314 9.0545 13.5215 8.94159C13.6116 8.82868 13.7186 8.73911 13.8363 8.67801C13.954 8.6169 14.0802 8.58545 14.2076 8.58545C14.335 8.58545 14.4612 8.6169 14.5789 8.67801C14.6966 8.73911 14.8036 8.82868 14.8937 8.94159C14.9838 9.0545 15.0552 9.18855 15.104 9.33607C15.1528 9.4836 15.1779 9.64172 15.1779 9.8014Z" fill="#1F2937"/>
<path d="M109.595 25.7901C109.595 26.2595 109.447 26.7097 109.182 27.0417C108.917 27.3736 108.558 27.5601 108.183 27.5601C107.808 27.5601 107.449 27.3736 107.184 27.0417C106.919 26.7097 106.771 26.2595 106.771 25.7901C106.771 25.3206 106.919 24.8704 107.184 24.5385C107.449 24.2065 107.808 24.02 108.183 24.02C108.558 24.02 108.917 24.2065 109.182 24.5385C109.447 24.8704 109.595 25.3206 109.595 25.7901Z" fill="#1F2937"/>
<path d="M89.3658 6.41333C89.3658 6.78571 89.2477 7.14284 89.0376 7.40615C88.8275 7.66946 88.5425 7.81739 88.2454 7.81739C87.9482 7.81739 87.6633 7.66946 87.4532 7.40615C87.243 7.14284 87.125 6.78571 87.125 6.41333C87.125 6.04096 87.243 5.68383 87.4532 5.42052C87.6633 5.1572 87.9482 5.00928 88.2454 5.00928C88.5425 5.00928 88.8275 5.1572 89.0376 5.42052C89.2477 5.68383 89.3658 6.04096 89.3658 6.41333Z" fill="#1F2937"/>
<path d="M121.788 19.0137C121.788 19.4359 121.654 19.8409 121.416 20.1394C121.178 20.438 120.854 20.6057 120.517 20.6057C120.181 20.6057 119.857 20.438 119.619 20.1394C119.381 19.8409 119.247 19.4359 119.247 19.0137C119.247 18.5914 119.381 18.1865 119.619 17.8879C119.857 17.5894 120.181 17.4216 120.517 17.4216C120.854 17.4216 121.178 17.5894 121.416 17.8879C121.654 18.1865 121.788 18.5914 121.788 19.0137Z" fill="#1F2937"/>
<path d="M110.956 38.973C110.956 39.4503 110.805 39.908 110.535 40.2455C110.266 40.583 109.901 40.7726 109.52 40.7726C109.139 40.7726 108.774 40.583 108.505 40.2455C108.235 39.908 108.084 39.4503 108.084 38.973C108.084 38.4957 108.235 38.0379 108.505 37.7004C108.774 37.3629 109.139 37.1733 109.52 37.1733C109.901 37.1733 110.266 37.3629 110.535 37.7004C110.805 38.0379 110.956 38.4957 110.956 38.973Z" fill="#1F2937"/>
<path d="M98.2451 21.6078C98.2451 22.0212 98.1141 22.4176 97.8808 22.7099C97.6476 23.0022 97.3313 23.1664 97.0015 23.1664C96.6716 23.1664 96.3553 23.0022 96.1221 22.7099C95.8888 22.4176 95.7578 22.0212 95.7578 21.6078C95.7578 21.1945 95.8888 20.7981 96.1221 20.5058C96.3553 20.2135 96.6716 20.0493 97.0015 20.0493C97.3313 20.0493 97.6476 20.2135 97.8808 20.5058C98.1141 20.7981 98.2451 21.1945 98.2451 21.6078Z" fill="#1F2937"/>
<path d="M124.023 50.5674C124.023 50.7468 123.966 50.9188 123.865 51.0457C123.764 51.1726 123.626 51.2439 123.483 51.2439C123.34 51.2439 123.203 51.1726 123.101 51.0457C123 50.9188 122.943 50.7468 122.943 50.5674C122.943 50.3879 123 50.2159 123.101 50.089C123.203 49.9621 123.34 49.8909 123.483 49.8909C123.626 49.8909 123.764 49.9621 123.865 50.089C123.966 50.2159 124.023 50.3879 124.023 50.5674Z" fill="#1F2937"/>
<path d="M70.8939 13.0842C70.8939 13.429 70.7846 13.7596 70.5901 14.0034C70.3955 14.2472 70.1317 14.3841 69.8566 14.3841C69.5815 14.3841 69.3177 14.2472 69.1231 14.0034C68.9286 13.7596 68.8193 13.429 68.8193 13.0842C68.8193 12.7394 68.9286 12.4088 69.1231 12.165C69.3177 11.9213 69.5815 11.7843 69.8566 11.7843C70.1317 11.7843 70.3955 11.9213 70.5901 12.165C70.7846 12.4088 70.8939 12.7394 70.8939 13.0842Z" fill="#1F2937"/>
<path d="M120.095 11.4957C120.095 11.9782 119.942 12.4409 119.669 12.782C119.397 13.1232 119.028 13.3148 118.643 13.3148C118.258 13.3148 117.889 13.1232 117.617 12.782C117.344 12.4409 117.191 11.9782 117.191 11.4957C117.191 11.0133 117.344 10.5506 117.617 10.2094C117.889 9.86829 118.258 9.67664 118.643 9.67664C119.028 9.67664 119.397 9.86829 119.669 10.2094C119.942 10.5506 120.095 11.0133 120.095 11.4957Z" fill="#1F2937"/>
<path d="M57.2538 11.4429C57.2538 11.654 57.1869 11.8565 57.0677 12.0058C56.9486 12.155 56.7871 12.2389 56.6186 12.2389C56.4501 12.2389 56.2886 12.155 56.1694 12.0058C56.0503 11.8565 55.9834 11.654 55.9834 11.4429C55.9834 11.2318 56.0503 11.0293 56.1694 10.88C56.2886 10.7307 56.4501 10.6469 56.6186 10.6469C56.7871 10.6469 56.9486 10.7307 57.0677 10.88C57.1869 11.0293 57.2538 11.2318 57.2538 11.4429Z" fill="#1F2937"/>
<path d="M19.0579 52.5262C19.0579 52.871 18.9487 53.2016 18.7541 53.4454C18.5596 53.6892 18.2958 53.8261 18.0207 53.8261C17.7456 53.8261 17.4817 53.6892 17.2872 53.4454C17.0927 53.2016 16.9834 52.871 16.9834 52.5262C16.9834 52.1815 17.0927 51.8508 17.2872 51.6071C17.4817 51.3633 17.7456 51.2263 18.0207 51.2263C18.2958 51.2263 18.5596 51.3633 18.7541 51.6071C18.9487 51.8508 19.0579 52.1815 19.0579 52.5262Z" fill="#1F2937"/>
<path d="M100.644 29.5492C100.644 30.0025 100.5 30.4373 100.244 30.7579C99.9887 31.0784 99.6417 31.2585 99.28 31.2585C98.9182 31.2585 98.5713 31.0784 98.3155 30.7579C98.0597 30.4373 97.916 30.0025 97.916 29.5492C97.916 29.0958 98.0597 28.6611 98.3155 28.3405C98.5713 28.0199 98.9182 27.8398 99.28 27.8398C99.6417 27.8398 99.9887 28.0199 100.244 28.3405C100.5 28.6611 100.644 29.0958 100.644 29.5492Z" fill="#1F2937"/>
<path d="M32.792 41.3019C32.792 41.7357 32.6545 42.1518 32.4098 42.4585C32.165 42.7653 31.833 42.9376 31.4868 42.9376C31.1407 42.9376 30.8087 42.7653 30.5639 42.4585C30.3192 42.1518 30.1816 41.7357 30.1816 41.3019C30.1816 40.8681 30.3192 40.4521 30.5639 40.1453C30.8087 39.8386 31.1407 39.6663 31.4868 39.6663C31.833 39.6663 32.165 39.8386 32.4098 40.1453C32.6545 40.4521 32.792 40.8681 32.792 41.3019Z" fill="#D0D4DA"/>
<path d="M43.2338 8.00129C43.2338 8.28714 43.1432 8.56129 42.9819 8.76342C42.8206 8.96555 42.6018 9.07911 42.3737 9.07911C42.1456 9.07911 41.9269 8.96555 41.7656 8.76342C41.6043 8.56129 41.5137 8.28714 41.5137 8.00129C41.5137 7.71543 41.6043 7.44128 41.7656 7.23915C41.9269 7.03702 42.1456 6.92346 42.3737 6.92346C42.6018 6.92346 42.8206 7.03702 42.9819 7.23915C43.1432 7.44128 43.2338 7.71543 43.2338 8.00129Z" fill="#D0D4DA"/>
<path d="M34.9042 50.7787C34.9042 50.8526 34.8925 50.9258 34.87 50.9941C34.8474 51.0624 34.8143 51.1244 34.7726 51.1767C34.7309 51.229 34.6814 51.2704 34.6269 51.2987C34.5724 51.327 34.514 51.3416 34.455 51.3416C34.396 51.3416 34.3376 51.327 34.2831 51.2987C34.2286 51.2704 34.1791 51.229 34.1374 51.1767C34.0957 51.1244 34.0626 51.0624 34.04 50.9941C34.0175 50.9258 34.0059 50.8526 34.0059 50.7787C34.0059 50.7048 34.0175 50.6316 34.04 50.5633C34.0626 50.495 34.0957 50.433 34.1374 50.3807C34.1791 50.3284 34.2286 50.287 34.2831 50.2587C34.3376 50.2304 34.396 50.2158 34.455 50.2158C34.514 50.2158 34.5724 50.2304 34.6269 50.2587C34.6814 50.287 34.7309 50.3284 34.7726 50.3807C34.8143 50.433 34.8474 50.495 34.87 50.5633C34.8925 50.6316 34.9042 50.7048 34.9042 50.7787Z" fill="#D0D4DA"/>
<path d="M137.826 4.50681C137.826 4.78387 137.739 5.04958 137.582 5.24549C137.426 5.4414 137.214 5.55146 136.993 5.55146C136.772 5.55146 136.56 5.4414 136.403 5.24549C136.247 5.04958 136.159 4.78387 136.159 4.50681C136.159 4.22975 136.247 3.96404 136.403 3.76813C136.56 3.57222 136.772 3.46216 136.993 3.46216C137.214 3.46216 137.426 3.57222 137.582 3.76813C137.739 3.96404 137.826 4.22975 137.826 4.50681Z" fill="#D0D4DA"/>
<path d="M108.524 39.0254C108.524 39.3281 108.428 39.6184 108.257 39.8324C108.086 40.0465 107.854 40.1667 107.613 40.1667C107.371 40.1667 107.14 40.0465 106.969 39.8324C106.798 39.6184 106.702 39.3281 106.702 39.0254C106.702 38.7227 106.798 38.4325 106.969 38.2184C107.14 38.0044 107.371 37.8842 107.613 37.8842C107.854 37.8842 108.086 38.0044 108.257 38.2184C108.428 38.4325 108.524 38.7227 108.524 39.0254Z" fill="#D0D4DA"/>
<path d="M107.037 36.8018C107.037 37.0352 106.963 37.259 106.832 37.4241C106.7 37.5891 106.521 37.6818 106.335 37.6818C106.149 37.6818 105.97 37.5891 105.838 37.4241C105.707 37.259 105.633 37.0352 105.633 36.8018C105.633 36.5684 105.707 36.3445 105.838 36.1795C105.97 36.0145 106.149 35.9218 106.335 35.9218C106.521 35.9218 106.7 36.0145 106.832 36.1795C106.963 36.3445 107.037 36.5684 107.037 36.8018Z" fill="#D0D4DA"/>
<path d="M142.826 23.6722C142.826 24.0097 142.719 24.3334 142.528 24.572C142.338 24.8107 142.08 24.9447 141.81 24.9447C141.541 24.9447 141.283 24.8107 141.092 24.572C140.902 24.3334 140.795 24.0097 140.795 23.6722C140.795 23.3347 140.902 23.011 141.092 22.7724C141.283 22.5337 141.541 22.3997 141.81 22.3997C142.08 22.3997 142.338 22.5337 142.528 22.7724C142.719 23.011 142.826 23.3347 142.826 23.6722Z" fill="#D0D4DA"/>
<path d="M32.4455 53.3198C32.4455 53.6345 32.3458 53.9364 32.1682 54.1589C31.9906 54.3814 31.7498 54.5065 31.4987 54.5065C31.2475 54.5065 31.0067 54.3814 30.8291 54.1589C30.6515 53.9364 30.5518 53.6345 30.5518 53.3198C30.5518 53.0051 30.6515 52.7033 30.8291 52.4807C31.0067 52.2582 31.2475 52.1332 31.4987 52.1332C31.7498 52.1332 31.9906 52.2582 32.1682 52.4807C32.3458 52.7033 32.4455 53.0051 32.4455 53.3198Z" fill="#D0D4DA"/>
<path d="M23.5015 48.9256C23.5015 49.3622 23.3631 49.781 23.1168 50.0898C22.8704 50.3985 22.5362 50.572 22.1878 50.572C21.8394 50.572 21.5052 50.3985 21.2588 50.0898C21.0124 49.781 20.874 49.3622 20.874 48.9256C20.874 48.4889 21.0124 48.0702 21.2588 47.7614C21.5052 47.4526 21.8394 47.2792 22.1878 47.2792C22.5362 47.2792 22.8704 47.4526 23.1168 47.7614C23.3631 48.0702 23.5015 48.4889 23.5015 48.9256Z" fill="#D0D4DA"/>
<path d="M68.3329 36.6433C68.3329 36.8544 68.266 37.0569 68.1468 37.2062C68.0277 37.3555 67.8662 37.4393 67.6977 37.4393C67.5292 37.4393 67.3677 37.3555 67.2485 37.2062C67.1294 37.0569 67.0625 36.8544 67.0625 36.6433C67.0625 36.4322 67.1294 36.2297 67.2485 36.0804C67.3677 35.9312 67.5292 35.8473 67.6977 35.8473C67.8662 35.8473 68.0277 35.9312 68.1468 36.0804C68.266 36.2297 68.3329 36.4322 68.3329 36.6433Z" fill="#717171"/>
<path d="M48.265 6.46613C48.265 6.93293 48.117 7.38062 47.8536 7.7107C47.5902 8.04077 47.233 8.22621 46.8605 8.22621C46.488 8.22621 46.1308 8.04077 45.8674 7.7107C45.604 7.38062 45.4561 6.93293 45.4561 6.46613C45.4561 5.99933 45.604 5.55165 45.8674 5.22157C46.1308 4.89149 46.488 4.70605 46.8605 4.70605C47.233 4.70605 47.5902 4.89149 47.8536 5.22157C48.117 5.55165 48.265 5.99933 48.265 6.46613Z" fill="#717171"/>
<path d="M116.001 39.1313C116.001 39.4461 115.901 39.7479 115.724 39.9704C115.546 40.193 115.305 40.318 115.054 40.318C114.803 40.318 114.562 40.193 114.385 39.9704C114.207 39.7479 114.107 39.4461 114.107 39.1313C114.107 38.8166 114.207 38.5148 114.385 38.2923C114.562 38.0697 114.803 37.9447 115.054 37.9447C115.305 37.9447 115.546 38.0697 115.724 38.2923C115.901 38.5148 116.001 38.8166 116.001 39.1313Z" fill="#717171"/>
<path d="M90.4071 46.9671C90.4071 47.2122 90.3685 47.455 90.2937 47.6815C90.2188 47.908 90.1091 48.1138 89.9707 48.2871C89.8324 48.4605 89.6682 48.598 89.4875 48.6918C89.3067 48.7856 89.113 48.8339 88.9174 48.8339C88.7218 48.8339 88.5281 48.7856 88.3473 48.6918C88.1666 48.598 88.0024 48.4605 87.864 48.2871C87.7257 48.1138 87.616 47.908 87.5411 47.6815C87.4663 47.455 87.4277 47.2122 87.4277 46.9671C87.4277 46.7219 87.4663 46.4791 87.5411 46.2527C87.616 46.0262 87.7257 45.8204 87.864 45.647C88.0024 45.4737 88.1666 45.3361 88.3473 45.2423C88.5281 45.1485 88.7218 45.1002 88.9174 45.1002C89.113 45.1002 89.3067 45.1485 89.4875 45.2423C89.6682 45.3361 89.8324 45.4737 89.9707 45.647C90.1091 45.8204 90.2188 46.0262 90.2937 46.2527C90.3685 46.4791 90.4071 46.7219 90.4071 46.9671Z" fill="#717171"/>
<path d="M84.1164 17.2663C84.1164 17.398 84.0747 17.5242 84.0004 17.6173C83.9261 17.7104 83.8254 17.7627 83.7203 17.7627C83.6153 17.7627 83.5145 17.7104 83.4402 17.6173C83.366 17.5242 83.3242 17.398 83.3242 17.2663C83.3242 17.1347 83.366 17.0084 83.4402 16.9153C83.5145 16.8222 83.6153 16.7699 83.7203 16.7699C83.8254 16.7699 83.9261 16.8222 84.0004 16.9153C84.0747 17.0084 84.1164 17.1347 84.1164 17.2663Z" fill="#717171"/>
<path d="M66.2739 17.6368C66.2739 18.0902 66.1302 18.525 65.8744 18.8455C65.6186 19.1661 65.2716 19.3462 64.9099 19.3462C64.5481 19.3462 64.2012 19.1661 63.9454 18.8455C63.6896 18.525 63.5459 18.0902 63.5459 17.6368C63.5459 17.1835 63.6896 16.7487 63.9454 16.4281C64.2012 16.1076 64.5481 15.9275 64.9099 15.9275C65.2716 15.9275 65.6186 16.1076 65.8744 16.4281C66.1302 16.7487 66.2739 17.1835 66.2739 17.6368Z" fill="#717171"/>
<path d="M121.018 37.755C121.018 38.2083 120.874 38.6431 120.619 38.9637C120.363 39.2843 120.016 39.4643 119.654 39.4643C119.292 39.4643 118.945 39.2843 118.69 38.9637C118.434 38.6431 118.29 38.2083 118.29 37.755C118.29 37.3017 118.434 36.8669 118.69 36.5463C118.945 36.2257 119.292 36.0457 119.654 36.0457C120.016 36.0457 120.363 36.2257 120.619 36.5463C120.874 36.8669 121.018 37.3017 121.018 37.755Z" fill="#717171"/>
<path d="M45.0934 5.46027C45.0934 5.61762 45.0435 5.76854 44.9547 5.87981C44.8659 5.99108 44.7455 6.05359 44.6199 6.05359C44.4944 6.05359 44.3739 5.99108 44.2852 5.87981C44.1964 5.76854 44.1465 5.61762 44.1465 5.46027C44.1465 5.30291 44.1964 5.15199 44.2852 5.04072C44.3739 4.92945 44.4944 4.86694 44.6199 4.86694C44.7455 4.86694 44.8659 4.92945 44.9547 5.04072C45.0435 5.15199 45.0934 5.30291 45.0934 5.46027Z" fill="#717171"/>
<path d="M74.3775 16.3135C74.3775 16.4929 74.3206 16.6649 74.2194 16.7918C74.1181 16.9187 73.9808 16.9899 73.8377 16.9899C73.6945 16.9899 73.5572 16.9187 73.456 16.7918C73.3547 16.6649 73.2979 16.4929 73.2979 16.3135C73.2979 16.134 73.3547 15.962 73.456 15.8351C73.5572 15.7082 73.6945 15.637 73.8377 15.637C73.9808 15.637 74.1181 15.7082 74.2194 15.8351C74.3206 15.962 74.3775 16.134 74.3775 16.3135Z" fill="#717171"/>
<path d="M116.926 43.1552C116.926 43.4138 116.844 43.6618 116.698 43.8446C116.552 44.0274 116.354 44.1302 116.148 44.1302C115.942 44.1302 115.744 44.0274 115.598 43.8446C115.452 43.6618 115.37 43.4138 115.37 43.1552C115.37 42.8967 115.452 42.6487 115.598 42.4658C115.744 42.283 115.942 42.1803 116.148 42.1803C116.354 42.1803 116.552 42.283 116.698 42.4658C116.844 42.6487 116.926 42.8967 116.926 43.1552Z" fill="#717171"/>
</svg>
