<svg width="85" height="28" viewBox="0 0 85 28" fill="none" xmlns="http://www.w3.org/2000/svg">
<path d="M2.07049 27L13.4995 4.39773V4.20597H0.280717V0.818181H17.5904V4.32102L6.19975 27H2.07049ZM30.5886 27.4347C28.5687 27.4261 26.8429 26.8935 25.411 25.8366C23.9792 24.7798 22.8841 23.2415 22.1255 21.2216C21.367 19.2017 20.9877 16.7685 20.9877 13.9219C20.9877 11.0838 21.367 8.65909 22.1255 6.64773C22.8926 4.63636 23.992 3.10227 25.4238 2.04545C26.8642 0.988636 28.5858 0.460226 30.5886 0.460226C32.5914 0.460226 34.3088 0.992897 35.7406 2.05824C37.1724 3.11506 38.2676 4.64915 39.0261 6.66051C39.7931 8.66335 40.1767 11.0838 40.1767 13.9219C40.1767 16.777 39.7974 19.2145 39.0389 21.2344C38.2804 23.2457 37.1852 24.7841 35.7534 25.8494C34.3216 26.9063 32.6 27.4347 30.5886 27.4347ZM30.5886 24.0213C32.3613 24.0213 33.7463 23.1562 34.7434 21.4261C35.7491 19.696 36.252 17.1946 36.252 13.9219C36.252 11.7486 36.0218 9.91193 35.5616 8.41193C35.1099 6.90341 34.4579 5.76136 33.6056 4.9858C32.7619 4.2017 31.7562 3.80966 30.5886 3.80966C28.8244 3.80966 27.4395 4.67898 26.4338 6.41761C25.4281 8.15625 24.921 10.6577 24.9125 13.9219C24.9125 16.1037 25.1383 17.9489 25.59 19.4574C26.0502 20.9574 26.7022 22.0952 27.546 22.8707C28.3897 23.6378 29.4039 24.0213 30.5886 24.0213ZM46.3322 27.2429C45.6333 27.2429 45.0325 26.9957 44.5297 26.5014C44.0268 25.9986 43.7754 25.3935 43.7754 24.6861C43.7754 23.9872 44.0268 23.3906 44.5297 22.8963C45.0325 22.3935 45.6333 22.142 46.3322 22.142C47.0311 22.142 47.6319 22.3935 48.1348 22.8963C48.6376 23.3906 48.889 23.9872 48.889 24.6861C48.889 25.1548 48.7697 25.5852 48.5311 25.9773C48.301 26.3608 47.9941 26.6676 47.6106 26.8977C47.2271 27.1278 46.801 27.2429 46.3322 27.2429ZM60.7271 0.818181V27H56.764V4.78125H56.6106L50.3464 8.87216V5.08807L56.8791 0.818181H60.7271ZM71.3762 20.3395L71.3507 15.6733H72.0154L79.8393 7.36364H84.416L75.4927 16.8239H74.8919L71.3762 20.3395ZM67.8606 27V0.818181H71.6831V27H67.8606ZM80.2612 27L73.2299 17.6676L75.8635 14.9957L84.9529 27H80.2612Z" fill="#111827"/>
</svg>
