<svg width="143" height="94" viewBox="0 0 143 94" fill="none" xmlns="http://www.w3.org/2000/svg">
<path d="M11.9102 87.7637H142" stroke="#1F2937" stroke-width="0.218605" stroke-linecap="round"/>
<path d="M22.7432 87.6116V89.1326" stroke="#D9D9D9" stroke-width="0.304206"/>
<path d="M44.4277 87.6116V89.1326" stroke="#D9D9D9" stroke-width="0.304206"/>
<path d="M66.1094 87.6116V89.1326" stroke="#D9D9D9" stroke-width="0.304206"/>
<path d="M87.79 87.6116V89.1326" stroke="#D9D9D9" stroke-width="0.304206"/>
<path d="M109.476 87.6116V89.1326" stroke="#D9D9D9" stroke-width="0.304206"/>
<path d="M131.16 87.6115V89.1325" stroke="#D9D9D9" stroke-width="0.304206"/>
<path d="M8.88363 86.9972C8.68831 86.9972 8.52195 86.9441 8.38454 86.8378C8.24713 86.7306 8.14213 86.5755 8.06953 86.3724C7.99694 86.1684 7.96064 85.9221 7.96064 85.6335C7.96064 85.3466 7.99694 85.1016 8.06953 84.8985C8.14299 84.6945 8.24843 84.539 8.38584 84.4318C8.52411 84.3238 8.69004 84.2697 8.88363 84.2697C9.07721 84.2697 9.24271 84.3238 9.38013 84.4318C9.5184 84.539 9.62384 84.6945 9.69643 84.8985C9.76989 85.1016 9.80662 85.3466 9.80662 85.6335C9.80662 85.9221 9.77032 86.1684 9.69773 86.3724C9.62513 86.5755 9.52013 86.7306 9.38272 86.8378C9.24531 86.9441 9.07894 86.9972 8.88363 86.9972ZM8.88363 86.712C9.07721 86.712 9.22759 86.6187 9.33475 86.432C9.44192 86.2454 9.4955 85.9792 9.4955 85.6335C9.4955 85.4036 9.47087 85.2079 9.42161 85.0463C9.37321 84.8846 9.30321 84.7615 9.2116 84.6768C9.12086 84.5921 9.01153 84.5498 8.88363 84.5498C8.69177 84.5498 8.54183 84.6444 8.4338 84.8337C8.32577 85.0221 8.27176 85.2887 8.27176 85.6335C8.27176 85.8634 8.29596 86.0587 8.34435 86.2194C8.39275 86.3802 8.46232 86.5025 8.55306 86.5863C8.64467 86.6701 8.75486 86.712 8.88363 86.712Z" fill="#222C3A"/>
<path d="M3.72324 73.0038C3.55212 73.0038 3.39959 72.9744 3.26563 72.9157C3.13254 72.8569 3.02667 72.7752 2.94803 72.6707C2.87025 72.5652 2.8279 72.4429 2.82099 72.3038H3.14767C3.15458 72.3894 3.18396 72.4633 3.23582 72.5255C3.28767 72.5868 3.35551 72.6344 3.43934 72.6681C3.52317 72.7018 3.61607 72.7186 3.71805 72.7186C3.83213 72.7186 3.93324 72.6988 4.02139 72.659C4.10955 72.6192 4.17868 72.5639 4.22881 72.4931C4.27893 72.4222 4.304 72.3401 4.304 72.2468C4.304 72.1491 4.2798 72.0631 4.2314 71.9888C4.183 71.9136 4.11214 71.8548 4.0188 71.8125C3.92547 71.7701 3.81139 71.749 3.67657 71.749H3.46397V71.4638H3.67657C3.78201 71.4638 3.87448 71.4448 3.95399 71.4067C4.03436 71.3687 4.09701 71.3151 4.14195 71.246C4.18776 71.1769 4.21066 71.0956 4.21066 71.0023C4.21066 70.9124 4.19078 70.8342 4.15103 70.7676C4.11127 70.7011 4.0551 70.6493 3.9825 70.6121C3.91077 70.5749 3.82608 70.5563 3.72842 70.5563C3.63682 70.5563 3.55039 70.5732 3.46916 70.6069C3.38878 70.6397 3.3231 70.6877 3.27211 70.7508C3.22112 70.813 3.19347 70.8882 3.18915 70.9764H2.87803C2.88321 70.8372 2.92513 70.7154 3.00377 70.6108C3.08242 70.5054 3.18526 70.4233 3.3123 70.3645C3.4402 70.3057 3.58064 70.2763 3.73361 70.2763C3.89781 70.2763 4.03868 70.3096 4.15621 70.3762C4.27375 70.4418 4.36406 70.5287 4.42715 70.6367C4.49024 70.7447 4.52178 70.8614 4.52178 70.9867C4.52178 71.1362 4.48246 71.2637 4.40381 71.3691C4.32603 71.4746 4.22017 71.5476 4.08621 71.5882V71.609C4.25387 71.6366 4.3848 71.7079 4.479 71.8229C4.5732 71.9369 4.6203 72.0782 4.6203 72.2468C4.6203 72.3911 4.58098 72.5207 4.50234 72.6357C4.42455 72.7497 4.31826 72.8396 4.18344 72.9053C4.04862 72.971 3.89522 73.0038 3.72324 73.0038ZM6.01645 73.0038C5.82114 73.0038 5.65478 72.9507 5.51736 72.8444C5.37995 72.7372 5.27495 72.5821 5.20236 72.379C5.12976 72.175 5.09346 71.9287 5.09346 71.6401C5.09346 71.3532 5.12976 71.1082 5.20236 70.9051C5.27581 70.7011 5.38125 70.5455 5.51866 70.4384C5.65694 70.3304 5.82287 70.2763 6.01645 70.2763C6.21004 70.2763 6.37554 70.3304 6.51295 70.4384C6.65123 70.5455 6.75666 70.7011 6.82926 70.9051C6.90271 71.1082 6.93944 71.3532 6.93944 71.6401C6.93944 71.9287 6.90315 72.175 6.83055 72.379C6.75796 72.5821 6.65295 72.7372 6.51554 72.8444C6.37813 72.9507 6.21177 73.0038 6.01645 73.0038ZM6.01645 72.7186C6.21004 72.7186 6.36041 72.6253 6.46758 72.4386C6.57474 72.252 6.62832 71.9858 6.62832 71.6401C6.62832 71.4102 6.60369 71.2145 6.55443 71.0528C6.50604 70.8912 6.43603 70.7681 6.34443 70.6834C6.25368 70.5987 6.14436 70.5563 6.01645 70.5563C5.8246 70.5563 5.67465 70.651 5.56663 70.8402C5.4586 71.0286 5.40458 71.2953 5.40458 71.6401C5.40458 71.87 5.42878 72.0653 5.47718 72.226C5.52557 72.3868 5.59514 72.5091 5.68589 72.5929C5.7775 72.6767 5.88768 72.7186 6.01645 72.7186ZM8.298 73.0038C8.10269 73.0038 7.93633 72.9507 7.79891 72.8444C7.6615 72.7372 7.5565 72.5821 7.4839 72.379C7.41131 72.175 7.37501 71.9287 7.37501 71.6401C7.37501 71.3532 7.41131 71.1082 7.4839 70.9051C7.55736 70.7011 7.6628 70.5455 7.80021 70.4384C7.93849 70.3304 8.10442 70.2763 8.298 70.2763C8.49159 70.2763 8.65709 70.3304 8.7945 70.4384C8.93277 70.5455 9.03821 70.7011 9.1108 70.9051C9.18426 71.1082 9.22099 71.3532 9.22099 71.6401C9.22099 71.9287 9.1847 72.175 9.1121 72.379C9.03951 72.5821 8.9345 72.7372 8.79709 72.8444C8.65968 72.9507 8.49332 73.0038 8.298 73.0038ZM8.298 72.7186C8.49159 72.7186 8.64196 72.6253 8.74913 72.4386C8.85629 72.252 8.90987 71.9858 8.90987 71.6401C8.90987 71.4102 8.88524 71.2145 8.83598 71.0528C8.78758 70.8912 8.71758 70.7681 8.62597 70.6834C8.53523 70.5987 8.42591 70.5563 8.298 70.5563C8.10614 70.5563 7.9562 70.651 7.84817 70.8402C7.74015 71.0286 7.68613 71.2953 7.68613 71.6401C7.68613 71.87 7.71033 72.0653 7.75873 72.226C7.80712 72.3868 7.87669 72.5091 7.96744 72.5929C8.05904 72.6767 8.16923 72.7186 8.298 72.7186Z" fill="#222C3A"/>
<path d="M3.75403 59.0104C3.64513 59.0087 3.53624 58.9879 3.42735 58.9482C3.31846 58.9084 3.21907 58.8415 3.12919 58.7473C3.03931 58.6522 2.96715 58.5239 2.91271 58.3623C2.85826 58.1998 2.83104 57.9958 2.83104 57.7504C2.83104 57.5153 2.85307 57.307 2.89715 57.1255C2.94122 56.9432 3.00518 56.7898 3.08901 56.6653C3.17284 56.54 3.27395 56.445 3.39235 56.3802C3.51161 56.3153 3.646 56.2829 3.79551 56.2829C3.94416 56.2829 4.07638 56.3127 4.19219 56.3724C4.30886 56.4311 4.40392 56.5132 4.47738 56.6187C4.55084 56.7241 4.59837 56.8455 4.61998 56.983H4.30367C4.27429 56.8637 4.21725 56.7647 4.13256 56.6861C4.04786 56.6074 3.93551 56.5681 3.79551 56.5681C3.58982 56.5681 3.42778 56.6576 3.30938 56.8365C3.19185 57.0154 3.13265 57.2664 3.13179 57.5896H3.15253C3.20092 57.5162 3.25839 57.4535 3.32494 57.4017C3.39235 57.3489 3.46667 57.3083 3.54791 57.2798C3.62915 57.2513 3.71514 57.237 3.80588 57.237C3.95798 57.237 4.09712 57.2751 4.2233 57.3511C4.34948 57.4263 4.45059 57.5304 4.52664 57.6635C4.60269 57.7958 4.64072 57.9474 4.64072 58.1185C4.64072 58.2827 4.60399 58.4331 4.53053 58.5697C4.45707 58.7053 4.3538 58.8134 4.22071 58.8937C4.08848 58.9733 3.93292 59.0121 3.75403 59.0104ZM3.75403 58.7252C3.86292 58.7252 3.96058 58.698 4.047 58.6436C4.13428 58.5891 4.20299 58.5161 4.25311 58.4245C4.3041 58.3329 4.3296 58.2309 4.3296 58.1185C4.3296 58.0088 4.30497 57.909 4.25571 57.8191C4.20731 57.7283 4.14033 57.6562 4.05478 57.6026C3.97008 57.549 3.87329 57.5222 3.7644 57.5222C3.6823 57.5222 3.60581 57.5386 3.53495 57.5715C3.46408 57.6035 3.40186 57.6475 3.34827 57.7037C3.29556 57.7599 3.25407 57.8243 3.22383 57.8969C3.19358 57.9686 3.17845 58.0442 3.17845 58.1237C3.17845 58.2292 3.20308 58.3277 3.25234 58.4193C3.30247 58.5109 3.37074 58.5848 3.45717 58.641C3.54445 58.6971 3.64341 58.7252 3.75403 58.7252ZM6.01645 59.0104C5.82114 59.0104 5.65478 58.9573 5.51737 58.851C5.37995 58.7438 5.27495 58.5887 5.20236 58.3856C5.12976 58.1816 5.09346 57.9353 5.09346 57.6467C5.09346 57.3598 5.12976 57.1147 5.20236 56.9117C5.27581 56.7077 5.38125 56.5521 5.51866 56.445C5.65694 56.3369 5.82287 56.2829 6.01645 56.2829C6.21004 56.2829 6.37554 56.3369 6.51295 56.445C6.65123 56.5521 6.75666 56.7077 6.82926 56.9117C6.90271 57.1147 6.93944 57.3598 6.93944 57.6467C6.93944 57.9353 6.90315 58.1816 6.83055 58.3856C6.75796 58.5887 6.65295 58.7438 6.51554 58.851C6.37813 58.9573 6.21177 59.0104 6.01645 59.0104ZM6.01645 58.7252C6.21004 58.7252 6.36041 58.6319 6.46758 58.4452C6.57474 58.2585 6.62832 57.9924 6.62832 57.6467C6.62832 57.4168 6.60369 57.221 6.55443 57.0594C6.50604 56.8978 6.43603 56.7747 6.34443 56.69C6.25368 56.6053 6.14436 56.5629 6.01645 56.5629C5.8246 56.5629 5.67465 56.6576 5.56663 56.8468C5.4586 57.0352 5.40458 57.3018 5.40458 57.6467C5.40458 57.8766 5.42878 58.0719 5.47718 58.2326C5.52558 58.3934 5.59515 58.5157 5.68589 58.5995C5.7775 58.6833 5.88768 58.7252 6.01645 58.7252ZM8.298 59.0104C8.10269 59.0104 7.93633 58.9573 7.79891 58.851C7.6615 58.7438 7.5565 58.5887 7.4839 58.3856C7.41131 58.1816 7.37501 57.9353 7.37501 57.6467C7.37501 57.3598 7.41131 57.1147 7.4839 56.9117C7.55736 56.7077 7.6628 56.5521 7.80021 56.445C7.93849 56.3369 8.10442 56.2829 8.298 56.2829C8.49159 56.2829 8.65709 56.3369 8.7945 56.445C8.93277 56.5521 9.03821 56.7077 9.1108 56.9117C9.18426 57.1147 9.22099 57.3598 9.22099 57.6467C9.22099 57.9353 9.1847 58.1816 9.1121 58.3856C9.03951 58.5887 8.9345 58.7438 8.79709 58.851C8.65968 58.9573 8.49332 59.0104 8.298 59.0104ZM8.298 58.7252C8.49159 58.7252 8.64196 58.6319 8.74913 58.4452C8.85629 58.2585 8.90987 57.9924 8.90987 57.6467C8.90987 57.4168 8.88524 57.221 8.83598 57.0594C8.78758 56.8978 8.71758 56.7747 8.62597 56.69C8.53523 56.6053 8.42591 56.5629 8.298 56.5629C8.10614 56.5629 7.9562 56.6576 7.84817 56.8468C7.74015 57.0352 7.68613 57.3018 7.68613 57.6467C7.68613 57.8766 7.71033 58.0719 7.75873 58.2326C7.80712 58.3934 7.87669 58.5157 7.96744 58.5995C8.05904 58.6833 8.16923 58.7252 8.298 58.7252Z" fill="#222C3A"/>
<path d="M3.71773 42.2893C3.82662 42.2901 3.93551 42.3109 4.04441 42.3515C4.1533 42.3921 4.25268 42.4595 4.34256 42.5537C4.43244 42.6471 4.5046 42.7745 4.55905 42.9361C4.6135 43.0978 4.64072 43.3004 4.64072 43.5441C4.64072 43.7801 4.61825 43.9896 4.57331 44.1729C4.52923 44.3552 4.46528 44.509 4.38145 44.6343C4.29849 44.7597 4.19737 44.8547 4.07811 44.9195C3.95971 44.9844 3.82576 45.0168 3.67625 45.0168C3.5276 45.0168 3.39494 44.9874 3.27827 44.9286C3.16247 44.869 3.0674 44.7865 2.99308 44.681C2.91962 44.5747 2.87252 44.4516 2.85178 44.3116H3.16808C3.1966 44.4334 3.25321 44.5341 3.3379 44.6136C3.42346 44.6923 3.53624 44.7316 3.67625 44.7316C3.88107 44.7316 4.04268 44.6421 4.16108 44.4632C4.28034 44.2843 4.33997 44.0316 4.33997 43.7049H4.31923C4.27083 43.7775 4.21336 43.8401 4.14682 43.8928C4.08027 43.9456 4.00638 43.9862 3.92514 44.0147C3.84391 44.0432 3.75748 44.0575 3.66588 44.0575C3.51377 44.0575 3.3742 44.0199 3.24716 43.9447C3.12098 43.8686 3.01987 43.7645 2.94382 43.6323C2.86863 43.4992 2.83104 43.3471 2.83104 43.176C2.83104 43.0135 2.86733 42.8649 2.93993 42.73C3.01339 42.5943 3.11623 42.4863 3.24846 42.4059C3.38155 42.3256 3.53797 42.2867 3.71773 42.2893ZM3.71773 42.5745C3.60884 42.5745 3.51075 42.6017 3.42346 42.6561C3.33704 42.7097 3.26833 42.7823 3.21734 42.8739C3.16722 42.9647 3.14216 43.0654 3.14216 43.176C3.14216 43.2866 3.16635 43.3873 3.21475 43.478C3.26401 43.5679 3.33099 43.6396 3.41568 43.6932C3.50124 43.7459 3.59847 43.7723 3.70736 43.7723C3.78946 43.7723 3.86594 43.7563 3.93681 43.7243C4.00768 43.6915 4.06947 43.647 4.12219 43.5908C4.17577 43.5338 4.21768 43.4694 4.24793 43.3976C4.27818 43.325 4.2933 43.2494 4.2933 43.1708C4.2933 43.0671 4.26824 42.9699 4.21811 42.8791C4.16885 42.7884 4.10058 42.7149 4.01329 42.6587C3.92687 42.6026 3.82835 42.5745 3.71773 42.5745ZM6.01645 45.0168C5.82114 45.0168 5.65478 44.9636 5.51737 44.8573C5.37995 44.7502 5.27495 44.595 5.20236 44.3919C5.12976 44.188 5.09346 43.9417 5.09346 43.653C5.09346 43.3661 5.12976 43.1211 5.20236 42.918C5.27581 42.714 5.38125 42.5585 5.51866 42.4513C5.65694 42.3433 5.82287 42.2893 6.01645 42.2893C6.21004 42.2893 6.37554 42.3433 6.51295 42.4513C6.65123 42.5585 6.75666 42.714 6.82926 42.918C6.90271 43.1211 6.93944 43.3661 6.93944 43.653C6.93944 43.9417 6.90315 44.188 6.83055 44.3919C6.75796 44.595 6.65295 44.7502 6.51554 44.8573C6.37813 44.9636 6.21177 45.0168 6.01645 45.0168ZM6.01645 44.7316C6.21004 44.7316 6.36041 44.6382 6.46758 44.4516C6.57474 44.2649 6.62832 43.9987 6.62832 43.653C6.62832 43.4231 6.60369 43.2274 6.55443 43.0658C6.50604 42.9042 6.43603 42.781 6.34443 42.6963C6.25368 42.6116 6.14436 42.5693 6.01645 42.5693C5.8246 42.5693 5.67465 42.6639 5.56663 42.8532C5.4586 43.0416 5.40458 43.3082 5.40458 43.653C5.40458 43.8829 5.42878 44.0782 5.47718 44.239C5.52558 44.3997 5.59515 44.522 5.68589 44.6058C5.7775 44.6897 5.88768 44.7316 6.01645 44.7316ZM8.298 45.0168C8.10269 45.0168 7.93633 44.9636 7.79891 44.8573C7.6615 44.7502 7.5565 44.595 7.4839 44.3919C7.41131 44.188 7.37501 43.9417 7.37501 43.653C7.37501 43.3661 7.41131 43.1211 7.4839 42.918C7.55736 42.714 7.6628 42.5585 7.80021 42.4513C7.93849 42.3433 8.10442 42.2893 8.298 42.2893C8.49159 42.2893 8.65709 42.3433 8.7945 42.4513C8.93277 42.5585 9.03821 42.714 9.1108 42.918C9.18426 43.1211 9.22099 43.3661 9.22099 43.653C9.22099 43.9417 9.1847 44.188 9.1121 44.3919C9.03951 44.595 8.9345 44.7502 8.79709 44.8573C8.65968 44.9636 8.49332 45.0168 8.298 45.0168ZM8.298 44.7316C8.49159 44.7316 8.64196 44.6382 8.74913 44.4516C8.85629 44.2649 8.90987 43.9987 8.90987 43.653C8.90987 43.4231 8.88524 43.2274 8.83598 43.0658C8.78758 42.9042 8.71758 42.781 8.62597 42.6963C8.53523 42.6116 8.42591 42.5693 8.298 42.5693C8.10614 42.5693 7.9562 42.6639 7.84817 42.8532C7.74015 43.0416 7.68613 43.3082 7.68613 43.653C7.68613 43.8829 7.71033 44.0782 7.75873 44.239C7.80712 44.3997 7.87669 44.522 7.96744 44.6058C8.05904 44.6897 8.16923 44.7316 8.298 44.7316Z" fill="#222C3A"/>
<path d="M1.86902 28.3322V30.9871H1.54753V28.6692H1.53197L0.883805 29.0996V28.7729L1.54753 28.3322H1.86902ZM2.9372 30.6241L2.91646 30.7641C2.90177 30.8626 2.8793 30.968 2.84905 31.0804C2.81966 31.1927 2.78898 31.2986 2.75701 31.398C2.72503 31.4974 2.69867 31.5765 2.67793 31.6352H2.44459C2.45583 31.5799 2.47052 31.5069 2.48867 31.4161C2.50682 31.3254 2.52496 31.2239 2.54311 31.1115C2.56213 31 2.57768 30.8859 2.58978 30.7693L2.60534 30.6241H2.9372ZM3.49884 30.9871V30.7537L4.37516 29.7944C4.478 29.6821 4.56269 29.5844 4.62924 29.5015C4.69578 29.4176 4.74505 29.339 4.77702 29.2655C4.80986 29.1912 4.82628 29.1134 4.82628 29.0322C4.82628 28.9389 4.80381 28.858 4.75887 28.7898C4.7148 28.7215 4.6543 28.6688 4.57739 28.6316C4.50047 28.5945 4.41405 28.5759 4.31812 28.5759C4.21614 28.5759 4.12713 28.5971 4.05107 28.6394C3.97589 28.6809 3.91755 28.7392 3.87607 28.8144C3.83545 28.8896 3.81514 28.9777 3.81514 29.0789H3.50921C3.50921 28.9233 3.54507 28.7867 3.6168 28.6692C3.68853 28.5517 3.78619 28.4601 3.90977 28.3944C4.03422 28.3287 4.17379 28.2959 4.32849 28.2959C4.48405 28.2959 4.62189 28.3287 4.74202 28.3944C4.86215 28.4601 4.95635 28.5487 5.02462 28.6601C5.09289 28.7716 5.12703 28.8956 5.12703 29.0322C5.12703 29.1298 5.10932 29.2253 5.07388 29.3187C5.03931 29.4111 4.97882 29.5144 4.8924 29.6285C4.80684 29.7417 4.68801 29.88 4.5359 30.0433L3.93959 30.6811V30.7019H5.1737V30.9871H3.49884ZM6.57504 31.0234C6.37972 31.0234 6.21336 30.9702 6.07595 30.8639C5.93854 30.7567 5.83353 30.6016 5.76094 30.3985C5.68834 30.1946 5.65205 29.9483 5.65205 29.6596C5.65205 29.3727 5.68834 29.1277 5.76094 28.9246C5.8344 28.7206 5.93983 28.5651 6.07725 28.4579C6.21552 28.3499 6.38145 28.2959 6.57504 28.2959C6.76862 28.2959 6.93412 28.3499 7.07153 28.4579C7.20981 28.5651 7.31524 28.7206 7.38784 28.9246C7.4613 29.1277 7.49803 29.3727 7.49803 29.6596C7.49803 29.9483 7.46173 30.1946 7.38914 30.3985C7.31654 30.6016 7.21154 30.7567 7.07413 30.8639C6.93671 30.9702 6.77035 31.0234 6.57504 31.0234ZM6.57504 30.7382C6.76862 30.7382 6.919 30.6448 7.02616 30.4582C7.13333 30.2715 7.18691 30.0053 7.18691 29.6596C7.18691 29.4297 7.16228 29.234 7.11302 29.0724C7.06462 28.9108 6.99462 28.7876 6.90301 28.7029C6.81227 28.6182 6.70294 28.5759 6.57504 28.5759C6.38318 28.5759 6.23324 28.6705 6.12521 28.8598C6.01718 29.0482 5.96317 29.3148 5.96317 29.6596C5.96317 29.8895 5.98737 30.0848 6.03576 30.2456C6.08416 30.4063 6.15373 30.5286 6.24447 30.6124C6.33608 30.6962 6.44627 30.7382 6.57504 30.7382ZM8.85659 31.0234C8.66127 31.0234 8.49491 30.9702 8.3575 30.8639C8.22009 30.7567 8.11508 30.6016 8.04249 30.3985C7.96989 30.1946 7.9336 29.9483 7.9336 29.6596C7.9336 29.3727 7.96989 29.1277 8.04249 28.9246C8.11595 28.7206 8.22138 28.5651 8.35879 28.4579C8.49707 28.3499 8.663 28.2959 8.85659 28.2959C9.05017 28.2959 9.21567 28.3499 9.35308 28.4579C9.49136 28.5651 9.59679 28.7206 9.66939 28.9246C9.74285 29.1277 9.77958 29.3727 9.77958 29.6596C9.77958 29.9483 9.74328 30.1946 9.67068 30.3985C9.59809 30.6016 9.49309 30.7567 9.35567 30.8639C9.21826 30.9702 9.0519 31.0234 8.85659 31.0234ZM8.85659 30.7382C9.05017 30.7382 9.20055 30.6448 9.30771 30.4582C9.41487 30.2715 9.46846 30.0053 9.46846 29.6596C9.46846 29.4297 9.44383 29.234 9.39456 29.0724C9.34617 28.9108 9.27617 28.7876 9.18456 28.7029C9.09382 28.6182 8.98449 28.5759 8.85659 28.5759C8.66473 28.5759 8.51479 28.6705 8.40676 28.8598C8.29873 29.0482 8.24472 29.3148 8.24472 29.6596C8.24472 29.8895 8.26891 30.0848 8.31731 30.2456C8.36571 30.4063 8.43528 30.5286 8.52602 30.6124C8.61763 30.6962 8.72782 30.7382 8.85659 30.7382Z" fill="#222C3A"/>
<path d="M1.9118 14.3385V16.9934H1.59031V14.6756H1.57475L0.926584 15.1059V14.7793L1.59031 14.3385H1.9118ZM2.97998 16.6304L2.95924 16.7704C2.94454 16.869 2.92207 16.9744 2.89183 17.0867C2.86244 17.1991 2.83176 17.305 2.79979 17.4043C2.76781 17.5037 2.74145 17.5828 2.72071 17.6416H2.48737C2.49861 17.5863 2.5133 17.5132 2.53145 17.4225C2.54959 17.3318 2.56774 17.2302 2.58589 17.1179C2.6049 17.0064 2.62046 16.8923 2.63256 16.7756L2.64812 16.6304H2.97998ZM4.31779 17.0297C4.16569 17.0297 4.02871 16.9995 3.90686 16.939C3.785 16.8785 3.68734 16.7955 3.61389 16.6901C3.54043 16.5846 3.50024 16.4645 3.49333 16.3297H3.80445C3.81655 16.4498 3.87099 16.5492 3.96778 16.6278C4.06544 16.7056 4.18211 16.7445 4.31779 16.7445C4.42669 16.7445 4.52348 16.719 4.60817 16.668C4.69373 16.617 4.76071 16.547 4.80911 16.458C4.85837 16.3681 4.883 16.2666 4.883 16.1534C4.883 16.0376 4.8575 15.9343 4.80651 15.8436C4.75639 15.752 4.68725 15.6798 4.5991 15.6271C4.51095 15.5744 4.41027 15.5476 4.29705 15.5467C4.21582 15.5458 4.13242 15.5584 4.04686 15.5843C3.9613 15.6094 3.89087 15.6418 3.83556 15.6815L3.53481 15.6452L3.69555 14.3385H5.07485V14.6237H3.96519L3.87186 15.4067H3.88741C3.94186 15.3635 4.01013 15.3276 4.09223 15.2991C4.17433 15.2706 4.25989 15.2563 4.34891 15.2563C4.51138 15.2563 4.65614 15.2952 4.78318 15.373C4.91108 15.4499 5.01133 15.5553 5.08393 15.6893C5.15739 15.8233 5.19412 15.9762 5.19412 16.1482C5.19412 16.3176 5.15609 16.4688 5.08004 16.6019C5.00485 16.7341 4.90115 16.8387 4.76892 16.9156C4.63669 16.9917 4.48632 17.0297 4.31779 17.0297ZM6.57504 17.0297C6.37972 17.0297 6.21336 16.9766 6.07595 16.8703C5.93854 16.7631 5.83353 16.608 5.76094 16.4049C5.68834 16.2009 5.65205 15.9546 5.65205 15.666C5.65205 15.379 5.68834 15.134 5.76094 14.9309C5.8344 14.727 5.93983 14.5714 6.07724 14.4643C6.21552 14.3562 6.38145 14.3022 6.57504 14.3022C6.76862 14.3022 6.93412 14.3562 7.07153 14.4643C7.20981 14.5714 7.31524 14.727 7.38784 14.9309C7.4613 15.134 7.49803 15.379 7.49803 15.666C7.49803 15.9546 7.46173 16.2009 7.38914 16.4049C7.31654 16.608 7.21154 16.7631 7.07413 16.8703C6.93671 16.9766 6.77035 17.0297 6.57504 17.0297ZM6.57504 16.7445C6.76862 16.7445 6.919 16.6512 7.02616 16.4645C7.13333 16.2778 7.18691 16.0117 7.18691 15.666C7.18691 15.4361 7.16228 15.2403 7.11302 15.0787C7.06462 14.9171 6.99462 14.794 6.90301 14.7093C6.81227 14.6246 6.70294 14.5822 6.57504 14.5822C6.38318 14.5822 6.23324 14.6769 6.12521 14.8661C6.01718 15.0545 5.96317 15.3211 5.96317 15.666C5.96317 15.8958 5.98737 16.0912 6.03576 16.2519C6.08416 16.4127 6.15373 16.5349 6.24447 16.6188C6.33608 16.7026 6.44627 16.7445 6.57504 16.7445ZM8.85659 17.0297C8.66127 17.0297 8.49491 16.9766 8.3575 16.8703C8.22009 16.7631 8.11508 16.608 8.04249 16.4049C7.96989 16.2009 7.9336 15.9546 7.9336 15.666C7.9336 15.379 7.96989 15.134 8.04249 14.9309C8.11595 14.727 8.22138 14.5714 8.35879 14.4643C8.49707 14.3562 8.663 14.3022 8.85659 14.3022C9.05017 14.3022 9.21567 14.3562 9.35308 14.4643C9.49136 14.5714 9.59679 14.727 9.66939 14.9309C9.74285 15.134 9.77958 15.379 9.77958 15.666C9.77958 15.9546 9.74328 16.2009 9.67068 16.4049C9.59809 16.608 9.49309 16.7631 9.35567 16.8703C9.21826 16.9766 9.0519 17.0297 8.85659 17.0297ZM8.85659 16.7445C9.05017 16.7445 9.20055 16.6512 9.30771 16.4645C9.41487 16.2778 9.46846 16.0117 9.46846 15.666C9.46846 15.4361 9.44383 15.2403 9.39456 15.0787C9.34617 14.9171 9.27617 14.794 9.18456 14.7093C9.09382 14.6246 8.98449 14.5822 8.85659 14.5822C8.66473 14.5822 8.51479 14.6769 8.40676 14.8661C8.29873 15.0545 8.24472 15.3211 8.24472 15.666C8.24472 15.8958 8.26891 16.0912 8.31731 16.2519C8.36571 16.4127 8.43528 16.5349 8.52602 16.6188C8.61763 16.7026 8.72782 16.7445 8.85659 16.7445Z" fill="#222C3A"/>
<path d="M1.9118 0.345107V3H1.59031V0.682154H1.57475L0.926584 1.11254V0.785861L1.59031 0.345107H1.9118ZM2.97998 2.63703L2.95924 2.77703C2.94454 2.87555 2.92207 2.98099 2.89183 3.09334C2.86244 3.20569 2.83176 3.31155 2.79979 3.41094C2.76781 3.51032 2.74145 3.5894 2.72071 3.64817H2.48737C2.49861 3.59286 2.5133 3.51983 2.53145 3.42909C2.54959 3.33834 2.56774 3.2368 2.58589 3.12445C2.6049 3.01296 2.62046 2.89889 2.63256 2.78222L2.64812 2.63703H2.97998ZM4.31002 3.0363C4.13199 3.0363 3.9747 3.00475 3.83815 2.94166C3.70247 2.87771 3.5966 2.78999 3.52055 2.67851C3.4445 2.56616 3.4069 2.43826 3.40777 2.29479C3.4069 2.18245 3.42894 2.07874 3.47388 1.98367C3.51882 1.88774 3.58018 1.8078 3.65796 1.74385C3.7366 1.67904 3.82432 1.63798 3.92112 1.6207V1.60514C3.79408 1.5723 3.69296 1.50101 3.61777 1.39125C3.54259 1.28063 3.50543 1.15488 3.50629 1.01402C3.50543 0.879197 3.53956 0.758638 3.6087 0.652338C3.67784 0.546039 3.7729 0.462209 3.89389 0.400849C4.01575 0.339489 4.15446 0.30881 4.31002 0.30881C4.46385 0.30881 4.60126 0.339489 4.72225 0.400849C4.84324 0.462209 4.93831 0.546039 5.00744 0.652338C5.07745 0.758638 5.11288 0.879197 5.11374 1.01402C5.11288 1.15488 5.07442 1.28063 4.99837 1.39125C4.92318 1.50101 4.82337 1.5723 4.69892 1.60514V1.6207C4.79485 1.63798 4.88127 1.67904 4.95818 1.74385C5.0351 1.8078 5.09646 1.88774 5.14226 1.98367C5.18807 2.07874 5.2114 2.18245 5.21227 2.29479C5.2114 2.43826 5.17251 2.56616 5.0956 2.67851C5.01954 2.78999 4.91368 2.87771 4.77799 2.94166C4.64317 3.00475 4.48718 3.0363 4.31002 3.0363ZM4.31002 2.7511C4.43014 2.7511 4.53385 2.73166 4.62114 2.69277C4.70842 2.65388 4.77583 2.599 4.82337 2.52813C4.8709 2.45727 4.8951 2.3743 4.89596 2.27924C4.8951 2.17899 4.86917 2.09041 4.81818 2.01349C4.76719 1.93657 4.69762 1.87608 4.60947 1.832C4.52218 1.78793 4.42237 1.76589 4.31002 1.76589C4.1968 1.76589 4.09569 1.78793 4.00667 1.832C3.91852 1.87608 3.84895 1.93657 3.79796 2.01349C3.74784 2.09041 3.72321 2.17899 3.72407 2.27924C3.72321 2.3743 3.74611 2.45727 3.79278 2.52813C3.84031 2.599 3.90815 2.65388 3.9963 2.69277C4.08445 2.73166 4.18903 2.7511 4.31002 2.7511ZM4.31002 1.49107C4.40508 1.49107 4.48934 1.47205 4.5628 1.43403C4.63713 1.396 4.69546 1.34285 4.73781 1.27458C4.78015 1.20631 4.80176 1.12636 4.80262 1.03476C4.80176 0.944878 4.78059 0.866665 4.7391 0.80012C4.69762 0.732711 4.64015 0.680857 4.56669 0.64456C4.49323 0.607399 4.40767 0.588818 4.31002 0.588818C4.21063 0.588818 4.12378 0.607399 4.04945 0.64456C3.97513 0.680857 3.91766 0.732711 3.87704 0.80012C3.83642 0.866665 3.81655 0.944878 3.81741 1.03476C3.81655 1.12636 3.83685 1.20631 3.87834 1.27458C3.92068 1.34285 3.97902 1.396 4.05334 1.43403C4.12767 1.47205 4.21322 1.49107 4.31002 1.49107ZM6.57504 3.0363C6.37972 3.0363 6.21336 2.98315 6.07595 2.87685C5.93854 2.76968 5.83353 2.61456 5.76094 2.41146C5.68834 2.20751 5.65205 1.9612 5.65205 1.67255C5.65205 1.38563 5.68834 1.14062 5.76094 0.937532C5.8344 0.733575 5.93983 0.578015 6.07724 0.470851C6.21552 0.362823 6.38145 0.30881 6.57504 0.30881C6.76862 0.30881 6.93412 0.362823 7.07153 0.470851C7.20981 0.578015 7.31524 0.733575 7.38784 0.937532C7.4613 1.14062 7.49803 1.38563 7.49803 1.67255C7.49803 1.9612 7.46173 2.20751 7.38914 2.41146C7.31654 2.61456 7.21154 2.76968 7.07413 2.87685C6.93671 2.98315 6.77035 3.0363 6.57504 3.0363ZM6.57504 2.7511C6.76862 2.7511 6.919 2.65777 7.02616 2.4711C7.13333 2.28442 7.18691 2.01824 7.18691 1.67255C7.18691 1.44267 7.16228 1.24692 7.11302 1.08531C7.06462 0.923704 6.99462 0.800552 6.90301 0.715859C6.81227 0.631165 6.70294 0.588818 6.57504 0.588818C6.38318 0.588818 6.23324 0.68345 6.12521 0.872715C6.01718 1.06112 5.96317 1.32773 5.96317 1.67255C5.96317 1.90244 5.98737 2.09775 6.03576 2.2585C6.08416 2.41924 6.15373 2.54153 6.24447 2.62536C6.33608 2.70919 6.44627 2.7511 6.57504 2.7511ZM8.85659 3.0363C8.66127 3.0363 8.49491 2.98315 8.3575 2.87685C8.22009 2.76968 8.11508 2.61456 8.04249 2.41146C7.96989 2.20751 7.9336 1.9612 7.9336 1.67255C7.9336 1.38563 7.96989 1.14062 8.04249 0.937532C8.11595 0.733575 8.22138 0.578015 8.35879 0.470851C8.49707 0.362823 8.663 0.30881 8.85659 0.30881C9.05017 0.30881 9.21567 0.362823 9.35308 0.470851C9.49136 0.578015 9.59679 0.733575 9.66939 0.937532C9.74285 1.14062 9.77958 1.38563 9.77958 1.67255C9.77958 1.9612 9.74328 2.20751 9.67068 2.41146C9.59809 2.61456 9.49309 2.76968 9.35567 2.87685C9.21826 2.98315 9.0519 3.0363 8.85659 3.0363ZM8.85659 2.7511C9.05017 2.7511 9.20055 2.65777 9.30771 2.4711C9.41487 2.28442 9.46846 2.01824 9.46846 1.67255C9.46846 1.44267 9.44383 1.24692 9.39456 1.08531C9.34617 0.923704 9.27617 0.800552 9.18456 0.715859C9.09382 0.631165 8.98449 0.588818 8.85659 0.588818C8.66473 0.588818 8.51479 0.68345 8.40676 0.872715C8.29873 1.06112 8.24472 1.32773 8.24472 1.67255C8.24472 1.90244 8.26891 2.09775 8.31731 2.2585C8.36571 2.41924 8.43528 2.54153 8.52602 2.62536C8.61763 2.70919 8.72782 2.7511 8.85659 2.7511Z" fill="#222C3A"/>
<path d="M22.4469 92.4368H22.1099L23.0847 89.7819H23.4166L24.3914 92.4368H24.0544L23.261 90.2019H23.2403L22.4469 92.4368ZM22.5714 91.3997H23.9299V91.6849H22.5714V91.3997Z" fill="#222C3A"/>
<path d="M43.609 92.4368V89.7819H44.5372C44.7221 89.7819 44.8746 89.8139 44.9948 89.8778C45.1149 89.9409 45.2043 90.026 45.2631 90.1332C45.3219 90.2395 45.3513 90.3574 45.3513 90.4871C45.3513 90.6012 45.3309 90.6954 45.2903 90.7697C45.2506 90.844 45.1979 90.9028 45.1322 90.946C45.0674 90.9892 44.9969 91.0212 44.9209 91.0419V91.0678C45.0021 91.073 45.0838 91.1015 45.1659 91.1534C45.248 91.2052 45.3167 91.2796 45.372 91.3764C45.4273 91.4732 45.455 91.5916 45.455 91.7316C45.455 91.8647 45.4247 91.9843 45.3642 92.0906C45.3037 92.1969 45.2082 92.2812 45.0777 92.3434C44.9472 92.4057 44.7774 92.4368 44.5683 92.4368H43.609ZM43.9305 92.1516H44.5683C44.7783 92.1516 44.9273 92.111 45.0155 92.0297C45.1045 91.9476 45.149 91.8482 45.149 91.7316C45.149 91.6417 45.1261 91.5587 45.0803 91.4827C45.0345 91.4057 44.9693 91.3444 44.8846 91.2986C44.7999 91.2519 44.6996 91.2286 44.5838 91.2286H43.9305V92.1516ZM43.9305 90.9486H44.5268C44.6236 90.9486 44.7109 90.9296 44.7886 90.8915C44.8673 90.8535 44.9295 90.7999 44.9753 90.7308C45.022 90.6617 45.0453 90.5804 45.0453 90.4871C45.0453 90.3704 45.0047 90.2715 44.9235 90.1902C44.8422 90.1081 44.7135 90.0671 44.5372 90.0671H43.9305V90.9486Z" fill="#222C3A"/>
<path d="M67.7432 90.6115H67.4217C67.4027 90.5191 67.3694 90.4378 67.3219 90.3678C67.2752 90.2978 67.2182 90.239 67.1508 90.1915C67.0842 90.1431 67.0103 90.1068 66.9291 90.0826C66.8479 90.0584 66.7632 90.0463 66.675 90.0463C66.5143 90.0463 66.3686 90.0869 66.2381 90.1682C66.1085 90.2494 66.0052 90.3691 65.9283 90.5273C65.8523 90.6854 65.8142 90.8794 65.8142 91.1093C65.8142 91.3392 65.8523 91.5332 65.9283 91.6914C66.0052 91.8495 66.1085 91.9692 66.2381 92.0505C66.3686 92.1317 66.5143 92.1723 66.675 92.1723C66.7632 92.1723 66.8479 92.1602 66.9291 92.136C67.0103 92.1118 67.0842 92.076 67.1508 92.0284C67.2182 91.98 67.2752 91.9208 67.3219 91.8508C67.3694 91.78 67.4027 91.6987 67.4217 91.6071H67.7432C67.719 91.7428 67.6749 91.8642 67.611 91.9714C67.547 92.0785 67.4675 92.1697 67.3724 92.2449C67.2774 92.3192 67.1706 92.3758 67.0522 92.4147C66.9347 92.4536 66.809 92.4731 66.675 92.4731C66.4486 92.4731 66.2472 92.4178 66.0709 92.3071C65.8946 92.1965 65.7559 92.0392 65.6548 91.8353C65.5537 91.6313 65.5031 91.3893 65.5031 91.1093C65.5031 90.8293 65.5537 90.5873 65.6548 90.3834C65.7559 90.1794 65.8946 90.0221 66.0709 89.9115C66.2472 89.8009 66.4486 89.7456 66.675 89.7456C66.809 89.7456 66.9347 89.765 67.0522 89.8039C67.1706 89.8428 67.2774 89.8998 67.3724 89.975C67.4675 90.0494 67.547 90.1401 67.611 90.2473C67.6749 90.3536 67.719 90.475 67.7432 90.6115Z" fill="#222C3A"/>
<path d="M88.1267 92.4368H87.3074V89.7819H88.163C88.4206 89.7819 88.6409 89.835 88.8242 89.9413C89.0074 90.0468 89.1478 90.1984 89.2455 90.3963C89.3431 90.5934 89.392 90.8293 89.392 91.1041C89.392 91.3807 89.3427 91.6188 89.2442 91.8184C89.1456 92.0172 89.0022 92.1702 88.8138 92.2773C88.6254 92.3836 88.3964 92.4368 88.1267 92.4368ZM87.6289 92.1516H88.106C88.3255 92.1516 88.5074 92.1092 88.6517 92.0245C88.7961 91.9398 88.9037 91.8193 88.9745 91.6629C89.0454 91.5064 89.0808 91.3202 89.0808 91.1041C89.0808 90.8898 89.0458 90.7053 88.9758 90.5506C88.9058 90.395 88.8013 90.2758 88.6621 90.1928C88.523 90.109 88.3497 90.0671 88.1423 90.0671H87.6289V92.1516Z" fill="#222C3A"/>
<path d="M108.398 92.4368V89.7819H110V90.0671H108.719V90.9641H109.917V91.2493H108.719V92.1516H110.021V92.4368H108.398Z" fill="#222C3A"/>
<path d="M130.274 92.4368V89.7819H131.866V90.0671H130.595V90.9641H131.746V91.2493H130.595V92.4368H130.274Z" fill="#222C3A"/>
<path d="M15.2676 87.6116H30.2279V69.0469H15.2676V87.6116Z" fill="#1F2937"/>
<path d="M36.9521 87.6117H51.9124V82.4341H36.9521V87.6117Z" fill="#1F2937"/>
<path d="M58.6338 87.6114H73.5941V43.2053H58.6338V87.6114Z" fill="#1F2937"/>
<path d="M80.3145 87.6114H95.2747V84.113H80.3145V87.6114Z" fill="#1F2937"/>
<path d="M101.996 87.6116H116.956V81.1746H101.996V87.6116Z" fill="#1F2937"/>
<path d="M123.681 87.6114H138.641V79.3086H123.681V87.6114Z" fill="#1F2937"/>
<path d="M15.2676 69.0468H30.2279V46.0042H15.2676V69.0468Z" fill="#D0D4DA"/>
<path d="M36.9521 82.434H51.9124V46.0974H36.9521V82.434Z" fill="#D0D4DA"/>
<path d="M58.6338 43.2053H73.5941V14.4253H58.6338V43.2053Z" fill="#D0D4DA"/>
<path d="M80.3145 84.1133H95.2747V80.9414H80.3145V84.1133Z" fill="#D0D4DA"/>
<path d="M101.996 81.1745H116.956V50.9019H101.996V81.1745Z" fill="#D0D4DA"/>
<path d="M123.681 79.3087H138.641V42.1326H123.681V79.3087Z" fill="#D0D4DA"/>
<path d="M12.0156 0L12.0156 87.7387" stroke="#1F2937" stroke-width="0.213579"/>
</svg>
