<svg width="170" height="58" viewBox="0 0 170 58" fill="none" xmlns="http://www.w3.org/2000/svg">
<g clip-path="url(#clip0_2486_81199)">
<path d="M8.21094 49.5101H169.037" stroke="#222C3A" stroke-width="0.269033"/>
<path d="M8.19922 51.3404V49.5098" stroke="#222C3A" stroke-width="0.269033"/>
<path d="M7.60938 56.9718C7.43664 56.9718 7.28952 56.9248 7.16799 56.8308C7.04647 56.736 6.95361 56.5988 6.88941 56.4192C6.82521 56.2388 6.79311 56.021 6.79311 55.7657C6.79311 55.512 6.82521 55.2953 6.88941 55.1157C6.95437 54.9353 7.04762 54.7978 7.16914 54.703C7.29143 54.6074 7.43817 54.5597 7.60938 54.5597C7.78058 54.5597 7.92694 54.6074 8.04846 54.703C8.17075 54.7978 8.264 54.9353 8.3282 55.1157C8.39316 55.2953 8.42565 55.512 8.42565 55.7657C8.42565 56.021 8.39354 56.2388 8.32934 56.4192C8.26514 56.5988 8.17228 56.736 8.05076 56.8308C7.92923 56.9248 7.78211 56.9718 7.60938 56.9718ZM7.60938 56.7196C7.78058 56.7196 7.91357 56.637 8.00834 56.4719C8.10311 56.3069 8.1505 56.0715 8.1505 55.7657C8.1505 55.5624 8.12872 55.3893 8.08515 55.2464C8.04235 55.1035 7.98044 54.9946 7.89943 54.9197C7.81917 54.8448 7.72249 54.8073 7.60938 54.8073C7.4397 54.8073 7.3071 54.891 7.21156 55.0584C7.11602 55.225 7.06825 55.4608 7.06825 55.7657C7.06825 55.969 7.08965 56.1418 7.13245 56.2839C7.17525 56.4261 7.23678 56.5342 7.31703 56.6084C7.39805 56.6825 7.49549 56.7196 7.60938 56.7196Z" fill="#222C3A"/>
<path d="M26.0742 51.3402V49.5097" stroke="#222C3A" stroke-width="0.269033"/>
<path d="M25.5681 54.5917V56.9396H25.2838V54.8897H25.2701L24.6968 55.2703V54.9814L25.2838 54.5917H25.5681Z" fill="#222C3A"/>
<path d="M43.9414 51.3401V49.5096" stroke="#222C3A" stroke-width="0.269033"/>
<path d="M42.1173 56.9396V56.7332L42.8923 55.8848C42.9832 55.7855 43.0581 55.6991 43.117 55.6257C43.1758 55.5516 43.2194 55.4821 43.2477 55.4171C43.2767 55.3514 43.2912 55.2826 43.2912 55.2107C43.2912 55.1282 43.2714 55.0567 43.2316 54.9963C43.1926 54.936 43.1391 54.8893 43.0711 54.8565C43.0031 54.8236 42.9267 54.8072 42.8418 54.8072C42.7516 54.8072 42.6729 54.8259 42.6056 54.8634C42.5392 54.9 42.4876 54.9516 42.4509 55.0181C42.415 55.0846 42.397 55.1626 42.397 55.252H42.1264C42.1264 55.1144 42.1582 54.9937 42.2216 54.8897C42.285 54.7858 42.3714 54.7048 42.4807 54.6467C42.5907 54.5886 42.7142 54.5596 42.851 54.5596C42.9886 54.5596 43.1105 54.5886 43.2167 54.6467C43.3229 54.7048 43.4063 54.7831 43.4666 54.8817C43.527 54.9803 43.5572 55.09 43.5572 55.2107C43.5572 55.2971 43.5415 55.3816 43.5102 55.4641C43.4796 55.5459 43.4261 55.6372 43.3497 55.7381C43.274 55.8382 43.1689 55.9605 43.0344 56.105L42.5071 56.669V56.6874H43.5985V56.9396H42.1173Z" fill="#222C3A"/>
<path d="M61.8125 51.3401V49.5096" stroke="#222C3A" stroke-width="0.269033"/>
<path d="M62.2469 56.9717C62.0955 56.9717 61.9607 56.9457 61.8422 56.8937C61.7245 56.8417 61.6309 56.7695 61.5613 56.677C61.4925 56.5838 61.4551 56.4756 61.449 56.3526H61.7379C61.744 56.4283 61.77 56.4936 61.8158 56.5486C61.8617 56.6029 61.9217 56.6449 61.9958 56.6747C62.0699 56.7046 62.1521 56.7195 62.2423 56.7195C62.3432 56.7195 62.4326 56.7019 62.5106 56.6667C62.5885 56.6316 62.6497 56.5826 62.694 56.52C62.7383 56.4573 62.7605 56.3847 62.7605 56.3022C62.7605 56.2158 62.7391 56.1397 62.6963 56.074C62.6535 56.0075 62.5908 55.9555 62.5083 55.9181C62.4257 55.8806 62.3248 55.8619 62.2056 55.8619H62.0176V55.6097H62.2056C62.2989 55.6097 62.3806 55.5929 62.4509 55.5593C62.522 55.5256 62.5774 55.4782 62.6172 55.4171C62.6577 55.356 62.6779 55.2841 62.6779 55.2016C62.6779 55.1221 62.6604 55.0529 62.6252 54.9941C62.59 54.9352 62.5404 54.8893 62.4762 54.8565C62.4127 54.8236 62.3378 54.8072 62.2515 54.8072C62.1704 54.8072 62.094 54.8221 62.0222 54.8519C61.9511 54.8809 61.893 54.9234 61.8479 54.9792C61.8028 55.0342 61.7784 55.1007 61.7745 55.1786H61.4994C61.504 55.0556 61.5411 54.9478 61.6106 54.8553C61.6802 54.7621 61.7711 54.6895 61.8835 54.6375C61.9966 54.5855 62.1208 54.5596 62.2561 54.5596C62.4013 54.5596 62.5258 54.589 62.6298 54.6478C62.7337 54.7059 62.8136 54.7827 62.8694 54.8783C62.9252 54.9738 62.9531 55.077 62.9531 55.1878C62.9531 55.32 62.9183 55.4328 62.8488 55.526C62.78 55.6193 62.6864 55.6838 62.5679 55.7198V55.7381C62.7162 55.7626 62.8319 55.8256 62.9153 55.9273C62.9986 56.0282 63.0402 56.1531 63.0402 56.3022C63.0402 56.4298 63.0054 56.5444 62.9359 56.6461C62.8671 56.747 62.7731 56.8265 62.6539 56.8845C62.5346 56.9426 62.399 56.9717 62.2469 56.9717Z" fill="#222C3A"/>
<path d="M79.6797 51.3401V49.5096" stroke="#222C3A" stroke-width="0.269033"/>
<path d="M79.2578 56.4581V56.2242L80.2896 54.5917H80.4593V54.9539H80.3446L79.5651 56.1875V56.2058H80.9546V56.4581H79.2578ZM80.363 56.9396V56.387V56.2781V54.5917H80.6336V56.9396H80.363Z" fill="#222C3A"/>
<path d="M97.5508 51.3401V49.5096" stroke="#222C3A" stroke-width="0.269033"/>
<path d="M96.4556 56.9717C96.3211 56.9717 96.2 56.9449 96.0922 56.8914C95.9844 56.8379 95.8981 56.7646 95.8331 56.6713C95.7681 56.5781 95.7326 56.4718 95.7265 56.3526H96.0016C96.0123 56.4588 96.0605 56.5467 96.1461 56.6163C96.2325 56.6851 96.3356 56.7195 96.4556 56.7195C96.5519 56.7195 96.6375 56.6969 96.7124 56.6518C96.7881 56.6067 96.8473 56.5448 96.8901 56.4661C96.9337 56.3866 96.9555 56.2968 96.9555 56.1967C96.9555 56.0943 96.9329 56.0029 96.8878 55.9227C96.8435 55.8417 96.7824 55.7778 96.7044 55.7312C96.6265 55.6846 96.5374 55.6609 96.4373 55.6601C96.3654 55.6594 96.2917 55.6705 96.216 55.6934C96.1404 55.7156 96.0781 55.7442 96.0292 55.7794L95.7632 55.7473L95.9053 54.5917H97.1252V54.8439H96.1438L96.0613 55.5363H96.075C96.1232 55.4981 96.1835 55.4664 96.2562 55.4412C96.3288 55.4159 96.4044 55.4033 96.4831 55.4033C96.6268 55.4033 96.7549 55.4377 96.8672 55.5065C96.9803 55.5745 97.069 55.6678 97.1332 55.7862C97.1982 55.9047 97.2306 56.04 97.2306 56.1921C97.2306 56.3419 97.197 56.4756 97.1297 56.5933C97.0633 56.7103 96.9715 56.8028 96.8546 56.8708C96.7377 56.938 96.6047 56.9717 96.4556 56.9717Z" fill="#222C3A"/>
<path d="M115.43 51.3401V49.5096" stroke="#222C3A" stroke-width="0.269033"/>
<path d="M114.855 56.9717C114.759 56.9701 114.663 56.9518 114.566 56.9166C114.47 56.8815 114.382 56.8223 114.303 56.7389C114.223 56.6549 114.159 56.5414 114.111 56.3985C114.063 56.2548 114.039 56.0744 114.039 55.8573C114.039 55.6494 114.058 55.4652 114.097 55.3047C114.136 55.1435 114.193 55.0078 114.267 54.8978C114.341 54.7869 114.431 54.7029 114.535 54.6455C114.641 54.5882 114.76 54.5596 114.892 54.5596C115.023 54.5596 115.14 54.5859 115.243 54.6387C115.346 54.6906 115.43 54.7632 115.495 54.8565C115.56 54.9497 115.602 55.0571 115.621 55.1786H115.341C115.315 55.0732 115.265 54.9856 115.19 54.9161C115.115 54.8465 115.016 54.8118 114.892 54.8118C114.71 54.8118 114.567 54.8909 114.462 55.0491C114.358 55.2073 114.306 55.4293 114.305 55.7152H114.323C114.366 55.6502 114.417 55.5948 114.476 55.5489C114.535 55.5023 114.601 55.4664 114.673 55.4412C114.745 55.4159 114.821 55.4033 114.901 55.4033C115.036 55.4033 115.159 55.437 115.27 55.5042C115.382 55.5707 115.471 55.6628 115.538 55.7805C115.606 55.8975 115.639 56.0316 115.639 56.1829C115.639 56.3281 115.607 56.4611 115.542 56.5819C115.477 56.7019 115.386 56.7974 115.268 56.8685C115.151 56.9388 115.013 56.9732 114.855 56.9717ZM114.855 56.7195C114.951 56.7195 115.038 56.6954 115.114 56.6472C115.191 56.5991 115.252 56.5345 115.297 56.4535C115.342 56.3725 115.364 56.2823 115.364 56.1829C115.364 56.0859 115.342 55.9976 115.299 55.9181C115.256 55.8378 115.197 55.774 115.121 55.7266C115.046 55.6792 114.961 55.6556 114.864 55.6556C114.792 55.6556 114.724 55.6701 114.661 55.6991C114.599 55.7274 114.544 55.7664 114.496 55.8161C114.45 55.8657 114.413 55.9227 114.386 55.9869C114.36 56.0503 114.346 56.1172 114.346 56.1875C114.346 56.2808 114.368 56.3679 114.412 56.4489C114.456 56.5299 114.516 56.5953 114.593 56.6449C114.67 56.6946 114.757 56.7195 114.855 56.7195Z" fill="#222C3A"/>
<path d="M133.301 51.3401V49.5096" stroke="#222C3A" stroke-width="0.269033"/>
<path d="M131.73 56.9396L132.78 54.8622V54.8439H131.57V54.5917H133.074V54.8576L132.028 56.9396H131.73Z" fill="#222C3A"/>
<path d="M151.164 51.3401V49.5096" stroke="#222C3A" stroke-width="0.269033"/>
<path d="M150.075 56.9717C149.917 56.9717 149.778 56.9438 149.657 56.888C149.537 56.8314 149.444 56.7539 149.376 56.6553C149.309 56.5559 149.276 56.4428 149.277 56.3159C149.276 56.2165 149.295 56.1248 149.335 56.0408C149.375 55.9559 149.429 55.8852 149.498 55.8287C149.568 55.7713 149.645 55.735 149.731 55.7198V55.706C149.618 55.677 149.529 55.6139 149.462 55.5168C149.396 55.419 149.363 55.3078 149.364 55.1832C149.363 55.064 149.393 54.9574 149.454 54.8634C149.516 54.7694 149.6 54.6952 149.707 54.6409C149.814 54.5867 149.937 54.5596 150.075 54.5596C150.211 54.5596 150.332 54.5867 150.439 54.6409C150.546 54.6952 150.63 54.7694 150.691 54.8634C150.753 54.9574 150.785 55.064 150.785 55.1832C150.785 55.3078 150.751 55.419 150.683 55.5168C150.617 55.6139 150.529 55.677 150.419 55.706V55.7198C150.503 55.735 150.58 55.7713 150.648 55.8287C150.716 55.8852 150.77 55.9559 150.811 56.0408C150.851 56.1248 150.872 56.2165 150.873 56.3159C150.872 56.4428 150.837 56.5559 150.769 56.6553C150.702 56.7539 150.609 56.8314 150.489 56.888C150.369 56.9438 150.231 56.9717 150.075 56.9717ZM150.075 56.7195C150.181 56.7195 150.273 56.7023 150.35 56.6679C150.427 56.6335 150.487 56.5849 150.529 56.5223C150.571 56.4596 150.592 56.3862 150.593 56.3022C150.592 56.2135 150.569 56.1352 150.524 56.0671C150.479 55.9991 150.417 55.9456 150.339 55.9066C150.262 55.8676 150.174 55.8482 150.075 55.8482C149.975 55.8482 149.885 55.8676 149.806 55.9066C149.728 55.9456 149.667 55.9991 149.622 56.0671C149.577 56.1352 149.556 56.2135 149.556 56.3022C149.556 56.3862 149.576 56.4596 149.617 56.5223C149.659 56.5849 149.719 56.6335 149.797 56.6679C149.875 56.7023 149.968 56.7195 150.075 56.7195ZM150.075 55.6051C150.159 55.6051 150.233 55.5883 150.298 55.5547C150.364 55.521 150.416 55.474 150.453 55.4137C150.49 55.3533 150.51 55.2826 150.51 55.2016C150.51 55.1221 150.491 55.0529 150.454 54.9941C150.417 54.9344 150.367 54.8886 150.302 54.8565C150.237 54.8236 150.161 54.8072 150.075 54.8072C149.987 54.8072 149.91 54.8236 149.844 54.8565C149.778 54.8886 149.728 54.9344 149.692 54.9941C149.656 55.0529 149.638 55.1221 149.639 55.2016C149.638 55.2826 149.656 55.3533 149.693 55.4137C149.73 55.474 149.782 55.521 149.848 55.5547C149.913 55.5883 149.989 55.6051 150.075 55.6051Z" fill="#222C3A"/>
<path d="M169.035 51.3401V49.5096" stroke="#222C3A" stroke-width="0.269033"/>
<path d="M168.429 54.5596C168.525 54.5603 168.621 54.5787 168.717 54.6146C168.814 54.6505 168.902 54.7101 168.981 54.7934C169.061 54.876 169.124 54.9887 169.173 55.1316C169.221 55.2746 169.245 55.4538 169.245 55.6693C169.245 55.878 169.225 56.0633 169.185 56.2253C169.146 56.3866 169.09 56.5227 169.016 56.6335C168.942 56.7443 168.853 56.8284 168.747 56.8857C168.643 56.943 168.524 56.9717 168.392 56.9717C168.26 56.9717 168.143 56.9457 168.04 56.8937C167.937 56.841 167.853 56.768 167.788 56.6747C167.723 56.5807 167.681 56.4718 167.663 56.348H167.942C167.968 56.4558 168.018 56.5448 168.093 56.6151C168.168 56.6847 168.268 56.7195 168.392 56.7195C168.573 56.7195 168.716 56.6404 168.821 56.4821C168.926 56.3239 168.979 56.1004 168.979 55.8115H168.96C168.918 55.8757 168.867 55.9311 168.808 55.9777C168.749 56.0243 168.684 56.0603 168.612 56.0855C168.54 56.1107 168.464 56.1233 168.383 56.1233C168.248 56.1233 168.125 56.0901 168.012 56.0236C167.901 55.9563 167.811 55.8642 167.744 55.7473C167.678 55.6296 167.644 55.4951 167.644 55.3437C167.644 55.2 167.676 55.0686 167.741 54.9493C167.806 54.8293 167.897 54.7338 168.014 54.6627C168.131 54.5917 168.27 54.5573 168.429 54.5596ZM168.429 54.8118C168.332 54.8118 168.245 54.8358 168.168 54.884C168.092 54.9314 168.031 54.9956 167.986 55.0766C167.942 55.1569 167.92 55.2459 167.92 55.3437C167.92 55.4416 167.941 55.5306 167.984 55.6108C168.027 55.6903 168.087 55.7538 168.161 55.8012C168.237 55.8478 168.323 55.8711 168.419 55.8711C168.492 55.8711 168.56 55.8569 168.622 55.8287C168.685 55.7996 168.74 55.7603 168.786 55.7106C168.834 55.6601 168.871 55.6032 168.897 55.5398C168.924 55.4756 168.938 55.4087 168.938 55.3391C168.938 55.2474 168.915 55.1614 168.871 55.0812C168.828 55.0009 168.767 54.936 168.69 54.8863C168.614 54.8366 168.526 54.8118 168.429 54.8118Z" fill="#222C3A"/>
<path d="M7.57812 1.08038V49.8944" stroke="#222C3A" stroke-width="0.269033"/>
<path d="M5.96094 49.894H7.57458" stroke="#222C3A" stroke-width="0.269033"/>
<path d="M3.43644 50.5648C3.26371 50.5648 3.11658 50.5178 2.99506 50.4238C2.87353 50.329 2.78067 50.1918 2.71647 50.0122C2.65227 49.8319 2.62017 49.614 2.62017 49.3588C2.62017 49.105 2.65227 48.8883 2.71647 48.7087C2.78144 48.5283 2.87468 48.3908 2.9962 48.296C3.11849 48.2005 3.26524 48.1527 3.43644 48.1527C3.60764 48.1527 3.75401 48.2005 3.87553 48.296C3.99782 48.3908 4.09106 48.5283 4.15526 48.7087C4.22023 48.8883 4.25271 49.105 4.25271 49.3588C4.25271 49.614 4.22061 49.8319 4.15641 50.0122C4.09221 50.1918 3.99934 50.329 3.87782 50.4238C3.7563 50.5178 3.60917 50.5648 3.43644 50.5648ZM3.43644 50.3126C3.60764 50.3126 3.74063 50.2301 3.8354 50.065C3.93018 49.8999 3.97756 49.6645 3.97756 49.3588C3.97756 49.1555 3.95578 48.9823 3.91221 48.8394C3.86941 48.6965 3.80751 48.5876 3.72649 48.5127C3.64624 48.4378 3.54956 48.4003 3.43644 48.4003C3.26677 48.4003 3.13416 48.484 3.03862 48.6514C2.94309 48.818 2.89532 49.0538 2.89532 49.3588C2.89532 49.5621 2.91672 49.7348 2.95952 49.8769C3.00232 50.0191 3.06384 50.1273 3.1441 50.2014C3.22511 50.2755 3.32256 50.3126 3.43644 50.3126Z" fill="#222C3A"/>
<path d="M5.96094 37.6901H7.57458" stroke="#222C3A" stroke-width="0.269033"/>
<path d="M3.42612 38.3609C3.27479 38.3609 3.13989 38.3349 3.02143 38.2829C2.90372 38.231 2.8101 38.1587 2.74055 38.0663C2.67176 37.973 2.63431 37.8649 2.62819 37.7418H2.9171C2.92321 37.8175 2.9492 37.8828 2.99506 37.9379C3.04092 37.9921 3.10091 38.0342 3.17505 38.064C3.24919 38.0938 3.33135 38.1087 3.42154 38.1087C3.52242 38.1087 3.61185 38.0911 3.6898 38.0559C3.76776 38.0208 3.82891 37.9719 3.87324 37.9092C3.91756 37.8465 3.93973 37.7739 3.93973 37.6914C3.93973 37.605 3.91833 37.529 3.87553 37.4632C3.83273 37.3967 3.77006 37.3448 3.68751 37.3073C3.60497 37.2699 3.50408 37.2511 3.38485 37.2511H3.19683V36.9989H3.38485C3.47809 36.9989 3.55987 36.9821 3.63019 36.9485C3.70127 36.9148 3.75668 36.8675 3.79642 36.8063C3.83693 36.7452 3.85719 36.6733 3.85719 36.5908C3.85719 36.5113 3.83961 36.4421 3.80445 36.3833C3.76929 36.3244 3.71961 36.2786 3.65541 36.2457C3.59197 36.2128 3.51707 36.1964 3.43071 36.1964C3.34969 36.1964 3.27326 36.2113 3.20142 36.2411C3.13034 36.2702 3.07225 36.3126 3.02716 36.3684C2.98206 36.4234 2.95761 36.4899 2.95379 36.5679H2.67864C2.68322 36.4448 2.72029 36.337 2.78984 36.2446C2.85939 36.1513 2.95035 36.0787 3.0627 36.0267C3.17581 35.9748 3.30001 35.9488 3.43529 35.9488C3.58051 35.9488 3.70509 35.9782 3.80903 36.037C3.91298 36.0951 3.99285 36.1719 4.04864 36.2675C4.10444 36.363 4.13233 36.4662 4.13233 36.577C4.13233 36.7092 4.09756 36.822 4.02801 36.9152C3.95922 37.0085 3.86559 37.0731 3.74713 37.109V37.1273C3.8954 37.1518 4.01119 37.2148 4.0945 37.3165C4.17781 37.4174 4.21946 37.5423 4.21946 37.6914C4.21946 37.819 4.18469 37.9337 4.11514 38.0353C4.04635 38.1362 3.95234 38.2157 3.83311 38.2738C3.71388 38.3319 3.57822 38.3609 3.42612 38.3609Z" fill="#222C3A"/>
<path d="M5.96094 25.4866H7.57458" stroke="#222C3A" stroke-width="0.269033"/>
<path d="M3.45335 26.1574C3.35705 26.1559 3.26075 26.1375 3.16445 26.1024C3.06814 26.0672 2.98025 26.008 2.90076 25.9247C2.82128 25.8406 2.75746 25.7271 2.70931 25.5842C2.66116 25.4405 2.63708 25.2601 2.63708 25.0431C2.63708 24.8352 2.65657 24.651 2.69555 24.4905C2.73453 24.3292 2.79109 24.1935 2.86522 24.0835C2.93936 23.9727 3.02878 23.8886 3.13349 23.8313C3.23896 23.7739 3.35781 23.7453 3.49004 23.7453C3.6215 23.7453 3.73843 23.7717 3.84085 23.8244C3.94403 23.8764 4.0281 23.949 4.09307 24.0422C4.15803 24.1355 4.20007 24.2428 4.21918 24.3644H3.93944C3.91346 24.2589 3.86301 24.1714 3.78811 24.1018C3.71321 24.0323 3.61385 23.9975 3.49004 23.9975C3.30813 23.9975 3.16483 24.0766 3.06012 24.2348C2.95617 24.393 2.90382 24.6151 2.90306 24.9009H2.9214C2.9642 24.8359 3.01502 24.7805 3.07388 24.7347C3.13349 24.688 3.19922 24.6521 3.27106 24.6269C3.34291 24.6017 3.41896 24.5891 3.49921 24.5891C3.63372 24.5891 3.75678 24.6227 3.86836 24.69C3.97995 24.7564 4.06937 24.8485 4.13663 24.9662C4.20389 25.0832 4.23752 25.2173 4.23752 25.3687C4.23752 25.5139 4.20504 25.6469 4.14007 25.7676C4.07511 25.8876 3.98377 25.9831 3.86607 26.0542C3.74913 26.1245 3.61156 26.1589 3.45335 26.1574ZM3.45335 25.9052C3.54965 25.9052 3.63602 25.8811 3.71245 25.833C3.78964 25.7848 3.8504 25.7202 3.89473 25.6392C3.93983 25.5582 3.96237 25.468 3.96237 25.3687C3.96237 25.2716 3.94059 25.1833 3.89702 25.1038C3.85422 25.0236 3.79499 24.9598 3.71933 24.9124C3.64442 24.865 3.55882 24.8413 3.46252 24.8413C3.38991 24.8413 3.32227 24.8558 3.2596 24.8848C3.19693 24.9131 3.1419 24.9521 3.09451 25.0018C3.04789 25.0515 3.0112 25.1084 2.98445 25.1726C2.9577 25.236 2.94433 25.3029 2.94433 25.3732C2.94433 25.4665 2.96611 25.5536 3.00967 25.6346C3.054 25.7156 3.11438 25.781 3.19081 25.8307C3.26801 25.8803 3.35552 25.9052 3.45335 25.9052Z" fill="#222C3A"/>
<path d="M5.96094 13.2829H7.57458" stroke="#222C3A" stroke-width="0.269033"/>
<path d="M3.42125 11.5416C3.51755 11.5424 3.61385 11.5607 3.71015 11.5966C3.80646 11.6326 3.89435 11.6922 3.97384 11.7755C4.05332 11.858 4.11714 11.9708 4.16529 12.1137C4.21344 12.2566 4.23752 12.4358 4.23752 12.6514C4.23752 12.86 4.21765 13.0454 4.1779 13.2074C4.13892 13.3687 4.08237 13.5047 4.00823 13.6155C3.93486 13.7264 3.84543 13.8104 3.73996 13.8677C3.63525 13.9251 3.51679 13.9537 3.38456 13.9537C3.2531 13.9537 3.13578 13.9277 3.0326 13.8758C2.93019 13.823 2.84612 13.75 2.78039 13.6568C2.71542 13.5628 2.67377 13.4539 2.65542 13.3301H2.93516C2.96038 13.4378 3.01044 13.5269 3.08534 13.5972C3.16101 13.6667 3.26075 13.7015 3.38456 13.7015C3.5657 13.7015 3.70863 13.6224 3.81333 13.4642C3.91881 13.306 3.97154 13.0824 3.97154 12.7935H3.9532C3.9104 12.8577 3.85957 12.9131 3.80072 12.9598C3.74187 13.0064 3.67652 13.0423 3.60468 13.0675C3.53284 13.0927 3.45641 13.1054 3.37539 13.1054C3.24087 13.1054 3.11744 13.0721 3.00509 13.0056C2.8935 12.9384 2.80408 12.8463 2.73682 12.7293C2.67033 12.6116 2.63708 12.4771 2.63708 12.3258C2.63708 12.1821 2.66918 12.0506 2.73338 11.9314C2.79835 11.8114 2.8893 11.7159 3.00624 11.6448C3.12394 11.5737 3.26228 11.5393 3.42125 11.5416ZM3.42125 11.7938C3.32495 11.7938 3.2382 11.8179 3.16101 11.8661C3.08458 11.9134 3.02381 11.9776 2.97872 12.0587C2.93439 12.1389 2.91223 12.2279 2.91223 12.3258C2.91223 12.4236 2.93363 12.5126 2.97643 12.5929C3.01999 12.6724 3.07923 12.7358 3.15413 12.7832C3.22979 12.8298 3.31578 12.8531 3.41208 12.8531C3.48469 12.8531 3.55233 12.839 3.615 12.8107C3.67767 12.7817 3.73232 12.7423 3.77894 12.6926C3.82633 12.6422 3.8634 12.5853 3.89015 12.5218C3.9169 12.4576 3.93027 12.3907 3.93027 12.3212C3.93027 12.2295 3.90811 12.1435 3.86378 12.0632C3.82021 11.983 3.75983 11.918 3.68264 11.8683C3.60621 11.8187 3.51908 11.7938 3.42125 11.7938Z" fill="#222C3A"/>
<path d="M5.95312 1.08038H7.56677" stroke="#222C3A" stroke-width="0.269033"/>
<path d="M1.71075 0.651833V2.99976H1.42644V0.949909H1.41268L0.839455 1.33053V1.04163L1.42644 0.651833H1.71075ZM2.38601 2.99976V2.7934L3.16101 1.94502C3.25196 1.84567 3.32686 1.7593 3.38571 1.68593C3.44456 1.61179 3.48813 1.54224 3.51641 1.47727C3.54545 1.41155 3.55997 1.34276 3.55997 1.27091C3.55997 1.18837 3.5401 1.11691 3.50036 1.05653C3.46138 0.996149 3.40788 0.949527 3.33986 0.916662C3.27183 0.883798 3.1954 0.867365 3.11057 0.867365C3.02038 0.867365 2.94166 0.88609 2.8744 0.923541C2.8079 0.960227 2.75631 1.01182 2.71963 1.07831C2.68371 1.14481 2.66574 1.22276 2.66574 1.31219H2.39518C2.39518 1.17461 2.4269 1.05385 2.49034 0.949909C2.55377 0.845965 2.64014 0.764949 2.74944 0.706863C2.85949 0.648776 2.98293 0.619733 3.11974 0.619733C3.25731 0.619733 3.37922 0.648776 3.48545 0.706863C3.59169 0.764949 3.675 0.84329 3.73538 0.941884C3.79576 1.04048 3.82595 1.15016 3.82595 1.27091C3.82595 1.35728 3.81028 1.44173 3.77894 1.52428C3.74837 1.60606 3.69487 1.69739 3.61844 1.79828C3.54278 1.8984 3.43769 2.02069 3.30317 2.16514L2.7758 2.72919V2.74754H3.86722V2.99976H2.38601Z" fill="#222C3A"/>
<path d="M7.57422 21.036L14.7417 27.4391C20.9053 32.9455 30.1583 33.1515 36.5609 27.925V27.925C41.6947 23.7342 48.8121 22.9525 54.7331 25.9291L61.183 29.1717L65.1894 30.3663C73.4628 32.8333 82.3854 29.7129 87.3182 22.6275L96.9222 8.83252L118.424 18.5232C122.058 20.161 126.099 20.6755 130.027 20.0008L147.5 17L168 49.5L132.661 49.5109H114.792H96.9222H79.0526H61.183H43.3134H25.4438H7.57422V21.036Z" fill="#0D0D0D" fill-opacity="0.4"/>
<path d="M7.5 12.5L14.6717 20.3305C20.8039 27.026 31.3102 27.1697 37.6233 20.6444L38.2573 19.9891C42.6629 15.4355 49.5125 14.2647 55.1803 17.0965V17.0965C59.4182 19.2139 64.4226 19.1304 68.5875 16.8729L84.3979 8.30317L88.9394 5.55674C94.5537 2.16149 101.476 1.73592 107.464 4.41791L119.602 9.85425C123.219 11.4743 127.235 11.9832 131.142 11.3164L133.752 10.871C142.636 9.35462 151.436 13.9673 155.244 22.1357L168 49.5L154.184 28.118C149.828 21.3773 141.865 17.893 133.959 19.268L128.162 20.2762C125.418 20.7535 122.604 20.6523 119.901 19.979L109.74 17.4481C102.471 15.6377 94.801 18.0403 89.8643 23.6734L88.2587 25.5056C82.9519 31.5611 74.5313 33.8438 66.8928 31.2976L61.5 29.5C61.5 29.5 53.4323 27.4831 47.7958 26.9489C44.9656 26.6806 42.3533 27.9237 40.1394 29.7072V29.7072C31.9557 36.2996 20.0304 35.2707 13.0968 27.3741L7.5 21V12.5Z" fill="#0D0D0D"/>
</g>
<defs>
<clipPath id="clip0_2486_81199">
<rect width="170" height="58" fill="white"/>
</clipPath>
</defs>
</svg>
