<svg width="170" height="50" viewBox="0 0 170 50" fill="none" xmlns="http://www.w3.org/2000/svg">
<g clip-path="url(#clip0_994_10737)">
<path d="M6.25488 0.933716V43.1262" stroke="black" stroke-width="0.173844"/>
<path d="M4.68848 43.1267H6.25308" stroke="black" stroke-width="0.173844"/>
<path d="M2.73207 43.1063C2.62045 43.1063 2.52538 43.0759 2.44685 43.0152C2.36833 42.954 2.30832 42.8653 2.26683 42.7492C2.22535 42.6327 2.20461 42.4919 2.20461 42.327C2.20461 42.163 2.22535 42.023 2.26683 41.9069C2.30881 41.7904 2.36907 41.7015 2.44759 41.6402C2.52661 41.5785 2.62144 41.5476 2.73207 41.5476C2.84269 41.5476 2.93727 41.5785 3.0158 41.6402C3.09482 41.7015 3.15507 41.7904 3.19656 41.9069C3.23854 42.023 3.25953 42.163 3.25953 42.327C3.25953 42.4919 3.23878 42.6327 3.1973 42.7492C3.15581 42.8653 3.09581 42.954 3.01728 43.0152C2.93875 43.0759 2.84368 43.1063 2.73207 43.1063ZM2.73207 42.9433C2.84269 42.9433 2.92863 42.89 2.98987 42.7833C3.05111 42.6766 3.08173 42.5245 3.08173 42.327C3.08173 42.1956 3.06766 42.0837 3.0395 41.9914C3.01185 41.899 2.97184 41.8287 2.91949 41.7803C2.86764 41.7319 2.80516 41.7077 2.73207 41.7077C2.62243 41.7077 2.53674 41.7617 2.475 41.8699C2.41327 41.9776 2.3824 42.1299 2.3824 42.327C2.3824 42.4583 2.39623 42.57 2.42389 42.6618C2.45154 42.7537 2.4913 42.8236 2.54316 42.8715C2.59551 42.9194 2.65848 42.9433 2.73207 42.9433Z" fill="black"/>
<path d="M4.68848 32.5778H6.25308" stroke="black" stroke-width="0.173844"/>
<path d="M2.7254 32.5574C2.62761 32.5574 2.54044 32.5406 2.46389 32.507C2.38783 32.4734 2.32733 32.4267 2.28239 32.367C2.23794 32.3067 2.21374 32.2368 2.20979 32.1573H2.39648C2.40043 32.2062 2.41722 32.2484 2.44685 32.284C2.47649 32.3191 2.51525 32.3462 2.56316 32.3655C2.61107 32.3848 2.66416 32.3944 2.72244 32.3944C2.78763 32.3944 2.84541 32.383 2.89579 32.3603C2.94616 32.3376 2.98567 32.306 3.01432 32.2655C3.04296 32.225 3.05728 32.1781 3.05728 32.1247C3.05728 32.0689 3.04346 32.0198 3.0158 31.9773C2.98814 31.9343 2.94764 31.9008 2.8943 31.8766C2.84097 31.8524 2.77577 31.8403 2.69873 31.8403H2.57724V31.6773H2.69873C2.75898 31.6773 2.81183 31.6664 2.85726 31.6447C2.90319 31.623 2.939 31.5923 2.96468 31.5528C2.99086 31.5133 3.00394 31.4669 3.00394 31.4135C3.00394 31.3622 2.99259 31.3175 2.96987 31.2795C2.94715 31.2414 2.91505 31.2118 2.87356 31.1906C2.83257 31.1693 2.78417 31.1587 2.72836 31.1587C2.67601 31.1587 2.62662 31.1683 2.5802 31.1876C2.53427 31.2064 2.49673 31.2338 2.4676 31.2698C2.43846 31.3054 2.42265 31.3484 2.42018 31.3987H2.24239C2.24535 31.3192 2.2693 31.2496 2.31425 31.1898C2.35919 31.1296 2.41796 31.0826 2.49056 31.0491C2.56365 31.0155 2.64391 30.9987 2.73133 30.9987C2.82516 30.9987 2.90566 31.0177 2.97283 31.0557C3.04 31.0933 3.09161 31.1429 3.12766 31.2046C3.16371 31.2664 3.18174 31.333 3.18174 31.4047C3.18174 31.4901 3.15927 31.5629 3.11433 31.6232C3.06988 31.6835 3.00938 31.7252 2.93283 31.7484V31.7602C3.02864 31.7761 3.10346 31.8168 3.15729 31.8825C3.21113 31.9477 3.23804 32.0284 3.23804 32.1247C3.23804 32.2072 3.21557 32.2813 3.17063 32.347C3.12618 32.4122 3.06543 32.4635 2.98839 32.5011C2.91134 32.5386 2.82368 32.5574 2.7254 32.5574Z" fill="black"/>
<path d="M4.68848 22.03H6.25308" stroke="black" stroke-width="0.173844"/>
<path d="M2.74299 22.0096C2.68076 22.0086 2.61854 21.9968 2.55631 21.9741C2.49408 21.9514 2.43728 21.9131 2.38592 21.8592C2.33456 21.8049 2.29332 21.7316 2.2622 21.6392C2.23109 21.5464 2.21553 21.4298 2.21553 21.2896C2.21553 21.1552 2.22813 21.0362 2.25332 20.9325C2.2785 20.8283 2.31505 20.7406 2.36296 20.6695C2.41086 20.5979 2.46865 20.5436 2.53631 20.5065C2.60446 20.4695 2.68126 20.451 2.7667 20.451C2.85165 20.451 2.92721 20.468 2.99339 20.5021C3.06006 20.5357 3.11439 20.5826 3.15637 20.6428C3.19835 20.7031 3.22551 20.7725 3.23786 20.851H3.0571C3.04031 20.7828 3.00771 20.7263 2.95931 20.6814C2.91091 20.6364 2.84671 20.6139 2.7667 20.6139C2.64916 20.6139 2.55655 20.6651 2.48889 20.7673C2.42173 20.8695 2.3879 21.013 2.3874 21.1977H2.39926C2.42691 21.1557 2.45976 21.1199 2.49778 21.0903C2.53631 21.0602 2.57878 21.0369 2.6252 21.0206C2.67163 21.0043 2.72077 20.9962 2.77263 20.9962C2.85955 20.9962 2.93906 21.0179 3.01117 21.0614C3.08327 21.1044 3.14106 21.1639 3.18452 21.2399C3.22798 21.3155 3.24971 21.4022 3.24971 21.5C3.24971 21.5938 3.22872 21.6797 3.18674 21.7578C3.14476 21.8353 3.08574 21.897 3.00969 21.943C2.93412 21.9884 2.84523 22.0106 2.74299 22.0096ZM2.74299 21.8467C2.80522 21.8467 2.86103 21.8311 2.91042 21.8C2.9603 21.7689 2.99956 21.7271 3.02821 21.6748C3.05735 21.6224 3.07191 21.5642 3.07191 21.5C3.07191 21.4372 3.05784 21.3802 3.02969 21.3288C3.00203 21.277 2.96376 21.2357 2.91486 21.2051C2.86646 21.1745 2.81115 21.1592 2.74892 21.1592C2.702 21.1592 2.65829 21.1686 2.6178 21.1873C2.5773 21.2056 2.54174 21.2308 2.51112 21.2629C2.48099 21.295 2.45729 21.3318 2.44 21.3733C2.42271 21.4143 2.41407 21.4575 2.41407 21.5029C2.41407 21.5632 2.42815 21.6195 2.4563 21.6718C2.48494 21.7242 2.52396 21.7664 2.57335 21.7985C2.62323 21.8306 2.67978 21.8467 2.74299 21.8467Z" fill="black"/>
<path d="M4.68848 11.4822H6.25308" stroke="black" stroke-width="0.173844"/>
<path d="M2.72225 9.90311C2.78448 9.9036 2.84671 9.91546 2.90894 9.93867C2.97116 9.96188 3.02796 10.0004 3.07932 10.0542C3.13069 10.1076 3.17192 10.1804 3.20304 10.2728C3.23415 10.3651 3.24971 10.4809 3.24971 10.6202C3.24971 10.755 3.23687 10.8748 3.21119 10.9795C3.186 11.0837 3.14945 11.1716 3.10155 11.2432C3.05414 11.3149 2.99635 11.3692 2.9282 11.4062C2.86054 11.4433 2.78398 11.4618 2.69854 11.4618C2.6136 11.4618 2.53779 11.445 2.47111 11.4114C2.40494 11.3773 2.35061 11.3302 2.30814 11.2699C2.26616 11.2092 2.23924 11.1388 2.22739 11.0588H2.40815C2.42444 11.1284 2.45679 11.186 2.50519 11.2314C2.55409 11.2763 2.61854 11.2988 2.69854 11.2988C2.81559 11.2988 2.90795 11.2477 2.97561 11.1455C3.04376 11.0432 3.07784 10.8988 3.07784 10.7121H3.06599C3.03833 10.7536 3.00549 10.7894 2.96746 10.8195C2.92943 10.8496 2.88721 10.8728 2.84078 10.8891C2.79436 10.9054 2.74497 10.9136 2.69262 10.9136C2.6057 10.9136 2.52593 10.8921 2.45333 10.8491C2.38123 10.8057 2.32345 10.7462 2.27998 10.6706C2.23702 10.5945 2.21553 10.5076 2.21553 10.4098C2.21553 10.317 2.23628 10.232 2.27776 10.155C2.31974 10.0774 2.37851 10.0157 2.45408 9.96978C2.53013 9.92385 2.61952 9.90163 2.72225 9.90311ZM2.72225 10.0661C2.66002 10.0661 2.60397 10.0816 2.55409 10.1128C2.5047 10.1434 2.46543 10.1849 2.4363 10.2372C2.40765 10.2891 2.39333 10.3466 2.39333 10.4098C2.39333 10.473 2.40716 10.5306 2.43481 10.5824C2.46297 10.6338 2.50124 10.6748 2.54964 10.7054C2.59853 10.7355 2.6541 10.7506 2.71632 10.7506C2.76324 10.7506 2.80695 10.7415 2.84745 10.7232C2.88795 10.7044 2.92326 10.679 2.95338 10.6469C2.984 10.6143 3.00796 10.5775 3.02524 10.5365C3.04253 10.495 3.05117 10.4518 3.05117 10.4069C3.05117 10.3476 3.03685 10.292 3.0082 10.2402C2.98005 10.1883 2.94104 10.1463 2.89116 10.1142C2.84177 10.0821 2.78547 10.0661 2.72225 10.0661Z" fill="black"/>
<path d="M4.68457 0.933716H6.24917" stroke="black" stroke-width="0.173844"/>
<path d="M1.84075 0.482812V2H1.65703V0.675424H1.64814L1.27774 0.921374V0.734689L1.65703 0.482812H1.84075ZM2.27709 2V1.86665L2.77788 1.31845C2.83666 1.25425 2.88506 1.19844 2.92308 1.15103C2.96111 1.10312 2.98926 1.05818 3.00754 1.0162C3.0263 0.973725 3.03569 0.929277 3.03569 0.882852C3.03569 0.829514 3.02285 0.783336 2.99717 0.74432C2.97198 0.705304 2.93741 0.675177 2.89345 0.653941C2.8495 0.632704 2.80011 0.622086 2.74529 0.622086C2.68701 0.622086 2.63614 0.634186 2.59268 0.658385C2.54971 0.682091 2.51638 0.715428 2.49267 0.758395C2.46946 0.801363 2.45785 0.851738 2.45785 0.909521H2.28302C2.28302 0.820624 2.30352 0.742591 2.34451 0.675424C2.3855 0.608257 2.44131 0.555906 2.51193 0.518372C2.58305 0.480837 2.66281 0.46207 2.75122 0.46207C2.84011 0.46207 2.91889 0.480837 2.98753 0.518372C3.05618 0.555906 3.11002 0.606528 3.14903 0.670238C3.18805 0.733949 3.20756 0.80482 3.20756 0.882852C3.20756 0.93866 3.19743 0.993234 3.17718 1.04657C3.15743 1.09942 3.12286 1.15844 3.07347 1.22363C3.02458 1.28832 2.95667 1.36734 2.86975 1.46069L2.52897 1.82517V1.83702H3.23423V2H2.27709Z" fill="black"/>
<path d="M4.68848 43.1862L168.971 43.1862" stroke="black" stroke-width="0.173844"/>
<path d="M6.18457 44.7764V43.1859" stroke="black" stroke-width="0.173844"/>
<path d="M5.5559 49.4282H5.27241L5.90939 47.6582H6.21794L6.85492 49.4282H6.57143L6.07101 47.9797H6.05718L5.5559 49.4282ZM5.60343 48.7351H6.52303L6.52303 48.9598H5.60343L5.60343 48.7351Z" fill="#111827"/>
<path d="M21.6846 44.7764V43.1859" stroke="black" stroke-width="0.173844"/>
<path d="M20.8048 49.4282L20.8048 47.6582H21.453C21.5786 47.6582 21.6826 47.6789 21.765 47.7204C21.8474 47.7613 21.9091 47.8169 21.95 47.8872C21.9909 47.9569 22.0114 48.0356 22.0114 48.1232C22.0114 48.1969 21.9978 48.2591 21.9707 48.3098C21.9437 48.36 21.9074 48.4003 21.8618 48.4308C21.8169 48.4608 21.7673 48.4827 21.7132 48.4965L21.7132 48.5138C21.7719 48.5167 21.8293 48.5357 21.8852 48.5709C21.9416 48.6054 21.9883 48.6547 22.0252 48.7186C22.0621 48.7826 22.0805 48.8604 22.0805 48.952C22.0805 49.0425 22.0592 49.1237 22.0165 49.1957C21.9745 49.2672 21.9094 49.3239 21.8212 49.366C21.7331 49.4075 21.6204 49.4282 21.4833 49.4282H20.8048ZM21.0719 49.1992H21.4573C21.5853 49.1992 21.6769 49.1744 21.7322 49.1249C21.7875 49.0753 21.8152 49.0134 21.8152 48.939C21.8152 48.8831 21.801 48.8319 21.7728 48.7852C21.7446 48.7385 21.7042 48.7014 21.6518 48.6737C21.6 48.646 21.5383 48.6322 21.4669 48.6322H21.0719L21.0719 49.1992ZM21.0719 48.4239H21.4297C21.4896 48.4239 21.5435 48.4124 21.5913 48.3894C21.6397 48.3663 21.678 48.334 21.7063 48.2926C21.7351 48.2505 21.7495 48.2009 21.7495 48.1439C21.7495 48.0707 21.7238 48.0094 21.6726 47.9598C21.6213 47.9103 21.5426 47.8855 21.4366 47.8855H21.0719L21.0719 48.4239Z" fill="#111827"/>
<path d="M37.1924 44.7764V43.1859" stroke="black" stroke-width="0.173844"/>
<path d="M37.6773 48.2338H37.4076C37.3973 48.1762 37.378 48.1255 37.3497 48.0817C37.3215 48.0379 37.2869 48.0007 37.246 47.9702C37.2051 47.9396 37.1593 47.9166 37.1086 47.901C37.0585 47.8855 37.0052 47.8777 36.9487 47.8777C36.8467 47.8777 36.7554 47.9033 36.6747 47.9546C36.5946 48.0059 36.5313 48.0811 36.4846 48.1802C36.4385 48.2793 36.4155 48.4003 36.4155 48.5432C36.4155 48.6872 36.4385 48.8088 36.4846 48.9079C36.5313 49.007 36.5949 49.0819 36.6756 49.1326C36.7563 49.1833 36.847 49.2087 36.9478 49.2087C37.0037 49.2087 37.0567 49.2012 37.1069 49.1862C37.1576 49.1707 37.2034 49.1479 37.2443 49.1179C37.2852 49.088 37.3198 49.0514 37.348 49.0082C37.3768 48.9644 37.3967 48.9143 37.4076 48.8578L37.6773 48.8587C37.6629 48.9457 37.635 49.0258 37.5935 49.0989C37.5526 49.1715 37.4998 49.2343 37.4353 49.2873C37.3713 49.3398 37.2982 49.3804 37.2158 49.4092C37.1334 49.438 37.0435 49.4524 36.9461 49.4524C36.7929 49.4524 36.6563 49.4161 36.5365 49.3435C36.4166 49.2703 36.3221 49.1658 36.253 49.0298C36.1844 48.8938 36.1501 48.7316 36.1501 48.5432C36.1501 48.3542 36.1847 48.192 36.2538 48.0566C36.323 47.9206 36.4175 47.8163 36.5373 47.7437C36.6572 47.6706 36.7934 47.634 36.9461 47.634C37.04 47.634 37.1276 47.6475 37.2089 47.6746C37.2907 47.7011 37.3641 47.7403 37.4293 47.7921C37.4944 47.8434 37.5482 47.9062 37.5909 47.9805C37.6335 48.0543 37.6623 48.1387 37.6773 48.2338Z" fill="#111827"/>
<path d="M52.6924 44.7764V43.1859" stroke="black" stroke-width="0.173844"/>
<path d="M52.6942 48.9181H52.1212L52.1212 47.148H52.7124C52.8858 47.148 53.0348 47.1835 53.1592 47.2543C53.2837 47.3246 53.379 47.4258 53.4453 47.5577C53.5121 47.6891 53.5456 47.8467 53.5456 48.0305C53.5456 48.2149 53.5119 48.3733 53.4444 48.5058C53.3776 48.6384 53.2808 48.7403 53.154 48.8118C53.0273 48.8827 52.874 48.9181 52.6942 48.9181ZM52.3883 48.6847H52.6795C52.8144 48.6847 52.9264 48.6594 53.0158 48.6087C53.1051 48.5574 53.1719 48.4834 53.2163 48.3866C53.2606 48.2892 53.2828 48.1705 53.2828 48.0305C53.2828 47.8916 53.2606 47.7738 53.2163 47.677C53.1725 47.5802 53.1071 47.5067 53.0201 47.4566C52.9331 47.4065 52.825 47.3814 52.696 47.3814H52.3883L52.3883 48.6847Z" fill="#111827"/>
<path d="M68.1963 44.7764V43.1859" stroke="black" stroke-width="0.173844"/>
<path d="M67.5197 48.9181L67.5197 47.148H68.6294L68.6294 47.3779H67.7867L67.7867 47.9173H68.5715L68.5715 48.1463H67.7867L67.7867 48.6882H68.6398L68.6398 48.9181H67.5197Z" fill="#111827"/>
<path d="M83.6963 44.7764V43.1859" stroke="black" stroke-width="0.173844"/>
<path d="M82.922 48.9181L82.922 47.148H84.0196L84.0196 47.3779H83.1891L83.1891 47.9173H83.941L83.941 48.1463H83.1891L83.1891 48.9181H82.922Z" fill="#111827"/>
<path d="M99.2041 44.7764V43.1859" stroke="black" stroke-width="0.173844"/>
<path d="M99.5183 47.7071C99.5016 47.6547 99.4792 47.6077 99.4509 47.5662C99.4233 47.5242 99.3901 47.4884 99.3515 47.4591C99.3129 47.4291 99.2688 47.4063 99.2193 47.3908C99.1703 47.3752 99.1164 47.3674 99.0577 47.3674C98.958 47.3674 98.8681 47.3931 98.788 47.4444C98.7079 47.4956 98.6445 47.5708 98.5979 47.6699C98.5518 47.7685 98.5287 47.8892 98.5287 48.0321C98.5287 48.1755 98.5521 48.2968 98.5987 48.3959C98.6454 48.495 98.7094 48.5702 98.7906 48.6215C98.8719 48.6728 98.9643 48.6984 99.068 48.6984C99.1643 48.6984 99.2481 48.6789 99.3196 48.6397C99.3916 48.6005 99.4472 48.5452 99.4864 48.4737C99.5261 48.4017 99.546 48.317 99.546 48.2196L99.6151 48.2326H99.1087L99.1087 48.0122H99.8044L99.8044 48.2136C99.8044 48.3622 99.7727 48.4913 99.7093 48.6008C99.6465 48.7097 99.5595 48.7938 99.4483 48.8531C99.3377 48.9125 99.2109 48.9422 99.068 48.9422C98.9079 48.9422 98.7673 48.9053 98.6463 48.8315C98.5259 48.7578 98.4319 48.6532 98.3645 48.5178C98.2971 48.3818 98.2634 48.2205 98.2634 48.0338C98.2634 47.8926 98.283 47.7659 98.3222 47.6535C98.3613 47.5412 98.4164 47.4458 98.4872 47.3674C98.5587 47.2885 98.6425 47.2283 98.7388 47.1868C98.8356 47.1447 98.9413 47.1237 99.0559 47.1237C99.1516 47.1237 99.2406 47.1378 99.323 47.1661C99.406 47.1943 99.4797 47.2343 99.5443 47.2862C99.6094 47.3381 99.6632 47.3997 99.7059 47.4712C99.7485 47.542 99.7773 47.6207 99.7923 47.7071H99.5183Z" fill="#111827"/>
<path d="M114.712 44.7764V43.1859" stroke="black" stroke-width="0.173844"/>
<path d="M113.723 48.9181L113.723 47.148H113.99L113.99 47.9173H114.872L114.872 47.148H115.14L115.14 48.9181H114.872L114.872 48.1463H113.99L113.99 48.9181H113.723Z" fill="#111827"/>
<path d="M130.216 44.7764V43.1859" stroke="black" stroke-width="0.173844"/>
<path d="M129.392 47.148L129.392 48.9181H129.125L129.125 47.148H129.392Z" fill="#111827"/>
<path d="M145.724 44.7764V43.1859" stroke="black" stroke-width="0.173844"/>
<path d="M145.727 47.6582H145.993L145.993 48.9131C145.993 49.0266 145.971 49.1237 145.926 49.2044C145.882 49.285 145.819 49.3467 145.738 49.3893C145.658 49.4314 145.563 49.4524 145.455 49.4524C145.355 49.4524 145.266 49.4343 145.186 49.398C145.107 49.3617 145.045 49.309 144.999 49.2398C144.953 49.1701 144.93 49.0854 144.93 48.9857H145.196C145.196 49.0347 145.207 49.077 145.229 49.1128C145.252 49.1485 145.284 49.1764 145.324 49.1966C145.364 49.2162 145.41 49.226 145.462 49.226C145.518 49.226 145.566 49.2142 145.605 49.1905C145.645 49.1663 145.675 49.1309 145.696 49.0842C145.717 49.0376 145.727 48.9805 145.727 48.9131L145.727 47.6582Z" fill="#111827"/>
<path d="M161.224 44.7764V43.1859" stroke="black" stroke-width="0.173844"/>
<path d="M160.438 49.4282L160.438 47.6582H160.705L160.705 48.5034H160.726L161.469 47.6582H161.805L161.091 48.455L161.808 49.4282H161.486L160.914 48.6374L160.705 48.8777L160.705 49.4282H160.438Z" fill="#111827"/>
<path d="M21.5166 25.9879H37.0647V18.1425H52.6128V21.0845H68.1608V15.2004H83.7089V25.9879H99.257V21.0845H114.805V23.5362H130.353V7.84534H145.4V13.7294H160.948V17.1618" stroke="black"/>
</g>
<defs>
<clipPath id="clip0_994_10737">
<rect width="169.998" height="50" fill="white" transform="translate(0.000976562)"/>
</clipPath>
</defs>
</svg>
