<svg width="148" height="94" viewBox="0 0 148 94" fill="none" xmlns="http://www.w3.org/2000/svg">
<path d="M20.1963 86.9576V88.4886" stroke="#D9D9D9" stroke-width="0.306189"/>
<path d="M57.9502 86.9576V88.4886" stroke="#D9D9D9" stroke-width="0.306189"/>
<path d="M95.3975 86.9576V88.4886" stroke="#D9D9D9" stroke-width="0.306189"/>
<path d="M133.151 86.9576V88.4886" stroke="#D9D9D9" stroke-width="0.306189"/>
<path d="M7.68089 87.5447C7.48431 87.5447 7.31686 87.4912 7.17855 87.3842C7.04024 87.2763 6.93456 87.1202 6.86149 86.9157C6.78842 86.7105 6.75189 86.4626 6.75189 86.172C6.75189 85.8832 6.78842 85.6366 6.86149 85.4322C6.93543 85.2269 7.04155 85.0703 7.17986 84.9625C7.31903 84.8538 7.48605 84.7994 7.68089 84.7994C7.87574 84.7994 8.04232 84.8538 8.18062 84.9625C8.3198 85.0703 8.42592 85.2269 8.49899 85.4322C8.57293 85.6366 8.6099 85.8832 8.6099 86.172C8.6099 86.4626 8.57336 86.7105 8.5003 86.9157C8.42723 87.1202 8.32154 87.2763 8.18323 87.3842C8.04493 87.4912 7.87748 87.5447 7.68089 87.5447ZM7.68089 87.2576C7.87574 87.2576 8.0271 87.1637 8.13496 86.9758C8.24282 86.7879 8.29675 86.52 8.29675 86.172C8.29675 85.9406 8.27196 85.7436 8.22238 85.581C8.17367 85.4183 8.10321 85.2943 8.011 85.2091C7.91967 85.1238 7.80963 85.0812 7.68089 85.0812C7.48779 85.0812 7.33687 85.1765 7.22813 85.367C7.1194 85.5566 7.06504 85.8249 7.06504 86.172C7.06504 86.4034 7.08939 86.6 7.1381 86.7618C7.18682 86.9236 7.25684 87.0467 7.34817 87.131C7.44038 87.2154 7.55128 87.2576 7.68089 87.2576Z" fill="#222C3A"/>
<path d="M2.4728 70.643C2.30057 70.643 2.14704 70.6134 2.01221 70.5543C1.87825 70.4951 1.7717 70.4129 1.69254 70.3077C1.61425 70.2015 1.57163 70.0784 1.56467 69.9384H1.89348C1.90044 70.0245 1.93001 70.0989 1.9822 70.1615C2.03439 70.2233 2.10268 70.2711 2.18705 70.305C2.27143 70.339 2.36494 70.3559 2.46758 70.3559C2.5824 70.3559 2.68417 70.3359 2.7729 70.2959C2.86163 70.2559 2.93121 70.2002 2.98167 70.1289C3.03212 70.0576 3.05734 69.9749 3.05734 69.881C3.05734 69.7827 3.03299 69.6961 2.98427 69.6213C2.93556 69.5457 2.86423 69.4865 2.77029 69.4439C2.67635 69.4013 2.56153 69.3799 2.42583 69.3799H2.21184V69.0929H2.42583C2.53195 69.0929 2.62502 69.0738 2.70505 69.0355C2.78595 68.9972 2.84901 68.9433 2.89424 68.8737C2.94035 68.8041 2.9634 68.7223 2.9634 68.6284C2.9634 68.5379 2.94339 68.4592 2.90338 68.3922C2.86336 68.3253 2.80682 68.2731 2.73376 68.2357C2.66156 68.1983 2.57631 68.1795 2.47802 68.1795C2.38581 68.1795 2.29883 68.1965 2.21706 68.2304C2.13617 68.2635 2.07006 68.3118 2.01874 68.3753C1.96741 68.4379 1.93958 68.5136 1.93523 68.6023H1.62208C1.6273 68.4623 1.66949 68.3396 1.74865 68.2344C1.8278 68.1282 1.93132 68.0456 2.05918 67.9864C2.18792 67.9273 2.32927 67.8977 2.48324 67.8977C2.64851 67.8977 2.7903 67.9312 2.9086 67.9982C3.0269 68.0643 3.1178 68.1517 3.1813 68.2604C3.2448 68.3692 3.27655 68.4866 3.27655 68.6127C3.27655 68.7632 3.23697 68.8915 3.15781 68.9976C3.07952 69.1038 2.97297 69.1773 2.83814 69.2182V69.239C3.00689 69.2669 3.13867 69.3386 3.23349 69.4543C3.3283 69.5691 3.37571 69.7114 3.37571 69.881C3.37571 70.0263 3.33613 70.1567 3.25697 70.2724C3.17869 70.3872 3.0717 70.4777 2.936 70.5438C2.8003 70.6099 2.6459 70.643 2.4728 70.643ZM4.78096 70.643C4.58437 70.643 4.41693 70.5895 4.27862 70.4825C4.14031 70.3746 4.03462 70.2185 3.96156 70.0141C3.88849 69.8088 3.85196 69.5609 3.85196 69.2703C3.85196 68.9816 3.88849 68.735 3.96156 68.5305C4.03549 68.3253 4.14162 68.1687 4.27992 68.0608C4.4191 67.9521 4.58611 67.8977 4.78096 67.8977C4.97581 67.8977 5.14239 67.9521 5.28069 68.0608C5.41987 68.1687 5.52599 68.3253 5.59906 68.5305C5.673 68.735 5.70997 68.9816 5.70997 69.2703C5.70997 69.5609 5.67343 69.8088 5.60036 70.0141C5.5273 70.2185 5.42161 70.3746 5.2833 70.4825C5.14499 70.5895 4.97755 70.643 4.78096 70.643ZM4.78096 70.3559C4.97581 70.3559 5.12716 70.262 5.23502 70.0741C5.34289 69.8862 5.39682 69.6183 5.39682 69.2703C5.39682 69.039 5.37203 68.8419 5.32245 68.6793C5.27373 68.5166 5.20327 68.3927 5.11107 68.3074C5.01974 68.2222 4.9097 68.1795 4.78096 68.1795C4.58785 68.1795 4.43693 68.2748 4.3282 68.4653C4.21947 68.6549 4.1651 68.9233 4.1651 69.2703C4.1651 69.5017 4.18946 69.6983 4.23817 69.8601C4.28688 70.0219 4.35691 70.145 4.44824 70.2294C4.54045 70.3137 4.65135 70.3559 4.78096 70.3559ZM7.07738 70.643C6.88079 70.643 6.71334 70.5895 6.57504 70.4825C6.43673 70.3746 6.33104 70.2185 6.25797 70.0141C6.18491 69.8088 6.14837 69.5609 6.14837 69.2703C6.14837 68.9816 6.18491 68.735 6.25797 68.5305C6.33191 68.3253 6.43803 68.1687 6.57634 68.0608C6.71552 67.9521 6.88253 67.8977 7.07738 67.8977C7.27222 67.8977 7.4388 67.9521 7.57711 68.0608C7.71629 68.1687 7.82241 68.3253 7.89548 68.5305C7.96941 68.735 8.00638 68.9816 8.00638 69.2703C8.00638 69.5609 7.96985 69.8088 7.89678 70.0141C7.82371 70.2185 7.71803 70.3746 7.57972 70.4825C7.44141 70.5895 7.27396 70.643 7.07738 70.643ZM7.07738 70.3559C7.27222 70.3559 7.42358 70.262 7.53144 70.0741C7.6393 69.8862 7.69323 69.6183 7.69323 69.2703C7.69323 69.039 7.66844 68.8419 7.61886 68.6793C7.57015 68.5166 7.49969 68.3927 7.40749 68.3074C7.31615 68.2222 7.20612 68.1795 7.07738 68.1795C6.88427 68.1795 6.73335 68.2748 6.62462 68.4653C6.51589 68.6549 6.46152 68.9233 6.46152 69.2703C6.46152 69.5017 6.48588 69.6983 6.53459 69.8601C6.5833 70.0219 6.65332 70.145 6.74466 70.2294C6.83686 70.3137 6.94777 70.3559 7.07738 70.3559Z" fill="#222C3A"/>
<path d="M2.50379 53.7414C2.39419 53.7397 2.28459 53.7188 2.17498 53.6788C2.06538 53.6388 1.96535 53.5714 1.87488 53.4766C1.78442 53.3809 1.71179 53.2517 1.65699 53.089C1.60218 52.9255 1.57478 52.7202 1.57478 52.4732C1.57478 52.2366 1.59697 52.0269 1.64133 51.8443C1.68569 51.6607 1.75006 51.5063 1.83444 51.3811C1.91881 51.2549 2.02058 51.1593 2.13975 51.094C2.25979 51.0288 2.39506 50.9962 2.54554 50.9962C2.69516 50.9962 2.82824 51.0262 2.94481 51.0862C3.06224 51.1453 3.15792 51.228 3.23186 51.3341C3.3058 51.4402 3.35364 51.5624 3.37538 51.7007H3.05702C3.02744 51.5807 2.97003 51.4811 2.88479 51.402C2.79954 51.3228 2.68646 51.2832 2.54554 51.2832C2.33852 51.2832 2.17542 51.3732 2.05625 51.5533C1.93795 51.7334 1.87836 51.9861 1.87749 52.3114H1.89837C1.94708 52.2374 2.00493 52.1744 2.07191 52.1222C2.13975 52.0691 2.21456 52.0282 2.29633 51.9995C2.37809 51.9708 2.46465 51.9565 2.55598 51.9565C2.70907 51.9565 2.84912 51.9948 2.97612 52.0713C3.10312 52.147 3.20489 52.2518 3.28144 52.3858C3.35799 52.5188 3.39626 52.6715 3.39626 52.8437C3.39626 53.009 3.35929 53.1604 3.28535 53.2978C3.21142 53.4344 3.10747 53.5431 2.97351 53.624C2.84042 53.704 2.68385 53.7432 2.50379 53.7414ZM2.50379 53.4544C2.61339 53.4544 2.71168 53.427 2.79867 53.3722C2.88653 53.3174 2.95568 53.2439 3.00613 53.1517C3.05745 53.0595 3.08311 52.9568 3.08311 52.8437C3.08311 52.7333 3.05832 52.6328 3.00874 52.5423C2.96003 52.451 2.89261 52.3784 2.8065 52.3244C2.72125 52.2705 2.62383 52.2435 2.51423 52.2435C2.43159 52.2435 2.35461 52.2601 2.28328 52.2931C2.21195 52.3253 2.14932 52.3697 2.09539 52.4262C2.04233 52.4827 2.00058 52.5476 1.97013 52.6206C1.93969 52.6928 1.92447 52.7689 1.92447 52.849C1.92447 52.9551 1.94926 53.0542 1.99884 53.1464C2.04929 53.2387 2.11801 53.313 2.20499 53.3696C2.29285 53.4261 2.39245 53.4544 2.50379 53.4544ZM4.78096 53.7414C4.58437 53.7414 4.41693 53.6879 4.27862 53.5809C4.14031 53.4731 4.03462 53.3169 3.96156 53.1125C3.88849 52.9072 3.85196 52.6593 3.85196 52.3688C3.85196 52.08 3.88849 51.8334 3.96156 51.629C4.03549 51.4237 4.14162 51.2671 4.27992 51.1593C4.4191 51.0505 4.58611 50.9962 4.78096 50.9962C4.97581 50.9962 5.14239 51.0505 5.28069 51.1593C5.41987 51.2671 5.52599 51.4237 5.59906 51.629C5.673 51.8334 5.70997 52.08 5.70997 52.3688C5.70997 52.6593 5.67343 52.9072 5.60036 53.1125C5.5273 53.3169 5.42161 53.4731 5.2833 53.5809C5.14499 53.6879 4.97755 53.7414 4.78096 53.7414ZM4.78096 53.4544C4.97581 53.4544 5.12716 53.3604 5.23502 53.1725C5.34289 52.9847 5.39682 52.7167 5.39682 52.3688C5.39682 52.1374 5.37203 51.9404 5.32245 51.7777C5.27373 51.6151 5.20327 51.4911 5.11107 51.4059C5.01974 51.3206 4.9097 51.278 4.78096 51.278C4.58785 51.278 4.43693 51.3732 4.3282 51.5637C4.21947 51.7534 4.1651 52.0217 4.1651 52.3688C4.1651 52.6002 4.18946 52.7968 4.23817 52.9586C4.28688 53.1204 4.35691 53.2434 4.44824 53.3278C4.54045 53.4122 4.65135 53.4544 4.78096 53.4544ZM7.07738 53.7414C6.88079 53.7414 6.71334 53.6879 6.57504 53.5809C6.43673 53.4731 6.33104 53.3169 6.25797 53.1125C6.18491 52.9072 6.14837 52.6593 6.14837 52.3688C6.14837 52.08 6.18491 51.8334 6.25797 51.629C6.33191 51.4237 6.43803 51.2671 6.57634 51.1593C6.71552 51.0505 6.88253 50.9962 7.07738 50.9962C7.27222 50.9962 7.4388 51.0505 7.57711 51.1593C7.71629 51.2671 7.82241 51.4237 7.89548 51.629C7.96941 51.8334 8.00638 52.08 8.00638 52.3688C8.00638 52.6593 7.96985 52.9072 7.89678 53.1125C7.82371 53.3169 7.71803 53.4731 7.57972 53.5809C7.44141 53.6879 7.27396 53.7414 7.07738 53.7414ZM7.07738 53.4544C7.27222 53.4544 7.42358 53.3604 7.53144 53.1725C7.6393 52.9847 7.69323 52.7167 7.69323 52.3688C7.69323 52.1374 7.66844 51.9404 7.61886 51.7777C7.57015 51.6151 7.49969 51.4911 7.40749 51.4059C7.31615 51.3206 7.20612 51.278 7.07738 51.278C6.88427 51.278 6.73335 51.3732 6.62462 51.5637C6.51589 51.7534 6.46152 52.0217 6.46152 52.3688C6.46152 52.6002 6.48588 52.7968 6.53459 52.9586C6.5833 53.1204 6.65332 53.2434 6.74466 53.3278C6.83686 53.4122 6.94777 53.4544 7.07738 53.4544Z" fill="#222C3A"/>
<path d="M2.46725 34.0945C2.57686 34.0954 2.68646 34.1162 2.79606 34.1571C2.90566 34.198 3.0057 34.2659 3.09616 34.3607C3.18663 34.4546 3.25926 34.5829 3.31406 34.7456C3.36886 34.9082 3.39626 35.1122 3.39626 35.3575C3.39626 35.595 3.37364 35.8059 3.32841 35.9903C3.28405 36.1739 3.21968 36.3287 3.1353 36.4548C3.0518 36.581 2.95002 36.6767 2.82998 36.7419C2.71081 36.8071 2.57599 36.8398 2.4255 36.8398C2.27589 36.8398 2.14236 36.8102 2.02493 36.751C1.90837 36.691 1.81269 36.6079 1.73788 36.5018C1.66394 36.3948 1.61654 36.2709 1.59566 36.13H1.91403C1.94273 36.2526 1.99971 36.3539 2.08495 36.434C2.17107 36.5131 2.28459 36.5527 2.4255 36.5527C2.63166 36.5527 2.79432 36.4627 2.91349 36.2826C3.03353 36.1026 3.09355 35.8481 3.09355 35.5193H3.07267C3.02396 35.5924 2.96612 35.6554 2.89914 35.7085C2.83216 35.7616 2.75779 35.8025 2.67602 35.8312C2.59425 35.8599 2.50727 35.8742 2.41506 35.8742C2.26197 35.8742 2.12149 35.8364 1.99362 35.7607C1.86662 35.6842 1.76485 35.5793 1.6883 35.4462C1.61262 35.3123 1.57478 35.1592 1.57478 34.987C1.57478 34.8234 1.61132 34.6738 1.68439 34.5381C1.75832 34.4016 1.86184 34.2928 1.99492 34.2119C2.12888 34.131 2.28633 34.0919 2.46725 34.0945ZM2.46725 34.3815C2.35765 34.3815 2.25892 34.4089 2.17107 34.4637C2.08408 34.5177 2.01493 34.5907 1.96361 34.683C1.91316 34.7743 1.88793 34.8756 1.88793 34.987C1.88793 35.0983 1.91229 35.1996 1.961 35.291C2.01058 35.3814 2.07799 35.4536 2.16324 35.5076C2.24936 35.5606 2.34721 35.5872 2.45682 35.5872C2.53945 35.5872 2.61644 35.5711 2.68776 35.5389C2.75909 35.5058 2.82129 35.461 2.87435 35.4045C2.92828 35.3471 2.97047 35.2823 3.00091 35.2101C3.03136 35.137 3.04658 35.0609 3.04658 34.9817C3.04658 34.8774 3.02135 34.7795 2.9709 34.6882C2.92132 34.5968 2.8526 34.5229 2.76475 34.4664C2.67776 34.4098 2.5786 34.3815 2.46725 34.3815ZM4.78096 36.8398C4.58437 36.8398 4.41693 36.7863 4.27862 36.6793C4.14031 36.5714 4.03462 36.4153 3.96156 36.2109C3.88849 36.0056 3.85196 35.7577 3.85196 35.4671C3.85196 35.1783 3.88849 34.9317 3.96156 34.7273C4.03549 34.522 4.14162 34.3655 4.27992 34.2576C4.4191 34.1489 4.58611 34.0945 4.78096 34.0945C4.97581 34.0945 5.14239 34.1489 5.28069 34.2576C5.41987 34.3655 5.52599 34.522 5.59906 34.7273C5.673 34.9317 5.70997 35.1783 5.70997 35.4671C5.70997 35.7577 5.67343 36.0056 5.60036 36.2109C5.5273 36.4153 5.42161 36.5714 5.2833 36.6793C5.14499 36.7863 4.97755 36.8398 4.78096 36.8398ZM4.78096 36.5527C4.97581 36.5527 5.12716 36.4588 5.23502 36.2709C5.34289 36.083 5.39682 35.8151 5.39682 35.4671C5.39682 35.2357 5.37203 35.0387 5.32245 34.8761C5.27373 34.7134 5.20327 34.5894 5.11107 34.5042C5.01974 34.419 4.9097 34.3763 4.78096 34.3763C4.58785 34.3763 4.43693 34.4716 4.3282 34.6621C4.21947 34.8517 4.1651 35.1201 4.1651 35.4671C4.1651 35.6985 4.18946 35.8951 4.23817 36.0569C4.28688 36.2187 4.35691 36.3418 4.44824 36.4261C4.54045 36.5105 4.65135 36.5527 4.78096 36.5527ZM7.07738 36.8398C6.88079 36.8398 6.71334 36.7863 6.57504 36.6793C6.43673 36.5714 6.33104 36.4153 6.25797 36.2109C6.18491 36.0056 6.14837 35.7577 6.14837 35.4671C6.14837 35.1783 6.18491 34.9317 6.25797 34.7273C6.33191 34.522 6.43803 34.3655 6.57634 34.2576C6.71552 34.1489 6.88253 34.0945 7.07738 34.0945C7.27222 34.0945 7.4388 34.1489 7.57711 34.2576C7.71629 34.3655 7.82241 34.522 7.89548 34.7273C7.96941 34.9317 8.00638 35.1783 8.00638 35.4671C8.00638 35.7577 7.96985 36.0056 7.89678 36.2109C7.82371 36.4153 7.71803 36.5714 7.57972 36.6793C7.44141 36.7863 7.27396 36.8398 7.07738 36.8398ZM7.07738 36.5527C7.27222 36.5527 7.42358 36.4588 7.53144 36.2709C7.6393 36.083 7.69323 35.8151 7.69323 35.4671C7.69323 35.2357 7.66844 35.0387 7.61886 34.8761C7.57015 34.7134 7.49969 34.5894 7.40749 34.5042C7.31615 34.419 7.20612 34.3763 7.07738 34.3763C6.88427 34.3763 6.73335 34.4716 6.62462 34.6621C6.51589 34.8517 6.46152 35.1201 6.46152 35.4671C6.46152 35.6985 6.48588 35.8951 6.53459 36.0569C6.5833 36.2187 6.65332 36.3418 6.74466 36.4261C6.83686 36.5105 6.94777 36.5527 7.07738 36.5527Z" fill="#222C3A"/>
<path d="M1.38104 17.2295V19.9017H1.05745V17.5687H1.0418L0.389404 18.0019V17.6731L1.05745 17.2295H1.38104ZM2.14956 19.9017V19.6668L3.03159 18.7013C3.1351 18.5882 3.22035 18.4899 3.28733 18.4064C3.3543 18.322 3.40389 18.2429 3.43607 18.1689C3.46913 18.0941 3.48565 18.0158 3.48565 17.9341C3.48565 17.8401 3.46304 17.7588 3.4178 17.6901C3.37344 17.6213 3.31255 17.5683 3.23513 17.5309C3.15772 17.4935 3.07073 17.4748 2.97418 17.4748C2.87154 17.4748 2.78194 17.4961 2.70539 17.5387C2.62972 17.5805 2.571 17.6392 2.52925 17.7149C2.48836 17.7905 2.46792 17.8793 2.46792 17.981H2.15999C2.15999 17.8245 2.19609 17.687 2.26829 17.5687C2.34049 17.4504 2.43878 17.3582 2.56317 17.2921C2.68843 17.226 2.82891 17.1929 2.98462 17.1929C3.14119 17.1929 3.27993 17.226 3.40084 17.2921C3.52175 17.3582 3.61657 17.4474 3.68528 17.5596C3.754 17.6718 3.78836 17.7966 3.78836 17.9341C3.78836 18.0324 3.77053 18.1285 3.73487 18.2224C3.70007 18.3155 3.63918 18.4194 3.5522 18.5343C3.46608 18.6482 3.34648 18.7874 3.19338 18.9518L2.59318 19.5937V19.6146H3.83533V19.9017H2.14956ZM5.2458 19.9382C5.04922 19.9382 4.88177 19.8847 4.74346 19.7777C4.60516 19.6699 4.49947 19.5137 4.4264 19.3093C4.35333 19.104 4.3168 18.8561 4.3168 18.5656C4.3168 18.2768 4.35333 18.0302 4.4264 17.8258C4.50034 17.6205 4.60646 17.4639 4.74477 17.356C4.88395 17.2473 5.05096 17.1929 5.2458 17.1929C5.44065 17.1929 5.60723 17.2473 5.74554 17.356C5.88471 17.4639 5.99084 17.6205 6.0639 17.8258C6.13784 18.0302 6.17481 18.2768 6.17481 18.5656C6.17481 18.8561 6.13828 19.104 6.06521 19.3093C5.99214 19.5137 5.88645 19.6699 5.74815 19.7777C5.60984 19.8847 5.44239 19.9382 5.2458 19.9382ZM5.2458 19.6512C5.44065 19.6512 5.59201 19.5572 5.69987 19.3693C5.80773 19.1814 5.86166 18.9135 5.86166 18.5656C5.86166 18.3342 5.83687 18.1372 5.78729 17.9745C5.73858 17.8118 5.66812 17.6879 5.57591 17.6026C5.48458 17.5174 5.37454 17.4748 5.2458 17.4748C5.0527 17.4748 4.90178 17.57 4.79305 17.7605C4.68431 17.9502 4.62995 18.2185 4.62995 18.5656C4.62995 18.797 4.6543 18.9935 4.70302 19.1553C4.75173 19.3171 4.82175 19.4402 4.91309 19.5246C5.00529 19.609 5.1162 19.6512 5.2458 19.6512ZM7.54222 19.9382C7.34563 19.9382 7.17819 19.8847 7.03988 19.7777C6.90157 19.6699 6.79589 19.5137 6.72282 19.3093C6.64975 19.104 6.61322 18.8561 6.61322 18.5656C6.61322 18.2768 6.64975 18.0302 6.72282 17.8258C6.79676 17.6205 6.90288 17.4639 7.04119 17.356C7.18036 17.2473 7.34737 17.1929 7.54222 17.1929C7.73707 17.1929 7.90365 17.2473 8.04195 17.356C8.18113 17.4639 8.28725 17.6205 8.36032 17.8258C8.43426 18.0302 8.47123 18.2768 8.47123 18.5656C8.47123 18.8561 8.43469 19.104 8.36162 19.3093C8.28856 19.5137 8.18287 19.6699 8.04456 19.7777C7.90626 19.8847 7.73881 19.9382 7.54222 19.9382ZM7.54222 19.6512C7.73707 19.6512 7.88842 19.5572 7.99629 19.3693C8.10415 19.1814 8.15808 18.9135 8.15808 18.5656C8.15808 18.3342 8.13329 18.1372 8.08371 17.9745C8.03499 17.8118 7.96454 17.6879 7.87233 17.6026C7.781 17.5174 7.67096 17.4748 7.54222 17.4748C7.34911 17.4748 7.19819 17.57 7.08946 17.7605C6.98073 17.9502 6.92636 18.2185 6.92636 18.5656C6.92636 18.797 6.95072 18.9935 6.99943 19.1553C7.04814 19.3171 7.11817 19.4402 7.2095 19.5246C7.30171 19.609 7.41261 19.6512 7.54222 19.6512Z" fill="#222C3A"/>
<path d="M1.37027 0.327806V3H1.04669V0.667049H1.03103L0.378639 1.10024V0.771432L1.04669 0.327806H1.37027ZM2.97385 3.03653C2.82076 3.03653 2.68289 3.00609 2.56024 2.9452C2.43759 2.88431 2.33929 2.8008 2.26535 2.69468C2.19142 2.58856 2.15097 2.46765 2.14401 2.33195H2.45716C2.46934 2.45286 2.52414 2.55289 2.62156 2.63205C2.71985 2.71034 2.83728 2.74948 2.97385 2.74948C3.08345 2.74948 3.18088 2.72382 3.26612 2.6725C3.35224 2.62118 3.41965 2.55072 3.46836 2.46112C3.51795 2.37066 3.54274 2.26845 3.54274 2.1545C3.54274 2.03794 3.51708 1.93399 3.46575 1.84266C3.4153 1.75045 3.34571 1.67782 3.25699 1.62476C3.16826 1.5717 3.06693 1.54473 2.95297 1.54386C2.87121 1.54299 2.78727 1.55561 2.70115 1.5817C2.61504 1.60693 2.54414 1.63955 2.48847 1.67956L2.18576 1.64303L2.34756 0.327806H3.73584V0.614858H2.61895L2.52501 1.40295H2.54066C2.59546 1.35945 2.66418 1.32335 2.74682 1.29465C2.82946 1.26594 2.91557 1.25159 3.00517 1.25159C3.1687 1.25159 3.3144 1.29073 3.44227 1.36902C3.57101 1.44644 3.67191 1.55256 3.74498 1.68739C3.81892 1.82222 3.85588 1.97618 3.85588 2.14928C3.85588 2.31977 3.81761 2.472 3.74106 2.60596C3.66539 2.73904 3.561 2.8443 3.42792 2.92171C3.29483 2.99826 3.14347 3.03653 2.97385 3.03653ZM5.2458 3.03653C5.04922 3.03653 4.88177 2.98304 4.74346 2.87605C4.60516 2.76818 4.49947 2.61204 4.4264 2.40763C4.35333 2.20234 4.3168 1.95443 4.3168 1.6639C4.3168 1.37511 4.35333 1.12851 4.4264 0.924091C4.50034 0.718805 4.60646 0.562231 4.74477 0.454369C4.88394 0.345638 5.05096 0.291272 5.2458 0.291272C5.44065 0.291272 5.60723 0.345638 5.74554 0.454369C5.88471 0.562231 5.99083 0.718805 6.0639 0.924091C6.13784 1.12851 6.17481 1.37511 6.17481 1.6639C6.17481 1.95443 6.13827 2.20234 6.06521 2.40763C5.99214 2.61204 5.88645 2.76818 5.74814 2.87605C5.60984 2.98304 5.44239 3.03653 5.2458 3.03653ZM5.2458 2.74948C5.44065 2.74948 5.59201 2.65554 5.69987 2.46765C5.80773 2.27976 5.86166 2.01184 5.86166 1.6639C5.86166 1.43252 5.83687 1.2355 5.78729 1.07284C5.73858 0.910173 5.66812 0.786219 5.57591 0.700973C5.48458 0.615728 5.37454 0.573105 5.2458 0.573105C5.0527 0.573105 4.90178 0.668354 4.79304 0.858852C4.68431 1.04848 4.62995 1.31683 4.62995 1.6639C4.62995 1.89528 4.6543 2.09187 4.70301 2.25366C4.75173 2.41546 4.82175 2.53854 4.91308 2.62292C5.00529 2.70729 5.1162 2.74948 5.2458 2.74948ZM7.54222 3.03653C7.34563 3.03653 7.17819 2.98304 7.03988 2.87605C6.90157 2.76818 6.79589 2.61204 6.72282 2.40763C6.64975 2.20234 6.61322 1.95443 6.61322 1.6639C6.61322 1.37511 6.64975 1.12851 6.72282 0.924091C6.79676 0.718805 6.90288 0.562231 7.04118 0.454369C7.18036 0.345638 7.34737 0.291272 7.54222 0.291272C7.73707 0.291272 7.90365 0.345638 8.04195 0.454369C8.18113 0.562231 8.28725 0.718805 8.36032 0.924091C8.43426 1.12851 8.47123 1.37511 8.47123 1.6639C8.47123 1.95443 8.43469 2.20234 8.36162 2.40763C8.28856 2.61204 8.18287 2.76818 8.04456 2.87605C7.90626 2.98304 7.73881 3.03653 7.54222 3.03653ZM7.54222 2.74948C7.73707 2.74948 7.88842 2.65554 7.99629 2.46765C8.10415 2.27976 8.15808 2.01184 8.15808 1.6639C8.15808 1.43252 8.13329 1.2355 8.08371 1.07284C8.03499 0.910173 7.96454 0.786219 7.87233 0.700973C7.781 0.615728 7.67096 0.573105 7.54222 0.573105C7.34911 0.573105 7.19819 0.668354 7.08946 0.858852C6.98073 1.04848 6.92636 1.31683 6.92636 1.6639C6.92636 1.89528 6.95072 2.09187 6.99943 2.25366C7.04814 2.41546 7.11817 2.53854 7.2095 2.62292C7.30171 2.70729 7.41261 2.74948 7.54222 2.74948Z" fill="#222C3A"/>
<path d="M10.0008 91.7948V91.5599L10.8829 90.5944C10.9864 90.4813 11.0716 90.383 11.1386 90.2995C11.2056 90.2151 11.2552 90.136 11.2873 90.062C11.3204 89.9872 11.3369 89.909 11.3369 89.8272C11.3369 89.7332 11.3143 89.6519 11.2691 89.5832C11.2247 89.5145 11.1638 89.4614 11.0864 89.424C11.009 89.3866 10.922 89.3679 10.8255 89.3679C10.7228 89.3679 10.6332 89.3892 10.5567 89.4318C10.481 89.4736 10.4223 89.5323 10.3805 89.608C10.3396 89.6837 10.3192 89.7724 10.3192 89.8742H10.0113C10.0113 89.7176 10.0474 89.5801 10.1196 89.4618C10.1918 89.3435 10.2901 89.2513 10.4144 89.1852C10.5397 89.1191 10.6802 89.0861 10.8359 89.0861C10.9925 89.0861 11.1312 89.1191 11.2521 89.1852C11.373 89.2513 11.4678 89.3405 11.5366 89.4527C11.6053 89.5649 11.6396 89.6898 11.6396 89.8272C11.6396 89.9255 11.6218 90.0216 11.5861 90.1155C11.5513 90.2086 11.4905 90.3126 11.4035 90.4274C11.3174 90.5413 11.1978 90.6805 11.0447 90.8449L10.4445 91.4869V91.5077H11.6866V91.7948H10.0008ZM13.0971 91.8313C12.9005 91.8313 12.733 91.7778 12.5947 91.6708C12.4564 91.563 12.3507 91.4068 12.2777 91.2024C12.2046 90.9971 12.1681 90.7492 12.1681 90.4587C12.1681 90.1699 12.2046 89.9233 12.2777 89.7189C12.3516 89.5136 12.4577 89.357 12.596 89.2492C12.7352 89.1404 12.9022 89.0861 13.0971 89.0861C13.2919 89.0861 13.4585 89.1404 13.5968 89.2492C13.736 89.357 13.8421 89.5136 13.9152 89.7189C13.9891 89.9233 14.0261 90.1699 14.0261 90.4587C14.0261 90.7492 13.9896 90.9971 13.9165 91.2024C13.8434 91.4068 13.7377 91.563 13.5994 91.6708C13.4611 91.7778 13.2937 91.8313 13.0971 91.8313ZM13.0971 91.5443C13.2919 91.5443 13.4433 91.4503 13.5511 91.2624C13.659 91.0746 13.7129 90.8066 13.7129 90.4587C13.7129 90.2273 13.6881 90.0303 13.6386 89.8676C13.5899 89.705 13.5194 89.581 13.4272 89.4958C13.3359 89.4105 13.2258 89.3679 13.0971 89.3679C12.904 89.3679 12.7531 89.4632 12.6443 89.6537C12.5356 89.8433 12.4812 90.1116 12.4812 90.4587C12.4812 90.6901 12.5056 90.8867 12.5543 91.0485C12.603 91.2103 12.673 91.3333 12.7644 91.4177C12.8566 91.5021 12.9675 91.5443 13.0971 91.5443ZM14.5219 91.7948V91.5599L15.4039 90.5944C15.5074 90.4813 15.5927 90.383 15.6597 90.2995C15.7267 90.2151 15.7762 90.136 15.8084 90.062C15.8415 89.9872 15.858 89.909 15.858 89.8272C15.858 89.7332 15.8354 89.6519 15.7902 89.5832C15.7458 89.5145 15.6849 89.4614 15.6075 89.424C15.5301 89.3866 15.4431 89.3679 15.3465 89.3679C15.2439 89.3679 15.1543 89.3892 15.0777 89.4318C15.0021 89.4736 14.9433 89.5323 14.9016 89.608C14.8607 89.6837 14.8403 89.7724 14.8403 89.8742H14.5323C14.5323 89.7176 14.5684 89.5801 14.6406 89.4618C14.7128 89.3435 14.8111 89.2513 14.9355 89.1852C15.0608 89.1191 15.2013 89.0861 15.357 89.0861C15.5135 89.0861 15.6523 89.1191 15.7732 89.1852C15.8941 89.2513 15.9889 89.3405 16.0576 89.4527C16.1264 89.5649 16.1607 89.6898 16.1607 89.8272C16.1607 89.9255 16.1429 90.0216 16.1072 90.1155C16.0724 90.2086 16.0115 90.3126 15.9245 90.4274C15.8384 90.5413 15.7188 90.6805 15.5657 90.8449L14.9655 91.4869V91.5077H16.2077V91.7948H14.5219ZM16.7466 91.7948V91.5599L17.6286 90.5944C17.7321 90.4813 17.8173 90.383 17.8843 90.2995C17.9513 90.2151 18.0009 90.136 18.0331 90.062C18.0661 89.9872 18.0827 89.909 18.0827 89.8272C18.0827 89.7332 18.06 89.6519 18.0148 89.5832C17.9704 89.5145 17.9096 89.4614 17.8321 89.424C17.7547 89.3866 17.6677 89.3679 17.5712 89.3679C17.4685 89.3679 17.3789 89.3892 17.3024 89.4318C17.2267 89.4736 17.168 89.5323 17.1262 89.608C17.0854 89.6837 17.0649 89.7724 17.0649 89.8742H16.757C16.757 89.7176 16.7931 89.5801 16.8653 89.4618C16.9375 89.3435 17.0358 89.2513 17.1602 89.1852C17.2854 89.1191 17.4259 89.0861 17.5816 89.0861C17.7382 89.0861 17.8769 89.1191 17.9978 89.1852C18.1188 89.2513 18.2136 89.3405 18.2823 89.4527C18.351 89.5649 18.3854 89.6898 18.3854 89.8272C18.3854 89.9255 18.3675 90.0216 18.3319 90.1155C18.2971 90.2086 18.2362 90.3126 18.1492 90.4274C18.0631 90.5413 17.9435 90.6805 17.7904 90.8449L17.1902 91.4869V91.5077H18.4323V91.7948H16.7466ZM20.1246 90.3152V90.6022H18.9556V90.3152H20.1246ZM21.5328 91.8313C21.3362 91.8313 21.1688 91.7778 21.0305 91.6708C20.8922 91.563 20.7865 91.4068 20.7134 91.2024C20.6404 90.9971 20.6038 90.7492 20.6038 90.4587C20.6038 90.1699 20.6404 89.9233 20.7134 89.7189C20.7874 89.5136 20.8935 89.357 21.0318 89.2492C21.171 89.1404 21.338 89.0861 21.5328 89.0861C21.7277 89.0861 21.8943 89.1404 22.0326 89.2492C22.1717 89.357 22.2779 89.5136 22.3509 89.7189C22.4249 89.9233 22.4618 90.1699 22.4618 90.4587C22.4618 90.7492 22.4253 90.9971 22.3522 91.2024C22.2792 91.4068 22.1735 91.563 22.0352 91.6708C21.8969 91.7778 21.7294 91.8313 21.5328 91.8313ZM21.5328 91.5443C21.7277 91.5443 21.879 91.4503 21.9869 91.2624C22.0948 91.0746 22.1487 90.8066 22.1487 90.4587C22.1487 90.2273 22.1239 90.0303 22.0743 89.8676C22.0256 89.705 21.9551 89.581 21.8629 89.4958C21.7716 89.4105 21.6616 89.3679 21.5328 89.3679C21.3397 89.3679 21.1888 89.4632 21.0801 89.6537C20.9713 89.8433 20.917 90.1116 20.917 90.4587C20.917 90.6901 20.9413 90.8867 20.99 91.0485C21.0387 91.2103 21.1088 91.3333 21.2001 91.4177C21.2923 91.5021 21.4032 91.5443 21.5328 91.5443ZM22.9694 91.7948L24.1646 89.4305V89.4097H22.7867V89.1226H24.4986V89.4253L23.3086 91.7948H22.9694ZM26.1384 90.3152V90.6022H24.9693V90.3152H26.1384ZM27.5466 91.8313C27.35 91.8313 27.1825 91.7778 27.0442 91.6708C26.9059 91.563 26.8002 91.4068 26.7272 91.2024C26.6541 90.9971 26.6176 90.7492 26.6176 90.4587C26.6176 90.1699 26.6541 89.9233 26.7272 89.7189C26.8011 89.5136 26.9072 89.357 27.0455 89.2492C27.1847 89.1404 27.3517 89.0861 27.5466 89.0861C27.7414 89.0861 27.908 89.1404 28.0463 89.2492C28.1855 89.357 28.2916 89.5136 28.3647 89.7189C28.4386 89.9233 28.4756 90.1699 28.4756 90.4587C28.4756 90.7492 28.439 90.9971 28.366 91.2024C28.2929 91.4068 28.1872 91.563 28.0489 91.6708C27.9106 91.7778 27.7432 91.8313 27.5466 91.8313ZM27.5466 91.5443C27.7414 91.5443 27.8928 91.4503 28.0006 91.2624C28.1085 91.0746 28.1624 90.8066 28.1624 90.4587C28.1624 90.2273 28.1376 90.0303 28.0881 89.8676C28.0393 89.705 27.9689 89.581 27.8767 89.4958C27.7853 89.4105 27.6753 89.3679 27.5466 89.3679C27.3535 89.3679 27.2025 89.4632 27.0938 89.6537C26.9851 89.8433 26.9307 90.1116 26.9307 90.4587C26.9307 90.6901 26.9551 90.8867 27.0038 91.0485C27.0525 91.2103 27.1225 91.3333 27.2138 91.4177C27.3061 91.5021 27.417 91.5443 27.5466 91.5443ZM29.9108 89.1226V91.7948H29.5872V89.4618H29.5716L28.9192 89.895V89.5662L29.5872 89.1226H29.9108Z" fill="#222C3A"/>
<path d="M47.5259 91.7948V91.5599L48.4079 90.5944C48.5114 90.4813 48.5967 90.383 48.6637 90.2995C48.7306 90.2151 48.7802 90.136 48.8124 90.062C48.8455 89.9872 48.862 89.909 48.862 89.8272C48.862 89.7332 48.8394 89.6519 48.7941 89.5832C48.7498 89.5145 48.6889 89.4614 48.6115 89.424C48.5341 89.3866 48.4471 89.3679 48.3505 89.3679C48.2479 89.3679 48.1583 89.3892 48.0817 89.4318C48.0061 89.4736 47.9473 89.5323 47.9056 89.608C47.8647 89.6837 47.8443 89.7724 47.8443 89.8742H47.5363C47.5363 89.7176 47.5724 89.5801 47.6446 89.4618C47.7168 89.3435 47.8151 89.2513 47.9395 89.1852C48.0648 89.1191 48.2053 89.0861 48.361 89.0861C48.5175 89.0861 48.6563 89.1191 48.7772 89.1852C48.8981 89.2513 48.9929 89.3405 49.0616 89.4527C49.1303 89.5649 49.1647 89.6898 49.1647 89.8272C49.1647 89.9255 49.1469 90.0216 49.1112 90.1155C49.0764 90.2086 49.0155 90.3126 48.9285 90.4274C48.8424 90.5413 48.7228 90.6805 48.5697 90.8449L47.9695 91.4869V91.5077H49.2117V91.7948H47.5259ZM50.6221 91.8313C50.4256 91.8313 50.2581 91.7778 50.1198 91.6708C49.9815 91.563 49.8758 91.4068 49.8027 91.2024C49.7297 90.9971 49.6931 90.7492 49.6931 90.4587C49.6931 90.1699 49.7297 89.9233 49.8027 89.7189C49.8767 89.5136 49.9828 89.357 50.1211 89.2492C50.2603 89.1404 50.4273 89.0861 50.6221 89.0861C50.817 89.0861 50.9836 89.1404 51.1219 89.2492C51.2611 89.357 51.3672 89.5136 51.4402 89.7189C51.5142 89.9233 51.5511 90.1699 51.5511 90.4587C51.5511 90.7492 51.5146 90.9971 51.4415 91.2024C51.3685 91.4068 51.2628 91.563 51.1245 91.6708C50.9862 91.7778 50.8187 91.8313 50.6221 91.8313ZM50.6221 91.5443C50.817 91.5443 50.9683 91.4503 51.0762 91.2624C51.1841 91.0746 51.238 90.8066 51.238 90.4587C51.238 90.2273 51.2132 90.0303 51.1636 89.8676C51.1149 89.705 51.0445 89.581 50.9523 89.4958C50.8609 89.4105 50.7509 89.3679 50.6221 89.3679C50.429 89.3679 50.2781 89.4632 50.1694 89.6537C50.0607 89.8433 50.0063 90.1116 50.0063 90.4587C50.0063 90.6901 50.0306 90.8867 50.0794 91.0485C50.1281 91.2103 50.1981 91.3333 50.2894 91.4177C50.3816 91.5021 50.4925 91.5443 50.6221 91.5443ZM52.047 91.7948V91.5599L52.929 90.5944C53.0325 90.4813 53.1178 90.383 53.1847 90.2995C53.2517 90.2151 53.3013 90.136 53.3335 90.062C53.3665 89.9872 53.3831 89.909 53.3831 89.8272C53.3831 89.7332 53.3604 89.6519 53.3152 89.5832C53.2709 89.5145 53.21 89.4614 53.1325 89.424C53.0551 89.3866 52.9681 89.3679 52.8716 89.3679C52.7689 89.3679 52.6794 89.3892 52.6028 89.4318C52.5271 89.4736 52.4684 89.5323 52.4267 89.608C52.3858 89.6837 52.3653 89.7724 52.3653 89.8742H52.0574C52.0574 89.7176 52.0935 89.5801 52.1657 89.4618C52.2379 89.3435 52.3362 89.2513 52.4606 89.1852C52.5858 89.1191 52.7263 89.0861 52.882 89.0861C53.0386 89.0861 53.1773 89.1191 53.2983 89.1852C53.4192 89.2513 53.514 89.3405 53.5827 89.4527C53.6514 89.5649 53.6858 89.6898 53.6858 89.8272C53.6858 89.9255 53.6679 90.0216 53.6323 90.1155C53.5975 90.2086 53.5366 90.3126 53.4496 90.4274C53.3635 90.5413 53.2439 90.6805 53.0908 90.8449L52.4906 91.4869V91.5077H53.7327V91.7948H52.047ZM54.2716 91.7948V91.5599L55.1537 90.5944C55.2572 90.4813 55.3424 90.383 55.4094 90.2995C55.4764 90.2151 55.526 90.136 55.5581 90.062C55.5912 89.9872 55.6077 89.909 55.6077 89.8272C55.6077 89.7332 55.5851 89.6519 55.5399 89.5832C55.4955 89.5145 55.4346 89.4614 55.3572 89.424C55.2798 89.3866 55.1928 89.3679 55.0962 89.3679C54.9936 89.3679 54.904 89.3892 54.8275 89.4318C54.7518 89.4736 54.6931 89.5323 54.6513 89.608C54.6104 89.6837 54.59 89.7724 54.59 89.8742H54.2821C54.2821 89.7176 54.3182 89.5801 54.3904 89.4618C54.4626 89.3435 54.5608 89.2513 54.6852 89.1852C54.8105 89.1191 54.951 89.0861 55.1067 89.0861C55.2633 89.0861 55.402 89.1191 55.5229 89.1852C55.6438 89.2513 55.7386 89.3405 55.8073 89.4527C55.8761 89.5649 55.9104 89.6898 55.9104 89.8272C55.9104 89.9255 55.8926 90.0216 55.8569 90.1155C55.8221 90.2086 55.7612 90.3126 55.6743 90.4274C55.5881 90.5413 55.4685 90.6805 55.3154 90.8449L54.7152 91.4869V91.5077H55.9574V91.7948H54.2716ZM57.6497 90.3152V90.6022H56.4806V90.3152H57.6497ZM59.0579 91.8313C58.8613 91.8313 58.6939 91.7778 58.5555 91.6708C58.4172 91.563 58.3116 91.4068 58.2385 91.2024C58.1654 90.9971 58.1289 90.7492 58.1289 90.4587C58.1289 90.1699 58.1654 89.9233 58.2385 89.7189C58.3124 89.5136 58.4185 89.357 58.5569 89.2492C58.696 89.1404 58.863 89.0861 59.0579 89.0861C59.2527 89.0861 59.4193 89.1404 59.5576 89.2492C59.6968 89.357 59.8029 89.5136 59.876 89.7189C59.9499 89.9233 59.9869 90.1699 59.9869 90.4587C59.9869 90.7492 59.9504 90.9971 59.8773 91.2024C59.8042 91.4068 59.6985 91.563 59.5602 91.6708C59.4219 91.7778 59.2545 91.8313 59.0579 91.8313ZM59.0579 91.5443C59.2527 91.5443 59.4041 91.4503 59.512 91.2624C59.6198 91.0746 59.6737 90.8066 59.6737 90.4587C59.6737 90.2273 59.649 90.0303 59.5994 89.8676C59.5507 89.705 59.4802 89.581 59.388 89.4958C59.2967 89.4105 59.1866 89.3679 59.0579 89.3679C58.8648 89.3679 58.7139 89.4632 58.6051 89.6537C58.4964 89.8433 58.442 90.1116 58.442 90.4587C58.442 90.6901 58.4664 90.8867 58.5151 91.0485C58.5638 91.2103 58.6338 91.3333 58.7252 91.4177C58.8174 91.5021 58.9283 91.5443 59.0579 91.5443ZM60.4945 91.7948L61.6896 89.4305V89.4097H60.3118V89.1226H62.0237V89.4253L60.8337 91.7948H60.4945ZM63.6634 90.3152V90.6022H62.4944V90.3152H63.6634ZM65.0716 91.8313C64.875 91.8313 64.7076 91.7778 64.5693 91.6708C64.431 91.563 64.3253 91.4068 64.2522 91.2024C64.1792 90.9971 64.1426 90.7492 64.1426 90.4587C64.1426 90.1699 64.1792 89.9233 64.2522 89.7189C64.3262 89.5136 64.4323 89.357 64.5706 89.2492C64.7098 89.1404 64.8768 89.0861 65.0716 89.0861C65.2665 89.0861 65.4331 89.1404 65.5714 89.2492C65.7105 89.357 65.8167 89.5136 65.8897 89.7189C65.9637 89.9233 66.0006 90.1699 66.0006 90.4587C66.0006 90.7492 65.9641 90.9971 65.891 91.2024C65.818 91.4068 65.7123 91.563 65.574 91.6708C65.4357 91.7778 65.2682 91.8313 65.0716 91.8313ZM65.0716 91.5443C65.2665 91.5443 65.4178 91.4503 65.5257 91.2624C65.6336 91.0746 65.6875 90.8066 65.6875 90.4587C65.6875 90.2273 65.6627 90.0303 65.6131 89.8676C65.5644 89.705 65.4939 89.581 65.4017 89.4958C65.3104 89.4105 65.2004 89.3679 65.0716 89.3679C64.8785 89.3679 64.7276 89.4632 64.6189 89.6537C64.5101 89.8433 64.4558 90.1116 64.4558 90.4587C64.4558 90.6901 64.4801 90.8867 64.5288 91.0485C64.5776 91.2103 64.6476 91.3333 64.7389 91.4177C64.8311 91.5021 64.942 91.5443 65.0716 91.5443ZM67.3994 91.8313C67.2271 91.8313 67.0736 91.8018 66.9388 91.7426C66.8048 91.6835 66.6983 91.6013 66.6191 91.496C66.5408 91.3899 66.4982 91.2668 66.4912 91.1268H66.82C66.827 91.2129 66.8566 91.2872 66.9088 91.3499C66.961 91.4116 67.0292 91.4595 67.1136 91.4934C67.198 91.5273 67.2915 91.5443 67.3941 91.5443C67.509 91.5443 67.6107 91.5243 67.6995 91.4843C67.7882 91.4442 67.8578 91.3886 67.9082 91.3172C67.9587 91.2459 67.9839 91.1633 67.9839 91.0693C67.9839 90.971 67.9595 90.8845 67.9108 90.8097C67.8621 90.734 67.7908 90.6749 67.6969 90.6322C67.6029 90.5896 67.4881 90.5683 67.3524 90.5683H67.1384V90.2813H67.3524C67.4585 90.2813 67.5516 90.2621 67.6316 90.2238C67.7125 90.1856 67.7756 90.1316 67.8208 90.062C67.8669 89.9925 67.89 89.9107 67.89 89.8167C67.89 89.7263 67.87 89.6476 67.8299 89.5806C67.7899 89.5136 67.7334 89.4614 67.6603 89.424C67.5881 89.3866 67.5029 89.3679 67.4046 89.3679C67.3124 89.3679 67.2254 89.3849 67.1436 89.4188C67.0627 89.4518 66.9966 89.5001 66.9453 89.5636C66.894 89.6263 66.8661 89.7019 66.8618 89.7907H66.5486C66.5539 89.6506 66.5961 89.528 66.6752 89.4227C66.7544 89.3166 66.8579 89.2339 66.9857 89.1748C67.1145 89.1156 67.2558 89.0861 67.4098 89.0861C67.5751 89.0861 67.7169 89.1196 67.8352 89.1865C67.9535 89.2526 68.0444 89.3401 68.1079 89.4488C68.1714 89.5575 68.2031 89.675 68.2031 89.8011C68.2031 89.9516 68.1635 90.0799 68.0844 90.186C68.0061 90.2921 67.8995 90.3656 67.7647 90.4065V90.4274C67.9335 90.4552 68.0652 90.527 68.1601 90.6427C68.2549 90.7575 68.3023 90.8997 68.3023 91.0693C68.3023 91.2146 68.2627 91.3451 68.1835 91.4608C68.1052 91.5756 67.9983 91.6661 67.8626 91.7322C67.7269 91.7983 67.5725 91.8313 67.3994 91.8313Z" fill="#222C3A"/>
<path d="M85.2293 91.7948V91.5599L86.1113 90.5944C86.2148 90.4813 86.3001 90.383 86.3671 90.2995C86.434 90.2151 86.4836 90.136 86.5158 90.062C86.5489 89.9872 86.5654 89.909 86.5654 89.8272C86.5654 89.7332 86.5428 89.6519 86.4975 89.5832C86.4532 89.5145 86.3923 89.4614 86.3149 89.424C86.2375 89.3866 86.1505 89.3679 86.0539 89.3679C85.9513 89.3679 85.8617 89.3892 85.7851 89.4318C85.7094 89.4736 85.6507 89.5323 85.609 89.608C85.5681 89.6837 85.5477 89.7724 85.5477 89.8742H85.2397C85.2397 89.7176 85.2758 89.5801 85.348 89.4618C85.4202 89.3435 85.5185 89.2513 85.6429 89.1852C85.7682 89.1191 85.9086 89.0861 86.0644 89.0861C86.2209 89.0861 86.3597 89.1191 86.4806 89.1852C86.6015 89.2513 86.6963 89.3405 86.765 89.4527C86.8337 89.5649 86.8681 89.6898 86.8681 89.8272C86.8681 89.9255 86.8503 90.0216 86.8146 90.1155C86.7798 90.2086 86.7189 90.3126 86.6319 90.4274C86.5458 90.5413 86.4262 90.6805 86.2731 90.8449L85.6729 91.4869V91.5077H86.9151V91.7948H85.2293ZM88.3255 91.8313C88.129 91.8313 87.9615 91.7778 87.8232 91.6708C87.6849 91.563 87.5792 91.4068 87.5061 91.2024C87.4331 90.9971 87.3965 90.7492 87.3965 90.4587C87.3965 90.1699 87.4331 89.9233 87.5061 89.7189C87.5801 89.5136 87.6862 89.357 87.8245 89.2492C87.9637 89.1404 88.1307 89.0861 88.3255 89.0861C88.5204 89.0861 88.687 89.1404 88.8253 89.2492C88.9644 89.357 89.0706 89.5136 89.1436 89.7189C89.2176 89.9233 89.2545 90.1699 89.2545 90.4587C89.2545 90.7492 89.218 90.9971 89.1449 91.2024C89.0719 91.4068 88.9662 91.563 88.8279 91.6708C88.6896 91.7778 88.5221 91.8313 88.3255 91.8313ZM88.3255 91.5443C88.5204 91.5443 88.6717 91.4503 88.7796 91.2624C88.8875 91.0746 88.9414 90.8066 88.9414 90.4587C88.9414 90.2273 88.9166 90.0303 88.867 89.8676C88.8183 89.705 88.7479 89.581 88.6556 89.4958C88.5643 89.4105 88.4543 89.3679 88.3255 89.3679C88.1324 89.3679 87.9815 89.4632 87.8728 89.6537C87.764 89.8433 87.7097 90.1116 87.7097 90.4587C87.7097 90.6901 87.734 90.8867 87.7827 91.0485C87.8315 91.2103 87.9015 91.3333 87.9928 91.4177C88.085 91.5021 88.1959 91.5443 88.3255 91.5443ZM89.7504 91.7948V91.5599L90.6324 90.5944C90.7359 90.4813 90.8212 90.383 90.8881 90.2995C90.9551 90.2151 91.0047 90.136 91.0369 90.062C91.0699 89.9872 91.0865 89.909 91.0865 89.8272C91.0865 89.7332 91.0638 89.6519 91.0186 89.5832C90.9742 89.5145 90.9134 89.4614 90.8359 89.424C90.7585 89.3866 90.6715 89.3679 90.575 89.3679C90.4723 89.3679 90.3827 89.3892 90.3062 89.4318C90.2305 89.4736 90.1718 89.5323 90.1301 89.608C90.0892 89.6837 90.0687 89.7724 90.0687 89.8742H89.7608C89.7608 89.7176 89.7969 89.5801 89.8691 89.4618C89.9413 89.3435 90.0396 89.2513 90.164 89.1852C90.2892 89.1191 90.4297 89.0861 90.5854 89.0861C90.742 89.0861 90.8807 89.1191 91.0016 89.1852C91.1226 89.2513 91.2174 89.3405 91.2861 89.4527C91.3548 89.5649 91.3892 89.6898 91.3892 89.8272C91.3892 89.9255 91.3713 90.0216 91.3357 90.1155C91.3009 90.2086 91.24 90.3126 91.153 90.4274C91.0669 90.5413 90.9473 90.6805 90.7942 90.8449L90.194 91.4869V91.5077H91.4361V91.7948H89.7504ZM91.975 91.7948V91.5599L92.857 90.5944C92.9606 90.4813 93.0458 90.383 93.1128 90.2995C93.1798 90.2151 93.2293 90.136 93.2615 90.062C93.2946 89.9872 93.3111 89.909 93.3111 89.8272C93.3111 89.7332 93.2885 89.6519 93.2433 89.5832C93.1989 89.5145 93.138 89.4614 93.0606 89.424C92.9832 89.3866 92.8962 89.3679 92.7996 89.3679C92.697 89.3679 92.6074 89.3892 92.5309 89.4318C92.4552 89.4736 92.3965 89.5323 92.3547 89.608C92.3138 89.6837 92.2934 89.7724 92.2934 89.8742H91.9855C91.9855 89.7176 92.0216 89.5801 92.0937 89.4618C92.1659 89.3435 92.2642 89.2513 92.3886 89.1852C92.5139 89.1191 92.6544 89.0861 92.8101 89.0861C92.9666 89.0861 93.1054 89.1191 93.2263 89.1852C93.3472 89.2513 93.442 89.3405 93.5107 89.4527C93.5795 89.5649 93.6138 89.6898 93.6138 89.8272C93.6138 89.9255 93.596 90.0216 93.5603 90.1155C93.5255 90.2086 93.4646 90.3126 93.3777 90.4274C93.2915 90.5413 93.1719 90.6805 93.0188 90.8449L92.4186 91.4869V91.5077H93.6608V91.7948H91.975ZM95.3531 90.3152V90.6022H94.184V90.3152H95.3531ZM96.7613 91.8313C96.5647 91.8313 96.3972 91.7778 96.2589 91.6708C96.1206 91.563 96.0149 91.4068 95.9419 91.2024C95.8688 90.9971 95.8323 90.7492 95.8323 90.4587C95.8323 90.1699 95.8688 89.9233 95.9419 89.7189C96.0158 89.5136 96.1219 89.357 96.2602 89.2492C96.3994 89.1404 96.5664 89.0861 96.7613 89.0861C96.9561 89.0861 97.1227 89.1404 97.261 89.2492C97.4002 89.357 97.5063 89.5136 97.5794 89.7189C97.6533 89.9233 97.6903 90.1699 97.6903 90.4587C97.6903 90.7492 97.6538 90.9971 97.5807 91.2024C97.5076 91.4068 97.4019 91.563 97.2636 91.6708C97.1253 91.7778 96.9579 91.8313 96.7613 91.8313ZM96.7613 91.5443C96.9561 91.5443 97.1075 91.4503 97.2153 91.2624C97.3232 91.0746 97.3771 90.8066 97.3771 90.4587C97.3771 90.2273 97.3523 90.0303 97.3028 89.8676C97.2541 89.705 97.1836 89.581 97.0914 89.4958C97.0001 89.4105 96.89 89.3679 96.7613 89.3679C96.5682 89.3679 96.4173 89.4632 96.3085 89.6537C96.1998 89.8433 96.1454 90.1116 96.1454 90.4587C96.1454 90.6901 96.1698 90.8867 96.2185 91.0485C96.2672 91.2103 96.3372 91.3333 96.4286 91.4177C96.5208 91.5021 96.6317 91.5443 96.7613 91.5443ZM98.1978 91.7948L99.393 89.4305V89.4097H98.0152V89.1226H99.7271V89.4253L98.5371 91.7948H98.1978ZM101.367 90.3152V90.6022H100.198V90.3152H101.367ZM102.775 91.8313C102.578 91.8313 102.411 91.7778 102.273 91.6708C102.134 91.563 102.029 91.4068 101.956 91.2024C101.883 90.9971 101.846 90.7492 101.846 90.4587C101.846 90.1699 101.883 89.9233 101.956 89.7189C102.03 89.5136 102.136 89.357 102.274 89.2492C102.413 89.1404 102.58 89.0861 102.775 89.0861C102.97 89.0861 103.136 89.1404 103.275 89.2492C103.414 89.357 103.52 89.5136 103.593 89.7189C103.667 89.9233 103.704 90.1699 103.704 90.4587C103.704 90.7492 103.667 90.9971 103.594 91.2024C103.521 91.4068 103.416 91.563 103.277 91.6708C103.139 91.7778 102.972 91.8313 102.775 91.8313ZM102.775 91.5443C102.97 91.5443 103.121 91.4503 103.229 91.2624C103.337 91.0746 103.391 90.8066 103.391 90.4587C103.391 90.2273 103.366 90.0303 103.317 89.8676C103.268 89.705 103.197 89.581 103.105 89.4958C103.014 89.4105 102.904 89.3679 102.775 89.3679C102.582 89.3679 102.431 89.4632 102.322 89.6537C102.214 89.8433 102.159 90.1116 102.159 90.4587C102.159 90.6901 102.184 90.8867 102.232 91.0485C102.281 91.2103 102.351 91.3333 102.442 91.4177C102.535 91.5021 102.645 91.5443 102.775 91.5443ZM105.035 91.8313C104.882 91.8313 104.744 91.8009 104.621 91.74C104.499 91.6791 104.4 91.5956 104.326 91.4895C104.252 91.3834 104.212 91.2624 104.205 91.1268H104.518C104.53 91.2477 104.585 91.3477 104.683 91.4269C104.781 91.5051 104.898 91.5443 105.035 91.5443C105.145 91.5443 105.242 91.5186 105.327 91.4673C105.413 91.416 105.481 91.3455 105.529 91.2559C105.579 91.1655 105.604 91.0633 105.604 90.9493C105.604 90.8327 105.578 90.7288 105.527 90.6375C105.476 90.5453 105.407 90.4726 105.318 90.4196C105.229 90.3665 105.128 90.3395 105.014 90.3387C104.932 90.3378 104.848 90.3504 104.762 90.3765C104.676 90.4017 104.605 90.4343 104.55 90.4744L104.247 90.4378L104.409 89.1226H105.797V89.4097H104.68L104.586 90.1977H104.602C104.657 90.1543 104.725 90.1182 104.808 90.0894C104.891 90.0607 104.977 90.0464 105.066 90.0464C105.23 90.0464 105.375 90.0855 105.503 90.1638C105.632 90.2412 105.733 90.3474 105.806 90.4822C105.88 90.617 105.917 90.771 105.917 90.9441C105.917 91.1146 105.879 91.2668 105.802 91.4008C105.726 91.5338 105.622 91.6391 105.489 91.7165C105.356 91.7931 105.205 91.8313 105.035 91.8313Z" fill="#222C3A"/>
<path d="M122.789 91.7948V91.5599L123.671 90.5944C123.775 90.4813 123.86 90.383 123.927 90.2995C123.994 90.2151 124.044 90.136 124.076 90.062C124.109 89.9872 124.125 89.909 124.125 89.8272C124.125 89.7332 124.103 89.6519 124.058 89.5832C124.013 89.5145 123.952 89.4614 123.875 89.424C123.798 89.3866 123.711 89.3679 123.614 89.3679C123.511 89.3679 123.422 89.3892 123.345 89.4318C123.27 89.4736 123.211 89.5323 123.169 89.608C123.128 89.6837 123.108 89.7724 123.108 89.8742H122.8C122.8 89.7176 122.836 89.5801 122.908 89.4618C122.98 89.3435 123.079 89.2513 123.203 89.1852C123.328 89.1191 123.469 89.0861 123.624 89.0861C123.781 89.0861 123.92 89.1191 124.041 89.1852C124.162 89.2513 124.256 89.3405 124.325 89.4527C124.394 89.5649 124.428 89.6898 124.428 89.8272C124.428 89.9255 124.41 90.0216 124.375 90.1155C124.34 90.2086 124.279 90.3126 124.192 90.4274C124.106 90.5413 123.986 90.6805 123.833 90.8449L123.233 91.4869V91.5077H124.475V91.7948H122.789ZM125.886 91.8313C125.689 91.8313 125.522 91.7778 125.383 91.6708C125.245 91.563 125.139 91.4068 125.066 91.2024C124.993 90.9971 124.957 90.7492 124.957 90.4587C124.957 90.1699 124.993 89.9233 125.066 89.7189C125.14 89.5136 125.246 89.357 125.385 89.2492C125.524 89.1404 125.691 89.0861 125.886 89.0861C126.08 89.0861 126.247 89.1404 126.385 89.2492C126.525 89.357 126.631 89.5136 126.704 89.7189C126.778 89.9233 126.815 90.1699 126.815 90.4587C126.815 90.7492 126.778 90.9971 126.705 91.2024C126.632 91.4068 126.526 91.563 126.388 91.6708C126.25 91.7778 126.082 91.8313 125.886 91.8313ZM125.886 91.5443C126.08 91.5443 126.232 91.4503 126.34 91.2624C126.448 91.0746 126.502 90.8066 126.502 90.4587C126.502 90.2273 126.477 90.0303 126.427 89.8676C126.378 89.705 126.308 89.581 126.216 89.4958C126.124 89.4105 126.014 89.3679 125.886 89.3679C125.693 89.3679 125.542 89.4632 125.433 89.6537C125.324 89.8433 125.27 90.1116 125.27 90.4587C125.27 90.6901 125.294 90.8867 125.343 91.0485C125.392 91.2103 125.462 91.3333 125.553 91.4177C125.645 91.5021 125.756 91.5443 125.886 91.5443ZM127.31 91.7948V91.5599L128.193 90.5944C128.296 90.4813 128.381 90.383 128.448 90.2995C128.515 90.2151 128.565 90.136 128.597 90.062C128.63 89.9872 128.647 89.909 128.647 89.8272C128.647 89.7332 128.624 89.6519 128.579 89.5832C128.534 89.5145 128.473 89.4614 128.396 89.424C128.319 89.3866 128.232 89.3679 128.135 89.3679C128.032 89.3679 127.943 89.3892 127.866 89.4318C127.791 89.4736 127.732 89.5323 127.69 89.608C127.649 89.6837 127.629 89.7724 127.629 89.8742H127.321C127.321 89.7176 127.357 89.5801 127.429 89.4618C127.501 89.3435 127.6 89.2513 127.724 89.1852C127.849 89.1191 127.99 89.0861 128.146 89.0861C128.302 89.0861 128.441 89.1191 128.562 89.1852C128.683 89.2513 128.777 89.3405 128.846 89.4527C128.915 89.5649 128.949 89.6898 128.949 89.8272C128.949 89.9255 128.931 90.0216 128.896 90.1155C128.861 90.2086 128.8 90.3126 128.713 90.4274C128.627 90.5413 128.507 90.6805 128.354 90.8449L127.754 91.4869V91.5077H128.996V91.7948H127.31ZM129.535 91.7948V91.5599L130.417 90.5944C130.521 90.4813 130.606 90.383 130.673 90.2995C130.74 90.2151 130.789 90.136 130.822 90.062C130.855 89.9872 130.871 89.909 130.871 89.8272C130.871 89.7332 130.849 89.6519 130.803 89.5832C130.759 89.5145 130.698 89.4614 130.621 89.424C130.543 89.3866 130.456 89.3679 130.36 89.3679C130.257 89.3679 130.168 89.3892 130.091 89.4318C130.015 89.4736 129.957 89.5323 129.915 89.608C129.874 89.6837 129.853 89.7724 129.853 89.8742H129.546C129.546 89.7176 129.582 89.5801 129.654 89.4618C129.726 89.3435 129.824 89.2513 129.949 89.1852C130.074 89.1191 130.214 89.0861 130.37 89.0861C130.527 89.0861 130.666 89.1191 130.786 89.1852C130.907 89.2513 131.002 89.3405 131.071 89.4527C131.14 89.5649 131.174 89.6898 131.174 89.8272C131.174 89.9255 131.156 90.0216 131.12 90.1155C131.086 90.2086 131.025 90.3126 130.938 90.4274C130.852 90.5413 130.732 90.6805 130.579 90.8449L129.979 91.4869V91.5077H131.221V91.7948H129.535ZM132.913 90.3152V90.6022H131.744V90.3152H132.913ZM134.321 91.8313C134.125 91.8313 133.957 91.7778 133.819 91.6708C133.681 91.563 133.575 91.4068 133.502 91.2024C133.429 90.9971 133.392 90.7492 133.392 90.4587C133.392 90.1699 133.429 89.9233 133.502 89.7189C133.576 89.5136 133.682 89.357 133.82 89.2492C133.96 89.1404 134.127 89.0861 134.321 89.0861C134.516 89.0861 134.683 89.1404 134.821 89.2492C134.96 89.357 135.066 89.5136 135.139 89.7189C135.213 89.9233 135.25 90.1699 135.25 90.4587C135.25 90.7492 135.214 90.9971 135.141 91.2024C135.068 91.4068 134.962 91.563 134.824 91.6708C134.685 91.7778 134.518 91.8313 134.321 91.8313ZM134.321 91.5443C134.516 91.5443 134.668 91.4503 134.775 91.2624C134.883 91.0746 134.937 90.8066 134.937 90.4587C134.937 90.2273 134.912 90.0303 134.863 89.8676C134.814 89.705 134.744 89.581 134.652 89.4958C134.56 89.4105 134.45 89.3679 134.321 89.3679C134.128 89.3679 133.977 89.4632 133.869 89.6537C133.76 89.8433 133.706 90.1116 133.706 90.4587C133.706 90.6901 133.73 90.8867 133.779 91.0485C133.827 91.2103 133.897 91.3333 133.989 91.4177C134.081 91.5021 134.192 91.5443 134.321 91.5443ZM135.758 91.7948L136.953 89.4305V89.4097H135.575V89.1226H137.287V89.4253L136.097 91.7948H135.758ZM138.927 90.3152V90.6022H137.758V90.3152H138.927ZM140.335 91.8313C140.139 91.8313 139.971 91.7778 139.833 91.6708C139.694 91.563 139.589 91.4068 139.516 91.2024C139.443 90.9971 139.406 90.7492 139.406 90.4587C139.406 90.1699 139.443 89.9233 139.516 89.7189C139.59 89.5136 139.696 89.357 139.834 89.2492C139.973 89.1404 140.14 89.0861 140.335 89.0861C140.53 89.0861 140.697 89.1404 140.835 89.2492C140.974 89.357 141.08 89.5136 141.153 89.7189C141.227 89.9233 141.264 90.1699 141.264 90.4587C141.264 90.7492 141.228 90.9971 141.155 91.2024C141.081 91.4068 140.976 91.563 140.837 91.6708C140.699 91.7778 140.532 91.8313 140.335 91.8313ZM140.335 91.5443C140.53 91.5443 140.681 91.4503 140.789 91.2624C140.897 91.0746 140.951 90.8066 140.951 90.4587C140.951 90.2273 140.926 90.0303 140.877 89.8676C140.828 89.705 140.757 89.581 140.665 89.4958C140.574 89.4105 140.464 89.3679 140.335 89.3679C140.142 89.3679 139.991 89.4632 139.882 89.6537C139.774 89.8433 139.719 90.1116 139.719 90.4587C139.719 90.6901 139.744 90.8867 139.792 91.0485C139.841 91.2103 139.911 91.3333 140.002 91.4177C140.095 91.5021 140.206 91.5443 140.335 91.5443ZM141.772 91.7948L142.967 89.4305V89.4097H141.589V89.1226H143.301V89.4253L142.111 91.7948H141.772Z" fill="#222C3A"/>
<mask id="mask0_994_9866" style="mask-type:luminance" maskUnits="userSpaceOnUse" x="10" y="2" width="133" height="86">
<path d="M10.2197 2.14288H142.513V87.2634H10.2197V2.14288Z" fill="white"/>
</mask>
<g mask="url(#mask0_994_9866)">
<path d="M20.1543 81.9434L38.979 77.0419L57.8036 64.422L76.6283 62.9009L95.4529 64.422L114.278 52.0275L133.102 31.1821" stroke="#1F2937" stroke-linejoin="bevel"/>
</g>
<mask id="mask1_994_9866" style="mask-type:luminance" maskUnits="userSpaceOnUse" x="10" y="2" width="133" height="86">
<path d="M10.2197 2.14288H142.513V87.2634H10.2197V2.14288Z" fill="white"/>
</mask>
<g mask="url(#mask1_994_9866)">
<path d="M20.1543 63.0136L38.979 55.2952L57.8036 42.1683L76.6283 34.9006L95.4529 17.3229L114.278 16.3651L133.102 22.168" stroke="#D0D4DA" stroke-linejoin="bevel"/>
</g>
<path d="M10.0791 86.5H147.417" stroke="#1F2937" stroke-width="0.2"/>
<path d="M10 0L10 86.5934" stroke="#1F2937" stroke-width="0.195402"/>
</svg>
