<svg width="106" height="64" viewBox="0 0 106 64" fill="none" xmlns="http://www.w3.org/2000/svg">
<rect width="28" height="20" fill="#717171"/>
<rect x="30" width="30" height="20" fill="#D9D9D9"/>
<rect x="62" width="10" height="20" fill="#0D0D0D" fill-opacity="0.82"/>
<rect x="74" width="10" height="20" fill="#717171"/>
<rect x="86" width="20" height="20" fill="#D9D9D9"/>
<rect width="30" height="20" transform="matrix(-1 0 0 1 106 22)" fill="#717171"/>
<rect width="30" height="20" transform="matrix(-1 0 0 1 74 22)" fill="#0D0D0D" fill-opacity="0.82"/>
<rect width="10" height="20" transform="matrix(-1 0 0 1 42 22)" fill="#717171"/>
<rect width="30" height="20" transform="matrix(-1 0 0 1 30 22)" fill="#D9D9D9"/>
<rect y="44" width="30" height="20" fill="#717171"/>
<rect x="32" y="44" width="30" height="20" fill="#D9D9D9"/>
<rect x="64" y="44" width="10" height="20" fill="#717171"/>
<rect x="76" y="44" width="30" height="20" fill="#0D0D0D" fill-opacity="0.82"/>
</svg>
